# Blender v2.69 (sub 0) OBJ File: 'waterlily.blend'
# www.blender.org
mtllib waterlily.mtl
o mesh38.000_mesh38-geometry.002
v 2.209508 1.633390 0.654831
v 2.183858 1.743104 0.831226
v 2.178123 1.944576 0.438838
v 2.015609 1.766309 0.211101
v 2.183901 1.878497 0.041571
v 2.227839 1.614331 0.243253
v 2.185151 1.860123 0.049091
v 2.176444 1.931684 0.438702
v 2.224587 1.761959 0.745616
v 2.187623 1.833474 0.694105
v 2.190080 1.785120 0.759212
v 2.192696 1.731183 0.808394
v 2.219074 1.734540 0.772662
v 2.406747 1.761953 0.317600
v 2.193623 1.627271 0.656466
v 2.185515 1.595920 0.249932
vt 12080.117188 12431.357422
vt 20037.464844 17321.906250
vt 19719.388672 13414.973633
vt 12475.303711 29604.355469
vt 19232.625000 29441.523438
vt 12573.052734 23804.597656
vt -423.407837 26387.046875
vt -8448.545898 22464.958984
vt -8077.932617 28235.468750
vt 3.202332 20424.023438
vt -7354.435547 -4832.953125
vt -3171.143555 -5559.434570
vt -4171.723145 -8318.897461
vt -31473.576172 19710.173828
vt -36221.847656 25773.123047
vt -33649.812500 28732.107422
vt 41486.605469 -5399.803711
vt 43600.968750 -9613.946289
vt 40667.308594 -9564.375000
vt -3884.993652 -2925.537842
vt -1993.344116 6864.825684
vt 2142.741699 2822.818115
vt -30284.294922 26008.902344
vt -33274.300781 29684.501953
vt -27779.275391 30344.751953
vt -31040.515625 31646.808594
vt -29781.664062 25312.988281
vt -35073.375000 28453.611328
vt -30834.525391 29869.148438
vt -31072.011719 27300.812500
vt -32592.242188 28459.746094
vt -29377.208984 32309.083984
vt -30092.218750 28337.841797
vt -31727.558594 30271.144531
vt -27996.410156 32263.501953
vt -30597.041016 32437.484375
vt -29184.031250 21909.980469
vt -29698.818359 24267.269531
vt -29936.730469 26835.564453
vt -23386.826172 25937.466797
vt -25022.871094 24004.175781
vt -27119.851562 27929.812500
vn -0.943541 -0.131138 -0.304086
vn -0.818659 0.554252 0.150342
vn -0.751561 0.160561 -0.639825
vn -0.974237 -0.158416 0.160517
vn -0.593822 -0.779735 -0.198466
vn -0.984360 -0.172481 -0.035856
vn 0.987365 0.005402 -0.158238
vn 0.790051 0.237199 -0.565293
vn 0.624106 0.774787 0.100974
vn 0.629292 -0.706846 -0.323048
vn 0.778934 -0.568932 0.263776
vn 0.710994 0.639567 0.292303
vn 0.863847 0.344396 0.367642
vn 0.333512 -0.939263 0.080963
vn 0.612816 0.645289 0.456135
vn 0.686392 0.643483 0.338725
vn 0.612816 0.645289 0.456134
vn 0.612817 0.645289 0.456133
vn 0.599629 0.554908 0.576648
vn 0.713188 0.414332 0.565414
vn 0.713190 0.414327 0.565414
vn 0.714750 -0.644611 0.271311
usemtl petal
s 1
f 4/1/1 3/2/2 5/3/3
f 2/4/4 3/5/2 4/6/1
f 2/7/4 6/8/5 1/9/6
f 4/10/1 6/8/5 2/7/4
f 6/11/5 4/12/1 5/13/3
f 14/14/7 7/15/8 8/16/9
f 16/17/10 7/18/8 14/19/7
f 14/20/7 15/21/11 16/22/10
f 14/23/7 10/24/12 9/25/13
f 10/26/12 14/27/7 8/28/9
f 13/29/14 14/30/7 9/31/13
f 9/25/15 10/24/16 11/32/17
f 11/32/17 9/25/18 10/24/16
f 9/33/19 11/34/19 12/35/19
f 13/29/20 9/31/20 12/36/20
f 12/36/21 13/29/21 9/31/21
f 14/37/7 13/38/14 12/39/22
f 15/40/11 14/41/7 12/42/22
o mesh38.001_mesh38-geometry.001
v 0.414228 -1.939998 0.428055
v 0.397281 -1.867508 0.544604
v 0.393491 -1.734390 0.285344
v 0.286115 -1.852175 0.134873
v 0.397309 -1.778050 0.022861
v 0.426340 -1.952591 0.156117
v 0.398135 -1.790190 0.027829
v 0.392382 -1.742908 0.285255
v 0.424191 -1.855050 0.488040
v 0.399768 -1.807798 0.454005
v 0.401391 -1.839746 0.497022
v 0.403120 -1.875384 0.529518
v 0.420549 -1.873165 0.505909
v 0.544549 -1.855053 0.205240
v 0.403732 -1.944041 0.429136
v 0.398375 -1.964755 0.160530
vt 12080.117188 12431.357422
vt 20037.464844 17321.906250
vt 19719.388672 13414.973633
vt 12475.303711 29604.355469
vt 19232.625000 29441.523438
vt 12573.052734 23804.597656
vt -423.407837 26387.046875
vt -8448.545898 22464.958984
vt -8077.932617 28235.468750
vt 3.202332 20424.023438
vt -7354.435547 -4832.953125
vt -3171.143555 -5559.434570
vt -4171.723145 -8318.897461
vt -31473.576172 19710.173828
vt -36221.847656 25773.123047
vt -33649.812500 28732.107422
vt 41486.605469 -5399.803711
vt 43600.968750 -9613.946289
vt 40667.308594 -9564.375000
vt -3884.993652 -2925.537842
vt -1993.344116 6864.825684
vt 2142.741699 2822.818115
vt -30284.294922 26008.902344
vt -33274.300781 29684.501953
vt -27779.275391 30344.751953
vt -31040.515625 31646.808594
vt -29781.664062 25312.988281
vt -35073.375000 28453.611328
vt -30834.525391 29869.148438
vt -31072.011719 27300.812500
vt -32592.242188 28459.746094
vt -29377.208984 32309.083984
vt -30092.218750 28337.841797
vt -31727.558594 30271.144531
vt -27996.410156 32263.501953
vt -30597.041016 32437.484375
vt -29184.031250 21909.980469
vt -29698.818359 24267.269531
vt -29936.730469 26835.564453
vt -23386.826172 25937.466797
vt -25022.871094 24004.175781
vt -27119.851562 27929.812500
vn -0.943541 -0.131138 -0.304086
vn -0.818659 0.554252 0.150341
vn -0.751561 0.160560 -0.639825
vn -0.974238 -0.158416 0.160517
vn -0.593822 -0.779735 -0.198465
vn -0.984360 -0.172479 -0.035856
vn 0.987365 0.005402 -0.158238
vn 0.790051 0.237200 -0.565293
vn 0.624107 0.774787 0.100974
vn 0.629292 -0.706846 -0.323047
vn 0.778934 -0.568932 0.263776
vn 0.710993 0.639569 0.292302
vn 0.863845 0.344399 0.367642
vn 0.333517 -0.939261 0.080960
vn 0.612816 0.645290 0.456134
vn 0.686392 0.643483 0.338725
vn 0.612815 0.645290 0.456134
vn 0.612815 0.645290 0.456135
vn 0.599630 0.554908 0.576646
vn 0.713185 0.414333 0.565416
vn 0.713186 0.414333 0.565415
vn 0.714749 -0.644612 0.271309
usemtl petal
s 1
f 20/43/23 19/44/24 21/45/25
f 18/46/26 19/47/24 20/48/23
f 18/49/26 22/50/27 17/51/28
f 20/52/23 22/50/27 18/49/26
f 22/53/27 20/54/23 21/55/25
f 30/56/29 23/57/30 24/58/31
f 32/59/32 23/60/30 30/61/29
f 30/62/29 31/63/33 32/64/32
f 30/65/29 26/66/34 25/67/35
f 26/68/34 30/69/29 24/70/31
f 29/71/36 30/72/29 25/73/35
f 25/67/37 26/66/38 27/74/39
f 27/74/39 25/67/40 26/66/38
f 25/75/41 27/76/41 28/77/41
f 29/71/42 25/73/42 28/78/42
f 28/78/43 29/71/43 25/73/43
f 30/79/29 29/80/36 28/81/44
f 31/82/33 30/83/29 28/84/44
o mesh18_mesh18-geometry
v 1.483942 -0.163303 0.139508
v 1.294434 0.024112 0.320994
v 1.389480 0.084965 0.174307
v 1.246003 0.092424 0.371248
v 1.491110 0.190908 0.149820
v 1.747027 0.125655 0.371233
v 1.453607 0.664878 0.832908
v 1.321726 0.468598 0.704185
v 1.628725 0.500609 0.703412
v 1.610650 0.101377 0.164475
v 1.705531 0.048087 0.325546
v 1.552205 -0.869104 0.602746
v 1.600656 -0.918628 0.826262
v 1.761392 -0.693573 0.624530
v 1.787318 -0.394160 0.371240
v 1.643693 -0.389971 0.174307
v 1.737307 -0.326978 0.320989
v 1.326882 -0.360292 0.325567
v 1.422955 -0.411424 0.164474
v 1.287179 -0.438795 0.371239
v 1.420108 -0.798710 0.704275
v 1.544542 -0.498199 0.149819
v 1.543452 -0.143923 0.139503
v 1.864897 -0.122722 0.145251
v 1.763149 0.111310 0.371243
v 1.757098 -0.025467 0.164441
v 1.691141 0.059862 0.326003
v 1.505969 -0.166596 0.138071
v 1.717599 -0.342433 0.326045
v 1.769630 -0.243773 0.175051
v 2.149575 0.038220 0.706028
v 2.334587 -0.095220 0.832301
v 2.177081 -0.279910 0.693337
v 1.795756 -0.383971 0.371256
v 1.520475 -0.140759 0.139055
v 1.270841 -0.289256 0.156125
v 1.341522 -0.371716 0.326024
v 0.889501 -0.356614 0.705681
v 0.694639 -0.229201 0.832229
v 1.158973 -0.175845 0.143307
v 0.853803 -0.060603 0.705356
v 1.226592 0.069571 0.371249
v 1.255975 -0.069994 0.175051
v 1.305683 0.029849 0.326025
v 1.267526 -0.451062 0.349014
v 1.530076 -0.125762 0.140575
v 1.540611 -0.462584 0.327985
v 1.823368 -0.249384 0.168214
v 1.851140 -0.113935 0.290761
v 1.657729 -0.447020 0.158952
v 1.564986 -0.579017 0.331113
v 1.966784 -0.128807 0.296523
v 2.099263 -0.290168 0.460441
v 2.257843 -0.790712 0.693115
v 2.241330 -0.615322 0.636120
v 1.963977 -0.776998 0.590166
v 1.838225 -0.430439 0.126689
v 0.775877 0.290531 0.636117
v 0.755330 0.465498 0.693115
v 1.049446 0.458552 0.590160
v 0.925393 -0.031264 0.460439
v 1.452878 0.269813 0.331113
v 0.966014 0.312842 0.332464
v 1.061553 -0.189530 0.296523
v 1.202155 -0.065683 0.168214
v 1.195616 0.104604 0.158739
v 1.363199 0.135715 0.158952
v 1.479927 0.153971 0.327985
v 1.498216 -0.182519 0.140575
v 1.177509 -0.201735 0.290761
v 1.178167 -0.872988 0.588056
v 1.552622 -0.600367 0.312495
v 1.227319 -0.305101 0.168215
v 1.174924 -0.177146 0.290760
v 1.254438 -0.474266 0.152367
v 1.492618 -0.129263 0.140575
v 1.544690 -0.462203 0.327985
v 1.426717 -0.468615 0.158952
v 1.069097 -0.208815 0.312495
v 0.898650 -0.618877 0.589265
v 0.884123 -0.915020 0.692868
v 1.807878 -0.007556 0.152487
v 1.778589 0.159099 0.158739
v 1.856140 0.531528 0.590694
v 1.964842 -0.105093 0.296524
v 1.822446 -0.127164 0.327985
v 1.609246 0.155592 0.168215
v 1.473797 0.183364 0.290761
v 1.485905 -0.137188 0.141355
v 1.495164 0.273766 0.331113
v 2.023169 0.466294 0.399134
v 2.142079 0.544560 0.693743
v 2.065508 0.074824 0.461637
vt 39043.121094 31719.689453
vt 42238.511719 34433.167969
vt 39170.042969 37292.531250
vt 3369.201904 52372.933594
vt 7563.403320 52362.015625
vt 4818.083008 55153.320312
vt -61046.261719 10103.833984
vt -56090.968750 17278.482422
vt -60127.355469 21392.972656
vt -61258.019531 31707.962891
vt -59594.750000 25876.654297
vt -55093.007812 28789.685547
vt 25061.287109 37928.730469
vt 16484.435547 40381.632812
vt 21443.185547 33207.511719
vt 20570.017578 44426.527344
vt 3587.966553 6740.388672
vt -448.825317 2625.737305
vt 4508.216797 -4548.649414
vt 20870.457031 -413.829773
vt 25372.847656 -3326.698242
vt 27037.218750 2504.284180
vt 34220.304688 18051.769531
vt 39177.347656 25226.158203
vt 30602.736328 22773.167969
vt 35092.578125 29271.375000
vt 23206.507812 7115.006836
vt 28374.087891 10073.030273
vt 25625.787109 12002.221680
vt 30822.507812 28445.212891
vt 32469.517578 30378.406250
vt 28726.816406 32370.650391
vt 10904.122070 34631.148438
vt 10171.490234 30428.685547
vt 13085.800781 30378.970703
vt 547.918945 -39223.625000
vt -900.727356 -42004.679688
vt 3292.399414 -42015.601562
vt 29379.667969 31832.207031
vt 29379.667969 37406.519531
vt 26246.908203 34619.363281
vt 6126.187012 -10747.326172
vt 8901.652344 -13451.915039
vt 13105.054688 -5786.152344
vt -19216.119141 -680.232239
vt -25378.513672 2241.810791
vt -23665.894531 -3597.022461
vt 1452.589111 -39067.546875
vt -1236.872314 -41854.976562
vt 2963.292480 -41844.066406
vt 34059.652344 26534.779297
vt 36887.246094 29637.724609
vt 31376.328125 29766.074219
vt -34841.621094 28769.599609
vt -38976.433594 24727.353516
vt -32475.144531 19591.748047
vt -29045.041016 25128.353516
vt -34731.500000 28778.076172
vt -32373.162109 20377.876953
vt 31487.589844 39538.105469
vt 36999.972656 39538.105469
vt 34243.781250 42706.066406
vt -5678.853027 52246.257812
vt -7189.403809 55023.445312
vt -9877.951172 52235.351562
vt 59659.734375 26560.291016
vt 61371.253906 32399.458984
vt 55210.613281 29477.246094
vt -23154.238281 44158.703125
vt -23915.041016 32916.648438
vt -19018.669922 40116.710938
vt 67821.218750 21691.634766
vt 62133.472656 25342.037109
vt 64492.097656 16941.769531
vt 1017.754883 47108.230469
vt -1428.541992 52000.250000
vt -4145.954102 50069.164062
vt -19872.800781 42438.902344
vt -23136.390625 45735.832031
vt -24914.005859 42451.800781
vt 38889.535156 30990.671875
vt 34580.277344 25912.851562
vt 39620.703125 26002.753906
vt -1279.610718 41602.464844
vt -9115.721680 45526.507812
vt -5658.199219 37467.699219
vt -5702.096680 43263.296875
vt -12492.454102 42340.914062
vt -7663.713379 37988.804688
vt -21695.400391 48760.160156
vt -24618.091797 44421.488281
vt -18412.111328 47047.503906
vt -50268.882812 4081.229004
vt -47254.296875 11202.990234
vt -54242.078125 8161.591309
vt -38876.804688 2979.248779
vt -43814.949219 6521.462891
vt -46533.636719 -1676.031006
vt 49493.179688 13918.496094
vt 55699.164062 16544.507812
vt 52415.871094 18257.164062
vt 12830.404297 35643.273438
vt 15844.778320 42765.804688
vt 8857.125000 39723.558594
vt 18599.320312 41166.429688
vt 13661.175781 44708.644531
vt 10942.460938 36511.234375
vt 48597.175781 8965.497070
vt 50558.796875 14239.980469
vt 43768.515625 13317.532227
vt 37693.367188 -5800.294922
vt 42071.957031 -1665.530151
vt 34235.937500 2258.396240
vt 8814.711914 35941.023438
vt 13883.703125 42952.863281
vt 5505.864746 38416.593750
vt 38159.496094 -11323.684570
vt 43588.687500 -14821.205078
vt 45920.355469 -11403.766602
vt 30297.710938 -27186.712891
vt 28520.095703 -30470.746094
vt 33561.300781 -30483.644531
vt 25591.611328 33364.710938
vt 29782.806641 38540.402344
vt 24745.791016 38334.468750
vt 14230.065430 4391.209473
vt 18938.570312 605.815552
vt 19603.320312 10081.318359
vt -11842.323242 -633.439331
vt -9814.514648 4729.264648
vt -17219.558594 2045.500488
vt -17863.988281 1570.521973
vt -21090.199219 -3514.739258
vt -12633.846680 -1385.320435
vt 9987.029297 -2346.137451
vt 4756.886719 -5301.979492
vt 13213.239258 -7431.398926
vt 26987.972656 -23430.548828
vt 23724.382812 -26727.480469
vt 28765.587891 -26714.582031
vt 26174.019531 24745.787109
vt 31143.779297 25591.607422
vt 25968.089844 29782.798828
vt -36527.210938 44965.761719
vt -31098.021484 48463.281250
vt -38858.882812 48383.199219
vt 56468.328125 19255.492188
vt 59777.175781 21731.062500
vt 51399.300781 26267.298828
vt -48745.347656 39279.804688
vt -56608.394531 35375.078125
vt -52229.765625 31240.351562
vt 58085.617188 29529.912109
vt 55366.878906 37727.386719
vt 50428.730469 34185.171875
vt -46514.671875 41682.390625
vt -53304.804688 42604.976562
vt -51343.113281 37330.562500
vt 49392.777344 32654.880859
vt 51910.953125 35830.253906
vt 47420.855469 34218.683594
vt 38888.566406 33064.949219
vt 43929.773438 33052.050781
vt 40666.179688 36348.980469
vt 38595.636719 34580.273438
vt 38505.734375 39620.699219
vt 33517.816406 38889.527344
vt -20285.142578 -30085.830078
vt -17370.224609 -30135.539062
vt -19553.060547 -25883.855469
vt 45974.246094 27252.380859
vt 44090.894531 20458.445312
vt 47201.410156 20808.169922
vt -32547.585938 -9509.947266
vt -34433.058594 -16304.457031
vt -31322.333984 -15953.950195
vt -12896.862305 34002.441406
vt -15014.164062 29788.773438
vt -12079.317383 29838.335938
vt 32087.447266 -15103.719727
vt 35125.375000 -15976.818359
vt 34708.289062 -10013.902344
vt 19354.494141 -29582.416016
vt 22288.761719 -29532.847656
vt 21470.101562 -25368.679688
vt -48146.773438 19904.484375
vt -45108.300781 19031.417969
vt -45527.039062 24993.914062
vt 9510.575195 -33303.921875
vt 13023.832031 -33353.183594
vt 10922.310547 -29461.318359
vt 19749.818359 43344.972656
vt 17444.935547 36873.750000
vt 21247.945312 37019.722656
vt -20589.607422 38213.156250
vt -22001.269531 34370.511719
vt -18488.013672 34321.250000
vt -3792.650146 -25147.287109
vt -6097.535156 -31618.513672
vt -2294.524414 -31472.535156
vt 37037.628906 11229.055664
vt 35539.500000 4903.807129
vt 39342.511719 4757.844238
vt -33545.828125 23099.611328
vt -35647.378906 19207.734375
vt -32134.119141 19256.996094
vt 52687.757812 239.798401
vt 50380.621094 -6221.921875
vt 54185.882812 -6085.450684
vt -49360.371094 -12455.138672
vt -45847.113281 -12504.399414
vt -47933.671875 -8622.166016
vn -0.484532 0.150674 0.861700
vn 0.041566 -0.029914 0.998688
vn 0.052764 0.188888 0.980580
vn 0.521441 0.079316 0.849593
vn 0.067319 -0.795643 0.602014
vn -0.593547 -0.630444 0.500242
vn -0.398955 -0.754424 0.521229
vn 0.096858 -0.795675 0.597930
vn 0.631844 -0.612355 0.475179
vn 0.328150 -0.662244 0.673610
vn -0.624642 0.626245 0.466520
vn -0.690500 0.501085 0.521654
vn -0.064087 0.751425 0.656698
vn 0.025391 0.897732 0.439772
vn 0.598505 0.632876 0.491182
vn 0.613361 0.735349 0.288184
vn -0.137437 0.960348 0.242574
vn 0.775530 -0.297356 0.556895
vn 0.487880 -0.139328 0.861720
vn -0.048077 -0.190086 0.980590
vn -0.519482 -0.091465 0.849572
vn -0.042299 0.028951 0.998685
vn -0.766262 0.352131 0.537444
vn -0.772775 -0.072839 0.630486
vn -0.602837 0.607252 0.517526
vn -0.818933 -0.105655 0.564079
vn 0.042292 0.545538 0.837018
vn -0.024461 0.036624 0.999030
vn 0.192967 0.050483 0.979906
vn 0.183324 -0.485891 0.854577
vn -0.675696 -0.542802 0.498800
vn -0.542105 -0.693670 0.474283
vn -0.206914 0.447827 0.869849
vn -0.210778 -0.062331 0.975545
vn 0.020416 -0.089670 0.995762
vn -0.037899 -0.561970 0.826289
vn 0.806735 0.041690 0.589441
vn 0.810496 0.104049 0.576429
vn 0.640274 0.594890 0.485957
vn 0.760316 -0.416717 0.498264
vn 0.635489 -0.612150 0.470560
vn 0.672983 0.435273 0.598023
vn 0.004182 -0.041306 0.999138
vn -0.251014 -0.398272 0.882253
vn 0.159640 -0.117944 0.980104
vn 0.463296 0.233003 0.855024
vn -0.494378 0.470838 0.730685
vn -0.785384 -0.011033 0.618910
vn -0.784625 -0.014563 0.619800
vn -0.761435 0.103216 0.639971
vn -0.532103 0.478471 0.698521
vn -0.135137 0.775589 0.616603
vn 0.010438 0.802181 0.596989
vn 0.481216 -0.480911 0.732871
vn 0.617593 -0.526979 0.583843
vn 0.847859 -0.010713 0.530114
vn 0.048210 -0.876077 0.479756
vn -0.065618 -0.762662 0.643460
vn 0.824279 0.109300 0.555534
vn 0.734393 0.091549 0.672522
vn 0.350524 -0.341162 0.872205
vn 0.208589 0.309059 0.927886
vn -0.135328 0.087861 0.986898
vn 0.057476 -0.002585 0.998344
vn -0.377982 -0.212402 0.901119
vn 0.458168 0.496170 0.737494
vn 0.746998 0.152836 0.647020
vn 0.646714 0.223409 0.729280
vn 0.428438 0.506086 0.748543
vn 0.096030 0.725871 0.681094
vn -0.046431 0.740949 0.669954
vn 0.279633 -0.277423 0.919153
vn 0.045307 0.002865 0.998969
vn -0.118404 -0.120527 0.985624
vn -0.432270 0.132251 0.891993
vn -0.297983 -0.429763 0.852356
vn -0.741839 -0.044432 0.669105
vn -0.467513 -0.611133 0.638661
vn 0.187038 -0.740862 0.645089
vn -0.869491 -0.015210 0.493714
vn 0.110622 -0.907394 0.405461
vn -0.632239 -0.646526 0.426941
vn 0.098955 0.137623 0.985529
vn 0.016012 -0.074321 0.997106
vn 0.304479 -0.213432 0.928299
vn -0.179889 0.368479 0.912066
vn -0.768377 0.315303 0.556939
vn 0.777359 0.212798 0.591971
vn -0.772191 -0.230859 0.591967
vn 0.365733 -0.753007 0.547010
vn 0.153839 0.802066 0.577082
vn -0.406391 0.744119 0.530219
vn -0.136781 -0.804945 0.577369
vn 0.760125 0.333923 0.557410
vn -0.321338 -0.598247 0.734059
vn -0.752235 -0.351338 0.557409
vn 0.307476 0.605491 0.734056
vn 0.426645 -0.528326 0.734061
vn -0.808842 0.187262 0.557412
vn 0.598834 -0.319642 0.734321
vn -0.328116 0.767693 0.550443
usemtl petal
s 1
f 42/85/45 37/86/46 33/87/47
f 33/88/47 37/89/46 35/90/48
f 37/91/49 38/92/50 41/93/51
f 39/94/52 37/95/49 41/96/51
f 39/97/52 36/98/53 37/99/49
f 39/97/52 40/100/54 36/98/53
f 46/101/55 47/102/56 54/103/57
f 46/104/55 54/105/57 44/106/58
f 54/107/57 52/108/59 44/109/58
f 52/108/59 53/110/60 44/109/58
f 46/111/55 44/112/58 45/113/61
f 44/114/58 53/115/60 45/116/61
f 50/117/62 51/118/63 55/119/64
f 48/120/65 55/121/64 54/122/66
f 55/123/64 51/124/63 54/125/66
f 65/126/67 56/127/68 66/128/69
f 65/129/67 64/130/70 56/131/68
f 62/132/71 56/133/72 60/134/73
f 56/135/72 58/136/74 60/137/73
f 63/138/75 57/139/76 56/140/68
f 64/141/70 63/142/75 56/143/68
f 68/144/77 67/145/78 72/146/79
f 67/147/78 75/148/80 72/149/79
f 72/150/81 71/151/82 77/152/83
f 73/153/84 72/154/81 74/155/85
f 71/156/82 70/157/86 77/158/83
f 72/159/81 73/160/84 71/161/82
f 89/162/87 80/163/88 78/164/89
f 78/165/89 82/166/90 89/167/87
f 89/168/91 85/169/92 84/170/93
f 87/171/94 85/172/92 89/173/91
f 87/174/94 89/175/91 86/176/95
f 89/177/91 88/178/96 86/179/95
f 83/180/97 88/181/96 89/182/91
f 95/183/98 91/184/99 90/185/100
f 95/186/98 92/187/101 91/188/99
f 94/189/102 92/190/101 95/191/98
f 95/192/98 90/193/100 93/194/103
f 96/195/104 95/196/98 93/197/103
f 98/198/105 94/199/102 95/200/98
f 96/201/104 98/202/105 95/203/98
f 97/204/106 101/205/107 98/206/108
f 101/207/107 99/208/109 98/209/108
f 113/210/110 111/211/111 112/212/112
f 107/213/113 113/214/110 103/215/114
f 103/216/114 104/217/115 107/218/113
f 113/219/110 107/220/113 111/221/111
f 105/222/116 107/223/117 108/224/118
f 107/225/117 110/226/119 108/227/118
f 115/228/120 117/229/121 123/230/122
f 115/231/120 123/232/122 122/233/123
f 125/234/124 123/235/122 117/236/121
f 123/237/122 116/238/125 122/239/123
f 125/240/124 124/241/126 123/242/122
f 123/243/122 124/244/126 116/245/125
f 121/246/127 115/247/128 119/248/129
f 114/249/130 115/250/128 121/251/127
usemtl base
f 42/252/45 33/253/47 43/254/131
f 34/255/132 33/256/47 35/257/48
f 49/258/133 55/259/64 48/260/65
f 59/261/134 60/262/73 58/263/74
f 62/264/71 60/265/73 61/266/135
f 67/267/78 68/268/77 69/269/136
f 75/270/80 67/271/78 76/272/137
f 82/273/90 78/274/89 79/275/138
f 81/276/139 78/277/89 80/278/88
f 100/279/140 99/280/109 101/281/107
f 102/282/141 101/283/107 97/284/106
f 106/285/142 105/286/116 108/287/118
f 109/288/143 108/289/118 110/290/119
f 120/291/144 121/292/127 119/293/129
f 114/294/130 121/295/127 118/296/145
o lily.008_lily.047
v 0.358445 -1.611063 0.005517
v 1.175444 -1.390560 0.005517
v 1.395947 -2.207560 0.005517
v 0.578947 -2.428062 0.005517
v 1.575796 -0.235249 0.073277
v 1.363237 0.474622 0.073277
v 2.073109 0.687181 0.073277
v 2.285668 -0.022691 0.073277
v 1.966635 0.251117 0.190453
v -0.395492 0.016861 0.190453
v -0.629748 2.378988 0.190453
v 1.732378 2.613244 0.190453
v 0.846203 0.898857 0.143100
v 1.860844 -1.247075 0.143100
v -0.285089 -2.261716 0.143100
v -1.299729 -0.115783 0.143100
v 0.747942 -0.406843 0.085527
v 2.796016 -0.118017 0.085527
v 3.084841 -2.166092 0.085527
v 1.036767 -2.454917 0.085527
v 2.047327 -0.257337 0.152124
v 1.593578 1.258024 0.152124
v 3.108940 1.711773 0.152124
v 3.562688 0.196411 0.152124
v 0.577517 0.589154 0.085527
v -0.697442 -0.347163 0.085527
v -1.633759 0.927796 0.085527
v -0.358800 1.864113 0.085527
v -0.198641 -1.061512 0.085527
v 0.825273 -2.267253 0.085527
v -0.380468 -3.291167 0.085527
v -1.404382 -2.085426 0.085527
v 0.301148 -1.036748 0.005517
v -0.273104 -2.084863 0.005517
v -1.321219 -1.510612 0.005517
v -0.746967 -0.462496 0.005517
v 1.770201 0.843330 0.073277
v 1.278338 1.397559 0.073277
v 1.832566 1.889422 0.073277
v 2.324429 1.335194 0.073277
v 2.015853 -0.479936 0.073277
v 2.260237 0.219618 0.073277
v 2.959791 -0.024766 0.073277
v 2.715407 -0.724320 0.073277
vt 0.000000 0.000000
vt 1.000000 0.000000
vt 0.000000 1.000000
vt 1.000000 1.000000
vn 0.000000 0.000000 1.000000
usemtl lily
s off
f 126/297/146 129/298/146 127/299/146
f 130/297/146 133/298/146 131/299/146
f 134/297/146 137/298/146 135/299/146
f 138/297/146 141/298/146 139/299/146
f 142/297/146 145/298/146 143/299/146
f 146/297/146 149/298/146 147/299/146
f 150/297/146 153/298/146 151/299/146
f 154/297/146 157/298/146 155/299/146
f 158/297/146 161/298/146 159/299/146
f 162/297/146 165/298/146 163/299/146
f 166/297/146 169/298/146 167/299/146
f 129/298/146 128/300/146 127/299/146
f 133/298/146 132/300/146 131/299/146
f 137/298/146 136/300/146 135/299/146
f 141/298/146 140/300/146 139/299/146
f 145/298/146 144/300/146 143/299/146
f 149/298/146 148/300/146 147/299/146
f 153/298/146 152/300/146 151/299/146
f 157/298/146 156/300/146 155/299/146
f 161/298/146 160/300/146 159/299/146
f 165/298/146 164/300/146 163/299/146
f 169/298/146 168/300/146 167/299/146
