# Blender v2.68 (sub 0) OBJ File: 'pillar.blend'
# www.blender.org
mtllib pillar.mtl
o Cube.002
v -1.673283 -1.201572 13.343703
v 1.049900 -1.142702 13.320209
v -1.661337 -1.201072 11.783016
v 1.061846 -1.142202 11.759521
v 1.163179 -1.137969 -1.479092
v -1.560004 -1.196839 -1.455595
v -2.358479 -2.285692 12.107640
v 1.652169 -2.192247 12.084126
v -2.362690 -2.285867 12.862696
v 1.647958 -2.192422 12.839182
v 1.112512 -1.140086 5.140213
v -1.610670 -1.198956 5.163710
v 1.104126 -1.140437 6.235828
v -1.619056 -1.199306 6.259323
v 1.421774 -1.934422 5.413692
v -2.093032 -2.017158 5.437202
v 1.418796 -1.934547 5.947805
v -2.096011 -2.017282 5.971315
v 1.044068 -1.142946 14.082270
v -1.679115 -1.201816 14.105766
v 1.080004 -0.104107 13.367953
v -1.627564 -0.104105 13.391466
v -1.673281 0.993362 13.343703
v 1.049902 0.934489 13.320209
v -1.661335 0.992862 11.783016
v 1.061848 0.933989 11.759521
v 1.091955 -0.104107 11.807264
v -1.615613 -0.104105 11.830780
v 1.163180 0.929756 -1.479092
v -1.560003 0.988629 -1.455595
v -1.514239 -0.104105 -1.407835
v 1.193329 -0.104107 -1.431345
v -2.358476 2.077483 12.107640
v 1.672767 -0.104107 12.132388
v -2.313069 -0.104105 12.155943
v 1.652172 1.984033 12.084126
v -2.362687 2.077658 12.862696
v 1.668553 -0.104107 12.887443
v -2.317282 -0.104105 12.910996
v 1.647961 1.984208 12.839182
v 1.112514 0.931872 5.140213
v -1.564926 -0.104105 5.211473
v 1.142642 -0.104107 5.187956
v -1.610669 0.990745 5.163710
v 1.104128 0.932223 6.235828
v -1.573316 -0.104105 6.307087
v 1.134252 -0.104107 6.283571
v -1.619055 0.991096 6.259323
v 1.421777 1.726208 5.413692
v -2.050169 -0.104105 5.485392
v 1.442671 -0.104107 5.461845
v -2.093029 1.808948 5.437202
v 1.418798 1.726333 5.947805
v -2.053149 -0.104105 6.019505
v 1.439690 -0.104107 5.995956
v -2.096008 1.809073 5.971315
v -0.359629 -0.104106 15.013739
v 1.044069 0.934733 14.082270
v -1.679114 0.993606 14.105766
v -1.633399 -0.104105 14.153528
v 1.074169 -0.104107 14.130014
vt 0.252710 0.766791
vt 0.111835 0.108093
vt 2.833913 0.766791
vt 0.281072 0.292727
vt 0.462806 -0.407242
vt 0.996208 -0.204522
vt 0.433088 0.341565
vt -1.718928 0.292727
vt -0.100314 0.138845
vt 0.111835 0.783951
vt 0.093361 0.462979
vt 2.693038 0.783951
vt 0.234237 0.485374
vt 0.252710 0.806346
vt 2.833913 0.806347
vt 0.614822 0.309098
vt 0.433088 1.009065
vt -0.016979 0.485373
vt 0.109407 0.292727
vt 0.090933 -0.407242
vt 0.403842 0.292727
vt 0.250282 0.455336
vt 0.109407 -0.981135
vt 0.544717 0.455336
vt 0.231809 0.309097
vt 0.250282 1.009065
vt 0.544717 1.009065
vt 0.912873 0.783951
vt 0.996208 0.462978
vt 0.281072 0.960227
vt 0.899686 0.806345
vt -0.087127 0.783951
vt -0.718928 0.960227
vt 0.983021 0.485373
vt 1.433088 1.009065
vt 0.320088 0.298620
vt -1.585082 0.255383
vt -0.100314 0.138846
vt 0.414918 0.255383
vt 0.575806 -0.364295
vt 0.996208 -0.204521
vt 0.480976 0.346442
vt 0.320088 0.966120
vt -0.016979 0.485374
vt 0.671506 0.766791
vt 0.530631 0.108093
vt 2.825474 0.766791
vt 0.530631 0.783951
vt 0.512158 0.462978
vt 2.684599 0.783951
vt 0.653034 0.485373
vt 0.671506 0.806345
vt 2.825474 0.806346
vt 0.937624 0.379909
vt 0.796749 -0.891793
vt 1.145902 0.379909
vt 0.796749 0.255383
vt 0.778275 -0.364295
vt 1.005026 0.255383
vt 0.919151 0.346442
vt 0.937624 0.966120
vt 1.145902 0.966120
vt 0.899686 0.806346
vt -0.585082 0.922883
vt 0.996208 0.462979
vt 0.414918 0.922883
vt 0.983021 0.485374
vt 1.320088 0.966120
vt 0.624873 0.775593
vt 0.765748 1.434291
vt 0.402674 1.132755
vt 1.447948 0.634662
vt 0.447947 0.634662
vt 0.903567 0.462978
vt 0.922040 0.783951
vt 0.606400 0.462978
vt 0.062915 0.806345
vt 0.044442 0.485373
vt -0.252725 0.485373
vt 0.922040 0.775593
vt 1.062915 1.434290
vt 0.912873 0.116451
vt 2.815440 0.485374
vt 0.093361 0.831219
vt 2.674564 0.831219
vt 2.815440 1.489917
vt 0.462806 0.260258
vt 2.614822 0.309098
vt 0.526243 0.309098
vt 0.090933 0.475173
vt 0.385367 0.475173
vt 0.526243 1.911644
vt 1.614822 0.309097
vt 1.983021 0.485373
vt 0.575806 0.303205
vt 1.983021 0.485374
vt 2.807002 0.485374
vt 0.512158 0.831219
vt 2.666126 0.831219
vt 2.807002 1.489917
vt 1.127429 0.346442
vt 0.778275 0.550601
vt 0.986552 0.550601
vt 1.127429 1.822302
vt 1.480976 0.346442
vt 0.747275 0.822417
vt 0.402674 0.465255
vt 0.606400 0.163719
vt -0.234252 0.806345
vt 0.044442 0.822416
vt -0.252725 0.822417
vt -0.393600 0.163719
vt 2.693038 0.108093
vt -1.087127 0.116451
vt 2.674564 0.462979
vt -0.100314 0.806345
vt 0.385367 -0.407242
vt 0.403842 -0.981135
vt -0.100314 0.806346
vt 2.684599 0.108093
vt 2.666126 0.462979
vt 1.005026 -0.891793
vt 0.986552 -0.364295
vt 0.624873 0.783951
vt 0.234237 1.489917
vt 0.231809 1.911644
vt 2.614822 0.309097
vt 2.480976 0.346442
vt 0.653034 1.489917
vt 0.919151 1.822302
vt -0.096433 0.163719
vn 0.623218 -0.401990 -0.670797
vn -0.552721 -0.364513 -0.749382
vn 0.697836 -0.716208 0.005097
vn -0.605335 -0.612598 -0.508164
vn -0.789422 -0.351512 -0.503220
vn -0.653401 -0.632191 -0.416333
vn 0.609699 -0.611682 -0.504044
vn 0.536515 -0.394787 -0.745811
vn -0.679769 -0.616077 -0.397900
vn -0.699973 -0.714133 -0.005585
vn 0.749260 -0.568987 -0.338878
vn 0.810633 -0.357799 -0.463454
vn 0.677114 -0.613300 -0.406568
vn -0.615070 -0.634175 0.468490
vn -0.823328 -0.363262 0.436048
vn 0.618183 -0.634144 0.464370
vn 0.835932 -0.371288 0.404126
vn -0.522172 -0.441389 0.729698
vn -0.718040 -0.597095 0.357555
vn 0.539903 -0.460341 0.704672
vn 0.737815 -0.574267 0.354656
vn 0.610004 -0.625019 -0.487014
vn -0.608600 -0.618000 -0.497635
vn -0.807306 -0.355907 -0.470687
vn 0.852809 -0.372570 -0.365856
vn -0.517411 -0.355327 -0.778436
vn 0.567034 -0.426862 0.704398
vn -0.497513 -0.412519 0.763054
vn 0.608844 -0.632191 0.479171
vn -0.607898 -0.626881 0.487228
vn -0.808466 -0.359142 0.466170
vn 0.847743 -0.376141 0.373882
vn -0.696829 -0.610584 0.376232
vn 0.758141 -0.561510 0.331431
vn -0.647084 -0.633381 0.424329
vn 0.637806 -0.639790 0.428724
vn -0.006165 -0.423688 0.905759
vn -0.817255 -0.361522 0.448714
vn 0.807092 -0.366344 0.462996
vn 0.623218 0.401959 -0.670797
vn 0.697836 0.716208 0.005097
vn -0.552721 0.364513 -0.749382
vn -0.605335 0.612598 -0.508164
vn -0.517380 0.355327 -0.778466
vn 0.609699 0.611682 -0.504044
vn 0.536515 0.394787 -0.745811
vn -0.699973 0.714133 -0.005585
vn 0.901151 -0.433424 0.006897
vn -0.897214 -0.441511 -0.006867
vn -0.615070 0.634175 0.468490
vn 0.618183 0.634144 0.464370
vn -0.522172 0.441389 0.729698
vn 0.539903 0.460341 0.704672
vn 0.610004 0.625019 -0.487014
vn -0.608600 0.618000 -0.497635
vn 0.567034 0.426862 0.704398
vn -0.497513 0.412519 0.763054
vn 0.608844 0.632160 0.479171
vn -0.607898 0.626881 0.487228
vn -0.647084 0.633381 0.424329
vn 0.637806 0.639790 0.428724
g Cube.002_Cube.002_rock
usemtl rock
s 1
f 11/1/1 12/2/2 5/3/3
f 7/4/4 35/5/5 28/6/6
f 8/7/7 7/8/4 4/9/8
f 12/10/2 42/11/9 6/12/10
f 43/13/11 11/14/1 5/15/3
f 34/16/12 8/17/7 27/18/13
f 9/19/14 39/20/15 7/21/4
f 10/22/16 9/23/14 8/24/7
f 38/25/17 10/26/16 8/27/7
f 1/28/18 22/29/19 9/30/14
f 2/31/20 1/32/18 9/33/14
f 21/34/21 2/31/20 10/35/16
f 15/36/22 16/37/23 11/38/1
f 16/39/23 50/40/24 42/41/9
f 51/42/25 15/43/22 43/44/11
f 4/45/8 3/46/26 13/47/27
f 3/48/26 28/49/6 14/50/28
f 27/51/13 4/52/8 13/53/27
f 17/54/29 18/55/30 15/56/22
f 18/57/30 54/58/31 16/59/23
f 55/60/32 17/61/29 15/62/22
f 13/63/27 14/32/28 18/64/30
f 14/28/28 46/65/33 18/66/30
f 47/67/34 13/63/27 17/68/29
f 20/69/35 19/70/36 57/71/37
f 60/29/38 20/28/35 57/72/37
f 19/31/36 61/34/39 57/73/37
f 22/74/19 1/75/18 60/76/38
f 2/77/20 21/78/21 61/79/39
f 1/80/18 2/81/20 20/69/35
f 41/1/40 29/3/41 44/2/42
f 33/4/43 25/82/44 28/6/6
f 36/7/45 26/9/46 33/8/43
f 44/10/42 30/12/47 42/11/9
f 43/13/11 32/83/48 29/15/41
f 42/84/9 31/85/49 32/86/48
f 34/16/12 27/18/13 36/17/45
f 35/87/5 28/29/6 34/88/12
f 37/19/50 33/21/43 39/20/15
f 40/22/51 36/24/45 37/23/50
f 38/25/17 34/89/12 36/27/45
f 39/90/15 35/91/5 34/92/12
f 23/28/52 37/30/50 22/29/19
f 24/31/53 40/35/51 37/33/50
f 21/34/21 38/93/17 40/35/51
f 22/29/19 39/87/15 21/94/21
f 49/36/54 41/38/40 52/37/55
f 52/39/55 44/82/42 42/41/9
f 51/42/25 43/44/11 49/43/54
f 50/95/24 42/65/9 43/96/11
f 26/45/46 45/47/56 25/46/44
f 25/48/44 48/50/57 28/49/6
f 27/51/13 47/97/34 45/53/56
f 28/98/6 46/99/33 47/100/34
f 53/54/58 49/56/54 56/55/59
f 56/57/59 52/59/55 54/58/31
f 55/60/32 51/101/25 49/62/54
f 54/102/31 50/103/24 51/104/25
f 45/63/56 53/68/58 56/64/59
f 48/28/57 56/66/59 46/65/33
f 47/67/34 55/105/32 53/68/58
f 46/65/33 54/95/31 47/96/34
f 61/106/39 57/107/37 60/108/38
f 59/69/60 57/71/37 58/70/61
f 60/29/38 57/72/37 59/28/60
f 58/31/61 57/73/37 61/34/39
f 22/74/19 60/76/38 23/75/52
f 24/77/53 58/109/61 61/79/39
f 21/110/21 61/111/39 60/112/38
f 23/80/52 59/69/60 24/81/53
f 12/2/2 6/113/10 5/3/3
f 3/82/26 7/4/4 28/6/6
f 7/8/4 3/114/26 4/9/8
f 42/11/9 31/115/49 6/12/10
f 32/83/48 43/13/11 5/15/3
f 8/17/7 4/116/8 27/18/13
f 39/20/15 35/117/5 7/21/4
f 9/23/14 7/118/4 8/24/7
f 34/89/12 38/25/17 8/27/7
f 22/29/19 39/87/15 9/30/14
f 10/35/16 2/31/20 9/33/14
f 38/93/17 21/34/21 10/35/16
f 16/37/23 12/114/2 11/38/1
f 12/82/2 16/39/23 42/41/9
f 15/43/22 11/119/1 43/44/11
f 3/46/26 14/120/28 13/47/27
f 28/49/6 46/121/33 14/50/28
f 47/97/34 27/51/13 13/53/27
f 18/55/30 16/122/23 15/56/22
f 54/58/31 50/123/24 16/59/23
f 51/101/25 55/60/32 15/62/22
f 17/68/29 13/63/27 18/64/30
f 46/65/33 54/95/31 18/66/30
f 55/105/32 47/67/34 17/68/29
f 1/75/18 20/124/35 60/76/38
f 19/109/36 2/77/20 61/79/39
f 2/81/20 19/70/36 20/69/35
f 29/3/41 30/113/47 44/2/42
f 35/5/5 33/4/43 28/6/6
f 26/9/46 25/114/44 33/8/43
f 30/12/47 31/115/49 42/11/9
f 41/14/40 43/13/11 29/15/41
f 43/125/11 42/84/9 32/86/48
f 27/18/13 26/116/46 36/17/45
f 28/29/6 27/94/13 34/88/12
f 33/21/43 35/117/5 39/20/15
f 36/24/45 33/118/43 37/23/50
f 40/26/51 38/25/17 36/27/45
f 38/126/17 39/90/15 34/92/12
f 37/30/50 39/87/15 22/29/19
f 23/32/52 24/31/53 37/33/50
f 24/31/53 21/34/21 40/35/51
f 39/87/15 38/127/17 21/94/21
f 41/38/40 44/114/42 52/37/55
f 50/40/24 52/39/55 42/41/9
f 43/44/11 41/119/40 49/43/54
f 51/128/25 50/95/24 43/96/11
f 45/47/56 48/120/57 25/46/44
f 48/50/57 46/121/33 28/49/6
f 26/52/46 27/51/13 45/53/56
f 27/129/13 28/98/6 47/100/34
f 49/56/54 52/122/55 56/55/59
f 52/59/55 50/123/24 54/58/31
f 53/61/58 55/60/32 49/62/54
f 55/130/32 54/102/31 51/104/25
f 48/32/57 45/63/56 56/64/59
f 56/66/59 54/95/31 46/65/33
f 45/63/56 47/67/34 53/68/58
f 54/95/31 55/128/32 47/96/34
f 60/76/38 59/124/60 23/75/52
f 21/78/21 24/77/53 61/79/39
f 22/131/19 21/110/21 60/112/38
f 59/69/60 58/70/61 24/81/53
