# Blender v2.65 (sub 0) OBJ File: 'fish.blend'
# www.blender.org
mtllib fish_000005.mtl
o Sphere
v -1.154553 0.136694 2.020217
v 0.762721 -0.206398 1.222202
v 1.609841 -0.489748 0.546014
v 1.739793 -0.529200 -0.046608
v 1.261129 -0.383883 -0.146196
v 1.535823 -0.467277 -0.299652
v 0.687895 -0.202988 -0.635663
v 0.618589 -0.261372 1.035481
v 1.098695 -0.509341 0.839428
v 1.424850 -0.663849 0.546014
v 1.539560 -0.717646 -0.046608
v 1.076138 -0.557984 -0.146196
v 1.394237 -0.600528 -0.299652
v 0.613436 -0.272453 -0.635663
v 0.459609 -0.291435 1.035481
v 0.799678 -0.559360 0.839428
v 0.932700 -1.047254 0.546014
v 1.109906 -0.798499 0.199909
v 1.027902 -0.738547 -0.146196
v 0.794562 -0.567517 -0.439610
v 0.453954 -0.299443 -0.635663
v 0.241350 -0.279016 1.035481
v 0.391232 -0.526630 0.839428
v 0.488843 -0.694656 0.546014
v 0.521407 -0.755143 0.199909
v 0.484671 -0.698119 -0.146196
v 0.386422 -0.530554 -0.439610
v 0.234144 -0.284604 -0.635663
v -0.052485 -0.223930 1.035481
v -0.110896 -0.418868 0.839428
v -0.157633 -0.548041 0.546014
v -0.179747 -0.592850 0.199909
v -0.164489 -0.547519 -0.146196
v -0.118227 -0.418430 -0.439610
v -0.059840 -0.223833 -0.635663
v -0.437460 0.052137 1.104326
v -0.490060 -0.162103 1.035481
v -0.891470 -0.357199 0.839428
v -1.152747 -0.348795 0.458051
v -1.244290 -0.395484 0.199909
v -1.152126 -0.341231 -0.058233
v -0.893750 -0.340946 -0.439610
v -0.491826 -0.159120 -0.635663
v -0.881693 -0.117312 1.035481
v -1.622408 -0.318117 0.489846
v -1.460958 -0.273142 0.247266
v -1.621794 -0.298594 0.199909
v -1.456607 -0.270514 0.152552
v -1.587748 -0.304979 -0.277075
v -0.882058 -0.116079 -0.635663
v -1.146286 -0.049422 0.823119
v -1.465744 -0.049881 0.287413
v -2.647070 -0.420904 0.321238
v -2.455621 -0.359104 0.199909
v -2.647070 -0.420904 0.054293
v -2.072892 -0.183314 0.049215
v -1.144639 -0.042734 -0.423301
v -1.241561 0.036843 0.823119
v -2.250696 -0.190835 0.350603
v -4.114541 -0.797417 1.882037
v -2.719980 -0.362670 0.199909
v -3.183671 -0.508780 -0.701463
v -2.257376 -0.174348 0.049215
v -1.241756 0.029973 -0.423301
v -1.146075 0.136658 0.823119
v -2.099226 -0.079363 0.350603
v -2.696581 -0.274089 0.321238
v -2.511544 -0.184601 0.199909
v -2.696581 -0.274089 0.054293
v -1.469554 0.028465 0.112405
v -1.146668 0.126676 -0.423301
v -0.867606 0.208794 1.035481
v -1.644327 0.302629 0.489846
v -1.472694 0.265504 0.247266
v -1.654447 0.284872 0.199909
v -1.472694 0.265504 0.152552
v -1.638103 0.303338 -0.277075
v -0.866293 0.222373 -0.635663
v -0.450117 0.265347 1.035481
v -0.855915 0.451615 0.839428
v -1.144933 0.389750 0.458051
v -1.248436 0.401235 0.199909
v -1.149833 0.376494 -0.058233
v -0.857802 0.447773 -0.439610
v -0.444687 0.280515 -0.635663
v 0.041943 0.238996 1.035481
v 0.094125 0.431073 0.839428
v 0.138892 0.557971 0.546014
v 0.157633 0.601973 0.199909
v 0.143164 0.556858 -0.146196
v 0.099620 0.429361 -0.439610
v 0.046140 0.236300 -0.635663
v 0.344879 0.149999 1.035481
v 0.609208 0.255118 0.839428
v 0.792449 0.315469 0.546014
v 0.855588 0.340941 0.199909
v 0.792942 0.314158 -0.146196
v 0.611571 0.247481 -0.439610
v 0.346222 0.136773 -0.635663
v -0.006847 0.006859 -0.704507
v 0.546697 0.042029 1.035481
v 0.977700 0.035956 0.839428
v 1.363056 0.348253 0.546014
v 1.369630 0.043704 0.199909
v 1.267855 0.039546 -0.146196
v 0.978023 0.027706 -0.439610
v 0.545190 0.022211 -0.635663
v 0.670390 -0.069836 1.035481
v 1.197574 -0.188352 0.839428
v 1.554711 -0.242748 0.546014
v 1.680121 -0.261849 -0.046608
v 1.205999 -0.136883 -0.146196
v 1.493629 -0.278231 -0.299652
v 0.664950 -0.097450 -0.635663
v -0.486926 -0.761239 -0.050309
v -0.514663 -0.686447 -0.396414
v -1.201036 -0.652464 -0.160691
v -1.183433 -0.583265 -0.831877
v -0.710098 1.169705 -0.160691
v -0.732975 1.097843 -0.831877
v -0.019385 0.905127 -0.050309
v -0.087892 0.855920 -0.396414
v 0.289849 -0.064188 2.137182
v 2.824589 -0.858532 0.439563
v 0.970137 -0.438844 1.353176
v 1.870350 -0.895350 0.987234
v 1.311031 -0.990566 0.987234
v 1.560673 -1.899144 0.439563
v 0.261518 -0.478760 1.353176
v 0.546022 -0.933561 0.987234
v 0.730370 -1.243837 0.439563
v 0.792037 -1.355363 -0.206459
v -0.396717 -0.740970 0.987234
v -0.480723 -0.977045 0.439563
v -1.124445 -0.292837 1.353176
v -1.881506 -0.669151 0.987234
v -2.373607 -0.660335 0.275375
v -2.546345 -0.751705 -0.206459
v -1.862722 -0.221178 1.353176
v -3.250865 -0.639835 0.334722
v -1.837910 0.385829 1.353176
v -3.287699 0.470228 0.334722
v -1.052153 0.501497 1.353176
v -1.815001 0.840758 0.987234
v -2.359838 0.716924 0.275375
v -2.555486 0.734540 -0.206459
v -0.013256 0.846699 0.987234
v 0.074658 1.090339 0.439563
v 0.453136 0.319490 1.353176
v 0.952773 0.525439 0.987234
v 1.298642 0.644062 0.439563
v 1.416739 0.691988 -0.206459
v 1.643470 0.120854 0.987234
v 2.363951 0.705636 0.439563
v 1.063496 -0.086517 1.353176
v 2.055072 -0.295962 0.987234
v -3.602397 -0.638615 0.435922
vt 0.000000 0.000000
vt 1.000000 0.000000
vt 1.000000 1.000000
vt 0.000000 1.000000
vn 0.931394 -0.287820 -0.222724
vn 0.848720 -0.260475 -0.460189
vn 0.460158 -0.715140 -0.526078
vn 0.305673 -0.870388 -0.385907
vn 0.254891 -0.078646 -0.963744
vn 0.954375 -0.294046 -0.051485
vn 0.567827 -0.809809 -0.147496
vn 0.142796 -0.293497 -0.945219
vn 0.067232 -0.737510 -0.671957
vn 0.012665 -0.417096 -0.908750
vn 0.069460 -0.932890 -0.353343
vn -0.119602 -0.784692 -0.608203
vn -0.074404 -0.478225 -0.875057
vn -0.044038 -0.933348 -0.356212
vn -0.151036 -0.815119 -0.559191
vn -0.083377 -0.484664 -0.870693
vn -0.061434 -0.310770 -0.948485
vn -0.154332 -0.844508 -0.512803
vn -0.066500 -0.490280 -0.868984
vn -0.170263 -0.974425 -0.146519
vn -0.404401 -0.489639 -0.772423
vn -0.264199 0.138707 -0.954405
vn -0.207221 -0.914151 -0.348308
vn -0.113926 -0.774102 -0.622669
vn -0.368999 0.017121 -0.929258
vn 0.121555 -0.992523 -0.010681
vn 0.181738 0.372509 -0.910031
vn -0.419568 0.191870 -0.887204
vn -0.387829 -0.012421 -0.921628
vn -0.528703 0.497299 -0.687826
vn -0.449355 -0.200323 -0.870571
vn -0.522324 0.852718 0.003449
vn -0.618702 0.295999 -0.727683
vn -0.303110 -0.060518 -0.951018
vn -0.376080 0.793054 -0.479141
vn -0.147008 0.888821 -0.433973
vn -0.017914 0.512955 -0.858211
vn -0.186865 0.980102 -0.066500
vn 0.129978 0.867763 -0.479598
vn 0.099399 0.526200 -0.844508
vn -0.329356 0.326884 -0.885800
vn 0.342235 0.729606 -0.592029
vn 0.197546 0.452773 -0.869442
vn 0.482192 0.803552 -0.348888
vn 0.478500 0.573595 -0.664815
vn 0.252052 0.342204 -0.905148
vn 0.581805 0.732444 -0.353496
vn 0.924589 0.351665 -0.146275
vn 0.285928 0.168096 -0.943358
vn 0.739921 0.550432 -0.386608
vn -0.003235 0.011414 -0.999908
vn 0.781732 0.334849 -0.526048
vn -0.273812 -0.883206 0.380688
vn -0.633229 0.366405 -0.681692
vn -0.931181 -0.052339 0.360729
vn -0.008972 0.922269 0.386425
vn -0.773675 0.520218 0.361614
vn -0.744469 -0.007111 -0.667592
vn 0.486435 0.375896 -0.788690
vn 0.239296 -0.575121 -0.782250
vn 0.469131 0.601306 0.646748
vn -0.815180 0.144108 0.560961
vn -0.097049 -0.832942 0.544755
vn 0.109561 -0.756554 0.644673
vn 0.871151 0.226051 0.435835
vn 0.519028 -0.720756 0.459426
vn -0.290323 -0.846889 0.445448
vn 0.129551 -0.959288 -0.250893
vn -0.082980 -0.605914 0.791162
vn 0.005585 -0.399915 0.916532
vn -0.416456 -0.761437 0.496719
vn -0.423200 -0.872677 0.243446
vn -0.292001 -0.548112 0.783746
vn -0.362346 -0.732383 0.576434
vn -0.518967 -0.825190 0.222907
vn -0.082400 -0.501785 0.861049
vn -0.518601 -0.604755 0.604389
vn -0.232185 -0.965423 0.118320
vn -0.136937 -0.385113 0.912625
vn -0.662374 0.589007 0.462935
vn -0.239296 -0.876461 0.417707
vn -0.434614 0.240730 0.867824
vn 0.029786 -0.999390 -0.017945
vn 0.138249 -0.990112 -0.023194
vn 0.045564 -0.998749 -0.020203
vn -0.303262 -0.617573 0.725669
vn -0.544389 -0.062380 0.836482
vn 0.228858 0.027650 0.973052
vn -0.326914 0.940916 0.088260
vn -0.385571 -0.208197 0.898862
vn -0.508286 0.753746 0.416486
vn -0.477340 0.876095 -0.067721
vn -0.444807 0.212470 0.870022
vn -0.484115 0.874630 0.024628
vn -0.363445 0.902280 0.231910
vn -0.420911 0.906827 0.021699
vn -0.304941 0.910581 0.278939
vn -0.366619 0.230232 0.901395
vn -0.006012 0.936552 0.350383
vn -0.115421 0.992767 0.032044
vn 0.022065 0.615619 0.787713
vn 0.334941 0.809595 0.482009
vn 0.399213 0.885128 0.239051
vn 0.092105 0.501511 0.860225
vn 0.487045 0.468673 0.736961
vn 0.427869 0.851253 0.303690
vn 0.315622 0.194250 0.928770
vn 0.443037 0.440596 0.780725
vn 0.942289 0.271096 -0.196387
vn 0.229286 0.343486 0.910703
vn 0.645650 0.720695 -0.252327
vn 0.834620 0.312204 0.453780
vn 0.513688 -0.140263 0.846400
vn 0.351146 0.537797 0.766442
vn -0.146611 0.038484 0.988433
vn 0.126316 0.989715 -0.067049
vn -0.451491 -0.892209 0.009430
vn 0.299112 0.954161 -0.007050
vn -0.895566 -0.402936 -0.188574
vn 0.960692 0.164129 0.223853
vn -0.322581 0.910031 -0.260292
vn 0.226051 -0.799890 -0.555925
vn 0.386059 0.920621 0.058077
vn 0.522202 -0.812067 0.260384
vn -0.154057 -0.976074 0.153264
vn -0.611957 -0.524308 0.592090
vn -0.772179 0.617817 -0.148259
vn -0.168432 0.973235 -0.156163
vn -0.412976 -0.906491 -0.087588
vn -0.109439 -0.953978 0.279092
vn -0.579821 -0.811670 -0.070376
vn -0.979003 -0.161687 -0.124058
vn -0.158666 0.986938 -0.027711
vn 0.716239 0.688742 -0.112186
vn 0.405011 0.872921 0.271889
vn -0.916166 -0.400372 -0.017579
vn -0.233375 0.967498 -0.097140
vn 0.268105 0.960784 -0.070589
vn 0.549852 -0.834315 0.038697
vn -0.298685 0.954344 -0.000977
usemtl Material
s 1
f 5/1/1 4/2/2 11/3/3
f 5/1/1 11/3/3 12/4/4
f 7/1/5 6/2/6 13/3/7
f 7/1/5 13/3/7 14/4/8
f 6/1/6 5/2/1 12/3/4
f 6/1/6 12/3/4 13/4/7
f 14/1/8 13/2/7 20/3/9
f 14/1/8 20/3/9 21/4/10
f 13/1/7 12/2/4 19/3/11
f 13/1/7 19/3/11 20/4/9
f 21/1/10 20/2/9 27/3/12
f 21/1/10 27/3/12 28/4/13
f 20/1/9 19/2/11 26/3/14
f 20/1/9 26/3/14 27/4/12
f 28/1/13 27/2/12 34/3/15
f 28/1/13 34/3/15 35/4/16
f 27/1/12 26/2/14 33/3/17
f 27/1/12 33/3/17 34/4/15
f 35/1/16 34/2/15 42/3/18
f 35/1/16 42/3/18 43/4/19
f 34/1/15 33/2/17 41/3/20
f 34/1/15 41/3/20 42/4/18
f 43/1/19 42/2/18 49/3/21
f 43/1/19 49/3/21 50/4/22
f 42/1/18 41/2/20 48/3/23
f 42/1/18 48/3/23 49/4/21
f 50/1/22 49/2/21 56/3/24
f 50/1/22 56/3/24 57/4/25
f 49/1/21 48/2/23 55/3/26
f 49/1/21 55/3/26 56/4/24
f 57/1/25 56/2/24 63/3/27
f 57/1/25 63/3/27 64/4/28
f 56/1/24 55/2/26 62/3/29
f 56/1/24 62/3/29 63/4/27
f 64/1/28 63/2/27 70/3/30
f 64/1/28 70/3/30 71/4/31
f 63/1/27 62/2/29 69/3/32
f 63/1/27 69/3/32 70/4/30
f 71/1/31 70/2/30 77/3/33
f 71/1/31 77/3/33 78/4/34
f 70/1/30 69/2/32 76/3/35
f 70/1/30 76/3/35 77/4/33
f 78/1/34 77/2/33 84/3/36
f 78/1/34 84/3/36 85/4/37
f 77/1/33 76/2/35 83/3/38
f 77/1/33 83/3/38 84/4/36
f 85/1/37 84/2/36 91/3/39
f 85/1/37 91/3/39 92/4/40
f 84/1/36 83/2/38 90/3/41
f 84/1/36 90/3/41 91/4/39
f 92/1/40 91/2/39 98/3/42
f 92/1/40 98/3/42 99/4/43
f 91/1/39 90/2/41 97/3/44
f 91/1/39 97/3/44 98/4/42
f 99/1/43 98/2/42 106/3/45
f 99/1/43 106/3/45 107/4/46
f 98/1/42 97/2/44 105/3/47
f 98/1/42 105/3/47 106/4/45
f 107/1/46 106/2/45 113/3/48
f 107/1/46 113/3/48 114/4/49
f 106/1/45 105/2/47 112/3/50
f 106/1/45 112/3/50 113/4/48
f 100/1/51 7/2/5 14/3/8
f 100/1/51 14/2/8 21/3/10
f 100/1/51 21/2/10 28/3/13
f 100/1/51 28/2/13 35/3/16
f 100/1/51 35/2/16 43/3/19
f 100/1/51 43/2/19 50/3/22
f 100/1/51 50/2/22 57/3/25
f 100/1/51 57/2/25 64/3/28
f 100/1/51 64/2/28 71/3/31
f 100/1/51 71/2/31 78/3/34
f 100/1/51 78/2/34 85/3/37
f 100/1/51 85/2/37 92/3/40
f 100/1/51 92/2/40 99/3/43
f 100/1/51 99/2/43 107/3/46
f 100/1/51 107/2/46 114/3/49
f 114/1/49 113/2/48 6/3/6
f 114/1/49 6/3/6 7/4/5
f 113/1/48 112/2/50 5/3/1
f 113/1/48 5/3/1 6/4/6
f 112/1/50 111/2/52 4/3/2
f 112/1/50 4/3/2 5/4/1
f 100/1/51 114/2/49 7/3/5
f 32/1/53 33/2/17 118/3/54
f 32/1/53 118/3/54 117/4/55
f 90/1/41 89/2/56 119/3/57
f 90/1/41 119/3/57 120/4/58
f 97/1/44 90/2/41 120/3/58
f 97/1/44 120/3/58 122/4/59
f 33/1/17 26/2/14 116/3/60
f 33/1/17 116/3/60 118/4/54
usemtl Material.001
f 2/1/61 1/2/62 8/3/63
f 2/1/61 8/3/63 9/4/64
f 4/1/2 3/2/65 10/3/66
f 4/1/2 10/3/66 11/4/3
f 3/1/65 2/2/61 9/3/64
f 3/1/65 9/3/64 10/4/66
f 11/1/3 10/2/66 17/3/67
f 11/1/3 17/3/67 18/4/68
f 10/1/66 9/2/64 16/3/69
f 10/1/66 16/3/69 17/4/67
f 9/1/64 8/2/63 15/3/70
f 9/1/64 15/3/70 16/4/69
f 17/1/67 16/2/69 23/3/71
f 17/1/67 23/3/71 24/4/72
f 16/1/69 15/2/70 22/3/73
f 16/1/69 22/3/73 23/4/71
f 24/1/72 23/2/71 30/3/74
f 24/1/72 30/3/74 31/4/75
f 23/1/71 22/2/73 29/3/76
f 23/1/71 29/3/76 30/4/74
f 31/1/75 30/2/74 38/3/77
f 31/1/75 38/3/77 39/4/78
f 30/1/74 29/2/76 37/3/79
f 30/1/74 37/3/79 38/4/77
f 39/1/78 38/2/77 45/3/80
f 39/1/78 45/3/80 46/4/81
f 38/1/77 37/2/79 44/3/82
f 38/1/77 44/3/82 45/4/80
f 47/1/83 46/2/81 53/3/84
f 47/1/83 53/3/84 54/4/85
f 46/1/81 45/2/80 52/3/86
f 46/1/81 52/3/86 53/4/84
f 45/1/80 44/2/82 51/3/87
f 45/1/80 51/3/87 52/4/86
f 53/1/84 52/2/86 59/3/88
f 53/1/84 59/3/88 60/4/89
f 52/1/86 51/2/87 58/3/90
f 52/1/86 58/3/90 59/4/88
f 60/1/89 59/2/88 66/3/91
f 60/1/89 66/3/91 67/4/92
f 59/1/88 58/2/90 65/3/93
f 59/1/88 65/3/93 66/4/91
f 68/1/94 67/2/92 74/3/95
f 68/1/94 74/3/95 75/4/96
f 67/1/92 66/2/91 73/3/97
f 67/1/92 73/3/97 74/4/95
f 66/1/91 65/2/93 72/3/98
f 66/1/91 72/3/98 73/4/97
f 74/1/95 73/2/97 80/3/99
f 74/1/95 80/3/99 81/4/100
f 73/1/97 72/2/98 79/3/101
f 73/1/97 79/3/101 80/4/99
f 81/1/100 80/2/99 87/3/102
f 81/1/100 87/3/102 88/4/103
f 80/1/99 79/2/101 86/3/104
f 80/1/99 86/3/104 87/4/102
f 88/1/103 87/2/102 94/3/105
f 88/1/103 94/3/105 95/4/106
f 87/1/102 86/2/104 93/3/107
f 87/1/102 93/3/107 94/4/105
f 95/1/106 94/2/105 102/3/108
f 95/1/106 102/3/108 103/4/109
f 94/1/105 93/2/107 101/3/110
f 94/1/105 101/3/110 102/4/108
f 104/1/111 103/2/109 110/3/112
f 104/1/111 110/3/112 111/4/52
f 103/1/109 102/2/108 109/3/113
f 103/1/109 109/3/113 110/4/112
f 102/1/108 101/2/110 108/3/114
f 102/1/108 108/3/114 109/4/113
f 1/1/62 36/2/115 8/3/63
f 8/1/63 36/2/115 15/3/70
f 15/1/70 36/2/115 22/3/73
f 22/1/73 36/2/115 29/3/76
f 29/1/76 36/2/115 37/3/79
f 37/1/79 36/2/115 44/3/82
f 44/1/82 36/2/115 51/3/87
f 51/1/87 36/2/115 58/3/90
f 58/1/90 36/2/115 65/3/93
f 65/1/93 36/2/115 72/3/98
f 72/1/98 36/2/115 79/3/101
f 79/1/101 36/2/115 86/3/104
f 86/1/104 36/2/115 93/3/107
f 93/1/107 36/2/115 101/3/110
f 101/1/110 36/2/115 108/3/114
f 36/2/115 1/3/62 108/1/114
f 111/1/52 110/2/112 3/3/65
f 111/1/52 3/3/65 4/4/2
f 110/1/112 109/2/113 2/3/61
f 110/1/112 2/3/61 3/4/65
f 1/3/62 2/4/61 109/1/113
f 1/3/62 109/1/113 108/2/114
f 72/3/98 73/4/97 142/4/116
f 72/3/98 142/4/116 141/3/116
f 8/3/63 9/4/64 126/4/117
f 8/3/63 126/4/117 125/3/117
f 3/1/65 2/2/61 123/2/118
f 3/1/65 123/2/118 124/1/118
f 22/3/73 23/4/71 130/4/119
f 22/3/73 130/4/119 129/3/119
f 87/3/102 88/4/103 148/4/120
f 87/3/102 148/4/120 147/3/120
f 37/3/79 38/4/77 136/4/121
f 37/3/79 136/4/121 135/3/121
f 102/3/108 103/4/109 154/4/122
f 102/3/108 154/4/122 153/3/122
f 79/3/101 80/4/99 144/4/123
f 79/3/101 144/4/123 143/3/123
f 93/3/107 94/4/105 150/4/124
f 93/3/107 150/4/124 149/3/124
f 108/3/114 109/4/113 156/4/125
f 108/3/114 156/4/125 155/3/125
f 16/3/69 17/4/67 128/4/126
f 16/3/69 128/4/126 127/3/126
f 30/3/74 31/4/75 134/4/127
f 30/3/74 134/4/127 133/3/127
f 44/3/82 45/4/80 140/4/128
f 44/3/82 140/4/128 139/3/128
usemtl Material.002
f 12/1/4 11/2/3 18/3/68
f 12/1/4 18/3/68 19/4/11
f 18/1/68 17/2/67 24/3/72
f 18/1/68 24/3/72 25/4/129
f 19/1/11 18/2/68 25/3/129
f 19/1/11 25/3/129 26/4/14
f 25/1/129 24/2/72 31/3/75
f 25/1/129 31/3/75 32/4/53
f 25/1/129 32/2/53 117/3/55
f 25/1/129 117/3/55 115/4/130
f 32/1/53 31/2/75 39/3/78
f 32/1/53 39/3/78 40/4/131
f 33/1/17 32/2/53 40/3/131
f 33/1/17 40/3/131 41/4/20
f 40/1/131 39/2/78 46/3/81
f 40/1/131 46/3/81 47/4/83
f 41/1/20 40/2/131 47/3/83
f 41/1/20 47/3/83 48/4/23
f 48/1/23 47/2/83 54/3/85
f 48/1/23 54/3/85 55/4/26
f 54/1/85 53/2/84 60/3/89
f 54/1/85 60/3/89 61/4/132
f 55/1/26 54/2/85 61/3/132
f 55/1/26 61/3/132 62/4/29
f 61/1/132 60/2/89 67/3/92
f 61/1/132 67/3/92 68/4/94
f 62/1/29 61/2/132 68/3/94
f 62/1/29 68/3/94 69/4/32
f 69/1/32 68/2/94 75/3/96
f 69/1/32 75/3/96 76/4/35
f 75/1/96 74/2/95 81/3/100
f 75/1/96 81/3/100 82/4/133
f 76/1/35 75/2/96 82/3/133
f 76/1/35 82/3/133 83/4/38
f 82/1/133 81/2/100 88/3/103
f 82/1/133 88/3/103 89/4/56
f 83/1/38 82/2/133 89/3/56
f 83/1/38 89/3/56 90/4/41
f 89/1/56 88/2/103 95/3/106
f 89/1/56 95/3/106 96/4/134
f 89/1/56 96/2/134 121/3/135
f 89/1/56 121/3/135 119/4/57
f 96/1/134 95/2/106 103/3/109
f 96/1/134 103/3/109 104/4/111
f 97/1/44 96/2/134 104/3/111
f 97/1/44 104/3/111 105/4/47
f 105/1/47 104/2/111 111/3/52
f 105/1/47 111/3/52 112/4/50
f 116/1/60 115/2/130 117/3/55
f 116/1/60 117/3/55 118/4/54
f 120/1/58 119/2/57 121/3/135
f 120/1/58 121/3/135 122/4/59
f 26/1/14 25/2/129 115/3/130
f 26/1/14 115/3/130 116/4/60
f 96/1/134 97/2/44 122/3/59
f 96/1/134 122/3/59 121/4/135
f 24/3/72 25/4/129 132/4/136
f 24/3/72 132/4/136 131/3/136
f 39/3/78 40/4/131 138/4/137
f 39/3/78 138/4/137 137/3/137
f 81/3/100 82/4/133 146/4/138
f 81/3/100 146/4/138 145/3/138
f 95/3/106 96/4/134 152/4/139
f 95/3/106 152/4/139 151/3/139
f 60/3/89 61/4/132 157/3/140
