# Blender v2.65 (sub 0) OBJ File: 'fish.blend'
# www.blender.org
mtllib fish_000106.mtl
o Sphere
v -1.570493 0.002114 1.687156
v 0.542031 0.023597 1.407569
v 1.576440 0.035688 0.985089
v 1.860208 0.037458 0.447392
v 1.402505 0.030940 0.222405
v 1.719383 0.034680 0.148010
v 0.947328 0.022975 -0.405828
v 0.469957 -0.069645 1.195391
v 1.035915 -0.139274 1.144651
v 1.457048 -0.186274 0.953284
v 1.730979 -0.202792 0.412967
v 1.283112 -0.191022 0.190600
v 1.628004 -0.135202 0.123667
v 0.897675 -0.069194 -0.419256
v 0.328177 -0.149638 1.157499
v 0.773338 -0.286279 1.074161
v 1.116065 -0.700754 0.862451
v 1.295525 -0.410005 0.552082
v 1.291548 -0.377713 0.192847
v 1.102033 -0.285774 -0.161305
v 0.754791 -0.149059 -0.457634
v 0.115677 -0.205442 1.100958
v 0.379533 -0.388516 0.968779
v 0.598149 -0.510562 0.723849
v 0.737476 -0.553224 0.403076
v 0.775830 -0.510085 0.055116
v 0.706773 -0.387965 -0.267350
v 0.540285 -0.204610 -0.514836
v -0.185980 -0.229658 1.021736
v -0.136379 -0.432020 0.832193
v -0.061463 -0.566202 0.548602
v 0.027058 -0.612561 0.214068
v 0.115021 -0.565292 -0.120680
v 0.188031 -0.431050 -0.404929
v 0.234842 -0.228691 -0.595410
v -0.638817 0.003999 0.978216
v -0.651130 -0.222640 0.904132
v -0.999275 -0.423790 0.617304
v -1.174621 -0.394794 0.183146
v -1.206634 -0.429012 -0.089906
v -1.052432 -0.394508 -0.321992
v -0.695842 -0.422919 -0.631940
v -0.242316 -0.222348 -0.716337
v -1.048189 -0.177128 0.806461
v -1.643977 -0.338512 0.100035
v -1.435120 -0.294522 -0.101381
v -1.594785 -0.320217 -0.184576
v -1.414942 -0.294522 -0.196378
v -1.533328 -0.338257 -0.647325
v -0.645498 -0.177058 -0.814981
v -1.243935 -0.101719 0.521994
v -1.444104 -0.062227 -0.063544
v -2.640129 -0.107893 0.182281
v -2.470400 -0.113571 0.007941
v -2.698820 -0.107893 -0.078131
v -2.077133 -0.085984 -0.273059
v -0.991410 -0.101690 -0.696688
v -1.328937 -0.008524 0.496779
v -2.206407 -0.025148 0.078135
v -3.773092 -0.029854 2.037570
v -2.717915 -0.027536 0.075441
v -3.390356 -0.029854 -0.696989
v -2.253867 -0.025148 -0.242132
v -1.085779 -0.008637 -0.713928
v -1.238189 0.087535 0.516401
v -2.038561 0.037389 0.036723
v -2.643844 0.053302 0.183119
v -2.475826 0.060904 -0.015242
v -2.702534 0.053301 -0.077294
v -1.410068 0.020035 -0.233427
v -0.984681 0.087491 -0.688924
v -1.051087 0.171398 0.806819
v -1.633310 0.310024 0.098792
v -1.442760 0.270470 -0.097710
v -1.602890 0.291326 -0.185828
v -1.420259 0.270470 -0.189713
v -1.483469 0.310024 -0.646114
v -0.653377 0.171354 -0.820886
v -0.654099 0.229937 0.903851
v -1.006132 0.417866 0.615546
v -1.180900 0.380503 0.182032
v -1.213672 0.411724 -0.090435
v -1.058122 0.380876 -0.318485
v -0.698123 0.418036 -0.625533
v -0.245115 0.229533 -0.717481
v -0.189547 0.253498 1.020783
v -0.143973 0.456620 0.830224
v -0.071388 0.591013 0.546031
v 0.016633 0.637798 0.211351
v 0.105682 0.590430 -0.123107
v 0.181103 0.455864 -0.406718
v 0.231628 0.252893 -0.596205
v 0.112658 0.238826 1.099885
v 0.372767 0.428663 0.966959
v 0.588891 0.554437 0.721934
v 0.727774 0.598849 0.400841
v 0.767015 0.554346 0.053119
v 0.700089 0.428198 -0.268972
v 0.536906 0.238381 -0.515570
v 0.249920 0.012114 -0.662640
v 0.326369 0.189465 1.156376
v 0.768072 0.337634 1.072833
v 1.103868 0.759549 0.859202
v 1.288163 0.471303 0.550121
v 1.284747 0.436508 0.191036
v 1.096836 0.337424 -0.162667
v 0.752110 0.189259 -0.458219
v 0.469937 0.113489 1.194224
v 1.033030 0.198029 1.143978
v 1.453367 0.254380 0.952303
v 1.726994 0.274168 0.411906
v 1.279431 0.249632 0.189620
v 1.625187 0.202060 0.122917
v 0.896135 0.113640 -0.419681
v -0.152416 -0.861083 -0.092149
v -0.115040 -0.796150 -0.440153
v -0.835253 -0.944284 -0.385886
v -0.664939 -0.872361 -1.035114
v -0.850164 0.941776 -0.391126
v -0.678155 0.870491 -1.039618
v -0.166670 0.879229 -0.096096
v -0.127700 0.812426 -0.443808
v -0.171057 0.030082 2.165472
v 2.830452 0.052229 1.208976
v 0.764269 -0.143959 1.601784
v 1.821502 -0.274330 1.506816
v 1.331143 -0.548603 1.375319
v 1.971139 -1.322376 0.980067
v 0.102057 -0.396985 1.425806
v 0.595541 -0.739173 1.178786
v 1.004047 -0.967192 0.721475
v 1.264290 -1.046911 0.122682
v -0.368574 -0.819829 0.924192
v -0.228068 -1.070607 0.394648
v -1.333533 -0.427022 1.059741
v -1.984985 -0.801701 0.524859
v -2.313193 -0.747139 -0.285238
v -2.373868 -0.810813 -0.793005
v -2.076426 -0.341342 0.878735
v -3.203924 -0.641759 -0.391857
v -2.081890 0.309341 0.878657
v -3.205457 0.568764 -0.320073
v -1.339545 0.417961 1.059360
v -1.997754 0.769278 0.521567
v -2.325082 0.700072 -0.287266
v -2.386763 0.758591 -0.795682
v -0.382585 0.838782 0.920466
v -0.246199 1.089201 0.389729
v 0.096085 0.432426 1.423907
v 0.582889 0.786141 1.175397
v 0.987093 1.020524 0.717802
v 1.246376 1.103396 0.118450
v 1.321346 0.615944 1.372831
v 1.948373 1.403350 0.974002
v 0.763540 0.198200 1.599818
v 1.816151 0.355245 1.505550
v -3.567956 -0.029854 0.508951
vt 0.000000 0.000000
vt 1.000000 0.000000
vt 1.000000 1.000000
vt 0.000000 1.000000
vn 0.999329 0.007813 0.035707
vn 0.976287 0.008850 -0.216163
vn 0.768517 -0.542131 -0.339702
vn 0.635701 -0.736900 -0.229774
vn 0.505570 0.002197 -0.862758
vn 0.978210 0.010407 0.207312
vn 0.798425 -0.598926 0.061037
vn 0.461379 -0.237526 -0.854793
vn 0.458541 -0.682028 -0.569659
vn 0.373241 -0.392407 -0.840632
vn 0.433027 -0.865871 -0.250343
vn 0.279336 -0.789056 -0.547105
vn 0.293161 -0.480300 -0.826624
vn 0.325419 -0.903623 -0.278451
vn 0.139927 -0.850337 -0.507248
vn 0.233131 -0.504379 -0.831385
vn 0.074221 -0.310526 -0.947630
vn -0.012421 -0.856044 -0.516709
vn 0.180731 -0.472243 -0.862728
vn -0.134190 -0.982055 -0.132389
vn -0.390759 -0.468307 -0.792444
vn -0.034425 0.105533 -0.993805
vn -0.234840 -0.925291 -0.297678
vn -0.316568 -0.743431 -0.589129
vn -0.179693 0.168249 -0.969207
vn -0.211219 -0.975890 0.054445
vn 0.051027 0.210639 -0.976226
vn -0.244819 0.286905 -0.926145
vn -0.566912 -0.001862 -0.823756
vn -0.400708 0.580432 -0.708853
vn -0.230842 -0.135014 -0.963561
vn -0.220954 0.975097 0.017670
vn -0.495895 0.324442 -0.805475
vn -0.045778 -0.139195 -0.989196
vn -0.331278 0.757286 -0.562792
vn -0.039003 0.858577 -0.511155
vn 0.166204 0.480392 -0.861141
vn -0.167180 0.974822 -0.147404
vn 0.113498 0.850032 -0.514298
vn 0.216987 0.505570 -0.835017
vn 0.058901 0.301889 -0.951506
vn 0.258065 0.791986 -0.553301
vn 0.279763 0.481704 -0.830439
vn 0.301981 0.909665 -0.285104
vn 0.441328 0.688650 -0.575274
vn 0.362590 0.395672 -0.843745
vn 0.411695 0.874294 -0.257027
vn 0.785974 0.615558 0.057161
vn 0.455519 0.241707 -0.856746
vn 0.619770 0.748741 -0.234993
vn 0.247353 0.000031 -0.968902
vn 0.757286 0.555925 -0.342662
vn -0.221320 -0.914212 0.339427
vn -0.518113 0.188818 -0.834193
vn -0.945311 -0.301645 0.123875
vn -0.248909 0.909696 0.332316
vn -0.953032 0.277657 0.120701
vn -0.512589 -0.205634 -0.833613
vn 0.553911 0.497360 -0.667684
vn 0.565783 -0.488571 -0.664205
vn 0.079470 0.722709 0.686544
vn -0.944609 -0.007721 0.328043
vn -0.017853 -0.818781 0.573809
vn 0.168218 -0.699942 0.694082
vn 0.622852 0.479568 0.618061
vn 0.571490 -0.532609 0.624226
vn -0.127384 -0.900296 0.416181
vn 0.469497 -0.872494 -0.135166
vn -0.091189 -0.608356 0.788385
vn -0.110874 -0.381817 0.917539
vn -0.282601 -0.862117 0.420484
vn -0.190191 -0.963256 0.189581
vn -0.322520 -0.609333 0.724296
vn -0.361034 -0.818445 0.446944
vn -0.400983 -0.912809 0.076968
vn -0.196753 -0.500687 0.842952
vn -0.655446 -0.589129 0.472488
vn -0.260689 -0.964415 0.043672
vn -0.324046 -0.399121 0.857692
vn -0.682272 0.601276 0.415845
vn -0.307077 -0.898373 0.313944
vn -0.633106 0.229225 0.739311
vn -0.219245 -0.973449 -0.065493
vn -0.175176 -0.984283 0.021638
vn -0.238289 -0.970946 -0.021455
vn -0.481338 -0.528336 0.699362
vn -0.749962 0.023896 0.661000
vn 0.398297 -0.036073 0.916532
vn -0.008667 0.996216 0.086184
vn -0.553728 -0.162267 0.816706
vn -0.263649 0.696585 0.667226
vn -0.197485 0.980132 -0.017335
vn -0.577929 0.303415 0.757561
vn -0.263588 0.963103 -0.053926
vn -0.330363 0.908780 0.254799
vn -0.246773 0.964232 -0.096561
vn -0.218146 0.869411 0.443251
vn -0.564074 0.227607 0.793695
vn -0.135136 0.910794 0.390057
vn -0.145482 0.987945 0.052339
vn -0.207923 0.578265 0.788873
vn 0.047639 0.842463 0.536607
vn 0.152257 0.943480 0.294320
vn -0.212012 0.499252 0.840083
vn 0.129673 0.569140 0.811945
vn 0.066225 0.937132 0.342570
vn 0.010224 0.281838 0.959380
vn 0.064577 0.535142 0.842250
vn 0.833491 0.552477 0.004334
vn -0.121097 0.381573 0.916349
vn 0.448347 0.882565 -0.141484
vn 0.560015 0.546770 0.622395
vn 0.325694 0.009003 0.945402
vn 0.012848 0.651814 0.758232
vn -0.381848 -0.004212 0.924192
vn 0.139561 0.986877 0.081149
vn -0.129521 -0.987732 -0.087069
vn -0.013855 0.999756 -0.015778
vn -0.649281 -0.642994 -0.406110
vn 0.815760 0.413434 0.404401
vn -0.327952 0.913388 -0.241096
vn 0.581957 -0.685171 -0.437971
vn 0.305643 0.924070 0.229408
vn 0.664174 -0.626820 0.407300
vn 0.155309 -0.983551 0.092166
vn -0.566149 -0.694784 0.443525
vn -0.823542 0.396283 -0.405774
vn -0.163335 0.982696 -0.087130
vn -0.090091 -0.987884 -0.126316
vn 0.087100 -0.947203 0.308512
vn -0.570940 -0.809015 -0.139592
vn -0.986297 0.149052 0.070345
vn -0.174017 0.984100 -0.035432
vn 0.489883 0.871639 0.014344
vn 0.061861 0.951384 0.301675
vn -0.727866 -0.645863 -0.230293
vn -0.260537 0.961272 -0.089572
vn 0.236518 0.968078 0.082644
vn 0.740349 -0.630482 0.233070
vn -0.002899 0.999969 -0.000366
usemtl Material
s 1
f 5/1/1 4/2/2 11/3/3
f 5/1/1 11/3/3 12/4/4
f 7/1/5 6/2/6 13/3/7
f 7/1/5 13/3/7 14/4/8
f 6/1/6 5/2/1 12/3/4
f 6/1/6 12/3/4 13/4/7
f 14/1/8 13/2/7 20/3/9
f 14/1/8 20/3/9 21/4/10
f 13/1/7 12/2/4 19/3/11
f 13/1/7 19/3/11 20/4/9
f 21/1/10 20/2/9 27/3/12
f 21/1/10 27/3/12 28/4/13
f 20/1/9 19/2/11 26/3/14
f 20/1/9 26/3/14 27/4/12
f 28/1/13 27/2/12 34/3/15
f 28/1/13 34/3/15 35/4/16
f 27/1/12 26/2/14 33/3/17
f 27/1/12 33/3/17 34/4/15
f 35/1/16 34/2/15 42/3/18
f 35/1/16 42/3/18 43/4/19
f 34/1/15 33/2/17 41/3/20
f 34/1/15 41/3/20 42/4/18
f 43/1/19 42/2/18 49/3/21
f 43/1/19 49/3/21 50/4/22
f 42/1/18 41/2/20 48/3/23
f 42/1/18 48/3/23 49/4/21
f 50/1/22 49/2/21 56/3/24
f 50/1/22 56/3/24 57/4/25
f 49/1/21 48/2/23 55/3/26
f 49/1/21 55/3/26 56/4/24
f 57/1/25 56/2/24 63/3/27
f 57/1/25 63/3/27 64/4/28
f 56/1/24 55/2/26 62/3/29
f 56/1/24 62/3/29 63/4/27
f 64/1/28 63/2/27 70/3/30
f 64/1/28 70/3/30 71/4/31
f 63/1/27 62/2/29 69/3/32
f 63/1/27 69/3/32 70/4/30
f 71/1/31 70/2/30 77/3/33
f 71/1/31 77/3/33 78/4/34
f 70/1/30 69/2/32 76/3/35
f 70/1/30 76/3/35 77/4/33
f 78/1/34 77/2/33 84/3/36
f 78/1/34 84/3/36 85/4/37
f 77/1/33 76/2/35 83/3/38
f 77/1/33 83/3/38 84/4/36
f 85/1/37 84/2/36 91/3/39
f 85/1/37 91/3/39 92/4/40
f 84/1/36 83/2/38 90/3/41
f 84/1/36 90/3/41 91/4/39
f 92/1/40 91/2/39 98/3/42
f 92/1/40 98/3/42 99/4/43
f 91/1/39 90/2/41 97/3/44
f 91/1/39 97/3/44 98/4/42
f 99/1/43 98/2/42 106/3/45
f 99/1/43 106/3/45 107/4/46
f 98/1/42 97/2/44 105/3/47
f 98/1/42 105/3/47 106/4/45
f 107/1/46 106/2/45 113/3/48
f 107/1/46 113/3/48 114/4/49
f 106/1/45 105/2/47 112/3/50
f 106/1/45 112/3/50 113/4/48
f 100/1/51 7/2/5 14/3/8
f 100/1/51 14/2/8 21/3/10
f 100/1/51 21/2/10 28/3/13
f 100/1/51 28/2/13 35/3/16
f 100/1/51 35/2/16 43/3/19
f 100/1/51 43/2/19 50/3/22
f 100/1/51 50/2/22 57/3/25
f 100/1/51 57/2/25 64/3/28
f 100/1/51 64/2/28 71/3/31
f 100/1/51 71/2/31 78/3/34
f 100/1/51 78/2/34 85/3/37
f 100/1/51 85/2/37 92/3/40
f 100/1/51 92/2/40 99/3/43
f 100/1/51 99/2/43 107/3/46
f 100/1/51 107/2/46 114/3/49
f 114/1/49 113/2/48 6/3/6
f 114/1/49 6/3/6 7/4/5
f 113/1/48 112/2/50 5/3/1
f 113/1/48 5/3/1 6/4/6
f 112/1/50 111/2/52 4/3/2
f 112/1/50 4/3/2 5/4/1
f 100/1/51 114/2/49 7/3/5
f 32/1/53 33/2/17 118/3/54
f 32/1/53 118/3/54 117/4/55
f 90/1/41 89/2/56 119/3/57
f 90/1/41 119/3/57 120/4/58
f 97/1/44 90/2/41 120/3/58
f 97/1/44 120/3/58 122/4/59
f 33/1/17 26/2/14 116/3/60
f 33/1/17 116/3/60 118/4/54
usemtl Material.001
f 2/1/61 1/2/62 8/3/63
f 2/1/61 8/3/63 9/4/64
f 4/1/2 3/2/65 10/3/66
f 4/1/2 10/3/66 11/4/3
f 3/1/65 2/2/61 9/3/64
f 3/1/65 9/3/64 10/4/66
f 11/1/3 10/2/66 17/3/67
f 11/1/3 17/3/67 18/4/68
f 10/1/66 9/2/64 16/3/69
f 10/1/66 16/3/69 17/4/67
f 9/1/64 8/2/63 15/3/70
f 9/1/64 15/3/70 16/4/69
f 17/1/67 16/2/69 23/3/71
f 17/1/67 23/3/71 24/4/72
f 16/1/69 15/2/70 22/3/73
f 16/1/69 22/3/73 23/4/71
f 24/1/72 23/2/71 30/3/74
f 24/1/72 30/3/74 31/4/75
f 23/1/71 22/2/73 29/3/76
f 23/1/71 29/3/76 30/4/74
f 31/1/75 30/2/74 38/3/77
f 31/1/75 38/3/77 39/4/78
f 30/1/74 29/2/76 37/3/79
f 30/1/74 37/3/79 38/4/77
f 39/1/78 38/2/77 45/3/80
f 39/1/78 45/3/80 46/4/81
f 38/1/77 37/2/79 44/3/82
f 38/1/77 44/3/82 45/4/80
f 47/1/83 46/2/81 53/3/84
f 47/1/83 53/3/84 54/4/85
f 46/1/81 45/2/80 52/3/86
f 46/1/81 52/3/86 53/4/84
f 45/1/80 44/2/82 51/3/87
f 45/1/80 51/3/87 52/4/86
f 53/1/84 52/2/86 59/3/88
f 53/1/84 59/3/88 60/4/89
f 52/1/86 51/2/87 58/3/90
f 52/1/86 58/3/90 59/4/88
f 60/1/89 59/2/88 66/3/91
f 60/1/89 66/3/91 67/4/92
f 59/1/88 58/2/90 65/3/93
f 59/1/88 65/3/93 66/4/91
f 68/1/94 67/2/92 74/3/95
f 68/1/94 74/3/95 75/4/96
f 67/1/92 66/2/91 73/3/97
f 67/1/92 73/3/97 74/4/95
f 66/1/91 65/2/93 72/3/98
f 66/1/91 72/3/98 73/4/97
f 74/1/95 73/2/97 80/3/99
f 74/1/95 80/3/99 81/4/100
f 73/1/97 72/2/98 79/3/101
f 73/1/97 79/3/101 80/4/99
f 81/1/100 80/2/99 87/3/102
f 81/1/100 87/3/102 88/4/103
f 80/1/99 79/2/101 86/3/104
f 80/1/99 86/3/104 87/4/102
f 88/1/103 87/2/102 94/3/105
f 88/1/103 94/3/105 95/4/106
f 87/1/102 86/2/104 93/3/107
f 87/1/102 93/3/107 94/4/105
f 95/1/106 94/2/105 102/3/108
f 95/1/106 102/3/108 103/4/109
f 94/1/105 93/2/107 101/3/110
f 94/1/105 101/3/110 102/4/108
f 104/1/111 103/2/109 110/3/112
f 104/1/111 110/3/112 111/4/52
f 103/1/109 102/2/108 109/3/113
f 103/1/109 109/3/113 110/4/112
f 102/1/108 101/2/110 108/3/114
f 102/1/108 108/3/114 109/4/113
f 1/1/62 36/2/115 8/3/63
f 8/1/63 36/2/115 15/3/70
f 15/1/70 36/2/115 22/3/73
f 22/1/73 36/2/115 29/3/76
f 29/1/76 36/2/115 37/3/79
f 37/1/79 36/2/115 44/3/82
f 44/1/82 36/2/115 51/3/87
f 51/1/87 36/2/115 58/3/90
f 58/1/90 36/2/115 65/3/93
f 65/1/93 36/2/115 72/3/98
f 72/1/98 36/2/115 79/3/101
f 79/1/101 36/2/115 86/3/104
f 86/1/104 36/2/115 93/3/107
f 93/1/107 36/2/115 101/3/110
f 101/1/110 36/2/115 108/3/114
f 36/2/115 1/3/62 108/1/114
f 111/1/52 110/2/112 3/3/65
f 111/1/52 3/3/65 4/4/2
f 110/1/112 109/2/113 2/3/61
f 110/1/112 2/3/61 3/4/65
f 1/3/62 2/4/61 109/1/113
f 1/3/62 109/1/113 108/2/114
f 72/3/98 73/4/97 142/4/116
f 72/3/98 142/4/116 141/3/116
f 8/3/63 9/4/64 126/4/117
f 8/3/63 126/4/117 125/3/117
f 3/1/65 2/2/61 123/2/118
f 3/1/65 123/2/118 124/1/118
f 22/3/73 23/4/71 130/4/119
f 22/3/73 130/4/119 129/3/119
f 87/3/102 88/4/103 148/4/120
f 87/3/102 148/4/120 147/3/120
f 37/3/79 38/4/77 136/4/121
f 37/3/79 136/4/121 135/3/121
f 102/3/108 103/4/109 154/4/122
f 102/3/108 154/4/122 153/3/122
f 79/3/101 80/4/99 144/4/123
f 79/3/101 144/4/123 143/3/123
f 93/3/107 94/4/105 150/4/124
f 93/3/107 150/4/124 149/3/124
f 108/3/114 109/4/113 156/4/125
f 108/3/114 156/4/125 155/3/125
f 16/3/69 17/4/67 128/4/126
f 16/3/69 128/4/126 127/3/126
f 30/3/74 31/4/75 134/4/127
f 30/3/74 134/4/127 133/3/127
f 44/3/82 45/4/80 140/4/128
f 44/3/82 140/4/128 139/3/128
usemtl Material.002
f 12/1/4 11/2/3 18/3/68
f 12/1/4 18/3/68 19/4/11
f 18/1/68 17/2/67 24/3/72
f 18/1/68 24/3/72 25/4/129
f 19/1/11 18/2/68 25/3/129
f 19/1/11 25/3/129 26/4/14
f 25/1/129 24/2/72 31/3/75
f 25/1/129 31/3/75 32/4/53
f 25/1/129 32/2/53 117/3/55
f 25/1/129 117/3/55 115/4/130
f 32/1/53 31/2/75 39/3/78
f 32/1/53 39/3/78 40/4/131
f 33/1/17 32/2/53 40/3/131
f 33/1/17 40/3/131 41/4/20
f 40/1/131 39/2/78 46/3/81
f 40/1/131 46/3/81 47/4/83
f 41/1/20 40/2/131 47/3/83
f 41/1/20 47/3/83 48/4/23
f 48/1/23 47/2/83 54/3/85
f 48/1/23 54/3/85 55/4/26
f 54/1/85 53/2/84 60/3/89
f 54/1/85 60/3/89 61/4/132
f 55/1/26 54/2/85 61/3/132
f 55/1/26 61/3/132 62/4/29
f 61/1/132 60/2/89 67/3/92
f 61/1/132 67/3/92 68/4/94
f 62/1/29 61/2/132 68/3/94
f 62/1/29 68/3/94 69/4/32
f 69/1/32 68/2/94 75/3/96
f 69/1/32 75/3/96 76/4/35
f 75/1/96 74/2/95 81/3/100
f 75/1/96 81/3/100 82/4/133
f 76/1/35 75/2/96 82/3/133
f 76/1/35 82/3/133 83/4/38
f 82/1/133 81/2/100 88/3/103
f 82/1/133 88/3/103 89/4/56
f 83/1/38 82/2/133 89/3/56
f 83/1/38 89/3/56 90/4/41
f 89/1/56 88/2/103 95/3/106
f 89/1/56 95/3/106 96/4/134
f 89/1/56 96/2/134 121/3/135
f 89/1/56 121/3/135 119/4/57
f 96/1/134 95/2/106 103/3/109
f 96/1/134 103/3/109 104/4/111
f 97/1/44 96/2/134 104/3/111
f 97/1/44 104/3/111 105/4/47
f 105/1/47 104/2/111 111/3/52
f 105/1/47 111/3/52 112/4/50
f 116/1/60 115/2/130 117/3/55
f 116/1/60 117/3/55 118/4/54
f 120/1/58 119/2/57 121/3/135
f 120/1/58 121/3/135 122/4/59
f 26/1/14 25/2/129 115/3/130
f 26/1/14 115/3/130 116/4/60
f 96/1/134 97/2/44 122/3/59
f 96/1/134 122/3/59 121/4/135
f 24/3/72 25/4/129 132/4/136
f 24/3/72 132/4/136 131/3/136
f 39/3/78 40/4/131 138/4/137
f 39/3/78 138/4/137 137/3/137
f 81/3/100 82/4/133 146/4/138
f 81/3/100 146/4/138 145/3/138
f 95/3/106 96/4/134 152/4/139
f 95/3/106 152/4/139 151/3/139
f 60/3/89 61/4/132 157/3/140
