# Blender v2.65 (sub 0) OBJ File: 'flag.blend'
# www.blender.org
mtllib flag_000009.mtl
o Plane.021_Plane.022
v 0.534680 1.779710 6.583320
v 0.122576 0.435520 6.846161
v 0.011443 0.034061 6.929442
v 0.040100 0.260198 6.250474
v -0.039742 0.054081 6.208263
v 0.077470 0.254370 6.884793
v 0.364223 0.693633 6.777229
v 0.238949 0.581705 6.331376
v 0.237202 0.572861 6.810178
v 0.095401 0.453714 6.292472
v 0.475580 1.095150 6.695601
v 0.492024 0.857734 6.399848
v 0.480925 0.895832 6.732047
v 0.406787 0.718545 6.369191
v 0.465944 1.127863 6.447645
v 0.410876 1.330910 6.651083
v 0.411969 1.337187 6.487756
v 0.034614 0.468479 6.284339
v -0.105155 0.086106 6.190205
v 0.051588 0.223352 6.873450
v -0.001578 0.014681 6.909999
v -0.032576 0.291185 6.240673
v 0.310698 0.691698 6.362255
v 0.190081 0.580741 6.803403
v 0.175882 0.585870 6.325011
v 0.087603 0.424899 6.837087
v 0.448162 1.103968 6.454521
v 0.429266 0.847924 6.744117
v 0.421602 0.884503 6.413325
v 0.350671 0.716634 6.770661
v 0.448499 1.120183 6.702733
v 0.374864 1.342436 6.504840
v 0.379124 1.340055 6.668003
vt 0.642027 0.837719
vt 2.121756 0.887666
vt 2.083570 0.119910
vt 0.483745 0.173798
vt 0.121756 0.887666
vt 1.710411 0.941289
vt 1.810632 0.061737
vt 0.083570 0.119910
vt 0.710411 0.941289
vt 2.546510 1.003265
vt 2.546510 0.003266
vt 0.810632 0.061737
vt 0.287047 0.791983
vt 1.642027 0.837719
vt 1.483745 0.173798
vt -0.071316 0.226178
vt 0.429022 0.729267
vt 2.287047 0.791983
vt 1.928684 0.226178
vt 0.667970 0.268643
vt 0.930252 0.678678
vt 2.429022 0.729267
vt 2.667970 0.268643
vt 0.702395 0.334851
vt 0.099554 0.616884
vt 1.930252 0.678678
vt 1.702395 0.334851
vt 0.052938 0.390411
vt 0.738494 0.522869
vt 4.099554 0.616884
vt 4.052938 0.390411
vt 0.676325 0.165071
vt 2.155056 0.108720
vt 2.241225 0.875126
vt 0.624979 0.828375
vt 0.155056 0.108720
vt 1.742639 0.048221
vt 1.986015 0.925595
vt 0.241225 0.875126
vt 0.742639 0.048221
vt 2.577501 -0.021701
vt 2.739711 0.976322
vt 0.986015 0.925595
vt 0.322258 0.216671
vt 1.676325 0.165071
vt 1.624979 0.828375
vt 0.053956 0.782932
vt 0.465487 0.287428
vt 2.322258 0.216671
vt 2.053956 0.782932
vt 0.780301 0.746091
vt 0.904141 0.344440
vt 2.465487 0.287428
vt 2.780301 0.746091
vt 0.730964 0.688589
vt 0.084601 0.414166
vt 1.904141 0.344440
vt 1.730964 0.688589
vt 0.074498 0.640397
vt 4.084601 0.414166
vt 4.074498 0.640397
vn 0.691702 -0.721915 -0.018494
vn 0.884793 -0.463301 -0.049745
vn 0.884518 -0.463790 -0.049715
vn 0.691031 -0.722587 -0.018006
vn 0.953459 -0.294748 -0.063356
vn 0.953337 -0.295083 -0.063417
vn 0.943846 -0.323252 -0.067812
vn 0.749352 -0.661367 0.031800
vn 0.764763 -0.643239 0.036805
vn 0.968383 -0.246071 0.040315
vn 0.958129 -0.282754 0.044740
vn 0.989593 0.143681 0.002869
vn 0.987060 0.160314 0.003082
vn 0.999542 0.029542 0.000824
vn 0.999725 0.022767 0.000702
vn 0.389935 0.864132 0.318094
vn -0.699728 0.712241 0.055116
vn -0.888668 0.444044 0.114139
vn -0.888272 0.444899 0.114048
vn -0.696951 0.715079 0.053652
vn -0.950835 0.271371 0.149022
vn -0.950591 0.271981 0.149632
vn -0.945891 0.282052 0.160314
vn -0.735954 0.675893 0.038667
vn -0.756737 0.652333 0.042390
vn -0.947172 0.317759 0.042848
vn -0.940275 0.337413 0.045076
vn -0.997192 -0.072054 0.018891
vn -0.995422 -0.093570 0.019105
vn -0.999542 -0.014618 0.025941
vn -0.999512 -0.016694 0.025910
usemtl flag
s 1
f 9/1/1 2/2/2 10/3/3
f 9/1/1 10/3/3 8/4/4
f 2/5/2 6/6/5 4/7/6
f 2/5/2 4/7/6 10/8/3
f 6/9/5 3/10/7 5/11/7
f 6/9/5 5/11/7 4/12/6
f 7/13/8 9/14/1 8/15/4
f 7/13/8 8/15/4 14/16/9
f 13/17/10 7/18/8 14/19/9
f 13/17/10 14/19/9 12/20/11
f 11/21/12 13/22/10 12/23/11
f 11/21/12 12/23/11 15/24/13
f 16/25/14 11/26/12 15/27/13
f 16/25/14 15/27/13 17/28/15
f 1/29/16 16/30/14 17/31/15
f 25/32/17 18/33/18 26/34/19
f 25/32/17 26/34/19 24/35/20
f 18/36/18 22/37/21 20/38/22
f 18/36/18 20/38/22 26/39/19
f 22/40/21 19/41/23 21/42/23
f 22/40/21 21/42/23 20/43/22
f 23/44/24 25/45/17 24/46/20
f 23/44/24 24/46/20 30/47/25
f 29/48/26 23/49/24 30/50/25
f 29/48/26 30/50/25 28/51/27
f 27/52/28 29/53/26 28/54/27
f 27/52/28 28/54/27 31/55/29
f 32/56/30 27/57/28 31/58/29
f 32/56/30 31/58/29 33/59/31
f 1/29/16 32/60/30 33/61/31
o Cylinder
v 0.058995 -0.044256 -0.110011
v 0.058995 -0.044256 6.896695
v -0.031935 -0.087502 -0.110011
v -0.031935 -0.087502 6.896695
v -0.075182 0.003429 -0.110011
v -0.075182 0.003429 6.896695
v 0.015749 0.046675 -0.110011
v 0.015749 0.046675 6.896695
vt 0.496249 0.696671
vt 0.496249 1.696671
vt 1.262182 1.696671
vt 1.262182 0.696671
vt 0.335353 0.696671
vt 0.335353 1.696671
vt -0.430580 1.696671
vt -0.430580 0.696671
vt 0.335353 0.489793
vt -0.430580 1.316194
vt -1.196512 0.489793
vt -0.430580 -0.336608
vt 1.423079 1.696671
vt 1.423079 0.696671
vt 0.657146 0.696671
vt 0.657146 1.696671
vt 0.651437 0.696671
vt 0.651437 1.696671
vt 1.417369 1.696671
vt 1.417369 0.696671
vt 0.496249 0.316194
vt 1.262182 -0.510207
vt 0.496249 -1.336608
vt -0.269683 -0.510207
vn 0.769341 -0.273415 -0.577349
vn 0.769341 -0.273415 0.577349
vn -0.273415 -0.769341 0.577349
vn -0.273415 -0.769341 -0.577349
vn -0.769341 0.273415 0.577349
vn -0.769341 0.273415 -0.577349
vn 0.273415 0.769341 0.577349
vn 0.273415 0.769341 -0.577349
usemtl pole
s 1
f 34/62/32 35/63/33 37/64/34
f 34/62/32 37/64/34 36/65/35
f 36/66/35 37/67/34 39/68/36
f 36/66/35 39/68/36 38/69/37
f 37/70/34 35/71/33 41/72/38
f 37/70/34 41/72/38 39/73/36
f 35/74/33 34/75/32 40/76/39
f 35/74/33 40/76/39 41/77/38
f 38/78/37 39/79/36 41/80/38
f 38/78/37 41/80/38 40/81/39
f 34/82/32 36/83/35 38/84/37
f 34/82/32 38/84/37 40/85/39
