# Blender v2.65 (sub 0) OBJ File: 'flag.blend'
# www.blender.org
mtllib flag_000005.mtl
o Plane.021_Plane.022
v 0.723139 1.794578 6.583320
v 0.261023 0.396521 6.846161
v 0.005248 0.017835 6.929442
v 0.148916 0.202119 6.250474
v 0.033716 -0.002602 6.208263
v 0.137593 0.225400 6.884793
v 0.430853 0.734207 6.777228
v 0.364729 0.587298 6.331376
v 0.358528 0.565443 6.810178
v 0.281087 0.388843 6.292472
v 0.700086 1.097326 6.695601
v 0.524635 0.932071 6.399848
v 0.566988 0.942958 6.732047
v 0.432251 0.788435 6.369191
v 0.715505 1.123043 6.447645
v 0.783728 1.332674 6.651083
v 0.784434 1.338953 6.487756
v 0.226834 0.390370 6.284339
v -0.010874 0.012123 6.190205
v 0.100662 0.202706 6.873450
v -0.019266 0.002335 6.909999
v 0.117217 0.220113 6.240673
v 0.335877 0.765605 6.362255
v 0.319814 0.583695 6.803403
v 0.290912 0.578220 6.325011
v 0.230761 0.392147 6.837087
v 0.677833 1.114626 6.454521
v 0.469016 0.943647 6.744117
v 0.454511 1.017393 6.413325
v 0.382054 0.788628 6.770661
v 0.698526 1.122148 6.702732
v 0.746799 1.322047 6.504840
v 0.751083 1.327774 6.668003
vt 0.642027 0.837719
vt 2.121756 0.887666
vt 2.083570 0.119910
vt 0.483745 0.173798
vt 0.121756 0.887666
vt 1.710411 0.941289
vt 1.810632 0.061737
vt 0.083570 0.119910
vt 0.710411 0.941289
vt 2.546510 1.003265
vt 2.546510 0.003266
vt 0.810632 0.061737
vt 0.287047 0.791983
vt 1.642027 0.837719
vt 1.483745 0.173798
vt -0.071316 0.226178
vt 0.429022 0.729267
vt 2.287047 0.791983
vt 1.928684 0.226178
vt 0.667970 0.268643
vt 0.930252 0.678678
vt 2.429022 0.729267
vt 2.667970 0.268643
vt 0.702395 0.334851
vt 0.099554 0.616884
vt 1.930252 0.678678
vt 1.702395 0.334851
vt 0.052938 0.390411
vt 0.738494 0.522869
vt 4.099554 0.616884
vt 4.052938 0.390411
vt 0.676325 0.165071
vt 2.155056 0.108720
vt 2.241225 0.875126
vt 0.624979 0.828375
vt 0.155056 0.108720
vt 1.742639 0.048221
vt 1.986015 0.925595
vt 0.241225 0.875126
vt 0.742639 0.048221
vt 2.577501 -0.021701
vt 2.739711 0.976322
vt 0.986015 0.925595
vt 0.322258 0.216671
vt 1.676325 0.165071
vt 1.624979 0.828375
vt 0.053956 0.782932
vt 0.465487 0.287428
vt 2.322258 0.216671
vt 2.053956 0.782932
vt 0.780301 0.746091
vt 0.904141 0.344440
vt 2.465487 0.287428
vt 2.780301 0.746091
vt 0.730964 0.688589
vt 0.084601 0.414166
vt 1.904141 0.344440
vt 1.730964 0.688589
vt 0.074498 0.640397
vt 4.084601 0.414166
vt 4.074498 0.640397
vn 0.914426 -0.404736 0.000031
vn 0.852626 -0.521744 0.027955
vn 0.853023 -0.521104 0.027863
vn 0.915616 -0.402020 -0.001160
vn 0.837733 -0.544603 0.039460
vn 0.838313 -0.543748 0.039521
vn 0.856685 -0.514115 0.041719
vn 0.899930 -0.433637 -0.045198
vn 0.892514 -0.448286 -0.049471
vn 0.787652 -0.612598 -0.065584
vn 0.794519 -0.603442 -0.067324
vn 0.836421 -0.547441 -0.026063
vn 0.853908 -0.519974 -0.021180
vn 0.991974 -0.125767 0.011231
vn 0.992737 -0.119572 0.011200
vn 0.110874 0.897183 0.427473
vn -0.944029 0.326456 0.046785
vn -0.877804 0.478866 0.010773
vn -0.879696 0.475356 0.011353
vn -0.945189 0.322886 0.048250
vn -0.844752 0.535081 -0.003632
vn -0.844935 0.534837 -0.003662
vn -0.854610 0.519211 -0.005310
vn -0.936979 0.338542 0.086001
vn -0.932005 0.351451 0.088168
vn -0.738701 0.663228 0.120029
vn -0.763878 0.634419 0.118168
vn -0.748253 0.655477 0.102206
vn -0.777612 0.621113 0.097446
vn -0.989441 0.139012 0.040742
vn -0.990814 0.128941 0.040101
usemtl flag
s 1
f 9/1/1 2/2/2 10/3/3
f 9/1/1 10/3/3 8/4/4
f 2/5/2 6/6/5 4/7/6
f 2/5/2 4/7/6 10/8/3
f 6/9/5 3/10/7 5/11/7
f 6/9/5 5/11/7 4/12/6
f 7/13/8 9/14/1 8/15/4
f 7/13/8 8/15/4 14/16/9
f 13/17/10 7/18/8 14/19/9
f 13/17/10 14/19/9 12/20/11
f 11/21/12 13/22/10 12/23/11
f 11/21/12 12/23/11 15/24/13
f 16/25/14 11/26/12 15/27/13
f 16/25/14 15/27/13 17/28/15
f 1/29/16 16/30/14 17/31/15
f 25/32/17 18/33/18 26/34/19
f 25/32/17 26/34/19 24/35/20
f 18/36/18 22/37/21 20/38/22
f 18/36/18 20/38/22 26/39/19
f 22/40/21 19/41/23 21/42/23
f 22/40/21 21/42/23 20/43/22
f 23/44/24 25/45/17 24/46/20
f 23/44/24 24/46/20 30/47/25
f 29/48/26 23/49/24 30/50/25
f 29/48/26 30/50/25 28/51/27
f 27/52/28 29/53/26 28/54/27
f 27/52/28 28/54/27 31/55/29
f 32/56/30 27/57/28 31/58/29
f 32/56/30 31/58/29 33/59/31
f 1/29/16 32/60/30 33/61/31
o Cylinder
v 0.058995 -0.044256 -0.110011
v 0.058995 -0.044256 6.896695
v -0.031935 -0.087502 -0.110011
v -0.031935 -0.087502 6.896695
v -0.075182 0.003429 -0.110011
v -0.075182 0.003429 6.896695
v 0.015749 0.046675 -0.110011
v 0.015749 0.046675 6.896695
vt 0.496249 0.696671
vt 0.496249 1.696671
vt 1.262182 1.696671
vt 1.262182 0.696671
vt 0.335353 0.696671
vt 0.335353 1.696671
vt -0.430580 1.696671
vt -0.430580 0.696671
vt 0.335353 0.489793
vt -0.430580 1.316194
vt -1.196512 0.489793
vt -0.430580 -0.336608
vt 1.423079 1.696671
vt 1.423079 0.696671
vt 0.657146 0.696671
vt 0.657146 1.696671
vt 0.651437 0.696671
vt 0.651437 1.696671
vt 1.417369 1.696671
vt 1.417369 0.696671
vt 0.496249 0.316194
vt 1.262182 -0.510207
vt 0.496249 -1.336608
vt -0.269683 -0.510207
vn 0.769341 -0.273415 -0.577349
vn 0.769341 -0.273415 0.577349
vn -0.273415 -0.769341 0.577349
vn -0.273415 -0.769341 -0.577349
vn -0.769341 0.273415 0.577349
vn -0.769341 0.273415 -0.577349
vn 0.273415 0.769341 0.577349
vn 0.273415 0.769341 -0.577349
usemtl pole
s 1
f 34/62/32 35/63/33 37/64/34
f 34/62/32 37/64/34 36/65/35
f 36/66/35 37/67/34 39/68/36
f 36/66/35 39/68/36 38/69/37
f 37/70/34 35/71/33 41/72/38
f 37/70/34 41/72/38 39/73/36
f 35/74/33 34/75/32 40/76/39
f 35/74/33 40/76/39 41/77/38
f 38/78/37 39/79/36 41/80/38
f 38/78/37 41/80/38 40/81/39
f 34/82/32 36/83/35 38/84/37
f 34/82/32 38/84/37 40/85/39
