# Blender v2.69 (sub 0) OBJ File: 'snake.blend'
# www.blender.org
mtllib snake_000019.mtl
o Cylinder
v -1.881696 -2.575205 0.285614
v -1.757790 -3.639768 0.244170
v -2.924292 -2.906256 0.383760
v -1.781052 -3.670137 0.199676
v -3.003036 -2.936574 0.285619
v -1.827574 -3.730875 0.199676
v -2.924292 -2.906256 0.187478
v -1.850836 -3.761244 0.244170
v -2.766805 -2.845619 0.187478
v -1.827575 -3.730875 0.288663
v -2.688062 -2.815301 0.285619
v -1.781052 -3.670137 0.288663
v -1.766528 0.411089 0.285617
v -1.804888 0.504395 0.110881
v -1.881608 0.691007 0.110881
v -1.919968 0.784313 0.285617
v -1.881608 0.691007 0.460352
v -1.804888 0.504395 0.460352
v -2.761863 -1.245609 0.285618
v -2.867527 -1.237590 0.102078
v -3.078853 -1.221551 0.102078
v -3.184516 -1.213531 0.285618
v -3.078854 -1.221550 0.469158
v -2.867526 -1.237589 0.469158
v 0.012561 0.172933 0.137989
v 0.182482 0.186528 0.137989
v 0.267443 0.193326 0.285615
v 0.182482 0.186528 0.433242
v 0.012561 0.172933 0.433242
v -0.072400 0.166135 0.285615
v -2.847739 -2.280417 0.285619
v -2.946630 -2.318492 0.162368
v -3.144411 -2.394643 0.162368
v -3.243299 -2.432718 0.285619
v -3.144409 -2.394643 0.408870
v -2.946630 -2.318492 0.408870
v -2.400358 -0.296102 0.285618
v -2.492763 -0.244235 0.102077
v -2.677574 -0.140499 0.102077
v -2.769980 -0.088631 0.285618
v -2.677574 -0.140499 0.469158
v -2.492764 -0.244235 0.469158
v -0.390949 -1.234781 0.177337
v -0.318741 -1.336850 0.177337
v -0.282637 -1.387884 0.285615
v -0.318741 -1.336850 0.393892
v -0.390949 -1.234781 0.393892
v -0.427053 -1.183747 0.285614
v 0.091663 -0.673290 0.157663
v 0.238938 -0.661506 0.157663
v 0.312576 -0.655615 0.285615
v 0.238938 -0.661506 0.413567
v 0.091662 -0.673290 0.413567
v 0.018025 -0.679182 0.285615
v -0.832433 0.729701 0.120033
v -0.742981 0.898686 0.120033
v -0.698256 0.983178 0.285616
v -0.742981 0.898685 0.451199
v -0.832432 0.729701 0.451199
v -0.877158 0.645209 0.285616
v -1.190299 -1.388142 0.197011
v -1.186501 -1.490381 0.197011
v -1.184602 -1.541501 0.285614
v -1.186501 -1.490381 0.374217
v -1.190300 -1.388142 0.374217
v -1.192199 -1.337023 0.285614
v -2.766806 -2.845620 0.383760
v -1.984414 -3.169869 0.285620
v -2.079197 -3.293613 0.162369
v -2.272063 -3.542511 0.162369
v -2.368686 -3.666062 0.285620
v -2.274628 -3.543606 0.408870
v -2.079197 -3.293613 0.408870
v -1.809000 -3.367092 0.269355
v -1.888609 -3.471027 0.177370
v -2.047828 -3.678895 0.177370
v -2.127438 -3.782830 0.269355
v -2.047827 -3.678895 0.361341
v -1.888609 -3.471026 0.361341
vt -0.094606 0.524100
vt -0.114034 0.518866
vt -0.117787 0.509958
vt -0.108030 0.504842
vt -0.135083 0.504288
vt -0.125381 0.509803
vt -0.148701 0.522994
vt -0.129224 0.518555
vt -0.125473 0.527467
vt -0.117875 0.527623
vt -0.108211 0.542857
vt -0.135290 0.542303
vt -0.144050 0.526459
vt -0.155619 0.526190
vt -0.138812 0.553432
vt 1.413960 0.475237
vt 0.690250 0.510568
vt 1.456651 0.321985
vt 0.667339 -0.571213
vt 1.545576 0.320169
vt 2.337554 -0.592327
vt 1.589840 0.471657
vt 2.313818 0.489432
vt 2.290906 1.571213
vt 1.458555 0.626138
vt 0.713987 1.592328
vt 1.546795 0.624336
vt -0.024402 0.528444
vt -0.072603 0.527822
vt -0.096701 0.442488
vt -0.071952 0.359660
vt -0.145772 0.441485
vt -0.169667 0.357665
vt -0.170736 0.525819
vt -0.218930 0.524489
vt -0.171814 0.693972
vt -0.073261 0.695985
vt -0.097465 0.612340
vt -0.146748 0.611332
vt 1.477086 0.473596
vt 1.462390 0.473944
vt 1.489250 0.430365
vt 1.481729 0.405094
vt 1.514102 0.429857
vt 1.521363 0.404284
vt 1.526708 0.472582
vt 1.541404 0.472330
vt 1.514515 0.515768
vt 1.489717 0.516275
vt 1.482498 0.541870
vt 1.521995 0.541063
vt -0.088905 0.527557
vt -0.105092 0.489152
vt -0.137859 0.488482
vt -0.154436 0.526218
vt -0.105451 0.565375
vt -0.138281 0.564704
vt -0.909581 -0.592327
vt -0.933317 0.489432
vt 1.490824 0.473291
vt 1.485438 0.473408
vt 1.493514 0.444735
vt 1.496258 0.454001
vt 1.509988 0.444398
vt 1.507338 0.453775
vt 1.518354 0.472735
vt 1.512969 0.472838
vt 1.507529 0.492119
vt 1.496460 0.492345
vt 1.493817 0.501725
vt 1.510267 0.501388
vt -0.132725 0.500682
vt -0.138515 0.499727
vt -0.110350 0.501139
vt -0.104552 0.500422
vt -0.099291 0.527374
vt -0.087722 0.527577
vt -0.133006 0.552731
vt -0.110602 0.553190
vt 1.501896 0.473058
vt -0.104804 0.554127
vt -0.956228 1.571213
vn 0.862728 0.505478 -0.011597
vn 0.995697 -0.085879 -0.034394
vn 0.692557 -0.281991 -0.663930
vn 0.325877 0.160436 -0.931669
vn -0.067782 -0.356395 -0.931852
vn 0.452651 -0.595172 -0.663930
vn -0.256874 -0.966369 -0.011536
vn 0.342265 -0.938963 -0.034394
vn 0.517747 -0.629902 0.578875
vn 0.743034 -0.335795 0.578875
vn 0.431928 0.057985 0.900021
vn 0.058748 -0.431989 0.899930
vn -0.830103 -0.557573 -0.000244
vn -0.594775 -0.803797 0.009796
vn -0.165380 -0.313181 0.935148
vn -0.104831 -0.994476 0.000000
vn 0.526048 -0.850429 0.000000
vn -0.066195 -0.391949 -0.917570
vn 0.217444 -0.363048 -0.906003
vn 0.131230 0.579516 -0.804315
vn -0.267159 0.503189 -0.821802
vn 0.277383 0.960753 0.000000
vn -0.456374 0.889767 0.000000
vn -0.267159 0.503189 0.821802
vn -0.066195 -0.391949 0.917570
vn 0.217444 -0.363048 0.906003
vn 0.131230 0.579485 0.804315
vn 0.851619 -0.524155 0.000000
vn 0.971191 -0.238166 0.000000
vn 0.449049 -0.120365 -0.885342
vn 0.386792 -0.232459 -0.892361
vn -0.519791 0.095523 -0.848903
vn -0.459944 0.294351 -0.837703
vn -0.980834 0.194678 0.000000
vn -0.847499 0.530747 0.000000
vn -0.459944 0.294351 0.837703
vn 0.386792 -0.232459 0.892361
vn 0.449049 -0.120365 0.885342
vn -0.519791 0.095523 0.848903
vn -0.933256 0.359142 0.000000
vn -0.794061 -0.607807 0.000000
vn -0.384899 0.079073 -0.919553
vn -0.334910 -0.211097 -0.918271
vn 0.556810 -0.230262 -0.798059
vn 0.521256 0.307474 -0.796045
vn 0.960326 -0.278848 0.000000
vn 0.906522 0.422132 0.000000
vn 0.556810 -0.230262 0.798059
vn -0.384899 0.079073 0.919553
vn -0.334910 -0.211097 0.918271
vn 0.521256 0.307474 0.796045
vn 0.996704 0.080874 0.000000
vn 0.390851 0.011567 -0.920377
vn -0.453475 -0.112186 -0.884152
vn -0.974670 -0.223548 0.000000
vn 0.390851 0.011567 0.920377
vn -0.453475 -0.112186 0.884152
vn -0.538041 0.842891 0.000000
vn -0.501358 0.865230 0.000000
vn -0.229041 0.340587 -0.911863
vn -0.429243 0.470046 -0.771203
vn 0.276223 -0.508133 -0.815760
vn 0.136357 -0.362011 -0.922117
vn 0.509659 -0.860347 0.000000
vn 0.605213 -0.796045 0.000000
vn 0.136357 -0.362011 0.922117
vn -0.429243 0.470046 0.771203
vn -0.229041 0.340587 0.911863
vn 0.276223 -0.508133 0.815760
vn -0.379040 -0.281777 -0.881405
vn -0.209357 -0.279214 -0.937101
vn 0.270302 0.206488 -0.940336
vn 0.220862 0.260994 -0.939726
vn 0.720115 0.693838 0.000000
vn 0.644734 0.764275 0.012818
vn -0.379192 -0.280892 0.881619
vn 0.270302 0.206488 0.940336
vn -0.522660 -0.852504 0.000000
vn 0.262246 0.222846 0.938902
usemtl scale
s 1
f 74/1/1 2/2/2 4/3/3
f 75/4/4 4/3/3 76/5/5
f 76/5/5 6/6/6 77/7/7
f 77/7/7 8/8/8 10/9/9
f 4/3/3 2/2/2 12/10/10
f 79/11/11 12/10/10 74/1/1
f 78/12/12 10/9/9 79/11/11
f 5/13/13 71/14/14 72/15/15
f 60/16/16 13/17/17 55/18/18
f 55/18/18 14/19/19 56/20/20
f 56/20/20 15/21/21 57/22/22
f 57/22/22 16/23/23 17/24/24
f 59/25/25 18/26/26 13/17/17
f 58/27/27 17/24/24 18/26/26
f 37/28/28 19/29/29 20/30/30
f 38/31/31 20/30/30 21/32/32
f 39/33/33 21/32/32 22/34/34
f 40/35/35 22/34/34 41/36/36
f 42/37/37 24/38/38 37/28/28
f 41/36/36 23/39/39 42/37/37
f 54/40/40 30/41/41 49/42/42
f 49/42/42 25/43/43 50/44/44
f 50/44/44 26/45/45 51/46/46
f 51/46/46 27/47/47 52/48/48
f 53/49/49 29/50/50 54/40/40
f 52/48/48 28/51/51 53/49/49
f 19/29/29 31/52/52 32/53/53
f 20/30/30 32/53/53 33/54/54
f 21/32/32 33/54/54 34/55/55
f 22/34/34 34/55/55 23/39/39
f 24/38/38 36/56/56 19/29/29
f 23/39/39 35/57/57 24/38/38
f 13/17/17 37/28/28 14/19/19
f 14/19/19 38/31/31 15/58/21
f 15/58/21 39/33/33 16/59/23
f 16/59/23 40/35/35 41/36/36
f 18/26/26 42/37/37 37/28/28
f 17/24/24 41/36/36 42/37/37
f 66/60/58 48/61/59 43/62/60
f 61/63/61 43/62/60 44/64/62
f 62/65/63 44/64/62 45/66/64
f 63/67/65 45/66/64 64/68/66
f 65/69/67 47/70/68 66/60/58
f 64/68/66 46/71/69 65/69/67
f 48/61/59 54/40/40 49/42/42
f 43/62/60 49/42/42 50/44/44
f 44/64/62 50/44/44 51/46/46
f 45/66/64 51/46/46 46/71/69
f 47/70/68 53/49/49 48/61/59
f 46/71/69 52/48/48 47/70/68
f 30/41/41 60/16/16 25/43/43
f 25/43/43 55/18/18 26/45/45
f 26/45/45 56/20/20 27/47/47
f 27/47/47 57/22/22 58/27/27
f 29/50/50 59/25/25 60/16/16
f 28/51/51 58/27/27 59/25/25
f 7/72/70 70/73/71 5/13/13
f 9/74/72 69/75/73 7/72/70
f 11/76/74 68/77/75 9/74/72
f 35/57/57 3/78/76 36/56/56
f 36/56/56 67/79/77 31/52/52
f 34/55/55 5/13/13 3/78/76
f 33/54/54 7/72/70 34/55/55
f 32/53/53 9/74/72 33/54/54
f 31/52/52 11/76/74 9/74/72
f 1/80/78 66/60/58 61/63/61
f 1/80/78 61/63/61 62/65/63
f 1/80/78 62/65/63 63/67/65
f 1/80/78 63/67/65 64/68/66
f 1/80/78 65/69/67 66/60/58
f 1/80/78 64/68/66 65/69/67
f 67/79/77 73/81/79 68/77/75
f 3/78/76 72/15/15 73/81/79
f 68/77/75 74/1/1 75/4/4
f 69/75/73 75/4/4 70/73/71
f 70/73/71 76/5/5 71/14/14
f 71/14/14 77/7/7 78/12/12
f 73/81/79 79/11/11 68/77/75
f 72/15/15 78/12/12 79/11/11
f 75/4/4 74/1/1 4/3/3
f 4/3/3 6/6/6 76/5/5
f 6/6/6 8/8/8 77/7/7
f 78/12/12 77/7/7 10/9/9
f 4/3/3 12/10/10 10/9/9
f 6/6/6 4/3/3 8/8/8
f 4/3/3 10/9/9 8/8/8
f 12/10/10 2/2/2 74/1/1
f 10/9/9 12/10/10 79/11/11
f 3/78/76 5/13/13 72/15/15
f 13/17/17 14/19/19 55/18/18
f 14/19/19 15/21/21 56/20/20
f 15/21/21 16/23/23 57/22/22
f 58/27/27 57/22/22 17/24/24
f 60/16/16 59/25/25 13/17/17
f 59/25/25 58/27/27 18/26/26
f 38/31/31 37/28/28 20/30/30
f 39/33/33 38/31/31 21/32/32
f 40/35/35 39/33/33 22/34/34
f 22/34/34 23/39/39 41/36/36
f 24/38/38 19/29/29 37/28/28
f 23/39/39 24/38/38 42/37/37
f 30/41/41 25/43/43 49/42/42
f 25/43/43 26/45/45 50/44/44
f 26/45/45 27/47/47 51/46/46
f 27/47/47 28/51/51 52/48/48
f 29/50/50 30/41/41 54/40/40
f 28/51/51 29/50/50 53/49/49
f 20/30/30 19/29/29 32/53/53
f 21/32/32 20/30/30 33/54/54
f 22/34/34 21/32/32 34/55/55
f 34/55/55 35/57/57 23/39/39
f 36/56/56 31/52/52 19/29/29
f 35/57/57 36/56/56 24/38/38
f 37/28/28 38/31/31 14/19/19
f 38/31/31 39/33/33 15/58/21
f 39/33/33 40/35/35 16/59/23
f 17/82/24 16/59/23 41/36/36
f 13/17/17 18/26/26 37/28/28
f 18/26/26 17/24/24 42/37/37
f 61/63/61 66/60/58 43/62/60
f 62/65/63 61/63/61 44/64/62
f 63/67/65 62/65/63 45/66/64
f 45/66/64 46/71/69 64/68/66
f 47/70/68 48/61/59 66/60/58
f 46/71/69 47/70/68 65/69/67
f 43/62/60 48/61/59 49/42/42
f 44/64/62 43/62/60 50/44/44
f 45/66/64 44/64/62 51/46/46
f 51/46/46 52/48/48 46/71/69
f 53/49/49 54/40/40 48/61/59
f 52/48/48 53/49/49 47/70/68
f 60/16/16 55/18/18 25/43/43
f 55/18/18 56/20/20 26/45/45
f 56/20/20 57/22/22 27/47/47
f 28/51/51 27/47/47 58/27/27
f 30/41/41 29/50/50 60/16/16
f 29/50/50 28/51/51 59/25/25
f 70/73/71 71/14/14 5/13/13
f 69/75/73 70/73/71 7/72/70
f 68/77/75 69/75/73 9/74/72
f 3/78/76 67/79/77 36/56/56
f 67/79/77 11/76/74 31/52/52
f 35/57/57 34/55/55 3/78/76
f 7/72/70 5/13/13 34/55/55
f 9/74/72 7/72/70 33/54/54
f 32/53/53 31/52/52 9/74/72
f 11/76/74 67/79/77 68/77/75
f 67/79/77 3/78/76 73/81/79
f 69/75/73 68/77/75 75/4/4
f 75/4/4 76/5/5 70/73/71
f 76/5/5 77/7/7 71/14/14
f 72/15/15 71/14/14 78/12/12
f 79/11/11 74/1/1 68/77/75
f 73/81/79 72/15/15 79/11/11
