# Blender v2.69 (sub 0) OBJ File: 'snake.blend'
# www.blender.org
mtllib snake_000047.mtl
o Cylinder
v 0.615098 -0.123689 0.285614
v 2.386518 -0.046089 0.244169
v 2.727592 -1.305792 0.383760
v 2.424404 -0.040794 0.199676
v 2.809168 -1.284226 0.285619
v 2.500176 -0.030206 0.199676
v 2.727592 -1.305792 0.187478
v 2.538062 -0.024912 0.244169
v 2.564440 -1.348924 0.187478
v 2.500176 -0.030206 0.288663
v 2.482864 -1.370490 0.285619
v 2.424404 -0.040794 0.288663
v 0.741033 -3.791625 0.285617
v 0.724159 -3.891087 0.110881
v 0.690411 -4.090013 0.110881
v 0.673537 -4.189475 0.285617
v 0.690411 -4.090013 0.460352
v 0.724159 -3.891087 0.460352
v 2.305324 -2.907131 0.285618
v 2.407654 -2.934656 0.102078
v 2.612313 -2.989706 0.102078
v 2.714643 -3.017230 0.285618
v 2.612313 -2.989706 0.469158
v 2.407653 -2.934656 0.469158
v -1.143277 -3.024356 0.137989
v -1.313208 -3.037839 0.137989
v -1.398173 -3.044580 0.285615
v -1.313208 -3.037839 0.433242
v -1.143277 -3.024356 0.433242
v -1.058312 -3.017615 0.285615
v 2.583364 -1.919578 0.285619
v 2.685811 -1.892495 0.162368
v 2.890706 -1.838327 0.162368
v 2.993154 -1.811243 0.285619
v 2.890707 -1.838327 0.408870
v 2.685812 -1.892494 0.408870
v 1.653202 -3.527410 0.285618
v 1.704118 -3.620343 0.102077
v 1.805948 -3.806211 0.102077
v 1.856863 -3.899144 0.285618
v 1.805947 -3.806211 0.469158
v 1.704117 -3.620344 0.469158
v -0.772135 -1.571049 0.177337
v -0.853072 -1.475754 0.177337
v -0.893542 -1.428108 0.285615
v -0.853072 -1.475755 0.393892
v -0.772135 -1.571049 0.393892
v -0.731666 -1.618697 0.285615
v -1.221817 -2.178081 0.157663
v -1.369101 -2.189766 0.157663
v -1.442743 -2.195609 0.285615
v -1.369101 -2.189766 0.413567
v -1.221818 -2.178080 0.413567
v -1.148176 -2.172237 0.285615
v -0.323696 -3.632038 0.120033
v -0.422957 -3.795453 0.120033
v -0.472587 -3.877162 0.285616
v -0.422957 -3.795453 0.451199
v -0.323696 -3.632038 0.451199
v -0.274067 -3.550331 0.285616
v 0.011604 -1.357765 0.197011
v 0.000401 -1.256070 0.197011
v -0.005200 -1.205223 0.285614
v 0.000401 -1.256070 0.374217
v 0.011604 -1.357765 0.374217
v 0.017205 -1.408612 0.285614
v 2.564440 -1.348924 0.383760
v 2.217988 -0.539810 0.285619
v 2.372361 -0.518238 0.162369
v 2.680316 -0.475062 0.162369
v 2.834342 -0.453277 0.285619
v 2.679703 -0.475038 0.408870
v 2.372361 -0.518238 0.408870
v 2.231544 -0.276213 0.269355
v 2.361203 -0.258094 0.177370
v 2.620523 -0.221856 0.177370
v 2.750184 -0.203737 0.269355
v 2.620524 -0.221856 0.361341
v 2.361204 -0.258094 0.361341
vt -0.094606 0.524100
vt -0.114034 0.518866
vt -0.117787 0.509958
vt -0.108030 0.504842
vt -0.125381 0.509803
vt -0.135083 0.504288
vt -0.148701 0.522994
vt -0.129224 0.518555
vt -0.125473 0.527467
vt -0.117875 0.527623
vt -0.108211 0.542857
vt -0.135290 0.542303
vt -0.144050 0.526459
vt -0.155619 0.526190
vt -0.133006 0.552731
vt 1.413960 0.475237
vt 0.690250 0.510568
vt 1.456651 0.321985
vt 0.667339 -0.571213
vt 1.545576 0.320169
vt 2.337554 -0.592327
vt 1.589840 0.471657
vt 2.313818 0.489432
vt 2.290906 1.571213
vt 1.458555 0.626138
vt 0.713987 1.592328
vt 1.546795 0.624336
vt -0.024402 0.528444
vt -0.072603 0.527822
vt -0.096701 0.442488
vt -0.071952 0.359660
vt -0.145772 0.441485
vt -0.169667 0.357665
vt -0.170736 0.525819
vt -0.218930 0.524489
vt -0.171814 0.693972
vt -0.073261 0.695985
vt -0.097465 0.612340
vt -0.146748 0.611332
vt 1.477086 0.473596
vt 1.462390 0.473944
vt 1.489250 0.430365
vt 1.481729 0.405094
vt 1.514102 0.429857
vt 1.521363 0.404284
vt 1.526708 0.472582
vt 1.541404 0.472330
vt 1.521995 0.541063
vt 1.489717 0.516275
vt 1.482498 0.541870
vt 1.514515 0.515768
vt -0.088905 0.527557
vt -0.105092 0.489152
vt -0.137859 0.488482
vt -0.154436 0.526218
vt -0.105451 0.565375
vt -0.138281 0.564704
vt -0.909581 -0.592327
vt -0.933317 0.489432
vt 1.490824 0.473291
vt 1.485438 0.473408
vt 1.493514 0.444735
vt 1.496258 0.454001
vt 1.509988 0.444398
vt 1.507338 0.453775
vt 1.518354 0.472735
vt 1.512969 0.472838
vt 1.507529 0.492119
vt 1.496460 0.492345
vt 1.493817 0.501725
vt 1.510267 0.501388
vt -0.132725 0.500682
vt -0.138515 0.499727
vt -0.110350 0.501139
vt -0.104552 0.500422
vt -0.099291 0.527374
vt -0.087722 0.527577
vt -0.110602 0.553190
vt 1.501896 0.473058
vt -0.104804 0.554127
vt -0.138812 0.553432
vt -0.956228 1.571213
vn -0.969237 0.245735 -0.011567
vn -0.648732 0.760216 -0.034394
vn -0.295144 0.687033 -0.663930
vn -0.344768 0.114566 -0.931639
vn 0.095492 0.741630 -0.663930
vn 0.300577 0.204230 -0.931608
vn 0.865749 0.500290 -0.011536
vn 0.415479 0.908933 -0.034394
vn 0.073550 0.812067 0.578875
vn -0.293344 0.760796 0.578875
vn -0.348582 0.262154 0.899838
vn 0.263894 0.347148 0.899899
vn 0.989654 0.143315 0.000000
vn 0.983093 0.182501 0.013611
vn 0.381756 0.066317 0.921873
vn 0.408826 0.912595 0.000000
vn -0.039979 0.999176 0.000000
vn 0.183325 0.411908 -0.892575
vn -0.009857 0.436689 -0.899533
vn -0.265481 -0.482925 -0.834407
vn -0.001282 -0.558489 -0.829463
vn -0.480453 -0.877010 0.000000
vn -0.022065 -0.999756 0.000000
vn -0.001282 -0.558489 0.829463
vn 0.183325 0.411908 0.892575
vn -0.009857 0.436689 0.899533
vn -0.265481 -0.482925 0.834407
vn -0.501297 0.865261 0.000000
vn -0.837886 0.545824 0.000000
vn -0.367870 0.234138 -0.899899
vn -0.219367 0.375622 -0.900418
vn 0.488327 -0.269417 -0.830012
vn 0.277566 -0.486190 -0.828547
vn 0.885037 -0.465468 0.000000
vn 0.495529 -0.868557 0.000000
vn 0.277566 -0.486190 0.828547
vn -0.219367 0.375622 0.900418
vn -0.367870 0.234138 0.899899
vn 0.488327 -0.269417 0.830012
vn 0.950011 -0.312143 0.000000
vn 0.817896 0.575335 0.000000
vn 0.397412 -0.071291 -0.914853
vn 0.346233 0.205237 -0.915403
vn -0.556505 0.204627 -0.805200
vn -0.525163 -0.286752 -0.801202
vn -0.967193 0.254006 0.000000
vn -0.914945 -0.403516 0.000000
vn -0.525163 -0.286752 0.801202
vn 0.397412 -0.071291 0.914853
vn 0.346233 0.205237 0.915403
vn -0.556505 0.204627 0.805200
vn -0.996826 0.079287 0.000000
vn -0.381817 0.046266 -0.923063
vn 0.473891 0.040712 -0.879604
vn 0.996399 0.084750 0.000000
vn -0.381817 0.046266 0.923063
vn 0.473891 0.040712 0.879604
vn 0.599200 -0.800562 0.000000
vn 0.562792 -0.826563 0.000000
vn 0.254250 -0.322825 -0.911649
vn 0.462844 -0.436872 -0.771264
vn -0.309153 0.487808 -0.816340
vn -0.163579 0.351421 -0.921812
vn -0.569262 0.822138 0.000000
vn -0.662893 0.748680 0.000000
vn -0.163579 0.351421 0.921812
vn 0.462844 -0.436872 0.771264
vn 0.254250 -0.322825 0.911649
vn -0.309153 0.487808 0.816340
vn 0.381756 0.066286 -0.921873
vn 0.336650 0.061892 -0.939573
vn -0.403180 -0.095004 -0.910154
vn -0.340953 -0.033204 -0.939482
vn -0.970244 -0.242042 0.000000
vn -0.995392 -0.094760 0.012879
vn -0.403180 -0.095004 0.910154
vn 0.459883 0.887967 -0.000214
vn -0.343974 0.022706 0.938688
vn 0.323038 0.116276 0.939207
usemtl scale
s 1
f 74/1/1 2/2/2 4/3/3
f 75/4/4 4/3/3 6/5/5
f 76/6/6 6/5/5 77/7/7
f 77/7/7 8/8/8 10/9/9
f 4/3/3 2/2/2 12/10/10
f 79/11/11 12/10/10 74/1/1
f 78/12/12 10/9/9 12/10/10
f 5/13/13 71/14/14 3/15/15
f 60/16/16 13/17/17 55/18/18
f 55/18/18 14/19/19 56/20/20
f 56/20/20 15/21/21 57/22/22
f 57/22/22 16/23/23 17/24/24
f 59/25/25 18/26/26 13/17/17
f 58/27/27 17/24/24 18/26/26
f 37/28/28 19/29/29 20/30/30
f 38/31/31 20/30/30 21/32/32
f 39/33/33 21/32/32 22/34/34
f 40/35/35 22/34/34 41/36/36
f 42/37/37 24/38/38 37/28/28
f 41/36/36 23/39/39 42/37/37
f 54/40/40 30/41/41 49/42/42
f 49/42/42 25/43/43 50/44/44
f 50/44/44 26/45/45 51/46/46
f 51/46/46 27/47/47 28/48/48
f 53/49/49 29/50/50 54/40/40
f 52/51/51 28/48/48 53/49/49
f 19/29/29 31/52/52 32/53/53
f 20/30/30 32/53/53 33/54/54
f 21/32/32 33/54/54 34/55/55
f 22/34/34 34/55/55 23/39/39
f 24/38/38 36/56/56 19/29/29
f 23/39/39 35/57/57 24/38/38
f 13/17/17 37/28/28 14/19/19
f 14/19/19 38/31/31 15/58/21
f 15/58/21 39/33/33 16/59/23
f 16/59/23 40/35/35 41/36/36
f 18/26/26 42/37/37 37/28/28
f 17/24/24 41/36/36 42/37/37
f 66/60/58 48/61/59 43/62/60
f 61/63/61 43/62/60 44/64/62
f 62/65/63 44/64/62 45/66/64
f 63/67/65 45/66/64 64/68/66
f 65/69/67 47/70/68 66/60/58
f 64/68/66 46/71/69 65/69/67
f 48/61/59 54/40/40 49/42/42
f 43/62/60 49/42/42 50/44/44
f 44/64/62 50/44/44 51/46/46
f 45/66/64 51/46/46 46/71/69
f 47/70/68 53/49/49 48/61/59
f 46/71/69 52/51/51 47/70/68
f 30/41/41 60/16/16 25/43/43
f 25/43/43 55/18/18 26/45/45
f 26/45/45 56/20/20 27/47/47
f 27/47/47 57/22/22 58/27/27
f 29/50/50 59/25/25 60/16/16
f 28/48/48 58/27/27 59/25/25
f 7/72/70 70/73/71 71/14/14
f 9/74/72 69/75/73 70/73/71
f 11/76/74 68/77/75 9/74/72
f 35/57/57 3/15/15 67/78/76
f 36/56/56 67/78/76 31/52/52
f 34/55/55 5/13/13 3/15/15
f 33/54/54 7/72/70 34/55/55
f 32/53/53 9/74/72 33/54/54
f 31/52/52 11/76/74 9/74/72
f 1/79/77 66/60/58 61/63/61
f 1/79/77 61/63/61 62/65/63
f 1/79/77 62/65/63 63/67/65
f 1/79/77 63/67/65 64/68/66
f 1/79/77 65/69/67 66/60/58
f 1/79/77 64/68/66 65/69/67
f 67/78/76 73/80/78 68/77/75
f 3/15/15 72/81/79 67/78/76
f 68/77/75 74/1/1 75/4/4
f 69/75/73 75/4/4 76/6/6
f 70/73/71 76/6/6 71/14/14
f 71/14/14 77/7/7 78/12/12
f 73/80/78 79/11/11 68/77/75
f 72/81/79 78/12/12 73/80/78
f 75/4/4 74/1/1 4/3/3
f 76/6/6 75/4/4 6/5/5
f 6/5/5 8/8/8 77/7/7
f 78/12/12 77/7/7 10/9/9
f 8/8/8 6/5/5 10/9/9
f 6/5/5 4/3/3 10/9/9
f 4/3/3 12/10/10 10/9/9
f 12/10/10 2/2/2 74/1/1
f 79/11/11 78/12/12 12/10/10
f 71/14/14 72/81/79 3/15/15
f 13/17/17 14/19/19 55/18/18
f 14/19/19 15/21/21 56/20/20
f 15/21/21 16/23/23 57/22/22
f 58/27/27 57/22/22 17/24/24
f 60/16/16 59/25/25 13/17/17
f 59/25/25 58/27/27 18/26/26
f 38/31/31 37/28/28 20/30/30
f 39/33/33 38/31/31 21/32/32
f 40/35/35 39/33/33 22/34/34
f 22/34/34 23/39/39 41/36/36
f 24/38/38 19/29/29 37/28/28
f 23/39/39 24/38/38 42/37/37
f 30/41/41 25/43/43 49/42/42
f 25/43/43 26/45/45 50/44/44
f 26/45/45 27/47/47 51/46/46
f 52/51/51 51/46/46 28/48/48
f 29/50/50 30/41/41 54/40/40
f 28/48/48 29/50/50 53/49/49
f 20/30/30 19/29/29 32/53/53
f 21/32/32 20/30/30 33/54/54
f 22/34/34 21/32/32 34/55/55
f 34/55/55 35/57/57 23/39/39
f 36/56/56 31/52/52 19/29/29
f 35/57/57 36/56/56 24/38/38
f 37/28/28 38/31/31 14/19/19
f 38/31/31 39/33/33 15/58/21
f 39/33/33 40/35/35 16/59/23
f 17/82/24 16/59/23 41/36/36
f 13/17/17 18/26/26 37/28/28
f 18/26/26 17/24/24 42/37/37
f 61/63/61 66/60/58 43/62/60
f 62/65/63 61/63/61 44/64/62
f 63/67/65 62/65/63 45/66/64
f 45/66/64 46/71/69 64/68/66
f 47/70/68 48/61/59 66/60/58
f 46/71/69 47/70/68 65/69/67
f 43/62/60 48/61/59 49/42/42
f 44/64/62 43/62/60 50/44/44
f 45/66/64 44/64/62 51/46/46
f 51/46/46 52/51/51 46/71/69
f 53/49/49 54/40/40 48/61/59
f 52/51/51 53/49/49 47/70/68
f 60/16/16 55/18/18 25/43/43
f 55/18/18 56/20/20 26/45/45
f 56/20/20 57/22/22 27/47/47
f 28/48/48 27/47/47 58/27/27
f 30/41/41 29/50/50 60/16/16
f 29/50/50 28/48/48 59/25/25
f 5/13/13 7/72/70 71/14/14
f 7/72/70 9/74/72 70/73/71
f 68/77/75 69/75/73 9/74/72
f 36/56/56 35/57/57 67/78/76
f 67/78/76 11/76/74 31/52/52
f 35/57/57 34/55/55 3/15/15
f 7/72/70 5/13/13 34/55/55
f 9/74/72 7/72/70 33/54/54
f 32/53/53 31/52/52 9/74/72
f 11/76/74 67/78/76 68/77/75
f 72/81/79 73/80/78 67/78/76
f 69/75/73 68/77/75 75/4/4
f 70/73/71 69/75/73 76/6/6
f 76/6/6 77/7/7 71/14/14
f 72/81/79 71/14/14 78/12/12
f 79/11/11 74/1/1 68/77/75
f 78/12/12 79/11/11 73/80/78
