# Blender v2.69 (sub 0) OBJ File: 'snake.blend'
# www.blender.org
mtllib snake_000017.mtl
o Cylinder
v -1.973950 -2.464501 0.285614
v -2.317655 -3.322295 0.244170
v -3.092943 -2.204835 0.383760
v -2.351200 -3.340682 0.199676
v -3.176437 -2.217020 0.285619
v -2.418291 -3.377455 0.199676
v -3.092943 -2.204835 0.187478
v -2.451837 -3.395842 0.244170
v -2.925954 -2.180465 0.187478
v -2.418291 -3.377455 0.288663
v -2.842461 -2.168279 0.285619
v -2.351200 -3.340682 0.288663
v -1.187526 0.669964 0.285617
v -1.196326 0.770463 0.110881
v -1.213925 0.971461 0.110881
v -1.222725 1.071960 0.285617
v -1.213925 0.971461 0.460352
v -1.196326 0.770463 0.460352
v -2.588606 -0.611223 0.285618
v -2.690514 -0.582181 0.102078
v -2.894334 -0.524096 0.102078
v -2.996243 -0.495054 0.285618
v -2.894336 -0.524096 0.469158
v -2.690515 -0.582180 0.469158
v 0.451857 -0.075264 0.137989
v 0.618068 -0.113109 0.137989
v 0.701173 -0.132032 0.285615
v 0.618068 -0.113109 0.433242
v 0.451858 -0.075264 0.433242
v 0.368752 -0.056341 0.285615
v -2.880108 -1.611340 0.285619
v -2.984964 -1.626643 0.162368
v -3.194676 -1.657249 0.162368
v -3.299532 -1.672552 0.285619
v -3.194676 -1.657249 0.408870
v -2.984964 -1.626643 0.408870
v -2.003365 0.183887 0.285618
v -2.076105 0.260944 0.102077
v -2.221586 0.415058 0.102077
v -2.294326 0.492115 0.285618
v -2.221586 0.415058 0.469158
v -2.076104 0.260944 0.469158
v -0.356045 -1.291302 0.177337
v -0.318946 -1.410699 0.177337
v -0.300396 -1.470398 0.285615
v -0.318945 -1.410699 0.393892
v -0.356045 -1.291302 0.393892
v -0.374595 -1.231604 0.285615
v 0.274257 -0.906413 0.157663
v 0.418316 -0.939214 0.157663
v 0.490346 -0.955616 0.285615
v 0.418316 -0.939214 0.413567
v 0.274257 -0.906413 0.413567
v 0.202228 -0.890012 0.285615
v -0.197899 0.697562 0.120033
v -0.064108 0.834152 0.120033
v 0.002788 0.902447 0.285616
v -0.064107 0.834152 0.451199
v -0.197899 0.697561 0.451199
v -0.264796 0.629266 0.285616
v -1.189442 -1.336807 0.197011
v -1.193868 -1.439021 0.197011
v -1.196081 -1.490128 0.285614
v -1.193868 -1.439021 0.374217
v -1.189443 -1.336807 0.374217
v -1.187230 -1.285700 0.285614
v -2.925956 -2.180465 0.383760
v -2.335183 -2.800897 0.285620
v -2.471870 -2.875817 0.162369
v -2.747581 -3.025854 0.162369
v -2.885370 -3.100277 0.285620
v -2.749396 -3.026008 0.408870
v -2.471871 -2.875817 0.408870
v -2.254370 -3.052167 0.269355
v -2.369175 -3.115093 0.177370
v -2.598787 -3.240945 0.177370
v -2.713592 -3.303871 0.269355
v -2.598786 -3.240945 0.361341
v -2.369174 -3.115093 0.361341
vt -0.094606 0.524100
vt -0.114034 0.518866
vt -0.117787 0.509958
vt -0.108030 0.504842
vt -0.135083 0.504288
vt -0.125381 0.509803
vt -0.148701 0.522994
vt -0.129224 0.518555
vt -0.125473 0.527467
vt -0.108211 0.542857
vt -0.117875 0.527623
vt -0.135290 0.542303
vt -0.144050 0.526459
vt -0.155619 0.526190
vt -0.133006 0.552731
vt 1.413960 0.475237
vt 0.690250 0.510568
vt 1.456651 0.321985
vt 0.667339 -0.571213
vt 1.545576 0.320169
vt 2.337554 -0.592327
vt 1.589840 0.471657
vt 2.313818 0.489432
vt 2.290906 1.571213
vt 1.458555 0.626138
vt 0.713987 1.592328
vt 1.546795 0.624336
vt -0.024402 0.528444
vt -0.072603 0.527822
vt -0.096701 0.442488
vt -0.071952 0.359660
vt -0.145772 0.441485
vt -0.169667 0.357665
vt -0.170736 0.525819
vt -0.218930 0.524489
vt -0.171814 0.693972
vt -0.073261 0.695985
vt -0.097465 0.612340
vt -0.146748 0.611332
vt 1.477086 0.473596
vt 1.462390 0.473944
vt 1.489250 0.430365
vt 1.481729 0.405094
vt 1.514102 0.429857
vt 1.521363 0.404284
vt 1.526708 0.472582
vt 1.541404 0.472330
vt 1.514515 0.515768
vt 1.489717 0.516275
vt 1.482498 0.541870
vt 1.521995 0.541063
vt -0.088905 0.527557
vt -0.105092 0.489152
vt -0.137859 0.488482
vt -0.154436 0.526218
vt -0.105451 0.565375
vt -0.138281 0.564704
vt -0.909581 -0.592327
vt -0.933317 0.489432
vt 1.490824 0.473291
vt 1.485438 0.473408
vt 1.493514 0.444735
vt 1.496258 0.454001
vt 1.509988 0.444398
vt 1.507338 0.453775
vt 1.518354 0.472735
vt 1.512969 0.472838
vt 1.507529 0.492119
vt 1.496460 0.492345
vt 1.493817 0.501725
vt 1.510267 0.501388
vt -0.132725 0.500682
vt -0.138515 0.499727
vt -0.110350 0.501139
vt -0.104552 0.500422
vt -0.099291 0.527374
vt -0.087722 0.527577
vt -0.110602 0.553190
vt 1.501896 0.473058
vt -0.104804 0.554127
vt -0.138812 0.553432
vt -0.956228 1.571213
vn 0.993408 0.113956 -0.011597
vn 0.876186 -0.480697 -0.034394
vn 0.519639 -0.537706 -0.663930
vn 0.362957 0.015137 -0.931669
vn -0.206549 -0.298441 -0.931791
vn 0.173711 -0.727317 -0.663930
vn -0.626698 -0.779138 -0.011597
vn -0.066103 -0.997192 -0.034394
vn 0.219214 -0.785363 0.578875
vn 0.418714 -0.121433 0.899930
vn 0.544115 -0.607318 0.578875
vn -0.121281 -0.418928 0.899869
vn -0.964324 -0.264718 0.000000
vn -0.856258 -0.516404 0.010773
vn -0.423048 -0.124760 0.897458
vn -0.391369 -0.920194 0.000000
vn 0.249641 -0.968322 0.000000
vn -0.177740 -0.357219 -0.916929
vn 0.099796 -0.411603 -0.905850
vn 0.294504 0.514786 -0.805109
vn -0.106082 0.559404 -0.822047
vn 0.544176 0.838954 0.000000
vn -0.172155 0.985046 0.000000
vn -0.106082 0.559404 0.822047
vn -0.177740 -0.357219 0.916929
vn 0.099796 -0.411603 0.905850
vn 0.294504 0.514786 0.805109
vn 0.669881 -0.742424 0.000000
vn 0.886715 -0.462264 0.000000
vn 0.402173 -0.217505 -0.889340
vn 0.302225 -0.328959 -0.894650
vn -0.489029 0.219062 -0.844295
vn -0.361980 0.413770 -0.835292
vn -0.909757 0.415113 0.000000
vn -0.664205 0.747520 0.000000
vn -0.361980 0.413770 0.835292
vn 0.302225 -0.328959 0.894650
vn 0.402173 -0.217505 0.889340
vn -0.489029 0.219062 0.844295
vn -0.779229 0.626728 0.000000
vn -0.935759 -0.352580 0.000000
vn -0.341868 0.190954 -0.920103
vn -0.380261 -0.103549 -0.919034
vn 0.461440 -0.389264 -0.797174
vn 0.589923 0.143071 -0.794641
vn 0.831202 -0.555925 0.000000
vn 0.990570 0.136876 0.000000
vn 0.461440 -0.389264 0.797174
vn -0.341868 0.190954 0.920103
vn -0.380261 -0.103549 0.919034
vn 0.589923 0.143071 0.794641
vn 0.991760 -0.128025 0.000000
vn 0.386242 -0.071078 -0.919645
vn -0.464705 -0.015076 -0.885311
vn -0.999908 -0.011383 0.000000
vn 0.386242 -0.071078 0.919645
vn -0.464705 -0.015076 0.885311
vn -0.444166 0.895932 0.000000
vn -0.309091 0.951018 0.000000
vn -0.151341 0.409497 -0.899655
vn -0.378124 0.513657 -0.770165
vn 0.155095 -0.538865 -0.827967
vn 0.088839 -0.365154 -0.926664
vn 0.294351 -0.955687 0.000000
vn 0.513382 -0.858150 0.000000
vn 0.088839 -0.365154 0.926664
vn -0.378124 0.513657 0.770165
vn -0.151341 0.409497 0.899655
vn 0.155095 -0.538865 0.827967
vn -0.423048 -0.124821 -0.897458
vn -0.294473 -0.176977 -0.939116
vn 0.340800 0.120579 -0.932340
vn 0.307321 0.149754 -0.939726
vn 0.918729 0.394818 0.000000
vn 0.898770 0.438185 0.012818
vn 0.340800 0.120579 0.932340
vn -0.589465 -0.807764 -0.000153
vn 0.329844 0.098300 0.938871
vn -0.266427 -0.225074 0.937193
usemtl scale
s 1
f 74/1/1 2/2/2 4/3/3
f 75/4/4 4/3/3 76/5/5
f 76/5/5 6/6/6 77/7/7
f 77/7/7 8/8/8 10/9/9
f 6/6/6 10/9/9 8/8/8
f 79/10/10 12/11/11 74/1/1
f 78/12/12 10/9/9 79/10/10
f 5/13/13 71/14/14 3/15/15
f 60/16/16 13/17/17 55/18/18
f 55/18/18 14/19/19 56/20/20
f 56/20/20 15/21/21 57/22/22
f 57/22/22 16/23/23 17/24/24
f 59/25/25 18/26/26 13/17/17
f 58/27/27 17/24/24 18/26/26
f 37/28/28 19/29/29 20/30/30
f 38/31/31 20/30/30 21/32/32
f 39/33/33 21/32/32 22/34/34
f 40/35/35 22/34/34 41/36/36
f 42/37/37 24/38/38 37/28/28
f 41/36/36 23/39/39 42/37/37
f 54/40/40 30/41/41 49/42/42
f 49/42/42 25/43/43 50/44/44
f 50/44/44 26/45/45 51/46/46
f 51/46/46 27/47/47 52/48/48
f 53/49/49 29/50/50 54/40/40
f 52/48/48 28/51/51 53/49/49
f 19/29/29 31/52/52 32/53/53
f 20/30/30 32/53/53 33/54/54
f 21/32/32 33/54/54 34/55/55
f 22/34/34 34/55/55 23/39/39
f 24/38/38 36/56/56 19/29/29
f 23/39/39 35/57/57 24/38/38
f 13/17/17 37/28/28 14/19/19
f 14/19/19 38/31/31 15/58/21
f 15/58/21 39/33/33 16/59/23
f 16/59/23 40/35/35 41/36/36
f 18/26/26 42/37/37 37/28/28
f 17/24/24 41/36/36 42/37/37
f 66/60/58 48/61/59 43/62/60
f 61/63/61 43/62/60 44/64/62
f 62/65/63 44/64/62 45/66/64
f 63/67/65 45/66/64 64/68/66
f 65/69/67 47/70/68 66/60/58
f 64/68/66 46/71/69 65/69/67
f 48/61/59 54/40/40 49/42/42
f 43/62/60 49/42/42 50/44/44
f 44/64/62 50/44/44 51/46/46
f 45/66/64 51/46/46 46/71/69
f 47/70/68 53/49/49 48/61/59
f 46/71/69 52/48/48 47/70/68
f 30/41/41 60/16/16 25/43/43
f 25/43/43 55/18/18 26/45/45
f 26/45/45 56/20/20 27/47/47
f 27/47/47 57/22/22 58/27/27
f 29/50/50 59/25/25 60/16/16
f 28/51/51 58/27/27 59/25/25
f 7/72/70 70/73/71 71/14/14
f 9/74/72 69/75/73 7/72/70
f 11/76/74 68/77/75 9/74/72
f 35/57/57 3/15/15 36/56/56
f 36/56/56 67/78/76 31/52/52
f 34/55/55 5/13/13 3/15/15
f 33/54/54 7/72/70 34/55/55
f 32/53/53 9/74/72 33/54/54
f 31/52/52 11/76/74 9/74/72
f 1/79/77 66/60/58 61/63/61
f 1/79/77 61/63/61 62/65/63
f 1/79/77 62/65/63 63/67/65
f 1/79/77 63/67/65 64/68/66
f 1/79/77 65/69/67 66/60/58
f 1/79/77 64/68/66 65/69/67
f 67/78/76 73/80/78 68/77/75
f 3/15/15 72/81/79 73/80/78
f 68/77/75 74/1/1 75/4/4
f 69/75/73 75/4/4 70/73/71
f 70/73/71 76/5/5 71/14/14
f 71/14/14 77/7/7 78/12/12
f 73/80/78 79/10/10 68/77/75
f 72/81/79 78/12/12 79/10/10
f 75/4/4 74/1/1 4/3/3
f 4/3/3 6/6/6 76/5/5
f 6/6/6 8/8/8 77/7/7
f 78/12/12 77/7/7 10/9/9
f 6/6/6 12/11/11 10/9/9
f 4/3/3 2/2/2 6/6/6
f 2/2/2 12/11/11 6/6/6
f 12/11/11 2/2/2 74/1/1
f 10/9/9 12/11/11 79/10/10
f 71/14/14 72/81/79 3/15/15
f 13/17/17 14/19/19 55/18/18
f 14/19/19 15/21/21 56/20/20
f 15/21/21 16/23/23 57/22/22
f 58/27/27 57/22/22 17/24/24
f 60/16/16 59/25/25 13/17/17
f 59/25/25 58/27/27 18/26/26
f 38/31/31 37/28/28 20/30/30
f 39/33/33 38/31/31 21/32/32
f 40/35/35 39/33/33 22/34/34
f 22/34/34 23/39/39 41/36/36
f 24/38/38 19/29/29 37/28/28
f 23/39/39 24/38/38 42/37/37
f 30/41/41 25/43/43 49/42/42
f 25/43/43 26/45/45 50/44/44
f 26/45/45 27/47/47 51/46/46
f 27/47/47 28/51/51 52/48/48
f 29/50/50 30/41/41 54/40/40
f 28/51/51 29/50/50 53/49/49
f 20/30/30 19/29/29 32/53/53
f 21/32/32 20/30/30 33/54/54
f 22/34/34 21/32/32 34/55/55
f 34/55/55 35/57/57 23/39/39
f 36/56/56 31/52/52 19/29/29
f 35/57/57 36/56/56 24/38/38
f 37/28/28 38/31/31 14/19/19
f 38/31/31 39/33/33 15/58/21
f 39/33/33 40/35/35 16/59/23
f 17/82/24 16/59/23 41/36/36
f 13/17/17 18/26/26 37/28/28
f 18/26/26 17/24/24 42/37/37
f 61/63/61 66/60/58 43/62/60
f 62/65/63 61/63/61 44/64/62
f 63/67/65 62/65/63 45/66/64
f 45/66/64 46/71/69 64/68/66
f 47/70/68 48/61/59 66/60/58
f 46/71/69 47/70/68 65/69/67
f 43/62/60 48/61/59 49/42/42
f 44/64/62 43/62/60 50/44/44
f 45/66/64 44/64/62 51/46/46
f 51/46/46 52/48/48 46/71/69
f 53/49/49 54/40/40 48/61/59
f 52/48/48 53/49/49 47/70/68
f 60/16/16 55/18/18 25/43/43
f 55/18/18 56/20/20 26/45/45
f 56/20/20 57/22/22 27/47/47
f 28/51/51 27/47/47 58/27/27
f 30/41/41 29/50/50 60/16/16
f 29/50/50 28/51/51 59/25/25
f 5/13/13 7/72/70 71/14/14
f 69/75/73 70/73/71 7/72/70
f 68/77/75 69/75/73 9/74/72
f 3/15/15 67/78/76 36/56/56
f 67/78/76 11/76/74 31/52/52
f 35/57/57 34/55/55 3/15/15
f 7/72/70 5/13/13 34/55/55
f 9/74/72 7/72/70 33/54/54
f 32/53/53 31/52/52 9/74/72
f 11/76/74 67/78/76 68/77/75
f 67/78/76 3/15/15 73/80/78
f 69/75/73 68/77/75 75/4/4
f 75/4/4 76/5/5 70/73/71
f 76/5/5 77/7/7 71/14/14
f 72/81/79 71/14/14 78/12/12
f 79/10/10 74/1/1 68/77/75
f 73/80/78 72/81/79 79/10/10
