# Blender v2.69 (sub 0) OBJ File: 'snake.blend'
# www.blender.org
mtllib snake_000003.mtl
o Cylinder
v -2.288860 -0.930178 0.285614
v -3.145063 -1.021452 0.244170
v -2.226305 -0.206820 0.383760
v -3.166797 -0.989972 0.199676
v -2.308200 -0.186494 0.285619
v -3.210265 -0.927011 0.199676
v -2.226305 -0.206820 0.187478
v -3.231997 -0.895531 0.244170
v -2.062518 -0.247472 0.187478
v -3.210265 -0.927011 0.288663
v -1.980624 -0.267798 0.285619
v -3.166797 -0.989972 0.288663
v 0.473183 0.737148 0.285617
v 0.552450 0.799551 0.110881
v 0.710985 0.924357 0.110881
v 0.790253 0.986761 0.285617
v 0.710986 0.924357 0.460352
v 0.552450 0.799551 0.460352
v -1.152987 1.073773 0.285618
v -1.236034 1.139593 0.102078
v -1.402127 1.271233 0.102078
v -1.485173 1.337053 0.285618
v -1.402127 1.271234 0.469158
v -1.236034 1.139594 0.469158
v 1.086482 -1.096426 0.137989
v 1.180359 -1.238712 0.137989
v 1.227297 -1.309855 0.285615
v 1.180359 -1.238712 0.433242
v 1.086482 -1.096426 0.433242
v 1.039544 -1.025282 0.285615
v -1.804655 0.261951 0.285619
v -1.907502 0.287477 0.162368
v -2.113195 0.338529 0.162368
v -2.216041 0.364056 0.285619
v -2.113195 0.338529 0.408870
v -1.907501 0.287477 0.408870
v -0.380327 1.153542 0.285618
v -0.355692 1.256606 0.102077
v -0.306421 1.462733 0.102077
v -0.281786 1.565797 0.285618
v -0.306421 1.462733 0.469158
v -0.355691 1.256606 0.469158
v -0.350676 -1.440695 0.177337
v -0.401528 -1.554914 0.177337
v -0.426954 -1.612024 0.285615
v -0.401528 -1.554914 0.393892
v -0.350676 -1.440695 0.393892
v -0.325250 -1.383585 0.285614
v 0.383382 -1.573919 0.157663
v 0.464747 -1.697243 0.157663
v 0.505430 -1.758904 0.285615
v 0.464747 -1.697242 0.413567
v 0.383382 -1.573919 0.413567
v 0.342699 -1.512258 0.285615
v 1.104104 -0.094208 0.120033
v 1.294666 -0.078605 0.120033
v 1.389946 -0.070804 0.285616
v 1.294666 -0.078606 0.451199
v 1.104104 -0.094208 0.451199
v 1.008823 -0.102009 0.285616
v -0.917496 -0.849498 0.197011
v -1.000566 -0.909218 0.197011
v -1.042101 -0.939079 0.285614
v -1.000566 -0.909218 0.374217
v -0.917496 -0.849498 0.374217
v -0.875961 -0.819637 0.285614
v -2.062518 -0.247472 0.383760
v -2.628221 -0.950480 0.285620
v -2.716779 -0.822208 0.162369
v -2.890785 -0.569160 0.162369
v -2.978819 -0.443243 0.285620
v -2.888367 -0.571876 0.408870
v -2.716779 -0.822208 0.408870
v -2.869864 -1.056666 0.269355
v -2.944247 -0.948929 0.177370
v -3.093009 -0.733454 0.177370
v -3.167391 -0.625716 0.269355
v -3.093009 -0.733454 0.361341
v -2.944247 -0.948929 0.361341
vt -0.094606 0.524100
vt -0.114034 0.518866
vt -0.117787 0.509958
vt -0.108030 0.504842
vt -0.135083 0.504288
vt -0.125381 0.509803
vt -0.148701 0.522994
vt -0.129224 0.518555
vt -0.125473 0.527467
vt -0.117875 0.527623
vt -0.108211 0.542857
vt -0.135290 0.542303
vt -0.144050 0.526459
vt -0.155619 0.526190
vt -0.133006 0.552731
vt 1.413960 0.475237
vt 0.690250 0.510568
vt 1.456651 0.321985
vt 0.667339 -0.571213
vt 1.545576 0.320169
vt 2.337554 -0.592327
vt 1.589840 0.471657
vt 2.313818 0.489432
vt 2.290906 1.571213
vt 1.458555 0.626138
vt 0.713987 1.592328
vt 1.546795 0.624336
vt -0.024402 0.528444
vt -0.072603 0.527822
vt -0.096701 0.442488
vt -0.071952 0.359660
vt -0.145772 0.441485
vt -0.169667 0.357665
vt -0.170736 0.525819
vt -0.218930 0.524489
vt -0.171814 0.693972
vt -0.073261 0.695985
vt -0.097465 0.612340
vt -0.146748 0.611332
vt 1.477086 0.473596
vt 1.462390 0.473944
vt 1.489250 0.430365
vt 1.481729 0.405094
vt 1.514102 0.429857
vt 1.521363 0.404284
vt 1.526708 0.472582
vt 1.541404 0.472330
vt 1.514515 0.515768
vt 1.489717 0.516275
vt 1.482498 0.541870
vt 1.521995 0.541063
vt -0.088905 0.527557
vt -0.105092 0.489152
vt -0.137859 0.488482
vt -0.154436 0.526218
vt -0.105451 0.565375
vt -0.138281 0.564704
vt -0.909581 -0.592327
vt -0.933317 0.489432
vt 1.490824 0.473291
vt 1.485438 0.473408
vt 1.493514 0.444735
vt 1.496258 0.454001
vt 1.509988 0.444398
vt 1.507338 0.453775
vt 1.518354 0.472735
vt 1.512969 0.472838
vt 1.507529 0.492119
vt 1.496460 0.492345
vt 1.493817 0.501725
vt 1.510267 0.501388
vt -0.132725 0.500682
vt -0.138515 0.499727
vt -0.110350 0.501139
vt -0.104552 0.500422
vt -0.099291 0.527374
vt -0.087722 0.527577
vt -0.110602 0.553190
vt 1.501896 0.473058
vt -0.104804 0.554127
vt -0.138812 0.553432
vt -0.956228 1.571213
vn 0.215369 -0.976440 -0.011567
vn -0.388195 -0.920927 -0.034394
vn -0.481491 -0.572100 -0.663930
vn 0.052309 -0.359508 -0.931639
vn -0.316263 0.180334 -0.931333
vn -0.705618 -0.247475 -0.663930
vn -0.829371 0.558550 -0.011109
vn -0.998718 -0.036592 -0.034394
vn -0.758721 -0.298715 0.578845
vn -0.548235 -0.603595 0.578875
vn -0.077822 -0.429151 0.899838
vn -0.426984 0.084353 0.900296
vn -0.689901 0.723869 0.000000
vn -0.585070 0.810755 0.017518
vn -0.257088 0.187567 0.947996
vn -0.954436 -0.298318 0.000000
vn -0.656148 -0.754601 0.000000
vn -0.411237 -0.120762 -0.903470
vn -0.287790 -0.320383 -0.902493
vn 0.558611 0.114658 -0.821436
vn 0.390027 0.406049 -0.826411
vn 0.982818 0.184545 0.000000
vn 0.705679 0.708518 0.000000
vn 0.390027 0.406049 0.826411
vn -0.411237 -0.120762 0.903470
vn -0.287790 -0.320383 0.902493
vn 0.558611 0.114658 0.821436
vn -0.158055 -0.987426 0.000000
vn 0.417127 -0.908811 0.000000
vn 0.191809 -0.359203 -0.913327
vn -0.068667 -0.416517 -0.906522
vn -0.290750 0.506638 -0.811640
vn 0.083682 0.566363 -0.819880
vn -0.552568 0.833430 0.000000
vn 0.160436 0.987030 0.000000
vn 0.083682 0.566363 0.819880
vn -0.068667 -0.416517 0.906522
vn 0.191809 -0.359203 0.913327
vn -0.290750 0.506638 0.811640
vn -0.154302 0.988006 0.000000
vn -0.932829 0.360271 0.000000
vn -0.121128 0.378033 -0.917814
vn -0.345561 0.177465 -0.921445
vn 0.075411 -0.594195 -0.800745
vn 0.538652 -0.292581 -0.790063
vn 0.228431 -0.973540 0.000000
vn 0.819819 -0.572588 0.000000
vn 0.075411 -0.594195 0.800745
vn -0.121128 0.378033 0.917814
vn -0.345561 0.177465 0.921445
vn 0.538652 -0.292581 0.790063
vn 0.868099 -0.496323 0.000000
vn 0.329783 -0.212561 -0.919797
vn -0.435835 0.163244 -0.885067
vn -0.929167 0.369610 0.000000
vn 0.329783 -0.212561 0.919797
vn -0.435835 0.163244 0.885067
vn 0.409772 0.912168 0.000000
vn 0.470351 0.882443 0.000000
vn 0.173711 0.379040 -0.908902
vn 0.157384 0.617054 -0.770989
vn -0.285714 -0.497452 -0.819056
vn -0.227515 -0.309885 -0.923124
vn -0.469069 -0.883145 0.000000
vn -0.334513 -0.942381 0.000000
vn -0.227515 -0.309885 0.923124
vn 0.157384 0.617054 0.770989
vn 0.173711 0.379040 0.908902
vn -0.285714 -0.497452 0.819056
vn -0.256966 0.187719 -0.947996
vn -0.202460 0.280770 -0.938139
vn 0.405133 -0.291482 -0.866512
vn 0.198737 -0.287942 -0.936766
vn 0.857204 -0.514939 0.000000
vn 0.561083 -0.827631 0.013215
vn 0.405133 -0.291482 0.866512
vn -0.999329 -0.036012 0.000092
vn 0.150243 -0.316080 0.936735
vn -0.240791 0.240364 0.940306
usemtl scale
s 1
f 74/1/1 2/2/2 4/3/3
f 75/4/4 4/3/3 76/5/5
f 76/5/5 6/6/6 77/7/7
f 77/7/7 8/8/8 10/9/9
f 4/3/3 2/2/2 12/10/10
f 79/11/11 12/10/10 74/1/1
f 78/12/12 10/9/9 12/10/10
f 5/13/13 71/14/14 3/15/15
f 60/16/16 13/17/17 55/18/18
f 55/18/18 14/19/19 56/20/20
f 56/20/20 15/21/21 57/22/22
f 57/22/22 16/23/23 17/24/24
f 59/25/25 18/26/26 13/17/17
f 58/27/27 17/24/24 18/26/26
f 37/28/28 19/29/29 20/30/30
f 38/31/31 20/30/30 21/32/32
f 39/33/33 21/32/32 22/34/34
f 40/35/35 22/34/34 41/36/36
f 42/37/37 24/38/38 37/28/28
f 41/36/36 23/39/39 42/37/37
f 54/40/40 30/41/41 49/42/42
f 49/42/42 25/43/43 50/44/44
f 50/44/44 26/45/45 51/46/46
f 51/46/46 27/47/47 52/48/48
f 53/49/49 29/50/50 54/40/40
f 52/48/48 28/51/51 53/49/49
f 19/29/29 31/52/52 32/53/53
f 20/30/30 32/53/53 33/54/54
f 21/32/32 33/54/54 34/55/55
f 22/34/34 34/55/55 23/39/39
f 24/38/38 36/56/56 19/29/29
f 23/39/39 35/57/57 24/38/38
f 13/17/17 37/28/28 14/19/19
f 14/19/19 38/31/31 15/58/21
f 15/58/21 39/33/33 16/59/23
f 16/59/23 40/35/35 41/36/36
f 18/26/26 42/37/37 37/28/28
f 17/24/24 41/36/36 42/37/37
f 66/60/58 48/61/59 43/62/60
f 61/63/61 43/62/60 44/64/62
f 62/65/63 44/64/62 45/66/64
f 63/67/65 45/66/64 64/68/66
f 65/69/67 47/70/68 66/60/58
f 64/68/66 46/71/69 65/69/67
f 48/61/59 54/40/40 49/42/42
f 43/62/60 49/42/42 50/44/44
f 44/64/62 50/44/44 51/46/46
f 45/66/64 51/46/46 46/71/69
f 47/70/68 53/49/49 48/61/59
f 46/71/69 52/48/48 47/70/68
f 30/41/41 60/16/16 25/43/43
f 25/43/43 55/18/18 26/45/45
f 26/45/45 56/20/20 27/47/47
f 27/47/47 57/22/22 58/27/27
f 29/50/50 59/25/25 60/16/16
f 28/51/51 58/27/27 59/25/25
f 7/72/70 70/73/71 71/14/14
f 9/74/72 69/75/73 70/73/71
f 11/76/74 68/77/75 69/75/73
f 35/57/57 3/15/15 36/56/56
f 36/56/56 67/78/76 31/52/52
f 34/55/55 5/13/13 3/15/15
f 33/54/54 7/72/70 34/55/55
f 32/53/53 9/74/72 33/54/54
f 31/52/52 11/76/74 9/74/72
f 1/79/77 66/60/58 61/63/61
f 1/79/77 61/63/61 62/65/63
f 1/79/77 62/65/63 63/67/65
f 1/79/77 63/67/65 64/68/66
f 1/79/77 65/69/67 66/60/58
f 1/79/77 64/68/66 65/69/67
f 67/78/76 73/80/78 11/76/74
f 3/15/15 72/81/79 67/78/76
f 68/77/75 74/1/1 75/4/4
f 69/75/73 75/4/4 76/5/5
f 70/73/71 76/5/5 71/14/14
f 71/14/14 77/7/7 78/12/12
f 73/80/78 79/11/11 68/77/75
f 72/81/79 78/12/12 73/80/78
f 75/4/4 74/1/1 4/3/3
f 4/3/3 6/6/6 76/5/5
f 6/6/6 8/8/8 77/7/7
f 78/12/12 77/7/7 10/9/9
f 6/6/6 4/3/3 12/10/10
f 8/8/8 6/6/6 12/10/10
f 10/9/9 8/8/8 12/10/10
f 12/10/10 2/2/2 74/1/1
f 79/11/11 78/12/12 12/10/10
f 71/14/14 72/81/79 3/15/15
f 13/17/17 14/19/19 55/18/18
f 14/19/19 15/21/21 56/20/20
f 15/21/21 16/23/23 57/22/22
f 58/27/27 57/22/22 17/24/24
f 60/16/16 59/25/25 13/17/17
f 59/25/25 58/27/27 18/26/26
f 38/31/31 37/28/28 20/30/30
f 39/33/33 38/31/31 21/32/32
f 40/35/35 39/33/33 22/34/34
f 22/34/34 23/39/39 41/36/36
f 24/38/38 19/29/29 37/28/28
f 23/39/39 24/38/38 42/37/37
f 30/41/41 25/43/43 49/42/42
f 25/43/43 26/45/45 50/44/44
f 26/45/45 27/47/47 51/46/46
f 27/47/47 28/51/51 52/48/48
f 29/50/50 30/41/41 54/40/40
f 28/51/51 29/50/50 53/49/49
f 20/30/30 19/29/29 32/53/53
f 21/32/32 20/30/30 33/54/54
f 22/34/34 21/32/32 34/55/55
f 34/55/55 35/57/57 23/39/39
f 36/56/56 31/52/52 19/29/29
f 35/57/57 36/56/56 24/38/38
f 37/28/28 38/31/31 14/19/19
f 38/31/31 39/33/33 15/58/21
f 39/33/33 40/35/35 16/59/23
f 17/82/24 16/59/23 41/36/36
f 13/17/17 18/26/26 37/28/28
f 18/26/26 17/24/24 42/37/37
f 61/63/61 66/60/58 43/62/60
f 62/65/63 61/63/61 44/64/62
f 63/67/65 62/65/63 45/66/64
f 45/66/64 46/71/69 64/68/66
f 47/70/68 48/61/59 66/60/58
f 46/71/69 47/70/68 65/69/67
f 43/62/60 48/61/59 49/42/42
f 44/64/62 43/62/60 50/44/44
f 45/66/64 44/64/62 51/46/46
f 51/46/46 52/48/48 46/71/69
f 53/49/49 54/40/40 48/61/59
f 52/48/48 53/49/49 47/70/68
f 60/16/16 55/18/18 25/43/43
f 55/18/18 56/20/20 26/45/45
f 56/20/20 57/22/22 27/47/47
f 28/51/51 27/47/47 58/27/27
f 30/41/41 29/50/50 60/16/16
f 29/50/50 28/51/51 59/25/25
f 5/13/13 7/72/70 71/14/14
f 7/72/70 9/74/72 70/73/71
f 9/74/72 11/76/74 69/75/73
f 3/15/15 67/78/76 36/56/56
f 67/78/76 11/76/74 31/52/52
f 35/57/57 34/55/55 3/15/15
f 7/72/70 5/13/13 34/55/55
f 9/74/72 7/72/70 33/54/54
f 32/53/53 31/52/52 9/74/72
f 73/80/78 68/77/75 11/76/74
f 72/81/79 73/80/78 67/78/76
f 69/75/73 68/77/75 75/4/4
f 70/73/71 69/75/73 76/5/5
f 76/5/5 77/7/7 71/14/14
f 72/81/79 71/14/14 78/12/12
f 79/11/11 74/1/1 68/77/75
f 78/12/12 79/11/11 73/80/78
