# Blender v2.69 (sub 0) OBJ File: 'snake.blend'
# www.blender.org
mtllib snake_000030.mtl
o Cylinder
v -1.343370 -2.954416 0.285608
v -1.655636 -3.929215 0.244160
v -3.058055 -3.973825 0.383753
v -1.656754 -3.967452 0.199667
v -3.127533 -4.021705 0.285612
v -1.658990 -4.043928 0.199666
v -3.058055 -3.973824 0.187471
v -1.660108 -4.082166 0.244160
v -2.919099 -3.878064 0.187471
v -1.658991 -4.043929 0.288653
v -2.849622 -3.830184 0.285613
v -1.656754 -3.967453 0.288654
v -2.809705 -0.369070 0.285624
v -2.879274 -0.296010 0.110889
v -3.018412 -0.149891 0.110890
v -3.087980 -0.076833 0.285626
v -3.018412 -0.149893 0.460361
v -2.879273 -0.296012 0.460360
v -3.209468 -2.323524 0.285618
v -3.315017 -2.332924 0.102078
v -3.526116 -2.351724 0.102079
v -3.631665 -2.361125 0.285619
v -3.526115 -2.351725 0.469159
v -3.315017 -2.332925 0.469159
v -1.025123 0.273740 0.137996
v -0.892430 0.380748 0.137996
v -0.826083 0.434251 0.285623
v -0.892429 0.380746 0.433250
v -1.025123 0.273739 0.433250
v -1.091470 0.220235 0.285623
v -3.129872 -3.347425 0.285615
v -3.217128 -3.407555 0.162364
v -3.391637 -3.527816 0.162364
v -3.478891 -3.587947 0.285614
v -3.391636 -3.527817 0.408865
v -3.217127 -3.407555 0.408865
v -3.144136 -1.257900 0.285622
v -3.249056 -1.243048 0.102082
v -3.458898 -1.213346 0.102082
v -3.563819 -1.198496 0.285623
v -3.458899 -1.213348 0.469163
v -3.249056 -1.243050 0.469162
v -0.523562 -1.131743 0.177338
v -0.403646 -1.167131 0.177338
v -0.343689 -1.184825 0.285615
v -0.403646 -1.167132 0.393892
v -0.523562 -1.131744 0.393893
v -0.583520 -1.114049 0.285616
v -0.482803 -0.380661 0.157667
v -0.367794 -0.287915 0.157667
v -0.310290 -0.241542 0.285619
v -0.367794 -0.287916 0.413571
v -0.482803 -0.380662 0.413571
v -0.540307 -0.427035 0.285619
v -2.044121 0.308284 0.120042
v -2.055318 0.499156 0.120043
v -2.060916 0.594591 0.285627
v -2.055317 0.499154 0.451210
v -2.044120 0.308283 0.451209
v -2.038523 0.212848 0.285625
v -1.149952 -1.594365 0.197011
v -1.107928 -1.687645 0.197011
v -1.086916 -1.734286 0.285613
v -1.107928 -1.687646 0.374216
v -1.149952 -1.594366 0.374217
v -1.170965 -1.547725 0.285614
v -2.919100 -3.878065 0.383753
v -2.114209 -3.680468 0.285612
v -2.118764 -3.836275 0.162361
v -2.131894 -4.152315 0.162359
v -2.139370 -4.309109 0.285610
v -2.135015 -4.155756 0.408861
v -2.118764 -3.836276 0.408862
v -1.856593 -3.737928 0.269347
v -1.860420 -3.868792 0.177361
v -1.868073 -4.130520 0.177360
v -1.871899 -4.261384 0.269345
v -1.868072 -4.130521 0.361332
v -1.860419 -3.868792 0.361333
vt -0.094606 0.524100
vt -0.114034 0.518866
vt -0.117787 0.509958
vt -0.108030 0.504842
vt -0.135083 0.504288
vt -0.125381 0.509803
vt -0.148701 0.522994
vt -0.129224 0.518555
vt -0.125473 0.527467
vt -0.117875 0.527623
vt -0.108211 0.542857
vt -0.135290 0.542303
vt -0.144050 0.526459
vt -0.155619 0.526190
vt -0.138812 0.553432
vt 1.413960 0.475237
vt 0.690250 0.510568
vt 1.456651 0.321985
vt 0.667339 -0.571213
vt 1.545576 0.320169
vt 2.337554 -0.592327
vt 1.589840 0.471657
vt 2.313818 0.489432
vt 2.290906 1.571213
vt 1.458555 0.626138
vt 0.713987 1.592328
vt 1.546795 0.624336
vt -0.024402 0.528444
vt -0.072603 0.527822
vt -0.096701 0.442488
vt -0.071952 0.359660
vt -0.145772 0.441485
vt -0.169667 0.357665
vt -0.170736 0.525819
vt -0.218930 0.524489
vt -0.171814 0.693972
vt -0.073261 0.695985
vt -0.097465 0.612340
vt -0.146748 0.611332
vt 1.477086 0.473596
vt 1.462390 0.473944
vt 1.489250 0.430365
vt 1.481729 0.405094
vt 1.514102 0.429857
vt 1.521363 0.404284
vt 1.526708 0.472582
vt 1.541404 0.472330
vt 1.514515 0.515768
vt 1.489717 0.516275
vt 1.482498 0.541870
vt 1.521995 0.541063
vt -0.088905 0.527557
vt -0.105092 0.489152
vt -0.137859 0.488482
vt -0.154436 0.526218
vt -0.105451 0.565375
vt -0.138281 0.564704
vt -0.909581 -0.592327
vt -0.933317 0.489432
vt 1.490824 0.473291
vt 1.485438 0.473408
vt 1.493514 0.444735
vt 1.496258 0.454001
vt 1.509988 0.444398
vt 1.507338 0.453775
vt 1.518354 0.472735
vt 1.512969 0.472838
vt 1.507529 0.492119
vt 1.496460 0.492345
vt 1.493817 0.501725
vt 1.510267 0.501388
vt -0.132725 0.500682
vt -0.138515 0.499727
vt -0.110350 0.501139
vt -0.104552 0.500422
vt -0.099291 0.527374
vt -0.087722 0.527577
vt -0.133006 0.552731
vt -0.110602 0.553190
vt 1.501896 0.473058
vt -0.104804 0.554127
vt -0.956228 1.571213
vn 0.404401 0.914487 -0.011567
vn 0.858028 0.512406 -0.034394
vn 0.726737 0.176061 -0.663930
vn 0.170507 0.320627 -0.931700
vn 0.153752 -0.328318 -0.931944
vn 0.715201 -0.218207 -0.663930
vn 0.358013 -0.933622 -0.011322
vn 0.826624 -0.561663 -0.034394
vn 0.788324 -0.208350 0.578875
vn 0.799158 0.161931 0.578875
vn 0.316202 0.299295 0.900204
vn 0.299966 -0.315500 0.900235
vn -0.565783 -0.824519 -0.000305
vn -0.035096 -0.999329 0.008332
vn 0.038087 -0.357982 0.932920
vn 0.336955 -0.941496 0.000000
vn 0.806787 -0.590777 0.000000
vn 0.127628 -0.397259 -0.908750
vn 0.340953 -0.257851 -0.903989
vn -0.140507 0.560747 -0.815943
vn -0.437269 0.358867 -0.824580
vn -0.211341 0.977386 0.000000
vn -0.762230 0.647267 0.000000
vn -0.437269 0.358867 0.824610
vn 0.127659 -0.397259 0.908750
vn 0.340983 -0.257851 0.903989
vn -0.140507 0.560747 0.815943
vn 0.976470 -0.215613 0.000000
vn 0.999969 -0.002289 0.000000
vn 0.480117 -0.015015 -0.877041
vn 0.451247 -0.093570 -0.887448
vn -0.513352 -0.030183 -0.857631
vn -0.523484 0.127018 -0.842494
vn -0.999390 -0.034059 0.000000
vn -0.974731 0.223365 0.000000
vn -0.523484 0.126988 0.842494
vn 0.451247 -0.093570 0.887448
vn 0.480117 -0.015046 0.877041
vn -0.513352 -0.030183 0.857631
vn -0.963500 -0.267708 0.000000
vn -0.347545 -0.937651 0.000000
vn -0.367138 -0.162236 -0.915891
vn -0.168981 -0.364666 -0.915647
vn 0.578265 0.140416 -0.803644
vn 0.270577 0.534318 -0.800775
vn 0.943815 0.330393 0.000000
vn 0.526292 0.850276 0.000000
vn 0.578265 0.140385 0.803644
vn -0.367138 -0.162267 0.915891
vn -0.168981 -0.364666 0.915647
vn 0.270577 0.534318 0.800775
vn 0.963744 0.266732 0.000000
vn 0.375195 0.086978 -0.922819
vn -0.430708 -0.200049 -0.880032
vn -0.907926 -0.419111 0.000000
vn 0.375195 0.086978 0.922819
vn -0.430708 -0.200049 0.880032
vn -0.833277 0.552812 0.000000
vn -0.866421 0.499283 0.000000
vn -0.348521 0.148473 -0.925443
vn -0.580706 0.257363 -0.772332
vn 0.514939 -0.307871 -0.800012
vn 0.286782 -0.279946 -0.916135
vn 0.893338 -0.449355 0.000000
vn 0.878567 -0.477554 0.000000
vn 0.286782 -0.279977 0.916135
vn -0.580706 0.257363 0.772332
vn -0.348521 0.148473 0.925443
vn 0.514939 -0.307901 0.799982
vn -0.239509 -0.471053 -0.848933
vn -0.015931 -0.353557 -0.935240
vn 0.139012 0.263619 -0.954527
vn 0.025819 0.341533 -0.939482
vn 0.234809 0.972015 0.000000
vn 0.070894 0.997375 0.012879
vn -0.240577 -0.469649 0.849422
vn 0.139012 0.263588 0.954527
vn -0.163335 -0.986541 0.000061
vn 0.082003 0.334422 0.938810
usemtl scale
s 1
f 74/1/1 2/2/2 4/3/3
f 75/4/4 4/3/3 76/5/5
f 76/5/5 6/6/6 77/7/7
f 77/7/7 8/8/8 10/9/9
f 4/3/3 2/2/2 12/10/10
f 79/11/11 12/10/10 74/1/1
f 78/12/12 10/9/9 79/11/11
f 5/13/13 71/14/14 72/15/15
f 60/16/16 13/17/17 55/18/18
f 55/18/18 14/19/19 56/20/20
f 56/20/20 15/21/21 57/22/22
f 57/22/22 16/23/23 17/24/24
f 59/25/25 18/26/26 13/17/17
f 58/27/27 17/24/24 18/26/26
f 37/28/28 19/29/29 20/30/30
f 38/31/31 20/30/30 21/32/32
f 39/33/33 21/32/32 22/34/34
f 40/35/35 22/34/34 41/36/36
f 42/37/37 24/38/38 37/28/28
f 41/36/36 23/39/39 42/37/37
f 54/40/40 30/41/41 49/42/42
f 49/42/42 25/43/43 50/44/44
f 50/44/44 26/45/45 51/46/46
f 51/46/46 27/47/47 52/48/48
f 53/49/49 29/50/50 54/40/40
f 52/48/48 28/51/51 53/49/49
f 19/29/29 31/52/52 32/53/53
f 20/30/30 32/53/53 33/54/54
f 21/32/32 33/54/54 34/55/55
f 22/34/34 34/55/55 23/39/39
f 24/38/38 36/56/56 19/29/29
f 23/39/39 35/57/57 24/38/38
f 13/17/17 37/28/28 14/19/19
f 14/19/19 38/31/31 15/58/21
f 15/58/21 39/33/33 16/59/23
f 16/59/23 40/35/35 41/36/36
f 18/26/26 42/37/37 37/28/28
f 17/24/24 41/36/36 42/37/37
f 66/60/58 48/61/59 43/62/60
f 61/63/61 43/62/60 44/64/62
f 62/65/63 44/64/62 45/66/64
f 63/67/65 45/66/64 64/68/66
f 65/69/67 47/70/68 66/60/58
f 64/68/66 46/71/69 65/69/67
f 48/61/59 54/40/40 49/42/42
f 43/62/60 49/42/42 50/44/44
f 44/64/62 50/44/44 51/46/46
f 45/66/64 51/46/46 46/71/69
f 47/70/68 53/49/49 48/61/59
f 46/71/69 52/48/48 47/70/68
f 30/41/41 60/16/16 25/43/43
f 25/43/43 55/18/18 26/45/45
f 26/45/45 56/20/20 27/47/47
f 27/47/47 57/22/22 58/27/27
f 29/50/50 59/25/25 60/16/16
f 28/51/51 58/27/27 59/25/25
f 7/72/70 70/73/71 5/13/13
f 9/74/72 69/75/73 7/72/70
f 11/76/74 68/77/75 9/74/72
f 35/57/57 3/78/76 36/56/56
f 36/56/56 67/79/77 31/52/52
f 34/55/55 5/13/13 3/78/76
f 33/54/54 7/72/70 34/55/55
f 32/53/53 9/74/72 33/54/54
f 31/52/52 11/76/74 9/74/72
f 1/80/78 66/60/58 61/63/61
f 1/80/78 61/63/61 62/65/63
f 1/80/78 62/65/63 63/67/65
f 1/80/78 63/67/65 64/68/66
f 1/80/78 65/69/67 66/60/58
f 1/80/78 64/68/66 65/69/67
f 67/79/77 73/81/79 68/77/75
f 3/78/76 72/15/15 73/81/79
f 68/77/75 74/1/1 75/4/4
f 69/75/73 75/4/4 70/73/71
f 70/73/71 76/5/5 71/14/14
f 71/14/14 77/7/7 78/12/12
f 73/81/79 79/11/11 68/77/75
f 72/15/15 78/12/12 79/11/11
f 75/4/4 74/1/1 4/3/3
f 4/3/3 6/6/6 76/5/5
f 6/6/6 8/8/8 77/7/7
f 78/12/12 77/7/7 10/9/9
f 4/3/3 12/10/10 10/9/9
f 6/6/6 4/3/3 8/8/8
f 4/3/3 10/9/9 8/8/8
f 12/10/10 2/2/2 74/1/1
f 10/9/9 12/10/10 79/11/11
f 3/78/76 5/13/13 72/15/15
f 13/17/17 14/19/19 55/18/18
f 14/19/19 15/21/21 56/20/20
f 15/21/21 16/23/23 57/22/22
f 58/27/27 57/22/22 17/24/24
f 60/16/16 59/25/25 13/17/17
f 59/25/25 58/27/27 18/26/26
f 38/31/31 37/28/28 20/30/30
f 39/33/33 38/31/31 21/32/32
f 40/35/35 39/33/33 22/34/34
f 22/34/34 23/39/39 41/36/36
f 24/38/38 19/29/29 37/28/28
f 23/39/39 24/38/38 42/37/37
f 30/41/41 25/43/43 49/42/42
f 25/43/43 26/45/45 50/44/44
f 26/45/45 27/47/47 51/46/46
f 27/47/47 28/51/51 52/48/48
f 29/50/50 30/41/41 54/40/40
f 28/51/51 29/50/50 53/49/49
f 20/30/30 19/29/29 32/53/53
f 21/32/32 20/30/30 33/54/54
f 22/34/34 21/32/32 34/55/55
f 34/55/55 35/57/57 23/39/39
f 36/56/56 31/52/52 19/29/29
f 35/57/57 36/56/56 24/38/38
f 37/28/28 38/31/31 14/19/19
f 38/31/31 39/33/33 15/58/21
f 39/33/33 40/35/35 16/59/23
f 17/82/24 16/59/23 41/36/36
f 13/17/17 18/26/26 37/28/28
f 18/26/26 17/24/24 42/37/37
f 61/63/61 66/60/58 43/62/60
f 62/65/63 61/63/61 44/64/62
f 63/67/65 62/65/63 45/66/64
f 45/66/64 46/71/69 64/68/66
f 47/70/68 48/61/59 66/60/58
f 46/71/69 47/70/68 65/69/67
f 43/62/60 48/61/59 49/42/42
f 44/64/62 43/62/60 50/44/44
f 45/66/64 44/64/62 51/46/46
f 51/46/46 52/48/48 46/71/69
f 53/49/49 54/40/40 48/61/59
f 52/48/48 53/49/49 47/70/68
f 60/16/16 55/18/18 25/43/43
f 55/18/18 56/20/20 26/45/45
f 56/20/20 57/22/22 27/47/47
f 28/51/51 27/47/47 58/27/27
f 30/41/41 29/50/50 60/16/16
f 29/50/50 28/51/51 59/25/25
f 70/73/71 71/14/14 5/13/13
f 69/75/73 70/73/71 7/72/70
f 68/77/75 69/75/73 9/74/72
f 3/78/76 67/79/77 36/56/56
f 67/79/77 11/76/74 31/52/52
f 35/57/57 34/55/55 3/78/76
f 7/72/70 5/13/13 34/55/55
f 9/74/72 7/72/70 33/54/54
f 32/53/53 31/52/52 9/74/72
f 11/76/74 67/79/77 68/77/75
f 67/79/77 3/78/76 73/81/79
f 69/75/73 68/77/75 75/4/4
f 75/4/4 76/5/5 70/73/71
f 76/5/5 77/7/7 71/14/14
f 72/15/15 71/14/14 78/12/12
f 79/11/11 74/1/1 68/77/75
f 73/81/79 72/15/15 79/11/11
