# Blender v2.69 (sub 0) OBJ File: 'snake.blend'
# www.blender.org
mtllib snake_000009.mtl
o Cylinder
v -2.313727 -1.703572 0.285614
v -3.131192 -2.264979 0.244170
v -2.684997 -1.069997 0.383760
v -3.165023 -2.247122 0.199676
v -2.768582 -1.058449 0.285619
v -3.232684 -2.211409 0.199676
v -2.684997 -1.069997 0.187478
v -3.266515 -2.193552 0.244170
v -2.517828 -1.093092 0.187478
v -3.232684 -2.211409 0.288663
v -2.434244 -1.104640 0.285619
v -3.165023 -2.247122 0.288663
v -0.098870 0.719332 0.285617
v -0.051311 0.808302 0.110881
v 0.043806 0.986242 0.110881
v 0.091365 1.075212 0.285617
v 0.043806 0.986242 0.460352
v -0.051311 0.808302 0.460352
v -1.820678 0.371422 0.285618
v -1.914390 0.420890 0.102078
v -2.101814 0.519825 0.102078
v -2.195526 0.569293 0.285618
v -2.101813 0.519825 0.469158
v -1.914390 0.420890 0.469158
v 0.977195 -0.776730 0.137989
v 1.100168 -0.894780 0.137989
v 1.161655 -0.953804 0.285615
v 1.100168 -0.894780 0.433242
v 0.977195 -0.776730 0.433242
v 0.915708 -0.717706 0.285615
v -2.315306 -0.559249 0.285619
v -2.420276 -0.544746 0.162368
v -2.630217 -0.515741 0.162368
v -2.735186 -0.501239 0.285619
v -2.630216 -0.515741 0.408870
v -2.420276 -0.544746 0.408870
v -1.047740 0.758170 0.285618
v -1.066539 0.862456 0.102077
v -1.104138 1.071028 0.102077
v -1.122938 1.175314 0.285618
v -1.104138 1.071028 0.469158
v -1.066539 0.862456 0.469158
v -0.341825 -1.403579 0.177337
v -0.371394 -1.525061 0.177337
v -0.386179 -1.585801 0.285615
v -0.371394 -1.525061 0.393892
v -0.341825 -1.403579 0.393892
v -0.327041 -1.342839 0.285615
v 0.396864 -1.397671 0.157663
v 0.503448 -1.499987 0.157663
v 0.556740 -1.551146 0.285615
v 0.503448 -1.499987 0.413567
v 0.396863 -1.397670 0.413567
v 0.343571 -1.346512 0.285615
v 0.767847 0.202651 0.120033
v 0.949924 0.261005 0.120033
v 1.040963 0.290181 0.285616
v 0.949925 0.261005 0.451199
v 0.767847 0.202651 0.451199
v 0.676809 0.173474 0.285616
v -1.104120 -1.052421 0.197011
v -1.154281 -1.141590 0.197011
v -1.179362 -1.186174 0.285614
v -1.154281 -1.141590 0.374217
v -1.104121 -1.052421 0.374217
v -1.079040 -1.007836 0.285614
v -2.517828 -1.093092 0.383760
v -2.705797 -1.962981 0.285620
v -2.843646 -1.890221 0.162369
v -3.117390 -1.745901 0.162369
v -3.254659 -1.674171 0.285620
v -3.115872 -1.746832 0.408870
v -2.843646 -1.890221 0.408870
v -2.870917 -2.168900 0.269355
v -2.986698 -2.107789 0.177370
v -3.218261 -1.985565 0.177370
v -3.334042 -1.924453 0.269355
v -3.218261 -1.985565 0.361341
v -2.986698 -2.107789 0.361341
vt -0.094606 0.524100
vt -0.114034 0.518866
vt -0.117787 0.509958
vt -0.108030 0.504842
vt -0.125381 0.509803
vt -0.135083 0.504288
vt -0.148701 0.522994
vt -0.129224 0.518555
vt -0.125473 0.527467
vt -0.108211 0.542857
vt -0.117875 0.527623
vt -0.135290 0.542303
vt -0.144050 0.526459
vt -0.155619 0.526190
vt -0.133006 0.552731
vt 1.413960 0.475237
vt 0.690250 0.510568
vt 1.456651 0.321985
vt 0.667339 -0.571213
vt 1.545576 0.320169
vt 2.337554 -0.592327
vt 1.589840 0.471657
vt 2.313818 0.489432
vt 2.290906 1.571213
vt 1.458555 0.626138
vt 0.713987 1.592328
vt 1.546795 0.624336
vt -0.024402 0.528444
vt -0.072603 0.527822
vt -0.096701 0.442488
vt -0.071952 0.359660
vt -0.145772 0.441485
vt -0.169667 0.357665
vt -0.170736 0.525819
vt -0.218930 0.524489
vt -0.171814 0.693972
vt -0.073261 0.695985
vt -0.097465 0.612340
vt -0.146748 0.611332
vt 1.477086 0.473596
vt 1.462390 0.473944
vt 1.489250 0.430365
vt 1.481729 0.405094
vt 1.514102 0.429857
vt 1.521363 0.404284
vt 1.526708 0.472582
vt 1.541404 0.472330
vt 1.514515 0.515768
vt 1.489717 0.516275
vt 1.482498 0.541870
vt 1.521995 0.541063
vt -0.088905 0.527557
vt -0.105092 0.489152
vt -0.137859 0.488482
vt -0.154436 0.526218
vt -0.105451 0.565375
vt -0.138281 0.564704
vt -0.909581 -0.592327
vt -0.933317 0.489432
vt 1.490824 0.473291
vt 1.485438 0.473408
vt 1.493514 0.444735
vt 1.496258 0.454001
vt 1.509988 0.444398
vt 1.507338 0.453775
vt 1.518354 0.472735
vt 1.512969 0.472838
vt 1.507529 0.492119
vt 1.496460 0.492345
vt 1.493817 0.501725
vt 1.510267 0.501388
vt -0.132725 0.500682
vt -0.138515 0.499727
vt -0.110350 0.501139
vt -0.104552 0.500422
vt -0.099291 0.527374
vt -0.087722 0.527577
vt -0.110602 0.553190
vt 1.501896 0.473058
vt -0.104804 0.554127
vt -0.138812 0.553432
vt -0.956228 1.571213
vn 0.642628 -0.766076 -0.011567
vn 0.081790 -0.996033 -0.034394
vn -0.162236 -0.729942 -0.663930
vn 0.212683 -0.294534 -0.931639
vn -0.511124 -0.545793 -0.663930
vn -0.363506 0.011353 -0.931516
vn -0.994446 0.104404 -0.011414
vn -0.868496 -0.494430 -0.034394
vn -0.534471 -0.615802 0.578875
vn 0.129490 -0.416486 0.899838
vn -0.206854 -0.788720 0.578875
vn -0.417280 -0.125675 0.900021
vn -0.921720 0.387829 0.000000
vn -0.902036 0.431349 0.015137
vn -0.341838 0.118351 0.932249
vn -0.808588 -0.588336 0.000000
vn -0.313303 -0.949614 0.000000
vn -0.340678 -0.225959 -0.912595
vn -0.139439 -0.402264 -0.904813
vn 0.509720 0.288644 -0.810450
vn 0.209174 0.527268 -0.823542
vn 0.889523 0.456862 0.000000
vn 0.383435 0.923551 0.000000
vn 0.209174 0.527268 0.823542
vn -0.340678 -0.225959 0.912595
vn -0.139439 -0.402295 0.904813
vn 0.509720 0.288644 0.810450
vn 0.217017 -0.976135 0.000000
vn 0.664479 -0.747276 0.000000
vn 0.291086 -0.312967 -0.904019
vn 0.093966 -0.420515 -0.902371
vn -0.403455 0.394452 -0.825587
vn -0.121342 0.550462 -0.825983
vn -0.736503 0.676382 0.000000
vn -0.211310 0.977416 0.000000
vn -0.121342 0.550462 0.825983
vn 0.093966 -0.420515 0.902371
vn 0.291086 -0.312967 0.904019
vn -0.403455 0.394452 0.825587
vn -0.345683 0.938322 0.000000
vn -0.989959 0.141331 0.000000
vn -0.194830 0.339824 -0.920072
vn -0.375835 0.095584 -0.921720
vn 0.195257 -0.571123 -0.797266
vn 0.591205 -0.164678 -0.789514
vn 0.426374 -0.904508 0.000000
vn 0.926725 -0.375652 0.000000
vn 0.195257 -0.571123 0.797266
vn -0.194830 0.339824 0.920072
vn -0.375835 0.095584 0.921720
vn 0.591205 -0.164678 0.789514
vn 0.934202 -0.356731 0.000000
vn 0.363384 -0.164586 -0.916959
vn -0.447676 0.093448 -0.889279
vn -0.971404 0.237403 0.000000
vn 0.363384 -0.164586 0.916959
vn -0.447676 0.093448 0.889279
vn 0.017426 0.999847 0.000000
vn 0.195379 0.980712 0.000000
vn 0.071871 0.438581 -0.895779
vn -0.100101 0.630299 -0.769829
vn -0.127842 -0.540452 -0.831568
vn -0.089511 -0.361675 -0.927976
vn -0.215583 -0.976470 0.000000
vn 0.060762 -0.998138 0.000000
vn -0.089511 -0.361675 0.927976
vn -0.100101 0.630299 0.769829
vn 0.071871 0.438581 0.895779
vn -0.127842 -0.540452 0.831568
vn -0.341807 0.118412 -0.932249
vn -0.309275 0.148350 -0.939299
vn 0.423933 -0.120334 -0.897641
vn 0.297494 -0.171453 -0.939177
vn 0.966826 -0.255409 0.000000
vn 0.865047 -0.501511 0.012909
vn 0.423933 -0.120334 0.897641
vn -0.891079 -0.453780 -0.000031
vn 0.267281 -0.218635 0.938475
vn -0.327921 0.095523 0.939848
usemtl scale
s 1
f 74/1/1 2/2/2 4/3/3
f 75/4/4 4/3/3 6/5/5
f 76/6/6 6/5/5 77/7/7
f 77/7/7 8/8/8 10/9/9
f 6/5/5 10/9/9 8/8/8
f 79/10/10 12/11/11 74/1/1
f 78/12/12 10/9/9 79/10/10
f 5/13/13 71/14/14 3/15/15
f 60/16/16 13/17/17 55/18/18
f 55/18/18 14/19/19 56/20/20
f 56/20/20 15/21/21 57/22/22
f 57/22/22 16/23/23 17/24/24
f 59/25/25 18/26/26 13/17/17
f 58/27/27 17/24/24 18/26/26
f 37/28/28 19/29/29 20/30/30
f 38/31/31 20/30/30 21/32/32
f 39/33/33 21/32/32 22/34/34
f 40/35/35 22/34/34 41/36/36
f 42/37/37 24/38/38 37/28/28
f 41/36/36 23/39/39 42/37/37
f 54/40/40 30/41/41 49/42/42
f 49/42/42 25/43/43 50/44/44
f 50/44/44 26/45/45 51/46/46
f 51/46/46 27/47/47 52/48/48
f 53/49/49 29/50/50 54/40/40
f 52/48/48 28/51/51 53/49/49
f 19/29/29 31/52/52 32/53/53
f 20/30/30 32/53/53 33/54/54
f 21/32/32 33/54/54 34/55/55
f 22/34/34 34/55/55 23/39/39
f 24/38/38 36/56/56 19/29/29
f 23/39/39 35/57/57 24/38/38
f 13/17/17 37/28/28 14/19/19
f 14/19/19 38/31/31 15/58/21
f 15/58/21 39/33/33 16/59/23
f 16/59/23 40/35/35 41/36/36
f 18/26/26 42/37/37 37/28/28
f 17/24/24 41/36/36 42/37/37
f 66/60/58 48/61/59 43/62/60
f 61/63/61 43/62/60 44/64/62
f 62/65/63 44/64/62 45/66/64
f 63/67/65 45/66/64 64/68/66
f 65/69/67 47/70/68 66/60/58
f 64/68/66 46/71/69 65/69/67
f 48/61/59 54/40/40 49/42/42
f 43/62/60 49/42/42 50/44/44
f 44/64/62 50/44/44 51/46/46
f 45/66/64 51/46/46 46/71/69
f 47/70/68 53/49/49 48/61/59
f 46/71/69 52/48/48 47/70/68
f 30/41/41 60/16/16 25/43/43
f 25/43/43 55/18/18 26/45/45
f 26/45/45 56/20/20 27/47/47
f 27/47/47 57/22/22 58/27/27
f 29/50/50 59/25/25 60/16/16
f 28/51/51 58/27/27 59/25/25
f 7/72/70 70/73/71 71/14/14
f 9/74/72 69/75/73 70/73/71
f 11/76/74 68/77/75 9/74/72
f 35/57/57 3/15/15 36/56/56
f 36/56/56 67/78/76 31/52/52
f 34/55/55 5/13/13 3/15/15
f 33/54/54 7/72/70 34/55/55
f 32/53/53 9/74/72 33/54/54
f 31/52/52 11/76/74 9/74/72
f 1/79/77 66/60/58 61/63/61
f 1/79/77 61/63/61 62/65/63
f 1/79/77 62/65/63 63/67/65
f 1/79/77 63/67/65 64/68/66
f 1/79/77 65/69/67 66/60/58
f 1/79/77 64/68/66 65/69/67
f 67/78/76 73/80/78 68/77/75
f 3/15/15 72/81/79 67/78/76
f 68/77/75 74/1/1 75/4/4
f 69/75/73 75/4/4 76/6/6
f 70/73/71 76/6/6 71/14/14
f 71/14/14 77/7/7 78/12/12
f 73/80/78 79/10/10 68/77/75
f 72/81/79 78/12/12 73/80/78
f 75/4/4 74/1/1 4/3/3
f 76/6/6 75/4/4 6/5/5
f 6/5/5 8/8/8 77/7/7
f 78/12/12 77/7/7 10/9/9
f 4/3/3 2/2/2 12/11/11
f 6/5/5 4/3/3 12/11/11
f 10/9/9 6/5/5 12/11/11
f 12/11/11 2/2/2 74/1/1
f 10/9/9 12/11/11 79/10/10
f 71/14/14 72/81/79 3/15/15
f 13/17/17 14/19/19 55/18/18
f 14/19/19 15/21/21 56/20/20
f 15/21/21 16/23/23 57/22/22
f 58/27/27 57/22/22 17/24/24
f 60/16/16 59/25/25 13/17/17
f 59/25/25 58/27/27 18/26/26
f 38/31/31 37/28/28 20/30/30
f 39/33/33 38/31/31 21/32/32
f 40/35/35 39/33/33 22/34/34
f 22/34/34 23/39/39 41/36/36
f 24/38/38 19/29/29 37/28/28
f 23/39/39 24/38/38 42/37/37
f 30/41/41 25/43/43 49/42/42
f 25/43/43 26/45/45 50/44/44
f 26/45/45 27/47/47 51/46/46
f 27/47/47 28/51/51 52/48/48
f 29/50/50 30/41/41 54/40/40
f 28/51/51 29/50/50 53/49/49
f 20/30/30 19/29/29 32/53/53
f 21/32/32 20/30/30 33/54/54
f 22/34/34 21/32/32 34/55/55
f 34/55/55 35/57/57 23/39/39
f 36/56/56 31/52/52 19/29/29
f 35/57/57 36/56/56 24/38/38
f 37/28/28 38/31/31 14/19/19
f 38/31/31 39/33/33 15/58/21
f 39/33/33 40/35/35 16/59/23
f 17/82/24 16/59/23 41/36/36
f 13/17/17 18/26/26 37/28/28
f 18/26/26 17/24/24 42/37/37
f 61/63/61 66/60/58 43/62/60
f 62/65/63 61/63/61 44/64/62
f 63/67/65 62/65/63 45/66/64
f 45/66/64 46/71/69 64/68/66
f 47/70/68 48/61/59 66/60/58
f 46/71/69 47/70/68 65/69/67
f 43/62/60 48/61/59 49/42/42
f 44/64/62 43/62/60 50/44/44
f 45/66/64 44/64/62 51/46/46
f 51/46/46 52/48/48 46/71/69
f 53/49/49 54/40/40 48/61/59
f 52/48/48 53/49/49 47/70/68
f 60/16/16 55/18/18 25/43/43
f 55/18/18 56/20/20 26/45/45
f 56/20/20 57/22/22 27/47/47
f 28/51/51 27/47/47 58/27/27
f 30/41/41 29/50/50 60/16/16
f 29/50/50 28/51/51 59/25/25
f 5/13/13 7/72/70 71/14/14
f 7/72/70 9/74/72 70/73/71
f 68/77/75 69/75/73 9/74/72
f 3/15/15 67/78/76 36/56/56
f 67/78/76 11/76/74 31/52/52
f 35/57/57 34/55/55 3/15/15
f 7/72/70 5/13/13 34/55/55
f 9/74/72 7/72/70 33/54/54
f 32/53/53 31/52/52 9/74/72
f 11/76/74 67/78/76 68/77/75
f 72/81/79 73/80/78 67/78/76
f 69/75/73 68/77/75 75/4/4
f 70/73/71 69/75/73 76/6/6
f 76/6/6 77/7/7 71/14/14
f 72/81/79 71/14/14 78/12/12
f 79/10/10 74/1/1 68/77/75
f 78/12/12 79/10/10 73/80/78
