# Blender v2.65 (sub 0) OBJ File: 'building.blend'
# www.blender.org
mtllib building.mtl
o Cube.004_Cube.002
v -3.719300 -3.934309 7.373381
v -3.719300 3.722872 7.373381
v 3.937882 3.722872 7.373381
v 3.937882 -3.934309 7.373381
v -3.719300 -3.934309 7.713859
v -3.719300 3.722872 7.713859
v 3.937882 3.722872 7.713859
v 3.937882 -3.934309 7.713859
vt 1.000000 1.000000
vt 0.000000 1.000000
vt 0.000000 0.000000
vt 1.000000 0.000000
vn -1.000000 0.000000 -0.000000
vn 0.000000 1.000000 -0.000000
vn 1.000000 0.000000 -0.000000
vn 0.000000 -1.000000 -0.000000
vn -0.000000 0.000000 -1.000000
vn -0.000000 0.000000 1.000000
usemtl wall2
s off
f 2/1/1 1/2/1 5/3/1
f 2/1/1 5/3/1 6/4/1
f 6/3/2 7/4/2 3/1/2
f 6/3/2 3/1/2 2/2/2
f 7/3/3 8/4/3 4/1/3
f 7/3/3 4/1/3 3/2/3
f 1/1/4 4/2/4 8/3/4
f 1/1/4 8/3/4 5/4/4
f 1/3/5 2/4/5 3/1/5
f 1/3/5 3/1/5 4/2/5
f 8/3/6 7/4/6 6/1/6
f 8/3/6 6/1/6 5/2/6
o Cube.002_Cube.008
v -3.719300 -3.934309 4.055408
v -3.719300 3.722872 4.055408
v 3.937882 3.722872 4.055408
v 3.937882 -3.934309 4.055408
v -3.719300 -3.934309 4.395886
v -3.719300 3.722872 4.395886
v 3.937882 3.722872 4.395886
v 3.937882 -3.934309 4.395886
vt 1.000000 1.000000
vt 0.000000 1.000000
vt 0.000000 0.000000
vt 1.000000 0.000000
usemtl wall2
s off
f 10/5/1 9/6/1 13/7/1
f 10/5/1 13/7/1 14/8/1
f 14/7/2 15/8/2 11/5/2
f 14/7/2 11/5/2 10/6/2
f 15/7/3 16/8/3 12/5/3
f 15/7/3 12/5/3 11/6/3
f 9/5/4 12/6/4 16/7/4
f 9/5/4 16/7/4 13/8/4
f 9/7/5 10/8/5 11/5/5
f 9/7/5 11/5/5 12/6/5
f 16/7/6 15/8/6 14/5/6
f 16/7/6 14/5/6 13/6/6
o Cube.003_Cube.006
v -3.371674 -3.456646 11.031469
v -3.371674 0.863018 11.031469
v 0.947990 0.863018 11.031469
v 0.947990 -3.456646 11.031469
v -3.371674 -3.456646 11.371948
v -3.371674 0.863018 11.371948
v 0.947990 0.863018 11.371948
v 0.947990 -3.456646 11.371948
vt 1.000000 1.000000
vt 0.000000 1.000000
vt 0.000000 0.000000
vt 1.000000 0.000000
usemtl wall2
s off
f 18/9/1 17/10/1 21/11/1
f 18/9/1 21/11/1 22/12/1
f 22/11/2 23/12/2 19/9/2
f 22/11/2 19/9/2 18/10/2
f 23/11/3 24/12/3 20/9/3
f 23/11/3 20/9/3 19/10/3
f 17/9/4 20/10/4 24/11/4
f 17/9/4 24/11/4 21/12/4
f 17/11/5 18/12/5 19/9/5
f 17/11/5 19/9/5 20/10/5
f 24/11/6 23/12/6 22/9/6
f 24/11/6 22/9/6 21/10/6
o Cube.001_Cube.004
v -2.829819 0.315820 8.565980
v 0.445179 0.315818 8.565980
v 0.445176 -2.959179 8.565980
v -2.829821 -2.959177 8.565980
v -2.829819 0.315820 11.840978
v 0.445179 0.315818 11.840978
v 0.445176 -2.959179 11.840978
v -2.829821 -2.959177 11.840978
v 0.445179 0.315818 10.203479
v 0.445178 -1.321681 11.840978
v 0.445176 -2.959179 10.203479
v 0.445178 -1.321681 10.203479
v 0.445179 0.315818 9.384729
v 0.445177 -2.140430 11.840978
v 0.445176 -2.959179 9.384729
v 0.445178 -0.502932 8.565980
v 0.445179 0.315818 11.022228
v 0.445178 -0.502932 11.840978
v 0.445176 -2.959179 11.022228
v 0.445177 -2.140430 8.565980
v 0.445178 -1.321681 11.022228
v 0.445178 -0.502932 10.203479
v 0.445177 -2.140430 10.203479
v 0.445177 -2.140430 9.384729
v 0.445178 -0.502932 9.384729
v 0.445178 -0.502932 11.022228
v 0.445177 -2.140430 11.022228
vt 1.000000 0.000000
vt 0.000000 1.000000
vt 0.000000 0.000000
vt 1.000000 0.250000
vt 1.000000 0.500000
vt 1.000000 0.750000
vt 1.000000 1.000000
vt 0.750000 0.750000
vt 0.750000 1.000000
vt 0.000000 0.250000
vt 0.000000 0.500000
vt 0.000000 0.750000
vt 0.250000 0.250000
vt 0.500000 0.250000
vt 0.500000 0.500000
vt 0.250000 0.500000
vt 0.750000 0.250000
vt 0.750000 0.500000
vt 0.250000 0.750000
vt 0.250000 1.000000
vt 0.250000 0.000000
vt 0.500000 0.000000
vt 0.750000 0.000000
vn 0.000001 1.000000 0.000000
vn 1.000000 -0.000001 0.000000
vn -0.000001 -1.000000 0.000000
vn -1.000000 0.000001 0.000000
usemtl wall2
s off
f 30/13/7 25/14/7 29/15/7
f 41/16/7 25/14/7 30/13/7
f 33/17/7 25/14/7 41/16/7
f 37/18/7 25/14/7 33/17/7
f 26/19/7 25/14/7 37/18/7
f 48/20/8 39/18/8 27/19/8
f 48/20/8 27/19/8 44/21/8
f 31/15/9 32/13/9 28/19/9
f 31/15/9 28/19/9 43/22/9
f 28/19/9 35/23/9 43/22/9
f 28/19/9 39/24/9 35/23/9
f 28/19/9 27/14/9 39/24/9
f 25/19/10 28/14/10 32/15/10
f 25/19/10 32/15/10 29/13/10
f 42/18/6 30/19/6 29/14/6
f 34/17/6 42/18/6 29/14/6
f 38/16/6 34/17/6 29/14/6
f 31/13/6 38/16/6 29/14/6
f 32/15/6 31/13/6 29/14/6
f 50/25/8 45/26/8 36/27/8
f 50/25/8 36/27/8 46/28/8
f 51/29/8 43/16/8 35/17/8
f 51/29/8 35/17/8 47/30/8
f 47/30/8 35/17/8 39/18/8
f 47/30/8 39/18/8 48/20/8
f 37/24/8 49/31/8 40/32/8
f 37/24/8 40/32/8 26/14/8
f 33/23/8 46/28/8 49/31/8
f 33/23/8 49/31/8 37/24/8
f 41/22/8 50/25/8 46/28/8
f 41/22/8 46/28/8 33/23/8
f 30/15/8 42/33/8 50/25/8
f 30/15/8 50/25/8 41/22/8
f 42/33/8 34/34/8 45/26/8
f 42/33/8 45/26/8 50/25/8
f 45/26/8 51/29/8 47/30/8
f 45/26/8 47/30/8 36/27/8
f 34/34/8 38/35/8 51/29/8
f 34/34/8 51/29/8 45/26/8
f 38/35/8 31/13/8 43/16/8
f 38/35/8 43/16/8 51/29/8
o Cube
v -2.909402 3.038766 0.045140
v 3.129798 3.038762 0.045140
v 3.129794 -3.000438 0.045140
v -2.909406 -3.000435 0.045140
v -2.909402 3.038766 8.548446
v 3.129798 3.038762 8.548446
v 3.129794 -3.000438 8.548446
v -2.909406 -3.000435 8.548446
v 3.129798 3.038762 1.637023
v -2.909402 3.038766 1.637023
v 3.129794 -3.000438 1.637023
v -2.909406 -3.000435 1.637023
v 3.129798 3.038762 0.841081
v 3.129796 0.019162 8.548446
v 3.129794 -3.000438 0.841081
v 3.129796 0.019162 0.045140
v 3.129798 3.038762 3.510822
v 3.129794 -3.000438 3.510822
v 3.129796 0.019162 1.637023
v 3.129796 0.019162 0.841081
v 3.129796 0.019162 3.510822
v 3.129798 3.038762 0.443110
v 3.129795 -1.490638 8.548446
v 3.129794 -3.000438 0.443110
v 3.129797 1.528962 0.045140
v 3.129798 3.038762 4.447721
v 3.129794 -3.000438 4.447721
v 3.129797 1.528962 1.637023
v 3.129798 3.038762 1.239052
v 3.129797 1.528962 8.548446
v 3.129794 -3.000438 1.239052
v 3.129795 -1.490638 0.045140
v 3.129798 3.038762 2.573922
v 3.129794 -3.000438 2.573922
v 3.129795 -1.490638 1.637023
v 3.129796 0.019162 0.443110
v 3.129796 0.019162 1.239052
v 3.129797 1.528962 0.841081
v 3.129795 -1.490638 0.841081
v 3.129796 0.019162 2.573922
v 3.129796 0.019162 4.447721
v 3.129797 1.528962 3.510822
v 3.129795 -1.490638 3.510822
v 3.129795 -1.490638 0.443110
v 3.129795 -1.490638 2.573922
v 3.129797 1.528962 0.443110
v 3.129797 1.528962 1.239052
v 3.129795 -1.490638 1.239052
v 3.129797 1.528962 2.573922
v 3.129797 1.528962 4.447721
v 3.129795 -1.490638 4.447721
v 3.129798 3.038762 6.498083
v 3.129794 -3.000438 6.498083
v 3.129796 0.019162 6.498083
v 3.129797 1.528962 6.498083
v 3.129795 -1.490638 6.498083
v 3.129797 1.528962 5.099303
v 3.129795 -1.490638 5.083237
v -2.909406 -3.000435 5.181394
v 3.129798 3.038762 5.107335
v 0.739217 -3.000437 5.117238
v -2.909404 0.622872 6.510535
v -2.909404 0.605686 5.133670
v -2.909405 -0.639309 5.150146
v 3.129794 -3.000438 5.075204
v -0.697788 -3.000436 6.496320
v -0.699009 -3.000436 5.142527
v 0.774480 -3.000437 6.496998
v -2.909406 -3.000435 6.495300
v -2.909402 3.038766 6.520693
v 3.129796 0.019162 5.091269
v -2.909402 3.038766 5.101470
v -2.909405 -0.639389 6.505228
vt 1.000000 0.000000
vt 0.000000 1.000000
vt 0.000000 0.000000
vt 1.000000 0.250000
vt 1.000000 0.500000
vt 1.000000 0.750000
vt 1.000000 1.000000
vt 0.750000 0.750000
vt 0.750000 1.000000
vt 0.000000 0.250000
vt 0.000000 0.500000
vt 0.000000 0.750000
vt 0.250000 0.750000
vt 0.500000 0.750000
vt 0.500000 1.000000
vt 0.250000 1.000000
vt 0.250000 0.250000
vt 0.500000 0.250000
vt 0.500000 0.500000
vt 0.250000 0.500000
vt 0.750000 0.250000
vt 0.750000 0.500000
vt 0.250000 0.000000
vt 0.500000 0.000000
vt 0.750000 0.000000
vt 0.073935 0.217158
vt -0.778194 0.217801
vt -0.778158 0.112533
vt 0.074125 -0.335734
vt -0.778107 -0.036988
vt -0.778055 -0.186508
vt -0.778004 -0.336027
vt 1.778002 0.767849
vt 0.925874 0.767555
vt 0.925986 0.439893
vt 1.445781 0.440343
vt 1.778116 0.440631
vt 1.238045 0.440163
vt 0.073745 0.767262
vt 0.073857 0.443652
vt 0.592843 0.441363
vt 0.414739 0.442148
vt 0.000089 0.644440
vt 0.250044 0.645944
vt 0.250045 0.767954
vt 0.000089 0.767954
vt 0.500000 0.647448
vt 0.500000 0.767954
vt 0.749956 0.648952
vt 0.749956 0.767953
vt 0.999912 0.650457
vt 0.999912 0.767953
vt 0.000088 0.000088
vt 0.250044 0.000088
vt 0.250044 0.384021
vt 0.000088 0.384021
vt 0.500000 0.000088
vt 0.500000 0.384021
vt 0.749956 0.000088
vt 0.749956 0.384021
vt 0.999912 0.000088
vt 0.999912 0.384021
vt -0.778271 0.439750
vt 1.237947 0.224111
vt 0.926059 0.230206
vt 0.926253 -0.335441
vt 1.440882 0.220145
vt 1.778194 0.213553
vt 1.778229 0.113413
vt 1.778280 -0.036109
vt 1.778332 -0.185630
vt 1.778383 -0.335151
vt -0.778383 0.766968
vt 0.592907 0.225105
vt 0.417239 0.222415
vn 0.000002 0.999997 -0.002309
vn -0.705750 0.002979 -0.708455
usemtl wall1
s off
f 60/36/7 52/37/7 61/38/7
f 80/39/7 52/37/7 60/36/7
f 64/40/7 52/37/7 80/39/7
f 73/41/7 52/37/7 64/40/7
f 53/42/7 52/37/7 73/41/7
f 95/43/8 75/41/8 54/42/8
f 95/43/8 54/42/8 83/44/8
f 62/38/9 63/36/9 55/42/9
f 62/38/9 55/42/9 82/45/9
f 55/42/9 66/46/9 82/45/9
f 55/42/9 75/47/9 66/46/9
f 55/42/9 54/37/9 75/47/9
f 52/42/10 55/37/10 63/38/10
f 52/42/10 63/38/10 61/36/10
f 97/48/8 87/49/8 67/50/8
f 97/48/8 67/50/8 76/51/8
f 98/52/8 88/53/8 71/54/8
f 98/52/8 71/54/8 89/55/8
f 99/56/8 82/39/8 66/40/8
f 99/56/8 66/40/8 90/57/8
f 90/57/8 66/40/8 75/41/8
f 90/57/8 75/41/8 95/43/8
f 73/47/8 97/48/8 76/51/8
f 73/47/8 76/51/8 53/37/8
f 64/46/8 89/55/8 97/48/8
f 64/46/8 97/48/8 73/47/8
f 89/55/8 71/54/8 87/49/8
f 89/55/8 87/49/8 97/48/8
f 80/45/8 98/52/8 89/55/8
f 80/45/8 89/55/8 64/46/8
f 60/38/8 79/58/8 98/52/8
f 60/38/8 98/52/8 80/45/8
f 79/58/8 70/59/8 88/53/8
f 79/58/8 88/53/8 98/52/8
f 86/60/8 62/36/8 82/39/8
f 86/60/8 82/39/8 99/56/8
usemtl wall2
f 81/41/6 57/42/6 56/37/6
f 65/40/6 81/41/6 56/37/6
f 74/39/6 65/40/6 56/37/6
f 58/36/6 74/39/6 56/37/6
f 59/38/6 58/36/6 56/37/6
f 123/61/7 111/62/7 77/63/7
f 123/61/7 77/63/7 61/64/7
f 77/63/7 68/65/7 61/64/7
f 68/65/7 84/66/7 61/64/7
f 84/66/7 60/67/7 61/64/7
f 96/43/8 85/41/8 62/42/8
f 96/43/8 62/42/8 86/44/8
f 58/68/9 59/69/9 120/70/9
f 58/68/9 120/70/9 119/71/9
f 58/68/9 119/71/9 104/72/9
f 120/70/11 117/73/11 119/71/11
f 59/69/10 56/74/10 121/75/10
f 59/69/10 121/75/10 124/76/10
f 59/69/10 124/76/10 120/70/10
f 121/75/12 113/77/12 124/76/12
f 100/48/8 91/49/8 70/50/8
f 100/48/8 70/50/8 79/51/8
f 101/52/8 92/53/8 72/54/8
f 101/52/8 72/54/8 93/55/8
f 102/56/8 78/39/8 69/40/8
f 102/56/8 69/40/8 94/57/8
f 72/54/8 94/57/8 96/43/8
f 72/54/8 96/43/8 91/49/8
f 94/57/8 69/40/8 85/41/8
f 94/57/8 85/41/8 96/43/8
f 84/47/8 100/48/8 79/51/8
f 84/47/8 79/51/8 60/37/8
f 68/46/8 93/55/8 100/48/8
f 68/46/8 100/48/8 84/47/8
f 93/55/8 72/54/8 91/49/8
f 93/55/8 91/49/8 100/48/8
f 77/45/8 101/52/8 93/55/8
f 77/45/8 93/55/8 68/46/8
f 111/78/8 108/79/8 101/80/8
f 111/78/8 101/80/8 77/81/8
f 108/79/8 122/82/8 92/83/8
f 108/79/8 92/83/8 101/80/8
f 92/53/8 102/56/8 94/57/8
f 92/53/8 94/57/8 72/54/8
f 122/82/8 109/84/8 102/85/8
f 122/82/8 102/85/8 92/83/8
f 109/84/8 116/86/8 78/87/8
f 109/84/8 78/87/8 102/85/8
f 57/88/8 81/89/8 106/90/8
f 57/88/8 106/90/8 103/91/8
f 81/89/8 65/92/8 105/93/8
f 81/89/8 105/93/8 106/90/8
f 65/92/8 74/94/8 107/95/8
f 65/92/8 107/95/8 105/93/8
f 74/94/8 58/96/8 104/97/8
f 74/94/8 104/97/8 107/95/8
f 105/93/8 107/95/8 109/84/8
f 105/93/8 109/84/8 122/82/8
f 107/95/8 104/97/8 116/86/8
f 107/95/8 116/86/8 109/84/8
f 121/75/7 103/98/7 111/62/7
f 121/75/7 111/62/7 123/61/7
f 118/99/9 110/100/9 63/101/9
f 112/102/9 118/99/9 63/101/9
f 116/103/9 112/102/9 63/101/9
f 116/103/9 63/101/9 78/104/9
f 63/101/9 69/105/9 78/104/9
f 63/101/9 85/106/9 69/105/9
f 63/101/9 62/107/9 85/106/9
f 117/73/9 120/70/9 110/100/9
f 117/73/9 110/100/9 118/99/9
f 56/74/7 57/108/7 103/98/7
f 56/74/7 103/98/7 121/75/7
f 110/100/10 115/109/10 63/101/10
f 115/109/10 114/110/10 63/101/10
f 114/110/10 123/61/10 63/101/10
f 123/61/10 61/64/10 63/101/10
f 103/91/8 106/90/8 108/79/8
f 103/91/8 108/79/8 111/78/8
f 104/72/9 119/71/9 112/102/9
f 104/72/9 112/102/9 116/103/9
f 113/77/10 121/75/10 123/61/10
f 113/77/10 123/61/10 114/110/10
f 120/70/10 124/76/10 115/109/10
f 120/70/10 115/109/10 110/100/10
