# Blender v2.69 (sub 0) OBJ File: 'snake.blend'
# www.blender.org
mtllib snake_000023.mtl
o Cylinder
v -2.655260 -1.035572 0.285614
v 5.479180 1.247147 0.244169
v 5.080330 -0.044424 0.383760
v 5.514275 1.231922 0.199676
v 5.145645 -0.097844 0.285619
v 5.584462 1.201472 0.199676
v 5.080330 -0.044424 0.187478
v 5.619555 1.186247 0.244169
v 4.949699 0.062415 0.187478
v 5.584462 1.201472 0.288663
v 4.884384 0.115835 0.285619
v 5.514275 1.231922 0.288663
v 1.534796 0.320374 0.285617
v 1.503407 0.224498 0.110881
v 1.440627 0.032746 0.110881
v 1.409237 -0.063130 0.285617
v 1.440627 0.032746 0.460352
v 1.503406 0.224498 0.460352
v 3.511745 -0.384394 0.285618
v 3.525444 -0.489472 0.102078
v 3.552843 -0.699627 0.102078
v 3.566542 -0.804705 0.285618
v 3.552843 -0.699627 0.469158
v 3.525444 -0.489472 0.469158
v -0.065317 -0.580445 0.137989
v -0.061902 -0.750876 0.137989
v -0.060195 -0.836091 0.285615
v -0.061902 -0.750875 0.433242
v -0.065316 -0.580445 0.433242
v -0.067024 -0.495230 0.285615
v 4.498621 -0.287632 0.285619
v 4.580647 -0.354719 0.162368
v 4.744699 -0.488893 0.162368
v 4.826726 -0.555980 0.285619
v 4.744699 -0.488893 0.408870
v 4.580647 -0.354719 0.408870
v 2.578337 -0.125918 0.285617
v 2.530446 -0.220445 0.102077
v 2.434662 -0.409499 0.102077
v 2.386769 -0.504026 0.285617
v 2.434661 -0.409499 0.469158
v 2.530445 -0.220445 0.469158
v -0.771966 -1.172367 0.177337
v -0.670540 -1.099259 0.177337
v -0.619827 -1.062705 0.285615
v -0.670540 -1.099259 0.393892
v -0.771966 -1.172367 0.393892
v -0.822679 -1.208921 0.285615
v -0.914755 -0.608823 0.157663
v -0.911796 -0.756540 0.157663
v -0.910316 -0.830398 0.285615
v -0.911796 -0.756540 0.413567
v -0.914755 -0.608823 0.413567
v -0.916234 -0.534965 0.285615
v 0.495696 0.252481 0.120033
v 0.664026 0.161805 0.120033
v 0.748191 0.116466 0.285616
v 0.664026 0.161804 0.451199
v 0.495696 0.252480 0.451199
v 0.411531 0.297819 0.285616
v -1.269542 -1.290197 0.197012
v -1.274838 -1.392370 0.197012
v -1.277487 -1.443456 0.285614
v -1.274839 -1.392370 0.374217
v -1.269542 -1.290197 0.374217
v -1.266894 -1.239111 0.285614
v 4.949699 0.062415 0.383760
v 5.078050 0.913593 0.285619
v 5.221046 0.851556 0.162368
v 5.508324 0.726193 0.162368
v 5.651576 0.663253 0.285619
v 5.509323 0.725192 0.408870
v 5.221046 0.851556 0.408870
v 5.226989 1.131503 0.269355
v 5.347093 1.079397 0.177369
v 5.587300 0.975186 0.177369
v 5.707405 0.923080 0.269355
v 5.587300 0.975186 0.361341
v 5.347093 1.079397 0.361341
vt 0.485931 0.262946
vt 0.521451 0.001567
vt 0.584202 -0.052384
vt 0.615662 0.676101
vt 0.584202 0.545412
vt 0.584202 0.437509
vt 0.615662 0.306819
vt 0.485931 0.122178
vt 0.485931 0.719975
vt 0.521451 0.981354
vt 0.458700 1.035305
vt 0.521451 0.599363
vt 0.458700 0.545412
vt 0.356199 0.676101
vt 0.485931 0.860742
vt 0.356199 0.306819
vt 0.458700 0.437509
vt 0.462992 0.253457
vt 0.462992 0.051795
vt 0.324580 0.372459
vt 0.462992 0.507211
vt 0.462992 0.581936
vt 0.709427 0.581936
vt 0.546676 0.507211
vt 0.554128 0.581936
vt 0.277021 0.507211
vt 0.696520 0.507211
vt 0.229463 0.507211
vt 0.216556 0.581936
vt 0.269568 0.581936
vt 0.462992 0.656660
vt 0.462992 0.731385
vt 0.721845 0.731385
vt 0.561297 0.656660
vt 0.561297 0.731385
vt 0.262399 0.731385
vt 0.124049 0.656660
vt 0.124049 0.731385
vt -0.134804 0.731385
vt 0.204138 0.656660
vt 0.204138 0.731385
vt 0.262399 0.656660
vt 0.462991 0.375434
vt 0.462992 0.432487
vt 0.643447 0.375434
vt 0.516034 0.375434
vt 0.532054 0.432487
vt 0.307662 0.375434
vt 0.671195 0.432487
vt 0.282536 0.375434
vt 0.254789 0.432487
vt 0.291642 0.432487
vt 0.462992 0.806109
vt 0.636817 0.806109
vt 0.124049 0.640909
vt 0.039021 0.640909
vt 0.039021 0.342011
vt 0.039021 0.806109
vt -0.134804 0.806109
vt 0.289167 0.806109
vt 0.204138 0.342011
vt 0.289167 0.342011
vt 0.204138 0.640909
vt 0.721845 0.656660
vt 0.462991 0.261329
vt 0.462991 0.318382
vt 0.615699 0.318382
vt 0.483994 0.261329
vt 0.500014 0.318382
vt 0.339703 0.261329
vt 0.587950 0.261329
vt 0.338031 0.261329
vt 0.310284 0.318382
vt 0.323682 0.318382
vt 0.601404 0.372459
vt 0.636817 0.271627
vt 0.530850 0.245675
vt 0.631681 0.302368
vt 0.292846 0.245675
vt 0.462992 0.729464
vt 0.462992 0.931126
vt 0.601404 0.610462
vt 0.262399 0.208313
vt 0.561297 0.208313
vt 0.289167 0.640909
vt 0.324580 0.610462
vt 0.462992 0.790358
vt 0.462992 0.851253
vt 0.324580 0.970255
vt 0.636817 0.342011
vt 0.462992 0.192562
vt 0.462990 0.491460
vt 0.462991 0.635751
vt 0.587950 0.563606
vt 0.587950 0.419315
vt 0.462991 0.347170
vt 0.338031 0.419315
vt 0.338031 0.563606
vt 0.289167 0.711293
vt 0.192015 0.302368
vt 0.462992 0.333330
vt 0.615662 0.078305
vt 0.636817 0.711293
vt 0.462992 0.649591
vt 0.356199 0.904616
vt 0.289167 0.271628
vt 0.521451 0.383558
vt -0.134804 0.656660
vt 0.124049 0.342011
vt 0.289167 0.939807
vt 0.636817 0.640909
vt 0.636817 0.113497
vt 0.289167 0.869424
vn -0.699149 0.714835 -0.011567
vn -0.157506 0.986908 -0.034394
vn 0.106113 0.740196 -0.663930
vn -0.234504 0.277444 -0.931669
vn 0.468001 0.583178 -0.663930
vn 0.362499 0.019532 -0.931761
vn 0.999756 -0.018220 -0.011597
vn 0.828272 0.559221 -0.034394
vn 0.485977 0.654744 0.578875
vn 0.146092 0.802210 0.578875
vn -0.160833 0.405286 0.899899
vn 0.405438 0.160772 0.899838
vn 0.826563 -0.562792 0.000000
vn 0.933592 -0.358074 0.011200
vn 0.360546 -0.237739 0.901914
vn -0.531175 0.847224 0.000000
vn 0.198340 0.980102 0.000000
vn 0.096835 0.540544 -0.835719
vn -0.238014 0.598773 -0.764702
vn 0.142064 -0.357616 -0.922971
vn -0.143803 -0.445540 -0.883602
vn -0.299051 -0.954222 0.000000
vn 0.151982 -0.988372 0.000000
vn 0.142064 -0.357646 0.922971
vn -0.238044 0.598773 0.764702
vn 0.096835 0.540544 0.835719
vn -0.143803 -0.445540 0.883602
vn 0.325358 0.945585 0.000000
vn 0.101199 0.994842 0.000000
vn 0.049776 0.450789 -0.891232
vn 0.157781 0.457167 -0.875240
vn -0.010376 -0.544420 -0.838740
vn -0.172216 -0.491317 -0.853755
vn -0.019044 -0.999817 0.000000
vn -0.333415 -0.942747 0.000000
vn -0.172216 -0.491317 0.853755
vn 0.157781 0.457167 0.875240
vn 0.049776 0.450789 0.891232
vn -0.010376 -0.544420 0.838740
vn -0.692953 0.720939 0.000000
vn -0.589221 0.807947 0.000000
vn -0.711020 0.295144 -0.638203
vn -0.196142 0.336985 -0.920835
vn 0.560564 -0.685842 0.464064
vn 0.294656 -0.535783 -0.791253
vn 0.999847 -0.016816 0.000000
vn 0.383587 -0.923490 0.000000
vn 0.366527 -0.790551 -0.490524
vn -0.710807 0.296976 0.637593
vn -0.196142 0.336985 0.920835
vn 0.294656 -0.535783 0.791253
vn -0.367687 0.929929 0.000000
vn -0.135350 0.340281 -0.930509
vn 0.268075 -0.426923 -0.863613
vn 0.582629 -0.812708 0.000000
vn -0.135350 0.340281 0.930509
vn 0.268075 -0.426923 0.863613
vn -0.047548 0.998840 0.000000
vn -0.597797 0.801630 0.000000
vn -0.809137 0.203619 0.551195
vn -0.057527 0.447279 -0.892514
vn 0.063875 -0.579058 -0.812769
vn 0.671834 -0.366497 -0.643635
vn 0.997436 -0.071413 0.000000
vn 0.100223 -0.994934 0.000000
vn 0.064882 -0.578326 0.813196
vn -0.054994 0.446364 0.893155
vn -0.808069 0.271950 -0.522507
vn 0.673879 -0.368206 0.640522
vn 0.360546 -0.237709 -0.901914
vn 0.320170 -0.123386 -0.939268
vn -0.320017 0.186377 -0.928861
vn -0.306864 0.150761 -0.939726
vn -0.888363 0.459120 0.000000
vn -0.897305 0.441176 0.012818
vn -0.320017 0.186377 0.928861
vn -0.976592 0.215033 0.000061
vn -0.280099 0.200079 0.938871
vn 0.340342 -0.071352 0.937559
usemtl scale
s 1
f 74/1/1 2/2/2 4/3/3
f 75/4/4 4/5/3 6/6/5
f 76/7/6 6/6/5 77/8/7
f 77/9/7 8/10/8 10/11/9
f 4/5/3 2/12/2 12/13/10
f 79/14/11 12/13/10 74/15/1
f 78/16/12 10/17/9 79/14/11
f 5/18/13 71/19/14 3/20/15
f 60/21/16 13/22/17 14/23/18
f 55/24/19 14/25/18 56/26/20
f 56/27/20 15/23/21 16/22/22
f 57/21/23 16/22/22 58/28/24
f 59/28/25 18/29/26 60/21/16
f 58/26/24 17/30/27 18/25/26
f 37/31/28 19/32/29 20/33/30
f 38/34/31 20/35/30 21/36/32
f 39/37/33 21/38/32 22/39/34
f 40/31/35 22/32/34 41/40/36
f 42/40/37 24/41/38 37/31/28
f 41/42/36 23/36/39 42/34/37
f 54/43/40 30/44/41 49/45/42
f 49/46/42 25/47/43 50/48/44
f 50/45/44 26/49/45 51/43/46
f 51/43/46 27/44/47 52/50/48
f 53/50/49 29/51/50 54/43/40
f 52/48/48 28/52/51 53/46/49
f 19/32/29 31/53/52 32/54/53
f 20/55/30 32/56/53 33/57/54
f 21/38/32 33/58/54 34/59/55
f 22/32/34 34/53/55 23/41/39
f 24/41/38 36/60/56 19/32/29
f 23/61/39 35/62/57 24/63/38
f 13/22/17 37/31/28 38/64/31
f 14/25/18 38/34/31 39/42/33
f 15/23/21 39/64/33 40/31/35
f 16/22/22 40/31/35 17/29/27
f 18/29/26 42/40/37 13/22/17
f 17/30/27 41/42/36 18/25/26
f 66/65/58 48/66/59 43/67/60
f 61/68/61 43/69/60 62/70/62
f 62/71/62 44/67/63 45/66/64
f 63/65/65 45/66/64 64/72/66
f 65/72/67 47/73/68 66/65/58
f 64/70/66 46/74/69 65/68/67
f 48/66/59 54/43/40 43/67/60
f 43/69/60 49/46/42 44/74/63
f 44/67/63 50/45/44 45/66/64
f 45/66/64 51/43/46 52/50/48
f 47/73/68 53/50/49 54/43/40
f 46/74/69 52/48/48 47/69/68
f 30/44/41 60/21/16 25/49/43
f 25/47/43 55/24/19 26/52/45
f 26/49/45 56/27/20 27/44/47
f 27/44/47 57/21/23 58/28/24
f 29/51/50 59/28/25 60/21/16
f 28/52/51 58/26/24 59/24/25
f 7/75/70 70/76/71 71/19/14
f 9/77/72 69/78/73 7/79/70
f 11/80/74 68/81/75 9/82/72
f 35/83/57 3/79/15 36/84/56
f 36/85/56 67/86/76 31/87/52
f 34/87/55 5/88/13 3/89/15
f 33/90/54 7/75/70 34/91/55
f 32/84/53 9/77/72 33/83/54
f 31/87/52 11/80/74 9/82/72
f 1/92/77 66/93/58 61/94/61
f 1/92/77 61/94/61 62/95/62
f 1/92/77 62/95/62 63/96/65
f 1/92/77 63/96/65 64/97/66
f 1/92/77 65/98/67 66/93/58
f 1/92/77 64/97/66 65/98/67
f 67/86/76 73/99/78 68/81/75
f 3/79/15 72/100/79 73/78/78
f 68/101/75 74/1/1 75/102/4
f 69/103/73 75/4/4 70/76/71
f 70/76/71 76/7/6 71/19/14
f 71/104/14 77/9/7 78/105/12
f 73/99/78 79/14/11 68/81/75
f 72/106/79 78/16/12 79/14/11
f 75/102/4 74/1/1 4/3/3
f 76/7/6 75/4/4 6/6/5
f 6/6/5 8/107/8 77/8/7
f 78/105/12 77/9/7 10/11/9
f 6/6/5 4/5/3 12/13/10
f 8/107/8 6/6/5 12/13/10
f 10/17/9 8/107/8 12/13/10
f 12/13/10 2/12/2 74/15/1
f 10/17/9 12/13/10 79/14/11
f 71/19/14 72/106/79 3/20/15
f 55/27/19 60/21/16 14/23/18
f 14/25/18 15/30/21 56/26/20
f 57/21/23 56/27/20 16/22/22
f 16/22/22 17/29/27 58/28/24
f 18/29/26 13/22/17 60/21/16
f 59/24/25 58/26/24 18/25/26
f 38/64/31 37/31/28 20/33/30
f 39/42/33 38/34/31 21/36/32
f 40/108/35 39/37/33 22/39/34
f 22/32/34 23/41/39 41/40/36
f 24/41/38 19/32/29 37/31/28
f 23/36/39 24/35/38 42/34/37
f 30/44/41 25/49/43 49/45/42
f 25/47/43 26/52/45 50/48/44
f 26/49/45 27/44/47 51/43/46
f 27/44/47 28/51/51 52/50/48
f 29/51/50 30/44/41 54/43/40
f 28/52/51 29/47/50 53/46/49
f 20/33/30 19/32/29 32/54/53
f 21/109/32 20/55/30 33/57/54
f 22/39/34 21/38/32 34/59/55
f 34/53/55 35/60/57 23/41/39
f 36/60/56 31/53/52 19/32/29
f 35/62/57 36/85/56 24/63/38
f 14/23/18 13/22/17 38/64/31
f 15/30/21 14/25/18 39/42/33
f 16/22/22 15/23/21 40/31/35
f 40/31/35 41/40/36 17/29/27
f 42/40/37 37/31/28 13/22/17
f 41/42/36 42/34/37 18/25/26
f 61/71/61 66/65/58 43/67/60
f 43/69/60 44/74/63 62/70/62
f 63/65/65 62/71/62 45/66/64
f 45/66/64 46/73/69 64/72/66
f 47/73/68 48/66/59 66/65/58
f 46/74/69 47/69/68 65/68/67
f 54/43/40 49/45/42 43/67/60
f 49/46/42 50/48/44 44/74/63
f 50/45/44 51/43/46 45/66/64
f 46/73/69 45/66/64 52/50/48
f 48/66/59 47/73/68 54/43/40
f 52/48/48 53/46/49 47/69/68
f 60/21/16 55/27/19 25/49/43
f 55/24/19 56/26/20 26/52/45
f 56/27/20 57/21/23 27/44/47
f 28/51/51 27/44/47 58/28/24
f 30/44/41 29/51/50 60/21/16
f 29/47/50 28/52/51 59/24/25
f 5/18/13 7/75/70 71/19/14
f 69/78/73 70/100/71 7/79/70
f 68/81/75 69/103/73 9/82/72
f 3/79/15 67/77/76 36/84/56
f 67/86/76 11/80/74 31/87/52
f 35/110/57 34/87/55 3/89/15
f 7/75/70 5/18/13 34/91/55
f 9/77/72 7/79/70 33/83/54
f 32/111/53 31/87/52 9/82/72
f 11/80/74 67/86/76 68/81/75
f 67/77/76 3/79/15 73/78/78
f 69/112/73 68/101/75 75/102/4
f 75/4/4 76/7/6 70/76/71
f 76/7/6 77/8/7 71/19/14
f 72/113/79 71/104/14 78/105/12
f 79/14/11 74/15/1 68/81/75
f 73/99/78 72/106/79 79/14/11
