# Blender v2.69 (sub 0) OBJ File: 'snake.blend'
# www.blender.org
mtllib snake_000045.mtl
o Cylinder
v -0.734592 -3.066729 0.285614
v 4.870028 -0.376222 0.244169
v 3.950464 0.614553 0.383760
v 4.839308 -0.399016 0.199676
v 3.871557 0.584662 0.285619
v 4.777864 -0.444604 0.199676
v 3.950464 0.614553 0.187478
v 4.747142 -0.467397 0.244169
v 4.108277 0.674336 0.187478
v 4.777864 -0.444604 0.288663
v 4.187183 0.704227 0.285619
v 4.839308 -0.399016 0.288663
v 0.633880 1.309819 0.285617
v 0.622410 1.209590 0.110881
v 0.599469 1.009131 0.110881
v 0.587999 0.908902 0.285617
v 0.599469 1.009131 0.460352
v 0.622410 1.209590 0.460352
v 2.763606 1.103489 0.285618
v 2.788914 1.000589 0.102078
v 2.839529 0.794788 0.102078
v 2.864836 0.691887 0.285618
v 2.839528 0.794788 0.469158
v 2.788913 1.000589 0.469158
v -0.281213 0.000637 0.137989
v -0.183416 -0.138984 0.137989
v -0.134518 -0.208794 0.285615
v -0.183416 -0.138984 0.433242
v -0.281213 0.000637 0.433242
v -0.330112 0.070447 0.285615
v 4.030406 1.239968 0.285619
v 3.931311 1.202430 0.162368
v 3.733121 1.127352 0.162368
v 3.634026 1.089813 0.285619
v 3.733121 1.127352 0.408870
v 3.931311 1.202430 0.408870
v 1.745232 1.143266 0.285617
v 1.725948 1.039069 0.102077
v 1.687380 0.830674 0.102077
v 1.668096 0.726476 0.285617
v 1.687380 0.830674 0.469158
v 1.725948 1.039069 0.469158
v -0.771966 -1.172367 0.177337
v -0.670540 -1.099259 0.177337
v -0.619827 -1.062705 0.285615
v -0.670540 -1.099259 0.393892
v -0.771966 -1.172367 0.393892
v -0.822679 -1.208921 0.285615
v -0.970763 -0.496225 0.157663
v -0.886000 -0.617238 0.157663
v -0.843618 -0.677745 0.285615
v -0.886000 -0.617238 0.413567
v -0.970763 -0.496225 0.413567
v -1.013145 -0.435719 0.285615
v -0.279453 1.004876 0.120033
v -0.089151 1.023372 0.120033
v 0.006001 1.032619 0.285616
v -0.089150 1.023371 0.451199
v -0.279453 1.004876 0.451199
v -0.374605 0.995628 0.285616
v -1.111220 -1.754434 0.197012
v -1.042507 -1.830235 0.197012
v -1.008151 -1.868136 0.285614
v -1.042507 -1.830235 0.374217
v -1.111220 -1.754434 0.374217
v -1.145577 -1.716534 0.285614
v 4.108277 0.674336 0.383760
v 4.781491 0.137902 0.285619
v 4.656310 0.045026 0.162368
v 4.404190 -0.141199 0.162368
v 4.278099 -0.233847 0.285619
v 4.402823 -0.141565 0.408870
v 4.656310 0.045025 0.408870
v 4.895847 -0.099984 0.269355
v 4.790707 -0.177993 0.177369
v 4.580423 -0.334010 0.177369
v 4.475283 -0.412019 0.269355
v 4.580424 -0.334010 0.361341
v 4.790707 -0.177993 0.361341
vt 0.485931 0.262946
vt 0.521451 0.001567
vt 0.584202 -0.052384
vt 0.615662 0.676101
vt 0.584202 0.545412
vt 0.615662 0.306819
vt 0.584202 0.437509
vt 0.485931 0.122178
vt 0.485931 0.719975
vt 0.521451 0.981354
vt 0.458700 1.035305
vt 0.458700 0.437509
vt 0.521451 0.383558
vt 0.356199 0.676101
vt 0.458700 0.545412
vt 0.485931 0.860742
vt 0.356199 0.306819
vt 0.462992 0.253457
vt 0.462992 0.051795
vt 0.324580 0.372459
vt 0.462992 0.507211
vt 0.462992 0.581936
vt 0.709427 0.581936
vt 0.546676 0.507211
vt 0.554128 0.581936
vt 0.277021 0.507211
vt 0.696520 0.507211
vt 0.229463 0.507211
vt 0.216556 0.581936
vt 0.269568 0.581936
vt 0.462992 0.656660
vt 0.462992 0.731385
vt 0.721845 0.731385
vt 0.561297 0.656660
vt 0.561297 0.731385
vt 0.262399 0.731385
vt 0.124049 0.656660
vt 0.124049 0.731385
vt -0.134804 0.731385
vt 0.204138 0.656660
vt 0.204138 0.731385
vt 0.262399 0.656660
vt 0.462991 0.375434
vt 0.462992 0.432487
vt 0.643447 0.375434
vt 0.516034 0.375434
vt 0.532054 0.432487
vt 0.307662 0.375434
vt 0.671195 0.432487
vt 0.282536 0.375434
vt 0.254789 0.432487
vt 0.291642 0.432487
vt 0.462992 0.806109
vt 0.124049 0.640909
vt 0.039021 0.640909
vt 0.039021 0.342011
vt 0.039021 0.806109
vt 0.289167 0.806109
vt 0.204138 0.342011
vt 0.289167 0.342011
vt 0.204138 0.640909
vt 0.721845 0.656660
vt 0.462991 0.261329
vt 0.462991 0.318382
vt 0.615699 0.318382
vt 0.483994 0.261329
vt 0.500014 0.318382
vt 0.339703 0.261329
vt 0.587950 0.261329
vt 0.338031 0.261329
vt 0.310284 0.318382
vt 0.323682 0.318382
vt 0.601404 0.372459
vt 0.636817 0.271627
vt 0.530850 0.245675
vt 0.631681 0.302368
vt 0.292846 0.245675
vt 0.462992 0.729464
vt 0.462992 0.931126
vt 0.601404 0.610462
vt 0.262399 0.208313
vt 0.561297 0.208313
vt 0.289167 0.640909
vt 0.324580 0.610462
vt 0.462992 0.790358
vt 0.462992 0.851253
vt 0.324580 0.970255
vt 0.636817 0.342011
vt 0.462992 0.192562
vt 0.462990 0.491460
vt 0.462991 0.635751
vt 0.587950 0.563606
vt 0.587950 0.419315
vt 0.462991 0.347170
vt 0.338031 0.419315
vt 0.338031 0.563606
vt 0.289167 0.711293
vt 0.192015 0.302368
vt 0.462992 0.333330
vt 0.615662 0.078305
vt 0.636817 0.711293
vt 0.462992 0.649591
vt 0.356199 0.904616
vt 0.289167 0.271628
vt 0.521451 0.599363
vt -0.134804 0.656660
vt 0.636817 0.806109
vt 0.124049 0.342011
vt -0.134804 0.806109
vt 0.289167 0.939807
vt 0.636817 0.640909
vt 0.636817 0.113497
vt 0.289167 0.869424
vn 0.968535 0.248512 -0.011567
vn 0.933592 -0.356609 -0.034394
vn 0.588183 -0.461715 -0.663930
vn 0.357494 0.064547 -0.931669
vn -0.164159 -0.323771 -0.931761
vn 0.271371 -0.696768 -0.663930
vn -0.515275 -0.856929 -0.011597
vn 0.070589 -0.996887 -0.034394
vn 0.324381 -0.748100 0.578875
vn 0.431440 -0.063143 0.899899
vn 0.621906 -0.527329 0.578875
vn -0.063265 -0.431562 0.899838
vn -0.900479 -0.434828 0.000000
vn -0.776635 -0.629810 0.011200
vn -0.386090 -0.193518 0.901914
vn -0.854122 0.520066 0.000000
vn -0.064333 0.997925 0.000000
vn -0.052919 0.551866 -0.832240
vn -0.466292 0.525681 -0.711478
vn 0.221259 -0.254067 -0.941527
vn -0.053865 -0.479263 -0.875973
vn -0.112644 -0.993622 0.000000
vn 0.367962 -0.929838 0.000000
vn 0.221259 -0.254067 0.941527
vn -0.466292 0.525681 0.711478
vn -0.052919 0.551836 0.832240
vn -0.053896 -0.479263 0.875973
vn 0.090854 0.995849 0.000000
vn -0.029176 0.999573 0.000000
vn -0.001679 0.480056 -0.877194
vn 0.043367 0.484176 -0.873867
vn 0.109317 -0.527543 -0.842433
vn -0.051759 -0.513016 -0.856777
vn 0.187475 -0.982238 0.000000
vn -0.099673 -0.994995 0.000000
vn -0.051759 -0.513016 0.856777
vn 0.043367 0.484176 0.873867
vn -0.001679 0.480056 0.877194
vn 0.109317 -0.527543 0.842433
vn -0.915586 0.402081 0.000000
vn -0.939482 0.342570 0.000000
vn -0.668538 0.117374 -0.734306
vn -0.350658 0.170507 -0.920835
vn 0.249153 -0.144200 -0.957640
vn 0.543229 -0.280709 -0.791253
vn 0.999298 -0.036653 0.000000
vn 0.833094 -0.553117 0.000000
vn 0.249153 -0.144200 0.957640
vn -0.668538 0.117374 0.734306
vn -0.350658 0.170507 0.920835
vn 0.543229 -0.280709 0.791253
vn 0.636708 0.771081 0.000000
vn 0.197821 0.609363 -0.767785
vn -0.057924 -0.354045 -0.933409
vn -0.001679 -0.999969 0.000000
vn -0.057924 -0.354045 0.933409
vn 0.197821 0.609363 0.767785
vn -0.982849 0.184301 0.000000
vn -0.964629 0.263527 0.000000
vn -0.419446 0.002075 -0.907743
vn -0.654653 -0.004517 -0.755882
vn 0.387707 -0.138646 -0.911283
vn 0.646565 -0.099185 -0.756340
vn 0.998901 0.046846 0.000000
vn 0.999481 -0.032105 0.000000
vn 0.387707 -0.138646 0.911283
vn -0.654653 -0.004517 0.755882
vn -0.419446 0.002075 0.907743
vn 0.646565 -0.099185 0.756340
vn -0.386059 -0.193548 -0.901914
vn -0.266854 -0.215705 -0.939268
vn 0.321360 0.184088 -0.928861
vn 0.283914 0.190497 -0.939726
vn 0.841548 0.540147 0.000000
vn 0.830470 0.556871 0.012818
vn 0.321329 0.184088 0.928861
vn 0.257454 -0.966277 0.000000
vn 0.313273 0.142674 0.938871
vn -0.231849 -0.259163 0.937559
usemtl scale
s 1
f 74/1/1 2/2/2 4/3/3
f 75/4/4 4/5/3 76/6/5
f 76/6/5 6/7/6 77/8/7
f 77/9/7 8/10/8 10/11/9
f 6/7/6 10/12/9 8/13/8
f 79/14/10 12/15/11 74/16/1
f 78/17/12 10/12/9 79/14/10
f 5/18/13 71/19/14 3/20/15
f 60/21/16 13/22/17 14/23/18
f 55/24/19 14/25/18 56/26/20
f 56/27/20 15/23/21 16/22/22
f 57/21/23 16/22/22 58/28/24
f 59/28/25 18/29/26 60/21/16
f 58/26/24 17/30/27 18/25/26
f 37/31/28 19/32/29 20/33/30
f 38/34/31 20/35/30 21/36/32
f 39/37/33 21/38/32 22/39/34
f 40/31/35 22/32/34 41/40/36
f 42/40/37 24/41/38 37/31/28
f 41/42/36 23/36/39 42/34/37
f 54/43/40 30/44/41 49/45/42
f 49/46/42 25/47/43 50/48/44
f 50/45/44 26/49/45 51/43/46
f 51/43/46 27/44/47 52/50/48
f 53/50/49 29/51/50 54/43/40
f 52/48/48 28/52/51 53/46/49
f 19/32/29 31/53/52 20/33/30
f 20/54/30 32/55/53 33/56/54
f 21/38/32 33/57/54 22/39/34
f 22/32/34 34/53/55 35/58/56
f 24/41/38 36/58/57 31/53/52
f 23/59/39 35/60/56 24/61/38
f 13/22/17 37/31/28 38/62/31
f 14/25/18 38/34/31 39/42/33
f 15/23/21 39/62/33 40/31/35
f 16/22/22 40/31/35 17/29/27
f 18/29/26 42/40/37 13/22/17
f 17/30/27 41/42/36 18/25/26
f 66/63/58 48/64/59 43/65/60
f 61/66/61 43/67/60 62/68/62
f 62/69/62 44/65/63 45/64/64
f 63/63/65 45/64/64 64/70/66
f 65/70/67 47/71/68 66/63/58
f 64/68/66 46/72/69 47/67/68
f 48/64/59 54/43/40 43/65/60
f 43/67/60 49/46/42 50/48/44
f 44/65/63 50/45/44 45/64/64
f 45/64/64 51/43/46 52/50/48
f 47/71/68 53/50/49 54/43/40
f 46/72/69 52/48/48 47/67/68
f 30/44/41 60/21/16 25/49/43
f 25/47/43 55/24/19 26/52/45
f 26/49/45 56/27/20 27/44/47
f 27/44/47 57/21/23 58/28/24
f 29/51/50 59/28/25 60/21/16
f 28/52/51 58/26/24 59/24/25
f 7/73/70 70/74/71 71/19/14
f 9/75/72 69/76/73 7/77/70
f 11/78/74 68/79/75 9/80/72
f 35/81/56 3/77/15 36/82/57
f 36/83/57 67/84/76 31/85/52
f 34/85/55 5/86/13 3/87/15
f 33/88/54 7/73/70 34/89/55
f 32/82/53 9/75/72 33/81/54
f 31/85/52 11/78/74 9/80/72
f 1/90/77 66/91/58 61/92/61
f 1/90/77 61/92/61 62/93/62
f 1/90/77 62/93/62 63/94/65
f 1/90/77 63/94/65 64/95/66
f 1/90/77 65/96/67 66/91/58
f 1/90/77 64/95/66 65/96/67
f 67/84/76 73/97/78 68/79/75
f 3/77/15 72/98/79 73/76/78
f 68/99/75 74/1/1 75/100/4
f 69/101/73 75/4/4 70/74/71
f 70/74/71 76/6/5 71/19/14
f 71/102/14 77/9/7 78/103/12
f 73/97/78 79/14/10 68/79/75
f 72/104/79 78/17/12 79/14/10
f 75/100/4 74/1/1 4/3/3
f 4/5/3 6/7/6 76/6/5
f 6/7/6 8/13/8 77/8/7
f 78/103/12 77/9/7 10/11/9
f 6/7/6 12/15/11 10/12/9
f 4/5/3 2/105/2 6/7/6
f 2/105/2 12/15/11 6/7/6
f 12/15/11 2/105/2 74/16/1
f 10/12/9 12/15/11 79/14/10
f 71/19/14 72/104/79 3/20/15
f 55/27/19 60/21/16 14/23/18
f 14/25/18 15/30/21 56/26/20
f 57/21/23 56/27/20 16/22/22
f 16/22/22 17/29/27 58/28/24
f 18/29/26 13/22/17 60/21/16
f 59/24/25 58/26/24 18/25/26
f 38/62/31 37/31/28 20/33/30
f 39/42/33 38/34/31 21/36/32
f 40/106/35 39/37/33 22/39/34
f 22/32/34 23/41/39 41/40/36
f 24/41/38 19/32/29 37/31/28
f 23/36/39 24/35/38 42/34/37
f 30/44/41 25/49/43 49/45/42
f 25/47/43 26/52/45 50/48/44
f 26/49/45 27/44/47 51/43/46
f 27/44/47 28/51/51 52/50/48
f 29/51/50 30/44/41 54/43/40
f 28/52/51 29/47/50 53/46/49
f 31/53/52 32/107/53 20/33/30
f 21/108/32 20/54/30 33/56/54
f 33/57/54 34/109/55 22/39/34
f 23/41/39 22/32/34 35/58/56
f 19/32/29 24/41/38 31/53/52
f 35/60/56 36/83/57 24/61/38
f 14/23/18 13/22/17 38/62/31
f 15/30/21 14/25/18 39/42/33
f 16/22/22 15/23/21 40/31/35
f 40/31/35 41/40/36 17/29/27
f 42/40/37 37/31/28 13/22/17
f 41/42/36 42/34/37 18/25/26
f 61/69/61 66/63/58 43/65/60
f 43/67/60 44/72/63 62/68/62
f 63/63/65 62/69/62 45/64/64
f 45/64/64 46/71/69 64/70/66
f 47/71/68 48/64/59 66/63/58
f 65/66/67 64/68/66 47/67/68
f 54/43/40 49/45/42 43/65/60
f 44/72/63 43/67/60 50/48/44
f 50/45/44 51/43/46 45/64/64
f 46/71/69 45/64/64 52/50/48
f 48/64/59 47/71/68 54/43/40
f 52/48/48 53/46/49 47/67/68
f 60/21/16 55/27/19 25/49/43
f 55/24/19 56/26/20 26/52/45
f 56/27/20 57/21/23 27/44/47
f 28/51/51 27/44/47 58/28/24
f 30/44/41 29/51/50 60/21/16
f 29/47/50 28/52/51 59/24/25
f 5/18/13 7/73/70 71/19/14
f 69/76/73 70/98/71 7/77/70
f 68/79/75 69/101/73 9/80/72
f 3/77/15 67/75/76 36/82/57
f 67/84/76 11/78/74 31/85/52
f 35/110/56 34/85/55 3/87/15
f 7/73/70 5/18/13 34/89/55
f 9/75/72 7/77/70 33/81/54
f 32/111/53 31/85/52 9/80/72
f 11/78/74 67/84/76 68/79/75
f 67/75/76 3/77/15 73/76/78
f 69/112/73 68/99/75 75/100/4
f 75/4/4 76/6/5 70/74/71
f 76/6/5 77/8/7 71/19/14
f 72/113/79 71/102/14 78/103/12
f 79/14/10 74/16/1 68/79/75
f 73/97/78 72/104/79 79/14/10
