# Blender v2.69 (sub 0) OBJ File: 'snake.blend'
# www.blender.org
mtllib snake_000014.mtl
o Cylinder
v -2.548181 -0.697939 0.285614
v 6.114071 0.117601 0.244169
v 5.105242 -0.782121 0.383760
v 6.136251 0.086433 0.199676
v 5.133561 -0.861606 0.285619
v 6.180611 0.024097 0.199676
v 5.105242 -0.782121 0.187478
v 6.202790 -0.007071 0.244169
v 5.048603 -0.623153 0.187478
v 6.180611 0.024097 0.288663
v 5.020283 -0.543669 0.285619
v 6.136251 0.086433 0.288663
v 1.489197 0.076979 0.285617
v 1.434380 -0.007712 0.110881
v 1.324747 -0.177095 0.110881
v 1.269930 -0.261787 0.285617
v 1.324747 -0.177095 0.460352
v 1.434380 -0.007712 0.460352
v 3.598165 -0.244953 0.285618
v 3.553748 -0.341162 0.102078
v 3.464913 -0.533580 0.102078
v 3.420496 -0.629788 0.285618
v 3.464913 -0.533579 0.469158
v 3.553747 -0.341162 0.469158
v -0.064571 -0.594318 0.137989
v -0.063381 -0.764779 0.137989
v -0.062787 -0.850009 0.285615
v -0.063382 -0.764779 0.433242
v -0.064571 -0.594318 0.433242
v -0.065165 -0.509088 0.285615
v 4.481536 -0.689784 0.285619
v 4.517101 -0.789604 0.162368
v 4.588231 -0.989245 0.162368
v 4.623796 -1.089066 0.285619
v 4.588231 -0.989245 0.408870
v 4.517101 -0.789604 0.408870
v 2.445451 -0.086431 0.285617
v 2.448569 -0.192352 0.102077
v 2.454805 -0.404194 0.102077
v 2.457922 -0.510115 0.285617
v 2.454804 -0.404194 0.469158
v 2.448569 -0.192352 0.469158
v -0.771966 -1.172367 0.177337
v -0.670540 -1.099259 0.177337
v -0.619827 -1.062705 0.285615
v -0.670540 -1.099259 0.393892
v -0.771966 -1.172367 0.393892
v -0.822679 -1.208921 0.285615
v -0.914307 -0.611606 0.157663
v -0.913276 -0.759348 0.157663
v -0.912761 -0.833220 0.285615
v -0.913277 -0.759348 0.413567
v -0.914307 -0.611606 0.413567
v -0.914822 -0.537734 0.285615
v 0.507267 0.231213 0.120033
v 0.674399 0.138347 0.120033
v 0.757965 0.091914 0.285616
v 0.674399 0.138347 0.451199
v 0.507267 0.231213 0.451199
v 0.423701 0.277646 0.285616
v -1.267924 -1.270289 0.197012
v -1.276413 -1.372246 0.197012
v -1.280657 -1.423225 0.285614
v -1.276413 -1.372246 0.374217
v -1.267924 -1.270289 0.374217
v -1.263680 -1.219311 0.285614
v 5.048603 -0.623153 0.383760
v 5.598290 0.039283 0.285619
v 5.688665 -0.087716 0.162368
v 5.869850 -0.343482 0.162368
v 5.959977 -0.471387 0.285619
v 5.870189 -0.344856 0.408870
v 5.688665 -0.087716 0.408870
v 5.838400 0.148896 0.269355
v 5.914307 0.042228 0.177369
v 6.066120 -0.171109 0.177369
v 6.142028 -0.277778 0.269355
v 6.066120 -0.171109 0.361341
v 5.914307 0.042228 0.361341
vt 0.485931 0.262946
vt 0.521451 0.001567
vt 0.584202 -0.052384
vt 0.615662 0.676101
vt 0.584202 0.545412
vt 0.584202 0.437509
vt 0.615662 0.306819
vt 0.485931 0.122178
vt 0.485931 0.719975
vt 0.521451 0.981354
vt 0.458700 1.035305
vt 0.521451 0.599363
vt 0.458700 0.545412
vt 0.356199 0.676101
vt 0.485931 0.860742
vt 0.356199 0.306819
vt 0.458700 0.437509
vt 0.462992 0.253457
vt 0.462992 0.051795
vt 0.324580 0.372459
vt 0.462992 0.507211
vt 0.462992 0.581936
vt 0.709427 0.581936
vt 0.546676 0.507211
vt 0.554128 0.581936
vt 0.277021 0.507211
vt 0.696520 0.507211
vt 0.229463 0.507211
vt 0.216556 0.581936
vt 0.269568 0.581936
vt 0.462992 0.656660
vt 0.462992 0.731385
vt 0.721845 0.656660
vt 0.561297 0.656660
vt 0.561297 0.731385
vt 0.262399 0.656660
vt 0.124049 0.656660
vt 0.124049 0.731385
vt -0.134804 0.656660
vt 0.204138 0.731385
vt 0.204138 0.656660
vt 0.262399 0.731385
vt 0.462991 0.375434
vt 0.462992 0.432487
vt 0.643447 0.375434
vt 0.516034 0.375434
vt 0.532054 0.432487
vt 0.307662 0.375434
vt 0.671195 0.432487
vt 0.282536 0.375434
vt 0.254789 0.432487
vt 0.291642 0.432487
vt 0.462992 0.806109
vt 0.636817 0.806109
vt 0.124049 0.640909
vt 0.039021 0.640909
vt 0.039021 0.342011
vt 0.039021 0.806109
vt -0.134804 0.806109
vt 0.289167 0.806109
vt 0.204138 0.342011
vt 0.289167 0.342011
vt 0.204138 0.640909
vt 0.462991 0.261329
vt 0.462991 0.318382
vt 0.615699 0.318382
vt 0.483994 0.261329
vt 0.500014 0.318382
vt 0.339703 0.261329
vt 0.587950 0.261329
vt 0.338031 0.261329
vt 0.310284 0.318382
vt 0.323682 0.318382
vt 0.601404 0.372459
vt 0.636817 0.271627
vt 0.530850 0.245675
vt 0.631681 0.302368
vt 0.292846 0.245675
vt 0.462992 0.729464
vt 0.462992 0.931126
vt 0.601404 0.610462
vt 0.262399 0.208313
vt 0.561297 0.208313
vt 0.289167 0.640909
vt 0.324580 0.610462
vt 0.462992 0.790358
vt 0.462992 0.851253
vt 0.324580 0.970255
vt 0.636817 0.342011
vt 0.462992 0.192562
vt 0.462990 0.491460
vt 0.462991 0.635751
vt 0.587950 0.563606
vt 0.587950 0.419315
vt 0.462991 0.347170
vt 0.338031 0.419315
vt 0.338031 0.563606
vt 0.289167 0.711293
vt 0.192015 0.302368
vt 0.462992 0.333330
vt 0.615662 0.078305
vt 0.636817 0.711293
vt 0.462992 0.649591
vt 0.356199 0.904616
vt 0.289167 0.271628
vt 0.521451 0.383558
vt 0.721845 0.731385
vt -0.134804 0.731385
vt 0.124049 0.342011
vt 0.289167 0.939807
vt 0.636817 0.640909
vt 0.636817 0.113497
vt 0.289167 0.869424
vn -0.229225 0.973296 -0.011567
vn 0.375042 0.926328 -0.034394
vn 0.473312 0.578906 -0.663930
vn -0.057436 0.358715 -0.931669
vn 0.702017 0.257485 -0.663930
vn 0.320444 -0.170568 -0.931761
vn 0.846522 -0.532182 -0.011597
vn 0.998108 0.050813 -0.034394
vn 0.754387 0.309458 0.578875
vn 0.539567 0.611316 0.578875
vn 0.071688 0.430097 0.899899
vn 0.430219 -0.071810 0.899838
vn 0.416883 -0.908933 0.000000
vn 0.614277 -0.788965 0.011200
vn 0.185827 -0.389843 0.901914
vn -0.450484 0.892758 0.000000
vn 0.175726 0.984436 0.000000
vn 0.087588 0.506333 -0.857845
vn -0.144749 0.664846 -0.732780
vn 0.078890 -0.340403 -0.936949
vn -0.173162 -0.505020 -0.845515
vn -0.345286 -0.938475 0.000000
vn -0.087344 -0.996155 0.000000
vn 0.078890 -0.340403 0.936949
vn -0.144749 0.664846 0.732810
vn 0.087588 0.506333 0.857845
vn -0.173162 -0.505020 0.845515
vn 0.156072 0.987732 0.000000
vn 0.302805 0.953032 0.000000
vn 0.074038 0.491562 -0.867672
vn 0.166509 0.505051 -0.846858
vn -0.087985 -0.504593 -0.858821
vn -0.102084 -0.457228 -0.883450
vn -0.163335 -0.986541 0.000000
vn -0.234352 -0.972137 0.000000
vn -0.102084 -0.457228 0.883450
vn 0.074038 0.491562 0.867672
vn 0.166509 0.505051 0.846858
vn -0.087985 -0.504593 0.858821
vn -0.686972 0.726646 0.000000
vn -0.578631 0.815546 0.000000
vn -0.711539 0.299173 -0.635701
vn -0.191748 0.339518 -0.920835
vn 0.557451 -0.688223 0.464278
vn 0.287637 -0.539567 -0.791253
vn 0.999817 -0.017487 0.000000
vn 0.371502 -0.928404 0.000000
vn 0.375866 -0.785821 -0.491073
vn -0.711325 0.301035 0.635090
vn -0.191748 0.339518 0.920835
vn 0.287637 -0.539567 0.791253
vn 0.180578 0.983551 0.000000
vn 0.063570 0.359203 -0.931059
vn 0.002380 -0.506668 -0.862117
vn 0.071871 -0.997406 0.000000
vn 0.063570 0.359203 0.931059
vn 0.002380 -0.506668 0.862117
vn 0.098727 0.995086 0.000000
vn -0.575823 0.817530 0.000000
vn -0.803400 0.239784 0.544969
vn -0.005829 0.420179 -0.907407
vn -0.015107 -0.599109 -0.800501
vn 0.670003 -0.378643 -0.638478
vn 0.996948 -0.077700 0.000000
vn -0.019379 -0.999786 0.000000
vn -0.014069 -0.598437 0.801019
vn -0.003357 0.419111 0.907895
vn -0.802423 0.290872 -0.521012
vn 0.672109 -0.380291 0.635304
vn 0.185858 -0.389843 -0.901914
vn 0.210364 -0.271065 -0.939268
vn -0.177679 0.324931 -0.928861
vn -0.184820 0.287637 -0.939726
vn -0.523331 0.852107 0.000000
vn -0.540269 0.841365 0.012818
vn -0.177679 0.324931 0.928861
vn -0.899106 0.437666 -0.000061
vn -0.136418 0.316050 0.938871
vn 0.254524 -0.236946 0.937559
usemtl scale
s 1
f 74/1/1 2/2/2 4/3/3
f 75/4/4 4/5/3 6/6/5
f 76/7/6 6/6/5 77/8/7
f 77/9/7 8/10/8 10/11/9
f 4/5/3 2/12/2 12/13/10
f 79/14/11 12/13/10 74/15/1
f 78/16/12 10/17/9 79/14/11
f 5/18/13 71/19/14 3/20/15
f 60/21/16 13/22/17 14/23/18
f 55/24/19 14/25/18 56/26/20
f 56/27/20 15/23/21 16/22/22
f 57/21/23 16/22/22 58/28/24
f 59/28/25 18/29/26 60/21/16
f 58/26/24 17/30/27 18/25/26
f 37/31/28 19/32/29 38/33/30
f 38/34/30 20/35/31 39/36/32
f 39/37/32 21/38/33 40/39/34
f 40/31/34 22/32/35 23/40/36
f 42/41/37 24/40/38 19/32/29
f 41/36/39 23/42/36 24/35/38
f 54/43/40 30/44/41 49/45/42
f 49/46/42 25/47/43 50/48/44
f 50/45/44 26/49/45 51/43/46
f 51/43/46 27/44/47 52/50/48
f 53/50/49 29/51/50 30/44/41
f 52/48/48 28/52/51 53/46/49
f 19/32/29 31/53/52 32/54/53
f 20/55/31 32/56/53 33/57/54
f 21/38/33 33/58/54 34/59/55
f 22/32/35 34/53/55 23/40/36
f 24/40/38 36/60/56 19/32/29
f 23/61/36 35/62/57 24/63/38
f 13/22/17 37/31/28 14/23/18
f 14/25/18 38/34/30 15/30/21
f 15/23/21 39/33/32 16/22/22
f 16/22/22 40/31/34 41/41/39
f 18/29/26 42/41/37 37/31/28
f 17/30/27 41/36/39 42/34/37
f 66/64/58 48/65/59 43/66/60
f 61/67/61 43/68/60 62/69/62
f 62/70/62 44/66/63 45/65/64
f 63/64/65 45/65/64 64/71/66
f 65/71/67 47/72/68 66/64/58
f 64/69/66 46/73/69 65/67/67
f 48/65/59 54/43/40 43/66/60
f 43/68/60 49/46/42 44/73/63
f 44/66/63 50/45/44 45/65/64
f 45/65/64 51/43/46 52/50/48
f 47/72/68 53/50/49 54/43/40
f 46/73/69 52/48/48 47/68/68
f 30/44/41 60/21/16 25/49/43
f 25/47/43 55/24/19 26/52/45
f 26/49/45 56/27/20 27/44/47
f 27/44/47 57/21/23 58/28/24
f 29/51/50 59/28/25 60/21/16
f 28/52/51 58/26/24 59/24/25
f 7/74/70 70/75/71 71/19/14
f 9/76/72 69/77/73 7/78/70
f 11/79/74 68/80/75 9/81/72
f 35/82/57 3/78/15 36/83/56
f 36/84/56 67/85/76 31/86/52
f 34/86/55 5/87/13 3/88/15
f 33/89/54 7/74/70 34/90/55
f 32/83/53 9/76/72 33/82/54
f 31/86/52 11/79/74 9/81/72
f 1/91/77 66/92/58 61/93/61
f 1/91/77 61/93/61 62/94/62
f 1/91/77 62/94/62 63/95/65
f 1/91/77 63/95/65 64/96/66
f 1/91/77 65/97/67 66/92/58
f 1/91/77 64/96/66 65/97/67
f 67/85/76 73/98/78 68/80/75
f 3/78/15 72/99/79 73/77/78
f 68/100/75 74/1/1 75/101/4
f 69/102/73 75/4/4 70/75/71
f 70/75/71 76/7/6 71/19/14
f 71/103/14 77/9/7 78/104/12
f 73/98/78 79/14/11 68/80/75
f 72/105/79 78/16/12 79/14/11
f 75/101/4 74/1/1 4/3/3
f 76/7/6 75/4/4 6/6/5
f 6/6/5 8/106/8 77/8/7
f 78/104/12 77/9/7 10/11/9
f 8/106/8 6/6/5 10/17/9
f 6/6/5 4/5/3 10/17/9
f 4/5/3 12/13/10 10/17/9
f 12/13/10 2/12/2 74/15/1
f 10/17/9 12/13/10 79/14/11
f 71/19/14 72/105/79 3/20/15
f 55/27/19 60/21/16 14/23/18
f 14/25/18 15/30/21 56/26/20
f 57/21/23 56/27/20 16/22/22
f 16/22/22 17/29/27 58/28/24
f 18/29/26 13/22/17 60/21/16
f 59/24/25 58/26/24 18/25/26
f 19/32/29 20/107/31 38/33/30
f 20/35/31 21/42/33 39/36/32
f 21/38/33 22/108/35 40/39/34
f 41/41/39 40/31/34 23/40/36
f 37/31/28 42/41/37 19/32/29
f 42/34/37 41/36/39 24/35/38
f 30/44/41 25/49/43 49/45/42
f 25/47/43 26/52/45 50/48/44
f 26/49/45 27/44/47 51/43/46
f 27/44/47 28/51/51 52/50/48
f 54/43/40 53/50/49 30/44/41
f 28/52/51 29/47/50 53/46/49
f 20/107/31 19/32/29 32/54/53
f 21/109/33 20/55/31 33/57/54
f 22/108/35 21/38/33 34/59/55
f 34/53/55 35/60/57 23/40/36
f 36/60/56 31/53/52 19/32/29
f 35/62/57 36/84/56 24/63/38
f 37/31/28 38/33/30 14/23/18
f 38/34/30 39/36/32 15/30/21
f 39/33/32 40/31/34 16/22/22
f 17/29/27 16/22/22 41/41/39
f 13/22/17 18/29/26 37/31/28
f 18/25/26 17/30/27 42/34/37
f 61/70/61 66/64/58 43/66/60
f 43/68/60 44/73/63 62/69/62
f 63/64/65 62/70/62 45/65/64
f 45/65/64 46/72/69 64/71/66
f 47/72/68 48/65/59 66/64/58
f 46/73/69 47/68/68 65/67/67
f 54/43/40 49/45/42 43/66/60
f 49/46/42 50/48/44 44/73/63
f 50/45/44 51/43/46 45/65/64
f 46/72/69 45/65/64 52/50/48
f 48/65/59 47/72/68 54/43/40
f 52/48/48 53/46/49 47/68/68
f 60/21/16 55/27/19 25/49/43
f 55/24/19 56/26/20 26/52/45
f 56/27/20 57/21/23 27/44/47
f 28/51/51 27/44/47 58/28/24
f 30/44/41 29/51/50 60/21/16
f 29/47/50 28/52/51 59/24/25
f 5/18/13 7/74/70 71/19/14
f 69/77/73 70/99/71 7/78/70
f 68/80/75 69/102/73 9/81/72
f 3/78/15 67/76/76 36/83/56
f 67/85/76 11/79/74 31/86/52
f 35/110/57 34/86/55 3/88/15
f 7/74/70 5/18/13 34/90/55
f 9/76/72 7/78/70 33/82/54
f 32/111/53 31/86/52 9/81/72
f 11/79/74 67/85/76 68/80/75
f 67/76/76 3/78/15 73/77/78
f 69/112/73 68/100/75 75/101/4
f 75/4/4 76/7/6 70/75/71
f 76/7/6 77/8/7 71/19/14
f 72/113/79 71/103/14 78/104/12
f 79/14/11 74/15/1 68/80/75
f 73/98/78 72/105/79 79/14/11
