# Blender v2.69 (sub 0) OBJ File: 'snake.blend'
# www.blender.org
mtllib snake_000037.mtl
o Cylinder
v -2.251270 -2.440416 0.285614
v 1.173039 -3.566648 0.244169
v 1.840424 -2.391133 0.383760
v 1.142043 -3.544229 0.199676
v 1.788131 -2.324912 0.285619
v 1.080050 -3.499391 0.199676
v 1.840424 -2.391133 0.187478
v 1.049054 -3.476972 0.244169
v 1.945009 -2.523574 0.187478
v 1.080049 -3.499392 0.288663
v 1.997302 -2.589796 0.285619
v 1.142043 -3.544229 0.288663
v 1.347490 0.864586 0.285617
v 1.349299 0.763718 0.110881
v 1.352918 0.561984 0.110881
v 1.354727 0.461116 0.285617
v 1.352918 0.561984 0.460352
v 1.349299 0.763718 0.460352
v 2.345951 -1.027964 0.285618
v 2.241656 -1.046717 0.102078
v 2.033068 -1.084224 0.102078
v 1.928773 -1.102977 0.285618
v 2.033067 -1.084223 0.469158
v 2.241656 -1.046717 0.469158
v -0.086139 -0.425622 0.137989
v -0.057814 -0.593717 0.137989
v -0.043652 -0.677765 0.285615
v -0.057814 -0.593717 0.433242
v -0.086139 -0.425622 0.433242
v -0.100302 -0.341575 0.285615
v 2.460835 -2.278773 0.285619
v 2.395163 -2.195610 0.162368
v 2.263819 -2.029282 0.162368
v 2.198148 -1.946118 0.285619
v 2.263820 -2.029282 0.408870
v 2.395164 -2.195609 0.408870
v 2.094985 0.068429 0.285617
v 1.992333 0.042131 0.102077
v 1.787029 -0.010464 0.102077
v 1.684377 -0.036762 0.285617
v 1.787029 -0.010464 0.469158
v 1.992332 0.042132 0.469158
v -0.771966 -1.172367 0.177337
v -0.670540 -1.099259 0.177337
v -0.619827 -1.062705 0.285615
v -0.670540 -1.099259 0.393892
v -0.771966 -1.172367 0.393892
v -0.822679 -1.208921 0.285615
v -0.922274 -0.578036 0.157663
v -0.897724 -0.723728 0.157663
v -0.885449 -0.796574 0.285615
v -0.897724 -0.723728 0.413567
v -0.922274 -0.578036 0.413567
v -0.934549 -0.505190 0.285615
v 0.346906 0.480453 0.120033
v 0.526696 0.415394 0.120033
v 0.616591 0.382864 0.285616
v 0.526696 0.415393 0.451199
v 0.346906 0.480452 0.451199
v 0.257011 0.512982 0.285616
v -1.259479 -1.452243 0.197012
v -1.238844 -1.552450 0.197012
v -1.228526 -1.602553 0.285614
v -1.238844 -1.552450 0.374217
v -1.259479 -1.452243 0.374217
v -1.269797 -1.402139 0.285614
v 1.945009 -2.523575 0.383760
v 1.636537 -3.327206 0.285619
v 1.510237 -3.235857 0.162368
v 1.256658 -3.051624 0.162368
v 1.130302 -2.959338 0.285619
v 1.255897 -3.050431 0.408870
v 1.510238 -3.235857 0.408870
v 1.444205 -3.507970 0.269355
v 1.338124 -3.431245 0.177369
v 1.125962 -3.277794 0.177369
v 1.019881 -3.201068 0.269355
v 1.125962 -3.277794 0.361341
v 1.338124 -3.431244 0.361341
vt 0.485931 0.262946
vt 0.521451 0.001567
vt 0.584202 -0.052384
vt 0.615662 0.676101
vt 0.584202 0.545412
vt 0.615662 0.306819
vt 0.584202 0.437509
vt 0.485931 0.122178
vt 0.485931 0.719975
vt 0.521451 0.981354
vt 0.458700 1.035305
vt 0.521451 0.599363
vt 0.458700 0.545412
vt 0.356199 0.676101
vt 0.485931 0.860742
vt 0.356199 0.306819
vt 0.458700 0.437509
vt 0.462992 0.253457
vt 0.462992 0.051795
vt 0.324580 0.372459
vt 0.462992 0.507211
vt 0.462992 0.581936
vt 0.709427 0.581936
vt 0.546676 0.507211
vt 0.554128 0.581936
vt 0.269568 0.581936
vt 0.696520 0.507211
vt 0.229463 0.507211
vt 0.216556 0.581936
vt 0.277021 0.507211
vt 0.462992 0.656660
vt 0.462992 0.731385
vt 0.721845 0.656660
vt 0.561297 0.656660
vt 0.561297 0.731385
vt 0.262399 0.656660
vt 0.124049 0.656660
vt 0.124049 0.731385
vt -0.134804 0.656660
vt 0.204138 0.731385
vt 0.204138 0.656660
vt 0.262399 0.731385
vt 0.462991 0.375434
vt 0.462992 0.432487
vt 0.643447 0.375434
vt 0.516034 0.375434
vt 0.532054 0.432487
vt 0.307662 0.375434
vt 0.671195 0.432487
vt 0.282536 0.375434
vt 0.254789 0.432487
vt 0.291642 0.432487
vt 0.462992 0.806109
vt 0.721845 0.731385
vt 0.124049 0.640909
vt 0.039021 0.640909
vt 0.039021 0.342011
vt 0.039021 0.806109
vt -0.134804 0.731385
vt 0.289167 0.806109
vt 0.204138 0.342011
vt 0.289167 0.342011
vt 0.204138 0.640909
vt 0.462991 0.261329
vt 0.462991 0.318382
vt 0.615699 0.318382
vt 0.483994 0.261329
vt 0.500014 0.318382
vt 0.339703 0.261329
vt 0.587950 0.261329
vt 0.338031 0.261329
vt 0.310284 0.318382
vt 0.323682 0.318382
vt 0.601404 0.372459
vt 0.636817 0.271627
vt 0.530850 0.245675
vt 0.631681 0.302368
vt 0.292846 0.245675
vt 0.462992 0.729464
vt 0.462992 0.931126
vt 0.601404 0.610462
vt 0.262399 0.208313
vt 0.561297 0.208313
vt 0.289167 0.640909
vt 0.324580 0.610462
vt 0.462992 0.790358
vt 0.462992 0.851253
vt 0.324580 0.970255
vt 0.636817 0.342011
vt 0.462992 0.192562
vt 0.462990 0.491460
vt 0.462991 0.635751
vt 0.587950 0.563606
vt 0.587950 0.419315
vt 0.462991 0.347170
vt 0.338031 0.419315
vt 0.338031 0.563606
vt 0.289167 0.711293
vt 0.192015 0.302368
vt 0.462992 0.333330
vt 0.615662 0.078305
vt 0.636817 0.711293
vt 0.462992 0.649591
vt 0.356199 0.904616
vt 0.289167 0.271628
vt 0.521451 0.383558
vt 0.636817 0.806109
vt 0.124049 0.342011
vt -0.134804 0.806109
vt 0.289167 0.939807
vt 0.636817 0.640909
vt 0.636817 0.113497
vt 0.289167 0.869424
vn 0.528977 -0.848537 -0.011567
vn -0.058504 -0.997681 -0.034394
vn -0.262886 -0.700034 -0.663930
vn 0.169317 -0.321390 -0.931669
vn -0.358196 0.058901 -0.931761
vn -0.582507 -0.468825 -0.663930
vn -0.972411 0.232887 -0.011597
vn -0.929197 -0.367931 -0.034394
vn -0.615467 -0.534867 0.578875
vn -0.315256 -0.751976 0.578875
vn 0.069857 -0.430403 0.899899
vn -0.430555 -0.069796 0.899838
vn -0.686117 0.727439 0.000000
vn -0.834681 0.550554 0.011200
vn -0.300943 0.309763 0.901914
vn -0.694235 0.719718 0.000000
vn 0.221503 0.975158 0.000000
vn 0.199011 0.590747 -0.781884
vn -0.366771 0.498581 -0.785394
vn -0.131718 -0.329051 -0.935057
vn 0.235115 -0.338145 -0.911222
vn -0.485031 -0.874477 0.000000
vn 0.439802 -0.898068 0.000000
vn 0.235115 -0.338145 0.911222
vn -0.366771 0.498581 0.785394
vn 0.199011 0.590747 0.781884
vn -0.131718 -0.329051 0.935057
vn 0.890713 0.454512 0.000000
vn 0.987426 0.158055 0.000000
vn 0.490951 0.276925 -0.825983
vn 0.503800 0.063540 -0.861446
vn -0.410047 -0.180090 -0.894070
vn -0.479080 -0.140294 -0.866451
vn -0.903867 -0.427778 0.000000
vn -0.968596 -0.248573 0.000000
vn -0.479080 -0.140294 0.866451
vn 0.490951 0.276925 0.825983
vn 0.503800 0.063540 0.861446
vn -0.410047 -0.180090 0.894070
vn -0.757927 0.652303 0.000000
vn -0.701163 0.712973 0.000000
vn -0.703360 0.250099 -0.665334
vn -0.243355 0.304636 -0.920835
vn 0.565722 -0.681509 0.464217
vn 0.369915 -0.486862 -0.791253
vn 0.999847 -0.016236 0.000000
vn 0.514634 -0.857387 0.000000
vn -0.171636 -0.931883 -0.319498
vn -0.703299 0.251686 0.664815
vn -0.243355 0.304636 0.920835
vn 0.369915 -0.486862 0.791253
vn 0.871487 -0.490341 0.000000
vn 0.531510 -0.174444 -0.828852
vn -0.329264 0.064028 -0.942045
vn -0.997497 0.070528 0.000000
vn -0.329264 0.064028 0.942045
vn 0.531510 -0.174444 0.828852
vn -0.603931 0.796991 0.000000
vn -0.760186 0.649648 0.000000
vn -0.230598 -0.120823 -0.965484
vn -0.376629 0.414960 -0.828211
vn 0.307077 -0.410169 -0.858730
vn 0.676290 -0.273476 -0.683981
vn 0.999481 -0.031800 0.000000
vn 0.646443 -0.762932 0.000000
vn 0.307077 -0.410199 0.858730
vn -0.376629 0.414960 0.828211
vn -0.230934 -0.123356 0.965087
vn 0.678732 -0.274880 0.680960
vn -0.300974 0.309732 -0.901914
vn -0.286111 0.189367 -0.939268
vn 0.272439 -0.250862 -0.928861
vn 0.267251 -0.213263 -0.939726
vn 0.768761 -0.639485 0.000000
vn 0.781365 -0.623890 0.012818
vn 0.272439 -0.250862 0.928861
vn -0.731376 -0.681967 0.000092
vn 0.230476 -0.255684 0.938871
vn -0.317026 0.142918 0.937559
usemtl scale
s 1
f 74/1/1 2/2/2 4/3/3
f 75/4/4 4/5/3 76/6/5
f 76/6/5 6/7/6 77/8/7
f 77/9/7 8/10/8 10/11/9
f 4/5/3 2/12/2 12/13/10
f 79/14/11 12/13/10 74/15/1
f 78/16/12 10/17/9 79/14/11
f 5/18/13 71/19/14 3/20/15
f 60/21/16 13/22/17 14/23/18
f 55/24/19 14/25/18 15/26/20
f 56/27/21 15/23/20 16/22/22
f 57/21/23 16/22/22 58/28/24
f 59/28/25 18/29/26 60/21/16
f 58/30/24 17/26/27 59/24/25
f 37/31/28 19/32/29 38/33/30
f 38/34/30 20/35/31 39/36/32
f 39/37/32 21/38/33 40/39/34
f 40/31/34 22/32/35 23/40/36
f 42/41/37 24/40/38 19/32/29
f 41/36/39 23/42/36 24/35/38
f 54/43/40 30/44/41 49/45/42
f 49/46/42 25/47/43 50/48/44
f 50/45/44 26/49/45 51/43/46
f 51/43/46 27/44/47 52/50/48
f 53/50/49 29/51/50 54/43/40
f 52/48/48 28/52/51 53/46/49
f 19/32/29 31/53/52 20/54/31
f 20/55/31 32/56/53 33/57/54
f 21/38/33 33/58/54 22/59/35
f 22/32/35 34/53/55 35/60/56
f 24/40/38 36/60/57 31/53/52
f 23/61/36 35/62/56 24/63/38
f 13/22/17 37/31/28 38/33/30
f 14/25/18 38/34/30 39/36/32
f 15/23/20 39/33/32 40/31/34
f 16/22/22 40/31/34 17/29/27
f 18/29/26 42/41/37 13/22/17
f 17/26/27 41/36/39 18/25/26
f 66/64/58 48/65/59 43/66/60
f 61/67/61 43/68/60 62/69/62
f 62/70/62 44/66/63 45/65/64
f 63/64/65 45/65/64 64/71/66
f 65/71/67 47/72/68 66/64/58
f 64/69/66 46/73/69 47/68/68
f 48/65/59 54/43/40 43/66/60
f 43/68/60 49/46/42 44/73/63
f 44/66/63 50/45/44 45/65/64
f 45/65/64 51/43/46 52/50/48
f 47/72/68 53/50/49 54/43/40
f 46/73/69 52/48/48 47/68/68
f 30/44/41 60/21/16 25/49/43
f 25/47/43 55/24/19 26/52/45
f 26/49/45 56/27/21 27/44/47
f 27/44/47 57/21/23 58/28/24
f 29/51/50 59/28/25 60/21/16
f 28/52/51 58/30/24 59/24/25
f 7/74/70 70/75/71 71/19/14
f 9/76/72 69/77/73 7/78/70
f 11/79/74 68/80/75 9/81/72
f 35/82/56 3/78/15 36/83/57
f 36/84/57 67/85/76 31/86/52
f 34/86/55 5/87/13 3/88/15
f 33/89/54 7/74/70 34/90/55
f 32/83/53 9/76/72 33/82/54
f 31/86/52 11/79/74 9/81/72
f 1/91/77 66/92/58 61/93/61
f 1/91/77 61/93/61 62/94/62
f 1/91/77 62/94/62 63/95/65
f 1/91/77 63/95/65 64/96/66
f 1/91/77 65/97/67 66/92/58
f 1/91/77 64/96/66 65/97/67
f 67/85/76 73/98/78 68/80/75
f 3/78/15 72/99/79 73/77/78
f 68/100/75 74/1/1 75/101/4
f 69/102/73 75/4/4 70/75/71
f 70/75/71 76/6/5 71/19/14
f 71/103/14 77/9/7 78/104/12
f 73/98/78 79/14/11 68/80/75
f 72/105/79 78/16/12 79/14/11
f 75/101/4 74/1/1 4/3/3
f 4/5/3 6/7/6 76/6/5
f 6/7/6 8/106/8 77/8/7
f 78/104/12 77/9/7 10/11/9
f 4/5/3 12/13/10 10/17/9
f 6/7/6 4/5/3 8/106/8
f 4/5/3 10/17/9 8/106/8
f 12/13/10 2/12/2 74/15/1
f 10/17/9 12/13/10 79/14/11
f 71/19/14 72/105/79 3/20/15
f 55/27/19 60/21/16 14/23/18
f 56/30/21 55/24/19 15/26/20
f 57/21/23 56/27/21 16/22/22
f 16/22/22 17/29/27 58/28/24
f 18/29/26 13/22/17 60/21/16
f 17/26/27 18/25/26 59/24/25
f 19/32/29 20/54/31 38/33/30
f 20/35/31 21/42/33 39/36/32
f 21/38/33 22/59/35 40/39/34
f 41/41/39 40/31/34 23/40/36
f 37/31/28 42/41/37 19/32/29
f 42/34/37 41/36/39 24/35/38
f 30/44/41 25/49/43 49/45/42
f 25/47/43 26/52/45 50/48/44
f 26/49/45 27/44/47 51/43/46
f 27/44/47 28/51/51 52/50/48
f 29/51/50 30/44/41 54/43/40
f 28/52/51 29/47/50 53/46/49
f 31/53/52 32/107/53 20/54/31
f 21/108/33 20/55/31 33/57/54
f 33/58/54 34/109/55 22/59/35
f 23/40/36 22/32/35 35/60/56
f 19/32/29 24/40/38 31/53/52
f 35/62/56 36/84/57 24/63/38
f 14/23/18 13/22/17 38/33/30
f 15/26/20 14/25/18 39/36/32
f 16/22/22 15/23/20 40/31/34
f 40/31/34 41/41/39 17/29/27
f 42/41/37 37/31/28 13/22/17
f 41/36/39 42/34/37 18/25/26
f 61/70/61 66/64/58 43/66/60
f 43/68/60 44/73/63 62/69/62
f 63/64/65 62/70/62 45/65/64
f 45/65/64 46/72/69 64/71/66
f 47/72/68 48/65/59 66/64/58
f 65/67/67 64/69/66 47/68/68
f 54/43/40 49/45/42 43/66/60
f 49/46/42 50/48/44 44/73/63
f 50/45/44 51/43/46 45/65/64
f 46/72/69 45/65/64 52/50/48
f 48/65/59 47/72/68 54/43/40
f 52/48/48 53/46/49 47/68/68
f 60/21/16 55/27/19 25/49/43
f 55/24/19 56/30/21 26/52/45
f 56/27/21 57/21/23 27/44/47
f 28/51/51 27/44/47 58/28/24
f 30/44/41 29/51/50 60/21/16
f 29/47/50 28/52/51 59/24/25
f 5/18/13 7/74/70 71/19/14
f 69/77/73 70/99/71 7/78/70
f 68/80/75 69/102/73 9/81/72
f 3/78/15 67/76/76 36/83/57
f 67/85/76 11/79/74 31/86/52
f 35/110/56 34/86/55 3/88/15
f 7/74/70 5/18/13 34/90/55
f 9/76/72 7/78/70 33/82/54
f 32/111/53 31/86/52 9/81/72
f 11/79/74 67/85/76 68/80/75
f 67/76/76 3/78/15 73/77/78
f 69/112/73 68/100/75 75/101/4
f 75/4/4 76/6/5 70/75/71
f 76/6/5 77/8/7 71/19/14
f 72/113/79 71/103/14 78/104/12
f 79/14/11 74/15/1 68/80/75
f 73/98/78 72/105/79 79/14/11
