# Blender v2.69 (sub 0) OBJ File: 'snake.blend'
# www.blender.org
mtllib snake_000005.mtl
o Cylinder
v -2.251254 -2.440432 0.285614
v 5.722583 -1.660940 0.244169
v 4.582564 -0.934582 0.383760
v 5.698615 -1.690755 0.199676
v 4.513767 -0.983436 0.285619
v 5.650680 -1.750385 0.199676
v 4.582564 -0.934582 0.187478
v 5.626712 -1.780200 0.244169
v 4.720159 -0.836874 0.187478
v 5.650680 -1.750385 0.288663
v 4.788955 -0.788020 0.285619
v 5.698615 -1.690755 0.288663
v 1.245357 0.245221 0.285617
v 1.179869 0.168483 0.110881
v 1.048892 0.015006 0.110881
v 0.983404 -0.061732 0.285617
v 1.048892 0.015006 0.460352
v 1.179869 0.168483 0.460352
v 3.272586 -0.151434 0.285618
v 3.265834 -0.257186 0.102078
v 3.252330 -0.468689 0.102078
v 3.245577 -0.574440 0.285618
v 3.252329 -0.468689 0.469158
v 3.265834 -0.257186 0.469158
v -0.086140 -0.425620 0.137989
v -0.057815 -0.593715 0.137989
v -0.043652 -0.677762 0.285615
v -0.057815 -0.593715 0.433242
v -0.086141 -0.425620 0.433242
v -0.100303 -0.341572 0.285615
v 4.501931 -0.309255 0.285619
v 4.415532 -0.370609 0.162368
v 4.242735 -0.493316 0.162368
v 4.156336 -0.554669 0.285619
v 4.242735 -0.493316 0.408870
v 4.415533 -0.370609 0.408870
v 2.172467 -0.047981 0.285617
v 2.160837 -0.153308 0.102077
v 2.137576 -0.363961 0.102077
v 2.125945 -0.469288 0.285617
v 2.137575 -0.363961 0.469158
v 2.160836 -0.153308 0.469158
v -0.771966 -1.172367 0.177337
v -0.670540 -1.099259 0.177337
v -0.619827 -1.062705 0.285615
v -0.670540 -1.099259 0.393892
v -0.771966 -1.172367 0.393892
v -0.822679 -1.208921 0.285615
v -0.922274 -0.578035 0.157663
v -0.897723 -0.723728 0.157663
v -0.885448 -0.796574 0.285615
v -0.897724 -0.723728 0.413567
v -0.922275 -0.578035 0.413567
v -0.934550 -0.505189 0.285615
v 0.346903 0.480456 0.120033
v 0.526693 0.415397 0.120033
v 0.616588 0.382868 0.285616
v 0.526693 0.415397 0.451199
v 0.346902 0.480456 0.451199
v 0.257007 0.512985 0.285616
v -1.259479 -1.452245 0.197012
v -1.238843 -1.552452 0.197012
v -1.228525 -1.602556 0.285614
v -1.238843 -1.552452 0.374217
v -1.259479 -1.452245 0.374217
v -1.269797 -1.402142 0.285614
v 4.720159 -0.836874 0.383760
v 5.507046 -1.185853 0.285619
v 5.409386 -1.307340 0.162368
v 5.212482 -1.551212 0.162368
v 5.113885 -1.672706 0.285619
v 5.211254 -1.551911 0.408870
v 5.409386 -1.307340 0.408870
v 5.677785 -1.387138 0.269355
v 5.595758 -1.489176 0.177369
v 5.431706 -1.693252 0.177369
v 5.349681 -1.795290 0.269355
v 5.431706 -1.693252 0.361341
v 5.595758 -1.489176 0.361341
vt 0.485931 0.262946
vt 0.521451 0.001567
vt 0.584202 -0.052384
vt 0.615662 0.676101
vt 0.584202 0.545412
vt 0.615662 0.306819
vt 0.584202 0.437509
vt 0.485931 0.122178
vt 0.485931 0.719975
vt 0.521451 0.981354
vt 0.458700 1.035305
vt 0.458700 0.437509
vt 0.521451 0.383558
vt 0.356199 0.676101
vt 0.458700 0.545412
vt 0.485931 0.860742
vt 0.356199 0.306819
vt 0.462992 0.253457
vt 0.462992 0.051795
vt 0.324580 0.372459
vt 0.462992 0.507211
vt 0.462992 0.581936
vt 0.709427 0.581936
vt 0.546676 0.507211
vt 0.554128 0.581936
vt 0.269568 0.581936
vt 0.696520 0.507211
vt 0.229463 0.507211
vt 0.216556 0.581936
vt 0.277021 0.507211
vt 0.462992 0.656660
vt 0.462992 0.731385
vt 0.721845 0.731385
vt 0.561297 0.656660
vt 0.561297 0.731385
vt 0.262399 0.731385
vt 0.124049 0.656660
vt 0.124049 0.731385
vt -0.134804 0.731385
vt 0.204138 0.656660
vt 0.204138 0.731385
vt 0.262399 0.656660
vt 0.462991 0.375434
vt 0.462992 0.432487
vt 0.643447 0.375434
vt 0.516034 0.375434
vt 0.532054 0.432487
vt 0.291642 0.432487
vt 0.671195 0.432487
vt 0.282536 0.375434
vt 0.254789 0.432487
vt 0.307662 0.375434
vt 0.462992 0.806109
vt 0.124049 0.640909
vt 0.039021 0.640909
vt 0.124049 0.342011
vt 0.039021 0.806109
vt 0.289167 0.806109
vt 0.204138 0.342011
vt 0.289167 0.342011
vt 0.289167 0.640909
vt 0.721845 0.656660
vt 0.462991 0.261329
vt 0.462991 0.318382
vt 0.615699 0.318382
vt 0.483994 0.261329
vt 0.500014 0.318382
vt 0.339703 0.261329
vt 0.587950 0.261329
vt 0.338031 0.261329
vt 0.310284 0.318382
vt 0.323682 0.318382
vt 0.601404 0.372459
vt 0.636817 0.271627
vt 0.530850 0.245675
vt 0.631681 0.302368
vt 0.292846 0.245675
vt 0.462992 0.729464
vt 0.462992 0.931126
vt 0.601404 0.610462
vt 0.262399 0.208313
vt 0.324580 0.610462
vt 0.462992 0.790358
vt 0.462992 0.851253
vt 0.324580 0.970255
vt 0.636817 0.342011
vt 0.462992 0.192562
vt 0.561297 0.208313
vt 0.462990 0.491460
vt 0.462991 0.635751
vt 0.587950 0.563606
vt 0.587950 0.419315
vt 0.462991 0.347170
vt 0.338031 0.419315
vt 0.338031 0.563606
vt 0.289167 0.711293
vt 0.192015 0.302368
vt 0.462992 0.333330
vt 0.615662 0.078305
vt 0.636817 0.711293
vt 0.462992 0.649591
vt 0.356199 0.904616
vt 0.289167 0.271628
vt 0.521451 0.599363
vt -0.134804 0.656660
vt 0.636817 0.806109
vt 0.039021 0.342011
vt -0.134804 0.806109
vt 0.204138 0.640909
vt 0.289167 0.939807
vt 0.636817 0.640909
vt 0.636817 0.113497
vt 0.289167 0.869424
vn 0.874355 0.485122 -0.011567
vn 0.993408 -0.109195 -0.034394
vn 0.685720 -0.298166 -0.663930
vn 0.329600 0.152745 -0.931669
vn -0.077059 -0.354747 -0.931761
vn 0.438581 -0.605640 -0.663930
vn -0.282113 -0.959288 -0.011597
vn 0.320139 -0.946715 -0.034394
vn 0.502823 -0.641896 0.578875
vn 0.433393 0.047853 0.899899
vn 0.734947 -0.353130 0.578875
vn 0.047761 -0.433546 0.899838
vn -0.761437 -0.648213 0.000000
vn -0.592334 -0.805597 0.011200
vn -0.324686 -0.284768 0.901914
vn -0.505142 0.863002 0.000000
vn 0.284158 0.958770 0.000000
vn 0.143834 0.503037 -0.852199
vn -0.132542 0.714225 -0.687216
vn -0.257912 -0.474380 -0.841670
vn 0.202094 -0.892331 0.403546
vn -0.506241 -0.862362 0.000000
vn -0.209204 -0.977844 0.000000
vn -0.087405 -0.995849 0.024781
vn -0.131993 0.714133 0.687429
vn 0.143132 0.503067 0.852290
vn -0.258400 -0.473525 0.842006
vn 0.204505 0.978851 0.000000
vn 0.110233 0.993896 0.000000
vn 0.069674 0.492965 -0.867244
vn 0.091159 0.463668 -0.881283
vn -0.006409 -0.505570 -0.862728
vn -0.118442 -0.515458 -0.848659
vn -0.041536 -0.999115 0.000000
vn -0.212470 -0.977142 0.000000
vn -0.118442 -0.515458 0.848659
vn 0.091159 0.463668 0.881283
vn 0.069674 0.492965 0.867244
vn -0.006409 -0.505570 0.862728
vn -0.757927 0.652303 0.000000
vn -0.701163 0.712973 0.000000
vn -0.703360 0.250099 -0.665334
vn -0.243355 0.304636 -0.920835
vn 0.369915 -0.486862 -0.791253
vn 0.565722 -0.681509 0.464217
vn 0.999847 -0.016236 0.000000
vn 0.514634 -0.857387 0.000000
vn -0.171728 -0.931883 -0.319468
vn -0.703299 0.251686 0.664815
vn -0.243355 0.304636 0.920835
vn 0.369915 -0.486862 0.791253
vn 0.591479 0.806299 0.000000
vn 0.261513 0.457381 -0.849910
vn -0.119633 -0.336100 -0.934172
vn -0.301981 -0.953307 0.000000
vn -0.119633 -0.336100 0.934172
vn 0.261513 0.457381 0.849910
vn -0.603961 0.796991 0.000000
vn -0.760186 0.649648 0.000000
vn -0.230598 -0.120823 -0.965484
vn -0.376629 0.414960 -0.828211
vn 0.307077 -0.410169 -0.858730
vn 0.676290 -0.273476 -0.683981
vn 0.999481 -0.031800 0.000000
vn 0.646443 -0.762932 0.000000
vn 0.307077 -0.410169 0.858730
vn -0.376629 0.414960 0.828211
vn -0.230934 -0.123356 0.965087
vn 0.678732 -0.274880 0.680960
vn -0.324656 -0.284799 -0.901914
vn -0.203711 -0.276101 -0.939268
vn 0.264412 0.259316 -0.928861
vn 0.226569 0.256050 -0.939726
vn 0.677786 0.735221 0.000000
vn 0.662862 0.748589 0.012818
vn 0.264412 0.259316 0.928861
vn -0.731437 -0.681875 -0.000031
vn 0.267067 0.217170 0.938871
vn -0.158849 -0.309336 0.937559
usemtl scale
s 1
f 74/1/1 2/2/2 4/3/3
f 75/4/4 4/5/3 76/6/5
f 76/6/5 6/7/6 77/8/7
f 77/9/7 8/10/8 10/11/9
f 6/7/6 10/12/9 8/13/8
f 79/14/10 12/15/11 74/16/1
f 78/17/12 10/12/9 12/15/11
f 5/18/13 71/19/14 3/20/15
f 60/21/16 13/22/17 14/23/18
f 55/24/19 14/25/18 15/26/20
f 56/27/21 15/23/20 16/22/22
f 57/21/23 16/22/22 58/28/24
f 59/28/25 18/29/26 60/21/16
f 58/30/24 17/26/27 18/25/26
f 37/31/28 19/32/29 20/33/30
f 38/34/31 20/35/30 21/36/32
f 39/37/33 21/38/32 22/39/34
f 40/31/35 22/32/34 41/40/36
f 42/40/37 24/41/38 37/31/28
f 41/42/36 23/36/39 42/34/37
f 54/43/40 30/44/41 49/45/42
f 49/46/42 25/47/43 26/48/44
f 50/45/45 26/49/44 51/43/46
f 51/43/46 27/44/47 52/50/48
f 53/50/49 29/51/50 30/44/41
f 52/52/48 28/48/51 53/46/49
f 19/32/29 31/53/52 20/33/30
f 20/54/30 32/55/53 21/56/32
f 21/38/32 33/57/54 22/39/34
f 22/32/34 34/53/55 35/58/56
f 24/41/38 36/58/57 31/53/52
f 23/59/39 35/60/56 36/61/57
f 13/22/17 37/31/28 14/23/18
f 14/25/18 38/34/31 15/26/20
f 15/23/20 39/62/33 16/22/22
f 16/22/22 40/31/35 41/40/36
f 18/29/26 42/40/37 37/31/28
f 17/26/27 41/42/36 42/34/37
f 66/63/58 48/64/59 43/65/60
f 61/66/61 43/67/60 62/68/62
f 62/69/62 44/65/63 45/64/64
f 63/63/65 45/64/64 64/70/66
f 65/70/67 47/71/68 66/63/58
f 64/68/66 46/72/69 47/67/68
f 48/64/59 54/43/40 43/65/60
f 43/67/60 49/46/42 44/72/63
f 44/65/63 50/45/45 45/64/64
f 45/64/64 51/43/46 52/50/48
f 47/71/68 53/50/49 54/43/40
f 46/72/69 52/52/48 47/67/68
f 30/44/41 60/21/16 25/49/43
f 25/47/43 55/24/19 26/48/44
f 26/49/44 56/27/21 27/44/47
f 27/44/47 57/21/23 58/28/24
f 29/51/50 59/28/25 60/21/16
f 28/48/51 58/30/24 59/24/25
f 7/73/70 70/74/71 71/19/14
f 9/75/72 69/76/73 7/77/70
f 11/78/74 68/79/75 9/80/72
f 35/81/56 3/77/15 67/75/76
f 36/61/57 67/82/76 31/83/52
f 34/83/55 5/84/13 3/85/15
f 33/86/54 7/73/70 34/87/55
f 32/88/53 9/75/72 33/81/54
f 31/83/52 11/78/74 9/80/72
f 1/89/77 66/90/58 61/91/61
f 1/89/77 61/91/61 62/92/62
f 1/89/77 62/92/62 63/93/65
f 1/89/77 63/93/65 64/94/66
f 1/89/77 65/95/67 66/90/58
f 1/89/77 64/94/66 65/95/67
f 67/82/76 73/96/78 68/79/75
f 3/77/15 72/97/79 73/76/78
f 68/98/75 74/1/1 75/99/4
f 69/100/73 75/4/4 70/74/71
f 70/74/71 76/6/5 71/19/14
f 71/101/14 77/9/7 78/102/12
f 73/96/78 79/14/10 68/79/75
f 72/103/79 78/17/12 79/14/10
f 75/99/4 74/1/1 4/3/3
f 4/5/3 6/7/6 76/6/5
f 6/7/6 8/13/8 77/8/7
f 78/102/12 77/9/7 10/11/9
f 6/7/6 12/15/11 10/12/9
f 4/5/3 2/104/2 6/7/6
f 2/104/2 12/15/11 6/7/6
f 12/15/11 2/104/2 74/16/1
f 79/14/10 78/17/12 12/15/11
f 71/19/14 72/103/79 3/20/15
f 55/27/19 60/21/16 14/23/18
f 56/30/21 55/24/19 15/26/20
f 57/21/23 56/27/21 16/22/22
f 16/22/22 17/29/27 58/28/24
f 18/29/26 13/22/17 60/21/16
f 59/24/25 58/30/24 18/25/26
f 38/62/31 37/31/28 20/33/30
f 39/42/33 38/34/31 21/36/32
f 40/105/35 39/37/33 22/39/34
f 22/32/34 23/41/39 41/40/36
f 24/41/38 19/32/29 37/31/28
f 23/36/39 24/35/38 42/34/37
f 30/44/41 25/49/43 49/45/42
f 50/52/45 49/46/42 26/48/44
f 26/49/44 27/44/47 51/43/46
f 27/44/47 28/51/51 52/50/48
f 54/43/40 53/50/49 30/44/41
f 28/48/51 29/47/50 53/46/49
f 31/53/52 32/106/53 20/33/30
f 32/55/53 33/107/54 21/56/32
f 33/57/54 34/108/55 22/39/34
f 23/41/39 22/32/34 35/58/56
f 19/32/29 24/41/38 31/53/52
f 24/109/38 23/59/39 36/61/57
f 37/31/28 38/62/31 14/23/18
f 38/34/31 39/42/33 15/26/20
f 39/62/33 40/31/35 16/22/22
f 17/29/27 16/22/22 41/40/36
f 13/22/17 18/29/26 37/31/28
f 18/25/26 17/26/27 42/34/37
f 61/69/61 66/63/58 43/65/60
f 43/67/60 44/72/63 62/68/62
f 63/63/65 62/69/62 45/64/64
f 45/64/64 46/71/69 64/70/66
f 47/71/68 48/64/59 66/63/58
f 65/66/67 64/68/66 47/67/68
f 54/43/40 49/45/42 43/65/60
f 49/46/42 50/52/45 44/72/63
f 50/45/45 51/43/46 45/64/64
f 46/71/69 45/64/64 52/50/48
f 48/64/59 47/71/68 54/43/40
f 52/52/48 53/46/49 47/67/68
f 60/21/16 55/27/19 25/49/43
f 55/24/19 56/30/21 26/48/44
f 56/27/21 57/21/23 27/44/47
f 28/51/51 27/44/47 58/28/24
f 30/44/41 29/51/50 60/21/16
f 29/47/50 28/48/51 59/24/25
f 5/18/13 7/73/70 71/19/14
f 69/76/73 70/97/71 7/77/70
f 68/79/75 69/100/73 9/80/72
f 36/88/57 35/81/56 67/75/76
f 67/82/76 11/78/74 31/83/52
f 35/110/56 34/83/55 3/85/15
f 7/73/70 5/18/13 34/87/55
f 9/75/72 7/77/70 33/81/54
f 32/111/53 31/83/52 9/80/72
f 11/78/74 67/82/76 68/79/75
f 67/75/76 3/77/15 73/76/78
f 69/112/73 68/98/75 75/99/4
f 75/4/4 76/6/5 70/74/71
f 76/6/5 77/8/7 71/19/14
f 72/113/79 71/101/14 78/102/12
f 79/14/10 74/16/1 68/79/75
f 73/96/78 72/103/79 79/14/10
