# Blender v2.69 (sub 0) OBJ File: 'snake.blend'
# www.blender.org
mtllib snake_000048.mtl
o Cylinder
v -0.304117 -2.969787 0.285614
v 4.786779 1.652964 0.244169
v 3.493501 2.046242 0.383760
v 4.771706 1.617805 0.199676
v 3.440364 1.980697 0.285619
v 4.741558 1.547486 0.199676
v 3.493501 2.046242 0.187478
v 4.726485 1.512327 0.244169
v 3.599776 2.177331 0.187478
v 4.741558 1.547487 0.288663
v 3.652913 2.242876 0.285619
v 4.771706 1.617805 0.288663
v 0.353974 1.349570 0.285617
v 0.334975 1.250491 0.110881
v 0.296978 1.052334 0.110881
v 0.277980 0.953256 0.285617
v 0.296978 1.052334 0.460352
v 0.334975 1.250491 0.460352
v 2.260015 1.820448 0.285618
v 2.337938 1.748636 0.102078
v 2.493783 1.605011 0.102078
v 2.571706 1.533199 0.285618
v 2.493783 1.605011 0.469158
v 2.337937 1.748636 0.469158
v -0.382866 0.115736 0.137989
v -0.265995 -0.008358 0.137989
v -0.207559 -0.070405 0.285615
v -0.265995 -0.008358 0.433242
v -0.382866 0.115736 0.433242
v -0.441302 0.177783 0.285615
v 3.247787 2.626896 0.285619
v 3.181055 2.544581 0.162368
v 3.047589 2.379952 0.162368
v 2.980856 2.297636 0.285619
v 3.047589 2.379952 0.408870
v 3.181055 2.544581 0.408870
v 1.378328 1.431527 0.285617
v 1.400611 1.327929 0.102077
v 1.445176 1.120734 0.102077
v 1.467458 1.017136 0.285617
v 1.445176 1.120734 0.469158
v 1.400611 1.327929 0.469158
v -0.771966 -1.172367 0.177337
v -0.670540 -1.099259 0.177337
v -0.619827 -1.062705 0.285615
v -0.670540 -1.099259 0.393892
v -0.771966 -1.172367 0.393892
v -0.822679 -1.208921 0.285615
v -0.993738 -0.475184 0.157663
v -0.892442 -0.582740 0.157663
v -0.841795 -0.636517 0.285615
v -0.892443 -0.582740 0.413567
v -0.993738 -0.475184 0.413567
v -1.044385 -0.421406 0.285615
v -0.525639 1.109776 0.120033
v -0.339979 1.155464 0.120033
v -0.247149 1.178308 0.285616
v -0.339979 1.155464 0.451199
v -0.525639 1.109776 0.451199
v -0.618469 1.086932 0.285616
v -1.034215 -1.828275 0.197012
v -0.953844 -1.891581 0.197012
v -0.913657 -1.923233 0.285614
v -0.953844 -1.891581 0.374217
v -1.034216 -1.828275 0.374217
v -1.074401 -1.796622 0.285614
v 3.599776 2.177331 0.383760
v 4.451499 2.052652 0.285619
v 4.390079 1.909390 0.162368
v 4.265957 1.621574 0.162368
v 4.203635 1.478052 0.285619
v 4.264960 1.620571 0.408870
v 4.390079 1.909390 0.408870
v 4.670050 1.904655 0.269355
v 4.618463 1.784327 0.177369
v 4.515287 1.543672 0.177369
v 4.463699 1.423344 0.269355
v 4.515287 1.543672 0.361341
v 4.618463 1.784327 0.361341
vt 0.485931 0.262946
vt 0.521451 0.001567
vt 0.584202 -0.052384
vt 0.615662 0.676101
vt 0.584202 0.545412
vt 0.584202 0.437509
vt 0.615662 0.306819
vt 0.485931 0.122178
vt 0.485931 0.719975
vt 0.521451 0.981354
vt 0.458700 1.035305
vt 0.521451 0.599363
vt 0.458700 0.545412
vt 0.356199 0.676101
vt 0.485931 0.860742
vt 0.356199 0.306819
vt 0.458700 0.437509
vt 0.462992 0.253457
vt 0.462992 0.051795
vt 0.324580 0.372459
vt 0.462992 0.507211
vt 0.462992 0.581936
vt 0.709427 0.581936
vt 0.546676 0.507211
vt 0.554128 0.581936
vt 0.269568 0.581936
vt 0.696520 0.507211
vt 0.229463 0.507211
vt 0.216556 0.581936
vt 0.277021 0.507211
vt 0.462992 0.656660
vt 0.462992 0.731385
vt 0.721845 0.731385
vt 0.561297 0.656660
vt 0.561297 0.731385
vt 0.262399 0.731385
vt 0.124049 0.656660
vt 0.124049 0.731385
vt -0.134804 0.731385
vt 0.204138 0.656660
vt 0.204138 0.731385
vt 0.262399 0.656660
vt 0.462991 0.375434
vt 0.462992 0.432487
vt 0.643447 0.375434
vt 0.516034 0.375434
vt 0.532054 0.432487
vt 0.307662 0.375434
vt 0.671195 0.432487
vt 0.282536 0.375434
vt 0.254789 0.432487
vt 0.291642 0.432487
vt 0.462992 0.806109
vt 0.124049 0.640909
vt 0.039021 0.640909
vt 0.039021 0.342011
vt 0.039021 0.806109
vt 0.289167 0.806109
vt 0.204138 0.342011
vt 0.289167 0.342011
vt 0.204138 0.640909
vt 0.721845 0.656660
vt 0.462991 0.261329
vt 0.462991 0.318382
vt 0.615699 0.318382
vt 0.483994 0.261329
vt 0.500014 0.318382
vt 0.323682 0.318382
vt 0.587950 0.261329
vt 0.338031 0.261329
vt 0.310284 0.318382
vt 0.339703 0.261329
vt 0.601404 0.372459
vt 0.636817 0.271627
vt 0.530850 0.245675
vt 0.631681 0.302368
vt 0.292846 0.245675
vt 0.462992 0.729464
vt 0.462992 0.931126
vt 0.601404 0.610462
vt 0.262399 0.208313
vt 0.561297 0.208313
vt 0.289167 0.640909
vt 0.324580 0.610462
vt 0.462992 0.790358
vt 0.462992 0.851253
vt 0.324580 0.970255
vt 0.636817 0.342011
vt 0.462992 0.192562
vt 0.462990 0.491460
vt 0.462991 0.635751
vt 0.587950 0.563606
vt 0.587950 0.419315
vt 0.462991 0.347170
vt 0.338031 0.419315
vt 0.338031 0.563606
vt 0.289167 0.711293
vt 0.192015 0.302368
vt 0.462992 0.333330
vt 0.615662 0.078305
vt 0.636817 0.711293
vt 0.462992 0.649591
vt 0.356199 0.904616
vt 0.289167 0.271628
vt 0.521451 0.383558
vt -0.134804 0.656660
vt 0.636817 0.806109
vt 0.124049 0.342011
vt -0.134804 0.806109
vt 0.289167 0.939807
vt 0.636817 0.640909
vt 0.636817 0.113497
vt 0.289167 0.869424
vn 0.711814 0.702231 -0.011567
vn 0.986206 0.161748 -0.034394
vn 0.740654 -0.102908 -0.663930
vn 0.276406 0.235694 -0.931669
vn 0.585192 -0.465499 -0.663930
vn 0.021088 -0.362407 -0.931761
vn -0.013916 -0.999817 -0.011597
vn 0.562792 -0.825861 -0.034394
vn 0.656819 -0.483139 0.578875
vn 0.802820 -0.142644 0.578875
vn 0.404584 0.162572 0.899899
vn 0.162542 -0.404767 0.899838
vn -0.559221 -0.829005 0.000000
vn -0.354045 -0.935148 0.011200
vn -0.236183 -0.361553 0.901914
vn -0.888150 0.459487 0.000000
vn -0.161107 0.986908 0.000000
vn -0.098727 0.526353 -0.844508
vn -0.488510 0.552904 -0.675008
vn -0.032167 -0.525681 -0.850032
vn 0.641652 -0.649739 0.407514
vn -0.083193 -0.996521 0.000000
vn 0.305582 -0.952147 0.000000
vn 0.599506 -0.721885 -0.345561
vn -0.487930 0.553148 0.675222
vn -0.099338 0.526017 0.844630
vn -0.033021 -0.525132 0.850337
vn -0.248878 0.968505 0.000000
vn -0.512070 0.858913 0.000000
vn -0.234413 0.404920 -0.883785
vn -0.114261 0.441206 -0.890072
vn 0.365947 -0.413862 -0.833522
vn 0.131016 -0.525986 -0.840297
vn 0.661916 -0.749535 0.000000
vn 0.241127 -0.970458 0.000000
vn 0.131016 -0.525986 0.840297
vn -0.114261 0.441206 0.890072
vn -0.234413 0.404889 0.883785
vn 0.365947 -0.413862 0.833522
vn -0.950713 0.309976 0.000000
vn -0.979003 0.203803 0.000000
vn -0.654195 0.073916 -0.752678
vn -0.371532 0.118290 -0.920835
vn 0.296030 -0.124393 -0.947020
vn 0.577960 -0.199622 -0.791253
vn 0.999573 -0.028443 0.000000
vn 0.904019 -0.427473 0.000000
vn 0.296030 -0.124393 0.947020
vn -0.654195 0.073916 0.752678
vn -0.371532 0.118290 0.920835
vn 0.577960 -0.199622 0.791253
vn 0.142735 0.989746 0.000000
vn -0.169927 0.632405 -0.755730
vn 0.173101 -0.356670 -0.918027
vn 0.548692 -0.835994 0.000000
vn 0.173101 -0.356670 0.918027
vn -0.169927 0.632405 0.755730
vn -0.999847 -0.016541 0.000000
vn -0.989746 0.142796 0.000000
vn -0.430586 -0.029908 -0.902036
vn -0.656453 -0.161901 -0.736778
vn 0.628498 -0.047823 -0.776330
vn 0.365459 -0.084048 -0.927000
vn 0.996399 0.084567 0.000000
vn 0.978423 0.206549 0.000000
vn 0.365459 -0.084048 0.927000
vn -0.656453 -0.161901 0.736778
vn -0.430586 -0.029908 0.902036
vn 0.628498 -0.047823 0.776330
vn -0.236152 -0.361583 -0.901914
vn -0.122013 -0.320688 -0.939268
vn 0.185003 0.320811 -0.928861
vn 0.149419 0.307505 -0.939726
vn 0.455275 0.890316 0.000000
vn 0.437300 0.899197 0.012818
vn 0.185003 0.320811 0.928861
vn 0.526475 -0.850154 -0.000031
vn 0.198889 0.280953 0.938871
vn -0.069887 -0.340648 0.937559
usemtl scale
s 1
f 74/1/1 2/2/2 4/3/3
f 75/4/4 4/5/3 6/6/5
f 76/7/6 6/6/5 77/8/7
f 77/9/7 8/10/8 10/11/9
f 4/5/3 2/12/2 12/13/10
f 79/14/11 12/13/10 74/15/1
f 78/16/12 10/17/9 79/14/11
f 5/18/13 71/19/14 3/20/15
f 60/21/16 13/22/17 14/23/18
f 55/24/19 14/25/18 15/26/20
f 56/27/21 15/23/20 16/22/22
f 57/21/23 16/22/22 58/28/24
f 59/28/25 18/29/26 60/21/16
f 58/30/24 17/26/27 18/25/26
f 37/31/28 19/32/29 20/33/30
f 38/34/31 20/35/30 21/36/32
f 39/37/33 21/38/32 22/39/34
f 40/31/35 22/32/34 41/40/36
f 42/40/37 24/41/38 37/31/28
f 41/42/36 23/36/39 42/34/37
f 54/43/40 30/44/41 49/45/42
f 49/46/42 25/47/43 50/48/44
f 50/45/44 26/49/45 51/43/46
f 51/43/46 27/44/47 52/50/48
f 53/50/49 29/51/50 54/43/40
f 52/48/48 28/52/51 53/46/49
f 19/32/29 31/53/52 20/33/30
f 20/54/30 32/55/53 33/56/54
f 21/38/32 33/57/54 22/39/34
f 22/32/34 34/53/55 35/58/56
f 24/41/38 36/58/57 31/53/52
f 23/59/39 35/60/56 24/61/38
f 13/22/17 37/31/28 14/23/18
f 14/25/18 38/34/31 15/26/20
f 15/23/20 39/62/33 16/22/22
f 16/22/22 40/31/35 41/40/36
f 18/29/26 42/40/37 37/31/28
f 17/26/27 41/42/36 42/34/37
f 66/63/58 48/64/59 43/65/60
f 61/66/61 43/67/60 44/68/62
f 62/69/63 44/65/62 45/64/64
f 63/63/65 45/64/64 64/70/66
f 65/70/67 47/71/68 66/63/58
f 64/72/66 46/68/69 65/66/67
f 48/64/59 54/43/40 43/65/60
f 43/67/60 49/46/42 50/48/44
f 44/65/62 50/45/44 45/64/64
f 45/64/64 51/43/46 52/50/48
f 47/71/68 53/50/49 54/43/40
f 46/68/69 52/48/48 47/67/68
f 30/44/41 60/21/16 25/49/43
f 25/47/43 55/24/19 26/52/45
f 26/49/45 56/27/21 27/44/47
f 27/44/47 57/21/23 58/28/24
f 29/51/50 59/28/25 60/21/16
f 28/52/51 58/30/24 59/24/25
f 7/73/70 70/74/71 71/19/14
f 9/75/72 69/76/73 7/77/70
f 11/78/74 68/79/75 9/80/72
f 35/81/56 3/77/15 36/82/57
f 36/83/57 67/84/76 31/85/52
f 34/85/55 5/86/13 3/87/15
f 33/88/54 7/73/70 34/89/55
f 32/82/53 9/75/72 33/81/54
f 31/85/52 11/78/74 9/80/72
f 1/90/77 66/91/58 61/92/61
f 1/90/77 61/92/61 62/93/63
f 1/90/77 62/93/63 63/94/65
f 1/90/77 63/94/65 64/95/66
f 1/90/77 65/96/67 66/91/58
f 1/90/77 64/95/66 65/96/67
f 67/84/76 73/97/78 68/79/75
f 3/77/15 72/98/79 73/76/78
f 68/99/75 74/1/1 75/100/4
f 69/101/73 75/4/4 70/74/71
f 70/74/71 76/7/6 71/19/14
f 71/102/14 77/9/7 78/103/12
f 73/97/78 79/14/11 68/79/75
f 72/104/79 78/16/12 79/14/11
f 75/100/4 74/1/1 4/3/3
f 76/7/6 75/4/4 6/6/5
f 6/6/5 8/105/8 77/8/7
f 78/103/12 77/9/7 10/11/9
f 6/6/5 4/5/3 12/13/10
f 8/105/8 6/6/5 12/13/10
f 10/17/9 8/105/8 12/13/10
f 12/13/10 2/12/2 74/15/1
f 10/17/9 12/13/10 79/14/11
f 71/19/14 72/104/79 3/20/15
f 55/27/19 60/21/16 14/23/18
f 56/30/21 55/24/19 15/26/20
f 57/21/23 56/27/21 16/22/22
f 16/22/22 17/29/27 58/28/24
f 18/29/26 13/22/17 60/21/16
f 59/24/25 58/30/24 18/25/26
f 38/62/31 37/31/28 20/33/30
f 39/42/33 38/34/31 21/36/32
f 40/106/35 39/37/33 22/39/34
f 22/32/34 23/41/39 41/40/36
f 24/41/38 19/32/29 37/31/28
f 23/36/39 24/35/38 42/34/37
f 30/44/41 25/49/43 49/45/42
f 25/47/43 26/52/45 50/48/44
f 26/49/45 27/44/47 51/43/46
f 27/44/47 28/51/51 52/50/48
f 29/51/50 30/44/41 54/43/40
f 28/52/51 29/47/50 53/46/49
f 31/53/52 32/107/53 20/33/30
f 21/108/32 20/54/30 33/56/54
f 33/57/54 34/109/55 22/39/34
f 23/41/39 22/32/34 35/58/56
f 19/32/29 24/41/38 31/53/52
f 35/60/56 36/83/57 24/61/38
f 37/31/28 38/62/31 14/23/18
f 38/34/31 39/42/33 15/26/20
f 39/62/33 40/31/35 16/22/22
f 17/29/27 16/22/22 41/40/36
f 13/22/17 18/29/26 37/31/28
f 18/25/26 17/26/27 42/34/37
f 61/69/61 66/63/58 43/65/60
f 62/72/63 61/66/61 44/68/62
f 63/63/65 62/69/63 45/64/64
f 45/64/64 46/71/69 64/70/66
f 47/71/68 48/64/59 66/63/58
f 46/68/69 47/67/68 65/66/67
f 54/43/40 49/45/42 43/65/60
f 44/68/62 43/67/60 50/48/44
f 50/45/44 51/43/46 45/64/64
f 46/71/69 45/64/64 52/50/48
f 48/64/59 47/71/68 54/43/40
f 52/48/48 53/46/49 47/67/68
f 60/21/16 55/27/19 25/49/43
f 55/24/19 56/30/21 26/52/45
f 56/27/21 57/21/23 27/44/47
f 28/51/51 27/44/47 58/28/24
f 30/44/41 29/51/50 60/21/16
f 29/47/50 28/52/51 59/24/25
f 5/18/13 7/73/70 71/19/14
f 69/76/73 70/98/71 7/77/70
f 68/79/75 69/101/73 9/80/72
f 3/77/15 67/75/76 36/82/57
f 67/84/76 11/78/74 31/85/52
f 35/110/56 34/85/55 3/87/15
f 7/73/70 5/18/13 34/89/55
f 9/75/72 7/77/70 33/81/54
f 32/111/53 31/85/52 9/80/72
f 11/78/74 67/84/76 68/79/75
f 67/75/76 3/77/15 73/76/78
f 69/112/73 68/99/75 75/100/4
f 75/4/4 76/7/6 70/74/71
f 76/7/6 77/8/7 71/19/14
f 72/113/79 71/102/14 78/103/12
f 79/14/11 74/15/1 68/79/75
f 73/97/78 72/104/79 79/14/11
