# Blender v2.69 (sub 0) OBJ File: 'snake.blend'
# www.blender.org
mtllib snake_000016.mtl
o Cylinder
v -2.560944 -0.726233 0.285614
v 4.718252 2.226818 0.244169
v 4.869739 0.883579 0.383760
v 4.756506 2.226913 0.199676
v 4.950975 0.860770 0.285619
v 4.833014 2.227103 0.199676
v 4.869739 0.883579 0.187478
v 4.871268 2.227198 0.244169
v 4.707264 0.929197 0.187478
v 4.833014 2.227103 0.288663
v 4.626027 0.952006 0.285619
v 4.756506 2.226913 0.288663
v 1.507755 0.127761 0.285617
v 1.458152 0.039915 0.110881
v 1.358945 -0.135778 0.110881
v 1.309341 -0.223624 0.285617
v 1.358945 -0.135778 0.460352
v 1.458152 0.039915 0.460352
v 3.513503 0.118733 0.285618
v 3.552382 0.020156 0.102078
v 3.630140 -0.176998 0.102078
v 3.669018 -0.275575 0.285618
v 3.630139 -0.176998 0.469158
v 3.552381 0.020156 0.469158
v -0.064593 -0.593860 0.137989
v -0.063330 -0.764320 0.137989
v -0.062699 -0.849550 0.285615
v -0.063330 -0.764320 0.433242
v -0.064593 -0.593860 0.433242
v -0.065223 -0.508630 0.285615
v 4.434016 0.427859 0.285619
v 4.536037 0.399215 0.162368
v 4.740082 0.341925 0.162368
v 4.842104 0.313280 0.285619
v 4.740082 0.341925 0.408870
v 4.536037 0.399215 0.408870
v 2.486826 -0.026990 0.285617
v 2.488850 -0.132938 0.102077
v 2.492898 -0.344833 0.102077
v 2.494921 -0.450780 0.285617
v 2.492897 -0.344833 0.469158
v 2.488850 -0.132938 0.469158
v -0.771966 -1.172367 0.177337
v -0.670540 -1.099259 0.177337
v -0.619827 -1.062705 0.285615
v -0.670540 -1.099259 0.393892
v -0.771966 -1.172367 0.393892
v -0.822679 -1.208921 0.285615
v -0.914322 -0.611514 0.157663
v -0.913227 -0.759256 0.157663
v -0.912681 -0.833127 0.285615
v -0.913228 -0.759256 0.413567
v -0.914322 -0.611514 0.413567
v -0.914869 -0.537643 0.285615
v 0.506889 0.231918 0.120033
v 0.674061 0.139124 0.120033
v 0.757647 0.092727 0.285616
v 0.674061 0.139123 0.451199
v 0.506889 0.231917 0.451199
v 0.423303 0.278314 0.285616
v -1.268032 -1.271419 0.197012
v -1.276340 -1.373391 0.197012
v -1.280494 -1.424376 0.285614
v -1.276340 -1.373391 0.374217
v -1.268033 -1.271419 0.374217
v -1.263879 -1.220433 0.285614
v 4.707264 0.929197 0.383760
v 4.484175 1.760587 0.285619
v 4.640047 1.760975 0.162368
v 4.953485 1.761085 0.162368
v 5.109955 1.760748 0.285619
v 4.954803 1.760568 0.408870
v 4.640047 1.760975 0.408870
v 4.533435 2.019895 0.269355
v 4.664354 2.020221 0.177369
v 4.926193 2.020873 0.177369
v 5.057113 2.021198 0.269355
v 4.926193 2.020872 0.361341
v 4.664354 2.020221 0.361341
vt 0.485931 0.262946
vt 0.521451 0.001567
vt 0.584202 -0.052384
vt 0.615662 0.676101
vt 0.584202 0.545412
vt 0.615662 0.306819
vt 0.584202 0.437509
vt 0.485931 0.122178
vt 0.485931 0.719975
vt 0.521451 0.981354
vt 0.458700 1.035305
vt 0.458700 0.437509
vt 0.521451 0.383558
vt 0.356199 0.676101
vt 0.458700 0.545412
vt 0.485931 0.860742
vt 0.356199 0.306819
vt 0.462992 0.253457
vt 0.462992 0.051795
vt 0.324580 0.372459
vt 0.462992 0.507211
vt 0.462992 0.581936
vt 0.709427 0.581936
vt 0.546676 0.507211
vt 0.554128 0.581936
vt 0.277021 0.507211
vt 0.696520 0.507211
vt 0.229463 0.507211
vt 0.216556 0.581936
vt 0.269568 0.581936
vt 0.462992 0.656660
vt 0.462992 0.731385
vt 0.721845 0.731385
vt 0.561297 0.656660
vt 0.561297 0.731385
vt 0.262399 0.731385
vt 0.124049 0.656660
vt 0.124049 0.731385
vt -0.134804 0.731385
vt 0.204138 0.656660
vt 0.204138 0.731385
vt 0.262399 0.656660
vt 0.462991 0.375434
vt 0.462992 0.432487
vt 0.643447 0.375434
vt 0.516034 0.375434
vt 0.532054 0.432487
vt 0.307662 0.375434
vt 0.671195 0.432487
vt 0.282536 0.375434
vt 0.254789 0.432487
vt 0.291642 0.432487
vt 0.462992 0.806109
vt 0.636817 0.806109
vt 0.124049 0.640909
vt 0.039021 0.640909
vt 0.039021 0.342011
vt 0.039021 0.806109
vt -0.134804 0.806109
vt 0.289167 0.806109
vt 0.204138 0.342011
vt 0.289167 0.342011
vt 0.204138 0.640909
vt 0.721845 0.656660
vt 0.462991 0.261329
vt 0.462991 0.318382
vt 0.615699 0.318382
vt 0.483994 0.261329
vt 0.500014 0.318382
vt 0.339703 0.261329
vt 0.587950 0.261329
vt 0.338031 0.261329
vt 0.310284 0.318382
vt 0.323682 0.318382
vt 0.601404 0.372459
vt 0.636817 0.271627
vt 0.530850 0.245675
vt 0.631681 0.302368
vt 0.292846 0.245675
vt 0.462992 0.729464
vt 0.462992 0.931126
vt 0.601404 0.610462
vt 0.262399 0.208313
vt 0.561297 0.208313
vt 0.289167 0.640909
vt 0.324580 0.610462
vt 0.462992 0.790358
vt 0.462992 0.851253
vt 0.324580 0.970255
vt 0.636817 0.342011
vt 0.462992 0.192562
vt 0.462990 0.491460
vt 0.462991 0.635751
vt 0.587950 0.563606
vt 0.587950 0.419315
vt 0.462991 0.347170
vt 0.338031 0.419315
vt 0.338031 0.563606
vt 0.289167 0.711293
vt 0.192015 0.302368
vt 0.462992 0.333330
vt 0.615662 0.078305
vt 0.636817 0.711293
vt 0.462992 0.649591
vt 0.356199 0.904616
vt 0.289167 0.271628
vt 0.521451 0.599363
vt -0.134804 0.656660
vt 0.124049 0.342011
vt 0.289167 0.939807
vt 0.636817 0.640909
vt 0.636817 0.113497
vt 0.289167 0.869424
vn -0.926847 0.375195 -0.011597
vn -0.539384 0.841334 -0.034394
vn -0.199011 0.720786 -0.663930
vn -0.325968 0.160344 -0.931669
vn 0.324351 0.162999 -0.931761
vn 0.195441 0.721763 -0.663930
vn 0.923460 0.383465 -0.011597
vn 0.535173 0.844020 -0.034394
vn 0.183233 0.794549 0.578875
vn -0.309610 0.307016 0.899899
vn -0.187201 0.793634 0.578845
vn 0.307199 0.309641 0.899838
vn 0.982757 -0.184881 0.000000
vn 0.998871 0.045534 0.011200
vn 0.425581 -0.073550 0.901914
vn -0.468307 0.883541 0.000000
vn 0.147862 0.988983 0.000000
vn 0.071413 0.511032 -0.856563
vn -0.167821 0.650014 -0.741111
vn 0.093875 -0.345439 -0.933714
vn -0.150945 -0.504959 -0.849818
vn -0.300943 -0.953612 0.000000
vn -0.029572 -0.999542 0.000000
vn 0.093875 -0.345439 0.933714
vn -0.167821 0.650014 0.741111
vn 0.071413 0.511032 0.856563
vn -0.150945 -0.504959 0.849818
vn 0.010498 0.999939 0.000000
vn -0.230903 0.972961 0.000000
vn -0.098849 0.462203 -0.881222
vn 0.000946 0.460891 -0.887417
vn 0.169530 -0.501663 -0.848262
vn -0.014039 -0.537156 -0.843349
vn 0.304331 -0.952544 0.000000
vn -0.018616 -0.999817 0.000000
vn -0.014039 -0.537156 0.843349
vn 0.000946 0.460891 0.887417
vn -0.098849 0.462203 0.881222
vn 0.169530 -0.501663 0.848262
vn -0.687155 0.726463 0.000000
vn -0.578997 0.815302 0.000000
vn -0.711539 0.299051 -0.635792
vn -0.191870 0.339427 -0.920835
vn 0.557543 -0.688162 0.464248
vn 0.287881 -0.539445 -0.791253
vn 0.999817 -0.017457 0.000000
vn 0.371899 -0.928251 0.000000
vn 0.375591 -0.785974 -0.491043
vn -0.711295 0.300912 0.635182
vn -0.191870 0.339427 0.920835
vn 0.287881 -0.539445 0.791253
vn -0.606769 0.794855 0.000000
vn -0.226783 0.273232 -0.934812
vn 0.398938 -0.345408 -0.849422
vn 0.827204 -0.561876 0.000000
vn -0.226783 0.273232 0.934812
vn 0.398938 -0.345408 0.849422
vn 0.085879 0.996277 0.000000
vn -0.577074 0.816675 0.000000
vn -0.803735 0.237953 0.545274
vn -0.009705 0.423048 -0.906034
vn -0.007843 -0.597705 -0.801660
vn 0.670156 -0.377911 -0.638783
vn 0.997009 -0.077273 0.000000
vn -0.009400 -0.999939 0.000000
vn -0.006836 -0.597034 0.802179
vn -0.007233 0.421979 0.906552
vn -0.802728 0.289865 -0.521104
vn 0.672231 -0.379559 0.635609
vn 0.425581 -0.073519 -0.901914
vn 0.342784 0.015076 -0.939268
vn -0.367870 0.042695 -0.928861
vn -0.341563 0.015320 -0.939726
vn -0.997864 0.065127 0.000000
vn -0.998871 0.045106 0.012818
vn -0.367870 0.042695 0.928861
vn -0.908170 0.418531 -0.000031
vn -0.336772 0.071230 0.938871
vn 0.340465 0.070833 0.937559
usemtl scale
s 1
f 74/1/1 2/2/2 4/3/3
f 75/4/4 4/5/3 76/6/5
f 76/6/5 6/7/6 77/8/7
f 77/9/7 8/10/8 10/11/9
f 6/7/6 10/12/9 8/13/8
f 79/14/10 12/15/11 74/16/1
f 78/17/12 10/12/9 12/15/11
f 5/18/13 71/19/14 3/20/15
f 60/21/16 13/22/17 14/23/18
f 55/24/19 14/25/18 56/26/20
f 56/27/20 15/23/21 16/22/22
f 57/21/23 16/22/22 58/28/24
f 59/28/25 18/29/26 60/21/16
f 58/26/24 17/30/27 18/25/26
f 37/31/28 19/32/29 20/33/30
f 38/34/31 20/35/30 21/36/32
f 39/37/33 21/38/32 22/39/34
f 40/31/35 22/32/34 41/40/36
f 42/40/37 24/41/38 37/31/28
f 41/42/36 23/36/39 42/34/37
f 54/43/40 30/44/41 49/45/42
f 49/46/42 25/47/43 50/48/44
f 50/45/44 26/49/45 51/43/46
f 51/43/46 27/44/47 52/50/48
f 53/50/49 29/51/50 30/44/41
f 52/48/48 28/52/51 53/46/49
f 19/32/29 31/53/52 32/54/53
f 20/55/30 32/56/53 33/57/54
f 21/38/32 33/58/54 34/59/55
f 22/32/34 34/53/55 23/41/39
f 24/41/38 36/60/56 19/32/29
f 23/61/39 35/62/57 24/63/38
f 13/22/17 37/31/28 14/23/18
f 14/25/18 38/34/31 15/30/21
f 15/23/21 39/64/33 16/22/22
f 16/22/22 40/31/35 41/40/36
f 18/29/26 42/40/37 37/31/28
f 17/30/27 41/42/36 42/34/37
f 66/65/58 48/66/59 43/67/60
f 61/68/61 43/69/60 62/70/62
f 62/71/62 44/67/63 45/66/64
f 63/65/65 45/66/64 64/72/66
f 65/72/67 47/73/68 66/65/58
f 64/70/66 46/74/69 65/68/67
f 48/66/59 54/43/40 43/67/60
f 43/69/60 49/46/42 44/74/63
f 44/67/63 50/45/44 45/66/64
f 45/66/64 51/43/46 52/50/48
f 47/73/68 53/50/49 54/43/40
f 46/74/69 52/48/48 47/69/68
f 30/44/41 60/21/16 25/49/43
f 25/47/43 55/24/19 26/52/45
f 26/49/45 56/27/20 27/44/47
f 27/44/47 57/21/23 58/28/24
f 29/51/50 59/28/25 60/21/16
f 28/52/51 58/26/24 59/24/25
f 7/75/70 70/76/71 71/19/14
f 9/77/72 69/78/73 7/79/70
f 11/80/74 68/81/75 9/82/72
f 35/83/57 3/79/15 36/84/56
f 36/85/56 67/86/76 31/87/52
f 34/87/55 5/88/13 3/89/15
f 33/90/54 7/75/70 34/91/55
f 32/84/53 9/77/72 33/83/54
f 31/87/52 11/80/74 9/82/72
f 1/92/77 66/93/58 61/94/61
f 1/92/77 61/94/61 62/95/62
f 1/92/77 62/95/62 63/96/65
f 1/92/77 63/96/65 64/97/66
f 1/92/77 65/98/67 66/93/58
f 1/92/77 64/97/66 65/98/67
f 67/86/76 73/99/78 68/81/75
f 3/79/15 72/100/79 73/78/78
f 68/101/75 74/1/1 75/102/4
f 69/103/73 75/4/4 70/76/71
f 70/76/71 76/6/5 71/19/14
f 71/104/14 77/9/7 78/105/12
f 73/99/78 79/14/10 68/81/75
f 72/106/79 78/17/12 79/14/10
f 75/102/4 74/1/1 4/3/3
f 4/5/3 6/7/6 76/6/5
f 6/7/6 8/13/8 77/8/7
f 78/105/12 77/9/7 10/11/9
f 6/7/6 4/5/3 10/12/9
f 4/5/3 2/107/2 10/12/9
f 2/107/2 12/15/11 10/12/9
f 12/15/11 2/107/2 74/16/1
f 79/14/10 78/17/12 12/15/11
f 71/19/14 72/106/79 3/20/15
f 55/27/19 60/21/16 14/23/18
f 14/25/18 15/30/21 56/26/20
f 57/21/23 56/27/20 16/22/22
f 16/22/22 17/29/27 58/28/24
f 18/29/26 13/22/17 60/21/16
f 59/24/25 58/26/24 18/25/26
f 38/64/31 37/31/28 20/33/30
f 39/42/33 38/34/31 21/36/32
f 40/108/35 39/37/33 22/39/34
f 22/32/34 23/41/39 41/40/36
f 24/41/38 19/32/29 37/31/28
f 23/36/39 24/35/38 42/34/37
f 30/44/41 25/49/43 49/45/42
f 25/47/43 26/52/45 50/48/44
f 26/49/45 27/44/47 51/43/46
f 27/44/47 28/51/51 52/50/48
f 54/43/40 53/50/49 30/44/41
f 28/52/51 29/47/50 53/46/49
f 20/33/30 19/32/29 32/54/53
f 21/109/32 20/55/30 33/57/54
f 22/39/34 21/38/32 34/59/55
f 34/53/55 35/60/57 23/41/39
f 36/60/56 31/53/52 19/32/29
f 35/62/57 36/85/56 24/63/38
f 37/31/28 38/64/31 14/23/18
f 38/34/31 39/42/33 15/30/21
f 39/64/33 40/31/35 16/22/22
f 17/29/27 16/22/22 41/40/36
f 13/22/17 18/29/26 37/31/28
f 18/25/26 17/30/27 42/34/37
f 61/71/61 66/65/58 43/67/60
f 43/69/60 44/74/63 62/70/62
f 63/65/65 62/71/62 45/66/64
f 45/66/64 46/73/69 64/72/66
f 47/73/68 48/66/59 66/65/58
f 46/74/69 47/69/68 65/68/67
f 54/43/40 49/45/42 43/67/60
f 49/46/42 50/48/44 44/74/63
f 50/45/44 51/43/46 45/66/64
f 46/73/69 45/66/64 52/50/48
f 48/66/59 47/73/68 54/43/40
f 52/48/48 53/46/49 47/69/68
f 60/21/16 55/27/19 25/49/43
f 55/24/19 56/26/20 26/52/45
f 56/27/20 57/21/23 27/44/47
f 28/51/51 27/44/47 58/28/24
f 30/44/41 29/51/50 60/21/16
f 29/47/50 28/52/51 59/24/25
f 5/18/13 7/75/70 71/19/14
f 69/78/73 70/100/71 7/79/70
f 68/81/75 69/103/73 9/82/72
f 3/79/15 67/77/76 36/84/56
f 67/86/76 11/80/74 31/87/52
f 35/110/57 34/87/55 3/89/15
f 7/75/70 5/18/13 34/91/55
f 9/77/72 7/79/70 33/83/54
f 32/111/53 31/87/52 9/82/72
f 11/80/74 67/86/76 68/81/75
f 67/77/76 3/79/15 73/78/78
f 69/112/73 68/101/75 75/102/4
f 75/4/4 76/6/5 70/76/71
f 76/6/5 77/8/7 71/19/14
f 72/113/79 71/104/14 78/105/12
f 79/14/10 74/16/1 68/81/75
f 73/99/78 72/106/79 79/14/10
