# Blender v2.69 (sub 0) OBJ File: 'snake.blend'
# www.blender.org
mtllib snake_000034.mtl
o Cylinder
v -2.458729 -2.150054 0.285614
v 1.722808 -3.982957 0.244169
v 2.037906 -2.668442 0.383760
v 1.686810 -3.970016 0.199676
v 1.969295 -2.619326 0.285619
v 1.614811 -3.944136 0.199676
v 2.037906 -2.668442 0.187478
v 1.578812 -3.931195 0.244169
v 2.175126 -2.766673 0.187478
v 1.614811 -3.944136 0.288663
v 2.243737 -2.815789 0.285619
v 1.686809 -3.970016 0.288663
v 1.415881 0.739061 0.285617
v 1.411909 0.638256 0.110881
v 1.403965 0.436645 0.110881
v 1.399994 0.335840 0.285617
v 1.403966 0.436645 0.460352
v 1.411909 0.638255 0.460352
v 2.410818 -1.169533 0.285618
v 2.307272 -1.192055 0.102078
v 2.100181 -1.237099 0.102078
v 1.996635 -1.259621 0.285618
v 2.100181 -1.237099 0.469158
v 2.307272 -1.192055 0.469158
v -0.077156 -0.473871 0.137989
v -0.056610 -0.643093 0.137989
v -0.046337 -0.727704 0.285615
v -0.056610 -0.643093 0.433242
v -0.077156 -0.473871 0.433242
v -0.087429 -0.389260 0.285615
v 2.602798 -2.388386 0.285619
v 2.516633 -2.326704 0.162368
v 2.344304 -2.203340 0.162368
v 2.258139 -2.141658 0.285619
v 2.344304 -2.203340 0.408870
v 2.516633 -2.326704 0.408870
v 2.150795 -0.081871 0.285617
v 2.048013 -0.107659 0.102077
v 1.842450 -0.159234 0.102077
v 1.739669 -0.185022 0.285617
v 1.842451 -0.159234 0.469158
v 2.048013 -0.107658 0.469158
v -0.771966 -1.172367 0.177337
v -0.670540 -1.099259 0.177337
v -0.619827 -1.062705 0.285615
v -0.670540 -1.099259 0.393892
v -0.771966 -1.172367 0.393892
v -0.822679 -1.208921 0.285615
v -0.919428 -0.587577 0.157663
v -0.901620 -0.734246 0.157663
v -0.892716 -0.807581 0.285615
v -0.901620 -0.734246 0.413567
v -0.919428 -0.587577 0.413567
v -0.928331 -0.514242 0.285615
v 0.397199 0.411277 0.120033
v 0.573798 0.337999 0.120033
v 0.662098 0.301359 0.285616
v 0.573798 0.337998 0.451199
v 0.397198 0.411276 0.451199
v 0.308899 0.447916 0.285616
v -1.266765 -1.404591 0.197012
v -1.253745 -1.506069 0.197012
v -1.247236 -1.556808 0.285614
v -1.253745 -1.506069 0.374217
v -1.266765 -1.404591 0.374217
v -1.273274 -1.353852 0.285614
v 2.175126 -2.766673 0.383760
v 2.101694 -3.624336 0.285619
v 1.955010 -3.571608 0.162368
v 1.660275 -3.464950 0.162368
v 1.513278 -3.411338 0.285619
v 1.659214 -3.464015 0.408870
v 1.955009 -3.571608 0.408870
v 1.967054 -3.851360 0.269355
v 1.843853 -3.807072 0.177369
v 1.597448 -3.718499 0.177369
v 1.474247 -3.674212 0.269355
v 1.597449 -3.718499 0.361341
v 1.843853 -3.807072 0.361341
vt 0.485931 0.262946
vt 0.521451 0.001567
vt 0.584202 -0.052384
vt 0.615662 0.676101
vt 0.584202 0.545412
vt 0.584202 0.437509
vt 0.615662 0.306819
vt 0.485931 0.122178
vt 0.485931 0.719975
vt 0.521451 0.981354
vt 0.458700 1.035305
vt 0.521451 0.599363
vt 0.458700 0.545412
vt 0.356199 0.676101
vt 0.485931 0.860742
vt 0.356199 0.306819
vt 0.458700 0.437509
vt 0.462992 0.253457
vt 0.462992 0.051795
vt 0.324580 0.372459
vt 0.462992 0.507211
vt 0.462992 0.581936
vt 0.709427 0.581936
vt 0.546676 0.507211
vt 0.554128 0.581936
vt 0.269568 0.581936
vt 0.696520 0.507211
vt 0.229463 0.507211
vt 0.216556 0.581936
vt 0.277021 0.507211
vt 0.462992 0.656660
vt 0.462992 0.731385
vt 0.721845 0.656660
vt 0.561297 0.656660
vt 0.561297 0.731385
vt 0.262399 0.656660
vt 0.124049 0.656660
vt 0.124049 0.731385
vt -0.134804 0.656660
vt 0.204138 0.731385
vt 0.204138 0.656660
vt 0.262399 0.731385
vt 0.462991 0.375434
vt 0.462992 0.432487
vt 0.643447 0.375434
vt 0.516034 0.375434
vt 0.532054 0.432487
vt 0.307662 0.375434
vt 0.671195 0.432487
vt 0.282536 0.375434
vt 0.254789 0.432487
vt 0.291642 0.432487
vt 0.462992 0.806109
vt 0.721845 0.731385
vt 0.124049 0.640909
vt 0.039021 0.640909
vt 0.124049 0.342011
vt 0.039021 0.806109
vt -0.134804 0.731385
vt 0.289167 0.806109
vt 0.204138 0.342011
vt 0.289167 0.342011
vt 0.289167 0.640909
vt 0.462991 0.261329
vt 0.462991 0.318382
vt 0.615699 0.318382
vt 0.483994 0.261329
vt 0.500014 0.318382
vt 0.339703 0.261329
vt 0.587950 0.261329
vt 0.338031 0.261329
vt 0.310284 0.318382
vt 0.323682 0.318382
vt 0.601404 0.372459
vt 0.636817 0.271627
vt 0.530850 0.245675
vt 0.631681 0.302368
vt 0.292846 0.245675
vt 0.462992 0.729464
vt 0.462992 0.931126
vt 0.601404 0.610462
vt 0.262399 0.208313
vt 0.561297 0.208313
vt 0.324580 0.610462
vt 0.462992 0.790358
vt 0.462992 0.851253
vt 0.324580 0.970255
vt 0.636817 0.342011
vt 0.462992 0.192562
vt 0.462990 0.491460
vt 0.462991 0.635751
vt 0.587950 0.563606
vt 0.587950 0.419315
vt 0.462991 0.347170
vt 0.338031 0.419315
vt 0.338031 0.563606
vt 0.289167 0.711293
vt 0.192015 0.302368
vt 0.462992 0.333330
vt 0.615662 0.078305
vt 0.636817 0.711293
vt 0.462992 0.649591
vt 0.356199 0.904616
vt 0.289167 0.271628
vt 0.521451 0.383558
vt 0.636817 0.806109
vt 0.039021 0.342011
vt -0.134804 0.806109
vt 0.204138 0.640909
vt 0.289167 0.939807
vt 0.636817 0.640909
vt 0.636817 0.113497
vt 0.289167 0.869424
vn 0.743614 -0.668477 -0.011567
vn 0.220527 -0.974761 -0.034394
vn -0.058351 -0.745476 -0.663930
vn 0.251839 -0.261788 -0.931669
vn -0.429579 -0.612049 -0.663930
vn -0.360485 -0.042756 -0.931761
vn -0.998871 -0.045961 -0.011597
vn -0.790674 -0.611255 -0.034394
vn -0.442915 -0.684622 0.578875
vn -0.094302 -0.809931 0.578875
vn 0.186529 -0.394116 0.899899
vn -0.394299 -0.186499 0.899838
vn -0.860988 0.508560 0.000000
vn -0.954680 0.297403 0.011200
vn -0.375072 0.214118 0.901914
vn -0.657613 0.753319 0.000000
vn 0.261971 0.965056 0.000000
vn 0.216346 0.580279 -0.785119
vn -0.340953 0.518357 -0.784234
vn -0.145726 -0.329875 -0.932676
vn 0.216712 -0.348704 -0.911802
vn -0.504837 -0.863186 0.000000
vn 0.389813 -0.920865 0.000000
vn 0.216712 -0.348704 0.911802
vn -0.340953 0.518357 0.784234
vn 0.216346 0.580279 0.785119
vn -0.145726 -0.329875 0.932676
vn 0.893399 0.449232 0.000000
vn 0.980895 0.194403 0.000000
vn 0.490219 0.270974 -0.828394
vn 0.495682 0.083041 -0.864498
vn -0.413373 -0.180761 -0.892422
vn -0.478774 -0.142033 -0.866329
vn -0.904843 -0.425703 0.000000
vn -0.966765 -0.255562 0.000000
vn -0.478774 -0.142033 0.866329
vn 0.490219 0.270974 0.828394
vn 0.495682 0.083041 0.864498
vn -0.413373 -0.180761 0.892422
vn -0.738060 0.674703 0.000000
vn -0.667531 0.744560 0.000000
vn -0.706046 0.264168 -0.657033
vn -0.229072 0.315531 -0.920835
vn 0.571001 -0.677389 0.463759
vn 0.347087 -0.503403 -0.791253
vn 0.999878 -0.015168 0.000000
vn 0.474563 -0.880184 0.000000
vn 0.148473 -0.879391 -0.452315
vn -0.705924 0.265847 0.656484
vn -0.229072 0.315531 0.920835
vn 0.347087 -0.503403 0.791253
vn 0.948882 -0.315592 0.000000
vn 0.505051 -0.117038 -0.855098
vn -0.359722 0.016541 -0.932890
vn -0.999695 0.023957 0.000000
vn -0.359722 0.016541 0.932890
vn 0.505051 -0.117038 0.855098
vn -0.484817 0.874599 0.000000
vn -0.715873 0.698202 0.000000
vn -0.209632 -0.927641 -0.309000
vn -0.293558 0.448622 -0.844111
vn 0.263314 -0.460128 -0.847896
vn 0.676473 -0.300577 -0.672292
vn 0.999054 -0.042940 0.000000
vn 0.520646 -0.853755 0.000000
vn 0.264138 -0.459151 0.848170
vn -0.291025 0.448347 0.845119
vn -0.833125 0.102420 -0.543474
vn 0.678426 -0.302591 0.669424
vn -0.375072 0.214087 -0.901914
vn -0.327433 0.102573 -0.939268
vn 0.331339 -0.165441 -0.928861
vn 0.315928 -0.130741 -0.939726
vn 0.916013 -0.401135 0.000000
vn 0.923765 -0.382672 0.012818
vn 0.331339 -0.165441 0.928861
vn -0.865902 -0.500198 0.000000
vn 0.292367 -0.181707 0.938871
vn -0.344218 0.049348 0.937559
usemtl scale
s 1
f 74/1/1 2/2/2 4/3/3
f 75/4/4 4/5/3 6/6/5
f 76/7/6 6/6/5 77/8/7
f 77/9/7 8/10/8 10/11/9
f 4/5/3 2/12/2 12/13/10
f 79/14/11 12/13/10 74/15/1
f 78/16/12 10/17/9 79/14/11
f 5/18/13 71/19/14 3/20/15
f 60/21/16 13/22/17 14/23/18
f 55/24/19 14/25/18 15/26/20
f 56/27/21 15/23/20 16/22/22
f 57/21/23 16/22/22 58/28/24
f 59/28/25 18/29/26 60/21/16
f 58/30/24 17/26/27 59/24/25
f 37/31/28 19/32/29 38/33/30
f 38/34/30 20/35/31 39/36/32
f 39/37/32 21/38/33 40/39/34
f 40/31/34 22/32/35 23/40/36
f 42/41/37 24/40/38 19/32/29
f 41/36/39 23/42/36 24/35/38
f 54/43/40 30/44/41 49/45/42
f 49/46/42 25/47/43 50/48/44
f 50/45/44 26/49/45 51/43/46
f 51/43/46 27/44/47 52/50/48
f 53/50/49 29/51/50 54/43/40
f 52/48/48 28/52/51 53/46/49
f 19/32/29 31/53/52 20/54/31
f 20/55/31 32/56/53 21/57/33
f 21/38/33 33/58/54 22/59/35
f 22/32/35 34/53/55 35/60/56
f 24/40/38 36/60/57 31/53/52
f 23/61/36 35/62/56 36/63/57
f 13/22/17 37/31/28 38/33/30
f 14/25/18 38/34/30 39/36/32
f 15/23/20 39/33/32 40/31/34
f 16/22/22 40/31/34 17/29/27
f 18/29/26 42/41/37 13/22/17
f 17/26/27 41/36/39 18/25/26
f 66/64/58 48/65/59 43/66/60
f 61/67/61 43/68/60 62/69/62
f 62/70/62 44/66/63 45/65/64
f 63/64/65 45/65/64 64/71/66
f 65/71/67 47/72/68 66/64/58
f 64/69/66 46/73/69 65/67/67
f 48/65/59 54/43/40 43/66/60
f 43/68/60 49/46/42 44/73/63
f 44/66/63 50/45/44 45/65/64
f 45/65/64 51/43/46 52/50/48
f 47/72/68 53/50/49 54/43/40
f 46/73/69 52/48/48 47/68/68
f 30/44/41 60/21/16 25/49/43
f 25/47/43 55/24/19 26/52/45
f 26/49/45 56/27/21 27/44/47
f 27/44/47 57/21/23 58/28/24
f 29/51/50 59/28/25 60/21/16
f 28/52/51 58/30/24 59/24/25
f 7/74/70 70/75/71 71/19/14
f 9/76/72 69/77/73 7/78/70
f 11/79/74 68/80/75 9/81/72
f 35/82/56 3/78/15 36/83/57
f 36/63/57 67/84/76 31/85/52
f 34/85/55 5/86/13 3/87/15
f 33/88/54 7/74/70 34/89/55
f 32/83/53 9/76/72 33/82/54
f 31/85/52 11/79/74 9/81/72
f 1/90/77 66/91/58 61/92/61
f 1/90/77 61/92/61 62/93/62
f 1/90/77 62/93/62 63/94/65
f 1/90/77 63/94/65 64/95/66
f 1/90/77 65/96/67 66/91/58
f 1/90/77 64/95/66 65/96/67
f 67/84/76 73/97/78 68/80/75
f 3/78/15 72/98/79 73/77/78
f 68/99/75 74/1/1 75/100/4
f 69/101/73 75/4/4 70/75/71
f 70/75/71 76/7/6 71/19/14
f 71/102/14 77/9/7 78/103/12
f 73/97/78 79/14/11 68/80/75
f 72/104/79 78/16/12 79/14/11
f 75/100/4 74/1/1 4/3/3
f 76/7/6 75/4/4 6/6/5
f 6/6/5 8/105/8 77/8/7
f 78/103/12 77/9/7 10/11/9
f 6/6/5 4/5/3 12/13/10
f 8/105/8 6/6/5 12/13/10
f 10/17/9 8/105/8 12/13/10
f 12/13/10 2/12/2 74/15/1
f 10/17/9 12/13/10 79/14/11
f 71/19/14 72/104/79 3/20/15
f 55/27/19 60/21/16 14/23/18
f 56/30/21 55/24/19 15/26/20
f 57/21/23 56/27/21 16/22/22
f 16/22/22 17/29/27 58/28/24
f 18/29/26 13/22/17 60/21/16
f 17/26/27 18/25/26 59/24/25
f 19/32/29 20/54/31 38/33/30
f 20/35/31 21/42/33 39/36/32
f 21/38/33 22/59/35 40/39/34
f 41/41/39 40/31/34 23/40/36
f 37/31/28 42/41/37 19/32/29
f 42/34/37 41/36/39 24/35/38
f 30/44/41 25/49/43 49/45/42
f 25/47/43 26/52/45 50/48/44
f 26/49/45 27/44/47 51/43/46
f 27/44/47 28/51/51 52/50/48
f 29/51/50 30/44/41 54/43/40
f 28/52/51 29/47/50 53/46/49
f 31/53/52 32/106/53 20/54/31
f 32/56/53 33/107/54 21/57/33
f 33/58/54 34/108/55 22/59/35
f 23/40/36 22/32/35 35/60/56
f 19/32/29 24/40/38 31/53/52
f 24/109/38 23/61/36 36/63/57
f 14/23/18 13/22/17 38/33/30
f 15/26/20 14/25/18 39/36/32
f 16/22/22 15/23/20 40/31/34
f 40/31/34 41/41/39 17/29/27
f 42/41/37 37/31/28 13/22/17
f 41/36/39 42/34/37 18/25/26
f 61/70/61 66/64/58 43/66/60
f 43/68/60 44/73/63 62/69/62
f 63/64/65 62/70/62 45/65/64
f 45/65/64 46/72/69 64/71/66
f 47/72/68 48/65/59 66/64/58
f 46/73/69 47/68/68 65/67/67
f 54/43/40 49/45/42 43/66/60
f 49/46/42 50/48/44 44/73/63
f 50/45/44 51/43/46 45/65/64
f 46/72/69 45/65/64 52/50/48
f 48/65/59 47/72/68 54/43/40
f 52/48/48 53/46/49 47/68/68
f 60/21/16 55/27/19 25/49/43
f 55/24/19 56/30/21 26/52/45
f 56/27/21 57/21/23 27/44/47
f 28/51/51 27/44/47 58/28/24
f 30/44/41 29/51/50 60/21/16
f 29/47/50 28/52/51 59/24/25
f 5/18/13 7/74/70 71/19/14
f 69/77/73 70/98/71 7/78/70
f 68/80/75 69/101/73 9/81/72
f 3/78/15 67/76/76 36/83/57
f 67/84/76 11/79/74 31/85/52
f 35/110/56 34/85/55 3/87/15
f 7/74/70 5/18/13 34/89/55
f 9/76/72 7/78/70 33/82/54
f 32/111/53 31/85/52 9/81/72
f 11/79/74 67/84/76 68/80/75
f 67/76/76 3/78/15 73/77/78
f 69/112/73 68/99/75 75/100/4
f 75/4/4 76/7/6 70/75/71
f 76/7/6 77/8/7 71/19/14
f 72/113/79 71/102/14 78/103/12
f 79/14/11 74/15/1 68/80/75
f 73/97/78 72/104/79 79/14/11
