# Blender v2.69 (sub 0) OBJ File: 'snake.blend'
# www.blender.org
mtllib snake_000038.mtl
o Cylinder
v -2.158705 -2.539029 0.285614
v 1.226543 -3.472198 0.244169
v 1.911861 -2.307047 0.383760
v 1.195894 -3.449307 0.199676
v 1.860590 -2.240033 0.285619
v 1.134595 -3.403524 0.199676
v 1.911862 -2.307047 0.187478
v 1.103946 -3.380633 0.244169
v 2.014405 -2.441075 0.187478
v 1.134595 -3.403524 0.288663
v 2.065677 -2.508090 0.285619
v 1.195894 -3.449306 0.288663
v 1.314760 0.910932 0.285617
v 1.317774 0.810094 0.110881
v 1.323801 0.608417 0.110881
v 1.326814 0.507578 0.285617
v 1.323801 0.608417 0.460352
v 1.317774 0.810094 0.460352
v 2.374892 -0.954146 0.285618
v 2.271477 -0.977265 0.102078
v 2.064649 -1.023503 0.102078
v 1.961234 -1.046621 0.285618
v 2.064649 -1.023502 0.469158
v 2.271477 -0.977264 0.469158
v -0.091356 -0.402127 0.137989
v -0.059237 -0.569539 0.137989
v -0.043177 -0.653244 0.285615
v -0.059237 -0.569539 0.433242
v -0.091356 -0.402127 0.433242
v -0.107415 -0.318422 0.285615
v 2.533922 -2.204206 0.285619
v 2.469532 -2.120046 0.162368
v 2.340751 -1.951726 0.162368
v 2.276361 -1.867565 0.285619
v 2.340752 -1.951726 0.408870
v 2.469532 -2.120046 0.408870
v 2.084948 0.131129 0.285617
v 1.983211 0.101484 0.102077
v 1.779740 0.042195 0.102077
v 1.678004 0.012551 0.285617
v 1.779740 0.042195 0.469158
v 1.983211 0.101484 0.469158
v -0.771966 -1.172367 0.177337
v -0.670540 -1.099259 0.177337
v -0.619827 -1.062705 0.285615
v -0.670540 -1.099259 0.393892
v -0.771966 -1.172367 0.393892
v -0.822679 -1.208921 0.285615
v -0.923830 -0.573408 0.157663
v -0.895992 -0.718508 0.157663
v -0.882072 -0.791058 0.285615
v -0.895992 -0.718508 0.413567
v -0.923830 -0.573408 0.413567
v -0.937748 -0.500858 0.285615
v 0.321091 0.513508 0.120033
v 0.502306 0.452530 0.120033
v 0.592914 0.422041 0.285616
v 0.502307 0.452530 0.451199
v 0.321091 0.513507 0.451199
v 0.230484 0.543996 0.285616
v -1.255194 -1.472762 0.197012
v -1.231282 -1.572238 0.197012
v -1.219325 -1.621976 0.285614
v -1.231282 -1.572238 0.374217
v -1.255194 -1.472762 0.374217
v -1.267150 -1.423024 0.285614
v 2.014405 -2.441076 0.383760
v 1.693656 -3.239887 0.285619
v 1.568771 -3.146612 0.162368
v 1.318044 -2.958515 0.162368
v 1.193117 -2.864305 0.285619
v 1.317302 -2.957312 0.408870
v 1.568771 -3.146613 0.408870
v 1.498577 -3.417682 0.269355
v 1.393683 -3.339340 0.177369
v 1.183897 -3.182656 0.177369
v 1.079004 -3.104314 0.269355
v 1.183898 -3.182656 0.361341
v 1.393684 -3.339340 0.361341
vt 0.485931 0.262946
vt 0.521451 0.001567
vt 0.584202 -0.052384
vt 0.615662 0.676101
vt 0.584202 0.545412
vt 0.615662 0.306819
vt 0.584202 0.437509
vt 0.485931 0.122178
vt 0.485931 0.719975
vt 0.521451 0.981354
vt 0.458700 1.035305
vt 0.521451 0.599363
vt 0.458700 0.545412
vt 0.356199 0.676101
vt 0.485931 0.860742
vt 0.356199 0.306819
vt 0.458700 0.437509
vt 0.462992 0.253457
vt 0.462992 0.051795
vt 0.324580 0.372459
vt 0.462992 0.507211
vt 0.462992 0.581936
vt 0.709427 0.581936
vt 0.546676 0.507211
vt 0.554128 0.581936
vt 0.269568 0.581936
vt 0.696520 0.507211
vt 0.229463 0.507211
vt 0.216556 0.581936
vt 0.277021 0.507211
vt 0.462992 0.656660
vt 0.462992 0.731385
vt 0.721845 0.656660
vt 0.561297 0.656660
vt 0.561297 0.731385
vt 0.262399 0.656660
vt 0.124049 0.656660
vt 0.124049 0.731385
vt -0.134804 0.656660
vt 0.204138 0.731385
vt 0.204138 0.656660
vt 0.262399 0.731385
vt 0.462991 0.375434
vt 0.462992 0.432487
vt 0.643447 0.375434
vt 0.516034 0.375434
vt 0.532054 0.432487
vt 0.307662 0.375434
vt 0.671195 0.432487
vt 0.282536 0.375434
vt 0.254789 0.432487
vt 0.291642 0.432487
vt 0.462992 0.806109
vt 0.721845 0.731385
vt 0.124049 0.640909
vt 0.039021 0.640909
vt 0.039021 0.342011
vt 0.039021 0.806109
vt -0.134804 0.731385
vt 0.289167 0.806109
vt 0.204138 0.342011
vt 0.289167 0.342011
vt 0.204138 0.640909
vt 0.462991 0.261329
vt 0.462991 0.318382
vt 0.615699 0.318382
vt 0.483994 0.261329
vt 0.500014 0.318382
vt 0.339703 0.261329
vt 0.587950 0.261329
vt 0.338031 0.261329
vt 0.310284 0.318382
vt 0.323682 0.318382
vt 0.601404 0.372459
vt 0.636817 0.271627
vt 0.530850 0.245675
vt 0.631681 0.302368
vt 0.292846 0.245675
vt 0.462992 0.729464
vt 0.462992 0.931126
vt 0.601404 0.610462
vt 0.262399 0.208313
vt 0.561297 0.208313
vt 0.289167 0.640909
vt 0.324580 0.610462
vt 0.462992 0.790358
vt 0.462992 0.851253
vt 0.324580 0.970255
vt 0.636817 0.342011
vt 0.462992 0.192562
vt 0.462990 0.491460
vt 0.462991 0.635751
vt 0.587950 0.563606
vt 0.587950 0.419315
vt 0.462991 0.347170
vt 0.338031 0.419315
vt 0.338031 0.563606
vt 0.289167 0.711293
vt 0.192015 0.302368
vt 0.462992 0.333330
vt 0.615662 0.078305
vt 0.636817 0.711293
vt 0.462992 0.649591
vt 0.356199 0.904616
vt 0.289167 0.271628
vt 0.521451 0.383558
vt 0.636817 0.806109
vt 0.124049 0.342011
vt -0.134804 0.806109
vt 0.289167 0.939807
vt 0.636817 0.640909
vt 0.636817 0.113497
vt 0.289167 0.869424
vn 0.515915 -0.856533 -0.011567
vn -0.073763 -0.996673 -0.034394
vn -0.273568 -0.695914 -0.663930
vn 0.164373 -0.323954 -0.931669
vn -0.357250 0.064394 -0.931761
vn -0.589648 -0.459853 -0.663930
vn -0.968719 0.247780 -0.011597
vn -0.934721 -0.353648 -0.034394
vn -0.623585 -0.525376 0.578875
vn -0.326762 -0.747063 0.578875
vn 0.063265 -0.431410 0.899899
vn -0.431562 -0.063173 0.899838
vn -0.674886 0.737877 0.000000
vn -0.826167 0.563280 0.011200
vn -0.296152 0.314341 0.901914
vn -0.707907 0.706259 0.000000
vn 0.203131 0.979125 0.000000
vn 0.185003 0.593646 -0.783135
vn -0.375835 0.493545 -0.784295
vn -0.125706 -0.334056 -0.934111
vn 0.240272 -0.332987 -0.911771
vn -0.462294 -0.886685 0.000000
vn 0.452528 -0.891720 0.000000
vn 0.240272 -0.332987 0.911771
vn -0.375835 0.493545 0.784295
vn 0.185003 0.593646 0.783135
vn -0.125706 -0.334056 0.934111
vn 0.876125 0.482009 0.000000
vn 0.981140 0.193121 0.000000
vn 0.481368 0.290902 -0.826807
vn 0.501450 0.081362 -0.861324
vn -0.404767 -0.193884 -0.893613
vn -0.474166 -0.161199 -0.865535
vn -0.889401 -0.457076 0.000000
vn -0.956999 -0.290048 0.000000
vn -0.474166 -0.161199 0.865535
vn 0.481368 0.290902 0.826807
vn 0.501450 0.081362 0.861324
vn -0.404767 -0.193884 0.893613
vn -0.767479 0.641041 0.000000
vn -0.717093 0.696951 0.000000
vn -0.701987 0.243202 -0.669362
vn -0.250191 0.299051 -0.920835
vn 0.559648 -0.686361 0.464400
vn 0.380840 -0.478378 -0.791253
vn 0.999847 -0.017090 0.000000
vn 0.533891 -0.845515 0.000000
vn -0.415754 -0.897641 -0.146214
vn -0.701926 0.244789 0.668813
vn -0.250191 0.299051 0.920835
vn 0.380840 -0.478378 0.791253
vn 0.873989 -0.485916 0.000000
vn 0.547472 -0.160863 -0.821192
vn -0.327555 0.055300 -0.943205
vn -0.999603 0.027589 0.000000
vn -0.327555 0.055300 0.943205
vn 0.547472 -0.160863 0.821192
vn -0.647053 0.762413 0.000000
vn -0.778405 0.627735 0.000000
vn -0.280496 -0.043733 -0.958831
vn -0.407727 0.396802 -0.822352
vn 0.321635 -0.390027 -0.862758
vn 0.675741 -0.262032 -0.688955
vn 0.999603 -0.027497 0.000000
vn 0.691702 -0.722160 0.000000
vn 0.321635 -0.390027 0.862758
vn -0.407727 0.396802 0.822352
vn -0.280831 -0.046175 0.958617
vn 0.678152 -0.263497 0.686026
vn -0.296182 0.314310 -0.901914
vn -0.283181 0.193732 -0.939268
vn 0.268563 -0.255013 -0.928861
vn 0.263955 -0.217322 -0.939726
vn 0.758873 -0.651204 0.000000
vn 0.771722 -0.635792 0.012818
vn 0.268563 -0.255013 0.928861
vn -0.670797 -0.741630 0.000000
vn 0.226539 -0.259163 0.938871
vn -0.314798 0.147740 0.937559
usemtl scale
s 1
f 74/1/1 2/2/2 4/3/3
f 75/4/4 4/5/3 76/6/5
f 76/6/5 6/7/6 77/8/7
f 77/9/7 8/10/8 10/11/9
f 4/5/3 2/12/2 12/13/10
f 79/14/11 12/13/10 74/15/1
f 78/16/12 10/17/9 79/14/11
f 5/18/13 71/19/14 3/20/15
f 60/21/16 13/22/17 14/23/18
f 55/24/19 14/25/18 15/26/20
f 56/27/21 15/23/20 16/22/22
f 57/21/23 16/22/22 58/28/24
f 59/28/25 18/29/26 60/21/16
f 58/30/24 17/26/27 59/24/25
f 37/31/28 19/32/29 38/33/30
f 38/34/30 20/35/31 39/36/32
f 39/37/32 21/38/33 40/39/34
f 40/31/34 22/32/35 23/40/36
f 42/41/37 24/40/38 19/32/29
f 41/36/39 23/42/36 24/35/38
f 54/43/40 30/44/41 49/45/42
f 49/46/42 25/47/43 50/48/44
f 50/45/44 26/49/45 51/43/46
f 51/43/46 27/44/47 52/50/48
f 53/50/49 29/51/50 30/44/41
f 52/48/48 28/52/51 53/46/49
f 19/32/29 31/53/52 20/54/31
f 20/55/31 32/56/53 33/57/54
f 21/38/33 33/58/54 22/59/35
f 22/32/35 34/53/55 35/60/56
f 24/40/38 36/60/57 31/53/52
f 23/61/36 35/62/56 24/63/38
f 13/22/17 37/31/28 38/33/30
f 14/25/18 38/34/30 39/36/32
f 15/23/20 39/33/32 40/31/34
f 16/22/22 40/31/34 17/29/27
f 18/29/26 42/41/37 13/22/17
f 17/26/27 41/36/39 18/25/26
f 66/64/58 48/65/59 43/66/60
f 61/67/61 43/68/60 62/69/62
f 62/70/62 44/66/63 45/65/64
f 63/64/65 45/65/64 64/71/66
f 65/71/67 47/72/68 66/64/58
f 64/69/66 46/73/69 47/68/68
f 48/65/59 54/43/40 43/66/60
f 43/68/60 49/46/42 44/73/63
f 44/66/63 50/45/44 45/65/64
f 45/65/64 51/43/46 52/50/48
f 47/72/68 53/50/49 54/43/40
f 46/73/69 52/48/48 47/68/68
f 30/44/41 60/21/16 25/49/43
f 25/47/43 55/24/19 26/52/45
f 26/49/45 56/27/21 27/44/47
f 27/44/47 57/21/23 58/28/24
f 29/51/50 59/28/25 60/21/16
f 28/52/51 58/30/24 59/24/25
f 7/74/70 70/75/71 71/19/14
f 9/76/72 69/77/73 7/78/70
f 11/79/74 68/80/75 9/81/72
f 35/82/56 3/78/15 36/83/57
f 36/84/57 67/85/76 31/86/52
f 34/86/55 5/87/13 3/88/15
f 33/89/54 7/74/70 34/90/55
f 32/83/53 9/76/72 7/78/70
f 31/86/52 11/79/74 9/81/72
f 1/91/77 66/92/58 61/93/61
f 1/91/77 61/93/61 62/94/62
f 1/91/77 62/94/62 63/95/65
f 1/91/77 63/95/65 64/96/66
f 1/91/77 65/97/67 66/92/58
f 1/91/77 64/96/66 65/97/67
f 67/85/76 73/98/78 68/80/75
f 3/78/15 72/99/79 73/77/78
f 68/100/75 74/1/1 75/101/4
f 69/102/73 75/4/4 70/75/71
f 70/75/71 76/6/5 71/19/14
f 71/103/14 77/9/7 78/104/12
f 73/98/78 79/14/11 68/80/75
f 72/105/79 78/16/12 79/14/11
f 75/101/4 74/1/1 4/3/3
f 4/5/3 6/7/6 76/6/5
f 6/7/6 8/106/8 77/8/7
f 78/104/12 77/9/7 10/11/9
f 6/7/6 4/5/3 12/13/10
f 8/106/8 6/7/6 12/13/10
f 10/17/9 8/106/8 12/13/10
f 12/13/10 2/12/2 74/15/1
f 10/17/9 12/13/10 79/14/11
f 71/19/14 72/105/79 3/20/15
f 55/27/19 60/21/16 14/23/18
f 56/30/21 55/24/19 15/26/20
f 57/21/23 56/27/21 16/22/22
f 16/22/22 17/29/27 58/28/24
f 18/29/26 13/22/17 60/21/16
f 17/26/27 18/25/26 59/24/25
f 19/32/29 20/54/31 38/33/30
f 20/35/31 21/42/33 39/36/32
f 21/38/33 22/59/35 40/39/34
f 41/41/39 40/31/34 23/40/36
f 37/31/28 42/41/37 19/32/29
f 42/34/37 41/36/39 24/35/38
f 30/44/41 25/49/43 49/45/42
f 25/47/43 26/52/45 50/48/44
f 26/49/45 27/44/47 51/43/46
f 27/44/47 28/51/51 52/50/48
f 54/43/40 53/50/49 30/44/41
f 28/52/51 29/47/50 53/46/49
f 31/53/52 32/107/53 20/54/31
f 21/108/33 20/55/31 33/57/54
f 33/58/54 34/109/55 22/59/35
f 23/40/36 22/32/35 35/60/56
f 19/32/29 24/40/38 31/53/52
f 35/62/56 36/84/57 24/63/38
f 14/23/18 13/22/17 38/33/30
f 15/26/20 14/25/18 39/36/32
f 16/22/22 15/23/20 40/31/34
f 40/31/34 41/41/39 17/29/27
f 42/41/37 37/31/28 13/22/17
f 41/36/39 42/34/37 18/25/26
f 61/70/61 66/64/58 43/66/60
f 43/68/60 44/73/63 62/69/62
f 63/64/65 62/70/62 45/65/64
f 45/65/64 46/72/69 64/71/66
f 47/72/68 48/65/59 66/64/58
f 65/67/67 64/69/66 47/68/68
f 54/43/40 49/45/42 43/66/60
f 49/46/42 50/48/44 44/73/63
f 50/45/44 51/43/46 45/65/64
f 46/72/69 45/65/64 52/50/48
f 48/65/59 47/72/68 54/43/40
f 52/48/48 53/46/49 47/68/68
f 60/21/16 55/27/19 25/49/43
f 55/24/19 56/30/21 26/52/45
f 56/27/21 57/21/23 27/44/47
f 28/51/51 27/44/47 58/28/24
f 30/44/41 29/51/50 60/21/16
f 29/47/50 28/52/51 59/24/25
f 5/18/13 7/74/70 71/19/14
f 69/77/73 70/99/71 7/78/70
f 68/80/75 69/102/73 9/81/72
f 3/78/15 67/76/76 36/83/57
f 67/85/76 11/79/74 31/86/52
f 35/110/56 34/86/55 3/88/15
f 7/74/70 5/18/13 34/90/55
f 33/82/54 32/83/53 7/78/70
f 32/111/53 31/86/52 9/81/72
f 11/79/74 67/85/76 68/80/75
f 67/76/76 3/78/15 73/77/78
f 69/112/73 68/100/75 75/101/4
f 75/4/4 76/6/5 70/75/71
f 76/6/5 77/8/7 71/19/14
f 72/113/79 71/103/14 78/104/12
f 79/14/11 74/15/1 68/80/75
f 73/98/78 72/105/79 79/14/11
