# Blender v2.65 (sub 0) OBJ File: 'mine.blend'
# www.blender.org
mtllib mine_000007.mtl
o Cube.010
v -0.970608 -1.467933 3.301290
v -0.829599 1.672479 3.275742
v 1.389281 1.567076 2.646768
v 1.248065 -1.573305 2.674852
v -4.735271 -2.378552 -0.111557
v -4.735271 2.474573 -0.111557
v -4.020608 -2.378552 2.416184
v -4.020608 2.474573 2.416184
v 1.820743 -1.004643 -0.263769
v 1.820743 1.026962 -0.263769
v 2.412287 -0.974339 2.120821
v 2.412287 1.005666 2.120816
v 1.656247 -0.019565 3.122018
v 2.090075 1.912379 2.123053
v 2.047926 -1.816358 2.129399
v -1.884062 0.060155 -0.275896
v -1.886737 -0.957692 1.159422
v -1.886710 1.125377 1.144304
v -2.040553 0.078215 0.982734
v 2.138813 -1.180485 0.815355
v 2.412287 -0.000094 2.364433
v 2.116842 1.203571 0.736724
v -0.847909 0.180697 3.726305
v -3.360740 0.110334 3.063396
v -5.754025 -0.259339 -0.111557
v -5.056358 -0.084559 1.653913
v 1.560228 1.132924 0.554838
v 1.020599 -0.317325 -0.123275
v 1.146214 -0.767250 1.685359
v 1.149260 -0.986991 0.582358
v 1.445396 0.028508 1.851547
v 1.274792 0.789085 1.709883
v 1.171154 0.347550 -0.123275
v -1.885690 -1.020021 0.451488
v -1.885341 0.931514 0.209908
v 0.164850 -0.184505 -0.168489
v 0.233573 0.231325 -0.169787
vt 0.326234 0.067422
vt 0.639506 0.129462
vt 0.624047 0.687569
vt 0.326762 0.687569
vt 0.641230 0.250661
vt 0.665268 0.503177
vt 0.302816 0.555751
vt 0.313514 0.405014
vt 0.712322 0.043185
vt 0.924178 0.088828
vt 0.999939 0.376578
vt 0.680544 0.229702
vt 0.344467 0.116182
vt 0.270323 0.093676
vt 0.273031 0.013294
vt 0.347071 0.015360
vt 0.458282 0.116380
vt 0.415402 0.105403
vt 0.441778 0.007502
vt 0.509457 0.515494
vt 0.334548 0.321256
vt 0.502793 0.364462
vt 0.233689 0.514095
vt 0.166393 0.381547
vt 0.787006 0.515489
vt 0.676353 0.321319
vt 0.854649 0.377923
vt 0.202159 0.036297
vt 0.210079 0.000136
vt 0.231385 0.004803
vt 0.198895 0.051199
vt 0.233644 0.089383
vt 0.245097 0.007806
vt 0.475310 0.017395
vt 0.313757 0.267210
vt 0.000083 0.672125
vt 0.012359 0.113989
vt 0.016553 0.555751
vt 0.000075 0.302609
vt 0.321676 0.187414
vt 0.509220 0.154408
vt 0.469215 0.188505
vt 0.492380 0.079243
vt 0.278378 0.211671
vt 0.263252 0.084114
vt 0.379342 0.000072
vt 0.390426 0.100292
vt 0.419787 0.220772
vt 0.341995 0.211895
vt 0.266102 0.218936
vt 0.443553 0.153466
vt 0.411909 0.013510
vt 0.458777 0.003694
vt 0.474657 0.000136
vt 0.486901 0.054786
vn 0.446181 -0.014527 0.894803
vn 0.448805 0.276803 0.849635
vn 0.001160 0.270669 0.962645
vn 0.013794 0.017273 0.999725
vn -0.671743 0.230445 0.704001
vn -0.906552 0.310739 0.285562
vn -0.948546 -0.042482 0.313761
vn -0.866848 -0.009095 0.498428
vn -0.403272 0.008545 0.915006
vn 0.331706 -0.004212 -0.943358
vn 0.256813 0.631550 -0.731529
vn 0.201605 0.835780 -0.510697
vn 0.210639 -0.004547 -0.977538
vn 0.250526 -0.957579 0.142247
vn 0.245155 -0.613422 -0.750725
vn 0.201849 -0.852412 -0.482315
vn 0.962066 0.197821 0.187811
vn 0.999786 -0.017884 0.007416
vn 0.413800 -0.290841 0.862636
vn 0.581652 -0.279946 0.763726
vn 0.954894 -0.213965 0.205786
vn 0.596973 0.250099 0.762261
vn -0.002411 0.784509 0.620075
vn -0.002777 0.011505 0.999908
vn 0.156713 0.840358 0.518815
vn 0.186621 0.965941 0.179174
vn -0.026582 -0.249092 0.968108
vn -0.659505 -0.235847 0.713706
vn -0.882473 -0.358135 0.304880
vn 0.502365 -0.822596 0.266335
vn 0.329173 -0.942534 -0.056978
vn 0.153508 -0.808435 0.568163
vn 0.299448 0.953825 -0.022309
vn 0.407666 0.860439 0.305582
vn -0.001160 -0.752464 0.658589
usemtl rock
s 1
f 13/1/1 3/2/2 2/3/3
f 13/1/1 2/3/3 23/4/4
f 8/5/5 6/6/6 25/7/7
f 8/5/5 25/7/7 26/8/8
f 23/9/4 2/10/3 8/11/5
f 23/9/4 8/11/5 24/12/9
f 31/13/10 29/14/11 17/15/12
f 31/13/10 17/15/12 19/16/13
f 27/17/14 32/18/15 18/19/16
f 13/20/1 11/21/17 21/22/18
f 13/20/1 4/23/19 11/21/17
f 4/23/19 15/24/20 11/21/17
f 3/25/2 12/26/21 14/27/22
f 3/25/2 13/20/1 12/26/21
f 13/20/1 21/22/18 12/26/21
f 36/28/23 16/29/24 34/30/23
f 28/31/25 36/28/23 34/30/23
f 30/32/26 28/31/25 34/30/23
f 30/32/26 34/30/23 17/33/12
f 1/34/27 23/9/4 24/12/9
f 1/34/27 24/12/9 7/35/28
f 23/4/4 1/36/27 4/37/19
f 23/4/4 4/37/19 13/1/1
f 5/38/29 7/39/28 26/8/8
f 5/38/29 26/8/8 25/7/7
f 24/40/9 8/5/5 26/8/8
f 7/39/28 24/40/9 26/8/8
f 10/41/30 22/42/31 27/17/14
f 10/41/30 27/17/14 33/43/32
f 20/44/33 9/45/34 28/46/25
f 20/44/33 28/46/25 30/47/26
f 22/42/31 12/48/21 32/18/15
f 22/42/31 32/18/15 27/17/14
f 12/48/21 21/49/18 31/13/10
f 12/48/21 31/13/10 32/18/15
f 21/49/18 11/50/17 29/14/11
f 21/49/18 29/14/11 31/13/10
f 11/21/17 20/44/33 30/47/26
f 11/21/17 30/47/26 29/51/11
f 32/18/15 31/13/10 19/16/13
f 32/18/15 19/16/13 18/52/16
f 29/14/11 30/32/26 17/15/12
f 33/43/32 27/17/14 18/19/16
f 33/43/32 18/19/16 35/53/35
f 33/43/32 35/53/35 16/54/24
f 33/43/32 16/54/24 37/55/35
o Cube.009
v -1.884062 3.572867 -0.275896
v 1.820743 2.667460 -0.263769
v -0.829599 1.672479 3.275742
v 1.389281 1.567076 2.646768
v -4.735271 2.474573 -0.111557
v -4.020608 2.474573 2.416184
v 1.820743 1.026962 -0.263769
v 2.412287 1.005666 2.120816
v 2.090075 1.912379 2.123053
v 2.116842 1.203571 0.736724
v 1.902483 2.250176 0.623013
v -4.667451 2.500698 -0.115466
v -1.888678 3.253268 2.199426
vt 0.999919 0.277894
vt 0.066880 0.654903
vt 0.000081 0.235646
vt 0.999919 0.000081
vt 0.914103 0.222837
vt 0.733142 0.210602
vt 0.724841 0.097776
vt 0.999928 0.147226
vt 0.854649 0.377923
vt 0.676353 0.321319
vt 0.906562 0.205802
vt 0.999925 0.342923
vt 0.741236 0.474821
vt 0.985368 0.468660
vt 0.641230 0.250661
vt 0.756674 0.000075
vt 0.624047 0.687569
vt 0.639506 0.129462
vt 0.759397 0.000083
vt 0.999917 0.664512
vt 0.665268 0.503177
vn 0.775201 0.630543 0.038026
vn -0.021302 0.986877 0.159948
vn -0.015412 0.876095 0.481857
vn 0.694327 0.693045 0.193732
vn 0.973907 0.172094 -0.147832
vn 0.979797 0.070223 -0.187201
vn 0.655690 0.723655 0.215278
vn 0.959716 0.257179 -0.112949
vn -0.337687 0.935850 0.100620
vn -0.292611 0.894070 0.339091
vn 0.144993 0.619373 0.771569
vn 0.233528 0.646657 0.726127
vn -0.333628 0.937895 0.094913
usemtl rock
s 1
f 48/56/36 38/57/37 50/58/38
f 48/56/36 50/58/38 46/59/39
f 48/60/36 47/61/40 44/62/41
f 48/60/36 44/62/41 39/63/42
f 46/64/39 45/65/43 47/61/40
f 46/64/39 47/61/40 48/60/36
f 50/66/38 38/67/37 49/68/44
f 38/57/37 48/56/36 39/69/42
f 43/70/45 40/71/46 50/66/38
f 40/72/46 41/73/47 46/74/39
f 40/72/46 46/74/39 50/75/38
f 42/76/48 43/70/45 50/66/38
f 42/76/48 50/66/38 49/68/44
o Cube.008
v 3.532686 -0.904927 0.337931
v 3.539323 -0.738246 0.250609
v 3.522067 -0.650699 0.416408
v 3.515430 -0.817379 0.503730
v 3.237550 -0.856504 0.325210
v 3.241483 -0.757744 0.273471
v 3.231259 -0.705870 0.371709
v 3.227326 -0.804631 0.423449
v 3.501598 -0.889679 0.356539
v 3.489223 -0.827673 0.473912
v 3.502987 -0.728598 0.275706
v 3.487149 -0.676278 0.375883
v 3.483816 -0.789163 0.480599
v 3.347853 -0.786988 0.444764
v 3.350468 -0.707103 0.402768
v 3.505974 -0.871496 0.321611
v 3.511107 -0.753726 0.259894
v 3.480178 -0.682127 0.422509
v 3.357562 -0.697230 0.362705
v 3.237876 -0.740916 0.314293
v 3.235788 -0.730325 0.334352
v 3.358253 -0.739572 0.284034
v 3.350191 -0.821950 0.434325
v 3.002566 -0.765286 0.335679
v 3.004653 -0.775878 0.315621
v 3.357616 -0.865728 0.350979
v 3.362877 -0.852849 0.317966
v 3.233091 -0.833881 0.368054
v 3.231004 -0.823290 0.388112
v 3.363499 -0.766131 0.272656
v 3.524764 -0.864734 0.414049
v 3.530941 -0.695720 0.331147
v 3.518855 -0.731363 0.458667
v 3.536347 -0.812985 0.289764
v 3.529535 -0.734196 0.350019
v 3.530415 -0.785306 0.347046
v 3.525302 -0.761451 0.396410
v 3.526501 -0.817193 0.390730
v 3.441276 -0.775351 0.361211
v 3.442744 -0.735196 0.341514
v 3.443624 -0.786305 0.338541
v 3.438511 -0.762451 0.387904
v 3.439710 -0.818193 0.382225
vn -0.037711 -0.462555 -0.885788
vn -0.037710 -0.462555 -0.885789
vn -0.037712 -0.462555 -0.885788
vn 0.099485 -0.464781 -0.879819
vn -0.037711 -0.462556 -0.885788
vn -0.163546 -0.879311 0.447286
vn -0.163547 -0.879312 0.447284
vn -0.163546 -0.879311 0.447287
vn -0.163547 -0.879311 0.447286
vn -0.163547 -0.879312 0.447285
vn -0.163546 -0.879312 0.447285
vn 0.426843 0.818116 -0.385345
vn 0.995167 0.011465 0.097521
vn 0.995167 0.011464 0.097522
vn 0.995167 0.011462 0.097522
vn -0.995167 -0.011462 -0.097522
vn -0.091390 -0.884195 0.458091
vn -0.091559 0.876675 -0.472290
vn -0.093636 0.876349 -0.472489
vn -0.093636 0.876349 -0.472488
vn -0.093635 0.876349 -0.472488
vn -0.187704 0.860311 -0.473953
vn -0.219471 0.459592 0.860586
vn -0.219471 0.459593 0.860585
vn -0.219470 0.459592 0.860586
vn 0.000000 0.465510 0.885043
vn -0.093636 0.876348 -0.472489
vn 0.133206 -0.870619 0.473580
vn 0.312521 0.853043 -0.417909
vn 0.995167 0.011463 0.097523
vn 0.995167 0.011464 0.097521
vn 0.995167 0.011462 0.097523
vn 0.995167 0.011465 0.097522
vn 0.995167 0.011465 0.097523
vn 0.995167 0.011461 0.097523
vn 0.995168 0.011464 0.097520
vn 0.995167 0.011462 0.097524
vn -0.096678 -0.059458 0.993538
vn 0.059101 -0.863045 -0.501657
vn -0.066584 0.808735 0.584392
vn 0.095836 0.102943 -0.990060
vn 0.995168 0.011463 0.097514
vn 0.995167 0.011469 0.097527
vn 0.995167 0.011464 0.097530
vn 0.995168 0.011457 0.097516
usemtl metal
s off
f 51//49 55//49 77//49
f 51//49 77//49 66//49
f 51//50 66//50 67//50
f 51//51 67//51 52//51
f 51//52 52//52 84//52
f 55//49 56//49 77//49
f 56//49 80//49 77//49
f 56//49 52//49 80//49
f 52//53 67//53 80//53
f 55//54 51//54 76//54
f 78//54 55//54 76//54
f 79//55 78//55 76//55
f 58//56 79//56 76//56
f 58//57 76//57 73//57
f 51//58 59//58 76//58
f 54//57 58//57 73//57
f 54//59 73//59 60//59
f 54//57 60//57 59//57
f 59//54 51//54 54//54
f 54//60 51//60 81//60
f 88//61 87//61 83//61
f 88//62 83//62 54//62
f 81//63 88//63 54//63
f 57//64 56//64 55//64
f 58//64 57//64 55//64
f 58//65 55//65 78//65
f 58//66 78//66 79//66
f 57//67 53//67 69//67
f 53//68 62//68 69//68
f 53//68 61//68 62//68
f 53//69 52//69 61//69
f 53//70 82//70 52//70
f 58//71 54//71 64//71
f 57//71 58//71 64//71
f 57//71 64//71 65//71
f 54//71 63//71 64//71
f 53//72 57//72 65//72
f 53//72 65//72 68//72
f 53//73 68//73 63//73
f 53//71 63//71 54//71
f 53//74 54//74 83//74
f 56//75 72//75 52//75
f 56//68 57//68 72//68
f 57//68 69//68 72//68
f 72//75 61//75 52//75
f 74//76 75//76 70//76
f 74//76 70//76 71//76
f 79//77 78//77 75//77
f 79//77 75//77 74//77
f 51//78 84//78 86//78
f 51//79 86//79 88//79
f 51//80 88//80 81//80
f 85//81 82//81 53//81
f 85//82 53//82 83//82
f 85//83 83//83 87//83
f 84//84 52//84 82//84
f 84//79 82//79 85//79
f 84//85 85//85 86//85
f 86//86 85//86 90//86
f 86//86 90//86 91//86
f 85//87 87//87 92//87
f 85//87 92//87 90//87
f 88//88 86//88 91//88
f 88//88 91//88 93//88
f 87//89 88//89 93//89
f 87//89 93//89 92//89
f 91//90 90//90 89//90
f 89//91 90//91 92//91
f 93//92 89//92 92//92
f 93//93 91//93 89//93
o Plane
v 2.413276 -0.889800 2.097628
v 2.384012 -0.887548 2.050863
v 3.273925 -0.812861 1.562765
v 3.148734 -0.824053 1.640567
v 3.100958 -0.823518 1.606125
v 3.096562 -0.815633 1.498393
v 3.158031 -0.810700 1.467699
v 3.165616 -0.814733 1.525847
v 3.139887 -0.817083 1.542499
vn 0.042665 -0.996296 -0.074662
vn 0.042664 -0.996296 -0.074663
vn 0.042665 -0.996296 -0.074663
vn 0.042664 -0.996296 -0.074661
usemtl metal
s off
f 97//94 94//94 95//94
f 95//95 98//95 97//95
f 98//95 102//95 97//95
f 100//96 96//96 101//96
f 98//94 99//94 102//94
f 99//97 101//97 102//97
f 99//96 100//96 101//96
o Cube.007
v 1.199219 0.528419 1.611146
v 1.199219 0.534080 -0.196588
v 1.422902 0.534080 -0.196588
v 1.422902 0.528419 1.611146
v 1.199219 0.752103 1.611847
v 1.199219 0.757764 -0.195888
v 1.422902 0.757764 -0.195888
v 1.422902 0.752103 1.611847
vt 1.023848 0.025044
vt 0.974956 1.023848
vt -0.023848 0.974956
vt 0.025044 -0.023848
vn -1.000000 -0.000000 0.000000
vn 0.000000 0.003132 -0.999995
vn 1.000000 -0.000000 0.000000
vn 0.000000 -0.003132 0.999995
vn 0.000000 -0.999995 -0.003132
vn 0.000000 0.999995 0.003132
usemtl wood
s off
f 104/77/98 103/78/98 107/79/98
f 104/77/98 107/79/98 108/80/98
f 108/79/99 109/80/99 105/77/99
f 108/79/99 105/77/99 104/78/99
f 109/79/100 110/80/100 106/77/100
f 109/79/100 106/77/100 105/78/100
f 103/77/101 106/78/101 110/79/101
f 103/77/101 110/79/101 107/80/101
f 103/79/102 104/80/102 105/77/102
f 103/79/102 105/77/102 106/78/102
f 110/79/103 109/80/103 108/77/103
f 110/79/103 108/77/103 107/78/103
o Cube.006
v 1.199219 -0.712775 1.611146
v 1.199219 -0.707114 -0.196588
v 1.422902 -0.707114 -0.196588
v 1.422902 -0.712775 1.611146
v 1.199219 -0.489092 1.611847
v 1.199219 -0.483431 -0.195888
v 1.422902 -0.483431 -0.195888
v 1.422902 -0.489092 1.611847
vt 1.023848 0.025044
vt 0.974956 1.023848
vt -0.023848 0.974956
vt 0.025044 -0.023848
usemtl wood
s off
f 112/81/98 111/82/98 115/83/98
f 112/81/98 115/83/98 116/84/98
f 116/83/99 117/84/99 113/81/99
f 116/83/99 113/81/99 112/82/99
f 117/83/100 118/84/100 114/81/100
f 117/83/100 114/81/100 113/82/100
f 111/81/101 114/82/101 118/83/101
f 111/81/101 118/83/101 115/84/101
f 111/83/102 112/84/102 113/81/102
f 111/83/102 113/81/102 114/82/102
f 118/83/103 117/84/103 116/81/103
f 118/83/103 116/81/103 115/82/103
o Cube.005
v 2.582690 0.453848 1.865668
v 0.269322 0.461093 1.874756
v 0.267979 0.461093 1.532829
v 2.581347 0.453848 1.523740
v 2.583761 0.795777 1.865664
v 0.270393 0.803021 1.874752
v 0.269049 0.803021 1.532825
v 2.582417 0.795777 1.523736
vt 1.023848 0.025044
vt 0.974956 1.023848
vt -0.023848 0.974956
vt 0.025044 -0.023848
vn 0.003929 -0.000000 0.999992
vn -0.999987 0.003131 0.003928
vn -0.003929 0.000000 -0.999992
vn 0.999987 -0.003131 -0.003928
vn -0.003132 -0.999995 0.000012
vn 0.003132 0.999995 -0.000012
usemtl wood
s off
f 120/85/104 119/86/104 123/87/104
f 120/85/104 123/87/104 124/88/104
f 124/87/105 125/88/105 121/85/105
f 124/87/105 121/85/105 120/86/105
f 125/87/106 126/88/106 122/85/106
f 125/87/106 122/85/106 121/86/106
f 119/85/107 122/86/107 126/87/107
f 119/85/107 126/87/107 123/88/107
f 119/87/108 120/88/108 121/85/108
f 119/87/108 121/85/108 122/86/108
f 126/87/109 125/88/109 124/85/109
f 126/87/109 124/85/109 123/86/109
o Cube.004
v 2.582690 -0.764888 1.865668
v 0.269322 -0.757644 1.874756
v 0.267979 -0.757644 1.532829
v 2.581347 -0.764888 1.523740
v 2.583761 -0.422960 1.865664
v 0.270393 -0.415715 1.874752
v 0.269049 -0.415715 1.532825
v 2.582417 -0.422960 1.523736
vt 1.023848 0.025044
vt 0.974956 1.023848
vt -0.023848 0.974956
vt 0.025044 -0.023848
usemtl wood
s off
f 128/89/104 127/90/104 131/91/104
f 128/89/104 131/91/104 132/92/104
f 132/91/105 133/92/105 129/89/105
f 132/91/105 129/89/105 128/90/105
f 133/91/106 134/92/106 130/89/106
f 133/91/106 130/89/106 129/90/106
f 127/89/107 130/90/107 134/91/107
f 127/89/107 134/91/107 131/92/107
f 127/91/108 128/92/108 129/89/108
f 127/91/108 129/89/108 130/90/108
f 134/91/109 133/92/109 132/89/109
f 134/91/109 132/89/109 131/90/109
o Cube.003
v 2.065770 -1.147034 2.161303
v 1.964954 -1.131510 -0.149844
v 2.305855 -1.109449 -0.164567
v 2.406670 -1.124973 2.146581
v 2.043829 -0.805824 2.164552
v 1.943013 -0.790300 -0.146595
v 2.283914 -0.768238 -0.161318
v 2.384729 -0.783762 2.149830
v 2.296810 -0.968535 -0.162831
v 2.397097 -0.975843 2.148395
vt 1.023848 0.025044
vt 0.974956 1.023848
vt -0.023848 0.974956
vt 0.025044 -0.023848
vt 0.243481 -0.013155
vt 0.194589 0.985649
vt 0.219430 -0.014333
vt 0.170538 0.984471
vn -0.996987 -0.064520 0.043056
vn -0.043579 0.006710 -0.999027
vn -0.041494 0.004876 -0.999127
vn -0.043758 0.009497 -0.998997
vn 0.996987 0.064519 -0.043057
vn 0.043579 -0.006710 0.999027
vn 0.041405 -0.004798 0.999131
vn 0.043748 -0.009343 0.998999
vn 0.064168 -0.997894 -0.009502
vn -0.064168 0.997894 0.009502
vn 0.996987 0.064520 -0.043057
usemtl wood
s off
f 136/93/110 135/94/110 139/95/110
f 136/93/110 139/95/110 140/96/110
f 140/95/111 141/96/111 136/94/111
f 141/96/112 143/97/112 136/94/112
f 143/97/113 137/93/113 136/94/113
f 143/98/114 144/99/114 138/93/114
f 143/98/114 138/93/114 137/94/114
f 139/96/115 135/93/115 142/95/115
f 142/95/116 135/93/116 144/100/116
f 135/93/117 138/94/117 144/100/117
f 135/95/118 136/96/118 137/93/118
f 135/95/118 137/93/118 138/94/118
f 142/95/119 141/96/119 140/93/119
f 142/95/119 140/93/119 139/94/119
usemtl color
f 141/95/120 142/96/120 144/99/120
f 141/95/120 144/99/120 143/98/120
o Cube.002
v 1.864262 0.726365 2.187924
v 1.763447 0.741889 -0.123223
v 2.104347 0.763951 -0.137945
v 2.205163 0.748427 2.173202
v 1.842321 1.067576 2.191174
v 1.741506 1.083100 -0.119974
v 2.082406 1.105161 -0.134696
v 2.183221 1.089637 2.176451
v 2.092081 0.954469 -0.136484
v 2.192940 0.938266 2.174657
vt 1.023848 0.025044
vt 0.974956 1.023848
vt -0.023848 0.974956
vt 0.025044 -0.023848
vt 0.795429 0.013863
vt 0.797415 0.013960
vt 0.746537 1.012667
vt 0.748523 1.012764
vn -0.046059 0.008892 -0.998899
vn -0.043460 0.004865 -0.999043
vn 0.996987 0.064520 -0.043056
vn 0.043579 -0.006711 0.999027
vn 0.046048 -0.008883 0.998900
vn 0.043460 -0.004859 0.999043
usemtl wood
s off
f 146/101/110 145/102/110 149/103/110
f 146/101/110 149/103/110 150/104/110
f 150/103/111 151/104/111 146/102/111
f 151/104/121 153/105/121 146/102/121
f 153/105/122 147/101/122 146/102/122
f 151/103/123 152/104/123 154/106/123
f 151/103/123 154/106/123 153/107/123
f 149/104/124 145/101/124 152/103/124
f 152/103/125 145/101/125 154/108/125
f 145/101/126 148/102/126 154/108/126
f 145/103/118 146/104/118 147/101/118
f 145/103/118 147/101/118 148/102/118
f 152/103/119 151/104/119 150/101/119
f 152/103/119 150/101/119 149/102/119
usemtl color
f 153/107/123 154/106/123 148/101/123
f 153/107/123 148/101/123 147/102/123
o Cube.001
v 1.842747 -1.170169 1.906409
v 1.693985 1.138393 1.921153
v 2.460098 1.187972 1.888067
v 2.608860 -1.120591 1.873323
v 1.857579 -1.171395 2.248015
v 1.708818 1.137167 2.262759
v 2.474930 1.186746 2.229674
v 2.623692 -1.121817 2.214930
v 2.467883 1.187328 2.067360
v 2.616539 -1.121225 2.050203
vt 1.023848 0.025044
vt 0.974956 1.023848
vt -0.023848 0.974956
vt 0.025044 -0.023848
vt 0.773699 0.012799
vt 0.731863 1.011949
vt 0.780755 0.013144
vt 0.724807 1.011603
vn -0.996987 -0.064520 0.043057
vn -0.064304 0.997910 0.006373
vn -0.064304 0.997910 0.006374
vn 0.064304 -0.997910 -0.006373
vn -0.043378 0.003585 -0.999052
vn 0.043378 -0.003585 0.999052
usemtl wood
s off
f 156/109/127 155/110/127 159/111/127
f 156/109/127 159/111/127 160/112/127
f 160/111/128 161/112/128 156/110/128
f 161/112/128 163/113/128 156/110/128
f 163/113/129 157/109/129 156/110/129
f 159/112/130 155/109/130 162/111/130
f 162/111/130 155/109/130 164/114/130
f 155/109/130 158/110/130 164/114/130
f 155/111/131 156/112/131 157/109/131
f 155/111/131 157/109/131 158/110/131
f 162/111/132 161/112/132 160/109/132
f 162/111/132 160/109/132 159/110/132
f 161/111/120 162/112/120 164/115/120
f 161/111/120 164/115/120 163/116/120
usemtl color
f 163/116/123 164/115/123 158/109/123
f 163/116/123 158/109/123 157/110/123
o Cube
v -1.884062 -3.476846 -0.275896
v 1.820743 -2.571439 -0.263769
v -0.970608 -1.467933 3.301290
v 1.248065 -1.573305 2.674852
v -4.735271 -2.378552 -0.111557
v -4.020608 -2.378552 2.416184
v 1.820743 -1.004643 -0.263769
v 2.412287 -0.974339 2.120821
v 2.047926 -1.816358 2.129399
v 1.895803 -2.171064 0.784636
v 2.138813 -1.180485 0.815355
v -1.889095 -2.916249 2.424345
vt 0.334548 0.321256
vt 0.166393 0.381547
vt 0.099725 0.249186
vt 0.278378 0.211671
vt 0.999902 0.437750
vt 0.073094 0.000098
vt 0.999902 0.223875
vt 0.991371 0.694521
vt 0.000098 0.482653
vt 0.475310 0.017395
vt 0.313757 0.267210
vt 0.240620 0.002130
vt 0.000072 0.166045
vt 0.263252 0.084114
vt 0.823383 0.883648
vt 0.001265 0.959779
vt 0.063000 0.376580
vt 0.000061 0.000061
vn 0.946013 -0.312479 -0.085788
vn 0.674490 -0.710624 0.200018
vn 0.744102 -0.664846 0.064974
vn 0.969573 -0.208899 -0.127445
vn -0.032929 -0.975066 0.219306
vn 0.671834 -0.723685 0.157811
vn -0.017670 -0.841182 0.540422
vn 0.126072 -0.598743 0.790918
vn -0.234870 -0.926633 0.293558
vn 0.980926 -0.091128 -0.171636
vn 0.213782 -0.637471 0.740196
vn -0.302255 -0.942961 0.139286
usemtl rock
s 1
f 172/117/133 173/118/134 174/119/135
f 172/117/133 174/119/135 175/120/136
f 174/121/135 165/122/137 166/123/138
f 165/122/137 174/121/135 173/124/134
f 165/122/137 173/124/134 176/125/139
f 167/126/140 170/127/141 176/128/139
f 175/120/136 174/119/135 166/129/138
f 175/120/136 166/129/138 171/130/142
f 168/131/143 167/132/140 176/125/139
f 168/131/143 176/125/139 173/124/134
f 169/133/144 165/134/137 176/128/139
f 170/127/141 169/133/144 176/128/139
