# Blender v2.65 (sub 0) OBJ File: 'mine.blend'
# www.blender.org
mtllib mine_000005.mtl
o Cube.010
v -0.970608 -1.467933 3.301290
v -0.829599 1.672479 3.275742
v 1.389281 1.567076 2.646768
v 1.248065 -1.573305 2.674852
v -4.735271 -2.378552 -0.111557
v -4.735271 2.474573 -0.111557
v -4.020608 -2.378552 2.416184
v -4.020608 2.474573 2.416184
v 1.820743 -1.004643 -0.263769
v 1.820743 1.026962 -0.263769
v 2.412287 -0.974339 2.120821
v 2.412287 1.005666 2.120816
v 1.656247 -0.019565 3.122018
v 2.090075 1.912379 2.123053
v 2.047926 -1.816358 2.129399
v -1.884062 0.060155 -0.275896
v -1.886737 -0.957692 1.159422
v -1.886710 1.125377 1.144304
v -2.040553 0.078215 0.982734
v 2.138813 -1.180485 0.815355
v 2.412287 -0.000094 2.364433
v 2.116842 1.203571 0.736724
v -0.847909 0.180697 3.726305
v -3.360740 0.110334 3.063396
v -5.754025 -0.259339 -0.111557
v -5.056358 -0.084559 1.653913
v 1.560228 1.132924 0.554838
v 1.020599 -0.317325 -0.123275
v 1.146214 -0.767250 1.685359
v 1.149260 -0.986991 0.582358
v 1.445396 0.028508 1.851547
v 1.274792 0.789085 1.709883
v 1.171154 0.347550 -0.123275
v -1.885690 -1.020021 0.451488
v -1.885341 0.931514 0.209908
v 0.164850 -0.184505 -0.168489
v 0.233573 0.231325 -0.169787
vt 0.326234 0.067422
vt 0.639506 0.129462
vt 0.624047 0.687569
vt 0.326762 0.687569
vt 0.641230 0.250661
vt 0.665268 0.503177
vt 0.302816 0.555751
vt 0.313514 0.405014
vt 0.712322 0.043185
vt 0.924178 0.088828
vt 0.999939 0.376578
vt 0.680544 0.229702
vt 0.344467 0.116182
vt 0.270323 0.093676
vt 0.273031 0.013294
vt 0.347071 0.015360
vt 0.458282 0.116380
vt 0.415402 0.105403
vt 0.441778 0.007502
vt 0.509457 0.515494
vt 0.334548 0.321256
vt 0.502793 0.364462
vt 0.233689 0.514095
vt 0.166393 0.381547
vt 0.787006 0.515489
vt 0.676353 0.321319
vt 0.854649 0.377923
vt 0.202159 0.036297
vt 0.210079 0.000136
vt 0.231385 0.004803
vt 0.198895 0.051199
vt 0.233644 0.089383
vt 0.245097 0.007806
vt 0.475310 0.017395
vt 0.313757 0.267210
vt 0.000083 0.672125
vt 0.012359 0.113989
vt 0.016553 0.555751
vt 0.000075 0.302609
vt 0.321676 0.187414
vt 0.509220 0.154408
vt 0.469215 0.188505
vt 0.492380 0.079243
vt 0.278378 0.211671
vt 0.263252 0.084114
vt 0.379342 0.000072
vt 0.390426 0.100292
vt 0.419787 0.220772
vt 0.341995 0.211895
vt 0.266102 0.218936
vt 0.443553 0.153466
vt 0.411909 0.013510
vt 0.458777 0.003694
vt 0.474657 0.000136
vt 0.486901 0.054786
vn 0.446181 -0.014527 0.894803
vn 0.448805 0.276803 0.849635
vn 0.001160 0.270669 0.962645
vn 0.013794 0.017273 0.999725
vn -0.671743 0.230445 0.704001
vn -0.906552 0.310739 0.285562
vn -0.948546 -0.042482 0.313761
vn -0.866848 -0.009095 0.498428
vn -0.403272 0.008545 0.915006
vn 0.331706 -0.004212 -0.943358
vn 0.256813 0.631550 -0.731529
vn 0.201605 0.835780 -0.510697
vn 0.210639 -0.004547 -0.977538
vn 0.250526 -0.957579 0.142247
vn 0.245155 -0.613422 -0.750725
vn 0.201849 -0.852412 -0.482315
vn 0.962066 0.197821 0.187811
vn 0.999786 -0.017884 0.007416
vn 0.413800 -0.290841 0.862636
vn 0.581652 -0.279946 0.763726
vn 0.954894 -0.213965 0.205786
vn 0.596973 0.250099 0.762261
vn -0.002411 0.784509 0.620075
vn -0.002777 0.011505 0.999908
vn 0.156713 0.840358 0.518815
vn 0.186621 0.965941 0.179174
vn -0.026582 -0.249092 0.968108
vn -0.659505 -0.235847 0.713706
vn -0.882473 -0.358135 0.304880
vn 0.502365 -0.822596 0.266335
vn 0.329173 -0.942534 -0.056978
vn 0.153508 -0.808435 0.568163
vn 0.299448 0.953825 -0.022309
vn 0.407666 0.860439 0.305582
vn -0.001160 -0.752464 0.658589
usemtl rock
s 1
f 13/1/1 3/2/2 2/3/3
f 13/1/1 2/3/3 23/4/4
f 8/5/5 6/6/6 25/7/7
f 8/5/5 25/7/7 26/8/8
f 23/9/4 2/10/3 8/11/5
f 23/9/4 8/11/5 24/12/9
f 31/13/10 29/14/11 17/15/12
f 31/13/10 17/15/12 19/16/13
f 27/17/14 32/18/15 18/19/16
f 13/20/1 11/21/17 21/22/18
f 13/20/1 4/23/19 11/21/17
f 4/23/19 15/24/20 11/21/17
f 3/25/2 12/26/21 14/27/22
f 3/25/2 13/20/1 12/26/21
f 13/20/1 21/22/18 12/26/21
f 36/28/23 16/29/24 34/30/23
f 28/31/25 36/28/23 34/30/23
f 30/32/26 28/31/25 34/30/23
f 30/32/26 34/30/23 17/33/12
f 1/34/27 23/9/4 24/12/9
f 1/34/27 24/12/9 7/35/28
f 23/4/4 1/36/27 4/37/19
f 23/4/4 4/37/19 13/1/1
f 5/38/29 7/39/28 26/8/8
f 5/38/29 26/8/8 25/7/7
f 24/40/9 8/5/5 26/8/8
f 7/39/28 24/40/9 26/8/8
f 10/41/30 22/42/31 27/17/14
f 10/41/30 27/17/14 33/43/32
f 20/44/33 9/45/34 28/46/25
f 20/44/33 28/46/25 30/47/26
f 22/42/31 12/48/21 32/18/15
f 22/42/31 32/18/15 27/17/14
f 12/48/21 21/49/18 31/13/10
f 12/48/21 31/13/10 32/18/15
f 21/49/18 11/50/17 29/14/11
f 21/49/18 29/14/11 31/13/10
f 11/21/17 20/44/33 30/47/26
f 11/21/17 30/47/26 29/51/11
f 32/18/15 31/13/10 19/16/13
f 32/18/15 19/16/13 18/52/16
f 29/14/11 30/32/26 17/15/12
f 33/43/32 27/17/14 18/19/16
f 33/43/32 18/19/16 35/53/35
f 33/43/32 35/53/35 16/54/24
f 33/43/32 16/54/24 37/55/35
o Cube.009
v -1.884062 3.572867 -0.275896
v 1.820743 2.667460 -0.263769
v -0.829599 1.672479 3.275742
v 1.389281 1.567076 2.646768
v -4.735271 2.474573 -0.111557
v -4.020608 2.474573 2.416184
v 1.820743 1.026962 -0.263769
v 2.412287 1.005666 2.120816
v 2.090075 1.912379 2.123053
v 2.116842 1.203571 0.736724
v 1.902483 2.250176 0.623013
v -4.667451 2.500698 -0.115466
v -1.888678 3.253268 2.199426
vt 0.999919 0.277894
vt 0.066880 0.654903
vt 0.000081 0.235646
vt 0.999919 0.000081
vt 0.914103 0.222837
vt 0.733142 0.210602
vt 0.724841 0.097776
vt 0.999928 0.147226
vt 0.854649 0.377923
vt 0.676353 0.321319
vt 0.906562 0.205802
vt 0.999925 0.342923
vt 0.741236 0.474821
vt 0.985368 0.468660
vt 0.641230 0.250661
vt 0.756674 0.000075
vt 0.624047 0.687569
vt 0.639506 0.129462
vt 0.759397 0.000083
vt 0.999917 0.664512
vt 0.665268 0.503177
vn 0.775201 0.630543 0.038026
vn -0.021302 0.986877 0.159948
vn -0.015412 0.876095 0.481857
vn 0.694327 0.693045 0.193732
vn 0.973907 0.172094 -0.147832
vn 0.979797 0.070223 -0.187201
vn 0.655690 0.723655 0.215278
vn 0.959716 0.257179 -0.112949
vn -0.337687 0.935850 0.100620
vn -0.292611 0.894070 0.339091
vn 0.144993 0.619373 0.771569
vn 0.233528 0.646657 0.726127
vn -0.333628 0.937895 0.094913
usemtl rock
s 1
f 48/56/36 38/57/37 50/58/38
f 48/56/36 50/58/38 46/59/39
f 48/60/36 47/61/40 44/62/41
f 48/60/36 44/62/41 39/63/42
f 46/64/39 45/65/43 47/61/40
f 46/64/39 47/61/40 48/60/36
f 50/66/38 38/67/37 49/68/44
f 38/57/37 48/56/36 39/69/42
f 43/70/45 40/71/46 50/66/38
f 40/72/46 41/73/47 46/74/39
f 40/72/46 46/74/39 50/75/38
f 42/76/48 43/70/45 50/66/38
f 42/76/48 50/66/38 49/68/44
o Cube.008
v 3.442785 -0.977404 0.783810
v 3.418120 -0.845290 0.651942
v 3.479391 -0.713915 0.772102
v 3.504056 -0.846030 0.903969
v 3.174556 -0.881236 0.875552
v 3.159942 -0.802957 0.797419
v 3.196246 -0.725115 0.868615
v 3.210860 -0.803395 0.946749
v 3.423748 -0.952212 0.807223
v 3.466983 -0.859152 0.892341
v 3.396962 -0.822640 0.684844
v 3.429099 -0.742818 0.759807
v 3.466837 -0.819975 0.887643
v 3.329194 -0.802917 0.910843
v 3.316803 -0.739534 0.847745
v 3.413194 -0.945451 0.769638
v 3.396156 -0.852191 0.676272
v 3.443024 -0.734245 0.804409
v 3.306051 -0.742526 0.807392
v 3.175386 -0.775191 0.828293
v 3.182799 -0.759297 0.842830
v 3.270213 -0.804248 0.753649
v 3.325103 -0.839216 0.912403
v 2.972456 -0.749294 0.949002
v 2.965043 -0.765188 0.934465
v 3.293191 -0.904809 0.852425
v 3.284026 -0.902690 0.817858
v 3.190389 -0.847288 0.906602
v 3.197802 -0.831394 0.921139
v 3.268706 -0.833405 0.750490
v 3.470914 -0.917091 0.838974
v 3.447883 -0.781474 0.710310
v 3.491328 -0.777852 0.835918
v 3.429180 -0.904529 0.711071
v 3.453126 -0.812348 0.739601
v 3.450257 -0.861569 0.753413
v 3.468420 -0.824547 0.789900
v 3.464436 -0.878944 0.802783
v 3.376928 -0.831983 0.798054
v 3.371456 -0.799762 0.767486
v 3.368587 -0.848984 0.781298
v 3.386750 -0.811961 0.817785
v 3.382766 -0.866359 0.830668
vn -0.443691 -0.673240 -0.591511
vn -0.443692 -0.673242 -0.591509
vn -0.443691 -0.673241 -0.591511
vn -0.443689 -0.673242 -0.591512
vn -0.455842 -0.683764 -0.569803
vn -0.443692 -0.673241 -0.591510
vn -0.443692 -0.673239 -0.591512
vn -0.443693 -0.673236 -0.591514
vn 0.008893 -0.677139 0.735801
vn 0.008893 -0.677138 0.735802
vn 0.008894 -0.677138 0.735802
vn 0.008894 -0.677138 0.735803
vn 0.008894 -0.677139 0.735802
vn 0.008894 -0.677137 0.735803
vn 0.008895 -0.677139 0.735802
vn -0.338205 0.715433 -0.611370
vn 0.936454 -0.144311 -0.319731
vn 0.936453 -0.144309 -0.319736
vn -0.936453 0.144310 0.319734
vn 0.144262 -0.706886 0.692460
vn 0.162769 -0.709206 0.685954
vn -0.250902 0.714432 -0.653173
vn -0.250903 0.714432 -0.653173
vn 0.259828 -0.714527 0.649570
vn 0.201683 0.710536 0.674138
vn 0.201683 0.710535 0.674139
vn 0.201683 0.710534 0.674140
vn 0.201683 0.710536 0.674139
vn 0.201684 0.710535 0.674139
vn 0.201682 0.710535 0.674139
vn -0.084757 -0.709840 -0.699245
vn 0.287159 -0.715958 0.636352
vn 0.136484 0.633182 -0.761874
vn 0.936454 -0.144309 -0.319733
vn 0.936454 -0.144308 -0.319732
vn 0.936454 -0.144308 -0.319734
vn 0.936453 -0.144306 -0.319737
vn 0.936454 -0.144308 -0.319733
vn 0.936452 -0.144308 -0.319738
vn 0.936454 -0.144310 -0.319731
vn 0.346287 0.234691 0.908298
vn -0.206767 -0.963370 -0.170780
vn 0.233839 0.936218 0.262326
vn -0.343513 -0.192534 -0.919200
vn 0.936454 -0.144306 -0.319733
vn 0.936452 -0.144311 -0.319737
vn 0.936452 -0.144312 -0.319736
vn 0.936454 -0.144307 -0.319732
usemtl metal
s off
f 51//49 55//49 77//49
f 51//50 77//50 66//50
f 51//51 66//51 67//51
f 51//52 67//52 52//52
f 51//53 52//53 84//53
f 55//51 56//51 77//51
f 56//54 80//54 77//54
f 56//55 52//55 80//55
f 52//56 67//56 80//56
f 55//57 51//57 76//57
f 78//58 55//58 76//58
f 79//58 78//58 76//58
f 58//58 79//58 76//58
f 58//59 76//59 73//59
f 51//60 59//60 76//60
f 54//61 58//61 73//61
f 54//62 73//62 60//62
f 54//63 60//63 59//63
f 59//58 51//58 54//58
f 54//64 51//64 81//64
f 88//65 87//65 83//65
f 88//66 83//66 54//66
f 81//66 88//66 54//66
f 57//67 56//67 55//67
f 58//67 57//67 55//67
f 58//68 55//68 78//68
f 58//69 78//69 79//69
f 57//70 53//70 69//70
f 53//70 62//70 69//70
f 53//71 61//71 62//71
f 53//70 52//70 61//70
f 53//72 82//72 52//72
f 58//73 54//73 64//73
f 57//74 58//74 64//74
f 57//75 64//75 65//75
f 54//76 63//76 64//76
f 53//73 57//73 65//73
f 53//76 65//76 68//76
f 53//77 68//77 63//77
f 53//78 63//78 54//78
f 53//79 54//79 83//79
f 56//70 72//70 52//70
f 56//70 57//70 72//70
f 57//70 69//70 72//70
f 72//70 61//70 52//70
f 74//80 75//80 70//80
f 74//80 70//80 71//80
f 79//81 78//81 75//81
f 79//81 75//81 74//81
f 51//82 84//82 86//82
f 51//83 86//83 88//83
f 51//84 88//84 81//84
f 85//85 82//85 53//85
f 85//86 53//86 83//86
f 85//82 83//82 87//82
f 84//86 52//86 82//86
f 84//87 82//87 85//87
f 84//88 85//88 86//88
f 86//89 85//89 90//89
f 86//89 90//89 91//89
f 85//90 87//90 92//90
f 85//90 92//90 90//90
f 88//91 86//91 91//91
f 88//91 91//91 93//91
f 87//92 88//92 93//92
f 87//92 93//92 92//92
f 91//93 90//93 89//93
f 89//94 90//94 92//94
f 93//95 89//95 92//95
f 93//96 91//96 89//96
o Plane
v 2.343834 -0.888673 2.094509
v 2.325226 -0.886569 2.042569
v 3.300464 -0.857580 1.753032
v 3.161311 -0.862103 1.802704
v 3.121951 -0.860708 1.758909
v 3.140737 -0.855491 1.652573
v 3.207452 -0.853636 1.635529
v 3.202411 -0.856421 1.694026
v 3.173671 -0.857383 1.704882
vn 0.015979 -0.998805 -0.046179
vn 0.015980 -0.998805 -0.046179
vn 0.015979 -0.998805 -0.046180
usemtl metal
s off
f 97//97 94//97 95//97
f 95//97 98//97 97//97
f 98//98 102//98 97//98
f 100//97 96//97 101//97
f 98//99 99//99 102//99
f 99//99 101//99 102//99
f 99//97 100//97 101//97
o Cube.007
v 1.199219 0.528419 1.611146
v 1.199219 0.534080 -0.196588
v 1.422902 0.534080 -0.196588
v 1.422902 0.528419 1.611146
v 1.199219 0.752103 1.611847
v 1.199219 0.757764 -0.195888
v 1.422902 0.757764 -0.195888
v 1.422902 0.752103 1.611847
vt 1.023848 0.025044
vt 0.974956 1.023848
vt -0.023848 0.974956
vt 0.025044 -0.023848
vn -1.000000 -0.000000 0.000000
vn 0.000000 0.003132 -0.999995
vn 1.000000 -0.000000 0.000000
vn 0.000000 -0.003132 0.999995
vn 0.000000 -0.999995 -0.003132
vn 0.000000 0.999995 0.003132
usemtl wood
s off
f 104/77/100 103/78/100 107/79/100
f 104/77/100 107/79/100 108/80/100
f 108/79/101 109/80/101 105/77/101
f 108/79/101 105/77/101 104/78/101
f 109/79/102 110/80/102 106/77/102
f 109/79/102 106/77/102 105/78/102
f 103/77/103 106/78/103 110/79/103
f 103/77/103 110/79/103 107/80/103
f 103/79/104 104/80/104 105/77/104
f 103/79/104 105/77/104 106/78/104
f 110/79/105 109/80/105 108/77/105
f 110/79/105 108/77/105 107/78/105
o Cube.006
v 1.199219 -0.712775 1.611146
v 1.199219 -0.707114 -0.196588
v 1.422902 -0.707114 -0.196588
v 1.422902 -0.712775 1.611146
v 1.199219 -0.489092 1.611847
v 1.199219 -0.483431 -0.195888
v 1.422902 -0.483431 -0.195888
v 1.422902 -0.489092 1.611847
vt 1.023848 0.025044
vt 0.974956 1.023848
vt -0.023848 0.974956
vt 0.025044 -0.023848
usemtl wood
s off
f 112/81/100 111/82/100 115/83/100
f 112/81/100 115/83/100 116/84/100
f 116/83/101 117/84/101 113/81/101
f 116/83/101 113/81/101 112/82/101
f 117/83/102 118/84/102 114/81/102
f 117/83/102 114/81/102 113/82/102
f 111/81/103 114/82/103 118/83/103
f 111/81/103 118/83/103 115/84/103
f 111/83/104 112/84/104 113/81/104
f 111/83/104 113/81/104 114/82/104
f 118/83/105 117/84/105 116/81/105
f 118/83/105 116/81/105 115/82/105
o Cube.005
v 2.582690 0.453848 1.865668
v 0.269322 0.461093 1.874756
v 0.267979 0.461093 1.532829
v 2.581347 0.453848 1.523740
v 2.583761 0.795777 1.865664
v 0.270393 0.803021 1.874752
v 0.269049 0.803021 1.532825
v 2.582417 0.795777 1.523736
vt 1.023848 0.025044
vt 0.974956 1.023848
vt -0.023848 0.974956
vt 0.025044 -0.023848
vn 0.003929 -0.000000 0.999992
vn -0.999987 0.003131 0.003928
vn -0.003929 0.000000 -0.999992
vn 0.999987 -0.003131 -0.003928
vn -0.003132 -0.999995 0.000012
vn 0.003132 0.999995 -0.000012
usemtl wood
s off
f 120/85/106 119/86/106 123/87/106
f 120/85/106 123/87/106 124/88/106
f 124/87/107 125/88/107 121/85/107
f 124/87/107 121/85/107 120/86/107
f 125/87/108 126/88/108 122/85/108
f 125/87/108 122/85/108 121/86/108
f 119/85/109 122/86/109 126/87/109
f 119/85/109 126/87/109 123/88/109
f 119/87/110 120/88/110 121/85/110
f 119/87/110 121/85/110 122/86/110
f 126/87/111 125/88/111 124/85/111
f 126/87/111 124/85/111 123/86/111
o Cube.004
v 2.582690 -0.764888 1.865668
v 0.269322 -0.757644 1.874756
v 0.267979 -0.757644 1.532829
v 2.581347 -0.764888 1.523740
v 2.583761 -0.422960 1.865664
v 0.270393 -0.415715 1.874752
v 0.269049 -0.415715 1.532825
v 2.582417 -0.422960 1.523736
vt 1.023848 0.025044
vt 0.974956 1.023848
vt -0.023848 0.974956
vt 0.025044 -0.023848
usemtl wood
s off
f 128/89/106 127/90/106 131/91/106
f 128/89/106 131/91/106 132/92/106
f 132/91/107 133/92/107 129/89/107
f 132/91/107 129/89/107 128/90/107
f 133/91/108 134/92/108 130/89/108
f 133/91/108 130/89/108 129/90/108
f 127/89/109 130/90/109 134/91/109
f 127/89/109 134/91/109 131/92/109
f 127/91/110 128/92/110 129/89/110
f 127/91/110 129/89/110 130/90/110
f 134/91/111 133/92/111 132/89/111
f 134/91/111 132/89/111 131/90/111
o Cube.003
v 1.992025 -1.127223 2.151117
v 1.955375 -1.115453 -0.161960
v 2.297168 -1.107391 -0.167335
v 2.333818 -1.119160 2.145742
v 1.983991 -0.785392 2.152983
v 1.947341 -0.773623 -0.160094
v 2.289134 -0.765560 -0.165468
v 2.325784 -0.777329 2.147609
v 2.293857 -0.966220 -0.166169
v 2.330313 -0.969758 2.146952
vt 1.023848 0.025044
vt 0.974956 1.023848
vt -0.023848 0.974956
vt 0.025044 -0.023848
vt 0.243481 -0.013155
vt 0.194589 0.985649
vt 0.219430 -0.014333
vt 0.170538 0.984471
vn -0.999598 -0.023580 0.015718
vn -0.015842 0.005087 -0.999862
vn -0.013831 0.003169 -0.999899
vn -0.015908 0.007880 -0.999842
vn 0.999599 0.023579 -0.015718
vn 0.015842 -0.005087 0.999862
vn 0.013745 -0.003087 0.999901
vn 0.015904 -0.007726 0.999844
vn 0.023497 -0.999709 -0.005459
vn -0.023497 0.999709 0.005459
vn 0.999598 0.023580 -0.015718
usemtl wood
s off
f 136/93/112 135/94/112 139/95/112
f 136/93/112 139/95/112 140/96/112
f 140/95/113 141/96/113 136/94/113
f 141/96/114 143/97/114 136/94/114
f 143/97/115 137/93/115 136/94/115
f 143/98/116 144/99/116 138/93/116
f 143/98/116 138/93/116 137/94/116
f 139/96/117 135/93/117 142/95/117
f 142/95/118 135/93/118 144/100/118
f 135/93/119 138/94/119 144/100/119
f 135/95/120 136/96/120 137/93/120
f 135/95/120 137/93/120 138/94/120
f 142/95/121 141/96/121 140/93/121
f 142/95/121 140/93/121 139/94/121
usemtl color
f 141/95/122 142/96/122 144/99/122
f 141/95/122 144/99/122 143/98/122
o Cube.002
v 1.877524 0.754729 2.168224
v 1.840875 0.766498 -0.144853
v 2.182668 0.774561 -0.150228
v 2.219317 0.762791 2.162849
v 1.869490 1.096560 2.170090
v 1.832840 1.108329 -0.142987
v 2.174634 1.116392 -0.148361
v 2.211283 1.104622 2.164716
v 2.178176 0.965425 -0.149539
v 2.214842 0.952976 2.163535
vt 1.023848 0.025044
vt 0.974956 1.023848
vt -0.023848 0.974956
vt 0.025044 -0.023848
vt 0.795429 0.013863
vt 0.797415 0.013960
vt 0.746537 1.012667
vt 0.748523 1.012764
vn -0.018233 0.007369 -0.999807
vn -0.015799 0.003239 -0.999870
vn 0.018223 -0.007360 0.999807
vn 0.015798 -0.003232 0.999870
usemtl wood
s off
f 146/101/112 145/102/112 149/103/112
f 146/101/112 149/103/112 150/104/112
f 150/103/113 151/104/113 146/102/113
f 151/104/123 153/105/123 146/102/123
f 153/105/124 147/101/124 146/102/124
f 151/103/122 152/104/122 154/106/122
f 151/103/122 154/106/122 153/107/122
f 149/104/117 145/101/117 152/103/117
f 152/103/125 145/101/125 154/108/125
f 145/101/126 148/102/126 154/108/126
f 145/103/120 146/104/120 147/101/120
f 145/103/120 147/101/120 148/102/120
f 152/103/121 151/104/121 150/101/121
f 152/103/121 150/101/121 149/102/121
usemtl color
f 153/107/122 154/106/122 148/101/122
f 153/107/122 148/101/122 147/102/122
o Cube.001
v 1.775208 -1.142329 1.890586
v 1.720735 1.170420 1.895972
v 2.488854 1.188540 1.883893
v 2.543327 -1.124210 1.878508
v 1.780599 -1.142998 2.232474
v 1.726127 1.169751 2.237859
v 2.494246 1.187871 2.225780
v 2.548719 -1.124879 2.220395
v 2.491684 1.188189 2.063333
v 2.546119 -1.124556 2.055533
vt 1.023848 0.025044
vt 0.974956 1.023848
vt -0.023848 0.974956
vt 0.025044 -0.023848
vt 0.773699 0.012799
vt 0.731863 1.011949
vt 0.780755 0.013144
vt 0.724807 1.011603
vn -0.023546 0.999720 0.002328
vn -0.023546 0.999720 0.002327
vn 0.023546 -0.999720 -0.002328
vn 0.023546 -0.999720 -0.002327
vn -0.015769 0.001957 -0.999874
vn 0.015769 -0.001957 0.999874
vn 0.999598 0.023580 -0.015719
usemtl wood
s off
f 156/109/112 155/110/112 159/111/112
f 156/109/112 159/111/112 160/112/112
f 160/111/127 161/112/127 156/110/127
f 161/112/127 163/113/127 156/110/127
f 163/113/128 157/109/128 156/110/128
f 159/112/129 155/109/129 162/111/129
f 162/111/130 155/109/130 164/114/130
f 155/109/129 158/110/129 164/114/129
f 155/111/131 156/112/131 157/109/131
f 155/111/131 157/109/131 158/110/131
f 162/111/132 161/112/132 160/109/132
f 162/111/132 160/109/132 159/110/132
f 161/111/122 162/112/122 164/115/122
f 161/111/122 164/115/122 163/116/122
usemtl color
f 163/116/133 164/115/133 158/109/133
f 163/116/133 158/109/133 157/110/133
o Cube
v -1.884062 -3.476846 -0.275896
v 1.820743 -2.571439 -0.263769
v -0.970608 -1.467933 3.301290
v 1.248065 -1.573305 2.674852
v -4.735271 -2.378552 -0.111557
v -4.020608 -2.378552 2.416184
v 1.820743 -1.004643 -0.263769
v 2.412287 -0.974339 2.120821
v 2.047926 -1.816358 2.129399
v 1.895803 -2.171064 0.784636
v 2.138813 -1.180485 0.815355
v -1.889095 -2.916249 2.424345
vt 0.334548 0.321256
vt 0.166393 0.381547
vt 0.099725 0.249186
vt 0.278378 0.211671
vt 0.999902 0.437750
vt 0.073094 0.000098
vt 0.999902 0.223875
vt 0.991371 0.694521
vt 0.000098 0.482653
vt 0.475310 0.017395
vt 0.313757 0.267210
vt 0.240620 0.002130
vt 0.000072 0.166045
vt 0.263252 0.084114
vt 0.823383 0.883648
vt 0.001265 0.959779
vt 0.063000 0.376580
vt 0.000061 0.000061
vn 0.946013 -0.312479 -0.085788
vn 0.674490 -0.710624 0.200018
vn 0.744102 -0.664846 0.064974
vn 0.969573 -0.208899 -0.127445
vn -0.032929 -0.975066 0.219306
vn 0.671834 -0.723685 0.157811
vn -0.017670 -0.841182 0.540422
vn 0.126072 -0.598743 0.790918
vn -0.234870 -0.926633 0.293558
vn 0.980926 -0.091128 -0.171636
vn 0.213782 -0.637471 0.740196
vn -0.302255 -0.942961 0.139286
usemtl rock
s 1
f 172/117/134 173/118/135 174/119/136
f 172/117/134 174/119/136 175/120/137
f 174/121/136 165/122/138 166/123/139
f 165/122/138 174/121/136 173/124/135
f 165/122/138 173/124/135 176/125/140
f 167/126/141 170/127/142 176/128/140
f 175/120/137 174/119/136 166/129/139
f 175/120/137 166/129/139 171/130/143
f 168/131/144 167/132/141 176/125/140
f 168/131/144 176/125/140 173/124/135
f 169/133/145 165/134/138 176/128/140
f 170/127/142 169/133/145 176/128/140
