# Blender v2.65 (sub 0) OBJ File: 'mine.blend'
# www.blender.org
mtllib mine_000010.mtl
o Cube.010
v -0.970608 -1.467933 3.301290
v -0.829599 1.672479 3.275742
v 1.389281 1.567076 2.646768
v 1.248065 -1.573305 2.674852
v -4.735271 -2.378552 -0.111557
v -4.735271 2.474573 -0.111557
v -4.020608 -2.378552 2.416184
v -4.020608 2.474573 2.416184
v 1.820743 -1.004643 -0.263769
v 1.820743 1.026962 -0.263769
v 2.412287 -0.974339 2.120821
v 2.412287 1.005666 2.120816
v 1.656247 -0.019565 3.122018
v 2.090075 1.912379 2.123053
v 2.047926 -1.816358 2.129399
v -1.884062 0.060155 -0.275896
v -1.886737 -0.957692 1.159422
v -1.886710 1.125377 1.144304
v -2.040553 0.078215 0.982734
v 2.138813 -1.180485 0.815355
v 2.412287 -0.000094 2.364433
v 2.116842 1.203571 0.736724
v -0.847909 0.180697 3.726305
v -3.360740 0.110334 3.063396
v -5.754025 -0.259339 -0.111557
v -5.056358 -0.084559 1.653913
v 1.560228 1.132924 0.554838
v 1.020599 -0.317325 -0.123275
v 1.146214 -0.767250 1.685359
v 1.149260 -0.986991 0.582358
v 1.445396 0.028508 1.851547
v 1.274792 0.789085 1.709883
v 1.171154 0.347550 -0.123275
v -1.885690 -1.020021 0.451488
v -1.885341 0.931514 0.209908
v 0.164850 -0.184505 -0.168489
v 0.233573 0.231325 -0.169787
vt 0.326234 0.067422
vt 0.639506 0.129462
vt 0.624047 0.687569
vt 0.326762 0.687569
vt 0.641230 0.250661
vt 0.665268 0.503177
vt 0.302816 0.555751
vt 0.313514 0.405014
vt 0.712322 0.043185
vt 0.924178 0.088828
vt 0.999939 0.376578
vt 0.680544 0.229702
vt 0.344467 0.116182
vt 0.270323 0.093676
vt 0.273031 0.013294
vt 0.347071 0.015360
vt 0.458282 0.116380
vt 0.415402 0.105403
vt 0.441778 0.007502
vt 0.509457 0.515494
vt 0.334548 0.321256
vt 0.502793 0.364462
vt 0.233689 0.514095
vt 0.166393 0.381547
vt 0.787006 0.515489
vt 0.676353 0.321319
vt 0.854649 0.377923
vt 0.202159 0.036297
vt 0.210079 0.000136
vt 0.231385 0.004803
vt 0.198895 0.051199
vt 0.233644 0.089383
vt 0.245097 0.007806
vt 0.475310 0.017395
vt 0.313757 0.267210
vt 0.000083 0.672125
vt 0.012359 0.113989
vt 0.016553 0.555751
vt 0.000075 0.302609
vt 0.321676 0.187414
vt 0.509220 0.154408
vt 0.469215 0.188505
vt 0.492380 0.079243
vt 0.278378 0.211671
vt 0.263252 0.084114
vt 0.379342 0.000072
vt 0.390426 0.100292
vt 0.419787 0.220772
vt 0.341995 0.211895
vt 0.266102 0.218936
vt 0.443553 0.153466
vt 0.411909 0.013510
vt 0.458777 0.003694
vt 0.474657 0.000136
vt 0.486901 0.054786
vn 0.446181 -0.014527 0.894803
vn 0.448805 0.276803 0.849635
vn 0.001160 0.270669 0.962645
vn 0.013794 0.017273 0.999725
vn -0.671743 0.230445 0.704001
vn -0.906552 0.310739 0.285562
vn -0.948546 -0.042482 0.313761
vn -0.866848 -0.009095 0.498428
vn -0.403272 0.008545 0.915006
vn 0.331706 -0.004212 -0.943358
vn 0.256813 0.631550 -0.731529
vn 0.201605 0.835780 -0.510697
vn 0.210639 -0.004547 -0.977538
vn 0.250526 -0.957579 0.142247
vn 0.245155 -0.613422 -0.750725
vn 0.201849 -0.852412 -0.482315
vn 0.962066 0.197821 0.187811
vn 0.999786 -0.017884 0.007416
vn 0.413800 -0.290841 0.862636
vn 0.581652 -0.279946 0.763726
vn 0.954894 -0.213965 0.205786
vn 0.596973 0.250099 0.762261
vn -0.002411 0.784509 0.620075
vn -0.002777 0.011505 0.999908
vn 0.156713 0.840358 0.518815
vn 0.186621 0.965941 0.179174
vn -0.026582 -0.249092 0.968108
vn -0.659505 -0.235847 0.713706
vn -0.882473 -0.358135 0.304880
vn 0.502365 -0.822596 0.266335
vn 0.329173 -0.942534 -0.056978
vn 0.153508 -0.808435 0.568163
vn 0.299448 0.953825 -0.022309
vn 0.407666 0.860439 0.305582
vn -0.001160 -0.752464 0.658589
usemtl rock
s 1
f 13/1/1 3/2/2 2/3/3
f 13/1/1 2/3/3 23/4/4
f 8/5/5 6/6/6 25/7/7
f 8/5/5 25/7/7 26/8/8
f 23/9/4 2/10/3 8/11/5
f 23/9/4 8/11/5 24/12/9
f 31/13/10 29/14/11 17/15/12
f 31/13/10 17/15/12 19/16/13
f 27/17/14 32/18/15 18/19/16
f 13/20/1 11/21/17 21/22/18
f 13/20/1 4/23/19 11/21/17
f 4/23/19 15/24/20 11/21/17
f 3/25/2 12/26/21 14/27/22
f 3/25/2 13/20/1 12/26/21
f 13/20/1 21/22/18 12/26/21
f 36/28/23 16/29/24 34/30/23
f 28/31/25 36/28/23 34/30/23
f 30/32/26 28/31/25 34/30/23
f 30/32/26 34/30/23 17/33/12
f 1/34/27 23/9/4 24/12/9
f 1/34/27 24/12/9 7/35/28
f 23/4/4 1/36/27 4/37/19
f 23/4/4 4/37/19 13/1/1
f 5/38/29 7/39/28 26/8/8
f 5/38/29 26/8/8 25/7/7
f 24/40/9 8/5/5 26/8/8
f 7/39/28 24/40/9 26/8/8
f 10/41/30 22/42/31 27/17/14
f 10/41/30 27/17/14 33/43/32
f 20/44/33 9/45/34 28/46/25
f 20/44/33 28/46/25 30/47/26
f 22/42/31 12/48/21 32/18/15
f 22/42/31 32/18/15 27/17/14
f 12/48/21 21/49/18 31/13/10
f 12/48/21 31/13/10 32/18/15
f 21/49/18 11/50/17 29/14/11
f 21/49/18 29/14/11 31/13/10
f 11/21/17 20/44/33 30/47/26
f 11/21/17 30/47/26 29/51/11
f 32/18/15 31/13/10 19/16/13
f 32/18/15 19/16/13 18/52/16
f 29/14/11 30/32/26 17/15/12
f 33/43/32 27/17/14 18/19/16
f 33/43/32 18/19/16 35/53/35
f 33/43/32 35/53/35 16/54/24
f 33/43/32 16/54/24 37/55/35
o Cube.009
v -1.884062 3.572867 -0.275896
v 1.820743 2.667460 -0.263769
v -0.829599 1.672479 3.275742
v 1.389281 1.567076 2.646768
v -4.735271 2.474573 -0.111557
v -4.020608 2.474573 2.416184
v 1.820743 1.026962 -0.263769
v 2.412287 1.005666 2.120816
v 2.090075 1.912379 2.123053
v 2.116842 1.203571 0.736724
v 1.902483 2.250176 0.623013
v -4.667451 2.500698 -0.115466
v -1.888678 3.253268 2.199426
vt 0.999919 0.277894
vt 0.066880 0.654903
vt 0.000081 0.235646
vt 0.999919 0.000081
vt 0.914103 0.222837
vt 0.733142 0.210602
vt 0.724841 0.097776
vt 0.999928 0.147226
vt 0.854649 0.377923
vt 0.676353 0.321319
vt 0.906562 0.205802
vt 0.999925 0.342923
vt 0.741236 0.474821
vt 0.985368 0.468660
vt 0.641230 0.250661
vt 0.756674 0.000075
vt 0.624047 0.687569
vt 0.639506 0.129462
vt 0.759397 0.000083
vt 0.999917 0.664512
vt 0.665268 0.503177
vn 0.775201 0.630543 0.038026
vn -0.021302 0.986877 0.159948
vn -0.015412 0.876095 0.481857
vn 0.694327 0.693045 0.193732
vn 0.973907 0.172094 -0.147832
vn 0.979797 0.070223 -0.187201
vn 0.655690 0.723655 0.215278
vn 0.959716 0.257179 -0.112949
vn -0.337687 0.935850 0.100620
vn -0.292611 0.894070 0.339091
vn 0.144993 0.619373 0.771569
vn 0.233528 0.646657 0.726127
vn -0.333628 0.937895 0.094913
usemtl rock
s 1
f 48/56/36 38/57/37 50/58/38
f 48/56/36 50/58/38 46/59/39
f 48/60/36 47/61/40 44/62/41
f 48/60/36 44/62/41 39/63/42
f 46/64/39 45/65/43 47/61/40
f 46/64/39 47/61/40 48/60/36
f 50/66/38 38/67/37 49/68/44
f 38/57/37 48/56/36 39/69/42
f 43/70/45 40/71/46 50/66/38
f 40/72/46 41/73/47 46/74/39
f 40/72/46 46/74/39 50/75/38
f 42/76/48 43/70/45 50/66/38
f 42/76/48 50/66/38 49/68/44
o Cube.008
v 3.577087 -0.857807 -0.018679
v 3.582278 -0.672492 -0.051590
v 3.557427 -0.639182 0.132052
v 3.552236 -0.824497 0.164963
v 3.281375 -0.812139 -0.027647
v 3.284451 -0.702338 -0.047147
v 3.269726 -0.682601 0.061664
v 3.266651 -0.792403 0.081164
v 3.545033 -0.849327 0.002434
v 3.527281 -0.825720 0.132442
v 3.544914 -0.671381 -0.026175
v 3.524505 -0.651885 0.084401
v 3.520675 -0.791094 0.150172
v 3.385933 -0.780228 0.111427
v 3.387861 -0.691376 0.095494
v 3.550071 -0.821410 -0.025224
v 3.554182 -0.690462 -0.048478
v 3.516181 -0.671600 0.126813
v 3.395993 -0.669797 0.060550
v 3.279094 -0.698635 -0.003326
v 3.276088 -0.694606 0.018891
v 3.400314 -0.686477 -0.027117
v 3.389502 -0.810387 0.091068
v 3.043916 -0.731765 0.000659
v 3.046922 -0.735795 -0.021558
v 3.400740 -0.826929 -0.001226
v 3.406736 -0.804633 -0.028618
v 3.274954 -0.803532 0.019808
v 3.271947 -0.799502 0.042025
v 3.406604 -0.708298 -0.045735
v 3.565678 -0.842514 0.065630
v 3.570206 -0.656312 0.037615
v 3.554915 -0.728865 0.147980
v 3.579950 -0.755586 -0.036833
v 3.569175 -0.698701 0.043993
v 3.571460 -0.746526 0.025844
v 3.564143 -0.738716 0.079857
v 3.566952 -0.790139 0.057750
v 3.481684 -0.742607 0.038894
v 3.482759 -0.698368 0.032238
v 3.485044 -0.746193 0.014090
v 3.477727 -0.738383 0.068103
v 3.480536 -0.789806 0.045995
vn 0.002842 -0.174934 -0.984576
vn 0.998917 -0.020811 0.041622
vn -0.155373 -0.975475 0.155912
vn -0.155372 -0.975475 0.155910
vn -0.155372 -0.975475 0.155911
vn -0.155373 -0.975475 0.155910
vn -0.155371 -0.975475 0.155910
vn -0.151582 0.968804 -0.196067
vn 0.990868 -0.003821 0.134781
vn 0.990868 -0.003818 0.134779
vn 0.990868 -0.003822 0.134778
vn -0.990868 0.003819 -0.134779
vn -0.078174 -0.982765 0.167517
vn -0.017188 -0.984015 0.177252
vn -0.100698 0.976462 -0.190742
vn -0.100699 0.976462 -0.190741
vn -0.100699 0.976462 -0.190742
vn -0.726578 0.652057 -0.216576
vn -0.258913 0.175921 0.949745
vn -0.258914 0.175921 0.949745
vn -0.258914 0.175920 0.949745
vn -0.258913 0.175922 0.949745
vn -0.258913 0.175920 0.949745
vn -0.258912 0.175921 0.949745
vn -0.888889 0.111111 0.444444
vn -0.100698 0.976462 -0.190741
vn -0.100698 0.976462 -0.190740
vn 0.140053 -0.970746 0.195030
vn 0.303942 0.943771 -0.130056
vn 0.990868 -0.003818 0.134780
vn 0.990869 -0.003817 0.134778
vn 0.990868 -0.003822 0.134782
vn 0.990868 -0.003820 0.134779
vn 0.990868 -0.003818 0.134778
vn 0.990868 -0.003813 0.134780
vn 0.990868 -0.003820 0.134781
vn -0.127239 -0.357214 0.925315
vn 0.097391 -0.671020 -0.735015
vn -0.106155 0.594219 0.797267
vn 0.125172 0.397617 -0.908974
vn 0.990869 -0.003817 0.134777
vn 0.990869 -0.003817 0.134775
vn 0.990869 -0.003818 0.134775
vn 0.990869 -0.003818 0.134777
usemtl metal
s off
f 51//49 55//49 77//49
f 51//49 77//49 66//49
f 51//49 66//49 67//49
f 51//49 67//49 52//49
f 51//50 52//50 84//50
f 55//49 56//49 77//49
f 56//49 80//49 77//49
f 56//49 52//49 80//49
f 52//49 67//49 80//49
f 55//51 51//51 76//51
f 78//52 55//52 76//52
f 79//53 78//53 76//53
f 58//54 79//54 76//54
f 58//52 76//52 73//52
f 51//54 59//54 76//54
f 54//52 58//52 73//52
f 54//51 73//51 60//51
f 54//55 60//55 59//55
f 59//52 51//52 54//52
f 54//56 51//56 81//56
f 88//57 87//57 83//57
f 88//58 83//58 54//58
f 81//59 88//59 54//59
f 57//60 56//60 55//60
f 58//60 57//60 55//60
f 58//61 55//61 78//61
f 58//62 78//62 79//62
f 57//63 53//63 69//63
f 53//64 62//64 69//64
f 53//63 61//63 62//63
f 53//65 52//65 61//65
f 53//66 82//66 52//66
f 58//67 54//67 64//67
f 57//67 58//67 64//67
f 57//68 64//68 65//68
f 54//69 63//69 64//69
f 53//70 57//70 65//70
f 53//71 65//71 68//71
f 53//68 68//68 63//68
f 53//72 63//72 54//72
f 53//73 54//73 83//73
f 56//74 72//74 52//74
f 56//74 57//74 72//74
f 57//74 69//74 72//74
f 72//75 61//75 52//75
f 74//76 75//76 70//76
f 74//76 70//76 71//76
f 79//77 78//77 75//77
f 79//77 75//77 74//77
f 51//78 84//78 86//78
f 51//79 86//79 88//79
f 51//80 88//80 81//80
f 85//81 82//81 53//81
f 85//82 53//82 83//82
f 85//83 83//83 87//83
f 84//58 52//58 82//58
f 84//84 82//84 85//84
f 84//78 85//78 86//78
f 86//85 85//85 90//85
f 86//85 90//85 91//85
f 85//86 87//86 92//86
f 85//86 92//86 90//86
f 88//87 86//87 91//87
f 88//87 91//87 93//87
f 87//88 88//88 93//88
f 87//88 93//88 92//88
f 91//89 90//89 89//89
f 89//90 90//90 92//90
f 93//91 89//91 92//91
f 93//92 91//92 89//92
o Plane
v 2.594474 -0.892710 2.095788
v 2.555380 -0.891467 2.056820
v 3.303442 -0.712929 1.390269
v 3.200314 -0.739080 1.492895
v 3.146160 -0.741796 1.469895
v 3.117049 -0.730203 1.366426
v 3.169418 -0.718213 1.323313
v 3.190171 -0.723749 1.378028
v 3.169129 -0.729198 1.399761
vn 0.109225 -0.983969 -0.140977
vn 0.109224 -0.983969 -0.140978
vn 0.109225 -0.983969 -0.140979
usemtl metal
s off
f 97//93 94//93 95//93
f 95//93 98//93 97//93
f 98//93 102//93 97//93
f 100//93 96//93 101//93
f 98//94 99//94 102//94
f 99//95 101//95 102//95
f 99//93 100//93 101//93
o Cube.007
v 1.199219 0.528419 1.611146
v 1.199219 0.534080 -0.196588
v 1.422902 0.534080 -0.196588
v 1.422902 0.528419 1.611146
v 1.199219 0.752103 1.611847
v 1.199219 0.757764 -0.195888
v 1.422902 0.757764 -0.195888
v 1.422902 0.752103 1.611847
vt 1.023848 0.025044
vt 0.974956 1.023848
vt -0.023848 0.974956
vt 0.025044 -0.023848
vn -1.000000 -0.000000 0.000000
vn 0.000000 0.003132 -0.999995
vn 1.000000 -0.000000 0.000000
vn 0.000000 -0.003132 0.999995
vn 0.000000 -0.999995 -0.003132
vn 0.000000 0.999995 0.003132
usemtl wood
s off
f 104/77/96 103/78/96 107/79/96
f 104/77/96 107/79/96 108/80/96
f 108/79/97 109/80/97 105/77/97
f 108/79/97 105/77/97 104/78/97
f 109/79/98 110/80/98 106/77/98
f 109/79/98 106/77/98 105/78/98
f 103/77/99 106/78/99 110/79/99
f 103/77/99 110/79/99 107/80/99
f 103/79/100 104/80/100 105/77/100
f 103/79/100 105/77/100 106/78/100
f 110/79/101 109/80/101 108/77/101
f 110/79/101 108/77/101 107/78/101
o Cube.006
v 1.199219 -0.712775 1.611146
v 1.199219 -0.707114 -0.196588
v 1.422902 -0.707114 -0.196588
v 1.422902 -0.712775 1.611146
v 1.199219 -0.489092 1.611847
v 1.199219 -0.483431 -0.195888
v 1.422902 -0.483431 -0.195888
v 1.422902 -0.489092 1.611847
vt 1.023848 0.025044
vt 0.974956 1.023848
vt -0.023848 0.974956
vt 0.025044 -0.023848
usemtl wood
s off
f 112/81/96 111/82/96 115/83/96
f 112/81/96 115/83/96 116/84/96
f 116/83/97 117/84/97 113/81/97
f 116/83/97 113/81/97 112/82/97
f 117/83/98 118/84/98 114/81/98
f 117/83/98 114/81/98 113/82/98
f 111/81/99 114/82/99 118/83/99
f 111/81/99 118/83/99 115/84/99
f 111/83/100 112/84/100 113/81/100
f 111/83/100 113/81/100 114/82/100
f 118/83/101 117/84/101 116/81/101
f 118/83/101 116/81/101 115/82/101
o Cube.005
v 2.582690 0.453848 1.865668
v 0.269322 0.461093 1.874756
v 0.267979 0.461093 1.532829
v 2.581347 0.453848 1.523740
v 2.583761 0.795777 1.865664
v 0.270393 0.803021 1.874752
v 0.269049 0.803021 1.532825
v 2.582417 0.795777 1.523736
vt 1.023848 0.025044
vt 0.974956 1.023848
vt -0.023848 0.974956
vt 0.025044 -0.023848
vn 0.003929 -0.000000 0.999992
vn -0.999987 0.003131 0.003928
vn -0.003929 0.000000 -0.999992
vn 0.999987 -0.003131 -0.003928
vn -0.003132 -0.999995 0.000012
vn 0.003132 0.999995 -0.000012
usemtl wood
s off
f 120/85/102 119/86/102 123/87/102
f 120/85/102 123/87/102 124/88/102
f 124/87/103 125/88/103 121/85/103
f 124/87/103 121/85/103 120/86/103
f 125/87/104 126/88/104 122/85/104
f 125/87/104 122/85/104 121/86/104
f 119/85/105 122/86/105 126/87/105
f 119/85/105 126/87/105 123/88/105
f 119/87/106 120/88/106 121/85/106
f 119/87/106 121/85/106 122/86/106
f 126/87/107 125/88/107 124/85/107
f 126/87/107 124/85/107 123/86/107
o Cube.004
v 2.582690 -0.764888 1.865668
v 0.269322 -0.757644 1.874756
v 0.267979 -0.757644 1.532829
v 2.581347 -0.764888 1.523740
v 2.583761 -0.422960 1.865664
v 0.270393 -0.415715 1.874752
v 0.269049 -0.415715 1.532825
v 2.582417 -0.422960 1.523736
vt 1.023848 0.025044
vt 0.974956 1.023848
vt -0.023848 0.974956
vt 0.025044 -0.023848
usemtl wood
s off
f 128/89/102 127/90/102 131/91/102
f 128/89/102 131/91/102 132/92/102
f 132/91/103 133/92/103 129/89/103
f 132/91/103 129/89/103 128/90/103
f 133/91/104 134/92/104 130/89/104
f 133/91/104 130/89/104 129/90/104
f 127/89/105 130/90/105 134/91/105
f 127/89/105 134/91/105 131/92/105
f 127/91/106 128/92/106 129/89/106
f 127/91/106 129/89/106 130/90/106
f 134/91/107 133/92/107 132/89/107
f 134/91/107 132/89/107 131/90/107
o Cube.003
v 2.273139 -1.163201 2.170083
v 1.993510 -1.164905 -0.126351
v 2.327574 -1.104414 -0.167074
v 2.607203 -1.102709 2.129360
v 2.213061 -0.826664 2.177149
v 1.933432 -0.828368 -0.119286
v 2.267497 -0.767877 -0.160009
v 2.547126 -0.766172 2.136426
v 2.302810 -0.965427 -0.163765
v 2.580993 -0.955619 2.132840
vt 1.023848 0.025044
vt 0.974956 1.023848
vt -0.023848 0.974956
vt 0.025044 -0.023848
vt 0.243481 -0.013155
vt 0.194589 0.985649
vt 0.219430 -0.014333
vt 0.170538 0.984471
vn -0.976995 -0.176911 0.119097
vn -0.120874 -0.000737 -0.992668
vn -0.118609 -0.002323 -0.992938
vn -0.121364 0.002012 -0.992606
vn 0.976995 0.176911 -0.119097
vn 0.120874 0.000737 0.992668
vn 0.118510 0.002392 0.992950
vn 0.121338 -0.001862 0.992610
vn 0.175701 -0.984227 -0.020664
vn -0.175701 0.984227 0.020664
usemtl wood
s off
f 136/93/108 135/94/108 139/95/108
f 136/93/108 139/95/108 140/96/108
f 140/95/109 141/96/109 136/94/109
f 141/96/110 143/97/110 136/94/110
f 143/97/111 137/93/111 136/94/111
f 143/98/112 144/99/112 138/93/112
f 143/98/112 138/93/112 137/94/112
f 139/96/113 135/93/113 142/95/113
f 142/95/114 135/93/114 144/100/114
f 135/93/115 138/94/115 144/100/115
f 135/95/116 136/96/116 137/93/116
f 135/95/116 137/93/116 138/94/116
f 142/95/117 141/96/117 140/93/117
f 142/95/117 140/93/117 139/94/117
usemtl color
f 141/95/112 142/96/112 144/99/112
f 141/95/112 144/99/112 143/98/112
o Cube.002
v 1.939059 0.704188 2.203392
v 1.659430 0.702484 -0.093043
v 1.993494 0.762975 -0.133766
v 2.273123 0.764680 2.162669
v 1.878981 1.040725 2.210457
v 1.599352 1.039021 -0.085977
v 1.933416 1.099512 -0.126700
v 2.213046 1.101217 2.169734
v 1.959907 0.950882 -0.130171
v 2.239655 0.951917 2.166250
vt 1.023848 0.025044
vt 0.974956 1.023848
vt -0.023848 0.974956
vt 0.025044 -0.023848
vt 0.795429 0.013863
vt 0.797415 0.013960
vt 0.746537 1.012667
vt 0.748523 1.012764
vn -0.123567 0.001150 -0.992336
vn -0.120549 -0.002556 -0.992704
vn 0.123553 -0.001141 0.992337
vn 0.120548 0.002561 0.992704
usemtl wood
s off
f 146/101/108 145/102/108 149/103/108
f 146/101/108 149/103/108 150/104/108
f 150/103/109 151/104/109 146/102/109
f 151/104/118 153/105/118 146/102/118
f 153/105/119 147/101/119 146/102/119
f 151/103/112 152/104/112 154/106/112
f 151/103/112 154/106/112 153/107/112
f 149/104/113 145/101/113 152/103/113
f 152/103/120 145/101/120 154/108/120
f 145/101/121 148/102/121 154/108/121
f 145/103/116 146/104/116 147/101/116
f 145/103/116 147/101/116 148/102/116
f 152/103/117 151/104/117 150/101/117
f 152/103/117 150/101/117 149/102/117
usemtl color
f 153/107/112 154/106/112 148/101/112
f 153/107/112 148/101/112 147/102/112
o Cube.001
v 2.033977 -1.208960 1.930728
v 1.626636 1.067931 1.971341
v 2.377386 1.203874 1.879823
v 2.784727 -1.073017 1.839211
v 2.075119 -1.207654 2.270171
v 1.667778 1.069237 2.310784
v 2.418528 1.205180 2.219267
v 2.825869 -1.071711 2.178654
v 2.398980 1.204560 2.057981
v 2.806030 -1.072340 2.014970
vt 1.023848 0.025044
vt 0.974956 1.023848
vt -0.023848 0.974956
vt 0.025044 -0.023848
vt 0.773699 0.012799
vt 0.731863 1.011949
vt 0.780755 0.013144
vt 0.724807 1.011603
vn -0.176079 0.984219 0.017555
vn -0.176079 0.984219 0.017556
vn 0.176079 -0.984219 -0.017555
vn -0.120323 -0.003819 -0.992727
vn 0.120323 0.003819 0.992728
usemtl wood
s off
f 156/109/108 155/110/108 159/111/108
f 156/109/108 159/111/108 160/112/108
f 160/111/122 161/112/122 156/110/122
f 161/112/122 163/113/122 156/110/122
f 163/113/123 157/109/123 156/110/123
f 159/112/124 155/109/124 162/111/124
f 162/111/124 155/109/124 164/114/124
f 155/109/124 158/110/124 164/114/124
f 155/111/125 156/112/125 157/109/125
f 155/111/125 157/109/125 158/110/125
f 162/111/126 161/112/126 160/109/126
f 162/111/126 160/109/126 159/110/126
f 161/111/112 162/112/112 164/115/112
f 161/111/112 164/115/112 163/116/112
usemtl color
f 163/116/112 164/115/112 158/109/112
f 163/116/112 158/109/112 157/110/112
o Cube
v -1.884062 -3.476846 -0.275896
v 1.820743 -2.571439 -0.263769
v -0.970608 -1.467933 3.301290
v 1.248065 -1.573305 2.674852
v -4.735271 -2.378552 -0.111557
v -4.020608 -2.378552 2.416184
v 1.820743 -1.004643 -0.263769
v 2.412287 -0.974339 2.120821
v 2.047926 -1.816358 2.129399
v 1.895803 -2.171064 0.784636
v 2.138813 -1.180485 0.815355
v -1.889095 -2.916249 2.424345
vt 0.334548 0.321256
vt 0.166393 0.381547
vt 0.099725 0.249186
vt 0.278378 0.211671
vt 0.999902 0.437750
vt 0.073094 0.000098
vt 0.999902 0.223875
vt 0.991371 0.694521
vt 0.000098 0.482653
vt 0.475310 0.017395
vt 0.313757 0.267210
vt 0.240620 0.002130
vt 0.000072 0.166045
vt 0.263252 0.084114
vt 0.823383 0.883648
vt 0.001265 0.959779
vt 0.063000 0.376580
vt 0.000061 0.000061
vn 0.946013 -0.312479 -0.085788
vn 0.674490 -0.710624 0.200018
vn 0.744102 -0.664846 0.064974
vn 0.969573 -0.208899 -0.127445
vn -0.032929 -0.975066 0.219306
vn 0.671834 -0.723685 0.157811
vn -0.017670 -0.841182 0.540422
vn 0.126072 -0.598743 0.790918
vn -0.234870 -0.926633 0.293558
vn 0.980926 -0.091128 -0.171636
vn 0.213782 -0.637471 0.740196
vn -0.302255 -0.942961 0.139286
usemtl rock
s 1
f 172/117/127 173/118/128 174/119/129
f 172/117/127 174/119/129 175/120/130
f 174/121/129 165/122/131 166/123/132
f 165/122/131 174/121/129 173/124/128
f 165/122/131 173/124/128 176/125/133
f 167/126/134 170/127/135 176/128/133
f 175/120/130 174/119/129 166/129/132
f 175/120/130 166/129/132 171/130/136
f 168/131/137 167/132/134 176/125/133
f 168/131/137 176/125/133 173/124/128
f 169/133/138 165/134/131 176/128/133
f 170/127/135 169/133/138 176/128/133
