# Blender v2.69 (sub 0) OBJ File: 'snake.blend'
# www.blender.org
mtllib snake_000011.mtl
o Cylinder
v -1.804787 -0.053857 0.285614
v 1.032660 0.256073 1.536082
v -0.156811 -0.220243 2.230665
v 1.020034 0.217994 1.493262
v -0.100133 -0.305398 2.151371
v 0.691156 0.127173 0.853204
v -0.041265 -0.221810 2.072004
v 1.067620 0.107884 1.520855
v -0.039076 -0.053068 2.071930
v 1.080246 0.145963 1.563676
v -0.095755 0.032087 2.151224
v 1.062766 0.220057 1.571290
v -0.922267 0.469937 0.232497
v -1.015274 0.519656 0.060486
v -1.201287 0.597668 0.065278
v -1.294294 0.625962 0.242080
v -1.201288 0.576243 0.414091
v -1.015274 0.498231 0.409299
v -0.106397 0.208954 0.799663
v 0.076912 0.155105 0.891391
v 0.138739 -0.047598 0.893671
v 0.017257 -0.196450 0.804222
v -0.166052 -0.142600 0.712494
v -0.227879 0.060102 0.710214
v 0.423189 0.893102 0.137989
v 0.590823 0.924041 0.137989
v 0.674640 0.939511 0.285615
v 0.590823 0.924042 0.433242
v 0.423189 0.893102 0.433242
v 0.339372 0.877633 0.285615
v -0.545026 0.080953 1.823557
v -0.473846 -0.025990 1.723975
v -0.476595 -0.237906 1.724067
v -0.550523 -0.342880 1.823740
v -0.621703 -0.235937 1.923322
v -0.618955 -0.024021 1.923230
v -0.536866 0.309565 0.357083
v -0.502356 0.189402 0.185952
v -0.513327 -0.021729 0.200757
v -0.558809 -0.112697 0.386693
v -0.593319 0.007466 0.557824
v -0.582348 0.218598 0.543019
v 0.229493 -0.615371 0.177337
v 0.324506 -0.696638 0.177337
v 0.372013 -0.737272 0.285615
v 0.324507 -0.696638 0.393892
v 0.229493 -0.615371 0.393892
v 0.181986 -0.574737 0.285614
v 0.588603 0.059442 0.157663
v 0.733896 0.086258 0.157663
v 0.806542 0.099666 0.285615
v 0.733896 0.086258 0.413567
v 0.588603 0.059442 0.413567
v 0.515957 0.046035 0.285615
v -0.509545 1.226885 0.120033
v -0.463926 1.412562 0.120033
v -0.441116 1.505401 0.285616
v -0.463925 1.412562 0.451199
v -0.509544 1.226885 0.451199
v -0.532354 1.134046 0.285616
v -0.494801 -0.576257 0.197011
v -0.527544 -0.673186 0.197011
v -0.543916 -0.721650 0.285614
v -0.527545 -0.673186 0.374217
v -0.494801 -0.576257 0.374217
v -0.478428 -0.527793 0.285614
v -0.154623 -0.051500 2.230591
v 0.565417 0.534859 1.831867
v 0.656980 0.219172 1.830194
v 0.726895 -0.084458 1.806089
v 0.783708 -0.402552 1.745796
v 0.766850 -0.083769 1.888602
v 0.699272 0.221214 1.907417
v 0.794759 0.523959 1.688007
v 0.889382 0.259664 1.718955
v 0.949206 0.006086 1.692899
v 0.980014 -0.261291 1.607319
v 0.961471 0.006678 1.715293
v 0.901647 0.260256 1.741349
vt -1.449900 0.361004
vt -1.477832 0.624156
vt -1.486816 0.578527
vt -1.476305 0.352432
vt -1.496877 0.705113
vt -1.512149 0.785656
vt -1.497957 0.877328
vt -1.521584 1.227454
vt -1.488970 0.922956
vt -1.478906 0.796371
vt -1.459274 0.802801
vt -1.495139 1.236026
vt -1.513881 1.016135
vt -1.529250 1.327031
vt -1.487384 1.116781
vt 0.994154 -0.020220
vt -0.203058 0.060249
vt 1.121421 -0.267401
vt 2.737702 -0.200594
vt 2.421072 0.133238
vt 1.238282 0.048946
vt 1.227853 0.612475
vt 2.392484 0.727913
vt 0.142160 0.988756
vt 0.984944 0.543308
vt -0.174470 0.654924
vt 1.101349 0.859655
vt -1.355286 0.141381
vt -1.419250 0.239335
vt -1.495269 -0.132605
vt -1.489754 -0.034651
vt -1.554707 0.316003
vt -1.624023 0.218049
vt -1.613937 0.842688
vt -1.549371 0.940642
vt -1.478630 1.214629
vt -1.343711 0.766021
vt -1.413535 0.863975
vt -1.473021 1.116675
vt 1.078432 -0.121067
vt 1.058899 -0.083868
vt 1.114144 -0.312072
vt 1.115818 -0.304243
vt 1.147033 -0.067620
vt 1.168213 -0.022202
vt 1.163636 0.480214
vt 1.144184 0.367838
vt 1.108531 0.558843
vt 1.075679 0.314391
vt 1.054568 0.418549
vt 1.106870 0.700590
vt -1.440830 0.337290
vt -1.479566 0.210894
vt -1.522980 0.561548
vt -1.527678 1.038597
vt -1.488863 1.164993
vt -1.445406 0.814339
vt -2.453382 -0.200594
vt 3.695815 -0.132605
vt 3.567061 0.218049
vt 3.577147 0.842688
vt 3.718063 1.116675
vt 1.096660 -0.195465
vt 1.089518 -0.158266
vt 1.113196 -0.319901
vt 1.112587 -0.327730
vt 1.135008 -0.113037
vt 1.127259 -0.158455
vt 1.133127 0.255462
vt 1.125998 0.143086
vt 1.110083 0.275351
vt 1.095418 0.106075
vt 1.087680 0.210233
vt 1.109475 0.417097
vt -1.510684 0.636275
vt -1.518738 0.767411
vt -1.481038 0.357059
vt -1.473737 0.251615
vt -1.454577 0.457705
vt -1.439264 0.295440
vt -1.457718 0.837565
vt 1.111334 -0.150298
vt -1.449672 0.855060
vt -1.494704 1.370856
vn -0.123173 0.967040 -0.222694
vn 0.684011 0.599658 -0.415357
vn 0.547349 0.627338 -0.553880
vn -0.780663 -0.102176 -0.616504
vn -0.357799 -0.025666 -0.933439
vn -0.745720 -0.165349 -0.645375
vn 0.836787 -0.325938 -0.439894
vn 0.381268 -0.766228 -0.517197
vn 0.989502 0.088351 0.114109
vn 0.930509 0.338511 0.139805
vn 0.659169 0.262703 0.704581
vn 0.744346 -0.068758 0.664205
vn 0.139653 -0.952269 0.271371
vn 0.266121 -0.910337 -0.316874
vn -0.126957 -0.351665 0.927458
vn 0.484573 -0.874691 0.008728
vn 0.880428 0.463942 0.097781
vn 0.142705 -0.319834 -0.936644
vn 0.175054 -0.171514 -0.969481
vn -0.653920 -0.100803 -0.749809
vn -0.174078 0.623920 -0.761834
vn -0.118870 0.992889 0.004089
vn -0.999023 0.042970 -0.008484
vn -0.671133 -0.117191 0.731986
vn 0.048311 -0.305551 0.950926
vn 0.379894 0.249611 0.890683
vn -0.197363 0.618122 0.760888
vn 0.395703 0.918149 -0.018799
vn -0.036958 0.999298 -0.002686
vn 0.551469 0.291818 -0.781457
vn 0.772790 0.634449 0.015046
vn 0.988586 -0.148259 -0.026734
vn 0.144383 -0.599261 -0.787408
vn -0.308695 -0.945463 -0.103702
vn 0.508896 -0.745598 -0.430189
vn -0.611896 -0.736320 0.288736
vn -0.192022 0.519486 0.832606
vn -0.839778 -0.001831 0.542894
vn -0.530442 -0.411817 0.740928
vn -0.983154 0.182623 0.000000
vn -0.654134 -0.756371 0.000000
vn -0.409589 0.023621 -0.911924
vn -0.281961 -0.254189 -0.925108
vn 0.572375 -0.130528 -0.809503
vn 0.469100 0.409314 -0.782525
vn 0.832911 0.553362 0.000000
vn 0.990631 -0.136387 0.000000
vn 0.572375 -0.130528 0.809503
vn -0.409619 0.023621 0.911924
vn -0.281961 -0.254189 0.925108
vn 0.469100 0.409314 0.782525
vn -0.388043 0.918088 -0.080599
vn 0.970122 0.237587 0.048891
vn 0.969481 -0.233558 0.074252
vn -0.444502 -0.865719 -0.229987
vn -0.875179 -0.360027 0.323038
vn -0.861690 0.366924 0.350444
vn 0.184698 0.982788 0.000000
vn -0.418348 0.908261 0.000000
vn -0.205115 0.268563 -0.941160
vn 0.062166 0.457350 -0.887082
vn 0.269906 -0.568102 -0.777398
vn -0.152409 -0.524979 -0.837336
vn 0.543168 -0.839595 0.000000
vn -0.254158 -0.967132 0.000000
vn -0.152409 -0.524979 0.837336
vn 0.062166 0.457350 0.887082
vn -0.205115 0.268563 0.941160
vn 0.269906 -0.568102 0.777398
vn 0.142674 -0.456862 -0.877987
vn -0.413007 0.032105 -0.910123
vn 0.000519 0.288369 -0.957488
vn -0.367260 -0.058596 -0.928251
vn -0.079867 0.962218 0.260170
vn -0.115909 0.983276 -0.140446
vn -0.143895 0.339885 0.929380
vn -0.915006 0.403363 0.000031
vn 0.438673 0.222083 0.870754
vn 0.531388 -0.144475 0.834681
usemtl scale
s 1
f 74/1/1 2/2/2 4/3/3
f 75/4/4 4/3/3 6/5/5
f 76/6/6 6/5/5 8/7/7
f 77/8/8 8/7/7 10/9/9
f 4/3/3 2/2/2 12/10/10
f 79/11/11 12/10/10 74/1/1
f 78/12/12 10/9/9 79/11/11
f 5/13/13 71/14/14 3/15/15
f 60/16/16 13/17/17 55/18/18
f 55/18/18 14/19/19 15/20/20
f 56/21/21 15/20/20 57/22/22
f 57/22/22 16/23/23 17/24/24
f 59/25/25 18/26/26 13/17/17
f 58/27/27 17/24/24 59/25/25
f 37/28/28 19/29/29 38/30/30
f 38/30/30 20/31/31 21/32/32
f 39/33/33 21/32/32 40/34/34
f 40/34/34 22/35/35 23/36/36
f 42/37/37 24/38/38 19/29/29
f 41/39/39 23/36/36 42/37/37
f 54/40/40 30/41/41 49/42/42
f 49/42/42 25/43/43 50/44/44
f 50/44/44 26/45/45 27/46/46
f 51/47/47 27/46/46 52/48/48
f 53/49/49 29/50/50 54/40/40
f 52/48/48 28/51/51 53/49/49
f 19/29/29 31/52/52 20/31/31
f 20/31/31 32/53/53 33/54/54
f 21/32/32 33/54/54 34/55/55
f 22/35/35 34/55/55 35/56/56
f 24/38/38 36/57/57 19/29/29
f 23/36/36 35/56/56 24/38/38
f 13/17/17 37/28/28 14/58/19
f 14/19/19 38/59/30 39/60/33
f 15/20/20 39/60/33 16/23/23
f 16/23/23 40/61/34 41/62/39
f 18/26/26 42/37/37 13/17/17
f 17/24/24 41/39/39 18/26/26
f 66/63/58 48/64/59 43/65/60
f 61/66/61 43/65/60 44/67/62
f 62/68/63 44/67/62 45/69/64
f 63/70/65 45/69/64 64/71/66
f 65/72/67 47/73/68 66/63/58
f 64/71/66 46/74/69 65/72/67
f 48/64/59 54/40/40 49/42/42
f 43/65/60 49/42/42 50/44/44
f 44/67/62 50/44/44 51/47/47
f 45/69/64 51/47/47 46/74/69
f 47/73/68 53/49/49 48/64/59
f 46/74/69 52/48/48 47/73/68
f 30/41/41 60/16/16 25/43/43
f 25/43/43 55/18/18 26/45/45
f 26/45/45 56/21/21 27/46/46
f 27/46/46 57/22/22 58/27/27
f 29/50/50 59/25/25 60/16/16
f 28/51/51 58/27/27 59/25/25
f 7/75/70 70/76/71 5/13/13
f 9/77/72 69/78/73 7/75/70
f 11/79/74 68/80/75 9/77/72
f 35/56/56 3/15/15 36/57/57
f 36/57/57 67/81/76 31/52/52
f 34/55/55 5/13/13 3/15/15
f 33/54/54 7/75/70 34/55/55
f 32/53/53 9/77/72 33/54/54
f 31/52/52 11/79/74 9/77/72
f 1/82/77 66/63/58 61/66/61
f 1/82/77 61/66/61 62/68/63
f 1/82/77 62/68/63 63/70/65
f 1/82/77 63/70/65 64/71/66
f 1/82/77 65/72/67 66/63/58
f 1/82/77 64/71/66 65/72/67
f 67/81/76 73/83/78 11/79/74
f 3/15/15 72/84/79 73/83/78
f 68/80/75 74/1/1 75/4/4
f 69/78/73 75/4/4 70/76/71
f 70/76/71 76/6/6 71/14/14
f 71/14/14 77/8/8 78/12/12
f 73/83/78 79/11/11 68/80/75
f 72/84/79 78/12/12 79/11/11
f 75/4/4 74/1/1 4/3/3
f 76/6/6 75/4/4 6/5/5
f 77/8/8 76/6/6 8/7/7
f 78/12/12 77/8/8 10/9/9
f 4/3/3 12/10/10 10/9/9
f 6/5/5 4/3/3 10/9/9
f 8/7/7 6/5/5 10/9/9
f 12/10/10 2/2/2 74/1/1
f 10/9/9 12/10/10 79/11/11
f 71/14/14 72/84/79 3/15/15
f 13/17/17 14/19/19 55/18/18
f 56/21/21 55/18/18 15/20/20
f 15/20/20 16/23/23 57/22/22
f 58/27/27 57/22/22 17/24/24
f 60/16/16 59/25/25 13/17/17
f 17/24/24 18/26/26 59/25/25
f 19/29/29 20/31/31 38/30/30
f 39/33/33 38/30/30 21/32/32
f 21/32/32 22/35/35 40/34/34
f 41/39/39 40/34/34 23/36/36
f 37/28/28 42/37/37 19/29/29
f 23/36/36 24/38/38 42/37/37
f 30/41/41 25/43/43 49/42/42
f 25/43/43 26/45/45 50/44/44
f 51/47/47 50/44/44 27/46/46
f 27/46/46 28/51/51 52/48/48
f 29/50/50 30/41/41 54/40/40
f 28/51/51 29/50/50 53/49/49
f 31/52/52 32/53/53 20/31/31
f 21/32/32 20/31/31 33/54/54
f 22/35/35 21/32/32 34/55/55
f 23/36/36 22/35/35 35/56/56
f 36/57/57 31/52/52 19/29/29
f 35/56/56 36/57/57 24/38/38
f 37/28/28 38/30/30 14/58/19
f 15/20/20 14/19/19 39/60/33
f 39/60/33 40/61/34 16/23/23
f 17/24/24 16/23/23 41/62/39
f 42/37/37 37/28/28 13/17/17
f 41/39/39 42/37/37 18/26/26
f 61/66/61 66/63/58 43/65/60
f 62/68/63 61/66/61 44/67/62
f 63/70/65 62/68/63 45/69/64
f 45/69/64 46/74/69 64/71/66
f 47/73/68 48/64/59 66/63/58
f 46/74/69 47/73/68 65/72/67
f 43/65/60 48/64/59 49/42/42
f 44/67/62 43/65/60 50/44/44
f 45/69/64 44/67/62 51/47/47
f 51/47/47 52/48/48 46/74/69
f 53/49/49 54/40/40 48/64/59
f 52/48/48 53/49/49 47/73/68
f 60/16/16 55/18/18 25/43/43
f 55/18/18 56/21/21 26/45/45
f 56/21/21 57/22/22 27/46/46
f 28/51/51 27/46/46 58/27/27
f 30/41/41 29/50/50 60/16/16
f 29/50/50 28/51/51 59/25/25
f 70/76/71 71/14/14 5/13/13
f 69/78/73 70/76/71 7/75/70
f 68/80/75 69/78/73 9/77/72
f 3/15/15 67/81/76 36/57/57
f 67/81/76 11/79/74 31/52/52
f 35/56/56 34/55/55 3/15/15
f 7/75/70 5/13/13 34/55/55
f 9/77/72 7/75/70 33/54/54
f 32/53/53 31/52/52 9/77/72
f 73/83/78 68/80/75 11/79/74
f 67/81/76 3/15/15 73/83/78
f 69/78/73 68/80/75 75/4/4
f 75/4/4 76/6/6 70/76/71
f 76/6/6 77/8/8 71/14/14
f 72/84/79 71/14/14 78/12/12
f 79/11/11 74/1/1 68/80/75
f 73/83/78 72/84/79 79/11/11
