# Blender v2.69 (sub 0) OBJ File: 'snake.blend'
# www.blender.org
mtllib snake_000003.mtl
o Cylinder
v -1.209132 0.426444 0.285614
v 2.852365 0.244221 1.545285
v 1.584982 -0.287261 1.928880
v 2.850939 0.212105 1.496198
v 1.610594 -0.365787 1.829236
v 2.689101 0.209561 0.789172
v 1.645337 -0.276294 1.742430
v 2.891410 0.098392 1.520314
v 1.654469 -0.108274 1.755270
v 2.892836 0.130508 1.569402
v 1.628857 -0.029748 1.854914
v 2.873314 0.203423 1.581887
v -0.922267 0.469937 0.232497
v -1.015274 0.519656 0.060486
v -1.201287 0.597668 0.065278
v -1.294294 0.625962 0.242080
v -1.201288 0.576243 0.414091
v -1.015274 0.498231 0.409299
v 0.350346 0.199482 0.861946
v 0.507143 0.153829 0.726866
v 0.537631 -0.046123 0.663577
v 0.411323 -0.200422 0.735368
v 0.254526 -0.154769 0.870448
v 0.224038 0.045183 0.933737
v 0.423189 0.893102 0.137989
v 0.590823 0.924041 0.137989
v 0.674640 0.939511 0.285615
v 0.590823 0.924042 0.433242
v 0.423189 0.893102 0.433242
v 0.339372 0.877633 0.285615
v 1.102478 0.054868 1.689497
v 1.134643 -0.043749 1.564358
v 1.123174 -0.254757 1.548234
v 1.079541 -0.367148 1.657248
v 1.047376 -0.268531 1.782387
v 1.058845 -0.057523 1.798512
v -0.536866 0.309565 0.357083
v -0.502356 0.189402 0.185952
v -0.513327 -0.021729 0.200757
v -0.558809 -0.112697 0.386693
v -0.593319 0.007466 0.557824
v -0.582348 0.218598 0.543019
v 0.229493 -0.615371 0.177337
v 0.324506 -0.696638 0.177337
v 0.372013 -0.737272 0.285615
v 0.324507 -0.696638 0.393892
v 0.229493 -0.615371 0.393892
v 0.181986 -0.574737 0.285614
v 0.588603 0.059442 0.157663
v 0.733896 0.086258 0.157663
v 0.806542 0.099666 0.285615
v 0.733896 0.086258 0.413567
v 0.588603 0.059442 0.413567
v 0.515957 0.046035 0.285615
v -0.509545 1.226885 0.120033
v -0.463926 1.412562 0.120033
v -0.441116 1.505401 0.285616
v -0.463925 1.412562 0.451199
v -0.509544 1.226885 0.451199
v -0.532354 1.134046 0.285616
v -0.530090 -0.750636 0.197011
v -0.534827 -0.852836 0.197011
v -0.537196 -0.903936 0.285614
v -0.534827 -0.852836 0.374217
v -0.530091 -0.750636 0.374217
v -0.527721 -0.699536 0.285614
v 1.594114 -0.119241 1.941720
v 2.324404 0.493756 1.751476
v 2.416641 0.178861 1.732021
v 2.495451 -0.120604 1.684603
v 2.568817 -0.429723 1.599055
v 2.516333 -0.130981 1.772077
v 2.438786 0.170268 1.816826
v 2.582014 0.496020 1.667547
v 2.668763 0.227935 1.686737
v 2.735574 -0.021605 1.644007
v 2.788908 -0.276724 1.535228
v 2.741997 -0.024097 1.668600
v 2.675185 0.225444 1.711329
vt -1.449900 0.361004
vt -1.477832 0.624156
vt -1.486816 0.578527
vt -1.476305 0.352432
vt -1.496877 0.705113
vt -1.512149 0.785656
vt -1.497957 0.877328
vt -1.521584 1.227454
vt -1.488970 0.922956
vt -1.478906 0.796371
vt -1.459274 0.802801
vt -1.495139 1.236026
vt -1.513881 1.016135
vt -1.529250 1.327031
vt -1.487384 1.116781
vt 0.994154 -0.020220
vt -0.203058 0.060249
vt 1.121421 -0.267401
vt 2.737702 -0.200594
vt 2.421072 0.133238
vt 1.238282 0.048946
vt 1.227853 0.612475
vt 2.392484 0.727913
vt 0.142160 0.988756
vt 0.984944 0.543308
vt -0.174470 0.654924
vt 1.101349 0.859655
vt -1.355286 0.141381
vt -1.419250 0.239335
vt -1.489754 -0.034651
vt -1.495269 -0.132605
vt -1.554707 0.316003
vt -1.624023 0.218049
vt -1.613937 0.842688
vt -1.549371 0.940642
vt -1.473021 1.116675
vt -1.343711 0.766021
vt -1.413535 0.863975
vt -1.478630 1.214629
vt 1.078432 -0.121067
vt 1.058899 -0.083868
vt 1.114144 -0.312072
vt 1.115818 -0.304243
vt 1.147033 -0.067620
vt 1.168213 -0.022202
vt 1.163636 0.480214
vt 1.144184 0.367838
vt 1.108531 0.558843
vt 1.075679 0.314391
vt 1.054568 0.418549
vt 1.106870 0.700590
vt -1.440830 0.337290
vt -1.479566 0.210894
vt -1.522980 0.561548
vt -1.527678 1.038597
vt -1.488863 1.164993
vt -1.445406 0.814339
vt -2.453382 -0.200594
vt 3.695815 -0.132605
vt 3.567061 0.218049
vt 3.577147 0.842688
vt 3.718063 1.116675
vt 1.096660 -0.195465
vt 1.089518 -0.158266
vt 1.113196 -0.319901
vt 1.112587 -0.327730
vt 1.135008 -0.113037
vt 1.127259 -0.158455
vt 1.133127 0.255462
vt 1.125998 0.143086
vt 1.110083 0.275351
vt 1.095418 0.106075
vt 1.087680 0.210233
vt 1.109475 0.417097
vt -1.510684 0.636275
vt -1.518738 0.767411
vt -1.481038 0.357059
vt -1.473737 0.251615
vt -1.454577 0.457705
vt -1.439264 0.295440
vt -1.457718 0.837565
vt 1.111334 -0.150298
vt -1.449672 0.855060
vt -1.494704 1.370856
vn -0.074374 0.989807 -0.121220
vn 0.758873 0.632038 -0.156774
vn 0.659902 0.679891 -0.319742
vn -0.605029 -0.005432 -0.796167
vn -0.118900 0.099521 -0.987884
vn -0.560656 -0.065462 -0.825434
vn 0.921934 -0.286233 -0.260842
vn 0.508744 -0.700644 -0.500229
vn 0.930845 0.051759 0.361675
vn 0.864925 0.297952 0.403821
vn 0.464217 0.156529 0.871761
vn 0.557756 -0.168645 0.812647
vn -0.002899 -0.998627 0.052248
vn 0.464705 -0.806879 -0.364605
vn -0.056001 -0.453536 0.889431
vn 0.484573 -0.874691 0.008728
vn 0.880428 0.463942 0.097781
vn 0.142705 -0.319834 -0.936644
vn 0.175054 -0.171514 -0.969481
vn -0.653920 -0.100803 -0.749809
vn -0.174078 0.623920 -0.761834
vn -0.118870 0.992889 0.004089
vn -0.999023 0.042970 -0.008484
vn -0.671133 -0.117191 0.731986
vn 0.048311 -0.305551 0.950926
vn 0.379894 0.249611 0.890683
vn -0.197363 0.618122 0.760888
vn 0.302896 0.952940 0.009857
vn -0.093631 0.954772 0.282144
vn 0.530839 0.700705 -0.476638
vn 0.397778 0.331706 -0.855403
vn 0.629048 -0.173559 -0.757714
vn -0.019684 -0.597156 -0.801843
vn -0.359966 -0.931578 -0.050600
vn 0.132908 -0.906644 -0.400372
vn -0.490341 -0.456282 0.742515
vn -0.118473 0.539262 0.833735
vn -0.567583 0.190222 0.801019
vn -0.449629 -0.779382 0.436293
vn -0.983154 0.182623 0.000000
vn -0.654134 -0.756371 0.000000
vn -0.409589 0.023621 -0.911924
vn -0.281961 -0.254189 -0.925108
vn 0.572375 -0.130528 -0.809503
vn 0.469100 0.409314 -0.782525
vn 0.832911 0.553362 0.000000
vn 0.990631 -0.136387 0.000000
vn 0.572375 -0.130528 0.809503
vn -0.409619 0.023621 0.911924
vn -0.281961 -0.254189 0.925108
vn 0.469100 0.409314 0.782525
vn 0.027955 0.979339 0.200232
vn 0.609821 0.435072 -0.662435
vn 0.531388 -0.413923 -0.739067
vn -0.160527 -0.986938 0.010987
vn -0.509507 -0.431806 0.744224
vn -0.447554 0.349345 0.823176
vn 0.485855 0.874020 0.000000
vn -0.559496 0.828791 0.000000
vn -0.248878 0.280526 -0.927000
vn 0.049257 0.317881 -0.946837
vn 0.328745 -0.505478 -0.797723
vn -0.354900 -0.543504 -0.760643
vn 0.611896 -0.790887 0.000000
vn -0.389019 -0.921201 0.000000
vn -0.354900 -0.543504 0.760643
vn 0.049257 0.317881 0.946837
vn -0.248878 0.280526 0.927000
vn 0.328745 -0.505478 0.797723
vn 0.062349 -0.337352 -0.939299
vn -0.163732 0.174596 -0.970916
vn 0.032350 0.382336 -0.923429
vn -0.127323 0.068880 -0.989441
vn -0.306436 0.947020 0.096011
vn 0.008972 0.997833 -0.065096
vn -0.097812 0.261269 0.960265
vn -0.484054 0.875027 -0.000092
vn 0.252297 0.105045 0.961913
vn 0.347331 -0.254189 0.902615
usemtl scale
s 1
f 74/1/1 2/2/2 4/3/3
f 75/4/4 4/3/3 6/5/5
f 76/6/6 6/5/5 8/7/7
f 77/8/8 8/7/7 10/9/9
f 4/3/3 2/2/2 12/10/10
f 79/11/11 12/10/10 74/1/1
f 78/12/12 10/9/9 12/10/10
f 5/13/13 71/14/14 3/15/15
f 60/16/16 13/17/17 55/18/18
f 55/18/18 14/19/19 15/20/20
f 56/21/21 15/20/20 57/22/22
f 57/22/22 16/23/23 17/24/24
f 59/25/25 18/26/26 13/17/17
f 58/27/27 17/24/24 59/25/25
f 37/28/28 19/29/29 20/30/30
f 38/31/31 20/30/30 21/32/32
f 39/33/33 21/32/32 40/34/34
f 40/34/34 22/35/35 41/36/36
f 42/37/37 24/38/38 37/28/28
f 41/36/36 23/39/39 42/37/37
f 54/40/40 30/41/41 49/42/42
f 49/42/42 25/43/43 50/44/44
f 50/44/44 26/45/45 27/46/46
f 51/47/47 27/46/46 52/48/48
f 53/49/49 29/50/50 54/40/40
f 52/48/48 28/51/51 53/49/49
f 19/29/29 31/52/52 20/30/30
f 20/30/30 32/53/53 33/54/54
f 21/32/32 33/54/54 34/55/55
f 22/35/35 34/55/55 35/56/56
f 24/38/38 36/57/57 19/29/29
f 23/39/39 35/56/56 36/57/57
f 13/17/17 37/28/28 14/58/19
f 14/19/19 38/59/31 39/60/33
f 15/20/20 39/60/33 16/23/23
f 16/23/23 40/61/34 41/62/36
f 18/26/26 42/37/37 13/17/17
f 17/24/24 41/36/36 18/26/26
f 66/63/58 48/64/59 43/65/60
f 61/66/61 43/65/60 44/67/62
f 62/68/63 44/67/62 45/69/64
f 63/70/65 45/69/64 64/71/66
f 65/72/67 47/73/68 66/63/58
f 64/71/66 46/74/69 65/72/67
f 48/64/59 54/40/40 49/42/42
f 43/65/60 49/42/42 50/44/44
f 44/67/62 50/44/44 51/47/47
f 45/69/64 51/47/47 46/74/69
f 47/73/68 53/49/49 48/64/59
f 46/74/69 52/48/48 47/73/68
f 30/41/41 60/16/16 25/43/43
f 25/43/43 55/18/18 26/45/45
f 26/45/45 56/21/21 27/46/46
f 27/46/46 57/22/22 58/27/27
f 29/50/50 59/25/25 60/16/16
f 28/51/51 58/27/27 59/25/25
f 7/75/70 70/76/71 71/14/14
f 9/77/72 69/78/73 7/75/70
f 11/79/74 68/80/75 9/77/72
f 35/56/56 3/15/15 36/57/57
f 36/57/57 67/81/76 31/52/52
f 34/55/55 5/13/13 3/15/15
f 33/54/54 7/75/70 34/55/55
f 32/53/53 9/77/72 33/54/54
f 31/52/52 11/79/74 9/77/72
f 1/82/77 66/63/58 61/66/61
f 1/82/77 61/66/61 62/68/63
f 1/82/77 62/68/63 63/70/65
f 1/82/77 63/70/65 64/71/66
f 1/82/77 65/72/67 66/63/58
f 1/82/77 64/71/66 65/72/67
f 67/81/76 73/83/78 68/80/75
f 3/15/15 72/84/79 73/83/78
f 68/80/75 74/1/1 75/4/4
f 69/78/73 75/4/4 70/76/71
f 70/76/71 76/6/6 71/14/14
f 71/14/14 77/8/8 78/12/12
f 73/83/78 79/11/11 68/80/75
f 72/84/79 78/12/12 79/11/11
f 75/4/4 74/1/1 4/3/3
f 76/6/6 75/4/4 6/5/5
f 77/8/8 76/6/6 8/7/7
f 78/12/12 77/8/8 10/9/9
f 4/3/3 12/10/10 10/9/9
f 6/5/5 4/3/3 10/9/9
f 8/7/7 6/5/5 10/9/9
f 12/10/10 2/2/2 74/1/1
f 79/11/11 78/12/12 12/10/10
f 71/14/14 72/84/79 3/15/15
f 13/17/17 14/19/19 55/18/18
f 56/21/21 55/18/18 15/20/20
f 15/20/20 16/23/23 57/22/22
f 58/27/27 57/22/22 17/24/24
f 60/16/16 59/25/25 13/17/17
f 17/24/24 18/26/26 59/25/25
f 38/31/31 37/28/28 20/30/30
f 39/33/33 38/31/31 21/32/32
f 21/32/32 22/35/35 40/34/34
f 22/35/35 23/39/39 41/36/36
f 24/38/38 19/29/29 37/28/28
f 23/39/39 24/38/38 42/37/37
f 30/41/41 25/43/43 49/42/42
f 25/43/43 26/45/45 50/44/44
f 51/47/47 50/44/44 27/46/46
f 27/46/46 28/51/51 52/48/48
f 29/50/50 30/41/41 54/40/40
f 28/51/51 29/50/50 53/49/49
f 31/52/52 32/53/53 20/30/30
f 21/32/32 20/30/30 33/54/54
f 22/35/35 21/32/32 34/55/55
f 23/39/39 22/35/35 35/56/56
f 36/57/57 31/52/52 19/29/29
f 24/38/38 23/39/39 36/57/57
f 37/28/28 38/31/31 14/58/19
f 15/20/20 14/19/19 39/60/33
f 39/60/33 40/61/34 16/23/23
f 17/24/24 16/23/23 41/62/36
f 42/37/37 37/28/28 13/17/17
f 41/36/36 42/37/37 18/26/26
f 61/66/61 66/63/58 43/65/60
f 62/68/63 61/66/61 44/67/62
f 63/70/65 62/68/63 45/69/64
f 45/69/64 46/74/69 64/71/66
f 47/73/68 48/64/59 66/63/58
f 46/74/69 47/73/68 65/72/67
f 43/65/60 48/64/59 49/42/42
f 44/67/62 43/65/60 50/44/44
f 45/69/64 44/67/62 51/47/47
f 51/47/47 52/48/48 46/74/69
f 53/49/49 54/40/40 48/64/59
f 52/48/48 53/49/49 47/73/68
f 60/16/16 55/18/18 25/43/43
f 55/18/18 56/21/21 26/45/45
f 56/21/21 57/22/22 27/46/46
f 28/51/51 27/46/46 58/27/27
f 30/41/41 29/50/50 60/16/16
f 29/50/50 28/51/51 59/25/25
f 5/13/13 7/75/70 71/14/14
f 69/78/73 70/76/71 7/75/70
f 68/80/75 69/78/73 9/77/72
f 3/15/15 67/81/76 36/57/57
f 67/81/76 11/79/74 31/52/52
f 35/56/56 34/55/55 3/15/15
f 7/75/70 5/13/13 34/55/55
f 9/77/72 7/75/70 33/54/54
f 32/53/53 31/52/52 9/77/72
f 11/79/74 67/81/76 68/80/75
f 67/81/76 3/15/15 73/83/78
f 69/78/73 68/80/75 75/4/4
f 75/4/4 76/6/6 70/76/71
f 76/6/6 77/8/8 71/14/14
f 72/84/79 71/14/14 78/12/12
f 79/11/11 74/1/1 68/80/75
f 73/83/78 72/84/79 79/11/11
