# Blender v2.69 (sub 0) OBJ File: 'snake.blend'
# www.blender.org
mtllib snake_000029.mtl
o Cylinder
v -1.082842 0.450375 0.285614
v 1.654104 0.256585 1.984572
v 0.346320 -0.211722 2.341338
v 1.654773 0.218266 1.940140
v 0.392959 -0.297372 2.256247
v 1.533495 0.124286 1.231238
v 0.442039 -0.214285 2.169996
v 1.691291 0.108191 1.981369
v 0.444480 -0.045550 2.168836
v 1.690622 0.146510 2.025802
v 0.397841 0.040099 2.253926
v 1.672029 0.220707 2.027404
v -0.922267 0.469937 0.232497
v -1.015274 0.519656 0.060486
v -1.201287 0.597668 0.065278
v -1.294294 0.625962 0.242080
v -1.201288 0.576243 0.414091
v -1.015274 0.498231 0.409299
v 0.010083 0.211211 0.870466
v 0.212953 0.156752 0.898645
v 0.271500 -0.046238 0.881817
v 0.127178 -0.194769 0.836810
v -0.075692 -0.140310 0.808631
v -0.134240 0.062680 0.825459
v 0.423189 0.893102 0.137989
v 0.590823 0.924041 0.137989
v 0.674640 0.939511 0.285615
v 0.590823 0.924042 0.433242
v 0.423189 0.893102 0.433242
v 0.339372 0.877633 0.285615
v -0.087343 0.088432 1.982156
v -0.028771 -0.019131 1.875295
v -0.031837 -0.231038 1.876752
v -0.093474 -0.335382 1.985071
v -0.152046 -0.227819 2.091932
v -0.148980 -0.015913 2.090475
v -0.536866 0.309565 0.357083
v -0.502356 0.189402 0.185952
v -0.513327 -0.021729 0.200757
v -0.558809 -0.112697 0.386693
v -0.593319 0.007466 0.557824
v -0.582348 0.218598 0.543019
v 0.229493 -0.615371 0.177337
v 0.324506 -0.696638 0.177337
v 0.372013 -0.737272 0.285615
v 0.324507 -0.696638 0.393892
v 0.229493 -0.615371 0.393892
v 0.181986 -0.574737 0.285614
v 0.588603 0.059442 0.157663
v 0.733896 0.086258 0.157663
v 0.806542 0.099666 0.285615
v 0.733896 0.086258 0.413567
v 0.588603 0.059442 0.413567
v 0.515957 0.046035 0.285615
v -0.509545 1.226885 0.120033
v -0.463926 1.412562 0.120033
v -0.441116 1.505401 0.285616
v -0.463925 1.412562 0.451199
v -0.509544 1.226885 0.451199
v -0.532354 1.134046 0.285616
v -0.531141 -0.777824 0.197011
v -0.531522 -0.880133 0.197011
v -0.531712 -0.931287 0.285614
v -0.531522 -0.880133 0.374217
v -0.531142 -0.777824 0.374217
v -0.530951 -0.726670 0.285614
v 0.348761 -0.042987 2.340177
v 1.120862 0.538770 2.124398
v 1.207108 0.222793 2.152057
v 1.281532 -0.081210 2.149892
v 1.352953 -0.399871 2.110389
v 1.296731 -0.080112 2.239510
v 1.224186 0.225208 2.238421
v 1.382826 0.526207 2.056360
v 1.462420 0.261825 2.115774
v 1.526054 0.007894 2.110293
v 1.579878 -0.260133 2.039387
v 1.531007 0.008595 2.135338
v 1.467374 0.262526 2.140819
vt -1.449900 0.361004
vt -1.477832 0.624156
vt -1.486816 0.578527
vt -1.476305 0.352432
vt -1.496877 0.705113
vt -1.512149 0.785656
vt -1.497957 0.877328
vt -1.521584 1.227454
vt -1.488970 0.922956
vt -1.478906 0.796371
vt -1.459274 0.802801
vt -1.495139 1.236026
vt -1.513881 1.016135
vt -1.529250 1.327031
vt -1.487384 1.116781
vt 0.994154 -0.020220
vt -0.203058 0.060249
vt 1.121421 -0.267401
vt 2.737702 -0.200594
vt 2.421072 0.133238
vt 1.238282 0.048946
vt 1.227853 0.612475
vt 2.392484 0.727913
vt 0.142160 0.988756
vt 0.984944 0.543308
vt -0.174470 0.654924
vt 1.101349 0.859655
vt -1.355286 0.141381
vt -1.419250 0.239335
vt -1.489754 -0.034651
vt -1.495269 -0.132605
vt -1.554707 0.316003
vt -1.624023 0.218049
vt -1.613937 0.842688
vt -1.549371 0.940642
vt -1.478630 1.214629
vt -1.343711 0.766021
vt -1.413535 0.863975
vt -1.473021 1.116675
vt 1.078432 -0.121067
vt 1.058899 -0.083868
vt 1.114144 -0.312072
vt 1.115818 -0.304243
vt 1.147033 -0.067620
vt 1.168213 -0.022202
vt 1.163636 0.480214
vt 1.144184 0.367838
vt 1.108531 0.558843
vt 1.075679 0.314391
vt 1.054568 0.418549
vt 1.106870 0.700590
vt -1.440830 0.337290
vt -1.479566 0.210894
vt -1.522980 0.561548
vt -1.527678 1.038597
vt -1.488863 1.164993
vt -1.445406 0.814339
vt -2.453382 -0.200594
vt 3.695815 -0.132605
vt 3.567061 0.218049
vt 3.577147 0.842688
vt 3.718063 1.116675
vt 1.096660 -0.195465
vt 1.089518 -0.158266
vt 1.113196 -0.319901
vt 1.112587 -0.327730
vt 1.135008 -0.113037
vt 1.127259 -0.158455
vt 1.133127 0.255462
vt 1.125998 0.143086
vt 1.110083 0.275351
vt 1.095418 0.106075
vt 1.087680 0.210233
vt 1.109475 0.417097
vt -1.510684 0.636275
vt -1.518738 0.767411
vt -1.481038 0.357059
vt -1.473737 0.251615
vt -1.454577 0.457705
vt -1.439264 0.295440
vt -1.457718 0.837565
vt 1.111334 -0.150298
vt -1.449672 0.855060
vt -1.494704 1.370856
vn -0.045564 0.965941 -0.254585
vn 0.780297 0.594775 -0.193182
vn 0.691885 0.621967 -0.366619
vn -0.558794 -0.102756 -0.822901
vn -0.060183 -0.030671 -0.997711
vn -0.515000 -0.166601 -0.840815
vn 0.928800 -0.331431 -0.165654
vn 0.519517 -0.768639 -0.373180
vn 0.909635 0.085971 0.406384
vn 0.846828 0.336497 0.411786
vn 0.417280 0.264565 0.869381
vn 0.507736 -0.067110 0.858852
vn -0.000916 -0.986206 0.165502
vn 0.462905 -0.858058 -0.222266
vn -0.176000 -0.364544 0.914365
vn 0.484573 -0.874691 0.008728
vn 0.880428 0.463942 0.097781
vn 0.142705 -0.319834 -0.936644
vn 0.175054 -0.171514 -0.969481
vn -0.653920 -0.100803 -0.749809
vn -0.174078 0.623920 -0.761834
vn -0.118870 0.992889 0.004089
vn -0.999023 0.042970 -0.008484
vn -0.671133 -0.117191 0.731986
vn 0.048311 -0.305551 0.950926
vn 0.379894 0.249611 0.890683
vn -0.197363 0.618122 0.760888
vn 0.349773 0.936491 -0.024537
vn -0.108768 0.983886 0.141820
vn 0.755028 0.640278 -0.141270
vn 0.511124 0.299814 -0.805506
vn 0.951567 -0.169469 -0.256447
vn 0.103427 -0.598621 -0.794305
vn -0.331004 -0.937895 -0.103763
vn 0.384930 -0.825861 -0.411969
vn -0.564623 -0.784112 0.257485
vn -0.215705 0.533738 0.817652
vn -0.814936 0.090701 0.572344
vn -0.561815 -0.420881 0.712149
vn -0.983154 0.182623 0.000000
vn -0.654134 -0.756371 0.000000
vn -0.409589 0.023621 -0.911924
vn -0.281961 -0.254189 -0.925108
vn 0.572375 -0.130528 -0.809503
vn 0.469100 0.409314 -0.782525
vn 0.832911 0.553362 0.000000
vn 0.990631 -0.136387 0.000000
vn 0.572375 -0.130528 0.809503
vn -0.409619 0.023621 0.911924
vn -0.281961 -0.254189 0.925108
vn 0.469100 0.409314 0.782525
vn -0.280007 0.957762 0.065157
vn 0.932646 0.297525 -0.203955
vn 0.908963 -0.356243 -0.216407
vn -0.395550 -0.915403 -0.074496
vn -0.791406 -0.365581 0.489883
vn -0.769402 0.376873 0.515671
vn 0.542619 0.839961 0.000000
vn -0.578204 0.815882 0.000000
vn -0.255867 0.281350 -0.924833
vn 0.026887 0.296335 -0.954680
vn 0.336375 -0.495895 -0.800562
vn -0.395001 -0.539140 -0.743797
vn 0.622181 -0.782861 0.000000
vn -0.402142 -0.915555 0.000000
vn -0.395001 -0.539140 0.743797
vn 0.026887 0.296335 0.954680
vn -0.255867 0.281350 0.924833
vn 0.336375 -0.495895 0.800562
vn 0.173376 -0.406201 -0.897153
vn -0.101169 0.046297 -0.993774
vn 0.124760 0.305673 -0.943907
vn -0.068422 -0.060518 -0.995788
vn -0.299875 0.953764 0.019562
vn 0.023499 0.981079 -0.192175
vn -0.220283 0.342235 0.913419
vn -0.397229 0.917692 0.000000
vn 0.191504 0.226722 0.954924
vn 0.281503 -0.137364 0.949644
usemtl scale
s 1
f 74/1/1 2/2/2 4/3/3
f 75/4/4 4/3/3 6/5/5
f 76/6/6 6/5/5 8/7/7
f 77/8/8 8/7/7 10/9/9
f 4/3/3 2/2/2 12/10/10
f 79/11/11 12/10/10 74/1/1
f 78/12/12 10/9/9 12/10/10
f 5/13/13 71/14/14 3/15/15
f 60/16/16 13/17/17 55/18/18
f 55/18/18 14/19/19 15/20/20
f 56/21/21 15/20/20 57/22/22
f 57/22/22 16/23/23 17/24/24
f 59/25/25 18/26/26 13/17/17
f 58/27/27 17/24/24 59/25/25
f 37/28/28 19/29/29 20/30/30
f 38/31/31 20/30/30 21/32/32
f 39/33/33 21/32/32 40/34/34
f 40/34/34 22/35/35 23/36/36
f 42/37/37 24/38/38 19/29/29
f 41/39/39 23/36/36 42/37/37
f 54/40/40 30/41/41 49/42/42
f 49/42/42 25/43/43 50/44/44
f 50/44/44 26/45/45 27/46/46
f 51/47/47 27/46/46 52/48/48
f 53/49/49 29/50/50 54/40/40
f 52/48/48 28/51/51 53/49/49
f 19/29/29 31/52/52 20/30/30
f 20/30/30 32/53/53 33/54/54
f 21/32/32 33/54/54 34/55/55
f 22/35/35 34/55/55 35/56/56
f 24/38/38 36/57/57 19/29/29
f 23/36/36 35/56/56 24/38/38
f 13/17/17 37/28/28 14/58/19
f 14/19/19 38/59/31 39/60/33
f 15/20/20 39/60/33 16/23/23
f 16/23/23 40/61/34 41/62/39
f 18/26/26 42/37/37 13/17/17
f 17/24/24 41/39/39 18/26/26
f 66/63/58 48/64/59 43/65/60
f 61/66/61 43/65/60 44/67/62
f 62/68/63 44/67/62 45/69/64
f 63/70/65 45/69/64 64/71/66
f 65/72/67 47/73/68 66/63/58
f 64/71/66 46/74/69 65/72/67
f 48/64/59 54/40/40 49/42/42
f 43/65/60 49/42/42 50/44/44
f 44/67/62 50/44/44 51/47/47
f 45/69/64 51/47/47 46/74/69
f 47/73/68 53/49/49 48/64/59
f 46/74/69 52/48/48 47/73/68
f 30/41/41 60/16/16 25/43/43
f 25/43/43 55/18/18 26/45/45
f 26/45/45 56/21/21 27/46/46
f 27/46/46 57/22/22 58/27/27
f 29/50/50 59/25/25 60/16/16
f 28/51/51 58/27/27 59/25/25
f 7/75/70 70/76/71 71/14/14
f 9/77/72 69/78/73 7/75/70
f 11/79/74 68/80/75 9/77/72
f 35/56/56 3/15/15 36/57/57
f 36/57/57 67/81/76 31/52/52
f 34/55/55 5/13/13 3/15/15
f 33/54/54 7/75/70 34/55/55
f 32/53/53 9/77/72 33/54/54
f 31/52/52 11/79/74 9/77/72
f 1/82/77 66/63/58 61/66/61
f 1/82/77 61/66/61 62/68/63
f 1/82/77 62/68/63 63/70/65
f 1/82/77 63/70/65 64/71/66
f 1/82/77 65/72/67 66/63/58
f 1/82/77 64/71/66 65/72/67
f 67/81/76 73/83/78 68/80/75
f 3/15/15 72/84/79 73/83/78
f 68/80/75 74/1/1 75/4/4
f 69/78/73 75/4/4 70/76/71
f 70/76/71 76/6/6 71/14/14
f 71/14/14 77/8/8 78/12/12
f 73/83/78 79/11/11 68/80/75
f 72/84/79 78/12/12 79/11/11
f 75/4/4 74/1/1 4/3/3
f 76/6/6 75/4/4 6/5/5
f 77/8/8 76/6/6 8/7/7
f 78/12/12 77/8/8 10/9/9
f 4/3/3 12/10/10 10/9/9
f 6/5/5 4/3/3 10/9/9
f 8/7/7 6/5/5 10/9/9
f 12/10/10 2/2/2 74/1/1
f 79/11/11 78/12/12 12/10/10
f 71/14/14 72/84/79 3/15/15
f 13/17/17 14/19/19 55/18/18
f 56/21/21 55/18/18 15/20/20
f 15/20/20 16/23/23 57/22/22
f 58/27/27 57/22/22 17/24/24
f 60/16/16 59/25/25 13/17/17
f 17/24/24 18/26/26 59/25/25
f 38/31/31 37/28/28 20/30/30
f 39/33/33 38/31/31 21/32/32
f 21/32/32 22/35/35 40/34/34
f 41/39/39 40/34/34 23/36/36
f 37/28/28 42/37/37 19/29/29
f 23/36/36 24/38/38 42/37/37
f 30/41/41 25/43/43 49/42/42
f 25/43/43 26/45/45 50/44/44
f 51/47/47 50/44/44 27/46/46
f 27/46/46 28/51/51 52/48/48
f 29/50/50 30/41/41 54/40/40
f 28/51/51 29/50/50 53/49/49
f 31/52/52 32/53/53 20/30/30
f 21/32/32 20/30/30 33/54/54
f 22/35/35 21/32/32 34/55/55
f 23/36/36 22/35/35 35/56/56
f 36/57/57 31/52/52 19/29/29
f 35/56/56 36/57/57 24/38/38
f 37/28/28 38/31/31 14/58/19
f 15/20/20 14/19/19 39/60/33
f 39/60/33 40/61/34 16/23/23
f 17/24/24 16/23/23 41/62/39
f 42/37/37 37/28/28 13/17/17
f 41/39/39 42/37/37 18/26/26
f 61/66/61 66/63/58 43/65/60
f 62/68/63 61/66/61 44/67/62
f 63/70/65 62/68/63 45/69/64
f 45/69/64 46/74/69 64/71/66
f 47/73/68 48/64/59 66/63/58
f 46/74/69 47/73/68 65/72/67
f 43/65/60 48/64/59 49/42/42
f 44/67/62 43/65/60 50/44/44
f 45/69/64 44/67/62 51/47/47
f 51/47/47 52/48/48 46/74/69
f 53/49/49 54/40/40 48/64/59
f 52/48/48 53/49/49 47/73/68
f 60/16/16 55/18/18 25/43/43
f 55/18/18 56/21/21 26/45/45
f 56/21/21 57/22/22 27/46/46
f 28/51/51 27/46/46 58/27/27
f 30/41/41 29/50/50 60/16/16
f 29/50/50 28/51/51 59/25/25
f 5/13/13 7/75/70 71/14/14
f 69/78/73 70/76/71 7/75/70
f 68/80/75 69/78/73 9/77/72
f 3/15/15 67/81/76 36/57/57
f 67/81/76 11/79/74 31/52/52
f 35/56/56 34/55/55 3/15/15
f 7/75/70 5/13/13 34/55/55
f 9/77/72 7/75/70 33/54/54
f 32/53/53 31/52/52 9/77/72
f 11/79/74 67/81/76 68/80/75
f 67/81/76 3/15/15 73/83/78
f 69/78/73 68/80/75 75/4/4
f 75/4/4 76/6/6 70/76/71
f 76/6/6 77/8/8 71/14/14
f 72/84/79 71/14/14 78/12/12
f 79/11/11 74/1/1 68/80/75
f 73/83/78 72/84/79 79/11/11
