# Blender v2.69 (sub 0) OBJ File: 'snake.blend'
# www.blender.org
mtllib snake_000097.mtl
o Cylinder
v -1.072280 0.451541 0.285614
v 3.473534 0.033698 0.157151
v 2.157587 -0.289440 0.303164
v 3.476643 0.002439 0.107590
v 2.145436 -0.365508 0.199158
v 3.461399 0.029571 -0.617057
v 2.158907 -0.275226 0.107402
v 3.492008 -0.116572 0.134981
v 2.184527 -0.108875 0.119653
v 3.488900 -0.085313 0.184541
v 2.196677 -0.032807 0.223660
v 3.479663 -0.010178 0.195627
v -0.922267 0.469937 0.232497
v -1.015274 0.519656 0.060486
v -1.201287 0.597668 0.065278
v -1.294294 0.625962 0.242080
v -1.201288 0.576243 0.414091
v -1.015274 0.498231 0.409299
v 0.583968 0.215683 0.483115
v 0.534054 0.160555 0.284658
v 0.498545 -0.042859 0.236931
v 0.512950 -0.191145 0.387662
v 0.562864 -0.136016 0.586120
v 0.598373 0.067398 0.633846
v 0.423189 0.893102 0.137989
v 0.590823 0.924041 0.137989
v 0.674640 0.939511 0.285615
v 0.590823 0.924042 0.433242
v 0.423189 0.893102 0.433242
v 0.339372 0.877633 0.285615
v 1.653158 0.094294 0.229223
v 1.637899 -0.001237 0.098606
v 1.605724 -0.210148 0.083220
v 1.588808 -0.323530 0.198452
v 1.604066 -0.227999 0.329069
v 1.636241 -0.019088 0.344455
v -0.536866 0.309565 0.357083
v -0.502356 0.189402 0.185952
v -0.513327 -0.021729 0.200757
v -0.558809 -0.112697 0.386693
v -0.593319 0.007466 0.557824
v -0.582348 0.218598 0.543019
v 0.229493 -0.615371 0.177337
v 0.324506 -0.696638 0.177337
v 0.372013 -0.737272 0.285615
v 0.324507 -0.696638 0.393892
v 0.229493 -0.615371 0.393892
v 0.181986 -0.574737 0.285614
v 0.588603 0.059442 0.157663
v 0.733896 0.086258 0.157663
v 0.806542 0.099666 0.285615
v 0.733896 0.086258 0.413567
v 0.588603 0.059442 0.413567
v 0.515957 0.046035 0.285615
v -0.509545 1.226885 0.120033
v -0.463926 1.412562 0.120033
v -0.441116 1.505401 0.285616
v -0.463925 1.412562 0.451199
v -0.509544 1.226885 0.451199
v -0.532354 1.134046 0.285616
v -0.531178 -0.780198 0.197011
v -0.531178 -0.882507 0.197011
v -0.531178 -0.933662 0.285614
v -0.531178 -0.882507 0.374217
v -0.531178 -0.780198 0.374217
v -0.531178 -0.729043 0.285614
v 2.183207 -0.123090 0.315416
v 2.963931 0.368802 0.264558
v 3.004583 0.042865 0.252013
v 3.041745 -0.265023 0.207039
v 3.078863 -0.581700 0.125212
v 3.044314 -0.278774 0.294327
v 3.007572 0.030378 0.339141
v 3.229847 0.327457 0.233070
v 3.265243 0.048465 0.259036
v 3.296856 -0.208676 0.221098
v 3.327741 -0.468824 0.115590
v 3.297723 -0.212297 0.246364
v 3.266110 0.044844 0.284302
vt -1.449900 0.361004
vt -1.477832 0.624156
vt -1.486816 0.578527
vt -1.476305 0.352432
vt -1.496877 0.705113
vt -1.512149 0.785656
vt -1.497957 0.877328
vt -1.521584 1.227454
vt -1.488970 0.922956
vt -1.478906 0.796371
vt -1.459274 0.802801
vt -1.495139 1.236026
vt -1.513881 1.016135
vt -1.529250 1.327031
vt -1.487384 1.116781
vt 0.994154 -0.020220
vt -0.203058 0.060249
vt 1.121421 -0.267401
vt 2.737702 -0.200594
vt 2.421072 0.133238
vt 1.238282 0.048946
vt 1.227853 0.612475
vt 2.392484 0.727913
vt 0.142160 0.988756
vt 0.984944 0.543308
vt -0.174470 0.654924
vt 1.101349 0.859655
vt -1.355286 0.141381
vt -1.419250 0.239335
vt -1.495269 -0.132605
vt -1.489754 -0.034651
vt -1.624023 0.218049
vt -1.554707 0.316003
vt -1.613937 0.842688
vt -1.549371 0.940642
vt -1.478630 1.214629
vt -1.343711 0.766021
vt -1.413535 0.863975
vt -1.473021 1.116675
vt 1.078432 -0.121067
vt 1.058899 -0.083868
vt 1.114144 -0.312072
vt 1.115818 -0.304243
vt 1.147033 -0.067620
vt 1.168213 -0.022202
vt 1.163636 0.480214
vt 1.144184 0.367838
vt 1.108531 0.558843
vt 1.075679 0.314391
vt 1.054568 0.418549
vt 1.106870 0.700590
vt -1.440830 0.337290
vt -1.479566 0.210894
vt -1.522980 0.561548
vt -1.527678 1.038597
vt -1.445406 0.814339
vt -1.488863 1.164993
vt -2.453382 -0.200594
vt 3.695815 -0.132605
vt 3.567061 0.218049
vt 3.577147 0.842688
vt 3.718063 1.116675
vt 1.096660 -0.195465
vt 1.089518 -0.158266
vt 1.113196 -0.319901
vt 1.112587 -0.327730
vt 1.135008 -0.113037
vt 1.127259 -0.158455
vt 1.133127 0.255462
vt 1.125998 0.143086
vt 1.110083 0.275351
vt 1.095418 0.106075
vt 1.087680 0.210233
vt 1.109475 0.417097
vt -1.510684 0.636275
vt -1.518738 0.767411
vt -1.481038 0.357059
vt -1.473737 0.251615
vt -1.454577 0.457705
vt -1.439264 0.295440
vt -1.457718 0.837565
vt 1.111334 -0.150298
vt -1.449672 0.855060
vt -1.494704 1.370856
vn 0.116794 0.988403 -0.096866
vn 0.869137 0.494186 0.018921
vn 0.814112 0.558641 -0.158391
vn -0.424604 0.101840 -0.899594
vn 0.099368 0.121250 -0.987610
vn -0.381298 0.034486 -0.923795
vn 0.894864 -0.438154 -0.084841
vn 0.479659 -0.775567 -0.410352
vn 0.835078 -0.108402 0.539323
vn 0.803888 0.145238 0.576739
vn 0.298135 0.070345 0.951903
vn 0.340678 -0.264565 0.902158
vn -0.152257 -0.986633 -0.057985
vn 0.405683 -0.860744 -0.307443
vn -0.039064 -0.478072 0.877438
vn 0.484573 -0.874691 0.008728
vn 0.880428 0.463942 0.097781
vn 0.142705 -0.319834 -0.936644
vn 0.175054 -0.171514 -0.969481
vn -0.653920 -0.100803 -0.749809
vn -0.174078 0.623920 -0.761834
vn -0.118870 0.992889 0.004089
vn -0.999023 0.042970 -0.008484
vn -0.671133 -0.117191 0.731986
vn 0.048311 -0.305551 0.950926
vn 0.379894 0.249611 0.890683
vn -0.197363 0.618122 0.760888
vn 0.280129 0.958861 0.045503
vn 0.104648 0.957274 0.269509
vn 0.262947 0.367229 -0.892178
vn 0.026490 0.708365 -0.705313
vn -0.161138 -0.589373 -0.791589
vn -0.083071 -0.274911 -0.957854
vn -0.380444 -0.924772 0.005219
vn -0.113956 -0.970916 -0.210486
vn 0.005310 -0.652303 0.757927
vn -0.008972 0.496567 0.867946
vn 0.113620 0.259743 0.958953
vn -0.364483 -0.455458 0.812189
vn -0.983154 0.182623 0.000000
vn -0.654134 -0.756371 0.000000
vn -0.409589 0.023621 -0.911924
vn -0.281961 -0.254189 -0.925108
vn 0.572375 -0.130528 -0.809503
vn 0.469100 0.409314 -0.782525
vn 0.832911 0.553362 0.000000
vn 0.990631 -0.136387 0.000000
vn 0.572375 -0.130528 0.809503
vn -0.409619 0.023621 0.911924
vn -0.281961 -0.254189 0.925108
vn 0.469100 0.409314 0.782525
vn 0.169683 0.985198 0.024049
vn 0.013306 0.487472 -0.873012
vn -0.096744 -0.332194 -0.938231
vn -0.094699 -0.988159 -0.120579
vn 0.193426 0.339824 0.920347
vn 0.078433 -0.503677 0.860286
vn 0.547258 0.836940 0.000000
vn -0.579791 0.814722 0.000000
vn -0.256478 0.281411 -0.924650
vn 0.024293 0.294504 -0.955321
vn 0.337016 -0.495071 -0.800806
vn -0.398358 -0.538743 -0.742302
vn 0.623066 -0.782128 0.000000
vn -0.403058 -0.915159 0.000000
vn -0.398358 -0.538743 0.742302
vn 0.024293 0.294504 0.955321
vn -0.256478 0.281411 0.924650
vn 0.337016 -0.495071 0.800806
vn -0.012879 -0.313242 -0.949553
vn 0.058229 0.207312 -0.976531
vn 0.054353 0.389538 -0.919370
vn 0.078494 0.094974 -0.992370
vn -0.176946 0.981872 0.067660
vn 0.193884 0.980468 -0.032167
vn -0.023530 0.276620 0.960662
vn -0.389904 0.920835 0.000000
vn 0.085971 0.055574 0.994720
vn 0.131993 -0.313913 0.940214
usemtl scale
s 1
f 74/1/1 2/2/2 4/3/3
f 75/4/4 4/3/3 6/5/5
f 76/6/6 6/5/5 8/7/7
f 77/8/8 8/7/7 10/9/9
f 4/3/3 2/2/2 12/10/10
f 79/11/11 12/10/10 74/1/1
f 78/12/12 10/9/9 79/11/11
f 5/13/13 71/14/14 3/15/15
f 60/16/16 13/17/17 55/18/18
f 55/18/18 14/19/19 15/20/20
f 56/21/21 15/20/20 57/22/22
f 57/22/22 16/23/23 17/24/24
f 59/25/25 18/26/26 13/17/17
f 58/27/27 17/24/24 59/25/25
f 37/28/28 19/29/29 38/30/30
f 38/30/30 20/31/31 39/32/32
f 39/32/32 21/33/33 40/34/34
f 40/34/34 22/35/35 23/36/36
f 42/37/37 24/38/38 37/28/28
f 41/39/39 23/36/36 42/37/37
f 54/40/40 30/41/41 49/42/42
f 49/42/42 25/43/43 50/44/44
f 50/44/44 26/45/45 27/46/46
f 51/47/47 27/46/46 52/48/48
f 53/49/49 29/50/50 54/40/40
f 52/48/48 28/51/51 53/49/49
f 19/29/29 31/52/52 32/53/53
f 20/31/31 32/53/53 33/54/54
f 21/33/33 33/54/54 22/35/35
f 22/35/35 34/55/55 23/36/36
f 24/38/38 36/56/56 31/52/52
f 23/36/36 35/57/57 36/56/56
f 13/17/17 37/28/28 14/58/19
f 14/19/19 38/59/30 39/60/32
f 15/20/20 39/60/32 16/23/23
f 16/23/23 40/61/34 41/62/39
f 18/26/26 42/37/37 13/17/17
f 17/24/24 41/39/39 18/26/26
f 66/63/58 48/64/59 43/65/60
f 61/66/61 43/65/60 44/67/62
f 62/68/63 44/67/62 45/69/64
f 63/70/65 45/69/64 64/71/66
f 65/72/67 47/73/68 66/63/58
f 64/71/66 46/74/69 65/72/67
f 48/64/59 54/40/40 49/42/42
f 43/65/60 49/42/42 50/44/44
f 44/67/62 50/44/44 51/47/47
f 45/69/64 51/47/47 46/74/69
f 47/73/68 53/49/49 48/64/59
f 46/74/69 52/48/48 47/73/68
f 30/41/41 60/16/16 25/43/43
f 25/43/43 55/18/18 26/45/45
f 26/45/45 56/21/21 27/46/46
f 27/46/46 57/22/22 58/27/27
f 29/50/50 59/25/25 60/16/16
f 28/51/51 58/27/27 59/25/25
f 7/75/70 70/76/71 71/14/14
f 9/77/72 69/78/73 7/75/70
f 11/79/74 68/80/75 9/77/72
f 35/57/57 3/15/15 36/56/56
f 36/56/56 67/81/76 31/52/52
f 34/55/55 5/13/13 3/15/15
f 33/54/54 7/75/70 34/55/55
f 32/53/53 9/77/72 33/54/54
f 31/52/52 11/79/74 9/77/72
f 1/82/77 66/63/58 61/66/61
f 1/82/77 61/66/61 62/68/63
f 1/82/77 62/68/63 63/70/65
f 1/82/77 63/70/65 64/71/66
f 1/82/77 65/72/67 66/63/58
f 1/82/77 64/71/66 65/72/67
f 67/81/76 73/83/78 68/80/75
f 3/15/15 72/84/79 73/83/78
f 68/80/75 74/1/1 75/4/4
f 69/78/73 75/4/4 70/76/71
f 70/76/71 76/6/6 71/14/14
f 71/14/14 77/8/8 78/12/12
f 73/83/78 79/11/11 68/80/75
f 72/84/79 78/12/12 79/11/11
f 75/4/4 74/1/1 4/3/3
f 76/6/6 75/4/4 6/5/5
f 77/8/8 76/6/6 8/7/7
f 78/12/12 77/8/8 10/9/9
f 4/3/3 12/10/10 10/9/9
f 6/5/5 4/3/3 10/9/9
f 8/7/7 6/5/5 10/9/9
f 12/10/10 2/2/2 74/1/1
f 10/9/9 12/10/10 79/11/11
f 71/14/14 72/84/79 3/15/15
f 13/17/17 14/19/19 55/18/18
f 56/21/21 55/18/18 15/20/20
f 15/20/20 16/23/23 57/22/22
f 58/27/27 57/22/22 17/24/24
f 60/16/16 59/25/25 13/17/17
f 17/24/24 18/26/26 59/25/25
f 19/29/29 20/31/31 38/30/30
f 20/31/31 21/33/33 39/32/32
f 21/33/33 22/35/35 40/34/34
f 41/39/39 40/34/34 23/36/36
f 24/38/38 19/29/29 37/28/28
f 23/36/36 24/38/38 42/37/37
f 30/41/41 25/43/43 49/42/42
f 25/43/43 26/45/45 50/44/44
f 51/47/47 50/44/44 27/46/46
f 27/46/46 28/51/51 52/48/48
f 29/50/50 30/41/41 54/40/40
f 28/51/51 29/50/50 53/49/49
f 20/31/31 19/29/29 32/53/53
f 21/33/33 20/31/31 33/54/54
f 33/54/54 34/55/55 22/35/35
f 34/55/55 35/57/57 23/36/36
f 19/29/29 24/38/38 31/52/52
f 24/38/38 23/36/36 36/56/56
f 37/28/28 38/30/30 14/58/19
f 15/20/20 14/19/19 39/60/32
f 39/60/32 40/61/34 16/23/23
f 17/24/24 16/23/23 41/62/39
f 42/37/37 37/28/28 13/17/17
f 41/39/39 42/37/37 18/26/26
f 61/66/61 66/63/58 43/65/60
f 62/68/63 61/66/61 44/67/62
f 63/70/65 62/68/63 45/69/64
f 45/69/64 46/74/69 64/71/66
f 47/73/68 48/64/59 66/63/58
f 46/74/69 47/73/68 65/72/67
f 43/65/60 48/64/59 49/42/42
f 44/67/62 43/65/60 50/44/44
f 45/69/64 44/67/62 51/47/47
f 51/47/47 52/48/48 46/74/69
f 53/49/49 54/40/40 48/64/59
f 52/48/48 53/49/49 47/73/68
f 60/16/16 55/18/18 25/43/43
f 55/18/18 56/21/21 26/45/45
f 56/21/21 57/22/22 27/46/46
f 28/51/51 27/46/46 58/27/27
f 30/41/41 29/50/50 60/16/16
f 29/50/50 28/51/51 59/25/25
f 5/13/13 7/75/70 71/14/14
f 69/78/73 70/76/71 7/75/70
f 68/80/75 69/78/73 9/77/72
f 3/15/15 67/81/76 36/56/56
f 67/81/76 11/79/74 31/52/52
f 35/57/57 34/55/55 3/15/15
f 7/75/70 5/13/13 34/55/55
f 9/77/72 7/75/70 33/54/54
f 32/53/53 31/52/52 9/77/72
f 11/79/74 67/81/76 68/80/75
f 67/81/76 3/15/15 73/83/78
f 69/78/73 68/80/75 75/4/4
f 75/4/4 76/6/6 70/76/71
f 76/6/6 77/8/8 71/14/14
f 72/84/79 71/14/14 78/12/12
f 79/11/11 74/1/1 68/80/75
f 73/83/78 72/84/79 79/11/11
