# Blender v2.69 (sub 0) OBJ File: 'snake.blend'
# www.blender.org
mtllib snake_000050.mtl
o Cylinder
v -1.072280 0.451541 0.285614
v 3.455622 0.094028 0.187858
v 2.153188 -0.311820 0.301923
v 3.461841 0.063395 0.138200
v 2.140817 -0.386266 0.196775
v 3.461008 0.094749 -0.586437
v 2.155366 -0.294772 0.106395
v 3.484234 -0.054578 0.165239
v 2.182285 -0.128832 0.121163
v 3.478015 -0.023944 0.214898
v 2.194655 -0.054386 0.226311
v 3.463709 0.050359 0.226207
v -0.922267 0.469937 0.232497
v -1.015274 0.519656 0.060486
v -1.201287 0.597668 0.065278
v -1.294294 0.625962 0.242080
v -1.201288 0.576243 0.414091
v -1.015274 0.498231 0.409299
v 0.585099 0.211043 0.483115
v 0.534575 0.156473 0.284658
v 0.496805 -0.046533 0.236931
v 0.509560 -0.194970 0.387662
v 0.560084 -0.140400 0.586120
v 0.597853 0.062606 0.633846
v 0.423189 0.893102 0.137989
v 0.590823 0.924041 0.137989
v 0.674640 0.939511 0.285615
v 0.590823 0.924042 0.433242
v 0.423189 0.893102 0.433242
v 0.339372 0.877633 0.285615
v 1.652165 0.077045 0.231726
v 1.636630 -0.016448 0.099675
v 1.602824 -0.224845 0.081129
v 1.584553 -0.339748 0.194633
v 1.600088 -0.246254 0.326684
v 1.633895 -0.037858 0.345230
v -0.536866 0.309565 0.357083
v -0.502356 0.189402 0.185952
v -0.513327 -0.021729 0.200757
v -0.558809 -0.112697 0.386693
v -0.593319 0.007466 0.557824
v -0.582348 0.218598 0.543019
v 0.229493 -0.615371 0.177337
v 0.324506 -0.696638 0.177337
v 0.372013 -0.737272 0.285615
v 0.324507 -0.696638 0.393892
v 0.229493 -0.615371 0.393892
v 0.181986 -0.574737 0.285614
v 0.588603 0.059442 0.157663
v 0.733896 0.086258 0.157663
v 0.806542 0.099666 0.285615
v 0.733896 0.086258 0.413567
v 0.588603 0.059442 0.413567
v 0.515957 0.046035 0.285615
v -0.509545 1.226885 0.120033
v -0.463926 1.412562 0.120033
v -0.441116 1.505401 0.285616
v -0.463925 1.412562 0.451199
v -0.509544 1.226885 0.451199
v -0.532354 1.134046 0.285616
v -0.531178 -0.780198 0.197011
v -0.531178 -0.882507 0.197011
v -0.531178 -0.933662 0.285614
v -0.531178 -0.882507 0.374217
v -0.531178 -0.780198 0.374217
v -0.531178 -0.729043 0.285614
v 2.180106 -0.145880 0.316691
v 2.923213 0.394873 0.285630
v 2.985061 0.072325 0.272115
v 3.042822 -0.232652 0.226068
v 3.101759 -0.545822 0.143191
v 3.044219 -0.247201 0.313203
v 2.986909 0.059424 0.359214
v 3.191875 0.370946 0.259939
v 3.244597 0.094628 0.285078
v 3.293557 -0.159665 0.246373
v 3.343489 -0.416516 0.140083
v 3.294093 -0.163406 0.271631
v 3.245133 0.090887 0.310336
vt -1.449900 0.361004
vt -1.477832 0.624156
vt -1.486816 0.578527
vt -1.476305 0.352432
vt -1.496877 0.705113
vt -1.512149 0.785656
vt -1.497957 0.877328
vt -1.521584 1.227454
vt -1.488970 0.922956
vt -1.478906 0.796371
vt -1.459274 0.802801
vt -1.495139 1.236026
vt -1.513881 1.016135
vt -1.529250 1.327031
vt -1.487384 1.116781
vt 0.994154 -0.020220
vt -0.203058 0.060249
vt 1.121421 -0.267401
vt 2.737702 -0.200594
vt 2.421072 0.133238
vt 1.238282 0.048946
vt 1.227853 0.612475
vt 2.392484 0.727913
vt 0.142160 0.988756
vt 0.984944 0.543308
vt -0.174470 0.654924
vt 1.101349 0.859655
vt -1.355286 0.141381
vt -1.419250 0.239335
vt -1.495269 -0.132605
vt -1.489754 -0.034651
vt -1.624023 0.218049
vt -1.554707 0.316003
vt -1.613937 0.842688
vt -1.549371 0.940642
vt -1.478630 1.214629
vt -1.343711 0.766021
vt -1.413535 0.863975
vt -1.473021 1.116675
vt 1.078432 -0.121067
vt 1.058899 -0.083868
vt 1.114144 -0.312072
vt 1.115818 -0.304243
vt 1.147033 -0.067620
vt 1.168213 -0.022202
vt 1.163636 0.480214
vt 1.144184 0.367838
vt 1.108531 0.558843
vt 1.075679 0.314391
vt 1.054568 0.418549
vt 1.106870 0.700590
vt -1.440830 0.337290
vt -1.479566 0.210894
vt -1.522980 0.561548
vt -1.527678 1.038597
vt -1.445406 0.814339
vt -1.488863 1.164993
vt -2.453382 -0.200594
vt 3.695815 -0.132605
vt 3.567061 0.218049
vt 3.577147 0.842688
vt 3.718063 1.116675
vt 1.096660 -0.195465
vt 1.089518 -0.158266
vt 1.113196 -0.319901
vt 1.112587 -0.327730
vt 1.135008 -0.113037
vt 1.127259 -0.158455
vt 1.133127 0.255462
vt 1.125998 0.143086
vt 1.110083 0.275351
vt 1.095418 0.106075
vt 1.087680 0.210233
vt 1.109475 0.417097
vt -1.510684 0.636275
vt -1.518738 0.767411
vt -1.481038 0.357059
vt -1.473737 0.251615
vt -1.454577 0.457705
vt -1.439264 0.295440
vt -1.457718 0.837565
vt 1.111334 -0.150298
vt -1.449672 0.855060
vt -1.494704 1.370856
vn 0.054964 0.994537 -0.088443
vn 0.834834 0.548906 0.041505
vn 0.779717 0.610981 -0.136631
vn -0.410138 0.080905 -0.908414
vn 0.113254 0.134556 -0.984405
vn -0.362011 0.016602 -0.932005
vn 0.922910 -0.379040 -0.067080
vn 0.538285 -0.739738 -0.403760
vn 0.828120 -0.058382 0.557482
vn 0.779809 0.192450 0.595660
vn 0.271645 0.082339 0.958861
vn 0.336650 -0.248604 0.908200
vn -0.124332 -0.989227 -0.076998
vn 0.465407 -0.831477 -0.303293
vn -0.038423 -0.498795 0.865841
vn 0.484573 -0.874691 0.008728
vn 0.880428 0.463942 0.097781
vn 0.142705 -0.319834 -0.936644
vn 0.175054 -0.171514 -0.969481
vn -0.653920 -0.100803 -0.749809
vn -0.174078 0.623920 -0.761834
vn -0.118870 0.992889 0.004089
vn -0.999023 0.042970 -0.008484
vn -0.671133 -0.117191 0.731986
vn 0.048311 -0.305551 0.950926
vn 0.379894 0.249611 0.890683
vn -0.197363 0.618122 0.760888
vn 0.281930 0.958312 0.045961
vn 0.111698 0.956420 0.269723
vn 0.263863 0.367687 -0.891690
vn 0.030976 0.709403 -0.704062
vn -0.162145 -0.588672 -0.791925
vn -0.085543 -0.273019 -0.958190
vn -0.382183 -0.924039 0.004791
vn -0.120975 -0.969878 -0.211280
vn 0.000061 -0.652242 0.757988
vn -0.007935 0.496811 0.867794
vn 0.115238 0.259468 0.958831
vn -0.365184 -0.454817 0.812250
vn -0.983154 0.182623 0.000000
vn -0.654134 -0.756371 0.000000
vn -0.409589 0.023621 -0.911924
vn -0.281961 -0.254189 -0.925108
vn 0.572375 -0.130528 -0.809503
vn 0.469100 0.409314 -0.782525
vn 0.832911 0.553362 0.000000
vn 0.990631 -0.136387 0.000000
vn 0.572375 -0.130528 0.809503
vn -0.409619 0.023621 0.911924
vn -0.281961 -0.254189 0.925108
vn 0.469100 0.409314 0.782525
vn 0.181707 0.982574 0.038392
vn 0.021760 0.499039 -0.866268
vn -0.097995 -0.318430 -0.942839
vn -0.106449 -0.985015 -0.135594
vn 0.195868 0.323466 0.925718
vn 0.070559 -0.517960 0.852473
vn 0.547258 0.836940 0.000000
vn -0.579791 0.814722 0.000000
vn -0.256478 0.281411 -0.924650
vn 0.024293 0.294504 -0.955321
vn 0.337016 -0.495071 -0.800806
vn -0.398358 -0.538743 -0.742302
vn 0.623066 -0.782128 0.000000
vn -0.403058 -0.915159 0.000000
vn -0.398358 -0.538743 0.742302
vn 0.024293 0.294504 0.955321
vn -0.256478 0.281411 0.924650
vn 0.337016 -0.495071 0.800806
vn 0.004028 -0.309763 -0.950804
vn 0.066378 0.217872 -0.973693
vn 0.061464 0.392987 -0.917478
vn 0.094028 0.107028 -0.989776
vn -0.222694 0.971770 0.077609
vn 0.129643 0.991302 -0.022340
vn -0.040437 0.254677 0.966155
vn -0.389904 0.920835 0.000000
vn 0.060213 0.053377 0.996734
vn 0.130467 -0.312387 0.940916
usemtl scale
s 1
f 74/1/1 2/2/2 4/3/3
f 75/4/4 4/3/3 6/5/5
f 76/6/6 6/5/5 8/7/7
f 77/8/8 8/7/7 10/9/9
f 4/3/3 2/2/2 12/10/10
f 79/11/11 12/10/10 74/1/1
f 78/12/12 10/9/9 79/11/11
f 5/13/13 71/14/14 3/15/15
f 60/16/16 13/17/17 55/18/18
f 55/18/18 14/19/19 15/20/20
f 56/21/21 15/20/20 57/22/22
f 57/22/22 16/23/23 17/24/24
f 59/25/25 18/26/26 13/17/17
f 58/27/27 17/24/24 59/25/25
f 37/28/28 19/29/29 38/30/30
f 38/30/30 20/31/31 39/32/32
f 39/32/32 21/33/33 40/34/34
f 40/34/34 22/35/35 23/36/36
f 42/37/37 24/38/38 37/28/28
f 41/39/39 23/36/36 42/37/37
f 54/40/40 30/41/41 49/42/42
f 49/42/42 25/43/43 50/44/44
f 50/44/44 26/45/45 27/46/46
f 51/47/47 27/46/46 52/48/48
f 53/49/49 29/50/50 54/40/40
f 52/48/48 28/51/51 53/49/49
f 19/29/29 31/52/52 32/53/53
f 20/31/31 32/53/53 33/54/54
f 21/33/33 33/54/54 22/35/35
f 22/35/35 34/55/55 23/36/36
f 24/38/38 36/56/56 31/52/52
f 23/36/36 35/57/57 36/56/56
f 13/17/17 37/28/28 14/58/19
f 14/19/19 38/59/30 39/60/32
f 15/20/20 39/60/32 16/23/23
f 16/23/23 40/61/34 41/62/39
f 18/26/26 42/37/37 13/17/17
f 17/24/24 41/39/39 18/26/26
f 66/63/58 48/64/59 43/65/60
f 61/66/61 43/65/60 44/67/62
f 62/68/63 44/67/62 45/69/64
f 63/70/65 45/69/64 64/71/66
f 65/72/67 47/73/68 66/63/58
f 64/71/66 46/74/69 65/72/67
f 48/64/59 54/40/40 49/42/42
f 43/65/60 49/42/42 50/44/44
f 44/67/62 50/44/44 51/47/47
f 45/69/64 51/47/47 46/74/69
f 47/73/68 53/49/49 48/64/59
f 46/74/69 52/48/48 47/73/68
f 30/41/41 60/16/16 25/43/43
f 25/43/43 55/18/18 26/45/45
f 26/45/45 56/21/21 27/46/46
f 27/46/46 57/22/22 58/27/27
f 29/50/50 59/25/25 60/16/16
f 28/51/51 58/27/27 59/25/25
f 7/75/70 70/76/71 71/14/14
f 9/77/72 69/78/73 7/75/70
f 11/79/74 68/80/75 9/77/72
f 35/57/57 3/15/15 36/56/56
f 36/56/56 67/81/76 31/52/52
f 34/55/55 5/13/13 3/15/15
f 33/54/54 7/75/70 34/55/55
f 32/53/53 9/77/72 33/54/54
f 31/52/52 11/79/74 9/77/72
f 1/82/77 66/63/58 61/66/61
f 1/82/77 61/66/61 62/68/63
f 1/82/77 62/68/63 63/70/65
f 1/82/77 63/70/65 64/71/66
f 1/82/77 65/72/67 66/63/58
f 1/82/77 64/71/66 65/72/67
f 67/81/76 73/83/78 68/80/75
f 3/15/15 72/84/79 73/83/78
f 68/80/75 74/1/1 75/4/4
f 69/78/73 75/4/4 70/76/71
f 70/76/71 76/6/6 71/14/14
f 71/14/14 77/8/8 78/12/12
f 73/83/78 79/11/11 68/80/75
f 72/84/79 78/12/12 79/11/11
f 75/4/4 74/1/1 4/3/3
f 76/6/6 75/4/4 6/5/5
f 77/8/8 76/6/6 8/7/7
f 78/12/12 77/8/8 10/9/9
f 4/3/3 12/10/10 10/9/9
f 6/5/5 4/3/3 10/9/9
f 8/7/7 6/5/5 10/9/9
f 12/10/10 2/2/2 74/1/1
f 10/9/9 12/10/10 79/11/11
f 71/14/14 72/84/79 3/15/15
f 13/17/17 14/19/19 55/18/18
f 56/21/21 55/18/18 15/20/20
f 15/20/20 16/23/23 57/22/22
f 58/27/27 57/22/22 17/24/24
f 60/16/16 59/25/25 13/17/17
f 17/24/24 18/26/26 59/25/25
f 19/29/29 20/31/31 38/30/30
f 20/31/31 21/33/33 39/32/32
f 21/33/33 22/35/35 40/34/34
f 41/39/39 40/34/34 23/36/36
f 24/38/38 19/29/29 37/28/28
f 23/36/36 24/38/38 42/37/37
f 30/41/41 25/43/43 49/42/42
f 25/43/43 26/45/45 50/44/44
f 51/47/47 50/44/44 27/46/46
f 27/46/46 28/51/51 52/48/48
f 29/50/50 30/41/41 54/40/40
f 28/51/51 29/50/50 53/49/49
f 20/31/31 19/29/29 32/53/53
f 21/33/33 20/31/31 33/54/54
f 33/54/54 34/55/55 22/35/35
f 34/55/55 35/57/57 23/36/36
f 19/29/29 24/38/38 31/52/52
f 24/38/38 23/36/36 36/56/56
f 37/28/28 38/30/30 14/58/19
f 15/20/20 14/19/19 39/60/32
f 39/60/32 40/61/34 16/23/23
f 17/24/24 16/23/23 41/62/39
f 42/37/37 37/28/28 13/17/17
f 41/39/39 42/37/37 18/26/26
f 61/66/61 66/63/58 43/65/60
f 62/68/63 61/66/61 44/67/62
f 63/70/65 62/68/63 45/69/64
f 45/69/64 46/74/69 64/71/66
f 47/73/68 48/64/59 66/63/58
f 46/74/69 47/73/68 65/72/67
f 43/65/60 48/64/59 49/42/42
f 44/67/62 43/65/60 50/44/44
f 45/69/64 44/67/62 51/47/47
f 51/47/47 52/48/48 46/74/69
f 53/49/49 54/40/40 48/64/59
f 52/48/48 53/49/49 47/73/68
f 60/16/16 55/18/18 25/43/43
f 55/18/18 56/21/21 26/45/45
f 56/21/21 57/22/22 27/46/46
f 28/51/51 27/46/46 58/27/27
f 30/41/41 29/50/50 60/16/16
f 29/50/50 28/51/51 59/25/25
f 5/13/13 7/75/70 71/14/14
f 69/78/73 70/76/71 7/75/70
f 68/80/75 69/78/73 9/77/72
f 3/15/15 67/81/76 36/56/56
f 67/81/76 11/79/74 31/52/52
f 35/57/57 34/55/55 3/15/15
f 7/75/70 5/13/13 34/55/55
f 9/77/72 7/75/70 33/54/54
f 32/53/53 31/52/52 9/77/72
f 11/79/74 67/81/76 68/80/75
f 67/81/76 3/15/15 73/83/78
f 69/78/73 68/80/75 75/4/4
f 75/4/4 76/6/6 70/76/71
f 76/6/6 77/8/8 71/14/14
f 72/84/79 71/14/14 78/12/12
f 79/11/11 74/1/1 68/80/75
f 73/83/78 72/84/79 79/11/11
