# Blender v2.65 (sub 0) OBJ File: 'fish.blend'
# www.blender.org
mtllib fish_000052.mtl
o Sphere
v -1.113935 -0.278979 2.000985
v 0.820735 0.291093 1.220086
v 1.651846 0.655080 0.546014
v 1.778445 0.704242 -0.046608
v 1.312133 0.523161 -0.146196
v 1.579739 0.627079 -0.299652
v 0.751967 0.300732 -0.635891
v 0.733359 0.166561 1.032428
v 1.262094 0.320954 0.839289
v 1.613741 0.403921 0.546014
v 1.737200 0.432388 -0.046608
v 1.274028 0.272002 -0.146196
v 1.550575 0.434850 -0.299652
v 0.734812 0.194555 -0.636492
v 0.617453 0.034446 1.030115
v 1.055784 0.076817 0.837699
v 1.463133 -0.201494 0.546014
v 1.449038 0.103600 0.199909
v 1.347514 0.100160 -0.146196
v 1.058304 0.090046 -0.439662
v 0.620619 0.066376 -0.637976
v 0.418735 -0.101256 1.025998
v 0.697958 -0.174781 0.833236
v 0.886335 -0.223614 0.542657
v 0.953797 -0.238636 0.198127
v 0.889596 -0.215643 -0.147948
v 0.701745 -0.156864 -0.443402
v 0.424518 -0.058781 -0.640548
v 0.112024 -0.227815 1.019286
v 0.182444 -0.399443 0.823630
v 0.238355 -0.512384 0.533615
v 0.264445 -0.548467 0.191130
v 0.246066 -0.500070 -0.155201
v 0.190644 -0.367492 -0.450634
v 0.120121 -0.167506 -0.645368
v -0.404490 -0.110378 1.088913
v -0.407422 -0.323259 1.002583
v -0.827911 -0.511621 0.779456
v -1.126796 -0.427202 0.397088
v -1.234368 -0.414926 0.134113
v -1.128194 -0.376369 -0.115060
v -0.825797 -0.400889 -0.489867
v -0.404358 -0.193310 -0.659493
v -0.842718 -0.299605 0.999026
v -1.645551 -0.348644 0.431096
v -1.481478 -0.282066 0.194911
v -1.685768 -0.288442 0.146402
v -1.489803 -0.271606 0.100769
v -1.700177 -0.249096 -0.327639
v -0.841549 -0.133225 -0.661519
v -1.144243 -0.210169 0.790863
v -1.477686 -0.067741 0.261920
v -2.746764 0.454994 0.360771
v -2.572026 0.356042 0.226254
v -2.746764 0.487817 0.095852
v -2.175108 0.147137 0.048524
v -1.149981 -0.080295 -0.447838
v -1.246641 -0.120383 0.800058
v -2.315625 0.269183 0.367339
v -4.038096 1.049335 2.007145
v -2.755651 0.562095 0.251785
v -3.183181 0.902634 -0.614286
v -2.316091 0.277038 0.064619
v -1.249290 0.030453 -0.437901
v -1.147825 -0.038051 0.810390
v -2.132925 0.234797 0.363078
v -2.675738 0.591648 0.377703
v -2.501656 0.478891 0.241475
v -2.675738 0.624472 0.112784
v -1.476334 0.032085 0.097942
v -1.147769 0.114107 -0.426947
v -0.868188 0.038110 1.032906
v -1.624184 0.262894 0.506867
v -1.472695 0.258636 0.261905
v -1.646156 0.283367 0.217250
v -1.472695 0.270282 0.167909
v -1.634124 0.360111 -0.253873
v -0.867599 0.191301 -0.628512
v -0.464181 0.107906 1.038295
v -0.883680 0.287534 0.862375
v -1.152074 0.317684 0.482725
v -1.248437 0.399161 0.231596
v -1.151723 0.395284 -0.028649
v -0.883067 0.423557 -0.408059
v -0.464391 0.222196 -0.625867
v -0.005423 0.223480 1.037850
v -0.070102 0.435744 0.845872
v -0.124713 0.573654 0.551044
v -0.147414 0.621834 0.203223
v -0.129815 0.580205 -0.142506
v -0.076771 0.461380 -0.433863
v -0.011044 0.280480 -0.631696
v 0.292877 0.307133 1.036692
v 0.432011 0.589109 0.842160
v 0.513974 0.781944 0.546276
v 0.545700 0.843182 0.199909
v 0.512938 0.783445 -0.146196
v 0.426529 0.607796 -0.437598
v 0.286399 0.356573 -0.633614
v 0.054772 0.062285 -0.706939
v 0.514456 0.336134 1.035350
v 0.838833 0.661229 0.839934
v 0.940476 1.162131 0.546014
v 1.133609 0.926561 0.199909
v 1.056096 0.860477 -0.146196
v 0.835356 0.672285 -0.439610
v 0.508605 0.383864 -0.634847
v 0.676689 0.311265 1.033798
v 1.141450 0.637785 0.839428
v 1.456026 0.815401 0.546014
v 1.566491 0.877772 -0.046608
v 1.116313 0.683482 -0.146196
v 1.429865 0.749784 -0.299652
v 0.672197 0.365277 -0.635548
v 0.103352 -0.858028 -0.062482
v 0.027212 -0.806806 -0.409459
v -0.582534 -1.151365 -0.179212
v -0.603973 -1.072876 -0.848259
v -1.175491 0.589875 -0.152962
v -1.149279 0.535753 -0.823152
v -0.466258 0.765968 -0.044731
v -0.492282 0.689331 -0.391012
v 0.351314 0.129503 2.134486
v 2.835245 1.114622 0.439563
v 1.122989 0.216229 1.349039
v 2.107834 0.491463 0.987032
v 1.723352 0.039554 0.984505
v 2.483004 -0.484215 0.439563
v 0.538002 -0.269400 1.338695
v 1.056782 -0.421714 0.977144
v 1.407304 -0.519713 0.433968
v 1.532779 -0.550565 -0.209440
v 0.097333 -0.823591 0.961243
v 0.200056 -1.044677 0.418722
v -0.993545 -0.617799 1.302655
v -1.774451 -0.944554 0.889063
v -2.330097 -0.772947 0.176985
v -2.529287 -0.741961 -0.312919
v -1.802053 -0.549511 1.298827
v -3.280331 -0.566331 0.247815
v -1.849150 0.084555 1.362488
v -3.215303 0.651202 0.398669
v -1.098343 0.194183 1.370147
v -1.878616 0.546661 1.043783
v -2.376868 0.620013 0.337133
v -2.555488 0.779899 -0.130705
v -0.374450 0.732846 1.002470
v -0.478592 0.976416 0.450551
v 0.303904 0.498038 1.359256
v 0.560434 1.004470 0.993842
v 0.711478 1.352201 0.440141
v 0.770571 1.465724 -0.206459
v 1.318324 1.129907 0.988620
v 1.507439 2.061058 0.439563
v 1.018899 0.496921 1.352826
v 1.882566 1.082341 0.987234
v -3.567741 0.971665 0.540348
vt 0.000000 0.000000
vt 1.000000 0.000000
vt 1.000000 1.000000
vt 0.000000 1.000000
vn 0.910489 0.348338 -0.222724
vn 0.828547 0.318857 -0.460189
vn 0.803461 -0.278695 -0.526078
vn 0.777917 -0.496139 -0.385540
vn 0.249489 0.096957 -0.963500
vn 0.931211 0.360790 -0.051546
vn 0.947111 -0.285562 -0.146275
vn 0.295785 -0.144230 -0.944273
vn 0.518509 -0.534684 -0.667226
vn 0.271126 -0.315073 -0.909482
vn 0.636036 -0.685690 -0.353862
vn 0.386029 -0.699576 -0.601276
vn 0.218329 -0.423841 -0.878994
vn 0.535569 -0.766289 -0.354808
vn 0.165471 -0.840999 -0.515091
vn 0.116947 -0.488205 -0.864834
vn -0.302927 -0.310739 -0.900906
vn -0.122929 -0.842586 -0.524308
vn -0.002808 -0.444563 -0.895718
vn -0.168920 -0.974883 -0.145024
vn -0.598102 -0.473434 -0.646596
vn -0.263863 0.173956 -0.948729
vn -0.388928 -0.874050 -0.291086
vn -0.600940 -0.674062 -0.429456
vn -0.315806 0.238502 -0.918332
vn -0.670858 -0.738273 -0.069582
vn 0.039033 -0.096133 -0.994598
vn -0.296548 0.355113 -0.886502
vn -0.329112 0.011963 -0.944182
vn -0.157323 0.751732 -0.640400
vn -0.415937 -0.035737 -0.908658
vn 0.298227 0.953856 0.034425
vn -0.567583 0.434156 -0.699515
vn -0.266610 -0.126530 -0.955443
vn -0.296670 0.887997 -0.351268
vn -0.142827 0.876980 -0.458785
vn -0.058626 0.541673 -0.838527
vn -0.184393 0.981414 -0.052736
vn -0.170019 0.822199 -0.543168
vn -0.103519 0.503189 -0.857936
vn 0.011261 0.360698 -0.932585
vn -0.174902 0.777978 -0.603442
vn -0.110263 0.492050 -0.863521
vn -0.113071 0.927366 -0.356639
vn 0.016388 0.738426 -0.674093
vn -0.016449 0.427351 -0.903897
vn 0.003662 0.934660 -0.355480
vn 0.508621 0.848170 -0.147801
vn 0.121830 0.304605 -0.944639
vn 0.242470 0.889767 -0.386608
vn -0.002564 0.021912 -0.999756
vn 0.408399 0.745933 -0.526048
vn 0.047578 -0.929563 0.365551
vn -0.743645 -0.017335 -0.668325
vn -0.750969 -0.560594 0.348949
vn -0.304086 0.857356 0.415265
vn -0.931394 -0.038362 0.361919
vn -0.606494 -0.412000 -0.679983
vn 0.181188 0.597003 -0.781457
vn 0.501907 -0.342631 -0.794122
vn -0.063936 0.775994 0.627430
vn -0.800531 -0.238014 0.549974
vn 0.388379 -0.734489 0.556475
vn 0.581469 -0.543748 0.605152
vn 0.541826 0.713218 0.444594
vn 0.854549 -0.250923 0.454695
vn 0.303018 -0.854549 0.421735
vn 0.699911 -0.668081 -0.252449
vn 0.329508 -0.538591 0.775445
vn 0.248390 -0.325449 0.912320
vn 0.151463 -0.885739 0.438734
vn 0.206244 -0.954070 0.217231
vn 0.078310 -0.645985 0.759270
vn -0.066256 -0.910672 0.407727
vn -0.171239 -0.981994 0.079714
vn 0.133213 -0.535386 0.834010
vn -0.483535 -0.674978 0.557268
vn -0.222175 -0.974975 0.004425
vn -0.057222 -0.509781 0.858364
vn -0.590411 0.471511 0.655019
vn -0.340403 -0.864315 0.370220
vn -0.414777 0.064150 0.907620
vn -0.510208 -0.857265 -0.068606
vn -0.633442 -0.757225 -0.159124
vn -0.599841 -0.797723 -0.061464
vn -0.564623 -0.498856 0.657491
vn -0.570513 -0.084231 0.816919
vn 0.159429 -0.542802 0.824549
vn 0.456496 0.877438 0.147313
vn -0.461623 -0.310373 0.830988
vn 0.000580 0.626453 0.779412
vn 0.327799 0.944334 0.027467
vn -0.353099 0.240272 0.904202
vn 0.191534 0.977477 0.088382
vn -0.199561 0.868221 0.454207
vn 0.140599 0.985168 0.098025
vn -0.102298 0.765648 0.635060
vn -0.309488 0.135868 0.941130
vn -0.083193 0.843654 0.530351
vn -0.135960 0.963775 0.229377
vn -0.057070 0.490707 0.869411
vn -0.018494 0.819788 0.572314
vn 0.002716 0.955412 0.295236
vn -0.104343 0.423963 0.899625
vn 0.129521 0.609943 0.781762
vn -0.189795 0.921934 0.337565
vn 0.156560 0.306833 0.938780
vn 0.064638 0.566668 0.821375
vn 0.551012 0.803980 -0.223548
vn -0.018738 0.348521 0.937101
vn 0.062624 0.965758 -0.251717
vn 0.470077 0.750084 0.465163
vn 0.557329 0.196234 0.806757
vn -0.030702 0.715110 0.698294
vn -0.115207 -0.125217 0.985412
vn 0.182073 0.951933 0.246284
vn 0.223548 -0.964965 -0.137211
vn -0.380108 0.924894 -0.005158
vn -0.446455 -0.843287 -0.299142
vn 0.724998 0.668599 0.165288
vn -0.416761 0.907498 0.052217
vn 0.650014 -0.479141 -0.589801
vn 0.284677 0.914182 0.288400
vn 0.923734 -0.344066 0.168249
vn 0.533006 -0.839778 -0.103183
vn -0.168279 -0.818232 0.549669
vn -0.965453 0.119053 -0.231727
vn -0.165563 0.966918 0.193945
vn 0.223090 -0.968139 -0.113498
vn 0.448805 -0.854305 0.262123
vn -0.562700 -0.826533 -0.013855
vn -0.771081 0.635060 -0.045503
vn -0.188086 0.971160 0.146397
vn 0.142216 0.983886 -0.108249
vn -0.189245 0.939604 0.285104
vn -0.503800 -0.861843 -0.058351
vn -0.299509 0.937712 0.175909
vn 0.207953 0.948515 0.238868
vn 0.946165 -0.322214 0.029817
vn 0.477767 0.871914 0.107028
usemtl Material
s 1
f 5/1/1 4/2/2 11/3/3
f 5/1/1 11/3/3 12/4/4
f 7/1/5 6/2/6 13/3/7
f 7/1/5 13/3/7 14/4/8
f 6/1/6 5/2/1 12/3/4
f 6/1/6 12/3/4 13/4/7
f 14/1/8 13/2/7 20/3/9
f 14/1/8 20/3/9 21/4/10
f 13/1/7 12/2/4 19/3/11
f 13/1/7 19/3/11 20/4/9
f 21/1/10 20/2/9 27/3/12
f 21/1/10 27/3/12 28/4/13
f 20/1/9 19/2/11 26/3/14
f 20/1/9 26/3/14 27/4/12
f 28/1/13 27/2/12 34/3/15
f 28/1/13 34/3/15 35/4/16
f 27/1/12 26/2/14 33/3/17
f 27/1/12 33/3/17 34/4/15
f 35/1/16 34/2/15 42/3/18
f 35/1/16 42/3/18 43/4/19
f 34/1/15 33/2/17 41/3/20
f 34/1/15 41/3/20 42/4/18
f 43/1/19 42/2/18 49/3/21
f 43/1/19 49/3/21 50/4/22
f 42/1/18 41/2/20 48/3/23
f 42/1/18 48/3/23 49/4/21
f 50/1/22 49/2/21 56/3/24
f 50/1/22 56/3/24 57/4/25
f 49/1/21 48/2/23 55/3/26
f 49/1/21 55/3/26 56/4/24
f 57/1/25 56/2/24 63/3/27
f 57/1/25 63/3/27 64/4/28
f 56/1/24 55/2/26 62/3/29
f 56/1/24 62/3/29 63/4/27
f 64/1/28 63/2/27 70/3/30
f 64/1/28 70/3/30 71/4/31
f 63/1/27 62/2/29 69/3/32
f 63/1/27 69/3/32 70/4/30
f 71/1/31 70/2/30 77/3/33
f 71/1/31 77/3/33 78/4/34
f 70/1/30 69/2/32 76/3/35
f 70/1/30 76/3/35 77/4/33
f 78/1/34 77/2/33 84/3/36
f 78/1/34 84/3/36 85/4/37
f 77/1/33 76/2/35 83/3/38
f 77/1/33 83/3/38 84/4/36
f 85/1/37 84/2/36 91/3/39
f 85/1/37 91/3/39 92/4/40
f 84/1/36 83/2/38 90/3/41
f 84/1/36 90/3/41 91/4/39
f 92/1/40 91/2/39 98/3/42
f 92/1/40 98/3/42 99/4/43
f 91/1/39 90/2/41 97/3/44
f 91/1/39 97/3/44 98/4/42
f 99/1/43 98/2/42 106/3/45
f 99/1/43 106/3/45 107/4/46
f 98/1/42 97/2/44 105/3/47
f 98/1/42 105/3/47 106/4/45
f 107/1/46 106/2/45 113/3/48
f 107/1/46 113/3/48 114/4/49
f 106/1/45 105/2/47 112/3/50
f 106/1/45 112/3/50 113/4/48
f 100/1/51 7/2/5 14/3/8
f 100/1/51 14/2/8 21/3/10
f 100/1/51 21/2/10 28/3/13
f 100/1/51 28/2/13 35/3/16
f 100/1/51 35/2/16 43/3/19
f 100/1/51 43/2/19 50/3/22
f 100/1/51 50/2/22 57/3/25
f 100/1/51 57/2/25 64/3/28
f 100/1/51 64/2/28 71/3/31
f 100/1/51 71/2/31 78/3/34
f 100/1/51 78/2/34 85/3/37
f 100/1/51 85/2/37 92/3/40
f 100/1/51 92/2/40 99/3/43
f 100/1/51 99/2/43 107/3/46
f 100/1/51 107/2/46 114/3/49
f 114/1/49 113/2/48 6/3/6
f 114/1/49 6/3/6 7/4/5
f 113/1/48 112/2/50 5/3/1
f 113/1/48 5/3/1 6/4/6
f 112/1/50 111/2/52 4/3/2
f 112/1/50 4/3/2 5/4/1
f 100/1/51 114/2/49 7/3/5
f 32/1/53 33/2/17 118/3/54
f 32/1/53 118/3/54 117/4/55
f 90/1/41 89/2/56 119/3/57
f 90/1/41 119/3/57 120/4/58
f 97/1/44 90/2/41 120/3/58
f 97/1/44 120/3/58 122/4/59
f 33/1/17 26/2/14 116/3/60
f 33/1/17 116/3/60 118/4/54
usemtl Material.001
f 2/1/61 1/2/62 8/3/63
f 2/1/61 8/3/63 9/4/64
f 4/1/2 3/2/65 10/3/66
f 4/1/2 10/3/66 11/4/3
f 3/1/65 2/2/61 9/3/64
f 3/1/65 9/3/64 10/4/66
f 11/1/3 10/2/66 17/3/67
f 11/1/3 17/3/67 18/4/68
f 10/1/66 9/2/64 16/3/69
f 10/1/66 16/3/69 17/4/67
f 9/1/64 8/2/63 15/3/70
f 9/1/64 15/3/70 16/4/69
f 17/1/67 16/2/69 23/3/71
f 17/1/67 23/3/71 24/4/72
f 16/1/69 15/2/70 22/3/73
f 16/1/69 22/3/73 23/4/71
f 24/1/72 23/2/71 30/3/74
f 24/1/72 30/3/74 31/4/75
f 23/1/71 22/2/73 29/3/76
f 23/1/71 29/3/76 30/4/74
f 31/1/75 30/2/74 38/3/77
f 31/1/75 38/3/77 39/4/78
f 30/1/74 29/2/76 37/3/79
f 30/1/74 37/3/79 38/4/77
f 39/1/78 38/2/77 45/3/80
f 39/1/78 45/3/80 46/4/81
f 38/1/77 37/2/79 44/3/82
f 38/1/77 44/3/82 45/4/80
f 47/1/83 46/2/81 53/3/84
f 47/1/83 53/3/84 54/4/85
f 46/1/81 45/2/80 52/3/86
f 46/1/81 52/3/86 53/4/84
f 45/1/80 44/2/82 51/3/87
f 45/1/80 51/3/87 52/4/86
f 53/1/84 52/2/86 59/3/88
f 53/1/84 59/3/88 60/4/89
f 52/1/86 51/2/87 58/3/90
f 52/1/86 58/3/90 59/4/88
f 60/1/89 59/2/88 66/3/91
f 60/1/89 66/3/91 67/4/92
f 59/1/88 58/2/90 65/3/93
f 59/1/88 65/3/93 66/4/91
f 68/1/94 67/2/92 74/3/95
f 68/1/94 74/3/95 75/4/96
f 67/1/92 66/2/91 73/3/97
f 67/1/92 73/3/97 74/4/95
f 66/1/91 65/2/93 72/3/98
f 66/1/91 72/3/98 73/4/97
f 74/1/95 73/2/97 80/3/99
f 74/1/95 80/3/99 81/4/100
f 73/1/97 72/2/98 79/3/101
f 73/1/97 79/3/101 80/4/99
f 81/1/100 80/2/99 87/3/102
f 81/1/100 87/3/102 88/4/103
f 80/1/99 79/2/101 86/3/104
f 80/1/99 86/3/104 87/4/102
f 88/1/103 87/2/102 94/3/105
f 88/1/103 94/3/105 95/4/106
f 87/1/102 86/2/104 93/3/107
f 87/1/102 93/3/107 94/4/105
f 95/1/106 94/2/105 102/3/108
f 95/1/106 102/3/108 103/4/109
f 94/1/105 93/2/107 101/3/110
f 94/1/105 101/3/110 102/4/108
f 104/1/111 103/2/109 110/3/112
f 104/1/111 110/3/112 111/4/52
f 103/1/109 102/2/108 109/3/113
f 103/1/109 109/3/113 110/4/112
f 102/1/108 101/2/110 108/3/114
f 102/1/108 108/3/114 109/4/113
f 1/1/62 36/2/115 8/3/63
f 8/1/63 36/2/115 15/3/70
f 15/1/70 36/2/115 22/3/73
f 22/1/73 36/2/115 29/3/76
f 29/1/76 36/2/115 37/3/79
f 37/1/79 36/2/115 44/3/82
f 44/1/82 36/2/115 51/3/87
f 51/1/87 36/2/115 58/3/90
f 58/1/90 36/2/115 65/3/93
f 65/1/93 36/2/115 72/3/98
f 72/1/98 36/2/115 79/3/101
f 79/1/101 36/2/115 86/3/104
f 86/1/104 36/2/115 93/3/107
f 93/1/107 36/2/115 101/3/110
f 101/1/110 36/2/115 108/3/114
f 36/2/115 1/3/62 108/1/114
f 111/1/52 110/2/112 3/3/65
f 111/1/52 3/3/65 4/4/2
f 110/1/112 109/2/113 2/3/61
f 110/1/112 2/3/61 3/4/65
f 1/3/62 2/4/61 109/1/113
f 1/3/62 109/1/113 108/2/114
f 72/3/98 73/4/97 142/4/116
f 72/3/98 142/4/116 141/3/116
f 8/3/63 9/4/64 126/4/117
f 8/3/63 126/4/117 125/3/117
f 3/1/65 2/2/61 123/2/118
f 3/1/65 123/2/118 124/1/118
f 22/3/73 23/4/71 130/4/119
f 22/3/73 130/4/119 129/3/119
f 87/3/102 88/4/103 148/4/120
f 87/3/102 148/4/120 147/3/120
f 37/3/79 38/4/77 136/4/121
f 37/3/79 136/4/121 135/3/121
f 102/3/108 103/4/109 154/4/122
f 102/3/108 154/4/122 153/3/122
f 79/3/101 80/4/99 144/4/123
f 79/3/101 144/4/123 143/3/123
f 93/3/107 94/4/105 150/4/124
f 93/3/107 150/4/124 149/3/124
f 108/3/114 109/4/113 156/4/125
f 108/3/114 156/4/125 155/3/125
f 16/3/69 17/4/67 128/4/126
f 16/3/69 128/4/126 127/3/126
f 30/3/74 31/4/75 134/4/127
f 30/3/74 134/4/127 133/3/127
f 44/3/82 45/4/80 140/4/128
f 44/3/82 140/4/128 139/3/128
usemtl Material.002
f 12/1/4 11/2/3 18/3/68
f 12/1/4 18/3/68 19/4/11
f 18/1/68 17/2/67 24/3/72
f 18/1/68 24/3/72 25/4/129
f 19/1/11 18/2/68 25/3/129
f 19/1/11 25/3/129 26/4/14
f 25/1/129 24/2/72 31/3/75
f 25/1/129 31/3/75 32/4/53
f 25/1/129 32/2/53 117/3/55
f 25/1/129 117/3/55 115/4/130
f 32/1/53 31/2/75 39/3/78
f 32/1/53 39/3/78 40/4/131
f 33/1/17 32/2/53 40/3/131
f 33/1/17 40/3/131 41/4/20
f 40/1/131 39/2/78 46/3/81
f 40/1/131 46/3/81 47/4/83
f 41/1/20 40/2/131 47/3/83
f 41/1/20 47/3/83 48/4/23
f 48/1/23 47/2/83 54/3/85
f 48/1/23 54/3/85 55/4/26
f 54/1/85 53/2/84 60/3/89
f 54/1/85 60/3/89 61/4/132
f 55/1/26 54/2/85 61/3/132
f 55/1/26 61/3/132 62/4/29
f 61/1/132 60/2/89 67/3/92
f 61/1/132 67/3/92 68/4/94
f 62/1/29 61/2/132 68/3/94
f 62/1/29 68/3/94 69/4/32
f 69/1/32 68/2/94 75/3/96
f 69/1/32 75/3/96 76/4/35
f 75/1/96 74/2/95 81/3/100
f 75/1/96 81/3/100 82/4/133
f 76/1/35 75/2/96 82/3/133
f 76/1/35 82/3/133 83/4/38
f 82/1/133 81/2/100 88/3/103
f 82/1/133 88/3/103 89/4/56
f 83/1/38 82/2/133 89/3/56
f 83/1/38 89/3/56 90/4/41
f 89/1/56 88/2/103 95/3/106
f 89/1/56 95/3/106 96/4/134
f 89/1/56 96/2/134 121/3/135
f 89/1/56 121/3/135 119/4/57
f 96/1/134 95/2/106 103/3/109
f 96/1/134 103/3/109 104/4/111
f 97/1/44 96/2/134 104/3/111
f 97/1/44 104/3/111 105/4/47
f 105/1/47 104/2/111 111/3/52
f 105/1/47 111/3/52 112/4/50
f 116/1/60 115/2/130 117/3/55
f 116/1/60 117/3/55 118/4/54
f 120/1/58 119/2/57 121/3/135
f 120/1/58 121/3/135 122/4/59
f 26/1/14 25/2/129 115/3/130
f 26/1/14 115/3/130 116/4/60
f 96/1/134 97/2/44 122/3/59
f 96/1/134 122/3/59 121/4/135
f 24/3/72 25/4/129 132/4/136
f 24/3/72 132/4/136 131/3/136
f 39/3/78 40/4/131 138/4/137
f 39/3/78 138/4/137 137/3/137
f 81/3/100 82/4/133 146/4/138
f 81/3/100 146/4/138 145/3/138
f 95/3/106 96/4/134 152/4/139
f 95/3/106 152/4/139 151/3/139
f 60/3/89 61/4/132 157/3/140
