# Blender v2.69 (sub 0) OBJ File: 'mine.blend'
# www.blender.org
mtllib mine_000057.mtl
o Cube.011
v -1.884062 -3.476846 -0.275896
v 1.820743 -2.571439 -0.263769
v -0.970608 -1.467933 3.301290
v 1.248065 -1.573305 2.674852
v -4.735271 -2.378552 -0.111557
v -4.020608 -2.378552 2.416184
v 1.820743 -1.004643 -0.263769
v 2.412287 -0.974339 2.120821
v 2.047926 -1.816358 2.129399
v 1.895803 -2.171064 0.784636
v 2.138813 -1.180485 0.815355
v -1.889095 -2.916249 2.424345
vt 0.334548 0.321256
vt 0.166393 0.381547
vt 0.099725 0.249186
vt 0.999902 0.437750
vt 0.073094 0.000098
vt 0.999902 0.223875
vt 0.991371 0.694521
vt 0.000098 0.482653
vt 0.475310 0.017395
vt 0.313757 0.267210
vt 0.240620 0.002130
vt 0.278378 0.211671
vt 0.000072 0.166045
vt 0.823383 0.883648
vt 0.001265 0.959779
vt 0.063000 0.376580
vt 0.000061 0.000061
vt 0.263252 0.084114
vn 0.941245 -0.330921 -0.067444
vn 0.636787 -0.737476 0.225015
vn 0.711142 -0.690115 0.134098
vn -0.032291 -0.975344 0.218315
vn 0.667308 -0.725678 0.167608
vn -0.017975 -0.839778 0.542558
vn 0.109648 -0.564783 0.817923
vn -0.234877 -0.926636 0.293563
vn 0.971897 -0.163994 -0.168885
vn 0.235199 -0.679133 0.695313
vn -0.302269 -0.942988 0.139307
vn 0.959201 0.000000 -0.282723
usemtl rock.001
s 1
f 8/1/1 9/2/2 10/3/3
f 10/4/3 1/5/4 2/6/5
f 9/7/2 12/8/6 1/5/4
f 3/9/7 6/10/8 12/11/6
f 11/12/9 10/3/3 2/13/5
f 4/14/10 3/15/7 12/8/6
f 12/11/6 5/16/11 1/17/4
f 6/10/8 5/16/11 12/11/6
f 11/12/9 8/1/1 10/3/3
f 10/4/3 9/7/2 1/5/4
f 7/18/12 11/12/9 2/13/5
f 9/7/2 4/14/10 12/8/6
o Cube.012
v 1.736666 -1.107885 1.869536
v 1.736666 1.205512 1.869536
v 2.505094 1.205512 1.869536
v 2.505094 -1.107885 1.869536
v 1.736666 -1.107885 2.211466
v 1.736666 1.205512 2.211466
v 2.505094 1.205512 2.211466
v 2.505094 -1.107885 2.211466
v 2.505094 1.205512 2.048999
v 2.505094 -1.107885 2.046583
vt -0.023848 0.974956
vt 0.025044 -0.023848
vt 0.974956 1.023848
vt 1.023848 0.025044
vt 0.780755 0.013144
vt 0.773699 0.012799
vt 0.731863 1.011949
vt 0.724807 1.011603
vn -1.000000 0.000000 0.000000
vn 0.000000 1.000000 0.000000
vn 0.000000 -1.000000 0.000000
vn 0.000000 0.000000 -1.000000
vn 0.000000 0.000000 1.000000
vn 1.000000 0.000000 0.000000
usemtl wood.001
s off
f 17/19/13 18/20/13 13/21/13
f 18/19/14 19/20/14 14/21/14
f 20/19/15 17/20/15 13/22/15
f 13/19/16 14/20/16 16/21/16
f 20/19/17 19/20/17 17/21/17
f 19/19/18 20/20/18 22/23/18
f 18/20/13 14/22/13 13/21/13
f 19/20/14 21/24/14 14/21/14
f 21/24/14 15/22/14 14/21/14
f 22/25/15 20/19/15 13/22/15
f 16/21/15 22/25/15 13/22/15
f 14/20/16 15/22/16 16/21/16
f 19/20/17 18/22/17 17/21/17
f 21/26/18 19/19/18 22/23/18
usemtl color.001
f 21/26/18 22/23/18 16/22/18
f 15/21/18 21/26/18 16/22/18
o Cube.013
v 1.949915 0.796573 2.136102
v 1.949915 0.803817 -0.177284
v 2.291845 0.803817 -0.177284
v 2.291845 0.796573 2.136102
v 1.949915 1.138501 2.137173
v 1.949915 1.145746 -0.176213
v 2.291845 1.145746 -0.176213
v 2.291845 1.138501 2.137173
v 2.291845 0.994735 -0.177039
v 2.291845 0.986811 2.136345
vt -0.023848 0.974956
vt 0.025044 -0.023848
vt 0.974956 1.023848
vt 0.746537 1.012667
vt 1.023848 0.025044
vt 0.795429 0.013863
vt 0.797415 0.013960
vt 0.748523 1.012764
vn -1.000000 -0.000001 0.000000
vn 0.000000 0.003131 -0.999995
vn 1.000000 0.000000 0.000000
vn 0.000000 -0.003131 0.999995
vn 0.000000 -0.999995 -0.003132
vn 0.000000 0.999995 0.003132
vn -1.000000 0.000000 0.000000
vn -0.002338 0.005469 -0.999982
vn 0.000000 0.001283 -0.999999
vn 1.000000 0.000003 0.000000
vn 0.002326 -0.005457 0.999982
vn 0.000000 -0.001276 0.999999
vn 1.000000 -0.000001 0.000000
vn 1.000000 0.000002 0.000000
usemtl wood.001
s off
f 27/27/19 28/28/19 23/29/19
f 28/27/20 29/28/20 24/29/20
f 29/27/21 30/28/21 31/30/21
f 30/27/22 27/28/22 23/31/22
f 23/27/23 24/28/23 26/29/23
f 30/27/24 29/28/24 27/29/24
f 28/28/25 24/31/25 23/29/25
f 29/28/26 31/32/26 24/29/26
f 31/32/27 25/31/27 24/29/27
f 30/28/28 32/33/28 31/30/28
f 32/34/29 30/27/29 23/31/29
f 26/29/30 32/34/30 23/31/30
f 24/28/23 25/31/23 26/29/23
f 29/28/24 28/31/24 27/29/24
usemtl color.001
f 31/30/31 32/33/31 26/31/31
f 25/29/32 31/30/32 26/31/32
o Cube.014
v 1.949915 -1.100758 2.136102
v 1.949915 -1.093513 -0.177284
v 2.291845 -1.093513 -0.177284
v 2.291845 -1.100758 2.136102
v 1.949915 -0.758829 2.137173
v 1.949915 -0.751584 -0.176213
v 2.291845 -0.751584 -0.176213
v 2.291845 -0.758829 2.137173
v 2.291845 -0.952301 -0.176448
v 2.291845 -0.951312 2.136964
vt -0.023848 0.974956
vt 0.025044 -0.023848
vt 0.974956 1.023848
vt 0.194589 0.985649
vt 0.219430 -0.014333
vt 1.023848 0.025044
vt 0.243481 -0.013155
vt 0.170538 0.984471
vn -1.000000 -0.000001 0.000000
vn 0.000000 0.003131 -0.999995
vn 1.000000 0.000003 0.000000
vn 0.000000 -0.003131 0.999995
vn 0.000000 -0.999995 -0.003132
vn 0.000000 0.999995 0.003132
vn -1.000000 0.000000 0.000000
vn 0.001964 0.001167 -0.999997
vn 0.000000 0.005924 -0.999983
vn 1.000000 0.000000 0.000000
vn -0.002049 -0.001083 0.999997
vn 0.000000 -0.005769 0.999983
vn 1.000000 -0.000001 0.000000
vn 1.000000 0.000002 0.000000
usemtl wood.001
s off
f 37/35/33 38/36/33 33/37/33
f 38/35/34 39/36/34 34/37/34
f 41/38/35 42/39/35 35/37/35
f 40/35/36 37/36/36 33/40/36
f 33/35/37 34/36/37 36/37/37
f 40/35/38 39/36/38 37/37/38
f 38/36/39 34/40/39 33/37/39
f 39/36/40 41/41/40 34/37/40
f 41/41/41 35/40/41 34/37/41
f 42/39/42 36/40/42 35/37/42
f 42/42/43 40/35/43 33/40/43
f 36/37/44 42/42/44 33/40/44
f 34/36/37 35/40/37 36/37/37
f 39/36/38 38/40/38 37/37/38
usemtl color.001
f 39/35/45 40/36/45 42/39/45
f 41/38/46 39/35/46 42/39/46
o Cube.015
v 2.582690 -0.764888 1.865668
v 0.269322 -0.757644 1.874756
v 0.267979 -0.757644 1.532829
v 2.581347 -0.764888 1.523740
v 2.583761 -0.422960 1.865664
v 0.270393 -0.415715 1.874752
v 0.269049 -0.415715 1.532825
v 2.582417 -0.422960 1.523736
vt -0.023848 0.974956
vt 0.025044 -0.023848
vt 0.974956 1.023848
vt 1.023848 0.025044
vn 0.003929 -0.000000 0.999992
vn -0.999987 0.003131 0.003928
vn -0.003929 0.000000 -0.999992
vn 0.999987 -0.003131 -0.003928
vn -0.003132 -0.999995 0.000012
vn 0.003132 0.999995 -0.000012
vn 0.999987 -0.003132 -0.003928
usemtl wood.001
s off
f 47/43/47 48/44/47 43/45/47
f 48/43/48 49/44/48 44/45/48
f 49/43/49 50/44/49 45/45/49
f 50/43/50 47/44/50 46/45/50
f 43/43/51 44/44/51 46/45/51
f 50/43/52 49/44/52 47/45/52
f 48/44/47 44/46/47 43/45/47
f 49/44/48 45/46/48 44/45/48
f 50/44/49 46/46/49 45/45/49
f 47/44/53 43/46/53 46/45/53
f 44/44/51 45/46/51 46/45/51
f 49/44/52 48/46/52 47/45/52
o Cube.016
v 2.582690 0.453848 1.865668
v 0.269322 0.461093 1.874756
v 0.267979 0.461093 1.532829
v 2.581347 0.453848 1.523740
v 2.583761 0.795777 1.865664
v 0.270393 0.803021 1.874752
v 0.269049 0.803021 1.532825
v 2.582417 0.795777 1.523736
vt -0.023848 0.974956
vt 0.025044 -0.023848
vt 0.974956 1.023848
vt 1.023848 0.025044
vn 0.003929 -0.000000 0.999992
vn -0.999987 0.003131 0.003928
vn -0.003929 0.000000 -0.999992
vn 0.999987 -0.003131 -0.003928
vn -0.003132 -0.999995 0.000012
vn 0.003132 0.999995 -0.000012
vn 0.999987 -0.003132 -0.003928
usemtl wood.001
s off
f 55/47/54 56/48/54 51/49/54
f 56/47/55 57/48/55 52/49/55
f 57/47/56 58/48/56 53/49/56
f 58/47/57 55/48/57 54/49/57
f 51/47/58 52/48/58 54/49/58
f 58/47/59 57/48/59 55/49/59
f 56/48/54 52/50/54 51/49/54
f 57/48/55 53/50/55 52/49/55
f 58/48/56 54/50/56 53/49/56
f 55/48/60 51/50/60 54/49/60
f 52/48/58 53/50/58 54/49/58
f 57/48/59 56/50/59 55/49/59
o Cube.017
v 1.199219 -0.712775 1.611146
v 1.199219 -0.707114 -0.196588
v 1.422902 -0.707114 -0.196588
v 1.422902 -0.712775 1.611146
v 1.199219 -0.489092 1.611847
v 1.199219 -0.483431 -0.195888
v 1.422902 -0.483431 -0.195888
v 1.422902 -0.489092 1.611847
vt -0.023848 0.974956
vt 0.025044 -0.023848
vt 0.974956 1.023848
vt 1.023848 0.025044
vn -1.000000 0.000000 0.000000
vn 0.000000 0.003132 -0.999995
vn 1.000000 0.000000 0.000000
vn 0.000000 -0.003132 0.999995
vn 0.000000 -0.999995 -0.003132
vn 0.000000 0.999995 0.003132
usemtl wood.001
s off
f 63/51/61 64/52/61 59/53/61
f 64/51/62 65/52/62 60/53/62
f 65/51/63 66/52/63 61/53/63
f 66/51/64 63/52/64 62/53/64
f 59/51/65 60/52/65 62/53/65
f 66/51/66 65/52/66 63/53/66
f 64/52/61 60/54/61 59/53/61
f 65/52/62 61/54/62 60/53/62
f 66/52/63 62/54/63 61/53/63
f 63/52/64 59/54/64 62/53/64
f 60/52/65 61/54/65 62/53/65
f 65/52/66 64/54/66 63/53/66
o Cube.018
v 1.199219 0.528419 1.611146
v 1.199219 0.534080 -0.196588
v 1.422902 0.534080 -0.196588
v 1.422902 0.528419 1.611146
v 1.199219 0.752103 1.611847
v 1.199219 0.757764 -0.195888
v 1.422902 0.757764 -0.195888
v 1.422902 0.752103 1.611847
vt -0.023848 0.974956
vt 0.025044 -0.023848
vt 0.974956 1.023848
vt 1.023848 0.025044
vn -1.000000 0.000000 0.000000
vn 0.000000 0.003132 -0.999995
vn 1.000000 0.000000 0.000000
vn 0.000000 -0.003132 0.999995
vn 0.000000 -0.999995 -0.003132
vn 0.000000 0.999995 0.003132
usemtl wood.001
s off
f 71/55/67 72/56/67 67/57/67
f 72/55/68 73/56/68 68/57/68
f 73/55/69 74/56/69 69/57/69
f 74/55/70 71/56/70 70/57/70
f 67/55/71 68/56/71 70/57/71
f 74/55/72 73/56/72 71/57/72
f 72/56/67 68/58/67 67/57/67
f 73/56/68 69/58/68 68/57/68
f 74/56/69 70/58/69 69/57/69
f 71/56/70 67/58/70 70/57/70
f 68/56/71 69/58/71 70/57/71
f 73/56/72 72/58/72 71/57/72
o Cube.019
v 3.125444 -0.999331 1.508846
v 3.125444 -0.811045 1.508846
v 3.313730 -0.811045 1.508846
v 3.313730 -0.999331 1.508846
v 3.163806 -0.960969 1.803240
v 3.163806 -0.849407 1.803240
v 3.275368 -0.849407 1.803240
v 3.275368 -0.960969 1.803240
v 3.151767 -0.995559 1.537794
v 3.285088 -0.995539 1.537952
v 3.155360 -0.815424 1.542448
v 3.269351 -0.816127 1.547841
v 3.309378 -0.964741 1.542239
v 3.291295 -0.950988 1.681015
v 3.291220 -0.860701 1.681592
v 3.129065 -0.963110 1.536636
v 3.129008 -0.830050 1.536197
v 3.308328 -0.843173 1.550298
v 3.259881 -0.833130 1.678326
v 3.207908 -0.853571 1.802656
v 3.230687 -0.853571 1.802656
v 3.170856 -0.834103 1.685796
v 3.265632 -0.977015 1.680107
v 3.236974 -0.893357 2.035023
v 3.214195 -0.893357 2.035023
v 3.171204 -0.976853 1.681348
v 3.147640 -0.949956 1.679184
v 3.212460 -0.960969 1.803240
v 3.235239 -0.960969 1.803240
v 3.148006 -0.852153 1.681989
v 3.211885 -0.999331 1.508846
v 3.216904 -0.811045 1.508846
v 3.313730 -0.902166 1.508846
v 3.125444 -0.895472 1.508846
v 3.215762 -0.853909 1.508846
v 3.189299 -0.897744 1.508846
v 3.244327 -0.899700 1.508846
v 3.213297 -0.946370 1.508846
v 3.214569 -0.898643 1.596058
v 3.215762 -0.853909 1.596058
v 3.189299 -0.897744 1.596058
v 3.244327 -0.899700 1.596058
v 3.213297 -0.946370 1.596058
vn -0.991616 0.000000 0.129216
vn -0.991617 0.000000 0.129216
vn 0.000000 -0.991616 0.129216
vn 0.000000 -0.991617 0.129214
vn 0.000000 0.000000 -1.000000
vn 0.000000 0.000000 1.000000
vn 0.000000 0.991616 0.129217
vn 0.991617 0.000000 0.129215
vn 0.991617 0.000000 0.129214
vn 0.000000 0.991616 0.129216
vn 0.000000 -0.985655 -0.168770
vn 0.000000 0.959988 -0.280041
vn 0.856094 -0.516820 0.000000
vn -0.848450 -0.529275 0.000000
vn 0.896740 0.442558 0.000000
vn -0.832735 0.553671 0.000000
vn -0.000003 0.000000 -1.000000
vn 0.000010 0.000000 -1.000000
vn -0.991616 0.000000 0.129217
vn -0.991617 0.000000 0.129215
vn -0.991616 0.000007 0.129216
vn -0.991617 0.000027 0.129214
vn -0.991617 0.000000 0.129214
vn 0.000000 -0.991617 0.129213
vn 0.000000 -0.991616 0.129218
vn 0.000000 -0.991617 0.129215
vn -0.000002 -0.991617 0.129211
vn -0.000001 -0.991617 0.129216
vn 0.000003 0.000000 -1.000000
vn 0.000000 0.991617 0.129213
vn 0.000001 0.991617 0.129213
vn 0.991617 0.000005 0.129215
vn 0.991617 0.000031 0.129215
vn 0.991617 -0.000027 0.129215
vn 0.991617 0.000000 0.129213
vn 0.991617 -0.000022 0.129215
vn 0.991617 0.000000 0.129212
vn 0.991616 0.000034 0.129217
vn 0.000000 0.991616 0.129215
vn 0.000000 0.991617 0.129214
vn -0.000000 0.991617 0.129215
vn 0.000000 -0.985657 -0.168764
vn 0.000000 0.959991 -0.280031
vn 0.000011 0.000000 -1.000000
vn -0.000005 0.000000 -1.000000
vn 0.000004 0.000000 -1.000000
vn 0.856099 -0.516812 0.000000
vn -0.848449 -0.529276 0.000000
vn -0.832731 0.553678 0.000000
usemtl metal.001
s off
f 108//73 91//73 76//73
f 79//74 80//74 101//74
f 97//75 82//75 100//75
f 105//76 83//76 75//76
f 78//77 105//77 107//77
f 82//78 81//78 80//78
f 85//79 106//79 76//79
f 81//80 82//80 89//80
f 107//81 87//81 78//81
f 80//82 81//82 93//82
f 98//83 99//83 94//83
f 103//84 102//84 98//84
f 75//77 108//77 105//77
f 106//77 77//77 107//77
f 108//77 76//77 106//77
f 110//85 109//85 115//85
f 109//86 111//86 114//86
f 112//87 110//87 117//87
f 111//88 112//88 116//88
f 115//77 114//77 113//77
f 113//77 114//77 116//77
f 117//89 113//89 116//89
f 117//90 115//90 113//90
f 108//91 90//91 91//91
f 108//92 75//92 90//92
f 75//93 79//93 101//93
f 90//92 75//92 101//92
f 76//94 91//94 104//94
f 80//95 76//95 104//95
f 101//95 80//95 104//95
f 82//96 103//96 100//96
f 103//97 102//97 100//97
f 102//76 79//76 100//76
f 79//98 75//98 83//98
f 100//99 79//99 83//99
f 105//96 84//96 83//96
f 105//97 78//97 84//97
f 78//76 82//76 84//76
f 82//100 97//100 84//100
f 105//101 112//101 107//101
f 112//77 111//77 107//77
f 102//78 80//78 79//78
f 103//78 82//78 80//78
f 102//78 103//78 80//78
f 86//82 106//82 85//82
f 77//102 106//102 86//102
f 81//103 77//103 93//103
f 77//82 86//82 93//82
f 89//104 82//104 88//104
f 82//105 78//105 88//105
f 78//106 87//106 88//106
f 107//107 92//107 87//107
f 77//108 81//108 89//108
f 107//109 77//109 92//109
f 77//110 89//110 92//110
f 85//111 76//111 96//111
f 76//112 80//112 96//112
f 80//113 93//113 96//113
f 95//114 98//114 94//114
f 102//115 99//115 98//115
f 108//77 110//77 105//77
f 110//116 112//116 105//116
f 109//77 106//77 107//77
f 111//77 109//77 107//77
f 110//117 108//117 109//117
f 108//118 106//118 109//118
f 109//119 114//119 115//119
f 111//120 116//120 114//120
f 110//87 115//87 117//87
f 112//121 117//121 116//121
o Cube.020
v -1.884062 3.572867 -0.275896
v 1.820743 2.667460 -0.263769
v -0.829599 1.672479 3.275742
v 1.389281 1.567076 2.646768
v -4.735271 2.474573 -0.111557
v -4.020608 2.474573 2.416184
v 1.820743 1.026962 -0.263769
v 2.412287 1.005666 2.120816
v 2.090075 1.912379 2.123053
v 2.116842 1.203571 0.736724
v 1.902483 2.250176 0.623013
v -4.667451 2.500698 -0.115466
v -1.888678 3.253268 2.199426
vt 0.000081 0.235646
vt 0.999919 0.000081
vt 0.066880 0.654903
vt 0.914103 0.222837
vt 0.733142 0.210602
vt 0.999928 0.147226
vt 0.854649 0.377923
vt 0.676353 0.321319
vt 0.741236 0.474821
vt 0.906562 0.205802
vt 0.999925 0.342923
vt 0.999919 0.277894
vt 0.985368 0.468660
vt 0.641230 0.250661
vt 0.756674 0.000075
vt 0.624047 0.687569
vt 0.639506 0.129462
vt 0.999917 0.664512
vt 0.665268 0.503177
vt 0.724841 0.097776
vt 0.759397 0.000083
vn -0.011780 0.878750 0.477065
vn 0.661884 0.712890 0.231727
vn -0.019349 0.987457 0.156699
vn 0.743553 0.657704 0.120273
vn 0.973862 0.124810 -0.189775
vn 0.649201 0.725332 0.228978
vn 0.956491 0.275203 -0.096895
vn -0.350902 0.928786 0.119268
vn -0.292262 0.894405 0.338561
vn 0.146638 0.621965 0.769193
vn 0.231550 0.643654 0.729448
vn -0.342568 0.933326 0.107474
vn 0.958888 0.000000 -0.283785
usemtl rock.001
s 1
f 130/59/122 126/60/123 118/61/124
f 128/62/125 127/63/126 119/64/127
f 126/65/123 125/66/128 128/62/125
f 129/67/129 130/68/122 118/69/124
f 118/61/124 128/70/125 119/71/127
f 123/72/130 120/73/131 130/68/122
f 120/74/131 121/75/132 130/76/122
f 122/77/133 123/72/130 130/68/122
f 126/60/123 128/70/125 118/61/124
f 127/63/126 124/78/134 119/64/127
f 125/66/128 127/63/126 128/62/125
f 121/75/132 126/79/123 130/76/122
f 129/67/129 122/77/133 130/68/122
o Cube.021
v -0.970608 -1.467933 -1.367048
v -0.829599 1.672479 -1.392596
v 1.389281 1.567076 -2.021570
v 1.248065 -1.573305 -1.993486
v -4.735271 -2.378552 -4.779895
v -4.735271 2.474573 -4.779895
v -4.020608 -2.378552 -2.252154
v -4.020608 2.474573 -2.252154
v 1.820743 -1.004643 -4.932107
v 1.820743 1.026962 -4.932107
v 2.412287 -0.974339 -2.547517
v 2.412287 1.005666 -2.547522
v 1.656247 -0.019565 -1.546320
v 2.090075 1.912379 -2.545285
v 2.047926 -1.816358 -2.538939
v -1.884062 0.060155 -4.944233
v -1.886737 -0.957692 -3.508915
v -1.886710 1.125377 -3.524034
v -2.040553 0.078215 -3.685603
v 2.138813 -1.180485 -3.852983
v 2.412287 -0.000094 -2.303905
v 2.116842 1.203571 -3.931613
v -0.847909 0.180697 -0.942033
v -3.360740 0.110334 -1.604942
v -5.754025 -0.259339 -4.779895
v -5.056358 -0.084559 -3.014425
v 1.560228 1.132924 -4.113500
v 1.020599 -0.317325 -4.791613
v 1.146214 -0.767250 -2.982979
v 1.149260 -0.986991 -4.085980
v 1.445396 0.028508 -2.816790
v 1.274792 0.789085 -2.958455
v 1.171154 0.347550 -4.791613
v -1.885690 -1.020021 -4.216850
v -1.885341 0.931514 -4.458430
v 0.164850 -0.184505 -4.836826
v 0.233573 0.231325 -4.838125
vt 0.326234 0.067422
vt 0.639506 0.129462
vt 0.624047 0.687569
vt 0.641230 0.250661
vt 0.665268 0.503177
vt 0.302816 0.555751
vt 0.712322 0.043185
vt 0.924178 0.088828
vt 0.999939 0.376578
vt 0.344467 0.116182
vt 0.270323 0.093676
vt 0.273031 0.013294
vt 0.458282 0.116380
vt 0.415402 0.105403
vt 0.441778 0.007502
vt 0.233689 0.514095
vt 0.166393 0.381547
vt 0.334548 0.321256
vt 0.854649 0.377923
vt 0.787006 0.515489
vt 0.676353 0.321319
vt 0.233644 0.089383
vt 0.198895 0.051199
vt 0.202159 0.036297
vt 0.475310 0.017395
vt 0.313757 0.267210
vt 0.012359 0.113989
vt 0.000083 0.672125
vt 0.016553 0.555751
vt 0.000075 0.302609
vt 0.321676 0.187414
vt 0.313514 0.405014
vt 0.509220 0.154408
vt 0.469215 0.188505
vt 0.492380 0.079243
vt 0.278378 0.211671
vt 0.263252 0.084114
vt 0.379342 0.000072
vt 0.419787 0.220772
vt 0.341995 0.211895
vt 0.266102 0.218936
vt 0.390426 0.100292
vt 0.411909 0.013510
vt 0.486901 0.054786
vt 0.326762 0.687569
vt 0.680544 0.229702
vt 0.347071 0.015360
vt 0.509457 0.515494
vt 0.502793 0.364462
vt 0.231385 0.004803
vt 0.210079 0.000136
vt 0.245097 0.007806
vt 0.443553 0.153466
vt 0.458777 0.003694
vt 0.474657 0.000136
vn 0.504349 -0.022553 0.863186
vn 0.441622 0.274173 0.854283
vn 0.022335 0.296223 0.954858
vn -0.673751 0.228575 0.702718
vn -0.905806 0.337536 0.256096
vn -0.946339 -0.042206 0.320409
vn 0.009705 0.022675 0.999695
vn 0.358592 -0.018983 -0.933287
vn 0.231880 0.668752 -0.706351
vn 0.149781 0.647055 -0.747586
vn -0.001068 -0.921506 0.388287
vn 0.229743 -0.642598 -0.730888
vn 0.079816 -0.791796 -0.605548
vn 0.411597 -0.298114 0.861229
vn 0.506291 -0.210565 0.836261
vn 0.897416 0.342254 0.278400
vn 0.527925 0.185560 0.828772
vn 0.904578 -0.321025 0.280503
vn 0.043794 0.944121 0.326609
vn 0.205699 0.803982 0.557943
vn -0.001615 0.656590 0.754246
vn -0.015928 -0.259861 0.965515
vn -0.660355 -0.235372 0.713114
vn -0.873361 -0.419844 0.246923
vn -0.416089 0.001404 0.909299
vn -0.849239 0.003449 0.527940
vn 0.710965 -0.697796 -0.087236
vn 0.249907 -0.968066 0.019885
vn 0.206454 -0.754457 0.623034
vn 0.300014 0.953769 -0.017802
vn 0.643568 0.762587 -0.065429
vn 0.999725 -0.014801 -0.018006
vn 0.044661 -0.725007 0.687292
vn 0.241743 -0.006476 -0.970319
vn -0.001694 0.906244 0.422751
vn 0.023206 0.558382 0.829259
vn -0.184108 -0.836778 0.515662
vn -0.004403 -0.486956 0.873415
usemtl rock.001
s 1
f 143/80/135 133/81/136 132/82/137
f 138/83/138 136/84/139 155/85/140
f 153/86/141 132/87/137 138/88/138
f 161/89/142 159/90/143 147/91/144
f 157/92/145 162/93/146 148/94/147
f 134/95/148 145/96/149 141/97/150
f 144/98/151 133/99/136 142/100/152
f 160/101/153 158/102/154 166/103/155
f 131/104/156 153/86/141 137/105/157
f 134/106/148 143/80/135 131/107/156
f 135/108/158 137/109/157 155/85/140
f 154/110/159 138/83/138 156/111/160
f 137/109/157 154/110/159 156/111/160
f 140/112/161 152/113/162 163/114/163
f 150/115/164 139/116/165 158/117/154
f 152/113/162 142/118/152 157/92/145
f 142/118/152 151/119/166 162/93/146
f 151/119/166 141/120/150 159/90/143
f 141/97/150 150/115/164 160/121/153
f 162/93/146 161/89/142 148/122/147
f 159/90/143 160/101/153 147/91/144
f 163/114/163 157/92/145 167/123/167
f 153/124/141 143/80/135 132/82/137
f 156/111/160 138/83/138 155/85/140
f 154/125/159 153/86/141 138/88/138
f 149/126/168 161/89/142 147/91/144
f 143/127/135 134/95/148 151/128/166
f 134/95/148 141/97/150 151/128/166
f 133/99/136 143/127/135 151/128/166
f 142/100/152 133/99/136 151/128/166
f 164/129/169 166/103/155 146/130/170
f 147/131/144 160/101/153 164/129/169
f 160/101/153 166/103/155 164/129/169
f 153/86/141 154/125/159 137/105/157
f 143/80/135 153/124/141 131/107/156
f 137/109/157 156/111/160 155/85/140
f 152/113/162 157/92/145 163/114/163
f 160/121/153 150/115/164 158/117/154
f 142/118/152 162/93/146 157/92/145
f 151/119/166 161/89/142 162/93/146
f 161/89/142 151/119/166 159/90/143
f 159/132/143 141/97/150 160/121/153
f 161/89/142 149/126/168 148/122/147
f 157/92/145 148/94/147 167/123/167
f 148/94/147 165/133/171 167/123/167
f 165/133/171 146/134/172 167/123/167
o Plane.001
v 2.298370 -0.888364 2.084491
v 2.298370 -0.886886 2.029298
v 3.314595 -0.888364 2.084491
v 3.166773 -0.888364 2.084491
v 3.144480 -0.886905 2.029994
v 3.198056 -0.884392 1.936127
v 3.266643 -0.884562 1.942506
v 3.242156 -0.885993 1.995923
v 3.211424 -0.886008 1.996486
vn 0.000000 -0.999642 -0.026765
vn 0.000001 -0.999642 -0.026763
vn -0.000001 -0.999642 -0.026759
vn 0.000001 -0.999642 -0.026762
vn 0.000000 -0.999642 -0.026762
vn -0.000000 -0.999642 -0.026764
usemtl metal.001
s off
f 172//173 173//173 174//173
f 175//174 174//174 170//174
f 176//175 174//175 175//175
f 172//176 174//176 176//176
f 172//177 176//177 171//177
f 169//178 172//178 171//178
f 168//177 169//177 171//177
