# Blender v2.65 (sub 0) OBJ File: 'fish.blend'
# www.blender.org
mtllib fish_000106.mtl
o Sphere
v -1.451055 -1.817022 1.618893
v 1.770688 -1.463963 1.098421
v 3.866816 -1.655134 0.277157
v 4.248798 -1.182857 -0.254523
v 3.117319 -0.638820 -0.202871
v 3.792072 -0.740315 -0.408452
v 1.800766 0.394843 -0.442225
v 1.504991 -1.221213 0.881975
v 2.702130 -1.639028 0.480351
v 3.541066 -1.726227 0.078834
v 3.896209 -1.259807 -0.469185
v 2.791569 -0.709914 -0.401193
v 3.542753 -0.794728 -0.560241
v 1.663634 0.379762 -0.521692
v 1.169920 -1.169893 0.827663
v 2.060658 -1.490861 0.408213
v 2.634193 -1.831232 -0.362018
v 2.946646 -1.330389 -0.372011
v 2.774831 -0.871001 -0.599915
v 2.201987 -0.255342 -0.670664
v 1.302893 0.486682 -0.543520
v 0.682019 -1.098429 0.792141
v 1.130043 -1.202890 0.410162
v 1.458730 -1.163574 -0.003789
v 1.609238 -0.894584 -0.350302
v 1.535213 -0.471655 -0.579379
v 1.250284 0.082323 -0.642310
v 0.771636 0.629676 -0.534457
v -0.014218 -1.118550 0.746039
v -0.011241 -1.066982 0.371236
v -0.009214 -0.857801 -0.002451
v -0.008556 -0.522643 -0.317999
v -0.010053 -0.107841 -0.525501
v -0.008756 0.322348 -0.595703
v 0.002043 0.694145 -0.530792
v -1.089477 -1.010526 1.055632
v -1.161808 -1.110615 0.756414
v -2.131693 -1.052494 0.390233
v -2.782076 -0.619344 0.132592
v -3.009824 -0.367163 -0.099757
v -2.782042 -0.063877 -0.259301
v -2.131610 0.323550 -0.580650
v -1.151724 0.714261 -0.516917
v -2.135231 -1.075344 0.805644
v -3.925633 -0.610469 0.216421
v -3.540625 -0.302670 0.090836
v -3.946039 -0.286632 0.014434
v -3.540643 -0.198329 0.020875
v -3.917820 0.215630 -0.364920
v -2.135123 0.722577 -0.462906
v -2.786121 -0.778196 0.734182
v -3.546818 -0.234176 0.288168
v -6.478129 -1.215290 -0.500972
v -6.021632 -0.946292 -0.490264
v -6.494747 -0.930887 -0.705886
v -5.078787 -0.381641 -0.247039
v -2.793025 0.584904 -0.194468
v -3.016278 -0.700168 0.839998
v -5.503089 -0.727185 0.046109
v -7.703570 -2.288894 0.008577
v -6.652380 -0.959293 -0.385796
v -7.815794 -0.368243 -1.375267
v -5.520545 -0.418158 -0.194812
v -3.023901 0.649133 -0.099585
v -2.790628 -0.628531 0.942745
v -5.135499 -0.411020 0.381437
v -6.581533 -0.885125 -0.022549
v -6.133674 -0.583405 0.031951
v -6.598150 -0.600721 -0.227464
v -3.552903 0.137005 0.411077
v -2.796797 0.719833 0.002407
v -2.140213 -0.809376 1.182648
v -3.955355 -0.122977 0.909786
v -3.562998 0.125450 0.697613
v -3.995812 0.170577 0.666198
v -3.560776 0.223658 0.622799
v -3.947583 0.703861 0.329031
v -2.132664 0.975685 -0.159469
v -1.169484 -0.766459 1.235317
v -2.144311 -0.413888 1.286001
v -2.793126 -0.030265 0.967543
v -3.021785 0.270452 0.803987
v -2.793092 0.525203 0.575650
v -2.138441 0.942077 0.233898
v -1.140985 1.054189 -0.114240
v -0.031590 -0.729784 1.264070
v -0.062401 -0.383681 1.281465
v -0.142774 0.006654 1.055325
v -0.149188 0.407120 0.792087
v -0.102783 0.745915 0.490903
v -0.021234 0.994512 0.256830
v 0.010753 1.066647 -0.050233
v 0.697642 -0.745064 1.275289
v 1.220066 -0.521400 1.305722
v 1.610075 -0.257408 1.162911
v 1.770214 0.082243 0.923854
v 1.671306 0.461486 0.629514
v 1.347641 0.776311 0.266406
v 0.813900 0.985247 -0.057439
v 0.011394 0.957505 -0.334226
v 1.198140 -0.889507 1.202542
v 2.161895 -0.974624 1.068431
v 2.892234 -0.621255 1.176614
v 3.102376 -0.600156 0.556569
v 2.918706 -0.196354 0.257981
v 2.306838 0.281535 0.009488
v 1.348122 0.767524 -0.167805
v 1.526486 -1.073164 1.077782
v 2.764652 -1.323674 0.847305
v 3.618930 -1.361110 0.543124
v 3.980488 -0.864608 0.033359
v 2.869432 -0.344797 0.063097
v 3.602349 -0.515279 -0.204889
v 1.689523 0.551217 -0.307250
v -0.604741 -0.449580 -0.786022
v -0.728553 -0.025828 -0.975910
v -2.341905 -0.397318 -0.964678
v -2.343023 0.381261 -1.394086
v -2.443197 0.764025 -0.179250
v -2.366112 1.432842 -0.745408
v -0.773502 0.785562 0.591521
v -0.845482 1.091647 0.205843
v -2.393625 -2.428825 0.794442
v -1.090339 -2.264751 -0.403669
v 0.009440 -1.596684 -1.598176
v 0.011700 -0.525853 -2.607120
v -2.595815 -1.497926 1.367927
v -1.421788 -0.195864 2.083754
v -0.498951 1.221980 2.111474
v -0.434705 2.530788 1.446686
v -0.492072 -2.132814 0.909010
v 0.884033 -2.159156 -0.139751
v 1.858805 -1.947042 -1.328828
v 2.292943 -1.150400 -2.345984
v -0.502089 -1.060661 2.276395
v 0.939204 -0.160231 2.517394
v 2.078688 0.827315 2.296206
v 2.578762 1.863724 1.599805
v -3.227492 -1.289847 -0.814120
v -2.541219 -0.376027 -1.294781
v -3.263539 0.631373 1.908788
v -2.574497 1.398929 1.220817
v 0.334127 -1.919858 1.954078
v 2.432981 -1.930821 1.195970
v -7.255311 -1.269752 -1.563043
v -10.854065 -4.422608 -0.066652
v -7.558976 -0.300153 -0.158058
v -7.831495 -2.492709 1.536023
v -6.805647 0.557269 0.318791
v -6.391431 -0.956006 -1.629292
v -7.535766 -3.417701 -0.119613
vt 0.000000 0.000000
vt 1.000000 0.000000
vt 1.000000 1.000000
vt 0.000000 1.000000
vn 0.995239 -0.060976 -0.075655
vn 0.945708 0.031587 -0.323405
vn 0.408826 -0.120426 -0.904599
vn 0.163366 -0.261849 -0.951170
vn 0.354259 0.703879 -0.615619
vn 0.949797 -0.298868 -0.092257
vn 0.430525 -0.538163 -0.724570
vn 0.248146 0.615040 -0.748405
vn 0.077944 0.093234 -0.992584
vn 0.203650 0.662374 -0.720939
vn -0.021119 -0.309580 -0.950621
vn -0.012696 0.042024 -0.999023
vn 0.115116 0.549425 -0.827540
vn -0.036775 -0.280221 -0.959197
vn -0.031037 -0.037233 -0.998810
vn 0.011353 0.403546 -0.914853
vn -0.015168 0.465255 -0.885006
vn -0.429182 -0.390454 -0.814417
vn -0.542253 -0.762596 -0.352641
vn -0.910092 -0.386090 0.150395
vn -0.014801 -0.827448 -0.561296
vn -0.082614 -0.083224 -0.993072
vn -0.026154 0.456954 -0.889096
vn -0.324259 -0.322855 -0.889126
vn -0.457717 -0.355235 -0.814997
vn -0.261849 0.623280 -0.736839
vn -0.162481 0.854030 -0.494186
vn -0.095462 -0.276131 -0.956359
vn 0.283395 -0.573382 -0.768670
vn 0.030366 0.207770 -0.977691
vn -0.254128 0.892941 -0.371532
vn 0.110904 -0.634114 -0.765221
vn 0.073397 0.860073 -0.504837
vn -0.335246 0.892880 -0.300607
vn -0.509720 0.826533 -0.238685
vn -0.314676 0.543229 -0.778344
vn -0.480941 0.829646 -0.283456
vn -0.182897 0.570849 -0.800378
vn -0.591845 0.534196 0.603565
vn -0.231635 0.874508 0.426099
vn -0.075961 0.891232 0.447096
vn -0.038606 0.982513 -0.181982
vn 0.172124 0.527146 0.832118
vn -0.358531 0.582995 0.729057
vn 0.116886 0.407575 0.905637
vn 0.043855 0.867000 0.496323
vn 0.055940 0.997772 -0.035707
vn 0.590228 0.751488 -0.294748
vn 0.264687 0.360546 0.894375
vn 0.307627 0.891934 0.331339
vn 0.205603 0.965972 -0.156774
vn 0.332835 0.773431 0.539415
vn 0.590533 0.495651 0.636830
vn -0.146977 0.459334 0.876003
vn -0.994751 -0.100284 -0.019715
vn 0.517808 0.853511 0.058168
vn 0.338450 0.870418 -0.357402
vn 0.558336 0.710074 0.428938
vn 0.814936 0.339946 0.469344
vn 0.361278 0.810907 -0.460280
vn 0.629963 0.696371 0.343730
vn 0.047212 0.798517 -0.600085
vn 0.735405 0.668691 0.109348
vn -0.674947 0.630085 -0.383953
vn -0.566332 0.064760 -0.821589
vn 0.096530 0.985687 -0.138066
vn 0.267861 0.358196 -0.894375
vn 0.830042 -0.450423 0.328776
vn -0.830042 0.450392 -0.328806
vn 0.276406 -0.054598 0.959471
vn -0.828333 -0.418134 0.372814
vn -0.203009 -0.943052 -0.263436
vn -0.045686 -0.970367 0.237220
vn 0.663808 -0.620716 0.417127
vn 0.181188 -0.962493 -0.201849
vn -0.171392 -0.844722 -0.506974
vn 0.020386 -0.364269 -0.931059
vn -0.285318 -0.950530 0.122654
vn -0.176977 -0.980682 -0.083163
vn -0.549242 -0.717368 -0.428571
vn -0.626423 -0.451216 -0.635578
vn -0.299387 -0.857662 -0.418012
vn -0.520981 -0.657063 -0.544786
vn -0.554735 -0.520676 -0.648946
vn -0.197363 -0.977630 0.072573
vn -0.114689 -0.910031 -0.398328
vn -0.095096 -0.643147 -0.759789
vn -0.020844 -0.995117 0.096438
vn -0.367260 -0.920804 0.131138
vn -0.119480 -0.820948 -0.558306
vn -0.243690 -0.779900 0.576464
vn -0.196417 -0.482040 -0.853816
vn 0.239265 -0.578875 -0.779473
vn -0.104099 -0.993774 0.039644
vn -0.326151 -0.738517 0.590045
vn 0.217414 -0.742912 0.633076
vn -0.914640 -0.353038 0.196783
vn -0.121769 -0.949858 0.287973
vn -0.433607 0.270486 0.859523
vn -0.725639 0.402844 0.557756
vn -0.240211 -0.614856 0.751122
vn -0.455061 0.535325 0.711539
vn -0.209113 0.394696 0.894681
vn -0.410321 0.257942 0.874660
vn -0.238807 -0.790674 0.563707
vn -0.103580 0.161565 0.981384
vn -0.076205 0.531022 0.843898
vn -0.018952 -0.370067 0.928800
vn 0.169286 0.014100 0.985443
vn 0.310526 0.377514 0.872372
vn 0.045564 -0.372509 0.926878
vn 0.290811 -0.281838 0.914304
vn 0.483902 0.067995 0.872463
vn 0.127812 -0.504929 0.853603
vn 0.099948 -0.309671 0.945555
vn 0.406415 0.240486 0.881436
vn 0.040010 -0.431166 0.901364
vn 0.586596 0.667531 0.458541
vn 0.568590 -0.103366 0.816095
vn 0.227760 -0.443861 0.866634
vn 0.108737 -0.162938 0.980590
vn -0.059603 -0.805170 0.590014
vn -0.967711 0.240547 -0.074862
vn -0.619312 0.739708 -0.263131
vn 0.907437 -0.023164 0.419507
vn 0.422926 -0.422376 0.801691
vn -0.512497 0.798334 -0.316172
vn 0.264412 -0.539109 0.799615
vn -0.898587 0.200537 -0.390210
vn -0.625813 0.500900 -0.597827
vn -0.506912 0.512406 -0.693136
vn 0.837916 -0.525163 0.148473
vn 0.543779 -0.766717 0.341227
vn 0.439314 -0.842647 0.311289
vn 0.308542 0.593097 0.743645
vn -0.970794 -0.159886 -0.178747
vn -0.575915 0.466750 -0.671133
vn 0.974639 0.080355 0.208747
vn -0.999939 -0.006226 -0.008820
vn 0.907498 -0.419324 0.023652
vn -0.938536 0.087771 -0.333781
vn -0.084140 0.089267 0.992431
vn 0.465743 -0.706504 0.532823
vn 0.531175 -0.771966 -0.349101
vn -0.872127 0.315867 -0.373638
vn -0.849361 0.337626 -0.405683
usemtl Material
s 1
f 5/1/1 4/2/2 11/3/3
f 5/1/1 11/3/3 12/4/4
f 7/1/5 6/2/6 13/3/7
f 7/1/5 13/3/7 14/4/8
f 6/1/6 5/2/1 12/3/4
f 6/1/6 12/3/4 13/4/7
f 14/1/8 13/2/7 20/3/9
f 14/1/8 20/3/9 21/4/10
f 13/1/7 12/2/4 19/3/11
f 13/1/7 19/3/11 20/4/9
f 21/1/10 20/2/9 27/3/12
f 21/1/10 27/3/12 28/4/13
f 20/1/9 19/2/11 26/3/14
f 20/1/9 26/3/14 27/4/12
f 28/1/13 27/2/12 34/3/15
f 28/1/13 34/3/15 35/4/16
f 27/1/12 26/2/14 33/3/17
f 27/1/12 33/3/17 34/4/15
f 25/1/18 32/2/19 117/3/20
f 25/1/18 117/3/20 115/4/21
f 35/1/16 34/2/15 42/3/22
f 35/1/16 42/3/22 43/4/23
f 34/1/15 33/2/17 41/3/24
f 34/1/15 41/3/24 42/4/22
f 33/1/17 32/2/19 40/3/25
f 33/1/17 40/3/25 41/4/24
f 43/1/23 42/2/22 49/3/26
f 43/1/23 49/3/26 50/4/27
f 42/1/22 41/2/24 48/3/28
f 42/1/22 48/3/28 49/4/26
f 41/1/24 40/2/25 47/3/29
f 41/1/24 47/3/29 48/4/28
f 50/1/27 49/2/26 56/3/30
f 50/1/27 56/3/30 57/4/31
f 49/1/26 48/2/28 55/3/32
f 49/1/26 55/3/32 56/4/30
f 57/1/31 56/2/30 63/3/33
f 57/1/31 63/3/33 64/4/34
f 64/1/34 63/2/33 70/3/35
f 64/1/34 70/3/35 71/4/36
f 71/1/36 70/2/35 77/3/37
f 71/1/36 77/3/37 78/4/38
f 70/1/35 69/2/39 76/3/40
f 70/1/35 76/3/40 77/4/37
f 78/1/38 77/2/37 84/3/41
f 78/1/38 84/3/41 85/4/42
f 77/1/37 76/2/40 83/3/43
f 77/1/37 83/3/43 84/4/41
f 76/1/40 75/2/44 82/3/45
f 76/1/40 82/3/45 83/4/43
f 85/1/42 84/2/41 91/3/46
f 85/1/42 91/3/46 92/4/47
f 84/1/41 83/2/43 90/3/48
f 84/1/41 90/3/48 91/4/46
f 83/1/43 82/2/45 89/3/49
f 83/1/43 89/3/49 90/4/48
f 92/1/47 91/2/46 98/3/50
f 92/1/47 98/3/50 99/4/51
f 91/1/46 90/2/48 97/3/52
f 91/1/46 97/3/52 98/4/50
f 89/1/49 96/2/53 121/3/54
f 89/1/49 121/3/54 119/4/55
f 99/1/51 98/2/50 106/3/56
f 99/1/51 106/3/56 107/4/57
f 98/1/50 97/2/52 105/3/58
f 98/1/50 105/3/58 106/4/56
f 107/1/57 106/2/56 113/3/59
f 107/1/57 113/3/59 114/4/60
f 106/1/56 105/2/58 112/3/61
f 106/1/56 112/3/61 113/4/59
f 100/1/62 7/2/5 14/3/8
f 100/1/62 14/2/8 21/3/10
f 100/1/62 21/2/10 28/3/13
f 100/1/62 28/2/13 35/3/16
f 100/1/62 35/2/16 43/3/23
f 100/1/62 43/2/23 50/3/27
f 100/1/62 50/2/27 57/3/31
f 100/1/62 57/2/31 64/3/34
f 100/1/62 64/2/34 71/3/36
f 100/1/62 71/2/36 78/3/38
f 100/1/62 78/2/38 85/3/42
f 100/1/62 85/2/42 92/3/47
f 100/1/62 92/2/47 99/3/51
f 100/1/62 99/2/51 107/3/57
f 100/1/62 107/2/57 114/3/60
f 114/1/60 113/2/59 6/3/6
f 114/1/60 6/3/6 7/4/5
f 113/1/59 112/2/61 5/3/1
f 113/1/59 5/3/1 6/4/6
f 112/1/61 111/2/63 4/3/2
f 112/1/61 4/3/2 5/4/1
f 100/1/62 114/2/60 7/3/5
f 32/1/19 33/2/17 118/3/64
f 32/1/19 118/3/64 117/4/20
f 90/1/48 89/2/49 119/3/55
f 90/1/48 119/3/55 120/4/65
f 97/1/52 90/2/48 120/3/65
f 97/1/52 120/3/65 122/4/66
f 33/1/17 26/2/14 116/3/67
f 33/1/17 116/3/67 118/4/64
f 82/1/45 83/2/43 142/3/68
f 82/1/45 142/3/68 141/4/68
f 40/1/25 41/2/24 140/3/69
f 40/1/25 140/3/69 139/4/69
usemtl Material.001
f 2/1/70 1/2/71 8/3/72
f 2/1/70 8/3/72 9/4/73
f 4/1/2 3/2/74 10/3/75
f 4/1/2 10/3/75 11/4/3
f 3/1/74 2/2/70 9/3/73
f 3/1/74 9/3/73 10/4/75
f 11/1/3 10/2/75 17/3/76
f 11/1/3 17/3/76 18/4/77
f 10/1/75 9/2/73 16/3/78
f 10/1/75 16/3/78 17/4/76
f 9/1/73 8/2/72 15/3/79
f 9/1/73 15/3/79 16/4/78
f 17/1/76 16/2/78 23/3/80
f 17/1/76 23/3/80 24/4/81
f 16/1/78 15/2/79 22/3/82
f 16/1/78 22/3/82 23/4/80
f 24/1/81 23/2/80 30/3/83
f 24/1/81 30/3/83 31/4/84
f 23/1/80 22/2/82 29/3/85
f 23/1/80 29/3/85 30/4/83
f 31/1/84 30/2/83 38/3/86
f 31/1/84 38/3/86 39/4/87
f 30/1/83 29/2/85 37/3/88
f 30/1/83 37/3/88 38/4/86
f 39/1/87 38/2/86 45/3/89
f 39/1/87 45/3/89 46/4/90
f 38/1/86 37/2/88 44/3/91
f 38/1/86 44/3/91 45/4/89
f 47/1/29 46/2/90 53/3/92
f 47/1/29 53/3/92 54/4/93
f 46/1/90 45/2/89 52/3/94
f 46/1/90 52/3/94 53/4/92
f 45/1/89 44/2/91 51/3/95
f 45/1/89 51/3/95 52/4/94
f 53/1/92 52/2/94 59/3/96
f 53/1/92 59/3/96 60/4/97
f 52/1/94 51/2/95 58/3/98
f 52/1/94 58/3/98 59/4/96
f 60/1/97 59/2/96 66/3/99
f 60/1/97 66/3/99 67/4/100
f 59/1/96 58/2/98 65/3/101
f 59/1/96 65/3/101 66/4/99
f 68/1/102 67/2/100 74/3/103
f 68/1/102 74/3/103 75/4/44
f 67/1/100 66/2/99 73/3/104
f 67/1/100 73/3/104 74/4/103
f 66/1/99 65/2/101 72/3/105
f 66/1/99 72/3/105 73/4/104
f 74/1/103 73/2/104 80/3/106
f 74/1/103 80/3/106 81/4/107
f 73/1/104 72/2/105 79/3/108
f 73/1/104 79/3/108 80/4/106
f 81/1/107 80/2/106 87/3/109
f 81/1/107 87/3/109 88/4/110
f 80/1/106 79/2/108 86/3/111
f 80/1/106 86/3/111 87/4/109
f 88/1/110 87/2/109 94/3/112
f 88/1/110 94/3/112 95/4/113
f 87/1/109 86/2/111 93/3/114
f 87/1/109 93/3/114 94/4/112
f 95/1/113 94/2/112 102/3/115
f 95/1/113 102/3/115 103/4/116
f 94/1/112 93/2/114 101/3/117
f 94/1/112 101/3/117 102/4/115
f 104/1/118 103/2/116 110/3/119
f 104/1/118 110/3/119 111/4/63
f 103/1/116 102/2/115 109/3/120
f 103/1/116 109/3/120 110/4/119
f 102/1/115 101/2/117 108/3/121
f 102/1/115 108/3/121 109/4/120
f 1/1/71 36/2/122 8/3/72
f 8/1/72 36/2/122 15/3/79
f 15/1/79 36/2/122 22/3/82
f 22/1/82 36/2/122 29/3/85
f 29/1/85 36/2/122 37/3/88
f 37/1/88 36/2/122 44/3/91
f 44/1/91 36/2/122 51/3/95
f 51/1/95 36/2/122 58/3/98
f 58/1/98 36/2/122 65/3/101
f 65/1/101 36/2/122 72/3/105
f 72/1/105 36/2/122 79/3/108
f 79/1/108 36/2/122 86/3/111
f 86/1/111 36/2/122 93/3/114
f 93/1/114 36/2/122 101/3/117
f 101/1/117 36/2/122 108/3/121
f 36/2/122 1/3/71 108/1/121
f 111/1/63 110/2/119 3/3/74
f 111/1/63 3/3/74 4/4/2
f 110/1/119 109/2/120 2/3/70
f 110/1/119 2/3/70 3/4/74
f 1/3/71 2/4/70 109/1/120
f 1/3/71 109/1/120 108/2/121
f 30/1/83 31/2/84 125/3/123
f 30/1/83 125/3/123 124/4/124
f 87/1/109 88/2/110 129/3/125
f 87/1/109 129/3/125 128/4/126
f 29/1/85 30/2/83 124/3/124
f 29/1/85 124/3/124 123/4/127
f 86/1/111 87/2/109 128/3/126
f 86/1/111 128/3/126 127/4/128
f 23/1/80 24/2/81 133/3/129
f 23/1/80 133/3/129 132/4/130
f 22/1/82 23/2/80 132/3/130
f 22/1/82 132/3/130 131/4/131
f 94/1/112 95/2/113 137/3/132
f 94/1/112 137/3/132 136/4/133
f 93/1/114 94/2/112 136/3/133
f 93/1/114 136/3/133 135/4/134
f 3/1/74 2/2/70 143/3/135
f 3/1/74 143/3/135 144/4/135
usemtl Material.002
f 12/1/4 11/2/3 18/3/77
f 12/1/4 18/3/77 19/4/11
f 18/1/77 17/2/76 24/3/81
f 18/1/77 24/3/81 25/4/18
f 19/1/11 18/2/77 25/3/18
f 19/1/11 25/3/18 26/4/14
f 25/1/18 24/2/81 31/3/84
f 25/1/18 31/3/84 32/4/19
f 32/1/19 31/2/84 39/3/87
f 32/1/19 39/3/87 40/4/25
f 40/1/25 39/2/87 46/3/90
f 40/1/25 46/3/90 47/4/29
f 48/1/28 47/2/29 54/3/93
f 48/1/28 54/3/93 55/4/32
f 54/1/93 53/2/92 60/3/97
f 54/1/93 60/3/97 61/4/136
f 56/1/30 55/2/32 62/3/137
f 56/1/30 62/3/137 63/4/33
f 55/1/32 54/2/93 61/3/136
f 55/1/32 61/3/136 62/4/137
f 61/1/136 60/2/97 67/3/100
f 61/1/136 67/3/100 68/4/102
f 63/1/33 62/2/137 69/3/39
f 63/1/33 69/3/39 70/4/35
f 62/1/137 61/2/136 68/3/102
f 62/1/137 68/3/102 69/4/39
f 69/1/39 68/2/102 75/3/44
f 69/1/39 75/3/44 76/4/40
f 75/1/44 74/2/103 81/3/107
f 75/1/44 81/3/107 82/4/45
f 82/1/45 81/2/107 88/3/110
f 82/1/45 88/3/110 89/4/49
f 89/1/49 88/2/110 95/3/113
f 89/1/49 95/3/113 96/4/53
f 96/1/53 95/2/113 103/3/116
f 96/1/53 103/3/116 104/4/118
f 97/1/52 96/2/53 104/3/118
f 97/1/52 104/3/118 105/4/58
f 105/1/58 104/2/118 111/3/63
f 105/1/58 111/3/63 112/4/61
f 116/1/67 115/2/21 117/3/20
f 116/1/67 117/3/20 118/4/64
f 120/1/65 119/2/55 121/3/54
f 120/1/65 121/3/54 122/4/66
f 26/1/14 25/2/18 115/3/21
f 26/1/14 115/3/21 116/4/67
f 96/1/53 97/2/52 122/3/66
f 96/1/53 122/3/66 121/4/54
f 88/1/110 89/2/49 130/3/138
f 88/1/110 130/3/138 129/4/125
f 31/1/84 32/2/19 126/3/139
f 31/1/84 126/3/139 125/4/123
f 95/1/113 96/2/53 138/3/140
f 95/1/113 138/3/140 137/4/132
f 24/1/81 25/2/18 134/3/141
f 24/1/81 134/3/141 133/4/129
f 60/1/97 67/2/100 147/3/142
f 60/1/97 147/3/142 146/4/143
f 53/1/92 60/2/97 146/3/143
f 53/1/92 146/3/143 145/4/144
f 67/1/100 60/2/97 148/3/145
f 67/1/100 148/3/145 149/4/145
f 60/1/97 53/2/92 150/3/146
f 60/1/97 150/3/146 151/4/146
