# Blender v2.65 (sub 0) OBJ File: 'fish.blend'
# www.blender.org
mtllib fish_000109.mtl
o Sphere
v -1.450824 -2.226960 0.742718
v 1.883553 -1.430078 0.629540
v 3.998902 -0.605422 0.467208
v 4.326543 0.156398 0.334140
v 3.145736 0.312311 0.317387
v 3.825776 0.496148 0.280229
v 1.730108 0.980138 0.220699
v 1.592332 -1.200621 0.466987
v 2.855772 -0.998053 0.310895
v 3.703372 -0.649600 0.171426
v 4.006664 0.108581 0.013988
v 2.850206 0.268133 0.021606
v 3.599587 0.462336 0.053848
v 1.608045 0.962597 0.093648
v 1.244398 -1.211139 0.363374
v 2.210750 -1.014855 0.121860
v 2.861279 -0.748254 -0.512279
v 3.090904 -0.237385 -0.199764
v 2.867809 0.224630 -0.230363
v 2.224595 0.642037 -0.163775
v 1.257524 0.954684 -0.004403
v 0.724021 -1.215491 0.292386
v 1.245714 -1.014390 -0.002715
v 1.597594 -0.672036 -0.238232
v 1.724260 -0.235517 -0.374501
v 1.604884 0.226053 -0.391878
v 1.257288 0.644847 -0.286045
v 0.734669 0.953255 -0.071517
v -0.014153 -1.219217 0.259638
v -0.011161 -1.010289 -0.055768
v -0.009134 -0.659813 -0.301852
v -0.008394 -0.221200 -0.441176
v -0.009177 0.239307 -0.452210
v -0.010863 0.651563 -0.333467
v -0.006790 0.952087 -0.118228
v -1.089434 -1.255876 0.585168
v -1.161741 -1.216317 0.272122
v -2.131614 -1.004944 -0.032820
v -2.782023 -0.502770 -0.077223
v -3.009781 -0.174725 -0.177247
v -2.782020 0.167699 -0.189453
v -2.131608 0.656006 -0.310925
v -1.157095 0.955553 -0.108434
v -2.135170 -1.205677 0.331601
v -3.929934 -0.531285 0.001168
v -3.544055 -0.206258 0.007738
v -3.964362 -0.150954 -0.038591
v -3.544039 -0.083159 -0.012647
v -3.929357 0.464663 -0.165558
v -2.135161 0.964506 -0.031779
v -2.786140 -0.912653 0.383910
v -3.546807 -0.223013 0.229912
v -6.614897 -0.329550 -0.012647
v -6.137987 -0.169374 -0.045714
v -6.616127 0.017104 -0.070707
v -5.131898 0.057420 0.055717
v -2.786479 0.706931 0.114840
v -3.015709 -0.891985 0.505241
v -5.557232 -0.302490 0.331642
v -7.885969 -1.310657 0.406823
v -6.741609 -0.123961 0.253652
v -7.894276 1.030393 0.014729
v -5.558616 0.088397 0.265065
v -3.016202 0.727050 0.235061
v -2.788951 -0.871183 0.630692
v -5.140486 -0.256311 0.579330
v -6.628654 -0.230129 0.581634
v -6.152846 -0.061536 0.597993
v -6.629885 0.116526 0.523574
v -3.550321 0.055294 0.495781
v -2.789346 0.747797 0.360371
v -2.140193 -1.129503 0.786646
v -3.940753 -0.390568 0.841909
v -3.553198 -0.083551 0.740419
v -3.976166 -0.018230 0.754251
v -3.553063 0.039286 0.719494
v -3.940173 0.605411 0.675245
v -2.127365 1.039202 0.311203
v -1.168191 -1.117114 0.847018
v -2.143301 -0.821370 1.045097
v -2.793165 -0.334064 0.930594
v -3.021842 0.007882 0.913606
v -2.793162 0.336405 0.818364
v -2.135646 0.837755 0.650245
v -1.155117 1.054077 0.354785
v -0.029215 -1.111063 0.871915
v -0.065242 -0.812811 1.020226
v -0.171609 -0.405025 0.907429
v -0.205444 0.054043 0.815156
v -0.168760 0.493440 0.699542
v -0.066688 0.848287 0.665670
v -0.023432 1.059438 0.453114
v 0.709086 -1.115127 0.888770
v 1.215170 -0.826326 1.127772
v 1.565084 -0.424989 1.242305
v 1.681489 0.031654 1.247088
v 1.551849 0.474680 1.133843
v 1.227011 0.833581 0.856885
v 0.720329 1.053993 0.526026
v -0.009229 1.095525 0.166016
v 1.234367 -1.133469 0.832174
v 2.207634 -0.871101 0.962363
v 2.855120 -0.411106 1.457049
v 3.087186 -0.033913 0.988746
v 2.864374 0.412614 0.867676
v 2.215549 0.787204 0.700719
v 1.248413 1.032548 0.472627
v 1.590845 -1.158820 0.713509
v 2.854471 -0.917914 0.767097
v 3.701513 -0.547864 0.765681
v 4.004651 0.218699 0.657205
v 2.848346 0.369870 0.615860
v 3.598164 0.540201 0.508670
v 1.603234 1.005914 0.359810
v -0.604676 0.047800 -0.831085
v -0.728524 0.512012 -0.818537
v -2.341840 0.172637 -0.969579
v -2.343021 1.060402 -1.019073
v -2.445170 0.566665 -0.338220
v -2.386454 1.422842 -0.546355
v -0.835780 0.426047 0.680360
v -0.909510 0.859496 0.447430
v -2.393443 -2.420491 -0.264925
v -1.090117 -1.753590 -1.273378
v 0.009648 -0.634029 -2.060146
v 0.011829 0.768292 -2.505234
v -2.514791 -2.102682 0.161886
v -1.462735 -1.133859 1.549449
v -0.689616 0.185532 2.266128
v -0.688559 1.656420 2.230750
v -0.437699 -2.270559 -0.133558
v 1.104425 -1.658856 -0.993753
v 2.142570 -0.642829 -1.684858
v 2.515441 0.644911 -2.086670
v -0.496380 -1.974625 1.494546
v 0.839189 -1.106379 2.310082
v 1.844015 0.090746 2.839559
v 2.230267 1.439517 2.840001
v -3.227335 -0.696361 -1.221066
v -2.541125 0.335338 -1.257838
v -3.263681 -0.145977 2.065602
v -2.574675 0.843854 1.778642
v 0.481125 -2.539552 0.840381
v 2.595409 -1.704125 0.685178
v -7.478557 0.218768 -0.712568
v -11.211316 -2.662451 0.519291
v -7.518957 0.510740 1.032658
v -7.887227 -2.146744 1.716239
v -6.637032 0.940321 1.554982
v -6.608265 0.386184 -0.932351
v -7.873332 -2.286844 -0.229507
vt 0.000000 0.000000
vt 1.000000 0.000000
vt 1.000000 1.000000
vt 0.000000 1.000000
vn 0.983062 0.181341 -0.026276
vn 0.923948 0.376476 -0.067537
vn 0.516648 0.416272 -0.748161
vn 0.344096 0.274148 -0.898007
vn 0.185492 0.969115 -0.162420
vn 0.999939 0.010224 -0.003998
vn 0.637074 -0.016053 -0.770592
vn 0.144108 0.907041 -0.395550
vn 0.172674 0.577410 -0.797937
vn 0.089602 0.839412 -0.535997
vn 0.211554 0.205817 -0.955443
vn 0.073794 0.482223 -0.872890
vn 0.050020 0.785180 -0.617206
vn 0.137577 0.197089 -0.970672
vn 0.002716 0.383679 -0.923429
vn 0.015137 0.759270 -0.650563
vn -0.073550 0.887173 -0.455489
vn -0.245064 0.030519 -0.969024
vn -0.439894 -0.509384 -0.739586
vn -0.912564 -0.386395 -0.133732
vn 0.090579 -0.444136 -0.891354
vn -0.083316 0.355815 -0.930815
vn -0.020081 0.781549 -0.623493
vn -0.320017 0.092776 -0.942839
vn -0.442915 0.032197 -0.895962
vn -0.273782 0.738548 -0.616047
vn -0.158055 0.987030 -0.027345
vn -0.142705 0.117527 -0.982757
vn -0.006104 -0.172979 -0.984893
vn -0.111484 0.504746 -0.856014
vn -0.213111 0.976257 -0.038087
vn -0.228004 -0.153661 -0.961425
vn 0.170354 0.973846 -0.150212
vn -0.231513 0.958739 0.164861
vn -0.329386 0.896359 0.296670
vn -0.290323 0.838527 -0.461043
vn -0.430799 0.895383 0.112369
vn -0.158940 0.849361 -0.503250
vn -0.326365 0.243233 0.913388
vn -0.182928 0.605029 0.774865
vn -0.042360 0.591296 0.805322
vn -0.026765 0.932401 0.360393
vn 0.200629 0.111972 0.973235
vn -0.074831 0.153386 0.985321
vn 0.132145 -0.025086 0.990905
vn -0.080355 0.561388 0.823603
vn -0.032868 0.917722 0.395825
vn 0.743797 0.644795 0.175878
vn 0.201361 -0.050539 0.978210
vn -0.010010 0.675985 0.736808
vn -0.002441 0.931639 0.363292
vn 0.022645 0.467727 0.883572
vn 0.350414 0.211493 0.912381
vn -0.351390 0.008698 0.936155
vn -0.953185 -0.149541 -0.262764
vn 0.198614 0.819208 0.537950
vn 0.093387 0.971770 0.216590
vn 0.251350 0.504837 0.825770
vn 0.643452 0.238807 0.727256
vn 0.148228 0.986206 0.073489
vn 0.360210 0.541642 0.759484
vn 0.002228 0.984924 -0.172918
vn 0.521958 0.641072 0.562639
vn -0.720786 0.690359 0.061892
vn -0.471328 0.435041 -0.767144
vn -0.041902 0.952910 0.300302
vn 0.230476 0.766747 -0.599109
vn 0.830012 -0.548479 0.100986
vn -0.830012 0.548448 -0.101077
vn 0.134892 -0.517319 0.845058
vn -0.814539 -0.572771 0.091678
vn 0.085482 -0.773980 -0.627400
vn 0.275155 -0.920682 -0.276742
vn 0.768517 -0.614277 0.178808
vn 0.501968 -0.647389 -0.573443
vn 0.181402 -0.468520 -0.864620
vn 0.267464 0.134709 -0.954070
vn 0.069491 -0.899045 -0.432295
vn 0.049898 -0.972289 -0.228278
vn -0.326609 -0.418104 -0.847621
vn -0.420301 -0.158666 -0.893368
vn -0.210883 -0.804285 -0.555528
vn -0.437330 -0.298288 -0.848354
vn -0.480911 -0.162633 -0.861538
vn -0.167821 -0.901303 -0.399335
vn -0.114261 -0.648000 -0.752983
vn -0.092441 -0.252083 -0.963256
vn -0.020936 -0.938505 -0.344523
vn -0.407239 -0.878872 -0.248421
vn -0.152837 -0.517685 -0.841792
vn -0.244942 -0.951048 0.188299
vn -0.465102 -0.081149 -0.881497
vn -0.081484 -0.175512 -0.981079
vn -0.312754 -0.901181 -0.300058
vn -0.354625 -0.911649 0.207617
vn 0.174322 -0.972076 0.156926
vn -0.924619 -0.374645 0.068667
vn -0.223060 -0.959441 -0.172216
vn -0.150609 -0.476516 0.866146
vn -0.498489 0.219825 0.838527
vn -0.237495 -0.874813 0.422193
vn -0.153813 0.147954 0.976928
vn -0.164373 -0.105747 0.980682
vn -0.213630 -0.450972 0.866573
vn -0.231635 -0.953429 0.192999
vn -0.088351 -0.230049 0.969146
vn -0.055391 0.143071 0.988128
vn -0.016327 -0.726829 0.686605
vn 0.123386 -0.387341 0.913633
vn 0.233406 0.019318 0.972167
vn 0.043825 -0.747429 0.662862
vn 0.261055 -0.649098 0.714469
vn 0.342112 -0.331400 0.879238
vn 0.161107 -0.857662 0.488296
vn 0.093417 -0.714347 0.693503
vn 0.212073 -0.168249 0.962645
vn 0.057070 -0.852443 0.519639
vn 0.298441 0.433180 0.850429
vn 0.508499 -0.416669 0.753502
vn 0.281442 -0.773125 0.568316
vn 0.091220 -0.536668 0.838832
vn -0.058473 -0.982116 0.178930
vn -0.967711 0.249245 0.036744
vn -0.619251 0.780725 0.083438
vn 0.874660 -0.144749 0.462539
vn 0.389966 -0.710990 0.585131
vn -0.512406 0.856563 0.061037
vn 0.254067 -0.821833 0.509903
vn -0.894711 0.299753 -0.331065
vn -0.651723 0.674673 -0.346477
vn -0.524155 0.745323 -0.411969
vn 0.913999 -0.404187 -0.034425
vn 0.655354 -0.755028 0.019868
vn 0.549852 -0.834010 -0.045198
vn -0.002228 0.193365 0.981109
vn -0.999329 0.019135 -0.031037
vn -0.543413 0.797235 -0.262825
vn 0.948912 0.036836 0.313303
vn -0.999939 -0.001801 -0.010681
vn 0.959655 -0.266915 -0.088015
vn -0.924802 0.160222 -0.345012
vn 0.173864 -0.351146 0.920011
vn 0.376415 -0.912870 0.157933
vn 0.223884 -0.613727 -0.757073
vn -0.854060 0.514115 -0.078890
vn -0.831599 0.545946 -0.101657
usemtl Material
s 1
f 5/1/1 4/2/2 11/3/3
f 5/1/1 11/3/3 12/4/4
f 7/1/5 6/2/6 13/3/7
f 7/1/5 13/3/7 14/4/8
f 6/1/6 5/2/1 12/3/4
f 6/1/6 12/3/4 13/4/7
f 14/1/8 13/2/7 20/3/9
f 14/1/8 20/3/9 21/4/10
f 13/1/7 12/2/4 19/3/11
f 13/1/7 19/3/11 20/4/9
f 21/1/10 20/2/9 27/3/12
f 21/1/10 27/3/12 28/4/13
f 20/1/9 19/2/11 26/3/14
f 20/1/9 26/3/14 27/4/12
f 28/1/13 27/2/12 34/3/15
f 28/1/13 34/3/15 35/4/16
f 27/1/12 26/2/14 33/3/17
f 27/1/12 33/3/17 34/4/15
f 25/1/18 32/2/19 117/3/20
f 25/1/18 117/3/20 115/4/21
f 35/1/16 34/2/15 42/3/22
f 35/1/16 42/3/22 43/4/23
f 34/1/15 33/2/17 41/3/24
f 34/1/15 41/3/24 42/4/22
f 33/1/17 32/2/19 40/3/25
f 33/1/17 40/3/25 41/4/24
f 43/1/23 42/2/22 49/3/26
f 43/1/23 49/3/26 50/4/27
f 42/1/22 41/2/24 48/3/28
f 42/1/22 48/3/28 49/4/26
f 41/1/24 40/2/25 47/3/29
f 41/1/24 47/3/29 48/4/28
f 50/1/27 49/2/26 56/3/30
f 50/1/27 56/3/30 57/4/31
f 49/1/26 48/2/28 55/3/32
f 49/1/26 55/3/32 56/4/30
f 57/1/31 56/2/30 63/3/33
f 57/1/31 63/3/33 64/4/34
f 64/1/34 63/2/33 70/3/35
f 64/1/34 70/3/35 71/4/36
f 71/1/36 70/2/35 77/3/37
f 71/1/36 77/3/37 78/4/38
f 70/1/35 69/2/39 76/3/40
f 70/1/35 76/3/40 77/4/37
f 78/1/38 77/2/37 84/3/41
f 78/1/38 84/3/41 85/4/42
f 77/1/37 76/2/40 83/3/43
f 77/1/37 83/3/43 84/4/41
f 76/1/40 75/2/44 82/3/45
f 76/1/40 82/3/45 83/4/43
f 85/1/42 84/2/41 91/3/46
f 85/1/42 91/3/46 92/4/47
f 84/1/41 83/2/43 90/3/48
f 84/1/41 90/3/48 91/4/46
f 83/1/43 82/2/45 89/3/49
f 83/1/43 89/3/49 90/4/48
f 92/1/47 91/2/46 98/3/50
f 92/1/47 98/3/50 99/4/51
f 91/1/46 90/2/48 97/3/52
f 91/1/46 97/3/52 98/4/50
f 89/1/49 96/2/53 121/3/54
f 89/1/49 121/3/54 119/4/55
f 99/1/51 98/2/50 106/3/56
f 99/1/51 106/3/56 107/4/57
f 98/1/50 97/2/52 105/3/58
f 98/1/50 105/3/58 106/4/56
f 107/1/57 106/2/56 113/3/59
f 107/1/57 113/3/59 114/4/60
f 106/1/56 105/2/58 112/3/61
f 106/1/56 112/3/61 113/4/59
f 100/1/62 7/2/5 14/3/8
f 100/1/62 14/2/8 21/3/10
f 100/1/62 21/2/10 28/3/13
f 100/1/62 28/2/13 35/3/16
f 100/1/62 35/2/16 43/3/23
f 100/1/62 43/2/23 50/3/27
f 100/1/62 50/2/27 57/3/31
f 100/1/62 57/2/31 64/3/34
f 100/1/62 64/2/34 71/3/36
f 100/1/62 71/2/36 78/3/38
f 100/1/62 78/2/38 85/3/42
f 100/1/62 85/2/42 92/3/47
f 100/1/62 92/2/47 99/3/51
f 100/1/62 99/2/51 107/3/57
f 100/1/62 107/2/57 114/3/60
f 114/1/60 113/2/59 6/3/6
f 114/1/60 6/3/6 7/4/5
f 113/1/59 112/2/61 5/3/1
f 113/1/59 5/3/1 6/4/6
f 112/1/61 111/2/63 4/3/2
f 112/1/61 4/3/2 5/4/1
f 100/1/62 114/2/60 7/3/5
f 32/1/19 33/2/17 118/3/64
f 32/1/19 118/3/64 117/4/20
f 90/1/48 89/2/49 119/3/55
f 90/1/48 119/3/55 120/4/65
f 97/1/52 90/2/48 120/3/65
f 97/1/52 120/3/65 122/4/66
f 33/1/17 26/2/14 116/3/67
f 33/1/17 116/3/67 118/4/64
f 82/1/45 83/2/43 142/3/68
f 82/1/45 142/3/68 141/4/68
f 40/1/25 41/2/24 140/3/69
f 40/1/25 140/3/69 139/4/69
usemtl Material.001
f 2/1/70 1/2/71 8/3/72
f 2/1/70 8/3/72 9/4/73
f 4/1/2 3/2/74 10/3/75
f 4/1/2 10/3/75 11/4/3
f 3/1/74 2/2/70 9/3/73
f 3/1/74 9/3/73 10/4/75
f 11/1/3 10/2/75 17/3/76
f 11/1/3 17/3/76 18/4/77
f 10/1/75 9/2/73 16/3/78
f 10/1/75 16/3/78 17/4/76
f 9/1/73 8/2/72 15/3/79
f 9/1/73 15/3/79 16/4/78
f 17/1/76 16/2/78 23/3/80
f 17/1/76 23/3/80 24/4/81
f 16/1/78 15/2/79 22/3/82
f 16/1/78 22/3/82 23/4/80
f 24/1/81 23/2/80 30/3/83
f 24/1/81 30/3/83 31/4/84
f 23/1/80 22/2/82 29/3/85
f 23/1/80 29/3/85 30/4/83
f 31/1/84 30/2/83 38/3/86
f 31/1/84 38/3/86 39/4/87
f 30/1/83 29/2/85 37/3/88
f 30/1/83 37/3/88 38/4/86
f 39/1/87 38/2/86 45/3/89
f 39/1/87 45/3/89 46/4/90
f 38/1/86 37/2/88 44/3/91
f 38/1/86 44/3/91 45/4/89
f 47/1/29 46/2/90 53/3/92
f 47/1/29 53/3/92 54/4/93
f 46/1/90 45/2/89 52/3/94
f 46/1/90 52/3/94 53/4/92
f 45/1/89 44/2/91 51/3/95
f 45/1/89 51/3/95 52/4/94
f 53/1/92 52/2/94 59/3/96
f 53/1/92 59/3/96 60/4/97
f 52/1/94 51/2/95 58/3/98
f 52/1/94 58/3/98 59/4/96
f 60/1/97 59/2/96 66/3/99
f 60/1/97 66/3/99 67/4/100
f 59/1/96 58/2/98 65/3/101
f 59/1/96 65/3/101 66/4/99
f 68/1/102 67/2/100 74/3/103
f 68/1/102 74/3/103 75/4/44
f 67/1/100 66/2/99 73/3/104
f 67/1/100 73/3/104 74/4/103
f 66/1/99 65/2/101 72/3/105
f 66/1/99 72/3/105 73/4/104
f 74/1/103 73/2/104 80/3/106
f 74/1/103 80/3/106 81/4/107
f 73/1/104 72/2/105 79/3/108
f 73/1/104 79/3/108 80/4/106
f 81/1/107 80/2/106 87/3/109
f 81/1/107 87/3/109 88/4/110
f 80/1/106 79/2/108 86/3/111
f 80/1/106 86/3/111 87/4/109
f 88/1/110 87/2/109 94/3/112
f 88/1/110 94/3/112 95/4/113
f 87/1/109 86/2/111 93/3/114
f 87/1/109 93/3/114 94/4/112
f 95/1/113 94/2/112 102/3/115
f 95/1/113 102/3/115 103/4/116
f 94/1/112 93/2/114 101/3/117
f 94/1/112 101/3/117 102/4/115
f 104/1/118 103/2/116 110/3/119
f 104/1/118 110/3/119 111/4/63
f 103/1/116 102/2/115 109/3/120
f 103/1/116 109/3/120 110/4/119
f 102/1/115 101/2/117 108/3/121
f 102/1/115 108/3/121 109/4/120
f 1/1/71 36/2/122 8/3/72
f 8/1/72 36/2/122 15/3/79
f 15/1/79 36/2/122 22/3/82
f 22/1/82 36/2/122 29/3/85
f 29/1/85 36/2/122 37/3/88
f 37/1/88 36/2/122 44/3/91
f 44/1/91 36/2/122 51/3/95
f 51/1/95 36/2/122 58/3/98
f 58/1/98 36/2/122 65/3/101
f 65/1/101 36/2/122 72/3/105
f 72/1/105 36/2/122 79/3/108
f 79/1/108 36/2/122 86/3/111
f 86/1/111 36/2/122 93/3/114
f 93/1/114 36/2/122 101/3/117
f 101/1/117 36/2/122 108/3/121
f 36/2/122 1/3/71 108/1/121
f 111/1/63 110/2/119 3/3/74
f 111/1/63 3/3/74 4/4/2
f 110/1/119 109/2/120 2/3/70
f 110/1/119 2/3/70 3/4/74
f 1/3/71 2/4/70 109/1/120
f 1/3/71 109/1/120 108/2/121
f 30/1/83 31/2/84 125/3/123
f 30/1/83 125/3/123 124/4/124
f 87/1/109 88/2/110 129/3/125
f 87/1/109 129/3/125 128/4/126
f 29/1/85 30/2/83 124/3/124
f 29/1/85 124/3/124 123/4/127
f 86/1/111 87/2/109 128/3/126
f 86/1/111 128/3/126 127/4/128
f 23/1/80 24/2/81 133/3/129
f 23/1/80 133/3/129 132/4/130
f 22/1/82 23/2/80 132/3/130
f 22/1/82 132/3/130 131/4/131
f 94/1/112 95/2/113 137/3/132
f 94/1/112 137/3/132 136/4/133
f 93/1/114 94/2/112 136/3/133
f 93/1/114 136/3/133 135/4/134
f 3/1/74 2/2/70 143/3/135
f 3/1/74 143/3/135 144/4/135
usemtl Material.002
f 12/1/4 11/2/3 18/3/77
f 12/1/4 18/3/77 19/4/11
f 18/1/77 17/2/76 24/3/81
f 18/1/77 24/3/81 25/4/18
f 19/1/11 18/2/77 25/3/18
f 19/1/11 25/3/18 26/4/14
f 25/1/18 24/2/81 31/3/84
f 25/1/18 31/3/84 32/4/19
f 32/1/19 31/2/84 39/3/87
f 32/1/19 39/3/87 40/4/25
f 40/1/25 39/2/87 46/3/90
f 40/1/25 46/3/90 47/4/29
f 48/1/28 47/2/29 54/3/93
f 48/1/28 54/3/93 55/4/32
f 54/1/93 53/2/92 60/3/97
f 54/1/93 60/3/97 61/4/136
f 56/1/30 55/2/32 62/3/137
f 56/1/30 62/3/137 63/4/33
f 55/1/32 54/2/93 61/3/136
f 55/1/32 61/3/136 62/4/137
f 61/1/136 60/2/97 67/3/100
f 61/1/136 67/3/100 68/4/102
f 63/1/33 62/2/137 69/3/39
f 63/1/33 69/3/39 70/4/35
f 62/1/137 61/2/136 68/3/102
f 62/1/137 68/3/102 69/4/39
f 69/1/39 68/2/102 75/3/44
f 69/1/39 75/3/44 76/4/40
f 75/1/44 74/2/103 81/3/107
f 75/1/44 81/3/107 82/4/45
f 82/1/45 81/2/107 88/3/110
f 82/1/45 88/3/110 89/4/49
f 89/1/49 88/2/110 95/3/113
f 89/1/49 95/3/113 96/4/53
f 96/1/53 95/2/113 103/3/116
f 96/1/53 103/3/116 104/4/118
f 97/1/52 96/2/53 104/3/118
f 97/1/52 104/3/118 105/4/58
f 105/1/58 104/2/118 111/3/63
f 105/1/58 111/3/63 112/4/61
f 116/1/67 115/2/21 117/3/20
f 116/1/67 117/3/20 118/4/64
f 120/1/65 119/2/55 121/3/54
f 120/1/65 121/3/54 122/4/66
f 26/1/14 25/2/18 115/3/21
f 26/1/14 115/3/21 116/4/67
f 96/1/53 97/2/52 122/3/66
f 96/1/53 122/3/66 121/4/54
f 88/1/110 89/2/49 130/3/138
f 88/1/110 130/3/138 129/4/125
f 31/1/84 32/2/19 126/3/139
f 31/1/84 126/3/139 125/4/123
f 95/1/113 96/2/53 138/3/140
f 95/1/113 138/3/140 137/4/132
f 24/1/81 25/2/18 134/3/141
f 24/1/81 134/3/141 133/4/129
f 60/1/97 67/2/100 147/3/142
f 60/1/97 147/3/142 146/4/143
f 53/1/92 60/2/97 146/3/143
f 53/1/92 146/3/143 145/4/144
f 67/1/100 60/2/97 148/3/145
f 67/1/100 148/3/145 149/4/145
f 60/1/97 53/2/92 150/3/146
f 60/1/97 150/3/146 151/4/146
