# Blender v2.68 (sub 0) OBJ File: 'target.blend'
# www.blender.org
mtllib target.mtl
o Cylinder
v 0.623490 -0.634945 -0.204782
v -0.007743 0.056002 2.620884
v 0.659053 -0.702394 -0.180345
v 0.027820 -0.011447 2.645321
v 0.580909 -0.702394 -0.197802
v -0.050324 -0.011447 2.627864
v 0.625161 0.599377 -0.212263
v -0.012085 0.036402 2.640319
v 0.667093 0.531285 -0.216334
v 0.029847 -0.031689 2.636248
v 0.588948 0.531285 -0.233791
v -0.048297 -0.031689 2.618792
v -0.810097 0.046229 -0.228598
v 0.013149 0.046229 2.631913
v -0.771624 -0.023114 -0.239670
v 0.051623 -0.023114 2.620841
v -0.848571 -0.023114 -0.217525
v -0.025324 -0.023114 2.642986
v 0.295066 1.000000 1.916843
v 0.223216 1.000000 1.901299
v 0.375985 0.923880 1.542813
v 0.304135 0.923880 1.527269
v 0.444584 0.707107 1.225725
v 0.372734 0.707107 1.210181
v 0.490421 0.382683 1.013854
v 0.418571 0.382683 0.998310
v 0.506517 -0.000000 0.939454
v 0.434667 -0.000000 0.923910
v 0.490421 -0.382684 1.013854
v 0.418571 -0.382684 0.998310
v 0.444584 -0.707107 1.225725
v 0.372734 -0.707107 1.210181
v 0.375985 -0.923880 1.542813
v 0.304135 -0.923880 1.527268
v 0.295066 -1.000000 1.916843
v 0.223216 -1.000000 1.901299
v 0.214148 -0.923880 2.290874
v 0.142297 -0.923880 2.275329
v 0.145548 -0.707107 2.607961
v 0.073698 -0.707107 2.592417
v 0.099711 -0.382684 2.819833
v 0.027861 -0.382684 2.804288
v 0.083616 0.000000 2.894232
v 0.011766 0.000000 2.878688
v 0.099711 0.382684 2.819833
v 0.027861 0.382684 2.804288
v 0.145548 0.707107 2.607961
v 0.073698 0.707107 2.592417
v 0.214148 0.923880 2.290873
v 0.142298 0.923880 2.275329
v 0.295066 0.671533 1.916843
v 0.349406 0.620416 1.665669
v 0.395473 0.474846 1.452734
v 0.426253 0.256985 1.310456
v 0.437062 -0.000000 1.260494
v 0.426253 -0.256985 1.310456
v 0.395473 -0.474846 1.452734
v 0.349406 -0.620416 1.665669
v 0.295066 -0.671533 1.916843
v 0.240727 -0.620416 2.168017
v 0.194660 -0.474846 2.380952
v 0.163879 -0.256985 2.523230
v 0.153070 0.000000 2.573192
v 0.163879 0.256985 2.523230
v 0.194660 0.474846 2.380952
v 0.240727 0.620416 2.168017
v 0.295066 0.441913 1.916843
v 0.330825 0.408274 1.751554
v 0.361140 0.312479 1.611429
v 0.381396 0.169113 1.517801
v 0.388509 -0.000000 1.484923
v 0.381396 -0.169113 1.517801
v 0.361140 -0.312479 1.611429
v 0.330825 -0.408274 1.751554
v 0.295066 -0.441913 1.916843
v 0.259307 -0.408274 2.082132
v 0.228992 -0.312480 2.222257
v 0.208736 -0.169113 2.315886
v 0.201623 0.000000 2.348764
v 0.208736 0.169113 2.315886
v 0.228992 0.312480 2.222257
v 0.259307 0.408274 2.082132
v 0.295066 0.232267 1.916843
v 0.313861 0.214587 1.829968
v 0.329794 0.164238 1.756319
v 0.340441 0.088885 1.707108
v 0.344179 -0.000000 1.689828
v 0.340441 -0.088885 1.707108
v 0.329794 -0.164238 1.756319
v 0.313861 -0.214587 1.829968
v 0.295066 -0.232267 1.916843
v 0.276271 -0.214587 2.003718
v 0.260338 -0.164238 2.077367
v 0.249692 -0.088885 2.126578
v 0.245953 0.000000 2.143859
v 0.249692 0.088885 2.126578
v 0.260338 0.164238 2.077367
v 0.276271 0.214587 2.003718
v 0.295066 0.070827 1.916843
v 0.300797 0.065436 1.890352
v 0.305656 0.050083 1.867893
v 0.308903 0.027104 1.852887
v 0.310043 -0.000000 1.847617
v 0.308903 -0.027104 1.852887
v 0.305656 -0.050083 1.867893
v 0.300797 -0.065436 1.890352
v 0.295066 -0.070827 1.916843
v 0.289335 -0.065436 1.943335
v 0.284476 -0.050083 1.965793
v 0.281230 -0.027104 1.980800
v 0.280090 0.000000 1.986069
v 0.281230 0.027104 1.980800
v 0.284476 0.050083 1.965793
v 0.289335 0.065436 1.943335
vt 0.000000 0.000000
vt 1.000000 0.000000
vt 0.000000 1.000000
vt 1.000000 1.000000
vt 0.500000 1.000000
vt 0.691342 0.961940
vt 0.308659 0.961940
vt 0.853553 0.853553
vt 0.961940 0.691342
vt 1.000000 0.500000
vt 0.961940 0.308658
vt 0.853553 0.146447
vt 0.146447 0.853554
vt 0.038060 0.691342
vt 0.691342 0.038060
vt 0.500000 0.000000
vt 0.308658 0.038060
vt 0.000000 0.500000
vt 0.038060 0.308658
vt 0.146447 0.146446
vn 0.870497 0.486343 0.075539
vn -0.212066 0.232124 0.949287
vn -0.050608 -0.972686 0.226541
vn -0.819888 0.486344 -0.302080
vn 0.212066 -0.232124 -0.949287
vn 0.824575 0.490977 0.281101
vn -0.214084 -0.189131 0.958331
vn 0.041235 -0.981952 -0.184582
vn -0.865811 0.490975 -0.096519
vn 0.214086 0.189133 -0.958330
vn 0.832247 0.499997 -0.239518
vn 0.276570 -0.000002 0.960994
vn -0.000000 -1.000000 0.000000
vn -0.832244 0.500001 0.239517
vn -0.276571 -0.000001 -0.960994
vn 0.041252 0.980785 -0.190679
vn 0.117475 0.831470 -0.543008
vn 0.175814 0.555570 -0.812669
vn 0.207387 0.195090 -0.958609
vn 0.207387 -0.195090 -0.958609
vn 0.175814 -0.555570 -0.812669
vn 0.117475 -0.831470 -0.543008
vn 0.041252 -0.980785 -0.190679
vn -0.041252 -0.980785 0.190679
vn -0.117477 -0.831470 0.543008
vn -0.175814 -0.555570 0.812669
vn -0.207387 -0.195090 0.958609
vn -0.207387 0.195090 0.958609
vn -0.175814 0.555570 0.812669
vn -0.977389 0.000000 -0.211451
vn -0.041252 0.980785 0.190679
vn -0.117475 0.831470 0.543008
vn 0.977389 0.000000 0.211451
vn 0.977389 0.000000 0.211450
vn 0.977389 -0.000002 0.211451
vn 0.870496 0.486343 0.075539
vn -0.819889 0.486343 -0.302080
vn 0.824575 0.490976 0.281101
vn 0.041234 -0.981951 -0.184583
vn -0.865810 0.490975 -0.096519
vn 0.832245 0.500000 -0.239518
vn -0.832245 0.500000 0.239518
vn 0.117476 -0.831470 -0.543008
vn -0.117475 -0.831470 0.543008
vn -0.977389 0.000000 -0.211450
vn -0.977389 -0.000001 -0.211450
vn 0.977389 -0.000001 0.211450
vn 0.977389 0.000001 0.211450
vn 0.977388 0.000000 0.211452
vn 0.977389 -0.000001 0.211451
vn 0.977389 0.000002 0.211451
g Cylinder_Cylinder_white
usemtl white
s off
f 1/1/1 2/2/1 3/3/1
f 4/1/2 2/2/2 6/4/2
f 3/1/3 4/2/3 5/3/3
f 5/1/4 6/2/4 1/3/4
f 1/1/5 3/2/5 5/4/5
f 7/1/6 8/2/6 9/3/6
f 10/1/7 8/2/7 12/4/7
f 9/1/8 10/2/8 11/3/8
f 11/1/9 12/2/9 7/3/9
f 7/1/10 9/2/10 11/4/10
f 13/1/11 14/2/11 15/3/11
f 16/1/12 14/2/12 18/4/12
f 15/1/13 16/2/13 17/3/13
f 17/1/14 18/2/14 13/3/14
f 13/1/15 15/2/15 17/4/15
f 19/1/16 21/2/16 20/3/16
f 21/1/17 23/2/17 22/3/17
f 23/1/18 25/2/18 24/3/18
f 25/1/19 27/2/19 26/3/19
f 27/1/20 29/2/20 28/3/20
f 29/1/21 31/2/21 30/3/21
f 31/1/22 33/2/22 32/3/22
f 33/1/23 35/2/23 34/3/23
f 35/1/24 37/2/24 36/3/24
f 37/1/25 39/2/25 38/3/25
f 39/1/26 41/2/26 40/3/26
f 41/1/27 43/2/27 42/3/27
f 43/1/28 45/2/28 44/3/28
f 45/1/29 47/2/29 46/3/29
f 22/5/30 24/6/30 20/7/30
f 49/1/31 19/2/31 50/3/31
f 47/1/32 49/2/32 48/3/32
f 47/1/33 65/2/33 49/3/33
f 43/1/33 63/2/33 45/3/33
f 19/1/33 51/2/33 21/3/33
f 39/1/33 61/2/33 41/3/33
f 35/1/34 59/2/34 37/3/34
f 31/1/34 57/2/34 33/3/34
f 27/1/33 55/2/33 29/3/33
f 23/1/34 53/2/34 25/3/34
f 49/1/34 66/2/34 19/3/34
f 45/1/34 64/2/34 47/3/34
f 41/1/34 62/2/34 43/3/34
f 37/1/33 60/2/33 39/3/33
f 33/1/34 58/2/34 35/3/34
f 29/1/33 56/2/33 31/3/33
f 25/1/33 54/2/33 27/3/33
f 21/1/34 52/2/34 23/3/34
f 72/1/34 88/2/34 73/3/34
f 79/1/34 95/2/34 80/3/34
f 73/1/33 89/2/33 74/3/33
f 67/1/33 83/2/33 68/3/33
f 80/1/34 96/2/34 97/4/34
f 74/1/33 90/2/33 75/3/33
f 68/1/34 84/2/34 69/3/34
f 81/1/34 97/2/34 82/3/34
f 75/1/34 91/2/34 76/3/34
f 69/1/34 85/2/34 70/3/34
f 82/1/33 98/2/33 67/3/33
f 76/1/34 92/2/34 77/3/34
f 70/1/34 86/2/34 71/3/34
f 77/1/34 93/2/34 78/3/34
f 71/1/34 87/2/34 72/3/34
f 78/1/33 94/2/33 95/4/33
f 99/5/35 114/6/35 100/7/35
f 2/2/36 4/4/36 3/3/36
f 4/2/3 6/4/3 5/3/3
f 6/2/37 2/4/37 1/3/37
f 8/2/38 10/4/38 9/3/38
f 10/2/39 12/4/39 11/3/39
f 12/2/40 8/4/40 7/3/40
f 14/2/41 16/4/41 15/3/41
f 16/2/13 18/4/13 17/3/13
f 18/2/42 14/4/42 13/3/42
f 21/2/16 22/4/16 20/3/16
f 23/2/17 24/4/17 22/3/17
f 25/2/18 26/4/18 24/3/18
f 27/2/19 28/4/19 26/3/19
f 29/2/20 30/4/20 28/3/20
f 31/2/21 32/4/21 30/3/21
f 33/2/43 34/4/43 32/3/43
f 35/2/23 36/4/23 34/3/23
f 37/2/24 38/4/24 36/3/24
f 39/2/44 40/4/44 38/3/44
f 41/2/26 42/4/26 40/3/26
f 43/2/27 44/4/27 42/3/27
f 45/2/28 46/4/28 44/3/28
f 47/2/29 48/4/29 46/3/29
f 24/6/30 26/8/30 20/7/30
f 26/8/30 28/9/30 20/7/30
f 28/9/30 30/10/30 20/7/30
f 30/10/30 32/11/30 34/12/30
f 20/7/30 30/10/30 34/12/30
f 50/13/45 20/7/45 48/14/45
f 20/7/45 34/12/45 48/14/45
f 34/12/46 36/15/46 38/16/46
f 48/14/30 34/12/30 38/16/30
f 48/14/45 38/16/45 40/17/45
f 46/18/45 48/14/45 44/19/45
f 48/14/30 40/17/30 42/20/30
f 44/19/30 48/14/30 42/20/30
f 19/2/31 20/4/31 50/3/31
f 49/2/32 50/4/32 48/3/32
f 65/2/34 66/4/34 49/3/34
f 63/2/34 64/4/34 45/3/34
f 51/2/33 52/4/33 21/3/33
f 61/2/33 62/4/33 41/3/33
f 59/2/34 60/4/34 37/3/34
f 57/2/33 58/4/33 33/3/33
f 55/2/34 56/4/34 29/3/34
f 53/2/33 54/4/33 25/3/33
f 66/2/33 51/4/33 19/3/33
f 64/2/33 65/4/33 47/3/33
f 62/2/33 63/4/33 43/3/33
f 60/2/33 61/4/33 39/3/33
f 58/2/33 59/4/33 35/3/33
f 56/2/34 57/4/34 31/3/34
f 54/2/33 55/4/33 27/3/33
f 52/2/34 53/4/34 23/3/34
f 88/2/34 89/4/34 73/3/34
f 95/2/33 96/4/33 80/3/33
f 89/2/34 90/4/34 74/3/34
f 83/2/33 84/4/33 68/3/33
f 81/3/34 80/1/34 97/4/34
f 90/2/33 91/4/33 75/3/33
f 84/2/34 85/4/34 69/3/34
f 97/2/34 98/4/34 82/3/34
f 91/2/33 92/4/33 76/3/33
f 85/2/34 86/4/34 70/3/34
f 98/2/33 83/4/33 67/3/33
f 92/2/34 93/4/34 77/3/34
f 86/2/34 87/4/34 71/3/34
f 93/2/34 94/4/34 78/3/34
f 87/2/34 88/4/34 72/3/34
f 79/3/34 78/1/34 95/4/34
f 104/19/47 106/17/47 105/20/47
f 100/7/48 102/14/48 101/13/48
f 100/7/33 114/6/33 102/14/33
f 110/11/49 112/9/49 111/10/49
f 108/15/50 110/11/50 109/12/50
f 108/15/34 112/9/34 110/11/34
f 106/17/51 108/15/51 107/16/51
f 104/19/33 108/15/33 106/17/33
f 104/19/33 112/9/33 108/15/33
f 102/14/49 104/19/49 103/18/49
f 102/14/33 114/6/33 104/19/33
f 114/6/33 113/8/33 104/19/33
f 113/8/34 112/9/34 104/19/34
g Cylinder_Cylinder_black
usemtl black
f 51/1/33 67/2/33 52/3/33
f 64/1/33 80/2/33 65/3/33
f 58/1/33 74/2/33 59/3/33
f 52/1/33 68/2/33 53/3/33
f 65/1/34 81/2/34 66/3/34
f 59/1/34 75/2/34 60/3/34
f 53/1/34 69/2/34 54/3/34
f 66/1/33 82/2/33 51/3/33
f 60/1/34 76/2/34 61/3/34
f 54/1/34 70/2/34 55/3/34
f 61/1/33 77/2/33 78/4/33
f 55/1/34 71/2/34 56/3/34
f 62/1/33 78/2/33 63/3/33
f 56/1/34 72/2/34 57/3/34
f 63/1/34 79/2/34 64/3/34
f 57/1/33 73/2/33 58/3/33
f 93/1/34 109/2/34 94/3/34
f 87/1/33 103/2/33 88/3/33
f 94/1/33 110/2/33 111/4/33
f 88/1/33 104/2/33 89/3/33
f 95/1/33 111/2/33 96/3/33
f 89/1/33 105/2/33 90/3/33
f 83/1/33 99/2/33 84/3/33
f 96/1/34 112/2/34 113/4/34
f 90/1/33 106/2/33 91/3/33
f 84/1/33 100/2/33 85/3/33
f 97/1/34 113/2/34 98/3/34
f 91/1/33 107/2/33 92/3/33
f 85/1/33 101/2/33 102/4/33
f 98/1/33 114/2/33 83/3/33
f 92/1/33 108/2/33 93/3/33
f 86/1/33 102/2/33 87/3/33
f 67/2/33 68/4/33 52/3/33
f 80/2/33 81/4/33 65/3/33
f 74/2/33 75/4/33 59/3/33
f 68/2/34 69/4/34 53/3/34
f 81/2/34 82/4/34 66/3/34
f 75/2/34 76/4/34 60/3/34
f 69/2/33 70/4/33 54/3/33
f 82/2/33 67/4/33 51/3/33
f 76/2/34 77/4/34 61/3/34
f 70/2/34 71/4/34 55/3/34
f 62/3/33 61/1/33 78/4/33
f 71/2/33 72/4/33 56/3/33
f 78/2/34 79/4/34 63/3/34
f 72/2/33 73/4/33 57/3/33
f 79/2/33 80/4/33 64/3/33
f 73/2/33 74/4/33 58/3/33
f 109/2/34 110/4/34 94/3/34
f 103/2/33 104/4/33 88/3/33
f 95/3/33 94/1/33 111/4/33
f 104/2/33 105/4/33 89/3/33
f 111/2/33 112/4/33 96/3/33
f 105/2/33 106/4/33 90/3/33
f 99/2/34 100/4/34 84/3/34
f 97/3/34 96/1/34 113/4/34
f 106/2/34 107/4/34 91/3/34
f 100/2/33 101/4/33 85/3/33
f 113/2/34 114/4/34 98/3/34
f 107/2/33 108/4/33 92/3/33
f 86/3/33 85/1/33 102/4/33
f 114/2/33 99/4/33 83/3/33
f 108/2/34 109/4/34 93/3/34
f 102/2/33 103/4/33 87/3/33
