# Blender v2.69 (sub 0) OBJ File: 'stone.blend'
# www.blender.org
mtllib stone_000021.mtl
o Cylinder.003
v 2.608116 1.966107 -0.761123
v 2.608116 1.739807 0.915906
v 2.916892 1.657330 -0.761123
v 2.690592 1.657330 0.915906
v 2.608116 1.348554 -0.761123
v 2.608116 1.574854 0.915906
v 2.299340 1.657330 -0.761123
v 2.525639 1.657330 0.915906
vt 0.000000 0.000000
vt 1.000000 0.000000
vt 0.000000 1.000000
vt 1.000000 1.000000
vn 0.000000 0.849513 -0.527512
vn 0.000000 0.778985 0.627003
vn 0.849513 0.000000 -0.527512
vn 0.778985 0.000000 0.627003
vn 0.000000 -0.849513 -0.527512
vn 0.000000 -0.778985 0.627003
vn -0.849513 0.000000 -0.527512
vn -0.778985 0.000000 0.627003
usemtl Material.001
s 1
f 1/1/1 2/2/2 3/3/3
f 3/1/3 4/2/4 5/3/5
f 4/1/4 2/2/2 6/3/6
f 7/1/7 8/2/8 1/3/1
f 5/1/5 6/2/6 7/3/7
f 1/1/1 3/2/3 7/3/7
f 2/2/2 4/4/4 3/3/3
f 4/2/4 6/4/6 5/3/5
f 2/2/2 8/4/8 6/3/6
f 8/2/8 2/4/2 1/3/1
f 6/2/6 8/4/8 7/3/7
f 3/2/3 5/4/5 7/3/7
o Cylinder.002
v 2.608116 -2.824157 -0.761123
v 2.608116 -3.050457 0.915906
v 2.916892 -3.132933 -0.761123
v 2.690592 -3.132933 0.915906
v 2.608116 -3.441709 -0.761123
v 2.608116 -3.215409 0.915906
v 2.299340 -3.132933 -0.761123
v 2.525639 -3.132933 0.915906
vt 0.000000 0.000000
vt 1.000000 0.000000
vt 0.000000 1.000000
vt 1.000000 1.000000
vn 0.000000 0.849513 -0.527512
vn 0.000000 0.778985 0.627003
vn 0.849513 0.000000 -0.527512
vn 0.778985 0.000000 0.627003
vn 0.000000 -0.849513 -0.527512
vn 0.000000 -0.778985 0.627003
vn -0.849513 0.000000 -0.527512
vn -0.778985 0.000000 0.627003
usemtl Material.001
s 1
f 9/5/9 10/6/10 11/7/11
f 11/5/11 12/6/12 13/7/13
f 12/5/12 10/6/10 14/7/14
f 15/5/15 16/6/16 9/7/9
f 13/5/13 14/6/14 15/7/15
f 9/5/9 11/6/11 15/7/15
f 10/6/10 12/8/12 11/7/11
f 12/6/12 14/8/14 13/7/13
f 10/6/10 16/8/16 14/7/14
f 16/6/16 10/8/10 9/7/9
f 14/6/14 16/8/16 15/7/15
f 11/6/11 13/8/13 15/7/15
o Cylinder.001
v -1.667584 -2.824157 -0.761123
v -1.667584 -3.050457 0.915906
v -1.358808 -3.132933 -0.761123
v -1.585108 -3.132933 0.915906
v -1.667584 -3.441709 -0.761123
v -1.667584 -3.215409 0.915906
v -1.976361 -3.132933 -0.761123
v -1.750061 -3.132933 0.915906
vt 0.000000 0.000000
vt 1.000000 0.000000
vt 0.000000 1.000000
vt 1.000000 1.000000
vn 0.000000 0.849513 -0.527512
vn 0.000000 0.778985 0.627003
vn 0.849513 0.000000 -0.527512
vn 0.778985 0.000000 0.627003
vn 0.000000 -0.849513 -0.527512
vn -0.778985 0.000000 0.627003
vn -0.849513 0.000000 -0.527512
vn 0.000000 -0.778985 0.627003
usemtl Material.001
s 1
f 17/9/17 18/10/18 19/11/19
f 19/9/19 20/10/20 21/11/21
f 20/9/20 18/10/18 24/12/22
f 23/9/23 24/10/22 17/11/17
f 21/9/21 22/10/24 23/11/23
f 17/9/17 19/10/19 23/11/23
f 18/10/18 20/12/20 19/11/19
f 20/10/20 22/12/24 21/11/21
f 22/11/24 20/9/20 24/12/22
f 24/10/22 18/12/18 17/11/17
f 22/10/24 24/12/22 23/11/23
f 19/10/19 21/12/21 23/11/23
o Cylinder
v -1.667584 1.966107 -0.761123
v -1.667584 1.739807 0.915906
v -1.358808 1.657330 -0.761123
v -1.585108 1.657330 0.915906
v -1.667584 1.348554 -0.761123
v -1.667584 1.574854 0.915906
v -1.976361 1.657330 -0.761123
v -1.750061 1.657330 0.915906
vt 0.000000 0.000000
vt 1.000000 0.000000
vt 0.000000 1.000000
vt 1.000000 1.000000
vn 0.000000 0.849513 -0.527512
vn 0.000000 0.778985 0.627003
vn 0.849513 0.000000 -0.527512
vn 0.778985 0.000000 0.627003
vn 0.000000 -0.849513 -0.527512
vn 0.000000 -0.778985 0.627003
vn -0.849513 0.000000 -0.527512
vn -0.778985 0.000000 0.627003
usemtl Material.001
s 1
f 25/13/25 26/14/26 27/15/27
f 27/13/27 28/14/28 29/15/29
f 28/13/28 26/14/26 30/15/30
f 31/13/31 32/14/32 25/15/25
f 29/13/29 30/14/30 31/15/31
f 25/13/25 27/14/27 31/15/31
f 26/14/26 28/16/28 27/15/27
f 28/14/28 30/16/30 29/15/29
f 26/14/26 32/16/32 30/15/30
f 32/14/32 26/16/26 25/15/25
f 30/14/30 32/16/32 31/15/31
f 27/14/27 29/16/29 31/15/31
o Cube.001
v 2.198851 0.717962 -3.569160
v 1.371256 -1.630461 -3.519800
v 1.240158 0.838938 -0.415833
v 1.452336 -1.298726 -0.631597
v 2.389702 2.200143 -1.480147
v 2.389036 -3.076113 -1.480147
v 0.162259 0.843595 -0.672966
v 2.294343 2.087168 -2.278461
v 0.162473 1.320901 -3.491374
v 1.509326 -0.437874 -0.587419
v 3.085952 -2.834348 -2.329374
v 2.686950 -0.729192 -3.562143
v 0.161982 -1.312207 -0.587493
v 0.162055 -1.993215 -3.491374
v 1.814910 1.519541 -0.578008
v 1.814454 -2.395365 -1.272076
v 0.162558 2.859566 -1.495840
v 2.945847 -0.438055 -1.495687
v 0.161726 -3.734973 -1.495840
v 0.162595 2.718349 -2.493607
v 3.748733 -0.359737 -2.608712
v 0.161798 -3.593756 -2.493607
v 0.162158 0.051687 -0.661293
v 0.162392 1.694338 -1.147800
v 2.227574 -0.437964 -0.816813
v 0.161880 -2.324661 -1.062327
vt 0.500000 0.749950
vt 0.999900 0.749950
vt 0.999900 0.999900
vt 0.500000 0.250050
vt 0.000100 0.250050
vt 0.000100 0.000100
vt 0.999900 0.250050
vt 0.500000 0.500000
vt 0.000100 0.749950
vt 0.000100 0.500000
vt 0.999900 0.500000
vt 0.500000 0.000100
vt 0.999900 0.000100
vt 0.500000 0.999900
vt 0.000100 0.999900
vn 0.261036 0.842645 -0.470966
vn 0.549852 0.722648 -0.418836
vn 0.686358 0.456253 -0.566345
vn 0.977660 0.056368 -0.202368
vn 0.780023 -0.591723 -0.203375
vn 0.292106 -0.518539 -0.803612
vn -0.269516 0.361525 0.892559
vn 0.345775 0.339030 0.874905
vn 0.133017 0.904411 0.405399
vn 0.514695 -0.081729 0.853450
vn 0.125431 -0.268136 0.955168
vn 0.461013 -0.653829 0.599933
vn 0.643971 0.697134 0.315073
vn 0.730193 -0.405863 -0.549630
vn 0.757866 -0.003784 0.652364
vn 0.242871 -0.824746 -0.510694
vn 0.171570 -0.541007 -0.823332
vn 0.230826 -0.846324 0.480057
vn 0.389599 -0.211463 0.896359
vn 0.153294 -0.111515 0.981842
vn -0.032548 0.015319 0.999353
vn -0.023743 0.074313 0.996948
vn -0.195919 0.204682 0.959021
vn 0.092011 -0.354138 0.930656
vn 0.054123 -0.207501 0.976736
vn 0.139579 0.575384 -0.805885
usemtl Material
s 1
f 52/17/33 40/18/34 33/19/35
f 53/20/36 43/21/37 34/22/38
f 56/20/39 47/23/40 49/24/41
f 57/17/42 48/25/43 38/26/44
f 49/24/41 37/27/45 52/17/33
f 40/23/34 53/20/36 44/28/46
f 37/27/45 50/24/47 53/20/36
f 50/24/47 38/26/44 53/20/36
f 43/23/37 54/20/48 46/28/49
f 38/27/44 51/24/50 43/23/37
f 36/29/51 42/27/52 55/24/53
f 42/27/52 35/19/54 39/30/55
f 39/28/55 35/29/54 47/23/40
f 47/18/40 57/17/42 37/27/45
f 35/19/54 42/30/52 47/18/40
f 42/30/52 36/31/51 48/25/43
f 48/18/43 58/17/56 38/27/44
f 36/19/51 45/30/57 48/18/43
f 41/30/58 52/17/33 33/19/35
f 44/28/46 53/20/36 34/22/38
f 47/23/40 37/27/45 49/24/41
f 50/24/47 57/17/42 38/26/44
f 37/27/45 40/18/34 52/17/33
f 33/29/35 40/23/34 44/28/46
f 40/23/34 37/27/45 53/20/36
f 38/26/44 43/21/37 53/20/36
f 34/29/38 43/23/37 46/28/49
f 51/24/50 54/20/48 43/23/37
f 45/28/57 36/29/51 55/24/53
f 55/24/53 42/27/52 39/30/55
f 56/20/39 39/28/55 47/23/40
f 57/17/42 50/24/47 37/27/45
f 42/30/52 57/17/42 47/18/40
f 57/17/42 42/30/52 48/25/43
f 58/17/56 51/24/50 38/27/44
f 45/30/57 58/17/56 48/18/43
o Cube
v -1.866849 -2.043686 -3.080139
v -1.160386 0.753276 -3.653379
v -0.912272 -1.714345 -0.484089
v -0.911637 0.524726 -0.712283
v -2.059602 1.800240 -1.483819
v -2.060218 -3.075550 -1.483819
v -1.181175 -0.752018 -0.675160
v -2.389567 2.056185 -2.282637
v -1.246229 -0.437525 -3.493672
v -1.486866 -2.394948 -0.580764
v 0.166258 0.843595 -0.673084
v 0.170662 1.320901 -3.491489
v 0.165854 -1.312207 -0.587611
v 0.170244 -1.993216 -3.491489
v -1.485247 0.915911 -1.360304
v -1.963624 -3.279594 -2.281980
v -2.616338 -0.437352 -1.500247
v 0.167781 2.859566 -1.495957
v 0.166948 -3.734973 -1.495957
v -2.910139 -0.437315 -2.498468
v 0.169301 2.718349 -2.493723
v 0.168504 -3.593756 -2.493723
v 0.166140 0.051687 -0.661412
v -1.898679 -0.751928 -1.151101
v 0.167097 1.694338 -1.147918
v 0.166458 -2.324661 -1.062445
vt 0.500000 0.749950
vt 0.999900 0.749950
vt 0.500000 0.999900
vt 0.500000 0.250050
vt 0.000100 0.250050
vt 0.500000 0.000100
vt 0.500000 0.500000
vt 0.000100 0.500000
vt 0.999900 0.250050
vt 0.999900 0.500000
vt 0.000100 0.749950
vt 0.000100 0.999900
vt 0.000100 0.000100
vt 0.999900 0.000100
vt 0.999900 0.999900
vn -0.942869 -0.011841 -0.332865
vn -0.740074 0.639027 -0.209510
vn -0.581769 0.045885 -0.812059
vn -0.229934 -0.833906 -0.501728
vn -0.567248 -0.765923 -0.302561
vn -0.158407 -0.524053 -0.836825
vn -0.016568 0.045119 0.998844
vn -0.200735 0.340529 0.918556
vn -0.355419 0.158147 0.921201
vn -0.424635 0.189673 0.885250
vn -0.213874 0.242531 0.946257
vn -0.493637 0.422987 0.759850
vn 0.130661 -0.456359 0.880150
vn -0.255135 -0.431257 0.865383
vn -0.652974 -0.638752 0.406903
vn -0.529950 -0.344010 -0.775119
vn -0.798853 0.012391 0.601367
vn -0.256017 0.832995 -0.490484
vn -0.196972 0.595101 -0.779138
vn -0.307320 0.806824 0.504568
vn -0.247970 -0.846188 0.471674
vn 0.153547 -0.127604 0.979868
vn -0.021455 -0.065127 0.997620
vn -0.345866 0.348857 0.870998
vn -0.280297 0.351239 0.893345
vn -0.544183 0.307735 -0.780490
usemtl Material
s 1
f 78/32/59 66/33/60 67/34/61
f 80/35/62 74/36/63 72/37/64
f 81/38/65 69/34/66 65/39/67
f 82/35/68 73/40/69 63/41/70
f 84/32/71 68/42/72 64/39/73
f 74/42/63 78/32/59 59/43/74
f 64/39/73 75/38/75 74/42/63
f 75/38/75 63/41/70 66/33/60
f 66/42/60 79/32/76 70/34/77
f 63/39/70 76/38/78 66/42/60
f 77/38/79 64/39/73 80/35/62
f 71/37/80 81/38/65 61/44/81
f 68/36/72 82/35/68 75/38/75
f 61/44/81 65/37/67 68/36/72
f 65/37/67 62/45/82 73/40/69
f 73/36/69 83/35/83 76/38/78
f 62/44/82 69/37/66 73/36/69
f 71/34/80 61/43/81 68/42/72
f 66/33/60 60/46/84 67/34/61
f 74/36/63 59/44/74 72/37/64
f 69/34/66 62/43/82 65/39/67
f 75/38/75 82/35/68 63/41/70
f 77/38/79 84/32/71 64/39/73
f 78/32/59 67/34/61 59/43/74
f 75/38/75 78/32/59 74/42/63
f 78/32/59 75/38/75 66/33/60
f 60/43/84 66/42/60 70/34/77
f 76/38/78 79/32/76 66/42/60
f 64/39/73 74/36/63 80/35/62
f 81/38/65 65/39/67 61/44/81
f 64/39/73 68/36/72 75/38/75
f 65/37/67 82/35/68 68/36/72
f 82/35/68 65/37/67 73/40/69
f 63/39/70 73/36/69 76/38/78
f 69/37/66 83/35/83 73/36/69
f 84/32/71 71/34/80 68/42/72
