# Blender v2.65 (sub 0) OBJ File: 'flag.blend'
# www.blender.org
mtllib flag_000007.mtl
o Plane.021_Plane.022
v -2.049537 -0.008318 2.917573
v -0.514256 0.050975 3.178392
v -0.039011 0.005734 3.261578
v -0.282167 0.019228 2.582582
v -0.041272 -0.005254 2.540315
v -0.294225 0.028866 3.216978
v -0.902024 0.150337 3.110135
v -0.736914 0.102453 2.663940
v -0.716971 0.103084 3.142699
v -0.520551 0.046333 2.624666
v -1.359964 0.199704 3.029300
v -1.124133 0.194943 2.733286
v -1.157160 0.201235 3.065487
v -0.950337 0.158638 2.702251
v -1.390979 0.192316 2.781360
v -1.602492 0.121527 2.984883
v -1.609197 0.120472 2.821563
v -0.512911 -0.016138 2.616388
v -0.037879 -0.070169 2.522026
v -0.254829 0.006333 3.205596
v -0.012211 -0.007162 3.242093
v -0.291461 -0.043825 2.572606
v -0.892971 0.071094 2.695058
v -0.717359 0.053996 3.135838
v -0.712411 0.033203 2.657421
v -0.496261 0.019757 3.169262
v -1.363656 0.170376 2.788161
v -1.103573 0.133658 3.077373
v -1.151129 0.101555 2.746612
v -0.930449 0.104234 3.103564
v -1.380177 0.176011 3.036398
v -1.590407 0.087185 2.838558
v -1.593187 0.089990 3.001730
vn 0.250435 0.968047 -0.011139
vn 0.170507 0.985260 -0.011383
vn 0.171239 0.985137 -0.011383
vn 0.250465 0.968047 -0.011139
vn 0.100558 0.994812 -0.013062
vn 0.100436 0.994842 -0.013123
vn 0.095584 0.995300 -0.014435
vn 0.230018 0.973144 -0.007080
vn 0.226112 0.974059 -0.006348
vn 0.100345 0.994873 -0.012055
vn 0.113834 0.993439 -0.010620
vn -0.132328 0.991119 -0.010590
vn -0.156652 0.987610 -0.007965
vn -0.296579 0.954955 0.007294
vn -0.296121 0.955107 0.007233
vn -0.945677 -0.067385 0.318003
vn -0.203925 -0.977538 0.052950
vn -0.134465 -0.988617 0.067232
vn -0.134678 -0.988586 0.067171
vn -0.204627 -0.977386 0.052736
vn -0.081668 -0.993286 0.081790
vn -0.081515 -0.993286 0.081973
vn -0.077273 -0.993225 0.086612
vn -0.183081 -0.980926 0.065127
vn -0.176031 -0.981994 0.068422
vn -0.174535 -0.981170 0.082461
vn -0.168889 -0.982086 0.083316
vn 0.022858 -0.997833 0.061403
vn 0.055879 -0.996673 0.059267
vn 0.293924 -0.955351 0.029237
vn 0.291910 -0.955992 0.029023
usemtl flag
s 1
f 9//1 2//2 10//3
f 9//1 10//3 8//4
f 2//2 6//5 4//6
f 2//2 4//6 10//3
f 6//5 3//7 5//7
f 6//5 5//7 4//6
f 7//8 9//1 8//4
f 7//8 8//4 14//9
f 13//10 7//8 14//9
f 13//10 14//9 12//11
f 11//12 13//10 12//11
f 11//12 12//11 15//13
f 16//14 11//12 15//13
f 16//14 15//13 17//15
f 1//16 16//14 17//15
f 25//17 18//18 26//19
f 25//17 26//19 24//20
f 18//18 22//21 20//22
f 18//18 20//22 26//19
f 22//21 19//23 21//23
f 22//21 21//23 20//22
f 23//24 25//17 24//20
f 23//24 24//20 30//25
f 29//26 23//24 30//25
f 29//26 30//25 28//27
f 27//28 29//26 28//27
f 27//28 28//27 31//29
f 32//30 27//28 31//29
f 32//30 31//29 33//31
f 1//16 32//30 33//31
o Cylinder
v -0.004117 0.049725 -0.186731
v -0.004117 0.049725 3.410269
v 0.038961 0.006647 -0.186731
v 0.038961 0.006647 3.410269
v -0.004117 -0.036431 -0.186731
v -0.004117 -0.036431 3.410269
v -0.047194 0.006647 -0.186731
v -0.047194 0.006647 3.410269
vn 0.000000 0.816492 -0.577349
vn 0.000000 0.816492 0.577349
vn 0.816492 0.000000 0.577349
vn 0.816492 0.000000 -0.577349
vn 0.000000 -0.816492 0.577349
vn 0.000000 -0.816492 -0.577349
vn -0.816492 0.000000 0.577349
vn -0.816492 0.000000 -0.577349
usemtl pole
s 1
f 34//32 35//33 37//34
f 34//32 37//34 36//35
f 36//35 37//34 39//36
f 36//35 39//36 38//37
f 37//34 35//33 41//38
f 37//34 41//38 39//36
f 35//33 34//32 40//39
f 35//33 40//39 41//38
f 38//37 39//36 41//38
f 38//37 41//38 40//39
f 34//32 36//35 38//37
f 34//32 38//37 40//39
