# Blender v2.69 (sub 0) OBJ File: 'snake.blend'
# www.blender.org
mtllib snake_000006.mtl
o Cylinder
v -0.333219 -3.229483 0.285614
v -1.257510 4.715454 -0.155917
v -1.014860 3.508005 0.017618
v -1.206701 4.722146 -0.184498
v -0.933326 3.583226 -0.049055
v -1.135416 4.730893 -0.158130
v -0.950756 3.531496 -0.166407
v -1.114937 4.732949 -0.103180
v -1.049722 3.404546 -0.217086
v -1.165746 4.726258 -0.074599
v -1.131257 3.329325 -0.150413
v -1.237031 4.717509 -0.100968
v 0.547498 0.179343 0.285617
v 0.580416 0.274705 0.110881
v 0.646253 0.465428 0.110881
v 0.679171 0.560790 0.285617
v 0.646253 0.465428 0.460352
v 0.580416 0.274705 0.460352
v -0.801404 1.965708 -0.068131
v -0.647648 1.965351 -0.213991
v -0.444467 1.962597 -0.153775
v -0.395041 1.960200 0.052301
v -0.548797 1.960556 0.198161
v -0.751978 1.963310 0.137945
v 1.124893 -1.185005 0.137989
v 1.207165 -1.334302 0.137989
v 1.248300 -1.408950 0.285615
v 1.207164 -1.334302 0.433242
v 1.124893 -1.185005 0.433242
v 1.083758 -1.110356 0.285615
v -0.744052 2.936266 -0.065707
v -0.641656 3.030731 -0.149439
v -0.517371 3.190162 -0.085794
v -0.495480 3.255127 0.061584
v -0.597876 3.160661 0.145316
v -0.722161 3.001230 0.081671
v -0.334876 0.935109 0.173753
v -0.264717 0.933294 -0.026223
v -0.094833 1.048042 -0.079967
v 0.004892 1.164605 0.066265
v -0.065267 1.166421 0.266241
v -0.235151 1.051673 0.319985
v -0.352304 -1.445361 0.177337
v -0.405803 -1.558365 0.177337
v -0.432553 -1.614867 0.285615
v -0.405803 -1.558365 0.393892
v -0.352304 -1.445361 0.393892
v -0.325555 -1.388859 0.285614
v 0.386068 -1.605109 0.157663
v 0.457374 -1.734509 0.157663
v 0.493028 -1.799209 0.285615
v 0.457374 -1.734509 0.413567
v 0.386068 -1.605109 0.413567
v 0.350415 -1.540409 0.285615
v 1.341115 -0.187888 0.120033
v 1.530908 -0.211040 0.120033
v 1.625804 -0.222616 0.285616
v 1.530908 -0.211041 0.451199
v 1.341115 -0.187889 0.451199
v 1.246219 -0.176313 0.285616
v -0.843612 -1.941263 0.197011
v -0.751978 -1.986766 0.197011
v -0.706161 -2.009518 0.285614
v -0.751979 -1.986766 0.374217
v -0.843612 -1.941263 0.374217
v -0.889429 -1.918511 0.285614
v -1.113826 3.381055 -0.033061
v -1.432479 4.224442 -0.202543
v -1.245239 4.248686 -0.264514
v -0.959280 4.283155 -0.158329
v -0.858379 4.295096 0.010519
v -1.046745 4.269168 0.072077
v -1.329253 4.235842 -0.033128
v -1.412909 4.488126 -0.198128
v -1.259574 4.507888 -0.239351
v -1.015607 4.537826 -0.149108
v -0.924974 4.548002 -0.017641
v -1.078309 4.528240 0.023583
v -1.322275 4.498302 -0.066660
vt 0.231465 0.961924
vt 0.246544 0.788561
vt 0.281807 0.752777
vt 0.304369 0.839459
vt 0.281807 0.681209
vt 0.304369 0.594527
vt 0.231465 0.472062
vt 0.803116 0.046683
vt 0.827766 0.220047
vt 0.793352 0.255831
vt 0.211280 0.752777
vt 0.731968 0.414080
vt 0.793352 0.327398
vt 0.803116 0.536546
vt 0.731968 0.169149
vt 0.827767 0.133755
vt 0.855381 0.000000
vt 0.890077 0.212685
vt 0.461179 0.593291
vt 0.455685 0.544002
vt 0.640020 0.591293
vt 0.274461 0.055732
vt 0.313084 0.083089
vt 0.283238 0.189999
vt 0.246178 0.157043
vt 0.114597 0.278181
vt 0.144384 0.317833
vt 0.035376 0.338758
vt 0.372377 0.649664
vt 0.361975 0.603491
vt 0.639407 0.225757
vt 0.658125 0.263909
vt 0.470765 0.285323
vt 0.450380 0.494828
vt 0.449863 0.448545
vt 0.648616 0.492613
vt 0.000000 0.524503
vt 0.026326 0.524503
vt 0.000000 0.722751
vt 0.320081 0.222998
vt 0.351431 0.257050
vt 0.205580 0.391326
vt 0.174230 0.357273
vt 0.091080 0.413304
vt 0.351948 0.557314
vt 0.351431 0.511031
vt 0.676593 0.301916
vt 0.688715 0.336235
vt 0.501784 0.402261
vt 0.482553 0.687269
vt 0.471460 0.645471
vt 0.620750 0.685725
vt 0.189271 0.023211
vt 0.228842 0.034816
vt 0.167416 0.101497
vt 0.203626 0.125140
vt 0.065739 0.195105
vt 0.629011 0.049860
vt 0.658304 0.068985
vt 0.590909 0.149475
vt 0.460594 0.195504
vt 0.463990 0.237024
vt 0.368380 0.141918
vt 0.614344 0.183917
vt 0.449346 0.402261
vt 0.598857 0.410673
vt 0.100434 0.524503
vt 0.100434 0.722751
vt 0.340021 0.316766
vt 0.236930 0.425379
vt 0.830677 0.583229
vt 0.858551 0.583229
vt 0.688715 0.682353
vt 0.688715 0.880601
vt 0.763220 0.880601
vt 0.830677 0.979725
vt 0.763220 0.682353
vt 0.351431 0.110701
vt 0.480162 0.326768
vt 0.504740 0.770866
vt 0.493646 0.729068
vt 0.600437 0.769797
vt 0.110130 0.000000
vt 0.149701 0.011605
vt 0.131206 0.077854
vt 0.094996 0.054211
vt 0.024588 0.119031
vt 0.570424 0.011610
vt 0.599718 0.030735
vt 0.567475 0.115032
vt 0.453801 0.112463
vt 0.457197 0.153983
vt 0.379163 0.108638
vt 0.544040 0.080589
vt 0.630907 0.643690
vt 0.086314 0.233142
vt 0.688715 0.096845
vt 0.351431 0.215978
vt 0.942415 0.000000
vt 1.000000 0.021407
vt 1.000000 0.195890
vt 0.926554 0.719136
vt 0.872488 0.748310
vt 0.918970 0.583229
vt 0.951716 0.835690
vt 0.896646 0.921112
vt 0.796579 0.702548
vt 0.796579 0.860407
vt 0.858551 0.979725
vt 0.872488 0.623618
vt 0.133498 0.702556
vt 0.198117 0.821875
vt 0.133498 0.544697
vt 0.198117 0.425379
vt 0.211280 0.465767
vt 0.553574 0.858604
vt 0.648616 0.798893
vt 0.000000 0.021675
vt 0.464826 0.000000
vt 0.389946 0.075357
vt 0.890077 0.370544
vt 0.933634 0.437422
vt 0.827767 0.449474
vt 0.933634 0.145807
vt 0.224705 1.008608
vt 0.322388 0.862800
vt 0.322388 0.571186
vt 0.224705 0.425379
vt 0.784045 0.000000
vt 0.688715 0.437422
vt 0.784045 0.583229
vt 0.688715 0.145807
vt 0.246544 0.645425
vt 0.211280 0.681209
vt 0.827766 0.363182
vt 0.644411 0.541894
vt 0.011299 0.298010
vt 0.648099 0.446330
vt 0.026326 0.722751
vt 0.059729 0.379252
vt 0.489662 0.367942
vt 0.357597 0.175199
vt 0.610593 0.727761
vt 0.045163 0.157068
vt 0.933634 0.118916
vt 0.951716 0.629773
vt 0.872488 0.939337
vt 0.211280 0.781486
vt 0.855381 0.583229
vn -0.906064 0.269265 -0.326365
vn -0.594440 0.776360 -0.209387
vn -0.047823 0.727592 -0.684286
vn -0.006012 0.171209 -0.985198
vn 0.319681 0.772698 -0.548326
vn 0.603778 0.241859 -0.759545
vn 0.825861 0.468886 0.313120
vn 0.406751 0.899228 0.160924
vn -0.124180 0.778802 0.614795
vn -0.469375 0.736442 0.487136
vn -0.633106 0.223212 0.741142
vn -0.054353 0.290536 0.955290
vn 0.889065 0.268319 0.370830
vn 0.923063 0.133152 0.360790
vn -0.091311 0.063753 0.993774
vn -0.832148 -0.554521 0.000000
vn -0.578478 -0.815302 0.024812
vn -0.310739 -0.130467 -0.941465
vn -0.245521 -0.470260 -0.847652
vn 0.418867 0.367534 -0.830317
vn 0.590442 0.250099 -0.767327
vn 0.971129 0.238502 0.000000
vn 0.633473 0.773034 0.033052
vn 0.232246 0.421094 0.876736
vn -0.310739 -0.130467 0.941465
vn -0.367229 -0.383251 0.847468
vn 0.590442 0.250099 0.767327
vn -0.796136 -0.548540 0.255379
vn -0.944060 -0.189276 -0.269967
vn -0.523331 -0.528550 -0.668355
vn -0.280007 -0.087466 -0.955992
vn 0.263222 0.022309 -0.964446
vn 0.681661 0.136021 -0.718894
vn 0.930143 0.246559 0.272042
vn 0.778161 0.558672 -0.286905
vn 0.162572 0.071688 0.984069
vn -0.345225 -0.072970 0.935667
vn -0.751915 -0.149998 0.641926
vn 0.471084 0.502152 0.725181
vn -0.106845 0.994263 0.000000
vn -0.861110 0.508347 0.000000
vn -0.098697 0.391522 -0.914853
vn -0.329600 0.230964 -0.915403
vn 0.042695 -0.591418 -0.805231
vn 0.477584 -0.360454 -0.801202
vn 0.166845 -0.985961 0.000000
vn 0.744530 -0.667562 0.000000
vn 0.042695 -0.591418 0.805231
vn -0.098697 0.391522 0.914853
vn -0.329600 0.230964 0.915403
vn 0.477584 -0.360454 0.801202
vn -0.885220 -0.253548 -0.389966
vn 0.060549 -0.053438 -0.996704
vn 0.729698 0.293527 -0.617512
vn 0.786126 0.523576 0.328379
vn -0.686361 -0.146886 0.712241
vn 0.130772 0.163671 0.977783
vn -0.970367 0.241615 0.000000
vn -0.204932 0.978759 0.000000
vn -0.623707 0.077944 -0.777734
vn -0.281930 0.613178 -0.737877
vn 0.052156 -0.350291 -0.935148
vn 0.330546 -0.138737 -0.933500
vn 0.989380 -0.145238 0.000000
vn 0.516098 -0.856502 0.000000
vn 0.052156 -0.350291 0.935148
vn -0.623707 0.077944 0.777734
vn -0.281930 0.613178 0.737877
vn 0.330546 -0.138737 0.933500
vn 0.610462 0.214057 -0.762535
vn 0.643574 0.093997 -0.759545
vn -0.117801 -0.145299 -0.982330
vn -0.006317 0.010926 -0.999908
vn -0.785119 -0.522996 -0.331706
vn -0.937651 -0.107364 -0.330546
vn -0.710227 -0.304056 0.634877
vn 0.342387 -0.939543 -0.000061
vn -0.648915 -0.035463 0.760002
vn -0.018891 0.051149 0.998505
usemtl scale
s 1
f 74/1/1 2/2/2 4/3/3
f 75/4/4 4/3/3 6/5/5
f 76/6/6 6/5/5 77/7/7
f 77/8/7 8/9/8 10/10/9
f 4/3/3 2/2/2 12/11/10
f 79/12/11 12/13/10 74/14/1
f 78/15/12 10/10/9 79/12/11
f 5/16/13 71/17/14 3/18/15
f 60/19/16 13/20/17 55/21/18
f 55/22/18 14/23/19 15/24/20
f 56/25/21 15/24/20 57/26/22
f 57/26/22 16/27/23 17/28/24
f 59/29/25 18/30/26 13/20/17
f 58/31/27 17/32/24 59/33/25
f 37/34/28 19/35/29 38/36/30
f 38/37/30 20/38/31 39/39/32
f 39/40/32 21/41/33 22/42/34
f 40/43/35 22/42/34 23/44/36
f 42/45/37 24/46/38 19/35/29
f 41/47/39 23/48/36 24/49/38
f 54/50/40 30/51/41 49/52/42
f 49/53/42 25/54/43 50/55/44
f 50/55/44 26/56/45 51/57/46
f 51/58/46 27/59/47 52/60/48
f 53/61/49 29/62/50 54/63/40
f 52/60/48 28/64/51 53/61/49
f 19/35/29 31/65/52 32/66/53
f 20/38/31 32/67/53 33/68/54
f 21/41/33 33/69/54 34/70/55
f 22/71/34 34/72/55 23/73/36
f 24/74/38 36/75/56 19/76/29
f 23/73/36 35/77/57 24/74/38
f 13/20/17 37/34/28 38/36/30
f 14/23/19 38/78/30 39/40/32
f 15/24/20 39/40/32 16/27/23
f 16/27/23 40/43/35 17/28/24
f 18/30/26 42/45/37 13/20/17
f 17/32/24 41/47/39 18/79/26
f 66/80/58 48/81/59 61/82/60
f 61/83/60 43/84/61 44/85/62
f 62/86/63 44/85/62 63/87/64
f 63/88/64 45/89/65 46/90/66
f 65/91/67 47/92/68 48/93/59
f 64/94/69 46/90/66 65/91/67
f 48/81/59 54/50/40 49/52/42
f 43/84/61 49/53/42 50/55/44
f 44/85/62 50/55/44 51/57/46
f 45/89/65 51/58/46 46/90/66
f 47/92/68 53/61/49 48/93/59
f 46/90/66 52/60/48 47/92/68
f 30/51/41 60/19/16 25/95/43
f 25/54/43 55/22/18 26/56/45
f 26/56/45 56/25/21 27/96/47
f 27/59/47 57/97/22 58/31/27
f 29/62/50 59/33/25 60/98/16
f 28/64/51 58/31/27 59/33/25
f 7/99/70 70/100/71 71/101/14
f 9/102/72 69/103/73 70/104/71
f 11/105/74 68/106/75 69/103/73
f 35/77/57 3/107/15 36/75/56
f 36/75/56 67/108/76 31/109/52
f 34/72/55 5/110/13 3/107/15
f 33/68/54 7/111/70 34/112/55
f 32/67/53 9/113/72 7/111/70
f 31/114/52 11/115/74 9/113/72
f 1/116/77 66/80/58 61/82/60
f 1/116/77 61/82/60 62/117/63
f 1/118/77 62/86/63 63/87/64
f 1/119/77 63/88/64 64/94/69
f 1/119/77 65/91/67 66/120/58
f 1/119/77 64/94/69 65/91/67
f 67/121/76 73/122/78 11/123/74
f 3/18/15 72/124/79 67/121/76
f 68/125/75 74/1/1 75/4/4
f 69/126/73 75/4/4 76/6/6
f 70/127/71 76/6/6 71/128/14
f 71/129/14 77/8/7 78/15/12
f 73/130/78 79/12/11 68/131/75
f 72/132/79 78/15/12 73/130/78
f 75/4/4 74/1/1 4/3/3
f 76/6/6 75/4/4 6/5/5
f 6/5/5 8/133/8 77/7/7
f 78/15/12 77/8/7 10/10/9
f 8/133/8 6/5/5 10/134/9
f 6/5/5 4/3/3 12/11/10
f 10/134/9 6/5/5 12/11/10
f 12/13/10 2/135/2 74/14/1
f 10/10/9 12/13/10 79/12/11
f 71/17/14 72/124/79 3/18/15
f 13/20/17 14/136/19 55/21/18
f 56/25/21 55/22/18 15/24/20
f 15/24/20 16/27/23 57/26/22
f 58/137/27 57/26/22 17/28/24
f 60/19/16 59/29/25 13/20/17
f 17/32/24 18/79/26 59/33/25
f 19/35/29 20/138/31 38/36/30
f 20/38/31 21/139/33 39/39/32
f 40/43/35 39/40/32 22/42/34
f 41/140/39 40/43/35 23/44/36
f 37/34/28 42/45/37 19/35/29
f 42/141/37 41/47/39 24/49/38
f 30/51/41 25/95/43 49/52/42
f 25/54/43 26/56/45 50/55/44
f 26/56/45 27/96/47 51/57/46
f 27/59/47 28/64/51 52/60/48
f 29/62/50 30/142/41 54/63/40
f 28/64/51 29/62/50 53/61/49
f 20/138/31 19/35/29 32/66/53
f 21/139/33 20/38/31 33/68/54
f 22/42/34 21/41/33 34/70/55
f 34/72/55 35/77/57 23/73/36
f 36/75/56 31/109/52 19/76/29
f 35/77/57 36/75/56 24/74/38
f 14/136/19 13/20/17 38/36/30
f 15/24/20 14/23/19 39/40/32
f 39/40/32 40/43/35 16/27/23
f 40/43/35 41/140/39 17/28/24
f 42/45/37 37/34/28 13/20/17
f 41/47/39 42/141/37 18/79/26
f 48/81/59 43/143/61 61/82/60
f 62/86/63 61/83/60 44/85/62
f 44/85/62 45/144/65 63/87/64
f 64/94/69 63/88/64 46/90/66
f 66/120/58 65/91/67 48/93/59
f 46/90/66 47/92/68 65/91/67
f 43/143/61 48/81/59 49/52/42
f 44/85/62 43/84/61 50/55/44
f 45/144/65 44/85/62 51/57/46
f 51/58/46 52/60/48 46/90/66
f 53/61/49 54/63/40 48/93/59
f 52/60/48 53/61/49 47/92/68
f 60/19/16 55/21/18 25/95/43
f 55/22/18 56/25/21 26/56/45
f 56/25/21 57/26/22 27/96/47
f 28/64/51 27/59/47 58/31/27
f 30/142/41 29/62/50 60/98/16
f 29/62/50 28/64/51 59/33/25
f 5/145/13 7/99/70 71/101/14
f 7/146/70 9/102/72 70/104/71
f 9/102/72 11/105/74 69/103/73
f 3/107/15 67/108/76 36/75/56
f 67/108/76 11/147/74 31/109/52
f 35/77/57 34/72/55 3/107/15
f 7/111/70 5/148/13 34/112/55
f 33/68/54 32/67/53 7/111/70
f 32/67/53 31/114/52 9/113/72
f 73/122/78 68/149/75 11/123/74
f 72/124/79 73/122/78 67/121/76
f 69/126/73 68/125/75 75/4/4
f 70/127/71 69/126/73 76/6/6
f 76/6/6 77/7/7 71/128/14
f 72/132/79 71/129/14 78/15/12
f 79/12/11 74/14/1 68/131/75
f 78/15/12 79/12/11 73/130/78
