# Blender v2.69 (sub 0) OBJ File: 'snake.blend'
# www.blender.org
mtllib snake_000025.mtl
o Cylinder
v -0.895156 -3.346422 0.285614
v -1.551854 4.421676 0.483999
v -1.489833 3.149765 0.574678
v -1.502855 4.422361 0.451723
v -1.402661 3.226698 0.517811
v -1.429349 4.418275 0.472548
v -1.437854 3.208184 0.394645
v -1.404842 4.413503 0.525648
v -1.560219 3.112738 0.328344
v -1.453841 4.412817 0.557924
v -1.647392 3.035805 0.385210
v -1.527346 4.416903 0.537100
v 0.547498 0.179343 0.285617
v 0.580416 0.274705 0.110881
v 0.646253 0.465428 0.110881
v 0.679171 0.560790 0.285617
v 0.646253 0.465428 0.460352
v 0.580416 0.274705 0.460352
v -1.175275 1.607939 0.069801
v -1.026458 1.669502 -0.067966
v -0.824704 1.686652 -0.005379
v -0.771766 1.642240 0.194973
v -0.920583 1.580678 0.332740
v -1.122337 1.563527 0.270154
v 1.124893 -1.185005 0.137989
v 1.207165 -1.334302 0.137989
v 1.248300 -1.408950 0.285615
v 1.207164 -1.334302 0.433242
v 1.124893 -1.185005 0.433242
v 1.083758 -1.110356 0.285615
v -1.324912 2.583346 0.331497
v -1.215436 2.679962 0.260081
v -1.061763 2.799829 0.343345
v -1.017566 2.823078 0.498025
v -1.127042 2.726462 0.569441
v -1.280714 2.606596 0.486177
v -0.455647 0.742040 0.196305
v -0.393260 0.766501 -0.004757
v -0.268599 0.929430 -0.057951
v -0.206324 1.067899 0.089915
v -0.268711 1.043437 0.290976
v -0.393372 0.880508 0.344171
v -0.352304 -1.445361 0.177337
v -0.405803 -1.558365 0.177337
v -0.432553 -1.614867 0.285615
v -0.405803 -1.558365 0.393892
v -0.352304 -1.445361 0.393892
v -0.325555 -1.388859 0.285614
v 0.386068 -1.605109 0.157663
v 0.457374 -1.734509 0.157663
v 0.493028 -1.799209 0.285615
v 0.457374 -1.734509 0.413567
v 0.386068 -1.605109 0.413567
v 0.350415 -1.540409 0.285615
v 1.341115 -0.187888 0.120033
v 1.530908 -0.211040 0.120033
v 1.625804 -0.222616 0.285616
v 1.530908 -0.211041 0.451199
v 1.341115 -0.187889 0.451199
v 1.246219 -0.176313 0.285616
v -0.843612 -1.941263 0.197011
v -0.751978 -1.986766 0.197011
v -0.706161 -2.009518 0.285614
v -0.751979 -1.986766 0.374217
v -0.843612 -1.941263 0.374217
v -0.889429 -1.918511 0.285614
v -1.612199 3.054319 0.508377
v -1.805352 3.967591 0.425449
v -1.621675 3.966828 0.349626
v -1.326844 3.949827 0.434644
v -1.213218 3.934542 0.595533
v -1.398286 3.933616 0.671126
v -1.689516 3.951705 0.586125
v -1.743977 4.224249 0.442515
v -1.592878 4.222901 0.389896
v -1.341312 4.208918 0.461165
v -1.240845 4.196283 0.585053
v -1.391943 4.197631 0.637672
v -1.643509 4.211615 0.566403
vt 0.231465 0.961924
vt 0.246544 0.788561
vt 0.281807 0.752777
vt 0.304369 0.839459
vt 0.304369 0.594527
vt 0.281807 0.681209
vt 0.231465 0.472062
vt 0.803116 0.046683
vt 0.827766 0.220047
vt 0.793352 0.255831
vt 0.211280 0.752777
vt 0.731968 0.414080
vt 0.793352 0.327398
vt 0.803116 0.536546
vt 0.731968 0.169149
vt 0.827767 0.133755
vt 0.855381 0.000000
vt 0.890077 0.212685
vt 0.461179 0.593291
vt 0.455685 0.544002
vt 0.640020 0.591293
vt 0.274461 0.055732
vt 0.313084 0.083089
vt 0.283238 0.189999
vt 0.246178 0.157043
vt 0.114597 0.278181
vt 0.144384 0.317833
vt 0.035376 0.338758
vt 0.372377 0.649664
vt 0.361975 0.603491
vt 0.639407 0.225757
vt 0.658125 0.263909
vt 0.470765 0.285323
vt 0.450380 0.494828
vt 0.449863 0.448545
vt 0.648616 0.492613
vt 0.000000 0.524503
vt 0.026326 0.524503
vt 0.000000 0.722751
vt 0.320081 0.222998
vt 0.351431 0.257050
vt 0.205580 0.391326
vt 0.174230 0.357273
vt 0.091080 0.413304
vt 0.351948 0.557314
vt 0.351431 0.511031
vt 0.676593 0.301916
vt 0.688715 0.336235
vt 0.501784 0.402261
vt 0.482553 0.687269
vt 0.471460 0.645471
vt 0.620750 0.685725
vt 0.189271 0.023211
vt 0.228842 0.034816
vt 0.167416 0.101497
vt 0.203626 0.125140
vt 0.065739 0.195105
vt 0.629011 0.049860
vt 0.658304 0.068985
vt 0.590909 0.149475
vt 0.460594 0.195504
vt 0.463990 0.237024
vt 0.368380 0.141918
vt 0.614344 0.183917
vt 0.449346 0.402261
vt 0.598857 0.410673
vt 0.100434 0.524503
vt 0.100434 0.722751
vt 0.340021 0.316766
vt 0.236930 0.425379
vt 0.830677 0.583229
vt 0.858551 0.583229
vt 0.688715 0.682353
vt 0.688715 0.880601
vt 0.763220 0.880601
vt 0.830677 0.979725
vt 0.763220 0.682353
vt 0.351431 0.110701
vt 0.480162 0.326768
vt 0.504740 0.770866
vt 0.493646 0.729068
vt 0.600437 0.769797
vt 0.110130 0.000000
vt 0.149701 0.011605
vt 0.131206 0.077854
vt 0.094996 0.054211
vt 0.024588 0.119031
vt 0.570424 0.011610
vt 0.599718 0.030735
vt 0.567475 0.115032
vt 0.453801 0.112463
vt 0.457197 0.153983
vt 0.379163 0.108638
vt 0.544040 0.080589
vt 0.630907 0.643690
vt 0.086314 0.233142
vt 0.688715 0.096845
vt 0.351431 0.215978
vt 0.942415 0.000000
vt 1.000000 0.021407
vt 1.000000 0.195890
vt 0.926554 0.719136
vt 0.872488 0.748310
vt 0.918970 0.583229
vt 0.951716 0.835690
vt 0.896646 0.921112
vt 0.796579 0.702548
vt 0.796579 0.860407
vt 0.858551 0.979725
vt 0.872488 0.623618
vt 0.133498 0.702556
vt 0.198117 0.821875
vt 0.133498 0.544697
vt 0.198117 0.425379
vt 0.211280 0.465767
vt 0.553574 0.858604
vt 0.648616 0.798893
vt 0.000000 0.021675
vt 0.464826 0.000000
vt 0.389946 0.075357
vt 0.890077 0.370544
vt 0.933634 0.437422
vt 0.827767 0.449474
vt 0.933634 0.145807
vt 0.224705 1.008608
vt 0.322388 0.862800
vt 0.322388 0.571186
vt 0.224705 0.425379
vt 0.784045 0.000000
vt 0.688715 0.437422
vt 0.784045 0.583229
vt 0.688715 0.145807
vt 0.246544 0.645425
vt 0.211280 0.681209
vt 0.827766 0.363182
vt 0.644411 0.541894
vt 0.011299 0.298010
vt 0.648099 0.446330
vt 0.026326 0.722751
vt 0.059729 0.379252
vt 0.489662 0.367942
vt 0.357597 0.175199
vt 0.610593 0.727761
vt 0.045163 0.157068
vt 0.933634 0.118916
vt 0.951716 0.629773
vt 0.872488 0.939337
vt 0.211280 0.781486
vt 0.855381 0.583229
vn -0.873348 0.426435 -0.235328
vn -0.477615 0.870693 -0.117191
vn 0.018128 0.770165 -0.637562
vn -0.050813 0.235206 -0.970611
vn 0.577746 0.194708 -0.792627
vn 0.397137 0.749077 -0.530198
vn 0.910733 0.315348 0.266640
vn 0.554765 0.813318 0.175268
vn 0.046052 0.746055 0.664266
vn -0.309854 0.765831 0.563433
vn -0.533830 0.268136 0.801904
vn 0.061586 0.233833 0.970306
vn 0.915494 0.092044 0.391614
vn 0.956694 -0.031281 0.289315
vn -0.071017 -0.058290 0.995758
vn -0.832148 -0.554521 0.000000
vn -0.501083 -0.865017 0.024323
vn -0.310739 -0.130467 -0.941465
vn -0.196142 -0.456313 -0.867916
vn 0.350414 0.418958 -0.837642
vn 0.590442 0.250099 -0.767327
vn 0.971129 0.238502 0.000000
vn 0.548082 0.836024 0.024903
vn 0.232337 0.452864 0.860744
vn -0.310739 -0.130467 0.941465
vn -0.301126 -0.398938 0.866085
vn 0.590442 0.250099 0.767327
vn -0.637440 -0.734306 0.233345
vn -0.877438 -0.334391 -0.343822
vn -0.394452 -0.592608 -0.702261
vn -0.270333 0.034577 -0.962127
vn 0.206000 0.136174 -0.968993
vn 0.620350 0.400189 -0.674490
vn 0.860744 0.373455 0.345866
vn 0.576373 0.765130 -0.286874
vn 0.132359 -0.134190 0.982055
vn -0.284310 -0.188940 0.939909
vn -0.694266 -0.473830 0.541673
vn 0.364330 0.587054 0.722892
vn -0.106845 0.994263 0.000000
vn -0.861110 0.508347 0.000000
vn -0.098697 0.391522 -0.914853
vn -0.329600 0.230964 -0.915403
vn 0.042695 -0.591418 -0.805231
vn 0.477584 -0.360454 -0.801202
vn 0.166845 -0.985961 0.000000
vn 0.744530 -0.667562 0.000000
vn 0.042695 -0.591418 0.805231
vn -0.098697 0.391522 0.914853
vn -0.329600 0.230964 0.915403
vn 0.477584 -0.360454 0.801202
vn -0.900937 -0.259377 -0.347819
vn -0.100803 0.184484 -0.977630
vn 0.632862 0.454085 -0.627064
vn 0.830073 0.414624 0.372875
vn -0.597278 -0.356975 0.718162
vn 0.164708 -0.061983 0.984375
vn -0.914823 0.403821 0.000000
vn -0.204932 0.978759 0.000000
vn -0.543413 0.211066 -0.812464
vn -0.281930 0.613178 -0.737877
vn 0.052156 -0.350291 -0.935148
vn 0.368786 -0.210242 -0.905393
vn 0.917234 -0.398297 0.000000
vn 0.516098 -0.856502 0.000000
vn 0.052156 -0.350291 0.935148
vn -0.543413 0.211066 0.812464
vn -0.281930 0.613178 0.737877
vn 0.368786 -0.210242 0.905393
vn 0.646443 0.210334 -0.733360
vn 0.597034 0.041749 -0.801111
vn -0.173040 0.034364 -0.984283
vn -0.074496 0.084719 -0.993591
vn -0.883389 -0.331858 -0.330851
vn -0.965392 0.062624 -0.253121
vn -0.706839 -0.301370 0.639912
vn -0.071841 -0.997406 0.000000
vn -0.590747 0.009278 0.806757
vn 0.056673 -0.009796 0.998321
usemtl scale
s 1
f 74/1/1 2/2/2 4/3/3
f 75/4/4 4/3/3 76/5/5
f 76/5/5 6/6/6 77/7/7
f 77/8/7 8/9/8 10/10/9
f 4/3/3 2/2/2 12/11/10
f 79/12/11 12/13/10 74/14/1
f 78/15/12 10/10/9 12/13/10
f 5/16/13 71/17/14 3/18/15
f 60/19/16 13/20/17 55/21/18
f 55/22/18 14/23/19 15/24/20
f 56/25/21 15/24/20 57/26/22
f 57/26/22 16/27/23 17/28/24
f 59/29/25 18/30/26 13/20/17
f 58/31/27 17/32/24 59/33/25
f 37/34/28 19/35/29 38/36/30
f 38/37/30 20/38/31 39/39/32
f 39/40/32 21/41/33 22/42/34
f 40/43/35 22/42/34 23/44/36
f 42/45/37 24/46/38 19/35/29
f 41/47/39 23/48/36 24/49/38
f 54/50/40 30/51/41 49/52/42
f 49/53/42 25/54/43 50/55/44
f 50/55/44 26/56/45 51/57/46
f 51/58/46 27/59/47 52/60/48
f 53/61/49 29/62/50 54/63/40
f 52/60/48 28/64/51 53/61/49
f 19/35/29 31/65/52 32/66/53
f 20/38/31 32/67/53 33/68/54
f 21/41/33 33/69/54 34/70/55
f 22/71/34 34/72/55 23/73/36
f 24/74/38 36/75/56 19/76/29
f 23/73/36 35/77/57 24/74/38
f 13/20/17 37/34/28 38/36/30
f 14/23/19 38/78/30 15/24/20
f 15/24/20 39/40/32 16/27/23
f 16/27/23 40/43/35 17/28/24
f 18/30/26 42/45/37 13/20/17
f 17/32/24 41/47/39 18/79/26
f 66/80/58 48/81/59 61/82/60
f 61/83/60 43/84/61 44/85/62
f 62/86/63 44/85/62 63/87/64
f 63/88/64 45/89/65 46/90/66
f 65/91/67 47/92/68 48/93/59
f 64/94/69 46/90/66 65/91/67
f 48/81/59 54/50/40 49/52/42
f 43/84/61 49/53/42 50/55/44
f 44/85/62 50/55/44 51/57/46
f 45/89/65 51/58/46 46/90/66
f 47/92/68 53/61/49 48/93/59
f 46/90/66 52/60/48 47/92/68
f 30/51/41 60/19/16 25/95/43
f 25/54/43 55/22/18 26/56/45
f 26/56/45 56/25/21 27/96/47
f 27/59/47 57/97/22 58/31/27
f 29/62/50 59/33/25 60/98/16
f 28/64/51 58/31/27 59/33/25
f 7/99/70 70/100/71 71/101/14
f 9/102/72 69/103/73 70/104/71
f 11/105/74 68/106/75 69/103/73
f 35/77/57 3/107/15 36/75/56
f 36/75/56 67/108/76 31/109/52
f 34/72/55 5/110/13 3/107/15
f 33/68/54 7/111/70 34/112/55
f 32/67/53 9/113/72 33/68/54
f 31/114/52 11/115/74 9/113/72
f 1/116/77 66/80/58 61/82/60
f 1/116/77 61/82/60 62/117/63
f 1/118/77 62/86/63 63/87/64
f 1/119/77 63/88/64 64/94/69
f 1/119/77 65/91/67 66/120/58
f 1/119/77 64/94/69 65/91/67
f 67/121/76 73/122/78 11/123/74
f 3/18/15 72/124/79 67/121/76
f 68/125/75 74/1/1 75/4/4
f 69/126/73 75/4/4 76/5/5
f 70/127/71 76/5/5 71/128/14
f 71/129/14 77/8/7 78/15/12
f 73/130/78 79/12/11 68/131/75
f 72/132/79 78/15/12 73/130/78
f 75/4/4 74/1/1 4/3/3
f 4/3/3 6/6/6 76/5/5
f 6/6/6 8/133/8 77/7/7
f 78/15/12 77/8/7 10/10/9
f 6/6/6 4/3/3 12/11/10
f 8/133/8 6/6/6 12/11/10
f 10/134/9 8/133/8 12/11/10
f 12/13/10 2/135/2 74/14/1
f 79/12/11 78/15/12 12/13/10
f 71/17/14 72/124/79 3/18/15
f 13/20/17 14/136/19 55/21/18
f 56/25/21 55/22/18 15/24/20
f 15/24/20 16/27/23 57/26/22
f 58/137/27 57/26/22 17/28/24
f 60/19/16 59/29/25 13/20/17
f 17/32/24 18/79/26 59/33/25
f 19/35/29 20/138/31 38/36/30
f 20/38/31 21/139/33 39/39/32
f 40/43/35 39/40/32 22/42/34
f 41/140/39 40/43/35 23/44/36
f 37/34/28 42/45/37 19/35/29
f 42/141/37 41/47/39 24/49/38
f 30/51/41 25/95/43 49/52/42
f 25/54/43 26/56/45 50/55/44
f 26/56/45 27/96/47 51/57/46
f 27/59/47 28/64/51 52/60/48
f 29/62/50 30/142/41 54/63/40
f 28/64/51 29/62/50 53/61/49
f 20/138/31 19/35/29 32/66/53
f 21/139/33 20/38/31 33/68/54
f 22/42/34 21/41/33 34/70/55
f 34/72/55 35/77/57 23/73/36
f 36/75/56 31/109/52 19/76/29
f 35/77/57 36/75/56 24/74/38
f 14/136/19 13/20/17 38/36/30
f 38/78/30 39/40/32 15/24/20
f 39/40/32 40/43/35 16/27/23
f 40/43/35 41/140/39 17/28/24
f 42/45/37 37/34/28 13/20/17
f 41/47/39 42/141/37 18/79/26
f 48/81/59 43/143/61 61/82/60
f 62/86/63 61/83/60 44/85/62
f 44/85/62 45/144/65 63/87/64
f 64/94/69 63/88/64 46/90/66
f 66/120/58 65/91/67 48/93/59
f 46/90/66 47/92/68 65/91/67
f 43/143/61 48/81/59 49/52/42
f 44/85/62 43/84/61 50/55/44
f 45/144/65 44/85/62 51/57/46
f 51/58/46 52/60/48 46/90/66
f 53/61/49 54/63/40 48/93/59
f 52/60/48 53/61/49 47/92/68
f 60/19/16 55/21/18 25/95/43
f 55/22/18 56/25/21 26/56/45
f 56/25/21 57/26/22 27/96/47
f 28/64/51 27/59/47 58/31/27
f 30/142/41 29/62/50 60/98/16
f 29/62/50 28/64/51 59/33/25
f 5/145/13 7/99/70 71/101/14
f 7/146/70 9/102/72 70/104/71
f 9/102/72 11/105/74 69/103/73
f 3/107/15 67/108/76 36/75/56
f 67/108/76 11/147/74 31/109/52
f 35/77/57 34/72/55 3/107/15
f 7/111/70 5/148/13 34/112/55
f 9/113/72 7/111/70 33/68/54
f 32/67/53 31/114/52 9/113/72
f 73/122/78 68/149/75 11/123/74
f 72/124/79 73/122/78 67/121/76
f 69/126/73 68/125/75 75/4/4
f 70/127/71 69/126/73 76/5/5
f 76/5/5 77/7/7 71/128/14
f 72/132/79 71/129/14 78/15/12
f 79/12/11 74/14/1 68/131/75
f 78/15/12 79/12/11 73/130/78
