# Blender v2.69 (sub 0) OBJ File: 'snake.blend'
# www.blender.org
mtllib snake_000001.mtl
o Cylinder
v -0.131044 -3.115738 0.285614
v -0.803331 3.410232 0.244170
v -1.105735 2.225490 0.383760
v -0.767655 3.396425 0.199676
v -1.027923 2.258125 0.285619
v -0.696306 3.368809 0.199676
v -1.105735 2.225490 0.187478
v -0.660630 3.355002 0.244170
v -1.261358 2.160218 0.187478
v -0.696306 3.368810 0.288663
v -1.339170 2.127583 0.285619
v -0.767656 3.396425 0.288663
v 0.547498 0.179343 0.285617
v 0.580416 0.274705 0.110881
v 0.646253 0.465428 0.110881
v 0.679171 0.560790 0.285617
v 0.646253 0.465428 0.460352
v 0.580416 0.274705 0.460352
v -1.302600 0.581156 0.285618
v -1.197447 0.568040 0.102078
v -0.987143 0.541807 0.102078
v -0.881991 0.528691 0.285618
v -0.987143 0.541807 0.469158
v -1.197447 0.568039 0.469158
v 1.124893 -1.185005 0.137989
v 1.207165 -1.334302 0.137989
v 1.248300 -1.408950 0.285615
v 1.207164 -1.334302 0.433242
v 1.124893 -1.185005 0.433242
v 1.083758 -1.110356 0.285615
v -1.163730 1.597659 0.285619
v -1.066010 1.638644 0.162368
v -0.870570 1.720616 0.162368
v -0.772850 1.761601 0.285619
v -0.870571 1.720616 0.408870
v -1.066010 1.638644 0.408870
v -0.442207 0.152086 0.285618
v -0.463745 0.255841 0.102077
v -0.506820 0.463352 0.102077
v -0.528358 0.567107 0.285618
v -0.506820 0.463352 0.469158
v -0.463745 0.255841 0.469158
v -0.352304 -1.445361 0.177337
v -0.405803 -1.558365 0.177337
v -0.432553 -1.614867 0.285615
v -0.405803 -1.558365 0.393892
v -0.352304 -1.445361 0.393892
v -0.325555 -1.388859 0.285614
v 0.386068 -1.605109 0.157663
v 0.457374 -1.734509 0.157663
v 0.493028 -1.799209 0.285615
v 0.457374 -1.734509 0.413567
v 0.386068 -1.605109 0.413567
v 0.350415 -1.540409 0.285615
v 1.341115 -0.187888 0.120033
v 1.530908 -0.211040 0.120033
v 1.625804 -0.222616 0.285616
v 1.530908 -0.211041 0.451199
v 1.341115 -0.187889 0.451199
v 1.246219 -0.176313 0.285616
v -0.843612 -1.941263 0.197011
v -0.751978 -1.986766 0.197011
v -0.706161 -2.009518 0.285614
v -0.751979 -1.986766 0.374217
v -0.843612 -1.941263 0.374217
v -0.889429 -1.918511 0.285614
v -1.261358 2.160218 0.383760
v -1.190783 3.060884 0.285620
v -1.045418 3.004622 0.162369
v -0.759509 2.893201 0.162369
v -0.616040 2.838646 0.285620
v -0.763255 2.894058 0.408870
v -1.045419 3.004622 0.408870
v -1.050691 3.284583 0.269356
v -0.928596 3.237329 0.177370
v -0.684408 3.142819 0.177370
v -0.562314 3.095564 0.269356
v -0.684407 3.142819 0.361341
v -0.928596 3.237328 0.361341
vt 0.231465 0.961924
vt 0.246544 0.788561
vt 0.281807 0.752777
vt 0.304369 0.839459
vt 0.281807 0.681209
vt 0.304369 0.594527
vt 0.231465 0.472062
vt 0.803116 0.046683
vt 0.827766 0.220047
vt 0.793352 0.255831
vt 0.211280 0.681209
vt 0.246544 0.645425
vt 0.731968 0.414080
vt 0.793352 0.327398
vt 0.803116 0.536546
vt 0.731968 0.169149
vt 0.827767 0.133755
vt 0.855381 0.000000
vt 0.890077 0.212685
vt 0.461179 0.593291
vt 0.455685 0.544002
vt 0.640020 0.591293
vt 0.274461 0.055732
vt 0.313084 0.083089
vt 0.283238 0.189999
vt 0.246178 0.157043
vt 0.114597 0.278181
vt 0.144384 0.317833
vt 0.035376 0.338758
vt 0.372377 0.649664
vt 0.361975 0.603491
vt 0.639407 0.225757
vt 0.658125 0.263909
vt 0.470765 0.285323
vt 0.450380 0.494828
vt 0.449863 0.448545
vt 0.648616 0.492613
vt 0.000000 0.524503
vt 0.026326 0.524503
vt 0.026326 0.722751
vt 0.320081 0.222998
vt 0.351431 0.257050
vt 0.174230 0.357273
vt 0.205580 0.391326
vt 0.091080 0.413304
vt 0.351948 0.557314
vt 0.351431 0.511031
vt 0.676593 0.301916
vt 0.688715 0.336235
vt 0.489662 0.367942
vt 0.482553 0.687269
vt 0.471460 0.645471
vt 0.620750 0.685725
vt 0.189271 0.023211
vt 0.228842 0.034816
vt 0.167416 0.101497
vt 0.203626 0.125140
vt 0.065739 0.195105
vt 0.629011 0.049860
vt 0.658304 0.068985
vt 0.590909 0.149475
vt 0.460594 0.195504
vt 0.463990 0.237024
vt 0.368380 0.141918
vt 0.614344 0.183917
vt 0.449346 0.402261
vt 0.598857 0.410673
vt 0.100434 0.524503
vt 0.100434 0.722751
vt 0.340021 0.316766
vt 0.236930 0.425379
vt 0.830677 0.583229
vt 0.858551 0.583229
vt 0.688715 0.682353
vt 0.688715 0.880601
vt 0.763220 0.880601
vt 0.830677 0.979725
vt 0.763220 0.682353
vt 0.644411 0.541894
vt 0.351431 0.110701
vt 0.059729 0.379252
vt 0.504740 0.770866
vt 0.493646 0.729068
vt 0.600437 0.769797
vt 0.110130 0.000000
vt 0.149701 0.011605
vt 0.131206 0.077854
vt 0.094996 0.054211
vt 0.024588 0.119031
vt 0.570424 0.011610
vt 0.599718 0.030735
vt 0.567475 0.115032
vt 0.453801 0.112463
vt 0.457197 0.153983
vt 0.379163 0.108638
vt 0.544040 0.080589
vt 0.630907 0.643690
vt 0.086314 0.233142
vt 0.688715 0.096845
vt 0.351431 0.215978
vt 0.942415 0.000000
vt 1.000000 0.021407
vt 1.000000 0.195890
vt 0.926554 0.719136
vt 0.872488 0.748310
vt 0.918970 0.583229
vt 0.951716 0.835690
vt 0.896646 0.921112
vt 0.796579 0.702548
vt 0.796579 0.860407
vt 0.858551 0.979725
vt 0.872488 0.623618
vt 0.133498 0.702556
vt 0.198117 0.821875
vt 0.133498 0.544697
vt 0.198117 0.425379
vt 0.211280 0.465767
vt 0.553574 0.858604
vt 0.648616 0.798893
vt 0.000000 0.021675
vt 0.464826 0.000000
vt 0.389946 0.075357
vt 0.890077 0.370544
vt 0.933634 0.437422
vt 0.827767 0.449474
vt 0.933634 0.145807
vt 0.224705 1.008608
vt 0.322388 0.862800
vt 0.322388 0.571186
vt 0.224705 0.425379
vt 0.784045 0.000000
vt 0.688715 0.437422
vt 0.784045 0.583229
vt 0.688715 0.145807
vt 0.211280 0.752777
vt 0.827766 0.363182
vt 0.011299 0.298010
vt 0.480162 0.326768
vt 0.648099 0.446330
vt 0.000000 0.722751
vt 0.501784 0.402261
vt 0.357597 0.175199
vt 0.610593 0.727761
vt 0.045163 0.157068
vt 0.933634 0.118916
vt 0.951716 0.629773
vt 0.872488 0.939337
vt 0.211280 0.781486
vt 0.855381 0.583229
vn -0.727226 0.686270 -0.011567
vn -0.196905 0.979797 -0.034394
vn 0.076388 0.743858 -0.663930
vn -0.245430 0.267830 -0.931639
vn 0.444288 0.601459 -0.663930
vn 0.363018 0.028474 -0.931333
vn 0.999908 0.003754 -0.011078
vn 0.805231 0.591937 -0.034394
vn 0.459365 0.673696 0.578875
vn -0.176977 0.398633 0.899838
vn 0.113865 0.807398 0.578875
vn 0.400586 0.170019 0.900327
vn 0.978057 -0.208228 0.000000
vn 0.938719 -0.344127 0.017792
vn 0.313211 -0.004425 0.949644
vn -0.832148 -0.554521 0.000000
vn -0.241859 -0.970275 0.000000
vn -0.310739 -0.130467 -0.941465
vn -0.103824 -0.414075 -0.904263
vn 0.198309 0.537919 -0.819300
vn 0.590442 0.250099 -0.767327
vn 0.971129 0.238502 0.000000
vn 0.338816 0.940825 0.000000
vn 0.198309 0.537919 0.819300
vn -0.310739 -0.130467 0.941465
vn -0.103824 -0.414075 0.904263
vn 0.590442 0.250099 0.767327
vn -0.189642 -0.981842 0.000000
vn -0.917417 -0.397900 0.000000
vn -0.140202 -0.554674 -0.820154
vn -0.531754 -0.405438 -0.743492
vn 0.227760 0.174566 -0.957915
vn 0.039247 0.485916 -0.873104
vn 0.054353 0.998505 0.000000
vn 0.500961 0.865444 0.000000
vn 0.227760 0.174566 0.957915
vn -0.140202 -0.554674 0.820154
vn -0.531754 -0.405438 0.743492
vn 0.039247 0.485916 0.873104
vn -0.106845 0.994263 0.000000
vn -0.861110 0.508347 0.000000
vn -0.098697 0.391522 -0.914853
vn -0.329600 0.230964 -0.915403
vn 0.042695 -0.591418 -0.805231
vn 0.477584 -0.360454 -0.801202
vn 0.166845 -0.985961 0.000000
vn 0.744530 -0.667562 0.000000
vn 0.042695 -0.591418 0.805231
vn -0.098697 0.391522 0.914853
vn -0.329600 0.230964 0.915403
vn 0.477584 -0.360454 0.801202
vn -0.998230 -0.059236 0.000000
vn -0.384533 -0.006928 -0.923063
vn 0.463698 0.105838 -0.879604
vn 0.975097 0.221686 0.000000
vn -0.384533 -0.006928 0.923063
vn 0.463698 0.105838 0.879604
vn -0.984161 0.177221 0.000000
vn -0.204932 0.978759 0.000000
vn -0.649220 0.009888 -0.760491
vn -0.281930 0.613178 -0.737877
vn 0.052156 -0.350291 -0.935148
vn 0.305643 -0.122105 -0.944243
vn 0.999695 -0.023652 0.000000
vn 0.516098 -0.856502 0.000000
vn 0.052156 -0.350291 0.935148
vn -0.649220 0.009888 0.760491
vn -0.281930 0.613178 0.737877
vn 0.305643 -0.122105 0.944273
vn 0.313211 -0.004639 -0.949644
vn 0.325480 -0.119419 -0.937956
vn -0.505753 0.005005 -0.862636
vn -0.326914 0.125736 -0.936644
vn -0.996551 -0.082797 0.000000
vn -0.930082 0.367077 0.013215
vn -0.505753 0.005036 0.862636
vn 0.499039 -0.866543 -0.000244
vn -0.302622 0.176275 0.936644
vn 0.334086 -0.064425 0.940306
usemtl scale
s 1
f 74/1/1 2/2/2 4/3/3
f 75/4/4 4/3/3 6/5/5
f 76/6/6 6/5/5 77/7/7
f 77/8/7 8/9/8 10/10/9
f 6/5/5 10/11/9 8/12/8
f 79/13/10 12/14/11 74/15/1
f 78/16/12 10/10/9 12/14/11
f 5/17/13 71/18/14 3/19/15
f 60/20/16 13/21/17 55/22/18
f 55/23/18 14/24/19 15/25/20
f 56/26/21 15/25/20 57/27/22
f 57/27/22 16/28/23 17/29/24
f 59/30/25 18/31/26 13/21/17
f 58/32/27 17/33/24 59/34/25
f 37/35/28 19/36/29 38/37/30
f 38/38/30 20/39/31 21/40/32
f 39/41/33 21/42/32 40/43/34
f 40/43/34 22/44/35 23/45/36
f 42/46/37 24/47/38 19/36/29
f 41/48/39 23/49/36 42/50/37
f 54/51/40 30/52/41 49/53/42
f 49/54/42 25/55/43 50/56/44
f 50/56/44 26/57/45 51/58/46
f 51/59/46 27/60/47 52/61/48
f 53/62/49 29/63/50 54/64/40
f 52/61/48 28/65/51 53/62/49
f 19/36/29 31/66/52 32/67/53
f 20/39/31 32/68/53 33/69/54
f 21/42/32 33/70/54 34/71/55
f 22/72/35 34/73/55 23/74/36
f 24/75/38 36/76/56 19/77/29
f 23/74/36 35/78/57 24/75/38
f 13/21/17 37/35/28 14/79/19
f 14/24/19 38/80/30 15/25/20
f 15/25/20 39/41/33 16/28/23
f 16/28/23 40/43/34 41/81/39
f 18/31/26 42/46/37 37/35/28
f 17/33/24 41/48/39 42/50/37
f 66/82/58 48/83/59 61/84/60
f 61/85/60 43/86/61 44/87/62
f 62/88/63 44/87/62 63/89/64
f 63/90/64 45/91/65 46/92/66
f 65/93/67 47/94/68 48/95/59
f 64/96/69 46/92/66 65/93/67
f 48/83/59 54/51/40 49/53/42
f 43/86/61 49/54/42 50/56/44
f 44/87/62 50/56/44 51/58/46
f 45/91/65 51/59/46 46/92/66
f 47/94/68 53/62/49 48/95/59
f 46/92/66 52/61/48 47/94/68
f 30/52/41 60/20/16 25/97/43
f 25/55/43 55/23/18 26/57/45
f 26/57/45 56/26/21 27/98/47
f 27/60/47 57/99/22 58/32/27
f 29/63/50 59/34/25 60/100/16
f 28/65/51 58/32/27 59/34/25
f 7/101/70 70/102/71 71/103/14
f 9/104/72 69/105/73 70/106/71
f 11/107/74 68/108/75 69/105/73
f 35/78/57 3/109/15 36/76/56
f 36/76/56 67/110/76 31/111/52
f 34/73/55 5/112/13 3/109/15
f 33/69/54 7/113/70 34/114/55
f 32/68/53 9/115/72 7/113/70
f 31/116/52 11/117/74 9/115/72
f 1/118/77 66/82/58 61/84/60
f 1/118/77 61/84/60 62/119/63
f 1/120/77 62/88/63 63/89/64
f 1/121/77 63/90/64 64/96/69
f 1/121/77 65/93/67 66/122/58
f 1/121/77 64/96/69 65/93/67
f 67/123/76 73/124/78 11/125/74
f 3/19/15 72/126/79 67/123/76
f 68/127/75 74/1/1 75/4/4
f 69/128/73 75/4/4 76/6/6
f 70/129/71 76/6/6 71/130/14
f 71/131/14 77/8/7 78/16/12
f 73/132/78 79/13/10 68/133/75
f 72/134/79 78/16/12 73/132/78
f 75/4/4 74/1/1 4/3/3
f 76/6/6 75/4/4 6/5/5
f 6/5/5 8/12/8 77/7/7
f 78/16/12 77/8/7 10/10/9
f 4/3/3 2/2/2 12/135/11
f 6/5/5 4/3/3 12/135/11
f 10/11/9 6/5/5 12/135/11
f 12/14/11 2/136/2 74/15/1
f 79/13/10 78/16/12 12/14/11
f 71/18/14 72/126/79 3/19/15
f 13/21/17 14/79/19 55/22/18
f 56/26/21 55/23/18 15/25/20
f 15/25/20 16/28/23 57/27/22
f 58/137/27 57/27/22 17/29/24
f 60/20/16 59/30/25 13/21/17
f 17/33/24 18/138/26 59/34/25
f 19/36/29 20/139/31 38/37/30
f 39/140/33 38/38/30 21/40/32
f 21/42/32 22/44/35 40/43/34
f 41/81/39 40/43/34 23/45/36
f 37/35/28 42/46/37 19/36/29
f 23/49/36 24/141/38 42/50/37
f 30/52/41 25/97/43 49/53/42
f 25/55/43 26/57/45 50/56/44
f 26/57/45 27/98/47 51/58/46
f 27/60/47 28/65/51 52/61/48
f 29/63/50 30/142/41 54/64/40
f 28/65/51 29/63/50 53/62/49
f 20/139/31 19/36/29 32/67/53
f 21/40/32 20/39/31 33/69/54
f 22/44/35 21/42/32 34/71/55
f 34/73/55 35/78/57 23/74/36
f 36/76/56 31/111/52 19/77/29
f 35/78/57 36/76/56 24/75/38
f 37/35/28 38/37/30 14/79/19
f 38/80/30 39/41/33 15/25/20
f 39/41/33 40/43/34 16/28/23
f 17/29/24 16/28/23 41/81/39
f 13/21/17 18/31/26 37/35/28
f 18/138/26 17/33/24 42/50/37
f 48/83/59 43/143/61 61/84/60
f 62/88/63 61/85/60 44/87/62
f 44/87/62 45/144/65 63/89/64
f 64/96/69 63/90/64 46/92/66
f 66/122/58 65/93/67 48/95/59
f 46/92/66 47/94/68 65/93/67
f 43/143/61 48/83/59 49/53/42
f 44/87/62 43/86/61 50/56/44
f 45/144/65 44/87/62 51/58/46
f 51/59/46 52/61/48 46/92/66
f 53/62/49 54/64/40 48/95/59
f 52/61/48 53/62/49 47/94/68
f 60/20/16 55/22/18 25/97/43
f 55/23/18 56/26/21 26/57/45
f 56/26/21 57/27/22 27/98/47
f 28/65/51 27/60/47 58/32/27
f 30/142/41 29/63/50 60/100/16
f 29/63/50 28/65/51 59/34/25
f 5/145/13 7/101/70 71/103/14
f 7/146/70 9/104/72 70/106/71
f 9/104/72 11/107/74 69/105/73
f 3/109/15 67/110/76 36/76/56
f 67/110/76 11/147/74 31/111/52
f 35/78/57 34/73/55 3/109/15
f 7/113/70 5/148/13 34/114/55
f 33/69/54 32/68/53 7/113/70
f 32/68/53 31/116/52 9/115/72
f 73/124/78 68/149/75 11/125/74
f 72/126/79 73/124/78 67/123/76
f 69/128/73 68/127/75 75/4/4
f 70/129/71 69/128/73 76/6/6
f 76/6/6 77/7/7 71/130/14
f 72/134/79 71/131/14 78/16/12
f 79/13/10 74/15/1 68/133/75
f 78/16/12 79/13/10 73/132/78
