# Blender v2.69 (sub 0) OBJ File: 'snake.blend'
# www.blender.org
mtllib snake_000009.mtl
o Cylinder
v -0.479669 -3.285444 0.285614
v -1.456240 4.710176 -0.258357
v -1.123041 3.528437 -0.010326
v -1.405179 4.719454 -0.285738
v -1.046618 3.609781 -0.075855
v -1.335736 4.735244 -0.257778
v -1.057406 3.556261 -0.193204
v -1.317353 4.741755 -0.202436
v -1.144617 3.421398 -0.245023
v -1.368414 4.732476 -0.175055
v -1.221040 3.340055 -0.179493
v -1.437857 4.716686 -0.203015
v 0.547498 0.179343 0.285617
v 0.580416 0.274705 0.110881
v 0.646253 0.465428 0.110881
v 0.679171 0.560790 0.285617
v 0.646253 0.465428 0.460352
v 0.580416 0.274705 0.460352
v -0.752645 2.006218 -0.082602
v -0.596166 2.021991 -0.224663
v -0.395456 2.041597 -0.159493
v -0.351225 2.045430 0.047739
v -0.507705 2.029658 0.189800
v -0.708414 2.010052 0.124630
v 1.124893 -1.185005 0.137989
v 1.207165 -1.334302 0.137989
v 1.248300 -1.408950 0.285615
v 1.207164 -1.334302 0.433242
v 1.124893 -1.185005 0.433242
v 1.083758 -1.110356 0.285615
v -0.804741 2.980436 -0.084797
v -0.708765 3.082592 -0.167093
v -0.599241 3.251960 -0.102017
v -0.585693 3.319171 0.045356
v -0.681669 3.217016 0.127652
v -0.791192 3.047648 0.062575
v -0.296089 0.976344 0.169461
v -0.225240 0.968456 -0.030124
v -0.046673 1.069489 -0.083252
v 0.061043 1.178409 0.063205
v -0.009806 1.186296 0.262789
v -0.188373 1.085263 0.315918
v -0.352304 -1.445361 0.177337
v -0.405803 -1.558365 0.177337
v -0.432553 -1.614867 0.285615
v -0.405803 -1.558365 0.393892
v -0.352304 -1.445361 0.393892
v -0.325555 -1.388859 0.285614
v 0.386068 -1.605109 0.157663
v 0.457374 -1.734509 0.157663
v 0.493028 -1.799209 0.285615
v 0.457374 -1.734509 0.413567
v 0.386068 -1.605109 0.413567
v 0.350415 -1.540409 0.285615
v 1.341115 -0.187888 0.120033
v 1.530908 -0.211040 0.120033
v 1.625804 -0.222616 0.285616
v 1.530908 -0.211041 0.451199
v 1.341115 -0.187889 0.451199
v 1.246219 -0.176313 0.285616
v -0.843612 -1.941263 0.197011
v -0.751978 -1.986766 0.197011
v -0.706161 -2.009518 0.285614
v -0.751979 -1.986766 0.374217
v -0.843612 -1.941263 0.374217
v -0.889429 -1.918511 0.285614
v -1.210252 3.393575 -0.062144
v -1.590348 4.204946 -0.283646
v -1.403608 4.240948 -0.341257
v -1.125039 4.303750 -0.228362
v -1.031151 4.332351 -0.057321
v -1.218855 4.294508 -0.000006
v -1.494129 4.233283 -0.112106
v -1.591750 4.469228 -0.292854
v -1.439139 4.499108 -0.330520
v -1.201478 4.553147 -0.234830
v -1.116426 4.577307 -0.101473
v -1.269035 4.547426 -0.063807
v -1.506698 4.493386 -0.159498
vt 0.231465 0.961924
vt 0.246544 0.788561
vt 0.281807 0.752777
vt 0.304369 0.839459
vt 0.304369 0.594527
vt 0.281807 0.681209
vt 0.231465 0.472062
vt 0.803116 0.046683
vt 0.827766 0.220047
vt 0.793352 0.255831
vt 0.211280 0.681209
vt 0.246544 0.645425
vt 0.731968 0.414080
vt 0.793352 0.327398
vt 0.803116 0.536546
vt 0.731968 0.169149
vt 0.827767 0.133755
vt 0.855381 0.000000
vt 0.890077 0.212685
vt 0.461179 0.593291
vt 0.455685 0.544002
vt 0.640020 0.591293
vt 0.274461 0.055732
vt 0.313084 0.083089
vt 0.283238 0.189999
vt 0.246178 0.157043
vt 0.114597 0.278181
vt 0.144384 0.317833
vt 0.035376 0.338758
vt 0.372377 0.649664
vt 0.361975 0.603491
vt 0.639407 0.225757
vt 0.658125 0.263909
vt 0.470765 0.285323
vt 0.450380 0.494828
vt 0.449863 0.448545
vt 0.648616 0.492613
vt 0.000000 0.524503
vt 0.026326 0.524503
vt 0.000000 0.722751
vt 0.320081 0.222998
vt 0.351431 0.257050
vt 0.205580 0.391326
vt 0.174230 0.357273
vt 0.091080 0.413304
vt 0.351948 0.557314
vt 0.351431 0.511031
vt 0.676593 0.301916
vt 0.688715 0.336235
vt 0.501784 0.402261
vt 0.482553 0.687269
vt 0.471460 0.645471
vt 0.620750 0.685725
vt 0.189271 0.023211
vt 0.228842 0.034816
vt 0.167416 0.101497
vt 0.203626 0.125140
vt 0.065739 0.195105
vt 0.629011 0.049860
vt 0.658304 0.068985
vt 0.590909 0.149475
vt 0.460594 0.195504
vt 0.463990 0.237024
vt 0.368380 0.141918
vt 0.614344 0.183917
vt 0.449346 0.402261
vt 0.598857 0.410673
vt 0.100434 0.524503
vt 0.100434 0.722751
vt 0.340021 0.316766
vt 0.236930 0.425379
vt 0.830677 0.583229
vt 0.858551 0.583229
vt 0.688715 0.682353
vt 0.688715 0.880601
vt 0.763220 0.880601
vt 0.830677 0.979725
vt 0.763220 0.682353
vt 0.351431 0.110701
vt 0.480162 0.326768
vt 0.504740 0.770866
vt 0.493646 0.729068
vt 0.600437 0.769797
vt 0.110130 0.000000
vt 0.149701 0.011605
vt 0.131206 0.077854
vt 0.094996 0.054211
vt 0.024588 0.119031
vt 0.570424 0.011610
vt 0.599718 0.030735
vt 0.567475 0.115032
vt 0.453801 0.112463
vt 0.457197 0.153983
vt 0.379163 0.108638
vt 0.544040 0.080589
vt 0.630907 0.643690
vt 0.086314 0.233142
vt 0.688715 0.096845
vt 0.351431 0.215978
vt 0.942415 0.000000
vt 1.000000 0.021407
vt 1.000000 0.195890
vt 0.926554 0.719136
vt 0.872488 0.748310
vt 0.918970 0.583229
vt 0.951716 0.835690
vt 0.896646 0.921112
vt 0.796579 0.702548
vt 0.796579 0.860407
vt 0.858551 0.979725
vt 0.872488 0.623618
vt 0.133498 0.702556
vt 0.198117 0.821875
vt 0.133498 0.544697
vt 0.198117 0.425379
vt 0.211280 0.465767
vt 0.553574 0.858604
vt 0.648616 0.798893
vt 0.000000 0.021675
vt 0.464826 0.000000
vt 0.389946 0.075357
vt 0.890077 0.370544
vt 0.933634 0.437422
vt 0.827767 0.449474
vt 0.933634 0.145807
vt 0.224705 1.008608
vt 0.322388 0.862800
vt 0.322388 0.571186
vt 0.224705 0.425379
vt 0.784045 0.000000
vt 0.688715 0.437422
vt 0.784045 0.583229
vt 0.688715 0.145807
vt 0.211280 0.752777
vt 0.827766 0.363182
vt 0.644411 0.541894
vt 0.011299 0.298010
vt 0.648099 0.446330
vt 0.026326 0.722751
vt 0.059729 0.379252
vt 0.489662 0.367942
vt 0.357597 0.175199
vt 0.610593 0.727761
vt 0.045163 0.157068
vt 0.933634 0.118916
vt 0.951716 0.629773
vt 0.872488 0.939337
vt 0.211280 0.781486
vt 0.855381 0.583229
vn -0.912870 0.178472 -0.367107
vn -0.646290 0.714316 -0.268410
vn -0.081790 0.685324 -0.723594
vn 0.013825 0.119419 -0.992737
vn 0.608417 0.250008 -0.753166
vn 0.276254 0.766747 -0.579424
vn 0.775445 0.549394 0.311167
vn 0.329051 0.936094 0.124271
vn -0.205817 0.796808 0.568041
vn -0.673421 0.209357 0.708945
vn -0.542070 0.720359 0.432661
vn -0.109684 0.334452 0.935972
vn 0.843501 0.355724 0.402387
vn 0.896878 0.226356 0.379894
vn -0.144261 0.085757 0.985809
vn -0.832148 -0.554521 0.000000
vn -0.596332 -0.802332 0.024628
vn -0.310739 -0.130467 -0.941465
vn -0.261513 -0.469131 -0.843501
vn 0.431135 0.353648 -0.830073
vn 0.590442 0.250099 -0.767327
vn 0.971129 0.238502 0.000000
vn 0.655354 0.754479 0.034791
vn 0.230232 0.413465 0.880886
vn -0.310739 -0.130467 0.941465
vn -0.383709 -0.378094 0.842463
vn 0.590442 0.250099 0.767327
vn -0.812616 -0.519883 0.263283
vn -0.923521 -0.244606 -0.295389
vn -0.538194 -0.515763 -0.666555
vn -0.236152 -0.089877 -0.967528
vn 0.268929 0.009064 -0.963103
vn 0.700522 0.171300 -0.692740
vn 0.914457 0.276467 0.295389
vn 0.797662 0.528092 -0.291147
vn 0.151830 0.084689 0.984741
vn -0.339518 -0.054476 0.938994
vn -0.750175 -0.185827 0.634571
vn 0.492111 0.493118 0.717368
vn -0.106845 0.994263 0.000000
vn -0.861110 0.508347 0.000000
vn -0.098697 0.391522 -0.914853
vn -0.329600 0.230964 -0.915403
vn 0.042695 -0.591418 -0.805231
vn 0.477584 -0.360454 -0.801202
vn 0.166845 -0.985961 0.000000
vn 0.744530 -0.667562 0.000000
vn 0.042695 -0.591418 0.805231
vn -0.098697 0.391522 0.914853
vn -0.329600 0.230964 0.915403
vn 0.477584 -0.360454 0.801202
vn -0.847316 -0.346324 -0.402570
vn 0.076632 -0.052126 -0.995666
vn 0.707480 0.358196 -0.609180
vn 0.728172 0.594989 0.340159
vn -0.678976 -0.211066 0.703116
vn 0.090457 0.181066 0.979278
vn -0.958403 0.285318 0.000000
vn -0.204932 0.978759 0.000000
vn -0.603809 0.119114 -0.788141
vn -0.281930 0.613178 -0.737877
vn 0.052156 -0.350291 -0.935148
vn 0.344035 -0.154759 -0.926084
vn 0.975249 -0.221046 0.000000
vn 0.516098 -0.856502 0.000000
vn 0.052156 -0.350291 0.935148
vn -0.603809 0.119114 0.788141
vn -0.281930 0.613178 0.737877
vn 0.344005 -0.154759 0.926115
vn 0.631642 0.240547 -0.736961
vn 0.660634 0.106082 -0.743156
vn -0.069247 -0.177526 -0.981658
vn 0.026978 -0.038942 -0.998871
vn -0.731651 -0.591906 -0.338084
vn -0.915098 -0.198492 -0.350932
vn -0.701437 -0.346477 0.622791
vn 0.231758 -0.972747 0.000061
vn -0.669607 -0.049837 0.740989
vn -0.058473 0.101413 0.993103
usemtl scale
s 1
f 74/1/1 2/2/2 4/3/3
f 75/4/4 4/3/3 76/5/5
f 76/5/5 6/6/6 77/7/7
f 77/8/7 8/9/8 10/10/9
f 6/6/6 10/11/9 8/12/8
f 79/13/10 12/14/11 74/15/1
f 78/16/12 10/10/9 79/13/10
f 5/17/13 71/18/14 3/19/15
f 60/20/16 13/21/17 55/22/18
f 55/23/18 14/24/19 15/25/20
f 56/26/21 15/25/20 57/27/22
f 57/27/22 16/28/23 17/29/24
f 59/30/25 18/31/26 13/21/17
f 58/32/27 17/33/24 59/34/25
f 37/35/28 19/36/29 38/37/30
f 38/38/30 20/39/31 39/40/32
f 39/41/32 21/42/33 22/43/34
f 40/44/35 22/43/34 23/45/36
f 42/46/37 24/47/38 19/36/29
f 41/48/39 23/49/36 24/50/38
f 54/51/40 30/52/41 49/53/42
f 49/54/42 25/55/43 50/56/44
f 50/56/44 26/57/45 51/58/46
f 51/59/46 27/60/47 52/61/48
f 53/62/49 29/63/50 54/64/40
f 52/61/48 28/65/51 53/62/49
f 19/36/29 31/66/52 32/67/53
f 20/39/31 32/68/53 33/69/54
f 21/42/33 33/70/54 34/71/55
f 22/72/34 34/73/55 23/74/36
f 24/75/38 36/76/56 19/77/29
f 23/74/36 35/78/57 24/75/38
f 13/21/17 37/35/28 38/37/30
f 14/24/19 38/79/30 39/41/32
f 15/25/20 39/41/32 16/28/23
f 16/28/23 40/44/35 17/29/24
f 18/31/26 42/46/37 13/21/17
f 17/33/24 41/48/39 18/80/26
f 66/81/58 48/82/59 61/83/60
f 61/84/60 43/85/61 44/86/62
f 62/87/63 44/86/62 63/88/64
f 63/89/64 45/90/65 46/91/66
f 65/92/67 47/93/68 48/94/59
f 64/95/69 46/91/66 65/92/67
f 48/82/59 54/51/40 49/53/42
f 43/85/61 49/54/42 50/56/44
f 44/86/62 50/56/44 51/58/46
f 45/90/65 51/59/46 46/91/66
f 47/93/68 53/62/49 48/94/59
f 46/91/66 52/61/48 47/93/68
f 30/52/41 60/20/16 25/96/43
f 25/55/43 55/23/18 26/57/45
f 26/57/45 56/26/21 27/97/47
f 27/60/47 57/98/22 58/32/27
f 29/63/50 59/34/25 60/99/16
f 28/65/51 58/32/27 59/34/25
f 7/100/70 70/101/71 71/102/14
f 9/103/72 69/104/73 70/105/71
f 11/106/74 68/107/75 69/104/73
f 35/78/57 3/108/15 36/76/56
f 36/76/56 67/109/76 31/110/52
f 34/73/55 5/111/13 3/108/15
f 33/69/54 7/112/70 34/113/55
f 32/68/53 9/114/72 33/69/54
f 31/115/52 11/116/74 9/114/72
f 1/117/77 66/81/58 61/83/60
f 1/117/77 61/83/60 62/118/63
f 1/119/77 62/87/63 63/88/64
f 1/120/77 63/89/64 64/95/69
f 1/120/77 65/92/67 66/121/58
f 1/120/77 64/95/69 65/92/67
f 67/122/76 73/123/78 11/124/74
f 3/19/15 72/125/79 67/122/76
f 68/126/75 74/1/1 75/4/4
f 69/127/73 75/4/4 76/5/5
f 70/128/71 76/5/5 71/129/14
f 71/130/14 77/8/7 78/16/12
f 73/131/78 79/13/10 68/132/75
f 72/133/79 78/16/12 73/131/78
f 75/4/4 74/1/1 4/3/3
f 4/3/3 6/6/6 76/5/5
f 6/6/6 8/12/8 77/7/7
f 78/16/12 77/8/7 10/10/9
f 6/6/6 4/3/3 10/11/9
f 4/3/3 2/2/2 10/11/9
f 2/2/2 12/134/11 10/11/9
f 12/14/11 2/135/2 74/15/1
f 10/10/9 12/14/11 79/13/10
f 71/18/14 72/125/79 3/19/15
f 13/21/17 14/136/19 55/22/18
f 56/26/21 55/23/18 15/25/20
f 15/25/20 16/28/23 57/27/22
f 58/137/27 57/27/22 17/29/24
f 60/20/16 59/30/25 13/21/17
f 17/33/24 18/80/26 59/34/25
f 19/36/29 20/138/31 38/37/30
f 20/39/31 21/139/33 39/40/32
f 40/44/35 39/41/32 22/43/34
f 41/140/39 40/44/35 23/45/36
f 37/35/28 42/46/37 19/36/29
f 42/141/37 41/48/39 24/50/38
f 30/52/41 25/96/43 49/53/42
f 25/55/43 26/57/45 50/56/44
f 26/57/45 27/97/47 51/58/46
f 27/60/47 28/65/51 52/61/48
f 29/63/50 30/142/41 54/64/40
f 28/65/51 29/63/50 53/62/49
f 20/138/31 19/36/29 32/67/53
f 21/139/33 20/39/31 33/69/54
f 22/43/34 21/42/33 34/71/55
f 34/73/55 35/78/57 23/74/36
f 36/76/56 31/110/52 19/77/29
f 35/78/57 36/76/56 24/75/38
f 14/136/19 13/21/17 38/37/30
f 15/25/20 14/24/19 39/41/32
f 39/41/32 40/44/35 16/28/23
f 40/44/35 41/140/39 17/29/24
f 42/46/37 37/35/28 13/21/17
f 41/48/39 42/141/37 18/80/26
f 48/82/59 43/143/61 61/83/60
f 62/87/63 61/84/60 44/86/62
f 44/86/62 45/144/65 63/88/64
f 64/95/69 63/89/64 46/91/66
f 66/121/58 65/92/67 48/94/59
f 46/91/66 47/93/68 65/92/67
f 43/143/61 48/82/59 49/53/42
f 44/86/62 43/85/61 50/56/44
f 45/144/65 44/86/62 51/58/46
f 51/59/46 52/61/48 46/91/66
f 53/62/49 54/64/40 48/94/59
f 52/61/48 53/62/49 47/93/68
f 60/20/16 55/22/18 25/96/43
f 55/23/18 56/26/21 26/57/45
f 56/26/21 57/27/22 27/97/47
f 28/65/51 27/60/47 58/32/27
f 30/142/41 29/63/50 60/99/16
f 29/63/50 28/65/51 59/34/25
f 5/145/13 7/100/70 71/102/14
f 7/146/70 9/103/72 70/105/71
f 9/103/72 11/106/74 69/104/73
f 3/108/15 67/109/76 36/76/56
f 67/109/76 11/147/74 31/110/52
f 35/78/57 34/73/55 3/108/15
f 7/112/70 5/148/13 34/113/55
f 9/114/72 7/112/70 33/69/54
f 32/68/53 31/115/52 9/114/72
f 73/123/78 68/149/75 11/124/74
f 72/125/79 73/123/78 67/122/76
f 69/127/73 68/126/75 75/4/4
f 70/128/71 69/127/73 76/5/5
f 76/5/5 77/7/7 71/129/14
f 72/133/79 71/130/14 78/16/12
f 79/13/10 74/15/1 68/132/75
f 78/16/12 79/13/10 73/131/78
