# Blender v2.65 (sub 0) OBJ File: 'fish.blend'
# www.blender.org
mtllib fish_000009.mtl
o Sphere
v -1.450851 0.002249 2.454946
v 1.892482 0.036766 1.625907
v 4.002232 0.057276 0.735493
v 4.323135 0.060426 -0.044828
v 3.141086 0.048831 -0.175923
v 3.819434 0.055486 -0.378000
v 1.720623 0.034496 -0.820367
v 1.599103 -0.090922 1.380059
v 2.863805 -0.184563 1.121869
v 3.708844 -0.247047 0.735501
v 4.005576 -0.268971 -0.044820
v 2.847699 -0.255492 -0.175915
v 3.594886 -0.177433 -0.377994
v 1.598358 -0.085318 -0.820363
v 1.250476 -0.200216 1.380068
v 2.219608 -0.386420 1.121890
v 2.871696 -0.952787 0.735524
v 3.094539 -0.554517 0.279798
v 2.867142 -0.510854 -0.175916
v 2.219580 -0.386516 -0.562238
v 1.249204 -0.179193 -0.820350
v 0.727819 -0.276218 1.380078
v 1.253847 -0.526566 1.121919
v 1.606245 -0.685728 0.735564
v 1.734237 -0.702430 0.279838
v 1.609739 -0.654945 -0.175879
v 1.258576 -0.491296 -0.562208
v 0.730848 -0.267271 -0.820338
v -0.014179 -0.308889 1.380080
v -0.004394 -0.599035 1.121933
v 0.043099 -0.847658 0.735582
v 0.188545 -1.101195 0.279828
v 0.158867 -1.018780 -0.175885
v 0.049816 -0.706480 -0.562201
v 0.002737 -0.369923 -0.820336
v -1.089401 0.005983 1.470728
v -1.161783 -0.296231 1.380080
v -2.131740 -0.562079 1.121935
v -2.782145 -0.522958 0.619771
v -3.009918 -0.567476 0.279873
v -2.782145 -0.522958 -0.060026
v -2.116331 -0.641447 -0.562191
v -1.150481 -0.362184 -0.820333
v -2.135202 -0.235832 1.380080
v -3.934245 -0.449630 0.661637
v -3.551418 -0.407480 0.342229
v -3.986405 -0.416383 0.279878
v -3.552708 -0.410471 0.217518
v -3.959171 -0.444122 -0.348170
v -2.131442 -0.262486 -0.820335
v -2.787749 -0.151642 1.100460
v -3.546827 -0.173932 0.395091
v -6.562011 0.787744 0.439678
v -6.106115 0.567746 0.279917
v -6.562012 0.787780 0.088190
v -5.118217 0.208326 0.081475
v -2.790854 -0.182017 -0.540716
v -3.016995 -0.039207 1.100459
v -5.487249 0.625661 0.478314
v -7.735083 1.600110 1.466776
v -6.627288 1.128201 0.279912
v -7.735085 1.600354 -0.906918
v -5.485562 0.641733 0.081473
v -3.017613 -0.051841 -0.540717
v -2.789135 0.089782 1.100459
v -5.057511 0.606348 0.478297
v -6.462472 1.370583 0.439651
v -5.999543 1.191466 0.279888
v -6.462473 1.370619 0.088162
v -3.548763 0.125438 0.164654
v -2.789254 0.078594 -0.540717
v -2.140098 0.225549 1.380080
v -3.917086 0.398297 0.661630
v -3.544141 0.329000 0.342225
v -3.950286 0.377583 0.279867
v -3.546316 0.334857 0.217515
v -3.932940 0.400964 -0.348180
v -2.139661 0.225752 -0.820335
v -1.168017 0.308107 1.380080
v -2.143383 0.553402 1.121935
v -2.792988 0.498880 0.619771
v -3.021655 0.538554 0.279873
v -2.792988 0.498880 -0.060026
v -2.142363 0.562598 -0.562190
v -1.166313 0.292728 -0.820330
v -0.020378 0.345880 1.380081
v -0.020170 0.627774 1.121934
v -0.011669 0.827479 0.735591
v -0.007732 0.897684 0.279869
v -0.008819 0.831963 -0.175851
v -0.017191 0.633633 -0.562189
v -0.021425 0.335937 -0.820331
v 0.722049 0.326171 1.380079
v 1.243647 0.584168 1.121921
v 1.591754 0.757256 0.735569
v 1.714553 0.816357 0.279844
v 1.593105 0.753315 -0.175872
v 1.244025 0.583245 -0.562204
v 0.720640 0.326606 -0.820336
v -0.016269 -0.009077 -0.910980
v 1.245942 0.259920 1.380069
v 2.210822 0.466113 1.121892
v 2.851161 1.044957 0.735529
v 3.082146 0.651141 0.279801
v 2.855692 0.603029 -0.175914
v 2.211079 0.464073 -0.562235
v 1.246142 0.258929 -0.820350
v 1.596515 0.158744 1.380059
v 2.859051 0.276904 1.121873
v 3.702647 0.355782 0.735502
v 3.998867 0.383527 -0.044818
v 2.841502 0.347337 -0.175914
v 3.590143 0.283952 -0.377993
v 1.596661 0.157037 -0.820361
v -0.302844 -1.720380 -0.049657
v -0.440734 -1.694525 -0.505373
v -1.906949 -2.724906 -0.195013
v -1.927648 -2.637987 -1.078765
v -2.339652 1.420911 -0.194940
v -2.340813 1.322122 -1.078696
v -0.603381 1.255406 -0.049598
v -0.726779 1.170311 -0.505318
v -2.332600 -1.261692 2.479770
v -0.994901 -2.055906 1.654655
v 0.332311 -2.588196 0.419737
v 0.554506 -2.831932 -1.036933
v -2.394576 1.182870 2.479777
v -1.097476 2.010211 1.654668
v 0.012900 2.566097 0.419805
v 0.015174 2.773534 -1.036810
v -0.432494 -0.876220 2.356625
v 1.119431 -1.614184 1.594998
v 2.174741 -2.056229 0.455135
v 2.547050 -2.194607 -0.889395
v -0.447559 0.911089 2.356628
v 1.101694 1.660543 1.595002
v 2.129743 2.156660 0.455155
v 2.489879 2.333506 -0.889372
v -3.134013 -1.988011 0.621958
v -2.434487 -1.872738 -0.402148
v -3.263168 1.649317 0.621975
v -2.574201 1.529781 -0.402128
v 0.497455 0.037681 2.779872
v 2.607202 0.058557 1.889472
v -7.498688 0.600105 -0.223341
v -10.943656 2.985783 2.792941
v -7.206377 2.311729 -0.223421
v -7.524043 2.706001 2.507592
v -6.251434 2.476682 -0.554050
v -6.700343 0.028540 -0.418043
v -7.873413 0.840730 2.324569
vt 0.000000 0.000000
vt 1.000000 0.000000
vt 1.000000 1.000000
vt 0.000000 1.000000
vn 0.979095 0.010132 -0.203009
vn 0.917295 0.009186 -0.398022
vn 0.516160 -0.661458 -0.544053
vn 0.348735 -0.834986 -0.425581
vn 0.167394 -0.000244 -0.985870
vn 0.999542 0.006989 -0.029298
vn 0.639363 -0.758995 -0.122806
vn 0.126560 -0.245125 -0.961180
vn 0.158116 -0.701956 -0.694418
vn 0.074374 -0.406903 -0.910428
vn 0.206580 -0.911954 -0.354411
vn 0.119602 -0.731773 -0.670949
vn 0.069460 -0.437544 -0.896481
vn 0.227210 -0.893674 -0.386883
vn 0.031220 -0.788873 -0.613758
vn 0.030061 -0.451704 -0.891629
vn -0.324595 -0.346599 -0.880032
vn -0.166326 -0.971923 -0.166234
vn -0.488174 -0.776330 0.398663
vn -0.733970 -0.507553 0.451247
vn 0.428388 -0.841487 0.329173
vn -0.116428 -0.822016 -0.557390
vn -0.024049 -0.425855 -0.904447
vn -0.340587 -0.911130 -0.231910
vn -0.427381 -0.893185 -0.139622
vn -0.448622 -0.633717 -0.630146
vn -0.170324 0.168767 -0.970794
vn -0.217231 -0.958586 -0.184118
vn -0.362255 -0.931455 0.033692
vn -0.426557 -0.780145 -0.457533
vn -0.193121 0.100375 -0.976012
vn -0.577746 -0.811151 -0.090732
vn 0.141820 -0.058596 -0.988128
vn -0.139225 0.335124 -0.931791
vn -0.022584 0.575854 -0.817225
vn -0.231361 -0.217536 -0.948210
vn -0.448012 0.313425 -0.837245
vn -0.162297 -0.114200 -0.980102
vn 0.069887 0.997528 -0.002869
vn -0.168187 0.889645 -0.424512
vn -0.102268 0.851253 -0.514664
vn -0.025636 0.453475 -0.890896
vn 0.121281 0.990143 0.069735
vn 0.286019 0.958098 -0.013672
vn 0.071444 0.974487 0.212622
vn -0.012818 0.831233 -0.555712
vn -0.002472 0.473159 -0.880947
vn -0.124668 0.292306 -0.948149
vn 0.290262 0.863918 0.411512
vn 0.063875 0.778069 -0.624866
vn 0.028871 0.458663 -0.888119
vn 0.134983 0.923276 -0.359600
vn 0.447310 0.892148 -0.062838
vn 0.112217 0.949644 0.292489
vn -0.905728 0.220588 0.361888
vn 0.155736 0.692953 -0.703940
vn 0.069155 0.390423 -0.918027
vn 0.200110 0.908872 -0.365886
vn 0.626209 0.769738 -0.123692
vn 0.122379 0.244179 -0.961943
vn 0.331614 0.841334 -0.426771
vn 0.002533 0.002289 -0.999969
vn 0.502853 0.671621 -0.544084
vn -0.702689 -0.258370 -0.662893
vn -0.727500 -0.157842 -0.667684
vn 0.238014 0.461074 -0.854823
vn 0.425794 -0.368236 -0.826472
vn 0.830134 0.008789 0.557451
vn -0.821528 -0.066286 -0.566271
vn 0.129948 0.748100 0.650716
vn -0.812555 -0.008332 0.582812
vn 0.107303 -0.743278 0.660298
vn 0.300912 -0.425794 0.853298
vn 0.777337 0.079958 0.623920
vn 0.521989 -0.667165 0.531358
vn 0.197394 -0.934935 0.294778
vn 0.268258 -0.915494 -0.299814
vn 0.097568 -0.582659 0.806818
vn 0.068422 -0.371441 0.925901
vn -0.301004 -0.908200 0.290750
vn -0.387585 -0.920316 0.052339
vn -0.203375 -0.666555 0.717154
vn -0.413892 -0.892911 0.177160
vn -0.416822 -0.903714 0.097476
vn -0.160588 -0.540117 0.826106
vn -0.120212 -0.830775 0.543443
vn -0.110050 -0.979125 0.170843
vn -0.021455 -0.488845 0.872066
vn -0.424421 -0.366161 0.828089
vn -0.177496 -0.901700 0.394177
vn -0.247353 0.041810 0.968017
vn -0.739280 -0.671194 -0.053987
vn -0.462508 -0.885678 0.040315
vn -0.461165 -0.280648 0.841731
vn -0.380657 0.077609 0.921445
vn 0.177801 -0.110050 0.977874
vn -0.947600 0.101474 0.302866
vn -0.302164 -0.258614 0.917478
vn 0.075289 0.605609 0.792169
vn -0.117313 0.979217 -0.165319
vn -0.186834 0.382824 0.904691
vn 0.243568 0.969695 -0.017701
vn -0.126316 0.936644 0.326609
vn -0.050356 0.686850 0.725028
vn -0.225959 0.047945 0.972930
vn -0.135960 0.842555 0.521134
vn -0.121708 0.988281 0.092074
vn -0.031678 0.491043 0.870540
vn 0.242653 0.680349 0.691519
vn 0.361003 0.849117 0.385479
vn 0.114536 0.433576 0.893765
vn 0.303934 0.499466 0.811243
vn 0.425092 0.739647 0.521683
vn 0.182989 0.262246 0.947478
vn 0.086032 0.583544 0.807489
vn 0.183599 0.932981 0.309488
vn 0.060671 0.373974 0.925443
vn 0.258431 0.919797 -0.295175
vn 0.508621 0.677511 0.531236
vn 0.292459 0.431959 0.853145
vn 0.092257 0.745354 0.660207
vn -0.059114 -0.001343 0.998230
vn -0.933897 -0.032624 -0.355968
vn -0.617908 0.147313 -0.772301
vn 0.966826 0.074679 0.244240
vn 0.623920 0.207526 0.753410
vn -0.531877 0.168126 -0.829920
vn 0.521226 0.200446 0.829524
vn -0.886868 -0.288644 -0.360729
vn -0.650227 -0.235725 -0.722221
vn -0.527665 -0.283090 -0.800867
vn 0.898099 -0.276131 0.342235
vn 0.658376 -0.227821 0.717368
vn 0.530229 -0.279763 0.800348
vn -0.020814 0.999420 -0.026124
vn -0.970458 0.239235 -0.030335
vn -0.518479 0.071657 -0.852046
vn 0.999908 -0.012482 0.001434
vn -0.980956 -0.109897 -0.159978
vn 0.926450 -0.314097 0.207343
vn -0.917142 -0.327769 -0.226630
vn 0.505844 0.726981 0.464309
vn 0.379040 -0.007843 0.925321
vn -0.170629 -0.858272 0.483963
vn -0.828028 0.169378 -0.534440
vn -0.809931 0.147526 -0.567644
usemtl Material
s 1
f 5/1/1 4/2/2 11/3/3
f 5/1/1 11/3/3 12/4/4
f 7/1/5 6/2/6 13/3/7
f 7/1/5 13/3/7 14/4/8
f 6/1/6 5/2/1 12/3/4
f 6/1/6 12/3/4 13/4/7
f 14/1/8 13/2/7 20/3/9
f 14/1/8 20/3/9 21/4/10
f 13/1/7 12/2/4 19/3/11
f 13/1/7 19/3/11 20/4/9
f 21/1/10 20/2/9 27/3/12
f 21/1/10 27/3/12 28/4/13
f 20/1/9 19/2/11 26/3/14
f 20/1/9 26/3/14 27/4/12
f 28/1/13 27/2/12 34/3/15
f 28/1/13 34/3/15 35/4/16
f 27/1/12 26/2/14 33/3/17
f 27/1/12 33/3/17 34/4/15
f 25/1/18 32/2/19 117/3/20
f 25/1/18 117/3/20 115/4/21
f 35/1/16 34/2/15 42/3/22
f 35/1/16 42/3/22 43/4/23
f 34/1/15 33/2/17 41/3/24
f 34/1/15 41/3/24 42/4/22
f 33/1/17 32/2/19 40/3/25
f 33/1/17 40/3/25 41/4/24
f 43/1/23 42/2/22 49/3/26
f 43/1/23 49/3/26 50/4/27
f 42/1/22 41/2/24 48/3/28
f 42/1/22 48/3/28 49/4/26
f 41/1/24 40/2/25 47/3/29
f 41/1/24 47/3/29 48/4/28
f 50/1/27 49/2/26 56/3/30
f 50/1/27 56/3/30 57/4/31
f 49/1/26 48/2/28 55/3/32
f 49/1/26 55/3/32 56/4/30
f 57/1/31 56/2/30 63/3/33
f 57/1/31 63/3/33 64/4/34
f 64/1/34 63/2/33 70/3/35
f 64/1/34 70/3/35 71/4/36
f 71/1/36 70/2/35 77/3/37
f 71/1/36 77/3/37 78/4/38
f 70/1/35 69/2/39 76/3/40
f 70/1/35 76/3/40 77/4/37
f 78/1/38 77/2/37 84/3/41
f 78/1/38 84/3/41 85/4/42
f 77/1/37 76/2/40 83/3/43
f 77/1/37 83/3/43 84/4/41
f 76/1/40 75/2/44 82/3/45
f 76/1/40 82/3/45 83/4/43
f 85/1/42 84/2/41 91/3/46
f 85/1/42 91/3/46 92/4/47
f 84/1/41 83/2/43 90/3/48
f 84/1/41 90/3/48 91/4/46
f 83/1/43 82/2/45 89/3/49
f 83/1/43 89/3/49 90/4/48
f 92/1/47 91/2/46 98/3/50
f 92/1/47 98/3/50 99/4/51
f 91/1/46 90/2/48 97/3/52
f 91/1/46 97/3/52 98/4/50
f 89/1/49 96/2/53 121/3/54
f 89/1/49 121/3/54 119/4/55
f 99/1/51 98/2/50 106/3/56
f 99/1/51 106/3/56 107/4/57
f 98/1/50 97/2/52 105/3/58
f 98/1/50 105/3/58 106/4/56
f 107/1/57 106/2/56 113/3/59
f 107/1/57 113/3/59 114/4/60
f 106/1/56 105/2/58 112/3/61
f 106/1/56 112/3/61 113/4/59
f 100/1/62 7/2/5 14/3/8
f 100/1/62 14/2/8 21/3/10
f 100/1/62 21/2/10 28/3/13
f 100/1/62 28/2/13 35/3/16
f 100/1/62 35/2/16 43/3/23
f 100/1/62 43/2/23 50/3/27
f 100/1/62 50/2/27 57/3/31
f 100/1/62 57/2/31 64/3/34
f 100/1/62 64/2/34 71/3/36
f 100/1/62 71/2/36 78/3/38
f 100/1/62 78/2/38 85/3/42
f 100/1/62 85/2/42 92/3/47
f 100/1/62 92/2/47 99/3/51
f 100/1/62 99/2/51 107/3/57
f 100/1/62 107/2/57 114/3/60
f 114/1/60 113/2/59 6/3/6
f 114/1/60 6/3/6 7/4/5
f 113/1/59 112/2/61 5/3/1
f 113/1/59 5/3/1 6/4/6
f 112/1/61 111/2/63 4/3/2
f 112/1/61 4/3/2 5/4/1
f 100/1/62 114/2/60 7/3/5
f 32/1/19 33/2/17 118/3/64
f 32/1/19 118/3/64 117/4/20
f 90/1/48 89/2/49 119/3/55
f 90/1/48 119/3/55 120/4/65
f 97/1/52 90/2/48 120/3/65
f 97/1/52 120/3/65 122/4/66
f 33/1/17 26/2/14 116/3/67
f 33/1/17 116/3/67 118/4/64
f 82/1/45 83/2/43 142/3/68
f 82/1/45 142/3/68 141/4/68
f 40/1/25 41/2/24 140/3/69
f 40/1/25 140/3/69 139/4/69
usemtl Material.001
f 2/1/70 1/2/71 8/3/72
f 2/1/70 8/3/72 9/4/73
f 4/1/2 3/2/74 10/3/75
f 4/1/2 10/3/75 11/4/3
f 3/1/74 2/2/70 9/3/73
f 3/1/74 9/3/73 10/4/75
f 11/1/3 10/2/75 17/3/76
f 11/1/3 17/3/76 18/4/77
f 10/1/75 9/2/73 16/3/78
f 10/1/75 16/3/78 17/4/76
f 9/1/73 8/2/72 15/3/79
f 9/1/73 15/3/79 16/4/78
f 17/1/76 16/2/78 23/3/80
f 17/1/76 23/3/80 24/4/81
f 16/1/78 15/2/79 22/3/82
f 16/1/78 22/3/82 23/4/80
f 24/1/81 23/2/80 30/3/83
f 24/1/81 30/3/83 31/4/84
f 23/1/80 22/2/82 29/3/85
f 23/1/80 29/3/85 30/4/83
f 31/1/84 30/2/83 38/3/86
f 31/1/84 38/3/86 39/4/87
f 30/1/83 29/2/85 37/3/88
f 30/1/83 37/3/88 38/4/86
f 39/1/87 38/2/86 45/3/89
f 39/1/87 45/3/89 46/4/90
f 38/1/86 37/2/88 44/3/91
f 38/1/86 44/3/91 45/4/89
f 47/1/29 46/2/90 53/3/92
f 47/1/29 53/3/92 54/4/93
f 46/1/90 45/2/89 52/3/94
f 46/1/90 52/3/94 53/4/92
f 45/1/89 44/2/91 51/3/95
f 45/1/89 51/3/95 52/4/94
f 53/1/92 52/2/94 59/3/96
f 53/1/92 59/3/96 60/4/97
f 52/1/94 51/2/95 58/3/98
f 52/1/94 58/3/98 59/4/96
f 60/1/97 59/2/96 66/3/99
f 60/1/97 66/3/99 67/4/100
f 59/1/96 58/2/98 65/3/101
f 59/1/96 65/3/101 66/4/99
f 68/1/102 67/2/100 74/3/103
f 68/1/102 74/3/103 75/4/44
f 67/1/100 66/2/99 73/3/104
f 67/1/100 73/3/104 74/4/103
f 66/1/99 65/2/101 72/3/105
f 66/1/99 72/3/105 73/4/104
f 74/1/103 73/2/104 80/3/106
f 74/1/103 80/3/106 81/4/107
f 73/1/104 72/2/105 79/3/108
f 73/1/104 79/3/108 80/4/106
f 81/1/107 80/2/106 87/3/109
f 81/1/107 87/3/109 88/4/110
f 80/1/106 79/2/108 86/3/111
f 80/1/106 86/3/111 87/4/109
f 88/1/110 87/2/109 94/3/112
f 88/1/110 94/3/112 95/4/113
f 87/1/109 86/2/111 93/3/114
f 87/1/109 93/3/114 94/4/112
f 95/1/113 94/2/112 102/3/115
f 95/1/113 102/3/115 103/4/116
f 94/1/112 93/2/114 101/3/117
f 94/1/112 101/3/117 102/4/115
f 104/1/118 103/2/116 110/3/119
f 104/1/118 110/3/119 111/4/63
f 103/1/116 102/2/115 109/3/120
f 103/1/116 109/3/120 110/4/119
f 102/1/115 101/2/117 108/3/121
f 102/1/115 108/3/121 109/4/120
f 1/1/71 36/2/122 8/3/72
f 8/1/72 36/2/122 15/3/79
f 15/1/79 36/2/122 22/3/82
f 22/1/82 36/2/122 29/3/85
f 29/1/85 36/2/122 37/3/88
f 37/1/88 36/2/122 44/3/91
f 44/1/91 36/2/122 51/3/95
f 51/1/95 36/2/122 58/3/98
f 58/1/98 36/2/122 65/3/101
f 65/1/101 36/2/122 72/3/105
f 72/1/105 36/2/122 79/3/108
f 79/1/108 36/2/122 86/3/111
f 86/1/111 36/2/122 93/3/114
f 93/1/114 36/2/122 101/3/117
f 101/1/117 36/2/122 108/3/121
f 36/2/122 1/3/71 108/1/121
f 111/1/63 110/2/119 3/3/74
f 111/1/63 3/3/74 4/4/2
f 110/1/119 109/2/120 2/3/70
f 110/1/119 2/3/70 3/4/74
f 1/3/71 2/4/70 109/1/120
f 1/3/71 109/1/120 108/2/121
f 30/1/83 31/2/84 125/3/123
f 30/1/83 125/3/123 124/4/124
f 87/1/109 88/2/110 129/3/125
f 87/1/109 129/3/125 128/4/126
f 29/1/85 30/2/83 124/3/124
f 29/1/85 124/3/124 123/4/127
f 86/1/111 87/2/109 128/3/126
f 86/1/111 128/3/126 127/4/128
f 23/1/80 24/2/81 133/3/129
f 23/1/80 133/3/129 132/4/130
f 22/1/82 23/2/80 132/3/130
f 22/1/82 132/3/130 131/4/131
f 94/1/112 95/2/113 137/3/132
f 94/1/112 137/3/132 136/4/133
f 93/1/114 94/2/112 136/3/133
f 93/1/114 136/3/133 135/4/134
f 3/1/74 2/2/70 143/3/135
f 3/1/74 143/3/135 144/4/135
usemtl Material.002
f 12/1/4 11/2/3 18/3/77
f 12/1/4 18/3/77 19/4/11
f 18/1/77 17/2/76 24/3/81
f 18/1/77 24/3/81 25/4/18
f 19/1/11 18/2/77 25/3/18
f 19/1/11 25/3/18 26/4/14
f 25/1/18 24/2/81 31/3/84
f 25/1/18 31/3/84 32/4/19
f 32/1/19 31/2/84 39/3/87
f 32/1/19 39/3/87 40/4/25
f 40/1/25 39/2/87 46/3/90
f 40/1/25 46/3/90 47/4/29
f 48/1/28 47/2/29 54/3/93
f 48/1/28 54/3/93 55/4/32
f 54/1/93 53/2/92 60/3/97
f 54/1/93 60/3/97 61/4/136
f 56/1/30 55/2/32 62/3/137
f 56/1/30 62/3/137 63/4/33
f 55/1/32 54/2/93 61/3/136
f 55/1/32 61/3/136 62/4/137
f 61/1/136 60/2/97 67/3/100
f 61/1/136 67/3/100 68/4/102
f 63/1/33 62/2/137 69/3/39
f 63/1/33 69/3/39 70/4/35
f 62/1/137 61/2/136 68/3/102
f 62/1/137 68/3/102 69/4/39
f 69/1/39 68/2/102 75/3/44
f 69/1/39 75/3/44 76/4/40
f 75/1/44 74/2/103 81/3/107
f 75/1/44 81/3/107 82/4/45
f 82/1/45 81/2/107 88/3/110
f 82/1/45 88/3/110 89/4/49
f 89/1/49 88/2/110 95/3/113
f 89/1/49 95/3/113 96/4/53
f 96/1/53 95/2/113 103/3/116
f 96/1/53 103/3/116 104/4/118
f 97/1/52 96/2/53 104/3/118
f 97/1/52 104/3/118 105/4/58
f 105/1/58 104/2/118 111/3/63
f 105/1/58 111/3/63 112/4/61
f 116/1/67 115/2/21 117/3/20
f 116/1/67 117/3/20 118/4/64
f 120/1/65 119/2/55 121/3/54
f 120/1/65 121/3/54 122/4/66
f 26/1/14 25/2/18 115/3/21
f 26/1/14 115/3/21 116/4/67
f 96/1/53 97/2/52 122/3/66
f 96/1/53 122/3/66 121/4/54
f 88/1/110 89/2/49 130/3/138
f 88/1/110 130/3/138 129/4/125
f 31/1/84 32/2/19 126/3/139
f 31/1/84 126/3/139 125/4/123
f 95/1/113 96/2/53 138/3/140
f 95/1/113 138/3/140 137/4/132
f 24/1/81 25/2/18 134/3/141
f 24/1/81 134/3/141 133/4/129
f 60/1/97 67/2/100 147/3/142
f 60/1/97 147/3/142 146/4/143
f 53/1/92 60/2/97 146/3/143
f 53/1/92 146/3/143 145/4/144
f 67/1/100 60/2/97 148/3/145
f 67/1/100 148/3/145 149/4/145
f 60/1/97 53/2/92 150/3/146
f 60/1/97 150/3/146 151/4/146
