# Blender v2.65 (sub 0) OBJ File: 'fish.blend'
# www.blender.org
mtllib fish_000008.mtl
o Sphere
v -1.450843 0.002386 2.454946
v 1.893137 0.020816 1.625912
v 4.003062 0.006494 0.735511
v 4.323972 0.004875 -0.044808
v 3.141906 0.010855 -0.175910
v 3.820264 0.007424 -0.377983
v 1.721416 0.017389 -0.820361
v 1.599118 -0.101527 1.380063
v 2.863204 -0.217565 1.121881
v 3.707804 -0.293453 0.735518
v 4.004387 -0.319786 -0.044801
v 2.846648 -0.289092 -0.175902
v 3.594284 -0.222145 -0.377977
v 1.598717 -0.101091 -0.820357
v 1.250100 -0.206017 1.380070
v 2.217911 -0.408837 1.121899
v 2.866324 -0.986714 0.735539
v 3.091625 -0.591774 0.279813
v 2.864509 -0.544732 -0.175903
v 2.217748 -0.410770 -0.562229
v 1.249508 -0.193172 -0.820347
v 0.727436 -0.276953 1.380079
v 1.251773 -0.534284 1.121922
v 1.602751 -0.702002 0.735571
v 1.730142 -0.732183 0.279845
v 1.605976 -0.680006 -0.175873
v 1.255905 -0.509438 -0.562204
v 0.729435 -0.271402 -0.820337
v -0.014179 -0.308889 1.380080
v -0.006590 -0.595710 1.121934
v 0.026928 -0.829449 0.735585
v 0.128276 -1.039557 0.279842
v 0.106836 -0.960046 -0.175873
v 0.030000 -0.676108 -0.562197
v -0.003747 -0.351029 -0.820334
v -1.089401 0.005983 1.470728
v -1.161783 -0.296231 1.380080
v -2.131740 -0.562079 1.121935
v -2.782145 -0.522958 0.619771
v -3.009918 -0.567476 0.279873
v -2.782145 -0.522958 -0.060026
v -2.122427 -0.620595 -0.562190
v -1.155265 -0.340980 -0.820333
v -2.135202 -0.235832 1.380080
v -3.932511 -0.450219 0.661636
v -3.547935 -0.400577 0.342228
v -3.977319 -0.422077 0.279876
v -3.548574 -0.402279 0.217517
v -3.946248 -0.448529 -0.348174
v -2.133102 -0.255403 -0.820334
v -2.786739 -0.145026 1.100460
v -3.546827 -0.173932 0.395091
v -6.613063 0.272572 0.439677
v -6.143032 0.142303 0.279915
v -6.613065 0.272592 0.088188
v -5.135575 -0.006872 0.081473
v -2.787766 -0.161781 -0.540717
v -3.015901 -0.028041 1.100459
v -5.533828 0.326650 0.478317
v -7.842309 0.852163 1.466782
v -6.705202 0.597765 0.279916
v -7.842322 0.852297 -0.906912
v -5.533263 0.335518 0.081476
v -3.015960 -0.034975 -0.540717
v -2.788516 0.100219 1.100459
v -5.103241 0.423376 0.478303
v -6.561157 0.870088 0.439662
v -6.087331 0.785088 0.279898
v -6.561159 0.870108 0.088173
v -3.549184 0.129260 0.164654
v -2.788335 0.094102 -0.540717
v -2.140098 0.225549 1.380080
v -3.927143 0.401181 0.661633
v -3.547399 0.339528 0.342226
v -3.961244 0.378758 0.279869
v -3.548716 0.342612 0.217515
v -3.935861 0.401799 -0.348179
v -2.138368 0.241852 -0.820335
v -1.167745 0.310126 1.380080
v -2.143089 0.555545 1.121935
v -2.792988 0.498880 0.619771
v -3.021655 0.538554 0.279873
v -2.792988 0.498880 -0.060026
v -2.140388 0.577010 -0.562190
v -1.164759 0.317555 -0.820331
v -0.019177 0.349364 1.380080
v -0.014633 0.637821 1.121933
v 0.008511 0.856790 0.735586
v 0.018942 0.933886 0.279863
v 0.015487 0.867300 -0.175857
v -0.007101 0.652016 -0.562192
v -0.017647 0.349990 -0.820333
v 0.723597 0.324916 1.380078
v 1.248472 0.572579 1.121922
v 1.598164 0.738496 0.735571
v 1.722179 0.792786 0.279847
v 1.601067 0.729551 -0.175870
v 1.249477 0.570090 -0.562203
v 0.724025 0.324196 -0.820337
v -0.016667 0.004311 -0.910981
v 1.247524 0.252644 1.380071
v 2.213992 0.443857 1.121899
v 2.858158 1.011244 0.735539
v 3.086695 0.614013 0.279812
v 2.859956 0.569271 -0.175903
v 2.214729 0.437843 -0.562228
v 1.248473 0.248177 -0.820348
v 1.597627 0.148062 1.380063
v 2.861136 0.245464 1.121884
v 3.705339 0.309441 0.735518
v 4.001719 0.332782 -0.044801
v 2.844183 0.313801 -0.175902
v 3.592397 0.239290 -0.377977
v 1.598238 0.141285 -0.820357
v -0.398440 -1.588346 -0.049636
v -0.533957 -1.544401 -0.505352
v -2.059992 -2.357248 -0.194982
v -2.075565 -2.266248 -1.078735
v -2.294828 1.612249 -0.194949
v -2.298978 1.512239 -1.078704
v -0.565490 1.331201 -0.049606
v -0.690747 1.254983 -0.505326
v -2.354902 -1.200480 2.479775
v -1.024533 -2.021242 1.654661
v 0.241740 -2.582453 0.419760
v 0.402851 -2.828749 -1.036894
v -2.361929 1.345990 2.479771
v -1.049690 2.096163 1.654658
v 0.090865 2.603403 0.419786
v 0.099152 2.810496 -1.036830
v -0.433567 -0.872781 2.356624
v 1.113094 -1.619477 1.595003
v 2.160248 -2.091237 0.455148
v 2.529997 -2.244717 -0.889380
v -0.440319 0.927531 2.356625
v 1.127925 1.640516 1.594996
v 2.161239 2.101772 0.455151
v 2.522418 2.268698 -0.889375
v -3.166902 -1.909874 0.621964
v -2.471451 -1.790192 -0.402141
v -3.263168 1.649317 0.621975
v -2.574201 1.529781 -0.402128
v 0.498140 0.038727 2.779871
v 2.608010 0.031531 1.889482
v -7.527355 -0.094485 -0.223353
v -11.137287 1.607602 2.792951
v -7.374925 1.660241 -0.223397
v -7.721825 1.990232 2.507622
v -6.440683 2.008270 -0.554015
v -6.689279 -0.507464 -0.418061
v -7.918515 0.072031 2.324558
vt 0.000000 0.000000
vt 1.000000 0.000000
vt 1.000000 1.000000
vt 0.000000 1.000000
vn 0.979156 0.005310 -0.202979
vn 0.917356 -0.000977 -0.398022
vn 0.508499 -0.667531 -0.543840
vn 0.337657 -0.839198 -0.426252
vn 0.167364 -0.000732 -0.985870
vn 0.999542 -0.003998 -0.029328
vn 0.630787 -0.766076 -0.123264
vn 0.123264 -0.245094 -0.961608
vn 0.151006 -0.699606 -0.698355
vn 0.069308 -0.402936 -0.912595
vn 0.196814 -0.912595 -0.358287
vn 0.100284 -0.743217 -0.661458
vn 0.057375 -0.443587 -0.894375
vn 0.196356 -0.903684 -0.380474
vn 0.021607 -0.798486 -0.601581
vn 0.022980 -0.457869 -0.888699
vn -0.282846 -0.329569 -0.900754
vn -0.195227 -0.965606 -0.171545
vn -0.480300 -0.780206 0.400678
vn -0.791436 -0.439161 0.425153
vn 0.342112 -0.881710 0.324809
vn -0.107883 -0.829554 -0.547868
vn -0.022095 -0.433973 -0.900632
vn -0.336375 -0.911466 -0.236732
vn -0.435163 -0.887783 -0.149785
vn -0.369518 -0.596179 -0.712699
vn -0.166753 0.145665 -0.975158
vn -0.185827 -0.958373 -0.216681
vn -0.219855 -0.975066 0.029450
vn -0.288766 -0.791925 -0.537980
vn -0.199866 0.107120 -0.973937
vn -0.443831 -0.893887 -0.062716
vn 0.160741 -0.032197 -0.986450
vn -0.176580 0.336039 -0.925138
vn -0.157445 0.533097 -0.831233
vn -0.248146 -0.218451 -0.943754
vn -0.454421 0.307352 -0.836055
vn -0.164434 -0.110538 -0.980163
vn -0.103977 0.993805 -0.038972
vn -0.184973 0.884030 -0.429243
vn -0.107517 0.850429 -0.514908
vn -0.025849 0.452620 -0.891293
vn 0.117191 0.990387 0.073183
vn 0.140538 0.990051 -0.002838
vn 0.072237 0.975280 0.208747
vn -0.003662 0.829096 -0.559069
vn 0.003937 0.473983 -0.880490
vn -0.167150 0.295236 -0.940672
vn 0.301614 0.853938 0.423963
vn 0.080813 0.773400 -0.628712
vn 0.038484 0.456801 -0.888699
vn 0.156926 0.918912 -0.361827
vn 0.468062 0.881466 -0.062288
vn 0.161473 0.940245 0.299722
vn -0.888974 0.270425 0.369518
vn 0.164434 0.694143 -0.700766
vn 0.075106 0.391766 -0.916959
vn 0.210700 0.906796 -0.365062
vn 0.634938 0.762658 -0.123264
vn 0.125797 0.244148 -0.961516
vn 0.342174 0.836756 -0.427442
vn 0.002503 0.001587 -0.999969
vn 0.510636 0.665548 -0.544298
vn -0.726951 -0.146184 -0.670919
vn -0.733848 -0.104892 -0.671133
vn 0.266884 0.451552 -0.851375
vn 0.379101 -0.401715 -0.833583
vn 0.830134 0.008789 0.557451
vn -0.824427 -0.048555 -0.563860
vn 0.141118 0.745659 0.651173
vn -0.812525 -0.003998 0.582873
vn 0.098972 -0.746879 0.657521
vn 0.294748 -0.427503 0.854579
vn 0.778222 0.072176 0.623798
vn 0.513688 -0.672475 0.532762
vn 0.185858 -0.935575 0.300150
vn 0.257546 -0.918821 -0.299020
vn 0.088626 -0.581591 0.808618
vn 0.063631 -0.371532 0.926206
vn -0.311808 -0.905148 0.288827
vn -0.401959 -0.914579 0.044282
vn -0.206824 -0.665151 0.717460
vn -0.420392 -0.890561 0.173620
vn -0.433424 -0.897580 0.080569
vn -0.162297 -0.540056 0.825800
vn -0.118778 -0.835231 0.536882
vn -0.106693 -0.982238 0.154241
vn -0.021180 -0.490280 0.871273
vn -0.417432 -0.375500 0.827479
vn -0.165166 -0.909391 0.381695
vn -0.245979 0.036225 0.968566
vn -0.636708 -0.769463 -0.049715
vn -0.311502 -0.949614 0.034089
vn -0.409497 -0.350352 0.842341
vn -0.370861 0.066591 0.926267
vn 0.180303 -0.064699 0.981475
vn -0.935179 0.053285 0.350078
vn -0.273202 -0.295572 0.915403
vn -0.004089 0.662099 0.749382
vn -0.285653 0.949889 -0.126835
vn -0.215644 0.322275 0.921720
vn 0.079165 0.996826 -0.004303
vn -0.142460 0.940672 0.307871
vn -0.110935 0.703757 0.701712
vn -0.230262 0.029817 0.972655
vn -0.138249 0.836268 0.530595
vn -0.123142 0.987671 0.096622
vn -0.032624 0.486953 0.872799
vn 0.248695 0.668661 0.700705
vn 0.373760 0.834498 0.404797
vn 0.117008 0.428114 0.896084
vn 0.311808 0.490768 0.813562
vn 0.440443 0.728843 0.524186
vn 0.185430 0.256233 0.948637
vn 0.093539 0.585925 0.804926
vn 0.194739 0.931700 0.306589
vn 0.064943 0.375500 0.924528
vn 0.269845 0.916440 -0.295480
vn 0.517228 0.671957 0.530015
vn 0.298685 0.430097 0.851924
vn 0.100040 0.742393 0.662404
vn -0.059267 -0.002106 0.998230
vn -0.945982 -0.004059 -0.324107
vn -0.618580 0.164006 -0.768364
vn 0.967406 0.043245 0.249397
vn 0.631611 0.186102 0.752586
vn -0.526444 0.177282 -0.831507
vn 0.533280 0.184851 0.825465
vn -0.891324 -0.281899 -0.355022
vn -0.654256 -0.231391 -0.719962
vn -0.529984 -0.280343 -0.800287
vn 0.891812 -0.296884 0.341288
vn 0.653066 -0.242927 0.717246
vn 0.523789 -0.291726 0.800317
vn -0.005615 0.999634 -0.025391
vn -0.991668 0.125370 -0.028748
vn -0.539018 -0.008362 -0.842219
vn 0.999054 -0.043306 0.003327
vn -0.989746 -0.083285 -0.115940
vn 0.919004 -0.335887 0.206397
vn -0.921079 -0.320078 -0.221686
vn 0.375530 0.791436 0.482223
vn 0.373455 0.000519 0.927610
vn -0.003601 -0.872738 0.488144
vn -0.843471 0.100223 -0.527696
vn -0.823389 0.080416 -0.561724
usemtl Material
s 1
f 5/1/1 4/2/2 11/3/3
f 5/1/1 11/3/3 12/4/4
f 7/1/5 6/2/6 13/3/7
f 7/1/5 13/3/7 14/4/8
f 6/1/6 5/2/1 12/3/4
f 6/1/6 12/3/4 13/4/7
f 14/1/8 13/2/7 20/3/9
f 14/1/8 20/3/9 21/4/10
f 13/1/7 12/2/4 19/3/11
f 13/1/7 19/3/11 20/4/9
f 21/1/10 20/2/9 27/3/12
f 21/1/10 27/3/12 28/4/13
f 20/1/9 19/2/11 26/3/14
f 20/1/9 26/3/14 27/4/12
f 28/1/13 27/2/12 34/3/15
f 28/1/13 34/3/15 35/4/16
f 27/1/12 26/2/14 33/3/17
f 27/1/12 33/3/17 34/4/15
f 25/1/18 32/2/19 117/3/20
f 25/1/18 117/3/20 115/4/21
f 35/1/16 34/2/15 42/3/22
f 35/1/16 42/3/22 43/4/23
f 34/1/15 33/2/17 41/3/24
f 34/1/15 41/3/24 42/4/22
f 33/1/17 32/2/19 40/3/25
f 33/1/17 40/3/25 41/4/24
f 43/1/23 42/2/22 49/3/26
f 43/1/23 49/3/26 50/4/27
f 42/1/22 41/2/24 48/3/28
f 42/1/22 48/3/28 49/4/26
f 41/1/24 40/2/25 47/3/29
f 41/1/24 47/3/29 48/4/28
f 50/1/27 49/2/26 56/3/30
f 50/1/27 56/3/30 57/4/31
f 49/1/26 48/2/28 55/3/32
f 49/1/26 55/3/32 56/4/30
f 57/1/31 56/2/30 63/3/33
f 57/1/31 63/3/33 64/4/34
f 64/1/34 63/2/33 70/3/35
f 64/1/34 70/3/35 71/4/36
f 71/1/36 70/2/35 77/3/37
f 71/1/36 77/3/37 78/4/38
f 70/1/35 69/2/39 76/3/40
f 70/1/35 76/3/40 77/4/37
f 78/1/38 77/2/37 84/3/41
f 78/1/38 84/3/41 85/4/42
f 77/1/37 76/2/40 83/3/43
f 77/1/37 83/3/43 84/4/41
f 76/1/40 75/2/44 82/3/45
f 76/1/40 82/3/45 83/4/43
f 85/1/42 84/2/41 91/3/46
f 85/1/42 91/3/46 92/4/47
f 84/1/41 83/2/43 90/3/48
f 84/1/41 90/3/48 91/4/46
f 83/1/43 82/2/45 89/3/49
f 83/1/43 89/3/49 90/4/48
f 92/1/47 91/2/46 98/3/50
f 92/1/47 98/3/50 99/4/51
f 91/1/46 90/2/48 97/3/52
f 91/1/46 97/3/52 98/4/50
f 89/1/49 96/2/53 121/3/54
f 89/1/49 121/3/54 119/4/55
f 99/1/51 98/2/50 106/3/56
f 99/1/51 106/3/56 107/4/57
f 98/1/50 97/2/52 105/3/58
f 98/1/50 105/3/58 106/4/56
f 107/1/57 106/2/56 113/3/59
f 107/1/57 113/3/59 114/4/60
f 106/1/56 105/2/58 112/3/61
f 106/1/56 112/3/61 113/4/59
f 100/1/62 7/2/5 14/3/8
f 100/1/62 14/2/8 21/3/10
f 100/1/62 21/2/10 28/3/13
f 100/1/62 28/2/13 35/3/16
f 100/1/62 35/2/16 43/3/23
f 100/1/62 43/2/23 50/3/27
f 100/1/62 50/2/27 57/3/31
f 100/1/62 57/2/31 64/3/34
f 100/1/62 64/2/34 71/3/36
f 100/1/62 71/2/36 78/3/38
f 100/1/62 78/2/38 85/3/42
f 100/1/62 85/2/42 92/3/47
f 100/1/62 92/2/47 99/3/51
f 100/1/62 99/2/51 107/3/57
f 100/1/62 107/2/57 114/3/60
f 114/1/60 113/2/59 6/3/6
f 114/1/60 6/3/6 7/4/5
f 113/1/59 112/2/61 5/3/1
f 113/1/59 5/3/1 6/4/6
f 112/1/61 111/2/63 4/3/2
f 112/1/61 4/3/2 5/4/1
f 100/1/62 114/2/60 7/3/5
f 32/1/19 33/2/17 118/3/64
f 32/1/19 118/3/64 117/4/20
f 90/1/48 89/2/49 119/3/55
f 90/1/48 119/3/55 120/4/65
f 97/1/52 90/2/48 120/3/65
f 97/1/52 120/3/65 122/4/66
f 33/1/17 26/2/14 116/3/67
f 33/1/17 116/3/67 118/4/64
f 82/1/45 83/2/43 142/3/68
f 82/1/45 142/3/68 141/4/68
f 40/1/25 41/2/24 140/3/69
f 40/1/25 140/3/69 139/4/69
usemtl Material.001
f 2/1/70 1/2/71 8/3/72
f 2/1/70 8/3/72 9/4/73
f 4/1/2 3/2/74 10/3/75
f 4/1/2 10/3/75 11/4/3
f 3/1/74 2/2/70 9/3/73
f 3/1/74 9/3/73 10/4/75
f 11/1/3 10/2/75 17/3/76
f 11/1/3 17/3/76 18/4/77
f 10/1/75 9/2/73 16/3/78
f 10/1/75 16/3/78 17/4/76
f 9/1/73 8/2/72 15/3/79
f 9/1/73 15/3/79 16/4/78
f 17/1/76 16/2/78 23/3/80
f 17/1/76 23/3/80 24/4/81
f 16/1/78 15/2/79 22/3/82
f 16/1/78 22/3/82 23/4/80
f 24/1/81 23/2/80 30/3/83
f 24/1/81 30/3/83 31/4/84
f 23/1/80 22/2/82 29/3/85
f 23/1/80 29/3/85 30/4/83
f 31/1/84 30/2/83 38/3/86
f 31/1/84 38/3/86 39/4/87
f 30/1/83 29/2/85 37/3/88
f 30/1/83 37/3/88 38/4/86
f 39/1/87 38/2/86 45/3/89
f 39/1/87 45/3/89 46/4/90
f 38/1/86 37/2/88 44/3/91
f 38/1/86 44/3/91 45/4/89
f 47/1/29 46/2/90 53/3/92
f 47/1/29 53/3/92 54/4/93
f 46/1/90 45/2/89 52/3/94
f 46/1/90 52/3/94 53/4/92
f 45/1/89 44/2/91 51/3/95
f 45/1/89 51/3/95 52/4/94
f 53/1/92 52/2/94 59/3/96
f 53/1/92 59/3/96 60/4/97
f 52/1/94 51/2/95 58/3/98
f 52/1/94 58/3/98 59/4/96
f 60/1/97 59/2/96 66/3/99
f 60/1/97 66/3/99 67/4/100
f 59/1/96 58/2/98 65/3/101
f 59/1/96 65/3/101 66/4/99
f 68/1/102 67/2/100 74/3/103
f 68/1/102 74/3/103 75/4/44
f 67/1/100 66/2/99 73/3/104
f 67/1/100 73/3/104 74/4/103
f 66/1/99 65/2/101 72/3/105
f 66/1/99 72/3/105 73/4/104
f 74/1/103 73/2/104 80/3/106
f 74/1/103 80/3/106 81/4/107
f 73/1/104 72/2/105 79/3/108
f 73/1/104 79/3/108 80/4/106
f 81/1/107 80/2/106 87/3/109
f 81/1/107 87/3/109 88/4/110
f 80/1/106 79/2/108 86/3/111
f 80/1/106 86/3/111 87/4/109
f 88/1/110 87/2/109 94/3/112
f 88/1/110 94/3/112 95/4/113
f 87/1/109 86/2/111 93/3/114
f 87/1/109 93/3/114 94/4/112
f 95/1/113 94/2/112 102/3/115
f 95/1/113 102/3/115 103/4/116
f 94/1/112 93/2/114 101/3/117
f 94/1/112 101/3/117 102/4/115
f 104/1/118 103/2/116 110/3/119
f 104/1/118 110/3/119 111/4/63
f 103/1/116 102/2/115 109/3/120
f 103/1/116 109/3/120 110/4/119
f 102/1/115 101/2/117 108/3/121
f 102/1/115 108/3/121 109/4/120
f 1/1/71 36/2/122 8/3/72
f 8/1/72 36/2/122 15/3/79
f 15/1/79 36/2/122 22/3/82
f 22/1/82 36/2/122 29/3/85
f 29/1/85 36/2/122 37/3/88
f 37/1/88 36/2/122 44/3/91
f 44/1/91 36/2/122 51/3/95
f 51/1/95 36/2/122 58/3/98
f 58/1/98 36/2/122 65/3/101
f 65/1/101 36/2/122 72/3/105
f 72/1/105 36/2/122 79/3/108
f 79/1/108 36/2/122 86/3/111
f 86/1/111 36/2/122 93/3/114
f 93/1/114 36/2/122 101/3/117
f 101/1/117 36/2/122 108/3/121
f 36/2/122 1/3/71 108/1/121
f 111/1/63 110/2/119 3/3/74
f 111/1/63 3/3/74 4/4/2
f 110/1/119 109/2/120 2/3/70
f 110/1/119 2/3/70 3/4/74
f 1/3/71 2/4/70 109/1/120
f 1/3/71 109/1/120 108/2/121
f 30/1/83 31/2/84 125/3/123
f 30/1/83 125/3/123 124/4/124
f 87/1/109 88/2/110 129/3/125
f 87/1/109 129/3/125 128/4/126
f 29/1/85 30/2/83 124/3/124
f 29/1/85 124/3/124 123/4/127
f 86/1/111 87/2/109 128/3/126
f 86/1/111 128/3/126 127/4/128
f 23/1/80 24/2/81 133/3/129
f 23/1/80 133/3/129 132/4/130
f 22/1/82 23/2/80 132/3/130
f 22/1/82 132/3/130 131/4/131
f 94/1/112 95/2/113 137/3/132
f 94/1/112 137/3/132 136/4/133
f 93/1/114 94/2/112 136/3/133
f 93/1/114 136/3/133 135/4/134
f 3/1/74 2/2/70 143/3/135
f 3/1/74 143/3/135 144/4/135
usemtl Material.002
f 12/1/4 11/2/3 18/3/77
f 12/1/4 18/3/77 19/4/11
f 18/1/77 17/2/76 24/3/81
f 18/1/77 24/3/81 25/4/18
f 19/1/11 18/2/77 25/3/18
f 19/1/11 25/3/18 26/4/14
f 25/1/18 24/2/81 31/3/84
f 25/1/18 31/3/84 32/4/19
f 32/1/19 31/2/84 39/3/87
f 32/1/19 39/3/87 40/4/25
f 40/1/25 39/2/87 46/3/90
f 40/1/25 46/3/90 47/4/29
f 48/1/28 47/2/29 54/3/93
f 48/1/28 54/3/93 55/4/32
f 54/1/93 53/2/92 60/3/97
f 54/1/93 60/3/97 61/4/136
f 56/1/30 55/2/32 62/3/137
f 56/1/30 62/3/137 63/4/33
f 55/1/32 54/2/93 61/3/136
f 55/1/32 61/3/136 62/4/137
f 61/1/136 60/2/97 67/3/100
f 61/1/136 67/3/100 68/4/102
f 63/1/33 62/2/137 69/3/39
f 63/1/33 69/3/39 70/4/35
f 62/1/137 61/2/136 68/3/102
f 62/1/137 68/3/102 69/4/39
f 69/1/39 68/2/102 75/3/44
f 69/1/39 75/3/44 76/4/40
f 75/1/44 74/2/103 81/3/107
f 75/1/44 81/3/107 82/4/45
f 82/1/45 81/2/107 88/3/110
f 82/1/45 88/3/110 89/4/49
f 89/1/49 88/2/110 95/3/113
f 89/1/49 95/3/113 96/4/53
f 96/1/53 95/2/113 103/3/116
f 96/1/53 103/3/116 104/4/118
f 97/1/52 96/2/53 104/3/118
f 97/1/52 104/3/118 105/4/58
f 105/1/58 104/2/118 111/3/63
f 105/1/58 111/3/63 112/4/61
f 116/1/67 115/2/21 117/3/20
f 116/1/67 117/3/20 118/4/64
f 120/1/65 119/2/55 121/3/54
f 120/1/65 121/3/54 122/4/66
f 26/1/14 25/2/18 115/3/21
f 26/1/14 115/3/21 116/4/67
f 96/1/53 97/2/52 122/3/66
f 96/1/53 122/3/66 121/4/54
f 88/1/110 89/2/49 130/3/138
f 88/1/110 130/3/138 129/4/125
f 31/1/84 32/2/19 126/3/139
f 31/1/84 126/3/139 125/4/123
f 95/1/113 96/2/53 138/3/140
f 95/1/113 138/3/140 137/4/132
f 24/1/81 25/2/18 134/3/141
f 24/1/81 134/3/141 133/4/129
f 60/1/97 67/2/100 147/3/142
f 60/1/97 147/3/142 146/4/143
f 53/1/92 60/2/97 146/3/143
f 53/1/92 146/3/143 145/4/144
f 67/1/100 60/2/97 148/3/145
f 67/1/100 148/3/145 149/4/145
f 60/1/97 53/2/92 150/3/146
f 60/1/97 150/3/146 151/4/146
