# Blender v2.65 (sub 0) OBJ File: 'fish.blend'
# www.blender.org
mtllib fish_000007.mtl
o Sphere
v -1.450828 0.002561 2.454946
v 1.893833 0.000324 1.625919
v 4.003667 -0.058725 0.735535
v 4.324542 -0.066469 -0.044783
v 3.142614 -0.037922 -0.175892
v 3.820894 -0.054302 -0.377961
v 1.722261 -0.004594 -0.820354
v 1.599040 -0.115144 1.380068
v 2.862134 -0.259925 1.121897
v 3.706047 -0.353013 0.735541
v 4.002401 -0.385003 -0.044776
v 2.844994 -0.332209 -0.175886
v 3.593106 -0.279540 -0.377956
v 1.598900 -0.121412 -0.820351
v 1.249563 -0.213457 1.380073
v 2.215529 -0.437583 1.121910
v 2.859121 -1.030157 0.735557
v 3.087544 -0.639547 0.279832
v 2.860822 -0.588170 -0.175886
v 2.215175 -0.441870 -0.562216
v 1.249255 -0.211267 -0.820343
v 0.726937 -0.277889 1.380079
v 1.249039 -0.544148 1.121927
v 1.597920 -0.722794 0.735579
v 1.723398 -0.770150 0.279855
v 1.599974 -0.711979 -0.175864
v 1.251454 -0.532522 -0.562199
v 0.727345 -0.276514 -0.820336
v -0.014179 -0.308889 1.380080
v -0.009080 -0.590955 1.121934
v 0.007997 -0.802459 0.735590
v 0.057124 -0.946928 0.279858
v 0.045915 -0.873042 -0.175860
v 0.007509 -0.632777 -0.562192
v -0.010411 -0.325427 -0.820334
v -1.089401 0.005983 1.470728
v -1.161783 -0.296231 1.380080
v -2.131740 -0.562079 1.121935
v -2.782145 -0.522958 0.619771
v -3.009918 -0.567476 0.279873
v -2.782145 -0.522958 -0.060026
v -2.128227 -0.592540 -0.562190
v -1.159576 -0.312774 -0.820333
v -2.135202 -0.235832 1.380080
v -3.930230 -0.450476 0.661636
v -3.544310 -0.390784 0.342228
v -3.965058 -0.426753 0.279873
v -3.544271 -0.390656 0.217516
v -3.929245 -0.450474 -0.348178
v -2.134547 -0.245968 -0.820334
v -2.786236 -0.136302 1.100460
v -3.546827 -0.173932 0.395091
v -6.617145 -0.398943 0.439659
v -6.139717 -0.410760 0.279898
v -6.617146 -0.398944 0.088170
v -5.132218 -0.286248 0.081465
v -2.786225 -0.135097 -0.540716
v -3.015828 -0.013490 1.100460
v -5.557810 -0.067924 0.478312
v -7.890455 -0.132186 1.466766
v -6.741730 -0.100856 0.279906
v -7.890468 -0.132196 -0.906928
v -5.557820 -0.068563 0.081471
v -3.015850 -0.012995 -0.540716
v -2.788964 0.113706 1.100460
v -5.139887 0.177024 0.478306
v -6.627723 0.203740 0.439660
v -6.151148 0.241866 0.279899
v -6.627725 0.203738 0.088171
v -3.550173 0.134014 0.164654
v -2.789000 0.114141 -0.540716
v -2.140098 0.225549 1.380080
v -3.940310 0.401998 0.661636
v -3.552801 0.352028 0.342228
v -3.975356 0.377140 0.279873
v -3.552696 0.351819 0.217517
v -3.939686 0.402032 -0.348178
v -2.136672 0.262436 -0.820335
v -1.167312 0.312689 1.380080
v -2.142621 0.558264 1.121935
v -2.792988 0.498880 0.619771
v -3.021655 0.538554 0.279873
v -2.792988 0.498880 -0.060026
v -2.137242 0.595293 -0.562190
v -1.161397 0.349324 -0.820333
v -0.017506 0.353724 1.380080
v -0.007110 0.650150 1.121931
v 0.035630 0.892337 0.735579
v 0.054680 0.977616 0.279854
v 0.048147 0.910168 -0.175865
v 0.006592 0.674602 -0.562195
v -0.012032 0.367604 -0.820335
v 0.725550 0.323213 1.380078
v 1.254413 0.557463 1.121924
v 1.606028 0.714132 0.735574
v 1.731465 0.762160 0.279851
v 1.610694 0.698598 -0.175868
v 1.256166 0.552914 -0.562202
v 0.728299 0.320818 -0.820338
v -0.016218 0.021627 -0.910981
v 1.249433 0.243244 1.380073
v 2.217860 0.415213 1.121908
v 2.866838 0.967805 0.735551
v 3.092201 0.566243 0.279828
v 2.865123 0.525834 -0.175889
v 2.219088 0.404066 -0.562219
v 1.251271 0.234281 -0.820345
v 1.598957 0.134324 1.380067
v 2.863527 0.205051 1.121898
v 3.708375 0.249882 0.735539
v 4.004920 0.267566 -0.044778
v 2.847321 0.270686 -0.175888
v 3.594887 0.181896 -0.377957
v 1.600048 0.121016 -0.820351
v -0.508021 -1.397613 -0.049612
v -0.638777 -1.331088 -0.505330
v -2.220486 -1.852117 -0.194953
v -2.229115 -1.757077 -1.078708
v -2.229198 1.853076 -0.194962
v -2.237233 1.751806 -1.078717
v -0.513668 1.424545 -0.049618
v -0.640932 1.359901 -0.505337
v -2.377559 -1.117109 2.479779
v -1.059100 -1.970126 1.654669
v 0.126508 -2.554318 0.419789
v 0.209289 -2.789861 -1.036845
v -2.313118 1.551870 2.479761
v -0.984745 2.201522 1.654643
v 0.192449 2.643286 0.419761
v 0.208433 2.849325 -1.036857
v -0.434914 -0.868343 2.356623
v 1.104911 -1.626137 1.595008
v 2.140033 -2.134990 0.455164
v 2.505498 -2.307455 -0.889359
v -0.430500 0.948052 2.356620
v 1.160823 1.612497 1.594988
v 2.199766 2.028813 0.455145
v 2.562034 2.183039 -0.889378
v -3.201477 -1.802436 0.621971
v -2.510813 -1.676182 -0.402133
v -3.263168 1.649317 0.621975
v -2.574201 1.529781 -0.402128
v 0.499028 0.040055 2.779871
v 2.608803 -0.003187 1.889494
v -7.481636 -0.988441 -0.223390
v -11.220972 -0.205055 2.792921
v -7.512701 0.781460 -0.223387
v -7.889266 1.021156 2.507636
v -6.626544 1.357074 -0.553987
v -6.611676 -1.187875 -0.418100
v -7.884978 -0.921111 2.324522
vt 0.000000 0.000000
vt 1.000000 0.000000
vt 1.000000 1.000000
vt 0.000000 1.000000
vn 0.979156 -0.000824 -0.203009
vn 0.917264 -0.014069 -0.397992
vn 0.498459 -0.675283 -0.543565
vn 0.323283 -0.844417 -0.427076
vn 0.167333 -0.001404 -0.985870
vn 0.999390 -0.018128 -0.029359
vn 0.619587 -0.775079 -0.123844
vn 0.119022 -0.245094 -0.962157
vn 0.141881 -0.696585 -0.703269
vn 0.062899 -0.398389 -0.915036
vn 0.184179 -0.913327 -0.363140
vn 0.072909 -0.759514 -0.646352
vn 0.040803 -0.452376 -0.890866
vn 0.153783 -0.915647 -0.371349
vn 0.007721 -0.814051 -0.580706
vn 0.013276 -0.467452 -0.883908
vn -0.205390 -0.312082 -0.927549
vn -0.233314 -0.955687 -0.179388
vn -0.465194 -0.791894 0.395489
vn -0.857601 -0.330638 0.393933
vn 0.220557 -0.923399 0.314066
vn -0.095370 -0.841975 -0.530992
vn -0.019044 -0.447127 -0.894253
vn -0.330363 -0.912076 -0.242744
vn -0.444411 -0.880459 -0.165014
vn -0.276345 -0.497726 -0.822108
vn -0.162877 0.117130 -0.979644
vn -0.146733 -0.951903 -0.268868
vn -0.016083 -0.999786 0.011750
vn -0.115696 -0.763848 -0.634907
vn -0.209235 0.120121 -0.970428
vn -0.238166 -0.971160 -0.010895
vn 0.176611 0.009308 -0.984222
vn -0.226173 0.321177 -0.919584
vn -0.298746 0.449812 -0.841639
vn -0.266762 -0.225929 -0.936888
vn -0.463210 0.299478 -0.834101
vn -0.167180 -0.105686 -0.980224
vn -0.316294 0.944456 -0.088900
vn -0.199042 0.882900 -0.425275
vn -0.114017 0.849971 -0.514267
vn -0.025941 0.452864 -0.891171
vn 0.112156 0.990600 0.078158
vn -0.065096 0.997772 0.014374
vn 0.072756 0.976379 0.203406
vn 0.007538 0.826807 -0.562426
vn 0.012116 0.475387 -0.879665
vn -0.214118 0.300790 -0.929319
vn 0.316446 0.840785 0.439161
vn 0.101962 0.767296 -0.633106
vn 0.050600 0.454573 -0.889248
vn 0.184301 0.912809 -0.364360
vn 0.494400 0.867031 -0.061617
vn 0.223151 0.924802 0.308054
vn -0.864040 0.331065 0.379162
vn 0.175542 0.695669 -0.696554
vn 0.082827 0.393597 -0.915525
vn 0.224128 0.904019 -0.363933
vn 0.645894 0.753471 -0.122715
vn 0.130161 0.244148 -0.960936
vn 0.355571 0.830714 -0.428266
vn 0.002441 0.000488 -0.999969
vn 0.520402 0.657704 -0.544572
vn -0.738426 0.007050 -0.674245
vn -0.737327 -0.037599 -0.674459
vn 0.302255 0.436811 -0.847224
vn 0.309336 -0.438948 -0.843562
vn 0.830134 0.008789 0.557451
vn -0.827540 -0.027619 -0.560686
vn 0.155400 0.742393 0.651662
vn -0.812403 0.001495 0.583056
vn 0.088137 -0.751396 0.653920
vn 0.286843 -0.429640 0.856197
vn 0.779199 0.062166 0.623646
vn 0.502884 -0.679220 0.534501
vn 0.171056 -0.936155 0.307077
vn 0.243660 -0.922941 -0.297922
vn 0.077242 -0.580096 0.810846
vn 0.057497 -0.371685 0.926542
vn -0.325968 -0.901334 0.285104
vn -0.421491 -0.906247 0.031465
vn -0.211249 -0.663747 0.717460
vn -0.429914 -0.887295 0.166875
vn -0.457686 -0.887478 0.053468
vn -0.164861 -0.540239 0.825190
vn -0.116642 -0.841945 0.526780
vn -0.101199 -0.986847 0.125980
vn -0.020783 -0.492386 0.870113
vn -0.409375 -0.388531 0.825465
vn -0.154118 -0.915128 0.372478
vn -0.244270 0.028809 0.969268
vn -0.473251 -0.878384 -0.066591
vn -0.092318 -0.995605 0.013916
vn -0.319559 -0.440565 0.838893
vn -0.355022 0.053926 0.933287
vn 0.168554 -0.010163 0.985626
vn -0.926633 0.007965 0.375805
vn -0.227577 -0.328562 0.916623
vn -0.145665 0.769860 0.621326
vn -0.489425 0.868129 -0.082186
vn -0.237739 0.270150 0.932981
vn -0.143315 0.989502 0.016968
vn -0.164220 0.952208 0.257424
vn -0.211921 0.775475 0.594714
vn -0.234840 0.009705 0.971954
vn -0.141270 0.828639 0.541612
vn -0.125706 0.986724 0.102725
vn -0.033753 0.482040 0.875484
vn 0.255776 0.654286 0.711631
vn 0.389569 0.815363 0.428236
vn 0.119755 0.421491 0.898862
vn 0.321543 0.479720 0.816340
vn 0.459670 0.714530 0.527329
vn 0.188360 0.248726 0.950072
vn 0.103214 0.588977 0.801508
vn 0.208991 0.929838 0.302774
vn 0.070528 0.377606 0.923246
vn 0.284310 0.911924 -0.295816
vn 0.528062 0.664693 0.528459
vn 0.306650 0.427656 0.850307
vn 0.109989 0.738517 0.665181
vn -0.059420 -0.003021 0.998199
vn -0.958495 0.034608 -0.282876
vn -0.619251 0.186468 -0.762688
vn 0.966674 0.003296 0.255959
vn 0.639821 0.159093 0.751854
vn -0.519669 0.189154 -0.833155
vn 0.547472 0.164647 0.820429
vn -0.897092 -0.273141 -0.347179
vn -0.659474 -0.225684 -0.717002
vn -0.532945 -0.276864 -0.799554
vn 0.882839 -0.323923 0.340037
vn 0.645558 -0.262612 0.717093
vn 0.515091 -0.307260 0.800134
vn 0.013916 0.999603 -0.024415
vn -0.999390 -0.020295 -0.028169
vn -0.538011 -0.123692 -0.833796
vn 0.996521 -0.082888 0.005615
vn -0.997070 -0.048189 -0.059175
vn 0.908414 -0.364238 0.205176
vn -0.926084 -0.310251 -0.214667
vn 0.179968 0.847926 0.498581
vn 0.369823 0.004608 0.929075
vn 0.210456 -0.850581 0.481826
vn -0.851558 0.011597 -0.524064
vn -0.828974 -0.005737 -0.559191
usemtl Material
s 1
f 5/1/1 4/2/2 11/3/3
f 5/1/1 11/3/3 12/4/4
f 7/1/5 6/2/6 13/3/7
f 7/1/5 13/3/7 14/4/8
f 6/1/6 5/2/1 12/3/4
f 6/1/6 12/3/4 13/4/7
f 14/1/8 13/2/7 20/3/9
f 14/1/8 20/3/9 21/4/10
f 13/1/7 12/2/4 19/3/11
f 13/1/7 19/3/11 20/4/9
f 21/1/10 20/2/9 27/3/12
f 21/1/10 27/3/12 28/4/13
f 20/1/9 19/2/11 26/3/14
f 20/1/9 26/3/14 27/4/12
f 28/1/13 27/2/12 34/3/15
f 28/1/13 34/3/15 35/4/16
f 27/1/12 26/2/14 33/3/17
f 27/1/12 33/3/17 34/4/15
f 25/1/18 32/2/19 117/3/20
f 25/1/18 117/3/20 115/4/21
f 35/1/16 34/2/15 42/3/22
f 35/1/16 42/3/22 43/4/23
f 34/1/15 33/2/17 41/3/24
f 34/1/15 41/3/24 42/4/22
f 33/1/17 32/2/19 40/3/25
f 33/1/17 40/3/25 41/4/24
f 43/1/23 42/2/22 49/3/26
f 43/1/23 49/3/26 50/4/27
f 42/1/22 41/2/24 48/3/28
f 42/1/22 48/3/28 49/4/26
f 41/1/24 40/2/25 47/3/29
f 41/1/24 47/3/29 48/4/28
f 50/1/27 49/2/26 56/3/30
f 50/1/27 56/3/30 57/4/31
f 49/1/26 48/2/28 55/3/32
f 49/1/26 55/3/32 56/4/30
f 57/1/31 56/2/30 63/3/33
f 57/1/31 63/3/33 64/4/34
f 64/1/34 63/2/33 70/3/35
f 64/1/34 70/3/35 71/4/36
f 71/1/36 70/2/35 77/3/37
f 71/1/36 77/3/37 78/4/38
f 70/1/35 69/2/39 76/3/40
f 70/1/35 76/3/40 77/4/37
f 78/1/38 77/2/37 84/3/41
f 78/1/38 84/3/41 85/4/42
f 77/1/37 76/2/40 83/3/43
f 77/1/37 83/3/43 84/4/41
f 76/1/40 75/2/44 82/3/45
f 76/1/40 82/3/45 83/4/43
f 85/1/42 84/2/41 91/3/46
f 85/1/42 91/3/46 92/4/47
f 84/1/41 83/2/43 90/3/48
f 84/1/41 90/3/48 91/4/46
f 83/1/43 82/2/45 89/3/49
f 83/1/43 89/3/49 90/4/48
f 92/1/47 91/2/46 98/3/50
f 92/1/47 98/3/50 99/4/51
f 91/1/46 90/2/48 97/3/52
f 91/1/46 97/3/52 98/4/50
f 89/1/49 96/2/53 121/3/54
f 89/1/49 121/3/54 119/4/55
f 99/1/51 98/2/50 106/3/56
f 99/1/51 106/3/56 107/4/57
f 98/1/50 97/2/52 105/3/58
f 98/1/50 105/3/58 106/4/56
f 107/1/57 106/2/56 113/3/59
f 107/1/57 113/3/59 114/4/60
f 106/1/56 105/2/58 112/3/61
f 106/1/56 112/3/61 113/4/59
f 100/1/62 7/2/5 14/3/8
f 100/1/62 14/2/8 21/3/10
f 100/1/62 21/2/10 28/3/13
f 100/1/62 28/2/13 35/3/16
f 100/1/62 35/2/16 43/3/23
f 100/1/62 43/2/23 50/3/27
f 100/1/62 50/2/27 57/3/31
f 100/1/62 57/2/31 64/3/34
f 100/1/62 64/2/34 71/3/36
f 100/1/62 71/2/36 78/3/38
f 100/1/62 78/2/38 85/3/42
f 100/1/62 85/2/42 92/3/47
f 100/1/62 92/2/47 99/3/51
f 100/1/62 99/2/51 107/3/57
f 100/1/62 107/2/57 114/3/60
f 114/1/60 113/2/59 6/3/6
f 114/1/60 6/3/6 7/4/5
f 113/1/59 112/2/61 5/3/1
f 113/1/59 5/3/1 6/4/6
f 112/1/61 111/2/63 4/3/2
f 112/1/61 4/3/2 5/4/1
f 100/1/62 114/2/60 7/3/5
f 32/1/19 33/2/17 118/3/64
f 32/1/19 118/3/64 117/4/20
f 90/1/48 89/2/49 119/3/55
f 90/1/48 119/3/55 120/4/65
f 97/1/52 90/2/48 120/3/65
f 97/1/52 120/3/65 122/4/66
f 33/1/17 26/2/14 116/3/67
f 33/1/17 116/3/67 118/4/64
f 82/1/45 83/2/43 142/3/68
f 82/1/45 142/3/68 141/4/68
f 40/1/25 41/2/24 140/3/69
f 40/1/25 140/3/69 139/4/69
usemtl Material.001
f 2/1/70 1/2/71 8/3/72
f 2/1/70 8/3/72 9/4/73
f 4/1/2 3/2/74 10/3/75
f 4/1/2 10/3/75 11/4/3
f 3/1/74 2/2/70 9/3/73
f 3/1/74 9/3/73 10/4/75
f 11/1/3 10/2/75 17/3/76
f 11/1/3 17/3/76 18/4/77
f 10/1/75 9/2/73 16/3/78
f 10/1/75 16/3/78 17/4/76
f 9/1/73 8/2/72 15/3/79
f 9/1/73 15/3/79 16/4/78
f 17/1/76 16/2/78 23/3/80
f 17/1/76 23/3/80 24/4/81
f 16/1/78 15/2/79 22/3/82
f 16/1/78 22/3/82 23/4/80
f 24/1/81 23/2/80 30/3/83
f 24/1/81 30/3/83 31/4/84
f 23/1/80 22/2/82 29/3/85
f 23/1/80 29/3/85 30/4/83
f 31/1/84 30/2/83 38/3/86
f 31/1/84 38/3/86 39/4/87
f 30/1/83 29/2/85 37/3/88
f 30/1/83 37/3/88 38/4/86
f 39/1/87 38/2/86 45/3/89
f 39/1/87 45/3/89 46/4/90
f 38/1/86 37/2/88 44/3/91
f 38/1/86 44/3/91 45/4/89
f 47/1/29 46/2/90 53/3/92
f 47/1/29 53/3/92 54/4/93
f 46/1/90 45/2/89 52/3/94
f 46/1/90 52/3/94 53/4/92
f 45/1/89 44/2/91 51/3/95
f 45/1/89 51/3/95 52/4/94
f 53/1/92 52/2/94 59/3/96
f 53/1/92 59/3/96 60/4/97
f 52/1/94 51/2/95 58/3/98
f 52/1/94 58/3/98 59/4/96
f 60/1/97 59/2/96 66/3/99
f 60/1/97 66/3/99 67/4/100
f 59/1/96 58/2/98 65/3/101
f 59/1/96 65/3/101 66/4/99
f 68/1/102 67/2/100 74/3/103
f 68/1/102 74/3/103 75/4/44
f 67/1/100 66/2/99 73/3/104
f 67/1/100 73/3/104 74/4/103
f 66/1/99 65/2/101 72/3/105
f 66/1/99 72/3/105 73/4/104
f 74/1/103 73/2/104 80/3/106
f 74/1/103 80/3/106 81/4/107
f 73/1/104 72/2/105 79/3/108
f 73/1/104 79/3/108 80/4/106
f 81/1/107 80/2/106 87/3/109
f 81/1/107 87/3/109 88/4/110
f 80/1/106 79/2/108 86/3/111
f 80/1/106 86/3/111 87/4/109
f 88/1/110 87/2/109 94/3/112
f 88/1/110 94/3/112 95/4/113
f 87/1/109 86/2/111 93/3/114
f 87/1/109 93/3/114 94/4/112
f 95/1/113 94/2/112 102/3/115
f 95/1/113 102/3/115 103/4/116
f 94/1/112 93/2/114 101/3/117
f 94/1/112 101/3/117 102/4/115
f 104/1/118 103/2/116 110/3/119
f 104/1/118 110/3/119 111/4/63
f 103/1/116 102/2/115 109/3/120
f 103/1/116 109/3/120 110/4/119
f 102/1/115 101/2/117 108/3/121
f 102/1/115 108/3/121 109/4/120
f 1/1/71 36/2/122 8/3/72
f 8/1/72 36/2/122 15/3/79
f 15/1/79 36/2/122 22/3/82
f 22/1/82 36/2/122 29/3/85
f 29/1/85 36/2/122 37/3/88
f 37/1/88 36/2/122 44/3/91
f 44/1/91 36/2/122 51/3/95
f 51/1/95 36/2/122 58/3/98
f 58/1/98 36/2/122 65/3/101
f 65/1/101 36/2/122 72/3/105
f 72/1/105 36/2/122 79/3/108
f 79/1/108 36/2/122 86/3/111
f 86/1/111 36/2/122 93/3/114
f 93/1/114 36/2/122 101/3/117
f 101/1/117 36/2/122 108/3/121
f 36/2/122 1/3/71 108/1/121
f 111/1/63 110/2/119 3/3/74
f 111/1/63 3/3/74 4/4/2
f 110/1/119 109/2/120 2/3/70
f 110/1/119 2/3/70 3/4/74
f 1/3/71 2/4/70 109/1/120
f 1/3/71 109/1/120 108/2/121
f 30/1/83 31/2/84 125/3/123
f 30/1/83 125/3/123 124/4/124
f 87/1/109 88/2/110 129/3/125
f 87/1/109 129/3/125 128/4/126
f 29/1/85 30/2/83 124/3/124
f 29/1/85 124/3/124 123/4/127
f 86/1/111 87/2/109 128/3/126
f 86/1/111 128/3/126 127/4/128
f 23/1/80 24/2/81 133/3/129
f 23/1/80 133/3/129 132/4/130
f 22/1/82 23/2/80 132/3/130
f 22/1/82 132/3/130 131/4/131
f 94/1/112 95/2/113 137/3/132
f 94/1/112 137/3/132 136/4/133
f 93/1/114 94/2/112 136/3/133
f 93/1/114 136/3/133 135/4/134
f 3/1/74 2/2/70 143/3/135
f 3/1/74 143/3/135 144/4/135
usemtl Material.002
f 12/1/4 11/2/3 18/3/77
f 12/1/4 18/3/77 19/4/11
f 18/1/77 17/2/76 24/3/81
f 18/1/77 24/3/81 25/4/18
f 19/1/11 18/2/77 25/3/18
f 19/1/11 25/3/18 26/4/14
f 25/1/18 24/2/81 31/3/84
f 25/1/18 31/3/84 32/4/19
f 32/1/19 31/2/84 39/3/87
f 32/1/19 39/3/87 40/4/25
f 40/1/25 39/2/87 46/3/90
f 40/1/25 46/3/90 47/4/29
f 48/1/28 47/2/29 54/3/93
f 48/1/28 54/3/93 55/4/32
f 54/1/93 53/2/92 60/3/97
f 54/1/93 60/3/97 61/4/136
f 56/1/30 55/2/32 62/3/137
f 56/1/30 62/3/137 63/4/33
f 55/1/32 54/2/93 61/3/136
f 55/1/32 61/3/136 62/4/137
f 61/1/136 60/2/97 67/3/100
f 61/1/136 67/3/100 68/4/102
f 63/1/33 62/2/137 69/3/39
f 63/1/33 69/3/39 70/4/35
f 62/1/137 61/2/136 68/3/102
f 62/1/137 68/3/102 69/4/39
f 69/1/39 68/2/102 75/3/44
f 69/1/39 75/3/44 76/4/40
f 75/1/44 74/2/103 81/3/107
f 75/1/44 81/3/107 82/4/45
f 82/1/45 81/2/107 88/3/110
f 82/1/45 88/3/110 89/4/49
f 89/1/49 88/2/110 95/3/113
f 89/1/49 95/3/113 96/4/53
f 96/1/53 95/2/113 103/3/116
f 96/1/53 103/3/116 104/4/118
f 97/1/52 96/2/53 104/3/118
f 97/1/52 104/3/118 105/4/58
f 105/1/58 104/2/118 111/3/63
f 105/1/58 111/3/63 112/4/61
f 116/1/67 115/2/21 117/3/20
f 116/1/67 117/3/20 118/4/64
f 120/1/65 119/2/55 121/3/54
f 120/1/65 121/3/54 122/4/66
f 26/1/14 25/2/18 115/3/21
f 26/1/14 115/3/21 116/4/67
f 96/1/53 97/2/52 122/3/66
f 96/1/53 122/3/66 121/4/54
f 88/1/110 89/2/49 130/3/138
f 88/1/110 130/3/138 129/4/125
f 31/1/84 32/2/19 126/3/139
f 31/1/84 126/3/139 125/4/123
f 95/1/113 96/2/53 138/3/140
f 95/1/113 138/3/140 137/4/132
f 24/1/81 25/2/18 134/3/141
f 24/1/81 134/3/141 133/4/129
f 60/1/97 67/2/100 147/3/142
f 60/1/97 147/3/142 146/4/143
f 53/1/92 60/2/97 146/3/143
f 53/1/92 146/3/143 145/4/144
f 67/1/100 60/2/97 148/3/145
f 67/1/100 148/3/145 149/4/145
f 60/1/97 53/2/92 150/3/146
f 60/1/97 150/3/146 151/4/146
