# Blender v2.69 (sub 0) OBJ File: 'snake.blend'
# www.blender.org
mtllib snake_000032.mtl
o Cylinder
v -1.081582 -3.049305 0.285612
v -1.786994 -4.062362 0.244167
v -3.188944 -4.122848 0.383759
v -1.787668 -4.100611 0.199674
v -3.258004 -4.171329 0.285618
v -1.789019 -4.177106 0.199673
v -3.188945 -4.122848 0.187477
v -1.789694 -4.215354 0.244167
v -3.050825 -4.025884 0.187477
v -1.789020 -4.177106 0.288661
v -2.981766 -3.977402 0.285618
v -1.787668 -4.100611 0.288661
v -2.965821 -0.516412 0.285619
v -3.035931 -0.443872 0.110884
v -3.176152 -0.298792 0.110884
v -3.246262 -0.226252 0.285620
v -3.176152 -0.298793 0.460355
v -3.035931 -0.443872 0.460355
v -3.351611 -2.474102 0.285619
v -3.457103 -2.484125 0.102079
v -3.668087 -2.504170 0.102079
v -3.773578 -2.514193 0.285619
v -3.668086 -2.504170 0.469159
v -3.457102 -2.484125 0.469159
v -1.184651 0.239155 0.137991
v -1.061882 0.357416 0.137991
v -1.000497 0.416547 0.285618
v -1.061882 0.357416 0.433244
v -1.184651 0.239154 0.433244
v -1.246036 0.180023 0.285618
v -3.266200 -3.497095 0.285619
v -3.352928 -3.557980 0.162368
v -3.526387 -3.679752 0.162368
v -3.613116 -3.740638 0.285618
v -3.526386 -3.679753 0.408869
v -3.352928 -3.557980 0.408869
v -3.293630 -1.407705 0.285619
v -3.398659 -1.393634 0.102079
v -3.608716 -1.365494 0.102080
v -3.713745 -1.351424 0.285620
v -3.608716 -1.365494 0.469160
v -3.398659 -1.393634 0.469160
v -0.556999 -1.117801 0.177337
v -0.434263 -1.141629 0.177337
v -0.372895 -1.153543 0.285615
v -0.434263 -1.141629 0.393892
v -0.556999 -1.117801 0.393892
v -0.618368 -1.105887 0.285615
v -0.586886 -0.365021 0.157664
v -0.480478 -0.262520 0.157664
v -0.427275 -0.211269 0.285616
v -0.480478 -0.262520 0.413568
v -0.586886 -0.365021 0.413568
v -0.640090 -0.416271 0.285616
v -2.203140 0.185928 0.120036
v -2.230684 0.375133 0.120036
v -2.244455 0.469736 0.285619
v -2.230683 0.375133 0.451203
v -2.203140 0.185928 0.451203
v -2.189368 0.091326 0.285619
v -1.113774 -1.675947 0.197011
v -1.057025 -1.761075 0.197011
v -1.028650 -1.803639 0.285614
v -1.057025 -1.761075 0.374217
v -1.113774 -1.675947 0.374217
v -1.142148 -1.633383 0.285614
v -3.050826 -4.025884 0.383759
v -2.248413 -3.818938 0.285618
v -2.251166 -3.974787 0.162367
v -2.260656 -4.290965 0.162366
v -2.266327 -4.447833 0.285617
v -2.263751 -4.294446 0.408868
v -2.251165 -3.974787 0.408868
v -1.990150 -3.873413 0.269353
v -1.992462 -4.004313 0.177367
v -1.997086 -4.266111 0.177367
v -1.999398 -4.397012 0.269353
v -1.997085 -4.266111 0.361339
v -1.992462 -4.004313 0.361339
vt 0.485931 0.262946
vt 0.521451 0.001567
vt 0.584202 -0.052384
vt 0.615662 0.676101
vt 0.584202 0.545412
vt 0.584202 0.437509
vt 0.615662 0.306819
vt 0.485931 0.122178
vt 0.485931 0.719975
vt 0.521451 0.981354
vt 0.458700 1.035305
vt 0.521451 0.599363
vt 0.458700 0.545412
vt 0.356199 0.676101
vt 0.485931 0.860742
vt 0.356199 0.306819
vt 0.458700 0.437509
vt 0.462992 0.253457
vt 0.462992 0.051795
vt 0.289167 0.271628
vt 0.462992 0.507211
vt 0.462992 0.581936
vt 0.696520 0.507211
vt 0.546676 0.507211
vt 0.554128 0.581936
vt 0.277021 0.507211
vt 0.709427 0.581936
vt 0.216556 0.581936
vt 0.229463 0.507211
vt 0.269568 0.581936
vt 0.462992 0.656660
vt 0.462992 0.731385
vt 0.721845 0.731385
vt 0.561297 0.656660
vt 0.561297 0.731385
vt 0.262399 0.731385
vt 0.124049 0.656660
vt 0.124049 0.731385
vt -0.134804 0.731385
vt 0.204138 0.656660
vt 0.204138 0.731385
vt 0.262399 0.656660
vt 0.462991 0.375434
vt 0.462992 0.432487
vt 0.643447 0.375434
vt 0.516034 0.375434
vt 0.532054 0.432487
vt 0.307662 0.375434
vt 0.671195 0.432487
vt 0.282536 0.375434
vt 0.254789 0.432487
vt 0.291642 0.432487
vt 0.462992 0.806109
vt 0.636817 0.806109
vt 0.124049 0.640909
vt 0.039021 0.640909
vt 0.039021 0.342011
vt 0.039021 0.806109
vt -0.134804 0.806109
vt 0.289167 0.806109
vt 0.204138 0.342011
vt 0.289167 0.342011
vt 0.204138 0.640909
vt 0.721845 0.656660
vt 0.462991 0.261329
vt 0.462991 0.318382
vt 0.615699 0.318382
vt 0.483994 0.261329
vt 0.500014 0.318382
vt 0.323682 0.318382
vt 0.587950 0.261329
vt 0.338031 0.261329
vt 0.310284 0.318382
vt 0.339703 0.261329
vt 0.601404 0.372459
vt 0.636817 0.271627
vt 0.530850 0.245675
vt 0.631681 0.302368
vt 0.292846 0.245675
vt 0.462992 0.729464
vt 0.462992 0.931126
vt 0.601404 0.610462
vt 0.262399 0.208313
vt 0.561297 0.208313
vt 0.289167 0.640909
vt 0.324580 0.610462
vt 0.462992 0.790358
vt 0.462992 0.851253
vt 0.324580 0.970255
vt 0.636817 0.342011
vt 0.462992 0.192562
vt 0.462990 0.491460
vt 0.462991 0.635751
vt 0.587950 0.563606
vt 0.587950 0.419315
vt 0.462991 0.347170
vt 0.338031 0.419315
vt 0.338031 0.563606
vt 0.289167 0.711293
vt 0.192015 0.302368
vt 0.462992 0.333330
vt 0.615662 0.078305
vt 0.636817 0.711293
vt 0.462992 0.649591
vt 0.356199 0.904616
vt 0.521451 0.383558
vt 0.324580 0.372459
vt -0.134804 0.656660
vt 0.124049 0.342011
vt 0.289167 0.939807
vt 0.636817 0.640909
vt 0.636817 0.113497
vt 0.289167 0.869424
vn 0.393811 0.919095 -0.011597
vn 0.852016 0.522324 -0.034394
vn 0.724662 0.184454 -0.663930
vn 0.166784 0.322581 -0.931700
vn 0.717673 -0.209937 -0.663930
vn 0.157537 -0.326518 -0.931944
vn 0.368786 -0.929411 -0.011292
vn 0.833064 -0.552080 -0.034394
vn 0.790674 -0.199225 0.578875
vn 0.797235 0.171178 0.578875
vn 0.312723 0.302927 0.900204
vn 0.303598 -0.311991 0.900235
vn -0.557787 -0.829951 -0.000305
vn -0.023743 -0.999664 0.008332
vn 0.042146 -0.357585 0.932920
vn 0.378765 -0.925474 0.000000
vn 0.815180 -0.579180 0.000000
vn 0.152501 -0.397382 -0.904874
vn 0.346202 -0.254372 -0.903012
vn -0.166478 0.546587 -0.820673
vn -0.442335 0.349742 -0.825800
vn -0.269723 0.962920 0.000000
vn -0.773309 0.634022 0.000000
vn -0.442335 0.349742 0.825800
vn 0.152501 -0.397382 0.904874
vn 0.346202 -0.254372 0.903012
vn -0.166478 0.546587 0.820673
vn 0.977966 -0.208625 0.000000
vn 0.999969 0.004089 0.000000
vn 0.480331 -0.011963 -0.876980
vn 0.451979 -0.090365 -0.887417
vn -0.513077 -0.033540 -0.857662
vn -0.524338 0.123234 -0.842524
vn -0.999176 -0.040559 0.000000
vn -0.976287 0.216376 0.000000
vn -0.524338 0.123234 0.842524
vn 0.451979 -0.090365 0.887417
vn 0.480331 -0.011963 0.876980
vn -0.513077 -0.033540 0.857662
vn -0.934782 -0.355113 0.000000
vn -0.265084 -0.964202 0.000000
vn -0.351787 -0.195044 -0.915494
vn -0.136723 -0.378185 -0.915555
vn 0.562334 0.192267 -0.804224
vn 0.223090 0.555559 -0.800958
vn 0.450117 0.892941 0.000000
vn 0.910215 0.414045 0.000000
vn 0.562334 0.192267 0.804224
vn -0.351787 -0.195074 0.915494
vn -0.136692 -0.378216 0.915555
vn 0.223090 0.555559 0.800958
vn 0.961913 0.273293 0.000000
vn 0.374340 0.089633 -0.922941
vn -0.429579 -0.203162 -0.879849
vn -0.904721 -0.425977 0.000000
vn 0.374340 0.089633 0.922941
vn -0.429579 -0.203162 0.879849
vn -0.909665 0.415326 0.000000
vn -0.924009 0.382305 0.000000
vn -0.371593 0.109989 -0.921842
vn -0.614338 0.162694 -0.772057
vn 0.543840 -0.238777 -0.804468
vn 0.323038 -0.231269 -0.917661
vn 0.939207 -0.343272 0.000000
vn 0.942015 -0.335521 0.000000
vn 0.323038 -0.231269 0.917661
vn -0.614338 0.162694 0.772057
vn -0.371593 0.109958 0.921842
vn 0.543840 -0.238777 0.804468
vn -0.234779 -0.473952 -0.848659
vn -0.011933 -0.353771 -0.935240
vn 0.136143 0.264779 -0.954619
vn 0.021851 0.341838 -0.939482
vn 0.223731 0.974639 0.000000
vn 0.059297 0.998138 0.012879
vn -0.235847 -0.472549 0.849117
vn 0.136143 0.264779 0.954619
vn 0.000519 -0.999969 -0.000031
vn 0.078097 0.335368 0.938810
usemtl scale
s 1
f 74/1/1 2/2/2 4/3/3
f 75/4/4 4/5/3 6/6/5
f 76/7/6 6/6/5 77/8/7
f 77/9/7 8/10/8 10/11/9
f 4/5/3 2/12/2 12/13/10
f 79/14/11 12/13/10 74/15/1
f 78/16/12 10/17/9 79/14/11
f 5/18/13 71/19/14 72/20/15
f 60/21/16 13/22/17 55/23/18
f 55/24/18 14/25/19 56/26/20
f 56/23/20 15/27/21 57/21/22
f 57/21/22 16/22/23 17/28/24
f 59/29/25 18/28/26 13/22/17
f 58/26/27 17/30/24 18/25/26
f 37/31/28 19/32/29 20/33/30
f 38/34/31 20/35/30 21/36/32
f 39/37/33 21/38/32 22/39/34
f 40/31/35 22/32/34 41/40/36
f 42/40/37 24/41/38 37/31/28
f 41/42/36 23/36/39 42/34/37
f 54/43/40 30/44/41 49/45/42
f 49/46/42 25/47/43 50/48/44
f 50/45/44 26/49/45 27/44/46
f 51/43/47 27/44/46 52/50/48
f 53/50/49 29/51/50 54/43/40
f 52/48/48 28/52/51 53/46/49
f 19/32/29 31/53/52 32/54/53
f 20/55/30 32/56/53 33/57/54
f 21/38/32 33/58/54 34/59/55
f 22/32/34 34/53/55 23/41/39
f 24/41/38 36/60/56 19/32/29
f 23/61/39 35/62/57 24/63/38
f 13/22/17 37/31/28 14/27/19
f 14/25/19 38/34/31 15/30/21
f 15/27/21 39/64/33 16/22/23
f 16/22/23 40/31/35 41/40/36
f 18/28/26 42/40/37 37/31/28
f 17/30/24 41/42/36 42/34/37
f 66/65/58 48/66/59 43/67/60
f 61/68/61 43/69/60 44/70/62
f 62/71/63 44/67/62 45/66/64
f 63/65/65 45/66/64 64/72/66
f 65/72/67 47/73/68 66/65/58
f 64/74/66 46/70/69 65/68/67
f 48/66/59 54/43/40 49/45/42
f 43/69/60 49/46/42 50/48/44
f 44/67/62 50/45/44 51/43/47
f 45/66/64 51/43/47 46/73/69
f 47/73/68 53/50/49 48/66/59
f 46/70/69 52/48/48 47/69/68
f 30/44/41 60/21/16 25/49/43
f 25/47/43 55/24/18 26/52/45
f 26/49/45 56/23/20 27/44/46
f 27/44/46 57/21/22 58/29/27
f 29/51/50 59/29/25 60/21/16
f 28/52/51 58/26/27 59/24/25
f 7/75/70 70/76/71 5/18/13
f 9/77/72 69/78/73 7/79/70
f 11/80/74 68/81/75 9/82/72
f 35/83/57 3/79/76 36/84/56
f 36/85/56 67/86/77 31/87/52
f 34/87/55 5/88/13 3/89/76
f 33/90/54 7/75/70 34/91/55
f 32/84/53 9/77/72 33/83/54
f 31/87/52 11/80/74 9/82/72
f 1/92/78 66/93/58 61/94/61
f 1/92/78 61/94/61 62/95/63
f 1/92/78 62/95/63 63/96/65
f 1/92/78 63/96/65 64/97/66
f 1/92/78 65/98/67 66/93/58
f 1/92/78 64/97/66 65/98/67
f 67/86/77 73/99/79 68/81/75
f 3/79/76 72/100/15 73/78/79
f 68/101/75 74/1/1 75/102/4
f 69/103/73 75/4/4 70/76/71
f 70/76/71 76/7/6 71/19/14
f 71/104/14 77/9/7 78/105/12
f 73/99/79 79/14/11 68/81/75
f 72/20/15 78/16/12 79/14/11
f 75/102/4 74/1/1 4/3/3
f 76/7/6 75/4/4 6/6/5
f 6/6/5 8/106/8 77/8/7
f 78/105/12 77/9/7 10/11/9
f 8/106/8 6/6/5 10/17/9
f 6/6/5 4/5/3 12/13/10
f 10/17/9 6/6/5 12/13/10
f 12/13/10 2/12/2 74/15/1
f 10/17/9 12/13/10 79/14/11
f 3/107/76 5/18/13 72/20/15
f 13/22/17 14/27/19 55/23/18
f 14/25/19 15/30/21 56/26/20
f 15/27/21 16/22/23 57/21/22
f 58/29/27 57/21/22 17/28/24
f 60/21/16 59/29/25 13/22/17
f 59/24/25 58/26/27 18/25/26
f 38/64/31 37/31/28 20/33/30
f 39/42/33 38/34/31 21/36/32
f 40/108/35 39/37/33 22/39/34
f 22/32/34 23/41/39 41/40/36
f 24/41/38 19/32/29 37/31/28
f 23/36/39 24/35/38 42/34/37
f 30/44/41 25/49/43 49/45/42
f 25/47/43 26/52/45 50/48/44
f 51/43/47 50/45/44 27/44/46
f 27/44/46 28/51/51 52/50/48
f 29/51/50 30/44/41 54/43/40
f 28/52/51 29/47/50 53/46/49
f 20/33/30 19/32/29 32/54/53
f 21/109/32 20/55/30 33/57/54
f 22/39/34 21/38/32 34/59/55
f 34/53/55 35/60/57 23/41/39
f 36/60/56 31/53/52 19/32/29
f 35/62/57 36/85/56 24/63/38
f 37/31/28 38/64/31 14/27/19
f 38/34/31 39/42/33 15/30/21
f 39/64/33 40/31/35 16/22/23
f 17/28/24 16/22/23 41/40/36
f 13/22/17 18/28/26 37/31/28
f 18/25/26 17/30/24 42/34/37
f 61/71/61 66/65/58 43/67/60
f 62/74/63 61/68/61 44/70/62
f 63/65/65 62/71/63 45/66/64
f 45/66/64 46/73/69 64/72/66
f 47/73/68 48/66/59 66/65/58
f 46/70/69 47/69/68 65/68/67
f 43/67/60 48/66/59 49/45/42
f 44/70/62 43/69/60 50/48/44
f 45/66/64 44/67/62 51/43/47
f 51/43/47 52/50/48 46/73/69
f 53/50/49 54/43/40 48/66/59
f 52/48/48 53/46/49 47/69/68
f 60/21/16 55/23/18 25/49/43
f 55/24/18 56/26/20 26/52/45
f 56/23/20 57/21/22 27/44/46
f 28/51/51 27/44/46 58/29/27
f 30/44/41 29/51/50 60/21/16
f 29/47/50 28/52/51 59/24/25
f 70/76/71 71/19/14 5/18/13
f 69/78/73 70/100/71 7/79/70
f 68/81/75 69/103/73 9/82/72
f 3/79/76 67/77/77 36/84/56
f 67/86/77 11/80/74 31/87/52
f 35/110/57 34/87/55 3/89/76
f 7/75/70 5/18/13 34/91/55
f 9/77/72 7/79/70 33/83/54
f 32/111/53 31/87/52 9/82/72
f 11/80/74 67/86/77 68/81/75
f 67/77/77 3/79/76 73/78/79
f 69/112/73 68/101/75 75/102/4
f 75/4/4 76/7/6 70/76/71
f 76/7/6 77/8/7 71/19/14
f 72/113/15 71/104/14 78/105/12
f 79/14/11 74/15/1 68/81/75
f 73/99/79 72/20/15 79/14/11
