# Blender v2.69 (sub 0) OBJ File: 'snake.blend'
# www.blender.org
mtllib snake_000005.mtl
o Cylinder
v -2.332947 -1.170407 0.285614
v -3.243483 -1.554889 0.244170
v -2.423643 -0.623627 0.383760
v -3.268831 -1.526238 0.199676
v -2.505854 -0.604625 0.285619
v -3.319526 -1.468937 0.199676
v -2.423643 -0.623627 0.187478
v -3.344874 -1.440287 0.244170
v -2.259221 -0.661629 0.187478
v -3.319526 -1.468937 0.288663
v -2.177011 -0.680631 0.285619
v -3.268831 -1.526238 0.288663
v 0.243276 0.700232 0.285617
v 0.310173 0.775746 0.110881
v 0.443967 0.926773 0.110881
v 0.510864 1.002286 0.285617
v 0.443967 0.926773 0.460352
v 0.310173 0.775746 0.460352
v -1.446102 0.745543 0.285618
v -1.535865 0.801860 0.102078
v -1.715392 0.914493 0.102078
v -1.805155 0.970809 0.285618
v -1.715391 0.914493 0.469158
v -1.535865 0.801860 0.469158
v 1.056600 -1.003047 0.137989
v 1.160030 -1.138549 0.137989
v 1.211744 -1.206300 0.285615
v 1.160029 -1.138548 0.433242
v 1.056601 -1.003047 0.433242
v 1.004886 -0.935296 0.285615
v -2.009614 -0.148111 0.285619
v -2.112859 -0.124248 0.162368
v -2.319350 -0.076523 0.162368
v -2.422596 -0.052660 0.285619
v -2.319350 -0.076523 0.408870
v -2.112859 -0.124248 0.408870
v -0.670711 0.958088 0.285618
v -0.664810 1.063891 0.102077
v -0.653009 1.275496 0.102077
v -0.647108 1.381299 0.285618
v -0.653009 1.275496 0.469158
v -0.664810 1.063891 0.469158
v -0.347817 -1.431500 0.177337
v -0.393434 -1.547909 0.177337
v -0.416242 -1.606114 0.285615
v -0.393433 -1.547909 0.393892
v -0.347817 -1.431500 0.393892
v -0.325009 -1.373295 0.285614
v 0.387962 -1.527712 0.157663
v 0.477607 -1.645155 0.157663
v 0.522429 -1.703876 0.285615
v 0.477606 -1.645154 0.413567
v 0.387962 -1.527711 0.413567
v 0.343140 -1.468990 0.285615
v 0.989086 -0.005522 0.120033
v 1.177604 0.026390 0.120033
v 1.271863 0.042346 0.285616
v 1.177604 0.026390 0.451199
v 0.989086 -0.005522 0.451199
v 0.894828 -0.021478 0.285616
v -0.985277 -0.904070 0.197011
v -1.059459 -0.974528 0.197011
v -1.096550 -1.009757 0.285614
v -1.059459 -0.974528 0.374217
v -0.985277 -0.904070 0.374217
v -0.948187 -0.868841 0.285614
v -2.259221 -0.661629 0.383760
v -2.738863 -1.422520 0.285620
v -2.842148 -1.305779 0.162369
v -3.045839 -1.075119 0.162369
v -3.148536 -0.960371 0.285620
v -3.043604 -1.077311 0.408870
v -2.842148 -1.305779 0.408870
v -2.966048 -1.556886 0.269355
v -3.052799 -1.458833 0.177370
v -3.226300 -1.262729 0.177370
v -3.313052 -1.164676 0.269355
v -3.226300 -1.262728 0.361341
v -3.052798 -1.458833 0.361341
vt 0.485931 0.262946
vt 0.521451 0.001567
vt 0.584202 -0.052384
vt 0.615662 0.676101
vt 0.584202 0.545412
vt 0.615662 0.306819
vt 0.584202 0.437509
vt 0.485931 0.122178
vt 0.485931 0.719975
vt 0.521451 0.981354
vt 0.458700 1.035305
vt 0.458700 0.437509
vt 0.521451 0.383558
vt 0.356199 0.676101
vt 0.458700 0.545412
vt 0.485931 0.860742
vt 0.356199 0.306819
vt 0.462992 0.253457
vt 0.462992 0.051795
vt 0.324580 0.372459
vt 0.462992 0.507211
vt 0.462992 0.581936
vt 0.696520 0.507211
vt 0.546676 0.507211
vt 0.554128 0.581936
vt 0.277021 0.507211
vt 0.709427 0.581936
vt 0.216556 0.581936
vt 0.229463 0.507211
vt 0.269568 0.581936
vt 0.462992 0.656660
vt 0.462992 0.731385
vt 0.721845 0.731385
vt 0.561297 0.656660
vt 0.561297 0.731385
vt 0.262399 0.731385
vt 0.124049 0.656660
vt 0.124049 0.731385
vt -0.134804 0.731385
vt 0.204138 0.656660
vt 0.204138 0.731385
vt 0.262399 0.656660
vt 0.462991 0.375434
vt 0.462992 0.432487
vt 0.643447 0.375434
vt 0.516034 0.375434
vt 0.532054 0.432487
vt 0.307662 0.375434
vt 0.671195 0.432487
vt 0.282536 0.375434
vt 0.254789 0.432487
vt 0.291642 0.432487
vt 0.462992 0.806109
vt 0.636817 0.806109
vt 0.124049 0.640909
vt 0.039021 0.640909
vt 0.039021 0.342011
vt 0.039021 0.806109
vt -0.134804 0.806109
vt 0.289167 0.806109
vt 0.204138 0.342011
vt 0.289167 0.342011
vt 0.204138 0.640909
vt 0.721845 0.656660
vt 0.462991 0.261329
vt 0.462991 0.318382
vt 0.615699 0.318382
vt 0.483994 0.261329
vt 0.500014 0.318382
vt 0.323682 0.318382
vt 0.587950 0.261329
vt 0.338031 0.261329
vt 0.310284 0.318382
vt 0.339703 0.261329
vt 0.601404 0.372459
vt 0.636817 0.271627
vt 0.530850 0.245675
vt 0.631681 0.302368
vt 0.192015 0.302368
vt 0.462992 0.729464
vt 0.462992 0.931126
vt 0.636817 0.711293
vt 0.262399 0.208313
vt 0.292846 0.245675
vt 0.561297 0.208313
vt 0.289167 0.640909
vt 0.324580 0.610462
vt 0.462992 0.790358
vt 0.462992 0.851253
vt 0.324580 0.970255
vt 0.636817 0.342011
vt 0.462992 0.192562
vt 0.601404 0.610462
vt 0.462990 0.491460
vt 0.462991 0.635751
vt 0.587950 0.563606
vt 0.587950 0.419315
vt 0.462991 0.347170
vt 0.338031 0.419315
vt 0.338031 0.563606
vt 0.289167 0.711293
vt 0.462992 0.333330
vt 0.615662 0.078305
vt 0.462992 0.649591
vt 0.356199 0.904616
vt 0.289167 0.271628
vt 0.521451 0.599363
vt -0.134804 0.656660
vt 0.124049 0.342011
vt 0.289167 0.939807
vt 0.636817 0.640909
vt 0.636817 0.113497
vt 0.289167 0.869424
vn 0.330790 -0.943602 -0.011597
vn -0.275094 -0.960784 -0.034394
vn -0.409497 -0.625660 -0.663930
vn 0.095004 -0.350658 -0.931639
vn -0.335734 0.140538 -0.931394
vn -0.670888 -0.330210 -0.663930
vn -0.891201 0.453413 -0.011200
vn -0.987152 -0.155980 -0.034394
vn -0.717460 -0.387432 0.578875
vn -0.025849 -0.435408 0.899838
vn -0.471999 -0.664907 0.578875
vn -0.434248 0.031770 0.900204
vn -0.764977 0.644032 0.000000
vn -0.682730 0.730461 0.016877
vn -0.280190 0.175085 0.943815
vn -0.906156 -0.422895 0.000000
vn -0.518479 -0.855068 0.000000
vn -0.384411 -0.165807 -0.908139
vn -0.227638 -0.362590 -0.903684
vn 0.547227 0.186712 -0.815882
vn 0.318613 0.466750 -0.824976
vn 0.955046 0.296365 0.000000
vn 0.577837 0.816126 0.000000
vn 0.318644 0.466750 0.824976
vn -0.384411 -0.165807 0.908139
vn -0.227638 -0.362590 0.903684
vn 0.547227 0.186712 0.815882
vn 0.009857 -0.999939 0.000000
vn 0.544542 -0.838710 0.000000
vn 0.241218 -0.335765 -0.910520
vn 0.002930 -0.424665 -0.905332
vn -0.352397 0.457533 -0.816370
vn -0.009766 0.569750 -0.821741
vn -0.651540 0.758599 0.000000
vn -0.006104 0.999969 0.000000
vn -0.009766 0.569750 0.821741
vn 0.002930 -0.424665 0.905332
vn 0.241218 -0.335765 0.910520
vn -0.352397 0.457533 0.816370
vn -0.208686 0.977966 0.000000
vn -0.958922 0.283608 0.000000
vn -0.143315 0.367138 -0.919034
vn -0.356395 0.149602 -0.922269
vn 0.110263 -0.591327 -0.798853
vn 0.561876 -0.250252 -0.788446
vn 0.288156 -0.957579 0.000000
vn 0.860164 -0.509964 0.000000
vn 0.110263 -0.591327 0.798853
vn -0.143315 0.367138 0.919034
vn -0.356395 0.149602 0.922269
vn 0.561876 -0.250252 0.788446
vn 0.902402 -0.430891 0.000000
vn 0.349834 -0.194372 -0.916410
vn -0.437178 0.128941 -0.890072
vn -0.948271 0.317423 0.000000
vn 0.349834 -0.194372 0.916410
vn -0.437178 0.128941 0.890072
vn 0.292184 0.956328 0.000000
vn 0.391186 0.920286 0.000000
vn 0.147496 0.400342 -0.904386
vn 0.078249 0.632496 -0.770592
vn -0.239021 -0.514420 -0.823542
vn -0.186560 -0.331187 -0.924924
vn -0.398450 -0.917173 0.000000
vn -0.214911 -0.976623 0.000000
vn -0.186560 -0.331187 0.924924
vn 0.078249 0.632496 0.770592
vn 0.147496 0.400342 0.904386
vn -0.239021 -0.514420 0.823542
vn -0.280099 0.175207 -0.943815
vn -0.235450 0.252205 -0.938566
vn 0.413678 -0.250862 -0.875149
vn 0.229957 -0.262581 -0.937101
vn 0.885067 -0.465407 0.000000
vn 0.652974 -0.757225 0.013153
vn 0.413648 -0.250862 0.875179
vn -0.985198 -0.171270 -0.000061
vn 0.185156 -0.296274 0.936949
vn -0.269448 0.207923 0.940275
usemtl scale
s 1
f 74/1/1 2/2/2 4/3/3
f 75/4/4 4/5/3 76/6/5
f 76/6/5 6/7/6 77/8/7
f 77/9/7 8/10/8 10/11/9
f 6/7/6 10/12/9 8/13/8
f 79/14/10 12/15/11 74/16/1
f 78/17/12 10/12/9 12/15/11
f 5/18/13 71/19/14 3/20/15
f 60/21/16 13/22/17 55/23/18
f 55/24/18 14/25/19 56/26/20
f 56/23/20 15/27/21 57/21/22
f 57/21/22 16/22/23 17/28/24
f 59/29/25 18/28/26 13/22/17
f 58/26/27 17/30/24 18/25/26
f 37/31/28 19/32/29 20/33/30
f 38/34/31 20/35/30 21/36/32
f 39/37/33 21/38/32 22/39/34
f 40/31/35 22/32/34 41/40/36
f 42/40/37 24/41/38 37/31/28
f 41/42/36 23/36/39 42/34/37
f 54/43/40 30/44/41 49/45/42
f 49/46/42 25/47/43 50/48/44
f 50/45/44 26/49/45 51/43/46
f 51/43/46 27/44/47 52/50/48
f 53/50/49 29/51/50 54/43/40
f 52/48/48 28/52/51 53/46/49
f 19/32/29 31/53/52 32/54/53
f 20/55/30 32/56/53 33/57/54
f 21/38/32 33/58/54 34/59/55
f 22/32/34 34/53/55 23/41/39
f 24/41/38 36/60/56 19/32/29
f 23/61/39 35/62/57 24/63/38
f 13/22/17 37/31/28 14/27/19
f 14/25/19 38/34/31 15/30/21
f 15/27/21 39/64/33 16/22/23
f 16/22/23 40/31/35 41/40/36
f 18/28/26 42/40/37 37/31/28
f 17/30/24 41/42/36 42/34/37
f 66/65/58 48/66/59 43/67/60
f 61/68/61 43/69/60 44/70/62
f 62/71/63 44/67/62 45/66/64
f 63/65/65 45/66/64 64/72/66
f 65/72/67 47/73/68 66/65/58
f 64/74/66 46/70/69 65/68/67
f 48/66/59 54/43/40 49/45/42
f 43/69/60 49/46/42 50/48/44
f 44/67/62 50/45/44 51/43/46
f 45/66/64 51/43/46 46/73/69
f 47/73/68 53/50/49 48/66/59
f 46/70/69 52/48/48 47/69/68
f 30/44/41 60/21/16 25/49/43
f 25/47/43 55/24/18 26/52/45
f 26/49/45 56/23/20 27/44/47
f 27/44/47 57/21/22 58/29/27
f 29/51/50 59/29/25 60/21/16
f 28/52/51 58/26/27 59/24/25
f 7/75/70 70/76/71 71/19/14
f 9/77/72 69/78/73 70/79/71
f 11/80/74 68/81/75 69/82/73
f 35/83/57 3/84/15 36/85/56
f 36/86/56 67/87/76 31/88/52
f 34/88/55 5/89/13 3/90/15
f 33/91/54 7/75/70 34/92/55
f 32/85/53 9/77/72 33/83/54
f 31/88/52 11/80/74 9/93/72
f 1/94/77 66/95/58 61/96/61
f 1/94/77 61/96/61 62/97/63
f 1/94/77 62/97/63 63/98/65
f 1/94/77 63/98/65 64/99/66
f 1/94/77 65/100/67 66/95/58
f 1/94/77 64/99/66 65/100/67
f 67/87/76 73/101/78 11/80/74
f 3/84/15 72/79/79 67/77/76
f 68/102/75 74/1/1 75/103/4
f 69/82/73 75/4/4 76/6/5
f 70/76/71 76/6/5 71/19/14
f 71/104/14 77/9/7 78/105/12
f 73/101/78 79/14/10 68/81/75
f 72/106/79 78/17/12 73/101/78
f 75/103/4 74/1/1 4/3/3
f 4/5/3 6/7/6 76/6/5
f 6/7/6 8/13/8 77/8/7
f 78/105/12 77/9/7 10/11/9
f 6/7/6 4/5/3 10/12/9
f 4/5/3 2/107/2 10/12/9
f 2/107/2 12/15/11 10/12/9
f 12/15/11 2/107/2 74/16/1
f 79/14/10 78/17/12 12/15/11
f 71/19/14 72/106/79 3/20/15
f 13/22/17 14/27/19 55/23/18
f 14/25/19 15/30/21 56/26/20
f 15/27/21 16/22/23 57/21/22
f 58/29/27 57/21/22 17/28/24
f 60/21/16 59/29/25 13/22/17
f 59/24/25 58/26/27 18/25/26
f 38/64/31 37/31/28 20/33/30
f 39/42/33 38/34/31 21/36/32
f 40/108/35 39/37/33 22/39/34
f 22/32/34 23/41/39 41/40/36
f 24/41/38 19/32/29 37/31/28
f 23/36/39 24/35/38 42/34/37
f 30/44/41 25/49/43 49/45/42
f 25/47/43 26/52/45 50/48/44
f 26/49/45 27/44/47 51/43/46
f 27/44/47 28/51/51 52/50/48
f 29/51/50 30/44/41 54/43/40
f 28/52/51 29/47/50 53/46/49
f 20/33/30 19/32/29 32/54/53
f 21/109/32 20/55/30 33/57/54
f 22/39/34 21/38/32 34/59/55
f 34/53/55 35/60/57 23/41/39
f 36/60/56 31/53/52 19/32/29
f 35/62/57 36/86/56 24/63/38
f 37/31/28 38/64/31 14/27/19
f 38/34/31 39/42/33 15/30/21
f 39/64/33 40/31/35 16/22/23
f 17/28/24 16/22/23 41/40/36
f 13/22/17 18/28/26 37/31/28
f 18/25/26 17/30/24 42/34/37
f 61/71/61 66/65/58 43/67/60
f 62/74/63 61/68/61 44/70/62
f 63/65/65 62/71/63 45/66/64
f 45/66/64 46/73/69 64/72/66
f 47/73/68 48/66/59 66/65/58
f 46/70/69 47/69/68 65/68/67
f 43/67/60 48/66/59 49/45/42
f 44/70/62 43/69/60 50/48/44
f 45/66/64 44/67/62 51/43/46
f 51/43/46 52/50/48 46/73/69
f 53/50/49 54/43/40 48/66/59
f 52/48/48 53/46/49 47/69/68
f 60/21/16 55/23/18 25/49/43
f 55/24/18 56/26/20 26/52/45
f 56/23/20 57/21/22 27/44/47
f 28/51/51 27/44/47 58/29/27
f 30/44/41 29/51/50 60/21/16
f 29/47/50 28/52/51 59/24/25
f 5/18/13 7/75/70 71/19/14
f 7/84/70 9/77/72 70/79/71
f 9/93/72 11/80/74 69/82/73
f 3/84/15 67/77/76 36/85/56
f 67/87/76 11/80/74 31/88/52
f 35/110/57 34/88/55 3/90/15
f 7/75/70 5/18/13 34/92/55
f 9/77/72 7/84/70 33/83/54
f 32/111/53 31/88/52 9/93/72
f 73/101/78 68/81/75 11/80/74
f 72/79/79 73/78/78 67/77/76
f 69/112/73 68/102/75 75/103/4
f 70/76/71 69/82/73 76/6/5
f 76/6/5 77/8/7 71/19/14
f 72/113/79 71/104/14 78/105/12
f 79/14/10 74/16/1 68/81/75
f 78/17/12 79/14/10 73/101/78
