# Blender v2.69 (sub 0) OBJ File: 'snake.blend'
# www.blender.org
mtllib snake_000002.mtl
o Cylinder
v -2.261640 -0.834584 0.285614
v -3.049670 -0.484869 0.244170
v -2.056181 0.229999 0.383760
v -3.068142 -0.451370 0.199676
v -2.136519 0.255799 0.285619
v -3.105083 -0.384372 0.199676
v -2.056181 0.229999 0.187478
v -3.123556 -0.350873 0.244170
v -1.895506 0.178399 0.187478
v -3.105083 -0.384372 0.288663
v -1.815169 0.152599 0.285619
v -3.068142 -0.451370 0.288663
v 0.689761 0.789728 0.285617
v 0.777895 0.838821 0.110881
v 0.954161 0.937004 0.110881
v 1.042294 0.986097 0.285617
v 0.954161 0.937004 0.460352
v 0.777895 0.838820 0.460352
v -0.853725 1.375187 0.285618
v -0.927112 1.451629 0.102078
v -1.073888 1.604511 0.102078
v -1.147274 1.680953 0.285618
v -1.073887 1.604511 0.469158
v -0.927112 1.451629 0.469158
v 1.102754 -1.140061 0.137989
v 1.191450 -1.285632 0.137989
v 1.235799 -1.358418 0.285615
v 1.191450 -1.285632 0.433242
v 1.102754 -1.140061 0.433242
v 1.058405 -1.067275 0.285615
v -1.603890 0.669280 0.285619
v -1.704782 0.701681 0.162368
v -1.906566 0.766483 0.162368
v -2.007457 0.798884 0.285619
v -1.906565 0.766483 0.408870
v -1.704782 0.701681 0.408870
v -0.087219 1.335772 0.285618
v -0.046606 1.433647 0.102077
v 0.034620 1.629398 0.102077
v 0.075233 1.727273 0.285618
v 0.034620 1.629398 0.469158
v -0.046605 1.433647 0.469158
v -0.351765 -1.443853 0.177337
v -0.404409 -1.557258 0.177337
v -0.430732 -1.613960 0.285615
v -0.404409 -1.557258 0.393892
v -0.351765 -1.443853 0.393892
v -0.325443 -1.387151 0.285614
v 0.382930 -1.591951 0.157663
v 0.459806 -1.718122 0.157663
v 0.498244 -1.781207 0.285615
v 0.459805 -1.718122 0.413567
v 0.382930 -1.591951 0.413567
v 0.344492 -1.528866 0.285615
v 1.199919 -0.135715 0.120033
v 1.391118 -0.135630 0.120033
v 1.486718 -0.135587 0.285616
v 1.391119 -0.135630 0.451199
v 1.199919 -0.135716 0.451199
v 1.104320 -0.135758 0.285616
v -0.887912 -0.830033 0.197011
v -0.974164 -0.885058 0.197011
v -1.017291 -0.912571 0.285614
v -0.974165 -0.885058 0.374217
v -0.887912 -0.830033 0.374217
v -0.844786 -0.802521 0.285614
v -1.895507 0.178399 0.383760
v -2.528317 -0.466023 0.285620
v -2.603581 -0.329526 0.162369
v -2.751183 -0.060438 0.162369
v -2.826108 0.073566 0.285620
v -2.748908 -0.063472 0.408870
v -2.603582 -0.329526 0.408870
v -2.779382 -0.547471 0.269355
v -2.842599 -0.432825 0.177370
v -2.969031 -0.203533 0.177370
v -3.032246 -0.088886 0.269355
v -2.969030 -0.203533 0.361341
v -2.842598 -0.432825 0.361341
vt 0.485931 0.262946
vt 0.521451 0.001567
vt 0.584202 -0.052384
vt 0.615662 0.676101
vt 0.584202 0.545412
vt 0.615662 0.306819
vt 0.584202 0.437509
vt 0.485931 0.122178
vt 0.485931 0.719975
vt 0.521451 0.981354
vt 0.458700 1.035305
vt 0.458700 0.437509
vt 0.521451 0.383558
vt 0.356199 0.676101
vt 0.458700 0.545412
vt 0.485931 0.860742
vt 0.356199 0.306819
vt 0.462992 0.253457
vt 0.462992 0.051795
vt 0.324580 0.372459
vt 0.462992 0.507211
vt 0.462992 0.581936
vt 0.696520 0.507211
vt 0.546676 0.507211
vt 0.554128 0.581936
vt 0.277021 0.507211
vt 0.709427 0.581936
vt 0.216556 0.581936
vt 0.229463 0.507211
vt 0.269568 0.581936
vt 0.462992 0.656660
vt 0.462992 0.731385
vt 0.721845 0.731385
vt 0.561297 0.656660
vt 0.561297 0.731385
vt 0.262399 0.731385
vt 0.124049 0.656660
vt 0.124049 0.731385
vt -0.134804 0.731385
vt 0.204138 0.656660
vt 0.204138 0.731385
vt 0.262399 0.656660
vt 0.462991 0.375434
vt 0.462992 0.432487
vt 0.643447 0.375434
vt 0.516034 0.375434
vt 0.532054 0.432487
vt 0.307662 0.375434
vt 0.671195 0.432487
vt 0.282536 0.375434
vt 0.254789 0.432487
vt 0.291642 0.432487
vt 0.462992 0.806109
vt 0.636817 0.806109
vt 0.124049 0.640909
vt 0.039021 0.640909
vt 0.039021 0.342011
vt 0.039021 0.806109
vt -0.134804 0.806109
vt 0.289167 0.806109
vt 0.204138 0.342011
vt 0.289167 0.342011
vt 0.204138 0.640909
vt 0.721845 0.656660
vt 0.462991 0.261329
vt 0.462991 0.318382
vt 0.615699 0.318382
vt 0.483994 0.261329
vt 0.500014 0.318382
vt 0.323682 0.318382
vt 0.587950 0.261329
vt 0.338031 0.261329
vt 0.310284 0.318382
vt 0.339703 0.261329
vt 0.601404 0.372459
vt 0.636817 0.271627
vt 0.530850 0.245675
vt 0.631681 0.302368
vt 0.192015 0.302368
vt 0.462992 0.729464
vt 0.462992 0.931126
vt 0.636817 0.711293
vt 0.262399 0.208313
vt 0.292846 0.245675
vt 0.561297 0.208313
vt 0.289167 0.640909
vt 0.324580 0.610462
vt 0.462992 0.790358
vt 0.462992 0.851253
vt 0.324580 0.970255
vt 0.636817 0.342011
vt 0.462992 0.192562
vt 0.601404 0.610462
vt 0.462990 0.491460
vt 0.462991 0.635751
vt 0.587950 0.563606
vt 0.587950 0.419315
vt 0.462991 0.347170
vt 0.338031 0.419315
vt 0.338031 0.563606
vt 0.289167 0.711293
vt 0.462992 0.333330
vt 0.615662 0.078305
vt 0.462992 0.649591
vt 0.356199 0.904616
vt 0.289167 0.271628
vt 0.521451 0.599363
vt -0.134804 0.656660
vt 0.124049 0.342011
vt 0.289167 0.939807
vt 0.636817 0.640909
vt 0.636817 0.113497
vt 0.289167 0.869424
vn 0.116489 -0.993103 -0.011567
vn -0.478500 -0.877407 -0.034394
vn -0.536393 -0.520981 -0.663930
vn 0.016022 -0.362926 -0.931639
vn -0.296518 0.211310 -0.931333
vn -0.726859 -0.175542 -0.663930
vn -0.768853 0.639302 -0.011078
vn -0.997375 0.063570 -0.034394
vn -0.784814 -0.221198 0.578875
vn -0.120426 -0.419202 0.899838
vn -0.605914 -0.545640 0.578875
vn -0.416272 0.126926 0.900327
vn -0.615436 0.788171 0.000000
vn -0.498978 0.866421 0.017731
vn -0.237159 0.206427 0.949248
vn -0.983032 -0.183264 0.000000
vn -0.762505 -0.646962 0.000000
vn -0.430280 -0.076296 -0.899441
vn -0.334697 -0.274514 -0.901425
vn 0.560747 0.051515 -0.826350
vn 0.444411 0.342875 -0.827570
vn 0.996582 0.082430 0.000000
vn 0.803095 0.595813 0.000000
vn 0.444411 0.342875 0.827570
vn -0.430280 -0.076296 0.899441
vn -0.334697 -0.274514 0.901425
vn 0.560747 0.051515 0.826350
vn -0.308939 -0.951079 0.000000
vn 0.278390 -0.960448 0.000000
vn 0.137852 -0.380993 -0.914212
vn -0.132237 -0.400006 -0.906888
vn -0.216865 0.545091 -0.809809
vn 0.169652 0.547746 -0.819239
vn -0.432386 0.901669 0.000000
vn 0.310739 0.950468 0.000000
vn 0.169652 0.547746 0.819239
vn -0.132237 -0.400006 0.906888
vn 0.137852 -0.380993 0.914212
vn -0.216865 0.545091 0.809809
vn -0.130070 0.991485 0.000000
vn -0.906308 0.422590 0.000000
vn -0.110385 0.383892 -0.916745
vn -0.339274 0.199561 -0.919248
vn 0.059236 -0.593860 -0.802362
vn 0.515000 -0.322336 -0.794244
vn 0.789453 -0.613788 0.000000
vn 0.199133 -0.979949 0.000000
vn 0.059236 -0.593860 0.802362
vn -0.110385 0.383892 0.916745
vn -0.339274 0.199561 0.919248
vn 0.515000 -0.322336 0.794244
vn 0.807367 -0.589984 0.000000
vn 0.301706 -0.241951 -0.922178
vn -0.422071 0.212928 -0.881191
vn -0.889798 0.456282 0.000000
vn 0.301706 -0.241951 0.922178
vn -0.422071 0.212928 0.881191
vn 0.455641 0.890133 0.000000
vn 0.501572 0.865108 0.000000
vn 0.183325 0.370037 -0.910733
vn 0.188788 0.607990 -0.771142
vn -0.304636 -0.489212 -0.817225
vn -0.243416 -0.300027 -0.922330
vn -0.496567 -0.867977 0.000000
vn -0.381420 -0.924375 0.000000
vn -0.243416 -0.300027 0.922330
vn 0.188788 0.607990 0.771142
vn 0.183325 0.370037 0.910733
vn -0.304636 -0.489212 0.817225
vn -0.237037 0.206580 -0.949278
vn -0.172857 0.300363 -0.938017
vn 0.381878 -0.329173 -0.863582
vn 0.169561 -0.306375 -0.936674
vn 0.813257 -0.581866 0.000000
vn 0.476608 -0.878994 0.013215
vn 0.381848 -0.329173 0.863582
vn -0.999786 0.019593 -0.000122
vn 0.118473 -0.329508 0.936674
vn -0.214850 0.263833 0.940306
usemtl scale
s 1
f 74/1/1 2/2/2 4/3/3
f 75/4/4 4/5/3 76/6/5
f 76/6/5 6/7/6 77/8/7
f 77/9/7 8/10/8 10/11/9
f 6/7/6 10/12/9 8/13/8
f 79/14/10 12/15/11 74/16/1
f 78/17/12 10/12/9 12/15/11
f 5/18/13 71/19/14 3/20/15
f 60/21/16 13/22/17 55/23/18
f 55/24/18 14/25/19 56/26/20
f 56/23/20 15/27/21 57/21/22
f 57/21/22 16/22/23 17/28/24
f 59/29/25 18/28/26 13/22/17
f 58/26/27 17/30/24 18/25/26
f 37/31/28 19/32/29 20/33/30
f 38/34/31 20/35/30 21/36/32
f 39/37/33 21/38/32 22/39/34
f 40/31/35 22/32/34 41/40/36
f 42/40/37 24/41/38 37/31/28
f 41/42/36 23/36/39 42/34/37
f 54/43/40 30/44/41 49/45/42
f 49/46/42 25/47/43 50/48/44
f 50/45/44 26/49/45 27/44/46
f 51/43/47 27/44/46 52/50/48
f 53/50/49 29/51/50 54/43/40
f 52/48/48 28/52/51 53/46/49
f 19/32/29 31/53/52 32/54/53
f 20/55/30 32/56/53 33/57/54
f 21/38/32 33/58/54 34/59/55
f 22/32/34 34/53/55 23/41/39
f 24/41/38 36/60/56 19/32/29
f 23/61/39 35/62/57 24/63/38
f 13/22/17 37/31/28 14/27/19
f 14/25/19 38/34/31 15/30/21
f 15/27/21 39/64/33 16/22/23
f 16/22/23 40/31/35 41/40/36
f 18/28/26 42/40/37 37/31/28
f 17/30/24 41/42/36 42/34/37
f 66/65/58 48/66/59 43/67/60
f 61/68/61 43/69/60 44/70/62
f 62/71/63 44/67/62 45/66/64
f 63/65/65 45/66/64 64/72/66
f 65/72/67 47/73/68 66/65/58
f 64/74/66 46/70/69 65/68/67
f 48/66/59 54/43/40 49/45/42
f 43/69/60 49/46/42 50/48/44
f 44/67/62 50/45/44 51/43/47
f 45/66/64 51/43/47 46/73/69
f 47/73/68 53/50/49 48/66/59
f 46/70/69 52/48/48 47/69/68
f 30/44/41 60/21/16 25/49/43
f 25/47/43 55/24/18 26/52/45
f 26/49/45 56/23/20 27/44/46
f 27/44/46 57/21/22 58/29/27
f 29/51/50 59/29/25 60/21/16
f 28/52/51 58/26/27 59/24/25
f 7/75/70 70/76/71 71/19/14
f 9/77/72 69/78/73 70/79/71
f 11/80/74 68/81/75 69/82/73
f 35/83/57 3/84/15 36/85/56
f 36/86/56 67/87/76 31/88/52
f 34/88/55 5/89/13 3/90/15
f 33/91/54 7/75/70 34/92/55
f 32/85/53 9/77/72 33/83/54
f 31/88/52 11/80/74 9/93/72
f 1/94/77 66/95/58 61/96/61
f 1/94/77 61/96/61 62/97/63
f 1/94/77 62/97/63 63/98/65
f 1/94/77 63/98/65 64/99/66
f 1/94/77 65/100/67 66/95/58
f 1/94/77 64/99/66 65/100/67
f 67/87/76 73/101/78 11/80/74
f 3/84/15 72/79/79 67/77/76
f 68/102/75 74/1/1 75/103/4
f 69/82/73 75/4/4 76/6/5
f 70/76/71 76/6/5 71/19/14
f 71/104/14 77/9/7 78/105/12
f 73/101/78 79/14/10 68/81/75
f 72/106/79 78/17/12 73/101/78
f 75/103/4 74/1/1 4/3/3
f 4/5/3 6/7/6 76/6/5
f 6/7/6 8/13/8 77/8/7
f 78/105/12 77/9/7 10/11/9
f 4/5/3 2/107/2 12/15/11
f 6/7/6 4/5/3 12/15/11
f 10/12/9 6/7/6 12/15/11
f 12/15/11 2/107/2 74/16/1
f 79/14/10 78/17/12 12/15/11
f 71/19/14 72/106/79 3/20/15
f 13/22/17 14/27/19 55/23/18
f 14/25/19 15/30/21 56/26/20
f 15/27/21 16/22/23 57/21/22
f 58/29/27 57/21/22 17/28/24
f 60/21/16 59/29/25 13/22/17
f 59/24/25 58/26/27 18/25/26
f 38/64/31 37/31/28 20/33/30
f 39/42/33 38/34/31 21/36/32
f 40/108/35 39/37/33 22/39/34
f 22/32/34 23/41/39 41/40/36
f 24/41/38 19/32/29 37/31/28
f 23/36/39 24/35/38 42/34/37
f 30/44/41 25/49/43 49/45/42
f 25/47/43 26/52/45 50/48/44
f 51/43/47 50/45/44 27/44/46
f 27/44/46 28/51/51 52/50/48
f 29/51/50 30/44/41 54/43/40
f 28/52/51 29/47/50 53/46/49
f 20/33/30 19/32/29 32/54/53
f 21/109/32 20/55/30 33/57/54
f 22/39/34 21/38/32 34/59/55
f 34/53/55 35/60/57 23/41/39
f 36/60/56 31/53/52 19/32/29
f 35/62/57 36/86/56 24/63/38
f 37/31/28 38/64/31 14/27/19
f 38/34/31 39/42/33 15/30/21
f 39/64/33 40/31/35 16/22/23
f 17/28/24 16/22/23 41/40/36
f 13/22/17 18/28/26 37/31/28
f 18/25/26 17/30/24 42/34/37
f 61/71/61 66/65/58 43/67/60
f 62/74/63 61/68/61 44/70/62
f 63/65/65 62/71/63 45/66/64
f 45/66/64 46/73/69 64/72/66
f 47/73/68 48/66/59 66/65/58
f 46/70/69 47/69/68 65/68/67
f 43/67/60 48/66/59 49/45/42
f 44/70/62 43/69/60 50/48/44
f 45/66/64 44/67/62 51/43/47
f 51/43/47 52/50/48 46/73/69
f 53/50/49 54/43/40 48/66/59
f 52/48/48 53/46/49 47/69/68
f 60/21/16 55/23/18 25/49/43
f 55/24/18 56/26/20 26/52/45
f 56/23/20 57/21/22 27/44/46
f 28/51/51 27/44/46 58/29/27
f 30/44/41 29/51/50 60/21/16
f 29/47/50 28/52/51 59/24/25
f 5/18/13 7/75/70 71/19/14
f 7/84/70 9/77/72 70/79/71
f 9/93/72 11/80/74 69/82/73
f 3/84/15 67/77/76 36/85/56
f 67/87/76 11/80/74 31/88/52
f 35/110/57 34/88/55 3/90/15
f 7/75/70 5/18/13 34/92/55
f 9/77/72 7/84/70 33/83/54
f 32/111/53 31/88/52 9/93/72
f 73/101/78 68/81/75 11/80/74
f 72/79/79 73/78/78 67/77/76
f 69/112/73 68/102/75 75/103/4
f 70/76/71 69/82/73 76/6/5
f 76/6/5 77/8/7 71/19/14
f 72/113/79 71/104/14 78/105/12
f 79/14/10 74/16/1 68/81/75
f 78/17/12 79/14/10 73/101/78
