# Blender v2.69 (sub 0) OBJ File: 'snake.blend'
# www.blender.org
mtllib snake_000012.mtl
o Cylinder
v -2.206831 -2.061941 0.285614
v -2.970295 -2.641239 0.244170
v -2.909731 -1.332891 0.383760
v -3.007992 -2.634732 0.199676
v -2.993779 -1.325434 0.285619
v -3.083384 -2.621719 0.199676
v -2.909731 -1.332891 0.187478
v -3.121080 -2.615212 0.244170
v -2.741634 -1.347805 0.187478
v -3.083384 -2.621719 0.288663
v -2.657586 -1.355262 0.285619
v -3.007992 -2.634732 0.288663
v -0.388216 0.755410 0.285617
v -0.355750 0.850927 0.110881
v -0.290817 1.041961 0.110881
v -0.258351 1.137477 0.285617
v -0.290818 1.041960 0.460352
v -0.355750 0.850927 0.460352
v -2.091324 0.131395 0.285618
v -2.186045 0.178901 0.102078
v -2.375489 0.273912 0.102078
v -2.470211 0.321418 0.285618
v -2.375489 0.273912 0.469158
v -2.186045 0.178901 0.469158
v 0.873765 -0.563928 0.137989
v 1.012613 -0.662819 0.137989
v 1.082037 -0.712264 0.285615
v 1.012613 -0.662818 0.433242
v 0.873765 -0.563928 0.433242
v 0.804341 -0.514482 0.285615
v -2.565395 -0.804718 0.285619
v -2.670947 -0.795353 0.162368
v -2.882051 -0.776623 0.162368
v -2.987603 -0.767259 0.285619
v -2.882051 -0.776623 0.408870
v -2.670946 -0.795353 0.408870
v -1.330782 0.639515 0.285618
v -1.366281 0.739359 0.102077
v -1.437279 0.939047 0.102077
v -1.472778 1.038891 0.285618
v -1.437279 0.939047 0.469158
v -1.366281 0.739359 0.469158
v -0.339629 -1.373553 0.177337
v -0.351703 -1.497997 0.177337
v -0.357740 -1.560218 0.285615
v -0.351703 -1.497997 0.393892
v -0.339629 -1.373553 0.393892
v -0.333592 -1.311331 0.285614
v 0.390007 -1.262733 0.157663
v 0.510350 -1.348444 0.157663
v 0.570522 -1.391300 0.285615
v 0.510350 -1.348444 0.413567
v 0.390006 -1.262733 0.413567
v 0.329835 -1.219877 0.285615
v 0.541788 0.384242 0.120033
v 0.715157 0.464867 0.120033
v 0.801842 0.505179 0.285616
v 0.715158 0.464866 0.451199
v 0.541788 0.384242 0.451199
v 0.455104 0.343930 0.285616
v -1.158640 -1.173997 0.197011
v -1.189210 -1.271633 0.197011
v -1.204494 -1.320451 0.285614
v -1.189210 -1.271633 0.374217
v -1.158641 -1.173997 0.374217
v -1.143355 -1.125180 0.285614
v -2.741635 -1.347805 0.383760
v -2.659284 -2.222387 0.285620
v -2.812886 -2.195876 0.162369
v -3.119580 -2.143048 0.162369
v -3.273002 -2.116752 0.285620
v -3.119185 -2.143201 0.408870
v -2.812886 -2.195876 0.408870
v -2.752547 -2.469308 0.269355
v -2.881559 -2.447040 0.177370
v -3.139584 -2.402504 0.177370
v -3.268595 -2.380237 0.269355
v -3.139584 -2.402504 0.361341
v -2.881558 -2.447039 0.361341
vt 0.485931 0.262946
vt 0.521451 0.001567
vt 0.584202 -0.052384
vt 0.615662 0.676101
vt 0.584202 0.545412
vt 0.615662 0.306819
vt 0.584202 0.437509
vt 0.485931 0.122178
vt 0.485931 0.719975
vt 0.521451 0.981354
vt 0.458700 1.035305
vt 0.521451 0.599363
vt 0.458700 0.545412
vt 0.356199 0.676101
vt 0.485931 0.860742
vt 0.356199 0.306819
vt 0.458700 0.437509
vt 0.462992 0.253457
vt 0.462992 0.051795
vt 0.324580 0.372459
vt 0.462992 0.507211
vt 0.462992 0.581936
vt 0.696520 0.507211
vt 0.546676 0.507211
vt 0.554128 0.581936
vt 0.277021 0.507211
vt 0.709427 0.581936
vt 0.216556 0.581936
vt 0.229463 0.507211
vt 0.269568 0.581936
vt 0.462992 0.656660
vt 0.462992 0.731385
vt 0.721845 0.731385
vt 0.561297 0.656660
vt 0.561297 0.731385
vt 0.262399 0.731385
vt 0.124049 0.656660
vt 0.124049 0.731385
vt -0.134804 0.731385
vt 0.204138 0.656660
vt 0.204138 0.731385
vt 0.262399 0.656660
vt 0.462991 0.375434
vt 0.462992 0.432487
vt 0.643447 0.375434
vt 0.516034 0.375434
vt 0.532054 0.432487
vt 0.307662 0.375434
vt 0.671195 0.432487
vt 0.282536 0.375434
vt 0.254789 0.432487
vt 0.291642 0.432487
vt 0.462992 0.806109
vt 0.636817 0.806109
vt 0.124049 0.640909
vt 0.039021 0.640909
vt 0.039021 0.342011
vt 0.039021 0.806109
vt -0.134804 0.806109
vt 0.289167 0.806109
vt 0.204138 0.342011
vt 0.289167 0.342011
vt 0.204138 0.640909
vt 0.721845 0.656660
vt 0.462991 0.261329
vt 0.462991 0.318382
vt 0.615699 0.318382
vt 0.483994 0.261329
vt 0.500014 0.318382
vt 0.323682 0.318382
vt 0.587950 0.261329
vt 0.338031 0.261329
vt 0.310284 0.318382
vt 0.339703 0.261329
vt 0.601404 0.372459
vt 0.636817 0.271627
vt 0.530850 0.245675
vt 0.631681 0.302368
vt 0.192015 0.302368
vt 0.462992 0.729464
vt 0.462992 0.931126
vt 0.601404 0.610462
vt 0.262399 0.208313
vt 0.292846 0.245675
vt 0.561297 0.208313
vt 0.289167 0.640909
vt 0.324580 0.610462
vt 0.462992 0.790358
vt 0.462992 0.851253
vt 0.324580 0.970255
vt 0.636817 0.342011
vt 0.462992 0.192562
vt 0.462990 0.491460
vt 0.462991 0.635751
vt 0.587950 0.563606
vt 0.587950 0.419315
vt 0.462991 0.347170
vt 0.338031 0.419315
vt 0.338031 0.563606
vt 0.289167 0.711293
vt 0.462992 0.333330
vt 0.615662 0.078305
vt 0.636817 0.711293
vt 0.462992 0.649591
vt 0.356199 0.904616
vt 0.289167 0.271628
vt 0.521451 0.383558
vt -0.134804 0.656660
vt 0.124049 0.342011
vt 0.289167 0.939807
vt 0.636817 0.640909
vt 0.636817 0.113497
vt 0.289167 0.869424
vn 0.848201 -0.529496 -0.011567
vn 0.386120 -0.921781 -0.034394
vn 0.071657 -0.744316 -0.663930
vn 0.293405 -0.214209 -0.931639
vn -0.348460 -0.103061 -0.931608
vn -0.317026 -0.677236 -0.663930
vn -0.976928 -0.213202 -0.011567
vn -0.672781 -0.739006 -0.034394
vn -0.317576 -0.750999 0.578875
vn 0.047456 -0.814020 0.578875
vn 0.252083 -0.355937 0.899838
vn -0.357036 -0.250374 0.899869
vn -0.983520 0.180639 0.000000
vn -0.992004 0.125462 0.013367
vn -0.386761 0.061312 0.920103
vn -0.713706 -0.700430 0.000000
vn -0.157811 -0.987457 0.000000
vn -0.302622 -0.268777 -0.914396
vn -0.073214 -0.418470 -0.905240
vn 0.464827 0.361339 -0.808283
vn 0.123844 0.554430 -0.822932
vn 0.817316 0.576128 0.000000
vn 0.232917 0.972472 0.000000
vn 0.123844 0.554430 0.822932
vn -0.302622 -0.268777 0.914396
vn -0.073214 -0.418470 0.905240
vn 0.464827 0.361339 0.808283
vn 0.350719 -0.936460 0.000000
vn 0.724693 -0.689047 0.000000
vn 0.319803 -0.301096 -0.898343
vn 0.155004 -0.408338 -0.899533
vn -0.424329 0.354595 -0.833155
vn -0.191565 0.524338 -0.829646
vn -0.776482 0.630116 0.000000
vn -0.344279 0.938841 0.000000
vn -0.191565 0.524338 0.829646
vn 0.155004 -0.408338 0.899533
vn 0.319803 -0.301096 0.898343
vn -0.424329 0.354595 0.833155
vn -0.476516 0.879147 0.000000
vn -0.999939 0.010529 0.000000
vn -0.241585 0.307718 -0.920286
vn -0.387707 0.043947 -0.920713
vn 0.275521 -0.537522 -0.796930
vn 0.605396 -0.083743 -0.791467
vn 0.969878 -0.243568 0.000000
vn 0.552538 -0.833461 0.000000
vn 0.275521 -0.537522 0.796930
vn -0.241585 0.307718 0.920286
vn -0.387707 0.043947 0.920713
vn 0.605396 -0.083743 0.791467
vn 0.945036 -0.326884 0.000000
vn 0.366619 -0.151189 -0.917966
vn -0.453261 0.079409 -0.887814
vn -0.979492 0.201361 0.000000
vn 0.366619 -0.151189 0.917966
vn -0.453261 0.079440 0.887814
vn -0.182409 0.983215 0.000000
vn 0.027375 0.999603 0.000000
vn -0.001160 0.451704 -0.892148
vn -0.224281 0.597888 -0.769524
vn -0.035127 -0.549364 -0.834803
vn -0.016602 -0.369243 -0.929167
vn -0.051515 -0.998657 0.000000
vn 0.258248 -0.966063 0.000000
vn -0.016602 -0.369243 0.929167
vn -0.224281 0.597888 0.769524
vn -0.001160 0.451704 0.892148
vn -0.035127 -0.549364 0.834803
vn -0.386761 0.061312 -0.920103
vn -0.339457 0.043550 -0.939604
vn 0.408063 -0.040010 -0.912046
vn 0.334697 -0.072481 -0.939512
vn 0.996490 -0.083651 0.000000
vn 0.976806 -0.213691 0.012848
vn 0.408063 -0.040010 0.912046
vn -0.777581 -0.628742 0.000000
vn 0.320505 -0.126682 0.938719
vn -0.343455 -0.012360 0.939085
usemtl scale
s 1
f 74/1/1 2/2/2 4/3/3
f 75/4/4 4/5/3 76/6/5
f 76/6/5 6/7/6 77/8/7
f 77/9/7 8/10/8 10/11/9
f 4/5/3 2/12/2 12/13/10
f 79/14/11 12/13/10 74/15/1
f 78/16/12 10/17/9 79/14/11
f 5/18/13 71/19/14 3/20/15
f 60/21/16 13/22/17 55/23/18
f 55/24/18 14/25/19 56/26/20
f 56/23/20 15/27/21 57/21/22
f 57/21/22 16/22/23 17/28/24
f 59/29/25 18/28/26 13/22/17
f 58/26/27 17/30/24 18/25/26
f 37/31/28 19/32/29 20/33/30
f 38/34/31 20/35/30 21/36/32
f 39/37/33 21/38/32 22/39/34
f 40/31/35 22/32/34 41/40/36
f 42/40/37 24/41/38 37/31/28
f 41/42/36 23/36/39 42/34/37
f 54/43/40 30/44/41 49/45/42
f 49/46/42 25/47/43 50/48/44
f 50/45/44 26/49/45 27/44/46
f 51/43/47 27/44/46 52/50/48
f 53/50/49 29/51/50 54/43/40
f 52/48/48 28/52/51 53/46/49
f 19/32/29 31/53/52 32/54/53
f 20/55/30 32/56/53 33/57/54
f 21/38/32 33/58/54 34/59/55
f 22/32/34 34/53/55 23/41/39
f 24/41/38 36/60/56 19/32/29
f 23/61/39 35/62/57 24/63/38
f 13/22/17 37/31/28 14/27/19
f 14/25/19 38/34/31 15/30/21
f 15/27/21 39/64/33 16/22/23
f 16/22/23 40/31/35 41/40/36
f 18/28/26 42/40/37 37/31/28
f 17/30/24 41/42/36 42/34/37
f 66/65/58 48/66/59 43/67/60
f 61/68/61 43/69/60 44/70/62
f 62/71/63 44/67/62 45/66/64
f 63/65/65 45/66/64 64/72/66
f 65/72/67 47/73/68 66/65/58
f 64/74/66 46/70/69 65/68/67
f 48/66/59 54/43/40 49/45/42
f 43/69/60 49/46/42 50/48/44
f 44/67/62 50/45/44 51/43/47
f 45/66/64 51/43/47 46/73/69
f 47/73/68 53/50/49 48/66/59
f 46/70/69 52/48/48 47/69/68
f 30/44/41 60/21/16 25/49/43
f 25/47/43 55/24/18 26/52/45
f 26/49/45 56/23/20 27/44/46
f 27/44/46 57/21/22 58/29/27
f 29/51/50 59/29/25 60/21/16
f 28/52/51 58/26/27 59/24/25
f 7/75/70 70/76/71 71/19/14
f 9/77/72 69/78/73 70/79/71
f 11/80/74 68/81/75 9/82/72
f 35/83/57 3/84/15 36/85/56
f 36/86/56 67/87/76 31/88/52
f 34/88/55 5/89/13 3/90/15
f 33/91/54 7/75/70 34/92/55
f 32/85/53 9/77/72 33/83/54
f 31/88/52 11/80/74 9/82/72
f 1/93/77 66/94/58 61/95/61
f 1/93/77 61/95/61 62/96/63
f 1/93/77 62/96/63 63/97/65
f 1/93/77 63/97/65 64/98/66
f 1/93/77 65/99/67 66/94/58
f 1/93/77 64/98/66 65/99/67
f 67/87/76 73/100/78 68/81/75
f 3/84/15 72/79/79 67/77/76
f 68/101/75 74/1/1 75/102/4
f 69/103/73 75/4/4 76/6/5
f 70/76/71 76/6/5 71/19/14
f 71/104/14 77/9/7 78/105/12
f 73/100/78 79/14/11 68/81/75
f 72/106/79 78/16/12 73/100/78
f 75/102/4 74/1/1 4/3/3
f 4/5/3 6/7/6 76/6/5
f 6/7/6 8/107/8 77/8/7
f 78/105/12 77/9/7 10/11/9
f 8/107/8 6/7/6 10/17/9
f 6/7/6 4/5/3 10/17/9
f 4/5/3 12/13/10 10/17/9
f 12/13/10 2/12/2 74/15/1
f 10/17/9 12/13/10 79/14/11
f 71/19/14 72/106/79 3/20/15
f 13/22/17 14/27/19 55/23/18
f 14/25/19 15/30/21 56/26/20
f 15/27/21 16/22/23 57/21/22
f 58/29/27 57/21/22 17/28/24
f 60/21/16 59/29/25 13/22/17
f 59/24/25 58/26/27 18/25/26
f 38/64/31 37/31/28 20/33/30
f 39/42/33 38/34/31 21/36/32
f 40/108/35 39/37/33 22/39/34
f 22/32/34 23/41/39 41/40/36
f 24/41/38 19/32/29 37/31/28
f 23/36/39 24/35/38 42/34/37
f 30/44/41 25/49/43 49/45/42
f 25/47/43 26/52/45 50/48/44
f 51/43/47 50/45/44 27/44/46
f 27/44/46 28/51/51 52/50/48
f 29/51/50 30/44/41 54/43/40
f 28/52/51 29/47/50 53/46/49
f 20/33/30 19/32/29 32/54/53
f 21/109/32 20/55/30 33/57/54
f 22/39/34 21/38/32 34/59/55
f 34/53/55 35/60/57 23/41/39
f 36/60/56 31/53/52 19/32/29
f 35/62/57 36/86/56 24/63/38
f 37/31/28 38/64/31 14/27/19
f 38/34/31 39/42/33 15/30/21
f 39/64/33 40/31/35 16/22/23
f 17/28/24 16/22/23 41/40/36
f 13/22/17 18/28/26 37/31/28
f 18/25/26 17/30/24 42/34/37
f 61/71/61 66/65/58 43/67/60
f 62/74/63 61/68/61 44/70/62
f 63/65/65 62/71/63 45/66/64
f 45/66/64 46/73/69 64/72/66
f 47/73/68 48/66/59 66/65/58
f 46/70/69 47/69/68 65/68/67
f 43/67/60 48/66/59 49/45/42
f 44/70/62 43/69/60 50/48/44
f 45/66/64 44/67/62 51/43/47
f 51/43/47 52/50/48 46/73/69
f 53/50/49 54/43/40 48/66/59
f 52/48/48 53/46/49 47/69/68
f 60/21/16 55/23/18 25/49/43
f 55/24/18 56/26/20 26/52/45
f 56/23/20 57/21/22 27/44/46
f 28/51/51 27/44/46 58/29/27
f 30/44/41 29/51/50 60/21/16
f 29/47/50 28/52/51 59/24/25
f 5/18/13 7/75/70 71/19/14
f 7/84/70 9/77/72 70/79/71
f 68/81/75 69/103/73 9/82/72
f 3/84/15 67/77/76 36/85/56
f 67/87/76 11/80/74 31/88/52
f 35/110/57 34/88/55 3/90/15
f 7/75/70 5/18/13 34/92/55
f 9/77/72 7/84/70 33/83/54
f 32/111/53 31/88/52 9/82/72
f 11/80/74 67/87/76 68/81/75
f 72/79/79 73/78/78 67/77/76
f 69/112/73 68/101/75 75/102/4
f 70/76/71 69/103/73 76/6/5
f 76/6/5 77/8/7 71/19/14
f 72/113/79 71/104/14 78/105/12
f 79/14/11 74/15/1 68/81/75
f 78/16/12 79/14/11 73/100/78
